<svg xmlns="http://www.w3.org/2000/svg" width="1120" height="430" viewBox="0 0 1120 430">
<rect x="0" y="0" width="1120" height="430" fill="#ffffff"/>
<text x="560.0" y="26" text-anchor="middle" font-family="Arial, sans-serif" font-size="18" font-weight="700">ACF de residuos AR(49) al cuadrado hasta 288 retardos</text>
<line x1="82" y1="372.00" x2="1090.00" y2="372.00" stroke="#e8e8e8" stroke-width="1"/>
<text x="74" y="376.00" text-anchor="end" font-family="Arial, sans-serif" font-size="11">-0.02</text>
<line x1="82" y1="293.50" x2="1090.00" y2="293.50" stroke="#e8e8e8" stroke-width="1"/>
<text x="74" y="297.50" text-anchor="end" font-family="Arial, sans-serif" font-size="11">0.00519</text>
<line x1="82" y1="215.00" x2="1090.00" y2="215.00" stroke="#e8e8e8" stroke-width="1"/>
<text x="74" y="219.00" text-anchor="end" font-family="Arial, sans-serif" font-size="11">0.0304</text>
<line x1="82" y1="136.50" x2="1090.00" y2="136.50" stroke="#e8e8e8" stroke-width="1"/>
<text x="74" y="140.50" text-anchor="end" font-family="Arial, sans-serif" font-size="11">0.0556</text>
<line x1="82" y1="58.00" x2="1090.00" y2="58.00" stroke="#e8e8e8" stroke-width="1"/>
<text x="74" y="62.00" text-anchor="end" font-family="Arial, sans-serif" font-size="11">0.0808</text>
<rect x="82" y="58" width="1008.00" height="314.00" fill="none" stroke="#222222" stroke-width="1"/>
<line x1="82" y1="309.68" x2="1090.00" y2="309.68" stroke="#222222" stroke-width="1"/>
<line x1="82" y1="297.33" x2="1090.00" y2="297.33" stroke="#a33" stroke-width="1" stroke-dasharray="5,4"/>
<line x1="82" y1="322.02" x2="1090.00" y2="322.02" stroke="#a33" stroke-width="1" stroke-dasharray="5,4"/>
<line x1="120.63" y1="58" x2="120.63" y2="372.00" stroke="#777777" stroke-width="1" stroke-dasharray="3,4"/>
<text x="120.63" y="50" text-anchor="middle" font-family="Arial, sans-serif" font-size="10" fill="#555555">12</text>
<line x1="1090.00" y1="58" x2="1090.00" y2="372.00" stroke="#777777" stroke-width="1" stroke-dasharray="3,4"/>
<text x="1090.00" y="50" text-anchor="middle" font-family="Arial, sans-serif" font-size="10" fill="#555555">288</text>
<rect x="80.50" y="254.21" width="3.00" height="55.46" fill="#60758a" opacity="0.82"/>
<rect x="84.01" y="305.12" width="3.00" height="4.56" fill="#60758a" opacity="0.82"/>
<rect x="87.52" y="304.98" width="3.00" height="4.70" fill="#60758a" opacity="0.82"/>
<rect x="91.04" y="309.68" width="3.00" height="9.39" fill="#60758a" opacity="0.82"/>
<rect x="94.55" y="309.68" width="3.00" height="18.07" fill="#60758a" opacity="0.82"/>
<rect x="98.06" y="309.68" width="3.00" height="21.25" fill="#60758a" opacity="0.82"/>
<rect x="101.57" y="309.68" width="3.00" height="29.29" fill="#60758a" opacity="0.82"/>
<rect x="105.09" y="309.68" width="3.00" height="25.31" fill="#60758a" opacity="0.82"/>
<rect x="108.60" y="309.68" width="3.00" height="36.16" fill="#60758a" opacity="0.82"/>
<rect x="112.11" y="309.68" width="3.00" height="38.82" fill="#60758a" opacity="0.82"/>
<rect x="115.62" y="309.68" width="3.00" height="24.12" fill="#60758a" opacity="0.82"/>
<rect x="119.13" y="76.64" width="3.00" height="233.03" fill="#60758a" opacity="0.82"/>
<rect x="122.65" y="286.42" width="3.00" height="23.25" fill="#60758a" opacity="0.82"/>
<rect x="126.16" y="297.88" width="3.00" height="11.79" fill="#60758a" opacity="0.82"/>
<rect x="129.67" y="303.16" width="3.00" height="6.52" fill="#60758a" opacity="0.82"/>
<rect x="133.18" y="309.68" width="3.00" height="0.80" fill="#60758a" opacity="0.82"/>
<rect x="136.70" y="308.20" width="3.00" height="1.48" fill="#60758a" opacity="0.82"/>
<rect x="140.21" y="305.87" width="3.00" height="3.81" fill="#60758a" opacity="0.82"/>
<rect x="143.72" y="309.68" width="3.00" height="3.85" fill="#60758a" opacity="0.82"/>
<rect x="147.23" y="304.66" width="3.00" height="5.02" fill="#60758a" opacity="0.82"/>
<rect x="150.74" y="309.68" width="3.00" height="3.07" fill="#60758a" opacity="0.82"/>
<rect x="154.26" y="309.29" width="3.00" height="0.80" fill="#60758a" opacity="0.82"/>
<rect x="157.77" y="305.56" width="3.00" height="4.12" fill="#60758a" opacity="0.82"/>
<rect x="161.28" y="252.13" width="3.00" height="57.54" fill="#60758a" opacity="0.82"/>
<rect x="164.79" y="300.53" width="3.00" height="9.15" fill="#60758a" opacity="0.82"/>
<rect x="168.30" y="302.81" width="3.00" height="6.87" fill="#60758a" opacity="0.82"/>
<rect x="171.82" y="290.06" width="3.00" height="19.61" fill="#60758a" opacity="0.82"/>
<rect x="175.33" y="301.37" width="3.00" height="8.31" fill="#60758a" opacity="0.82"/>
<rect x="178.84" y="305.47" width="3.00" height="4.20" fill="#60758a" opacity="0.82"/>
<rect x="182.35" y="303.94" width="3.00" height="5.74" fill="#60758a" opacity="0.82"/>
<rect x="185.87" y="307.74" width="3.00" height="1.93" fill="#60758a" opacity="0.82"/>
<rect x="189.38" y="306.58" width="3.00" height="3.09" fill="#60758a" opacity="0.82"/>
<rect x="192.89" y="309.68" width="3.00" height="4.33" fill="#60758a" opacity="0.82"/>
<rect x="196.40" y="309.25" width="3.00" height="0.80" fill="#60758a" opacity="0.82"/>
<rect x="199.91" y="295.79" width="3.00" height="13.88" fill="#60758a" opacity="0.82"/>
<rect x="203.43" y="294.46" width="3.00" height="15.21" fill="#60758a" opacity="0.82"/>
<rect x="206.94" y="306.59" width="3.00" height="3.09" fill="#60758a" opacity="0.82"/>
<rect x="210.45" y="309.68" width="3.00" height="1.27" fill="#60758a" opacity="0.82"/>
<rect x="213.96" y="309.68" width="3.00" height="2.72" fill="#60758a" opacity="0.82"/>
<rect x="217.48" y="309.68" width="3.00" height="6.08" fill="#60758a" opacity="0.82"/>
<rect x="220.99" y="304.39" width="3.00" height="5.29" fill="#60758a" opacity="0.82"/>
<rect x="224.50" y="300.23" width="3.00" height="9.45" fill="#60758a" opacity="0.82"/>
<rect x="228.01" y="309.68" width="3.00" height="3.22" fill="#60758a" opacity="0.82"/>
<rect x="231.52" y="309.68" width="3.00" height="3.55" fill="#60758a" opacity="0.82"/>
<rect x="235.04" y="309.68" width="3.00" height="6.36" fill="#60758a" opacity="0.82"/>
<rect x="238.55" y="309.58" width="3.00" height="0.80" fill="#60758a" opacity="0.82"/>
<rect x="242.06" y="300.71" width="3.00" height="8.97" fill="#60758a" opacity="0.82"/>
<rect x="245.57" y="308.71" width="3.00" height="0.97" fill="#60758a" opacity="0.82"/>
<rect x="249.09" y="309.68" width="3.00" height="1.41" fill="#60758a" opacity="0.82"/>
<rect x="252.60" y="306.58" width="3.00" height="3.09" fill="#60758a" opacity="0.82"/>
<rect x="256.11" y="309.68" width="3.00" height="2.91" fill="#60758a" opacity="0.82"/>
<rect x="259.62" y="309.68" width="3.00" height="8.01" fill="#60758a" opacity="0.82"/>
<rect x="263.13" y="309.54" width="3.00" height="0.80" fill="#60758a" opacity="0.82"/>
<rect x="266.65" y="307.37" width="3.00" height="2.31" fill="#60758a" opacity="0.82"/>
<rect x="270.16" y="309.68" width="3.00" height="5.95" fill="#60758a" opacity="0.82"/>
<rect x="273.67" y="306.51" width="3.00" height="3.16" fill="#60758a" opacity="0.82"/>
<rect x="277.18" y="309.68" width="3.00" height="1.20" fill="#60758a" opacity="0.82"/>
<rect x="280.70" y="306.74" width="3.00" height="2.94" fill="#60758a" opacity="0.82"/>
<rect x="284.21" y="288.81" width="3.00" height="20.86" fill="#60758a" opacity="0.82"/>
<rect x="287.72" y="304.64" width="3.00" height="5.04" fill="#60758a" opacity="0.82"/>
<rect x="291.23" y="309.68" width="3.00" height="1.40" fill="#60758a" opacity="0.82"/>
<rect x="294.74" y="303.29" width="3.00" height="6.39" fill="#60758a" opacity="0.82"/>
<rect x="298.26" y="309.46" width="3.00" height="0.80" fill="#60758a" opacity="0.82"/>
<rect x="301.77" y="308.55" width="3.00" height="1.13" fill="#60758a" opacity="0.82"/>
<rect x="305.28" y="307.93" width="3.00" height="1.74" fill="#60758a" opacity="0.82"/>
<rect x="308.79" y="298.10" width="3.00" height="11.58" fill="#60758a" opacity="0.82"/>
<rect x="312.30" y="309.68" width="3.00" height="1.24" fill="#60758a" opacity="0.82"/>
<rect x="315.82" y="308.97" width="3.00" height="0.80" fill="#60758a" opacity="0.82"/>
<rect x="319.33" y="302.54" width="3.00" height="7.13" fill="#60758a" opacity="0.82"/>
<rect x="322.84" y="309.68" width="3.00" height="4.13" fill="#60758a" opacity="0.82"/>
<rect x="326.35" y="302.66" width="3.00" height="7.02" fill="#60758a" opacity="0.82"/>
<rect x="329.87" y="305.42" width="3.00" height="4.26" fill="#60758a" opacity="0.82"/>
<rect x="333.38" y="309.68" width="3.00" height="7.68" fill="#60758a" opacity="0.82"/>
<rect x="336.89" y="309.68" width="3.00" height="0.80" fill="#60758a" opacity="0.82"/>
<rect x="340.40" y="308.40" width="3.00" height="1.28" fill="#60758a" opacity="0.82"/>
<rect x="343.91" y="307.54" width="3.00" height="2.14" fill="#60758a" opacity="0.82"/>
<rect x="347.43" y="301.92" width="3.00" height="7.75" fill="#60758a" opacity="0.82"/>
<rect x="350.94" y="306.52" width="3.00" height="3.16" fill="#60758a" opacity="0.82"/>
<rect x="354.45" y="309.42" width="3.00" height="0.80" fill="#60758a" opacity="0.82"/>
<rect x="357.96" y="309.68" width="3.00" height="7.21" fill="#60758a" opacity="0.82"/>
<rect x="361.48" y="309.68" width="3.00" height="2.74" fill="#60758a" opacity="0.82"/>
<rect x="364.99" y="309.68" width="3.00" height="3.24" fill="#60758a" opacity="0.82"/>
<rect x="368.50" y="305.42" width="3.00" height="4.25" fill="#60758a" opacity="0.82"/>
<rect x="372.01" y="300.29" width="3.00" height="9.39" fill="#60758a" opacity="0.82"/>
<rect x="375.52" y="309.68" width="3.00" height="4.57" fill="#60758a" opacity="0.82"/>
<rect x="379.04" y="309.68" width="3.00" height="1.20" fill="#60758a" opacity="0.82"/>
<rect x="382.55" y="295.99" width="3.00" height="13.69" fill="#60758a" opacity="0.82"/>
<rect x="386.06" y="309.68" width="3.00" height="3.24" fill="#60758a" opacity="0.82"/>
<rect x="389.57" y="309.68" width="3.00" height="2.20" fill="#60758a" opacity="0.82"/>
<rect x="393.09" y="309.60" width="3.00" height="0.80" fill="#60758a" opacity="0.82"/>
<rect x="396.60" y="309.68" width="3.00" height="2.01" fill="#60758a" opacity="0.82"/>
<rect x="400.11" y="303.39" width="3.00" height="6.28" fill="#60758a" opacity="0.82"/>
<rect x="403.62" y="284.08" width="3.00" height="25.60" fill="#60758a" opacity="0.82"/>
<rect x="407.13" y="305.26" width="3.00" height="4.42" fill="#60758a" opacity="0.82"/>
<rect x="410.65" y="305.84" width="3.00" height="3.83" fill="#60758a" opacity="0.82"/>
<rect x="414.16" y="306.85" width="3.00" height="2.83" fill="#60758a" opacity="0.82"/>
<rect x="417.67" y="309.68" width="3.00" height="5.40" fill="#60758a" opacity="0.82"/>
<rect x="421.18" y="309.68" width="3.00" height="1.16" fill="#60758a" opacity="0.82"/>
<rect x="424.70" y="279.38" width="3.00" height="30.29" fill="#60758a" opacity="0.82"/>
<rect x="428.21" y="309.68" width="3.00" height="1.51" fill="#60758a" opacity="0.82"/>
<rect x="431.72" y="300.91" width="3.00" height="8.76" fill="#60758a" opacity="0.82"/>
<rect x="435.23" y="309.68" width="3.00" height="5.35" fill="#60758a" opacity="0.82"/>
<rect x="438.74" y="309.68" width="3.00" height="2.94" fill="#60758a" opacity="0.82"/>
<rect x="442.26" y="309.68" width="3.00" height="4.86" fill="#60758a" opacity="0.82"/>
<rect x="445.77" y="309.68" width="3.00" height="1.44" fill="#60758a" opacity="0.82"/>
<rect x="449.28" y="307.48" width="3.00" height="2.20" fill="#60758a" opacity="0.82"/>
<rect x="452.79" y="304.55" width="3.00" height="5.13" fill="#60758a" opacity="0.82"/>
<rect x="456.30" y="303.96" width="3.00" height="5.72" fill="#60758a" opacity="0.82"/>
<rect x="459.82" y="309.68" width="3.00" height="2.76" fill="#60758a" opacity="0.82"/>
<rect x="463.33" y="292.45" width="3.00" height="17.23" fill="#60758a" opacity="0.82"/>
<rect x="466.84" y="309.68" width="3.00" height="1.43" fill="#60758a" opacity="0.82"/>
<rect x="470.35" y="301.06" width="3.00" height="8.62" fill="#60758a" opacity="0.82"/>
<rect x="473.87" y="309.68" width="3.00" height="2.74" fill="#60758a" opacity="0.82"/>
<rect x="477.38" y="308.43" width="3.00" height="1.24" fill="#60758a" opacity="0.82"/>
<rect x="480.89" y="303.47" width="3.00" height="6.20" fill="#60758a" opacity="0.82"/>
<rect x="484.40" y="308.62" width="3.00" height="1.05" fill="#60758a" opacity="0.82"/>
<rect x="487.91" y="309.68" width="3.00" height="1.73" fill="#60758a" opacity="0.82"/>
<rect x="491.43" y="300.29" width="3.00" height="9.38" fill="#60758a" opacity="0.82"/>
<rect x="494.94" y="307.74" width="3.00" height="1.94" fill="#60758a" opacity="0.82"/>
<rect x="498.45" y="309.68" width="3.00" height="5.65" fill="#60758a" opacity="0.82"/>
<rect x="501.96" y="309.68" width="3.00" height="0.95" fill="#60758a" opacity="0.82"/>
<rect x="505.48" y="309.68" width="3.00" height="1.78" fill="#60758a" opacity="0.82"/>
<rect x="508.99" y="308.76" width="3.00" height="0.92" fill="#60758a" opacity="0.82"/>
<rect x="512.50" y="308.97" width="3.00" height="0.80" fill="#60758a" opacity="0.82"/>
<rect x="516.01" y="303.09" width="3.00" height="6.59" fill="#60758a" opacity="0.82"/>
<rect x="519.52" y="301.24" width="3.00" height="8.44" fill="#60758a" opacity="0.82"/>
<rect x="523.04" y="309.68" width="3.00" height="1.91" fill="#60758a" opacity="0.82"/>
<rect x="526.55" y="305.57" width="3.00" height="4.10" fill="#60758a" opacity="0.82"/>
<rect x="530.06" y="306.00" width="3.00" height="3.67" fill="#60758a" opacity="0.82"/>
<rect x="533.57" y="297.42" width="3.00" height="12.25" fill="#60758a" opacity="0.82"/>
<rect x="537.09" y="302.29" width="3.00" height="7.39" fill="#60758a" opacity="0.82"/>
<rect x="540.60" y="307.69" width="3.00" height="1.98" fill="#60758a" opacity="0.82"/>
<rect x="544.11" y="300.33" width="3.00" height="9.35" fill="#60758a" opacity="0.82"/>
<rect x="547.62" y="298.71" width="3.00" height="10.96" fill="#60758a" opacity="0.82"/>
<rect x="551.13" y="308.15" width="3.00" height="1.52" fill="#60758a" opacity="0.82"/>
<rect x="554.65" y="308.43" width="3.00" height="1.24" fill="#60758a" opacity="0.82"/>
<rect x="558.16" y="309.68" width="3.00" height="2.04" fill="#60758a" opacity="0.82"/>
<rect x="561.67" y="304.95" width="3.00" height="4.72" fill="#60758a" opacity="0.82"/>
<rect x="565.18" y="309.68" width="3.00" height="7.33" fill="#60758a" opacity="0.82"/>
<rect x="568.70" y="307.44" width="3.00" height="2.24" fill="#60758a" opacity="0.82"/>
<rect x="572.21" y="309.68" width="3.00" height="3.60" fill="#60758a" opacity="0.82"/>
<rect x="575.72" y="307.11" width="3.00" height="2.57" fill="#60758a" opacity="0.82"/>
<rect x="579.23" y="309.68" width="3.00" height="2.65" fill="#60758a" opacity="0.82"/>
<rect x="582.74" y="309.68" width="3.00" height="6.12" fill="#60758a" opacity="0.82"/>
<rect x="586.26" y="308.68" width="3.00" height="1.00" fill="#60758a" opacity="0.82"/>
<rect x="589.77" y="309.68" width="3.00" height="3.61" fill="#60758a" opacity="0.82"/>
<rect x="593.28" y="298.58" width="3.00" height="11.10" fill="#60758a" opacity="0.82"/>
<rect x="596.79" y="308.20" width="3.00" height="1.48" fill="#60758a" opacity="0.82"/>
<rect x="600.30" y="299.81" width="3.00" height="9.87" fill="#60758a" opacity="0.82"/>
<rect x="603.82" y="298.96" width="3.00" height="10.72" fill="#60758a" opacity="0.82"/>
<rect x="607.33" y="309.68" width="3.00" height="1.36" fill="#60758a" opacity="0.82"/>
<rect x="610.84" y="297.96" width="3.00" height="11.72" fill="#60758a" opacity="0.82"/>
<rect x="614.35" y="309.68" width="3.00" height="11.84" fill="#60758a" opacity="0.82"/>
<rect x="617.87" y="309.68" width="3.00" height="5.20" fill="#60758a" opacity="0.82"/>
<rect x="621.38" y="309.68" width="3.00" height="5.63" fill="#60758a" opacity="0.82"/>
<rect x="624.89" y="297.47" width="3.00" height="12.21" fill="#60758a" opacity="0.82"/>
<rect x="628.40" y="309.13" width="3.00" height="0.80" fill="#60758a" opacity="0.82"/>
<rect x="631.91" y="309.68" width="3.00" height="1.32" fill="#60758a" opacity="0.82"/>
<rect x="635.43" y="305.23" width="3.00" height="4.45" fill="#60758a" opacity="0.82"/>
<rect x="638.94" y="308.87" width="3.00" height="0.80" fill="#60758a" opacity="0.82"/>
<rect x="642.45" y="304.12" width="3.00" height="5.56" fill="#60758a" opacity="0.82"/>
<rect x="645.96" y="302.08" width="3.00" height="7.59" fill="#60758a" opacity="0.82"/>
<rect x="649.48" y="303.96" width="3.00" height="5.72" fill="#60758a" opacity="0.82"/>
<rect x="652.99" y="306.41" width="3.00" height="3.27" fill="#60758a" opacity="0.82"/>
<rect x="656.50" y="309.68" width="3.00" height="1.90" fill="#60758a" opacity="0.82"/>
<rect x="660.01" y="308.70" width="3.00" height="0.98" fill="#60758a" opacity="0.82"/>
<rect x="663.52" y="309.68" width="3.00" height="4.34" fill="#60758a" opacity="0.82"/>
<rect x="667.04" y="304.87" width="3.00" height="4.81" fill="#60758a" opacity="0.82"/>
<rect x="670.55" y="309.68" width="3.00" height="0.80" fill="#60758a" opacity="0.82"/>
<rect x="674.06" y="308.03" width="3.00" height="1.65" fill="#60758a" opacity="0.82"/>
<rect x="677.57" y="309.68" width="3.00" height="0.80" fill="#60758a" opacity="0.82"/>
<rect x="681.09" y="305.60" width="3.00" height="4.07" fill="#60758a" opacity="0.82"/>
<rect x="684.60" y="292.65" width="3.00" height="17.03" fill="#60758a" opacity="0.82"/>
<rect x="688.11" y="298.28" width="3.00" height="11.40" fill="#60758a" opacity="0.82"/>
<rect x="691.62" y="302.18" width="3.00" height="7.49" fill="#60758a" opacity="0.82"/>
<rect x="695.13" y="309.68" width="3.00" height="6.37" fill="#60758a" opacity="0.82"/>
<rect x="698.65" y="307.27" width="3.00" height="2.40" fill="#60758a" opacity="0.82"/>
<rect x="702.16" y="301.67" width="3.00" height="8.01" fill="#60758a" opacity="0.82"/>
<rect x="705.67" y="302.90" width="3.00" height="6.78" fill="#60758a" opacity="0.82"/>
<rect x="709.18" y="306.19" width="3.00" height="3.48" fill="#60758a" opacity="0.82"/>
<rect x="712.70" y="302.03" width="3.00" height="7.65" fill="#60758a" opacity="0.82"/>
<rect x="716.21" y="309.68" width="3.00" height="5.41" fill="#60758a" opacity="0.82"/>
<rect x="719.72" y="309.68" width="3.00" height="1.94" fill="#60758a" opacity="0.82"/>
<rect x="723.23" y="309.68" width="3.00" height="5.27" fill="#60758a" opacity="0.82"/>
<rect x="726.74" y="309.68" width="3.00" height="1.89" fill="#60758a" opacity="0.82"/>
<rect x="730.26" y="301.41" width="3.00" height="8.27" fill="#60758a" opacity="0.82"/>
<rect x="733.77" y="309.15" width="3.00" height="0.80" fill="#60758a" opacity="0.82"/>
<rect x="737.28" y="306.79" width="3.00" height="2.89" fill="#60758a" opacity="0.82"/>
<rect x="740.79" y="303.37" width="3.00" height="6.31" fill="#60758a" opacity="0.82"/>
<rect x="744.30" y="309.68" width="3.00" height="1.33" fill="#60758a" opacity="0.82"/>
<rect x="747.82" y="309.68" width="3.00" height="0.89" fill="#60758a" opacity="0.82"/>
<rect x="751.33" y="309.68" width="3.00" height="0.80" fill="#60758a" opacity="0.82"/>
<rect x="754.84" y="308.54" width="3.00" height="1.13" fill="#60758a" opacity="0.82"/>
<rect x="758.35" y="309.68" width="3.00" height="10.72" fill="#60758a" opacity="0.82"/>
<rect x="761.87" y="300.70" width="3.00" height="8.98" fill="#60758a" opacity="0.82"/>
<rect x="765.38" y="305.93" width="3.00" height="3.74" fill="#60758a" opacity="0.82"/>
<rect x="768.89" y="301.37" width="3.00" height="8.31" fill="#60758a" opacity="0.82"/>
<rect x="772.40" y="304.93" width="3.00" height="4.74" fill="#60758a" opacity="0.82"/>
<rect x="775.91" y="306.51" width="3.00" height="3.17" fill="#60758a" opacity="0.82"/>
<rect x="779.43" y="309.68" width="3.00" height="1.32" fill="#60758a" opacity="0.82"/>
<rect x="782.94" y="308.96" width="3.00" height="0.80" fill="#60758a" opacity="0.82"/>
<rect x="786.45" y="309.68" width="3.00" height="1.47" fill="#60758a" opacity="0.82"/>
<rect x="789.96" y="309.68" width="3.00" height="0.96" fill="#60758a" opacity="0.82"/>
<rect x="793.48" y="307.47" width="3.00" height="2.20" fill="#60758a" opacity="0.82"/>
<rect x="796.99" y="304.20" width="3.00" height="5.47" fill="#60758a" opacity="0.82"/>
<rect x="800.50" y="309.68" width="3.00" height="4.44" fill="#60758a" opacity="0.82"/>
<rect x="804.01" y="308.38" width="3.00" height="1.30" fill="#60758a" opacity="0.82"/>
<rect x="807.52" y="309.68" width="3.00" height="3.85" fill="#60758a" opacity="0.82"/>
<rect x="811.04" y="309.68" width="3.00" height="2.04" fill="#60758a" opacity="0.82"/>
<rect x="814.55" y="302.38" width="3.00" height="7.30" fill="#60758a" opacity="0.82"/>
<rect x="818.06" y="309.68" width="3.00" height="4.93" fill="#60758a" opacity="0.82"/>
<rect x="821.57" y="309.68" width="3.00" height="0.80" fill="#60758a" opacity="0.82"/>
<rect x="825.09" y="298.64" width="3.00" height="11.04" fill="#60758a" opacity="0.82"/>
<rect x="828.60" y="301.91" width="3.00" height="7.76" fill="#60758a" opacity="0.82"/>
<rect x="832.11" y="309.35" width="3.00" height="0.80" fill="#60758a" opacity="0.82"/>
<rect x="835.62" y="309.68" width="3.00" height="0.80" fill="#60758a" opacity="0.82"/>
<rect x="839.13" y="305.27" width="3.00" height="4.41" fill="#60758a" opacity="0.82"/>
<rect x="842.65" y="309.68" width="3.00" height="1.24" fill="#60758a" opacity="0.82"/>
<rect x="846.16" y="306.71" width="3.00" height="2.97" fill="#60758a" opacity="0.82"/>
<rect x="849.67" y="309.68" width="3.00" height="0.80" fill="#60758a" opacity="0.82"/>
<rect x="853.18" y="309.68" width="3.00" height="0.80" fill="#60758a" opacity="0.82"/>
<rect x="856.70" y="307.11" width="3.00" height="2.57" fill="#60758a" opacity="0.82"/>
<rect x="860.21" y="309.45" width="3.00" height="0.80" fill="#60758a" opacity="0.82"/>
<rect x="863.72" y="297.92" width="3.00" height="11.76" fill="#60758a" opacity="0.82"/>
<rect x="867.23" y="304.51" width="3.00" height="5.17" fill="#60758a" opacity="0.82"/>
<rect x="870.74" y="309.68" width="3.00" height="6.69" fill="#60758a" opacity="0.82"/>
<rect x="874.26" y="309.68" width="3.00" height="0.97" fill="#60758a" opacity="0.82"/>
<rect x="877.77" y="309.54" width="3.00" height="0.80" fill="#60758a" opacity="0.82"/>
<rect x="881.28" y="305.85" width="3.00" height="3.82" fill="#60758a" opacity="0.82"/>
<rect x="884.79" y="309.68" width="3.00" height="0.80" fill="#60758a" opacity="0.82"/>
<rect x="888.30" y="300.83" width="3.00" height="8.85" fill="#60758a" opacity="0.82"/>
<rect x="891.82" y="308.76" width="3.00" height="0.92" fill="#60758a" opacity="0.82"/>
<rect x="895.33" y="309.68" width="3.00" height="2.86" fill="#60758a" opacity="0.82"/>
<rect x="898.84" y="300.06" width="3.00" height="9.62" fill="#60758a" opacity="0.82"/>
<rect x="902.35" y="309.68" width="3.00" height="3.30" fill="#60758a" opacity="0.82"/>
<rect x="905.87" y="304.59" width="3.00" height="5.09" fill="#60758a" opacity="0.82"/>
<rect x="909.38" y="306.55" width="3.00" height="3.13" fill="#60758a" opacity="0.82"/>
<rect x="912.89" y="309.66" width="3.00" height="0.80" fill="#60758a" opacity="0.82"/>
<rect x="916.40" y="309.68" width="3.00" height="1.48" fill="#60758a" opacity="0.82"/>
<rect x="919.91" y="283.76" width="3.00" height="25.91" fill="#60758a" opacity="0.82"/>
<rect x="923.43" y="307.72" width="3.00" height="1.96" fill="#60758a" opacity="0.82"/>
<rect x="926.94" y="309.68" width="3.00" height="4.70" fill="#60758a" opacity="0.82"/>
<rect x="930.45" y="307.21" width="3.00" height="2.47" fill="#60758a" opacity="0.82"/>
<rect x="933.96" y="307.05" width="3.00" height="2.63" fill="#60758a" opacity="0.82"/>
<rect x="937.48" y="307.85" width="3.00" height="1.83" fill="#60758a" opacity="0.82"/>
<rect x="940.99" y="293.75" width="3.00" height="15.92" fill="#60758a" opacity="0.82"/>
<rect x="944.50" y="301.80" width="3.00" height="7.88" fill="#60758a" opacity="0.82"/>
<rect x="948.01" y="308.64" width="3.00" height="1.03" fill="#60758a" opacity="0.82"/>
<rect x="951.52" y="307.18" width="3.00" height="2.49" fill="#60758a" opacity="0.82"/>
<rect x="955.04" y="299.58" width="3.00" height="10.10" fill="#60758a" opacity="0.82"/>
<rect x="958.55" y="301.55" width="3.00" height="8.13" fill="#60758a" opacity="0.82"/>
<rect x="962.06" y="307.88" width="3.00" height="1.79" fill="#60758a" opacity="0.82"/>
<rect x="965.57" y="309.68" width="3.00" height="8.19" fill="#60758a" opacity="0.82"/>
<rect x="969.09" y="309.68" width="3.00" height="2.79" fill="#60758a" opacity="0.82"/>
<rect x="972.60" y="304.39" width="3.00" height="5.28" fill="#60758a" opacity="0.82"/>
<rect x="976.11" y="309.68" width="3.00" height="1.12" fill="#60758a" opacity="0.82"/>
<rect x="979.62" y="309.68" width="3.00" height="6.67" fill="#60758a" opacity="0.82"/>
<rect x="983.13" y="303.69" width="3.00" height="5.99" fill="#60758a" opacity="0.82"/>
<rect x="986.65" y="307.73" width="3.00" height="1.95" fill="#60758a" opacity="0.82"/>
<rect x="990.16" y="309.68" width="3.00" height="4.83" fill="#60758a" opacity="0.82"/>
<rect x="993.67" y="290.67" width="3.00" height="19.01" fill="#60758a" opacity="0.82"/>
<rect x="997.18" y="295.65" width="3.00" height="14.03" fill="#60758a" opacity="0.82"/>
<rect x="1000.70" y="306.29" width="3.00" height="3.39" fill="#60758a" opacity="0.82"/>
<rect x="1004.21" y="306.12" width="3.00" height="3.56" fill="#60758a" opacity="0.82"/>
<rect x="1007.72" y="309.68" width="3.00" height="6.40" fill="#60758a" opacity="0.82"/>
<rect x="1011.23" y="301.84" width="3.00" height="7.84" fill="#60758a" opacity="0.82"/>
<rect x="1014.74" y="305.43" width="3.00" height="4.24" fill="#60758a" opacity="0.82"/>
<rect x="1018.26" y="309.68" width="3.00" height="0.91" fill="#60758a" opacity="0.82"/>
<rect x="1021.77" y="309.68" width="3.00" height="3.64" fill="#60758a" opacity="0.82"/>
<rect x="1025.28" y="305.14" width="3.00" height="4.53" fill="#60758a" opacity="0.82"/>
<rect x="1028.79" y="309.68" width="3.00" height="3.19" fill="#60758a" opacity="0.82"/>
<rect x="1032.30" y="309.68" width="3.00" height="5.21" fill="#60758a" opacity="0.82"/>
<rect x="1035.82" y="308.74" width="3.00" height="0.94" fill="#60758a" opacity="0.82"/>
<rect x="1039.33" y="309.11" width="3.00" height="0.80" fill="#60758a" opacity="0.82"/>
<rect x="1042.84" y="308.81" width="3.00" height="0.86" fill="#60758a" opacity="0.82"/>
<rect x="1046.35" y="278.37" width="3.00" height="31.30" fill="#60758a" opacity="0.82"/>
<rect x="1049.87" y="301.51" width="3.00" height="8.17" fill="#60758a" opacity="0.82"/>
<rect x="1053.38" y="309.68" width="3.00" height="3.50" fill="#60758a" opacity="0.82"/>
<rect x="1056.89" y="309.68" width="3.00" height="2.29" fill="#60758a" opacity="0.82"/>
<rect x="1060.40" y="309.68" width="3.00" height="2.64" fill="#60758a" opacity="0.82"/>
<rect x="1063.91" y="281.47" width="3.00" height="28.21" fill="#60758a" opacity="0.82"/>
<rect x="1067.43" y="305.49" width="3.00" height="4.18" fill="#60758a" opacity="0.82"/>
<rect x="1070.94" y="309.68" width="3.00" height="2.89" fill="#60758a" opacity="0.82"/>
<rect x="1074.45" y="309.68" width="3.00" height="0.80" fill="#60758a" opacity="0.82"/>
<rect x="1077.96" y="297.50" width="3.00" height="12.17" fill="#60758a" opacity="0.82"/>
<rect x="1081.48" y="308.67" width="3.00" height="1.00" fill="#60758a" opacity="0.82"/>
<rect x="1084.99" y="299.82" width="3.00" height="9.86" fill="#60758a" opacity="0.82"/>
<rect x="1088.50" y="272.32" width="3.00" height="37.35" fill="#60758a" opacity="0.82"/>
<text x="82.00" y="402" text-anchor="middle" font-family="Arial, sans-serif" font-size="11">1</text>
<text x="120.63" y="402" text-anchor="middle" font-family="Arial, sans-serif" font-size="11">12</text>
<text x="247.07" y="402" text-anchor="middle" font-family="Arial, sans-serif" font-size="11">48</text>
<text x="415.66" y="402" text-anchor="middle" font-family="Arial, sans-serif" font-size="11">96</text>
<text x="584.24" y="402" text-anchor="middle" font-family="Arial, sans-serif" font-size="11">144</text>
<text x="837.12" y="402" text-anchor="middle" font-family="Arial, sans-serif" font-size="11">216</text>
<text x="1090.00" y="402" text-anchor="middle" font-family="Arial, sans-serif" font-size="11">288</text>
<text x="586.00" y="422" text-anchor="middle" font-family="Arial, sans-serif" font-size="13">Retardo</text>
<text transform="translate(18,215.0) rotate(-90)" text-anchor="middle" font-family="Arial, sans-serif" font-size="13">ACF</text>
<text x="90" y="418" font-family="Arial, sans-serif" font-size="11" fill="#8a2222">Bandas orientativas ±0.003962</text>
</svg>