<svg xmlns="http://www.w3.org/2000/svg" width="1080" height="460" viewBox="0 0 1080 460">
<rect x="0" y="0" width="1080" height="460" fill="#ffffff"/>
<text x="540.0" y="28" text-anchor="middle" font-family="Arial, sans-serif" font-size="18" font-weight="700">Prediccion test corta t=9874-9923 logistic_noise_small</text>
<rect x="76" y="58" width="974.00" height="340.00" fill="none" stroke="#222222"/>
<line x1="76" y1="398.00" x2="1050.00" y2="398.00" stroke="#e8e8e8"/>
<text x="68" y="402.00" text-anchor="end" font-family="Arial, sans-serif" font-size="11">-0.08</text>
<line x1="76" y1="313.00" x2="1050.00" y2="313.00" stroke="#e8e8e8"/>
<text x="68" y="317.00" text-anchor="end" font-family="Arial, sans-serif" font-size="11">0.21</text>
<line x1="76" y1="228.00" x2="1050.00" y2="228.00" stroke="#e8e8e8"/>
<text x="68" y="232.00" text-anchor="end" font-family="Arial, sans-serif" font-size="11">0.5</text>
<line x1="76" y1="143.00" x2="1050.00" y2="143.00" stroke="#e8e8e8"/>
<text x="68" y="147.00" text-anchor="end" font-family="Arial, sans-serif" font-size="11">0.79</text>
<line x1="76" y1="58.00" x2="1050.00" y2="58.00" stroke="#e8e8e8"/>
<text x="68" y="62.00" text-anchor="end" font-family="Arial, sans-serif" font-size="11">1.08</text>
<polyline points="76.00,360.34 95.88,323.37 115.76,206.25 135.63,89.29 155.51,346.10 175.39,272.62 195.27,110.31 215.14,273.58 235.02,107.66 254.90,277.94 274.78,114.61 294.65,255.21 314.53,92.18 334.41,335.36 354.29,238.11 374.16,81.69 394.04,366.64 413.92,341.16 433.80,259.30 453.67,96.48 473.55,321.31 493.43,199.23 513.31,94.64 533.18,330.92 553.06,226.17 572.94,81.45 592.82,374.11 612.69,374.07 632.57,371.26 652.45,361.37 672.33,319.71 692.20,199.85 712.08,90.21 731.96,332.43 751.84,225.85 771.71,82.95 791.59,374.55 811.47,374.51 831.35,373.97 851.22,373.34 871.10,366.33 890.98,343.73 910.86,259.35 930.73,96.14 950.61,329.02 970.49,216.29 990.37,84.12 1010.24,366.66 1030.12,345.53 1050.00,264.58" fill="none" stroke="#222222" stroke-width="1.6"/>
<polyline points="76.00,371.36 95.88,360.34 115.76,323.37 135.63,206.25 155.51,89.29 175.39,346.10 195.27,272.62 215.14,110.31 235.02,273.58 254.90,107.66 274.78,277.94 294.65,114.61 314.53,255.21 334.41,92.18 354.29,335.36 374.16,238.11 394.04,81.69 413.92,366.64 433.80,341.16 453.67,259.30 473.55,96.48 493.43,321.31 513.31,199.23 533.18,94.64 553.06,330.92 572.94,226.17 592.82,81.45 612.69,374.11 632.57,374.07 652.45,371.26 672.33,361.37 692.20,319.71 712.08,199.85 731.96,90.21 751.84,332.43 771.71,225.85 791.59,82.95 811.47,374.55 831.35,374.51 851.22,373.97 871.10,373.34 890.98,366.33 910.86,343.73 930.73,259.35 950.61,96.14 970.49,329.02 990.37,216.29 1010.24,84.12 1030.12,366.66 1050.00,345.53" fill="none" stroke="#6f7f8f" stroke-width="1.6"/>
<polyline points="76.00,227.93 95.88,227.93 115.76,227.93 135.63,227.93 155.51,227.93 175.39,227.93 195.27,227.93 215.14,227.93 235.02,227.93 254.90,227.93 274.78,227.93 294.65,227.93 314.53,227.93 334.41,227.93 354.29,227.93 374.16,227.93 394.04,227.93 413.92,227.93 433.80,227.93 453.67,227.93 473.55,227.93 493.43,227.93 513.31,227.93 533.18,227.93 553.06,227.93 572.94,227.93 592.82,227.93 612.69,227.93 632.57,227.93 652.45,227.93 672.33,227.93 692.20,227.93 712.08,227.93 731.96,227.93 751.84,227.93 771.71,227.93 791.59,227.93 811.47,227.93 831.35,227.93 851.22,227.93 871.10,227.93 890.98,227.93 910.86,227.93 930.73,227.93 950.61,227.93 970.49,227.93 990.37,227.93 1010.24,227.93 1030.12,227.93 1050.00,227.93" fill="none" stroke="#2a6fbb" stroke-width="1.6"/>
<polyline points="76.00,352.96 95.88,324.70 115.76,234.20 135.63,98.00 155.51,294.11 175.39,308.26 195.27,121.95 215.14,303.42 235.02,104.69 254.90,296.26 274.78,148.88 294.65,258.55 314.53,122.59 334.41,319.24 354.29,295.72 374.16,84.80 394.04,319.87 413.92,310.30 433.80,339.02 453.67,119.51 473.55,270.63 493.43,268.47 513.31,85.66 533.18,307.03 553.06,260.00 572.94,86.54 592.82,272.27 612.69,306.33 632.57,305.68 652.45,291.11 672.33,337.99 692.20,181.05 712.08,115.38 731.96,341.80 751.84,234.47 771.71,100.25 791.59,332.99 811.47,289.77 831.35,363.17 851.22,335.81 871.10,344.49 890.98,324.55 910.86,242.32 930.73,128.26 950.61,293.28 970.49,268.80 990.37,88.43 1010.24,314.50 1030.12,340.45 1050.00,274.19" fill="none" stroke="#b45f06" stroke-width="1.6"/>
<g><line x1="870.00" y1="28.00" x2="898.00" y2="28.00" stroke="#222222" stroke-width="2"/><text x="906.00" y="32.00" font-family="Arial, sans-serif" font-size="12">real</text></g>
<g><line x1="870.00" y1="46.00" x2="898.00" y2="46.00" stroke="#6f7f8f" stroke-width="2"/><text x="906.00" y="50.00" font-family="Arial, sans-serif" font-size="12">persistencia</text></g>
<g><line x1="870.00" y1="64.00" x2="898.00" y2="64.00" stroke="#2a6fbb" stroke-width="2"/><text x="906.00" y="68.00" font-family="Arial, sans-serif" font-size="12">AR(0) / media</text></g>
<g><line x1="870.00" y1="82.00" x2="898.00" y2="82.00" stroke="#b45f06" stroke-width="2"/><text x="906.00" y="86.00" font-family="Arial, sans-serif" font-size="12">kNN k=5</text></g>
<line x1="76.00" y1="398.00" x2="76.00" y2="403.00" stroke="#222222"/>
<text x="76.00" y="422" text-anchor="middle" font-family="Arial, sans-serif" font-size="10">9874</text>
<line x1="314.53" y1="398.00" x2="314.53" y2="403.00" stroke="#222222"/>
<text x="314.53" y="422" text-anchor="middle" font-family="Arial, sans-serif" font-size="10">9886</text>
<line x1="572.94" y1="398.00" x2="572.94" y2="403.00" stroke="#222222"/>
<text x="572.94" y="422" text-anchor="middle" font-family="Arial, sans-serif" font-size="10">9899</text>
<line x1="811.47" y1="398.00" x2="811.47" y2="403.00" stroke="#222222"/>
<text x="811.47" y="422" text-anchor="middle" font-family="Arial, sans-serif" font-size="10">9911</text>
<line x1="1050.00" y1="398.00" x2="1050.00" y2="403.00" stroke="#222222"/>
<text x="1050.00" y="422" text-anchor="middle" font-family="Arial, sans-serif" font-size="10">9923</text>
<text x="563.00" y="450" text-anchor="middle" font-family="Arial, sans-serif" font-size="13">t</text>
<text transform="translate(18,228.0) rotate(-90)" text-anchor="middle" font-family="Arial, sans-serif" font-size="13">x[t+1]</text>
</svg>