<svg xmlns="http://www.w3.org/2000/svg" width="1080" height="460" viewBox="0 0 1080 460">
<rect x="0" y="0" width="1080" height="460" fill="#ffffff"/>
<text x="540.0" y="28" text-anchor="middle" font-family="Arial, sans-serif" font-size="18" font-weight="700">Prediccion test corta t=10533-10582 logistic_noise_moderate</text>
<rect x="76" y="58" width="974.00" height="340.00" fill="none" stroke="#222222"/>
<line x1="76" y1="398.00" x2="1050.00" y2="398.00" stroke="#e8e8e8"/>
<text x="68" y="402.00" text-anchor="end" font-family="Arial, sans-serif" font-size="11">-0.08</text>
<line x1="76" y1="313.00" x2="1050.00" y2="313.00" stroke="#e8e8e8"/>
<text x="68" y="317.00" text-anchor="end" font-family="Arial, sans-serif" font-size="11">0.21</text>
<line x1="76" y1="228.00" x2="1050.00" y2="228.00" stroke="#e8e8e8"/>
<text x="68" y="232.00" text-anchor="end" font-family="Arial, sans-serif" font-size="11">0.5</text>
<line x1="76" y1="143.00" x2="1050.00" y2="143.00" stroke="#e8e8e8"/>
<text x="68" y="147.00" text-anchor="end" font-family="Arial, sans-serif" font-size="11">0.79</text>
<line x1="76" y1="58.00" x2="1050.00" y2="58.00" stroke="#e8e8e8"/>
<text x="68" y="62.00" text-anchor="end" font-family="Arial, sans-serif" font-size="11">1.08</text>
<polyline points="76.00,213.15 95.88,81.45 115.76,363.17 135.63,345.29 155.51,281.81 175.39,122.27 195.27,240.91 215.14,91.36 235.02,370.75 254.90,337.08 274.78,288.75 294.65,112.41 314.53,257.65 334.41,97.75 354.29,297.79 374.16,155.36 394.04,145.55 413.92,150.21 433.80,164.48 453.67,134.69 473.55,210.01 493.43,88.28 513.31,358.70 533.18,322.70 553.06,196.13 572.94,88.20 592.82,316.18 612.69,179.04 632.57,107.68 652.45,299.58 672.33,140.84 692.20,171.68 712.08,119.45 731.96,234.77 751.84,81.45 771.71,374.55 791.59,366.08 811.47,344.37 831.35,271.75 851.22,101.57 871.10,319.77 890.98,185.30 910.86,112.18 930.73,294.53 950.61,139.63 970.49,194.03 990.37,102.03 1010.24,317.06 1030.12,159.50 1050.00,120.73" fill="none" stroke="#222222" stroke-width="1.6"/>
<polyline points="76.00,127.94 95.88,213.15 115.76,81.45 135.63,363.17 155.51,345.29 175.39,281.81 195.27,122.27 215.14,240.91 235.02,91.36 254.90,370.75 274.78,337.08 294.65,288.75 314.53,112.41 334.41,257.65 354.29,97.75 374.16,297.79 394.04,155.36 413.92,145.55 433.80,150.21 453.67,164.48 473.55,134.69 493.43,210.01 513.31,88.28 533.18,358.70 553.06,322.70 572.94,196.13 592.82,88.20 612.69,316.18 632.57,179.04 652.45,107.68 672.33,299.58 692.20,140.84 712.08,171.68 731.96,119.45 751.84,234.77 771.71,81.45 791.59,374.55 811.47,366.08 831.35,344.37 851.22,271.75 871.10,101.57 890.98,319.77 910.86,185.30 930.73,112.18 950.61,294.53 970.49,139.63 990.37,194.03 1010.24,102.03 1030.12,317.06 1050.00,159.50" fill="none" stroke="#6f7f8f" stroke-width="1.6"/>
<polyline points="76.00,227.95 95.88,227.95 115.76,227.95 135.63,227.95 155.51,227.95 175.39,227.95 195.27,227.95 215.14,227.95 235.02,227.95 254.90,227.95 274.78,227.95 294.65,227.95 314.53,227.95 334.41,227.95 354.29,227.95 374.16,227.95 394.04,227.95 413.92,227.95 433.80,227.95 453.67,227.95 473.55,227.95 493.43,227.95 513.31,227.95 533.18,227.95 553.06,227.95 572.94,227.95 592.82,227.95 612.69,227.95 632.57,227.95 652.45,227.95 672.33,227.95 692.20,227.95 712.08,227.95 731.96,227.95 751.84,227.95 771.71,227.95 791.59,227.95 811.47,227.95 831.35,227.95 851.22,227.95 871.10,227.95 890.98,227.95 910.86,227.95 930.73,227.95 950.61,227.95 970.49,227.95 990.37,227.95 1010.24,227.95 1030.12,227.95 1050.00,227.95" fill="none" stroke="#2a6fbb" stroke-width="1.6"/>
<polyline points="76.00,243.66 95.88,85.57 115.76,338.73 135.63,276.83 155.51,321.79 175.39,137.11 195.27,271.35 215.14,85.44 235.02,341.19 254.90,345.68 274.78,245.51 294.65,142.21 314.53,275.77 334.41,125.96 354.29,326.45 374.16,147.58 394.04,132.26 413.92,205.85 433.80,159.88 453.67,127.39 473.55,244.47 493.43,84.66 513.31,347.23 533.18,324.81 553.06,218.84 572.94,103.75 592.82,346.68 612.69,171.23 632.57,122.44 652.45,288.60 672.33,178.27 692.20,207.41 712.08,152.74 731.96,281.76 751.84,87.23 771.71,318.60 791.59,317.63 811.47,296.55 831.35,296.31 851.22,115.34 871.10,282.49 890.98,197.74 910.86,123.75 930.73,295.75 950.61,143.58 970.49,170.13 990.37,114.50 1010.24,273.30 1030.12,229.76 1050.00,161.68" fill="none" stroke="#b45f06" stroke-width="1.6"/>
<g><line x1="870.00" y1="28.00" x2="898.00" y2="28.00" stroke="#222222" stroke-width="2"/><text x="906.00" y="32.00" font-family="Arial, sans-serif" font-size="12">real</text></g>
<g><line x1="870.00" y1="46.00" x2="898.00" y2="46.00" stroke="#6f7f8f" stroke-width="2"/><text x="906.00" y="50.00" font-family="Arial, sans-serif" font-size="12">persistencia</text></g>
<g><line x1="870.00" y1="64.00" x2="898.00" y2="64.00" stroke="#2a6fbb" stroke-width="2"/><text x="906.00" y="68.00" font-family="Arial, sans-serif" font-size="12">AR(0) / media</text></g>
<g><line x1="870.00" y1="82.00" x2="898.00" y2="82.00" stroke="#b45f06" stroke-width="2"/><text x="906.00" y="86.00" font-family="Arial, sans-serif" font-size="12">kNN k=5</text></g>
<line x1="76.00" y1="398.00" x2="76.00" y2="403.00" stroke="#222222"/>
<text x="76.00" y="422" text-anchor="middle" font-family="Arial, sans-serif" font-size="10">10533</text>
<line x1="314.53" y1="398.00" x2="314.53" y2="403.00" stroke="#222222"/>
<text x="314.53" y="422" text-anchor="middle" font-family="Arial, sans-serif" font-size="10">10545</text>
<line x1="572.94" y1="398.00" x2="572.94" y2="403.00" stroke="#222222"/>
<text x="572.94" y="422" text-anchor="middle" font-family="Arial, sans-serif" font-size="10">10558</text>
<line x1="811.47" y1="398.00" x2="811.47" y2="403.00" stroke="#222222"/>
<text x="811.47" y="422" text-anchor="middle" font-family="Arial, sans-serif" font-size="10">10570</text>
<line x1="1050.00" y1="398.00" x2="1050.00" y2="403.00" stroke="#222222"/>
<text x="1050.00" y="422" text-anchor="middle" font-family="Arial, sans-serif" font-size="10">10582</text>
<text x="563.00" y="450" text-anchor="middle" font-family="Arial, sans-serif" font-size="13">t</text>
<text transform="translate(18,228.0) rotate(-90)" text-anchor="middle" font-family="Arial, sans-serif" font-size="13">x[t+1]</text>
</svg>