<svg xmlns="http://www.w3.org/2000/svg" width="1100" height="430" viewBox="0 0 1100 430">
<rect x="0" y="0" width="1100" height="430" fill="#ffffff"/>
<text x="550.0" y="26" text-anchor="middle" font-family="Arial, sans-serif" font-size="18" font-weight="700">C) r - Retornos logaritmicos</text>
<line x1="88" y1="372.00" x2="1066.00" y2="372.00" stroke="#e6e6e6" stroke-width="1"/>
<text x="80" y="376.00" text-anchor="end" font-family="Arial, sans-serif" font-size="11" fill="#333333">-0.082</text>
<line x1="88" y1="293.50" x2="1066.00" y2="293.50" stroke="#e6e6e6" stroke-width="1"/>
<text x="80" y="297.50" text-anchor="end" font-family="Arial, sans-serif" font-size="11" fill="#333333">-0.050</text>
<line x1="88" y1="215.00" x2="1066.00" y2="215.00" stroke="#e6e6e6" stroke-width="1"/>
<text x="80" y="219.00" text-anchor="end" font-family="Arial, sans-serif" font-size="11" fill="#333333">-0.018</text>
<line x1="88" y1="136.50" x2="1066.00" y2="136.50" stroke="#e6e6e6" stroke-width="1"/>
<text x="80" y="140.50" text-anchor="end" font-family="Arial, sans-serif" font-size="11" fill="#333333">0.014</text>
<line x1="88" y1="58.00" x2="1066.00" y2="58.00" stroke="#e6e6e6" stroke-width="1"/>
<text x="80" y="62.00" text-anchor="end" font-family="Arial, sans-serif" font-size="11" fill="#333333">0.046</text>
<rect x="88" y="58.00" width="978.00" height="314.00" fill="none" stroke="#222222" stroke-width="1"/>
<polyline points="88.00,189.53 88.22,155.78 88.44,187.99 88.65,155.60 88.87,178.28 89.09,161.70 89.31,292.23 89.52,112.11 89.74,144.08 89.96,192.62 90.18,179.89 90.40,162.60 90.61,180.46 90.83,150.46 91.05,153.15 91.27,181.93 91.48,213.00 91.70,158.70 91.92,182.87 92.14,159.57 92.36,153.46 92.57,179.78 92.79,177.87 93.01,164.76 93.23,165.71 93.44,177.24 93.66,162.97 93.88,179.49 94.10,176.84 94.32,165.83 94.53,183.20 94.75,161.90 94.97,149.27 95.19,178.59 95.40,188.24 95.62,143.69 95.84,195.73 96.06,152.83 96.28,204.52 96.49,147.67 96.71,108.33 96.93,243.17 97.15,158.82 97.36,176.59 97.58,186.28 97.80,155.18 98.02,206.69 98.24,147.47 98.45,180.33 98.67,163.66 98.89,148.20 99.11,202.29 99.32,182.96 99.54,156.47 99.76,161.87 99.98,179.01 100.20,222.64 100.41,144.65 100.63,161.29 100.85,178.54 101.07,159.39 101.28,183.48 101.50,177.25 101.72,165.21 101.94,165.41 102.15,175.54 102.37,181.49 102.59,161.88 102.81,160.26 103.03,183.67 103.24,163.47 103.46,179.68 103.68,157.06 103.90,182.59 104.11,162.99 104.33,175.23 104.55,189.45 104.77,146.21 104.99,162.51 105.20,178.17 105.42,175.83 105.64,165.60 105.86,155.85 106.07,185.87 106.29,178.38 106.51,164.76 106.73,176.40 106.95,163.84 107.16,159.34 107.38,188.30 107.60,179.78 107.82,161.49 108.03,181.57 108.25,154.12 108.47,161.63 108.69,181.87 108.91,173.93 109.12,166.18 109.34,173.61 109.56,166.32 109.78,167.13 109.99,175.19 110.21,167.35 110.43,175.31 110.65,163.16 110.87,180.34 111.08,163.15 111.30,187.16 111.52,157.95 111.74,183.41 111.95,186.43 112.17,160.82 112.39,185.00 112.61,160.09 112.83,186.83 113.04,156.92 113.26,162.12 113.48,179.43 113.70,158.49 113.91,178.55 114.13,184.32 114.35,162.21 114.57,175.10 114.79,165.62 115.00,181.01 115.22,161.64 115.44,177.29 115.66,163.17 115.87,158.86 116.09,180.69 116.31,159.88 116.53,179.41 116.75,167.41 116.96,174.95 117.18,177.37 117.40,166.06 117.62,175.55 117.83,165.20 118.05,158.88 118.27,176.80 118.49,177.62 118.71,163.54 118.92,164.10 119.14,181.77 119.36,178.88 119.58,164.41 119.79,157.14 120.01,178.84 120.23,159.65 120.45,176.04 120.67,190.88 120.88,160.37 121.10,184.47 121.32,161.01 121.54,179.81 121.75,165.63 121.97,155.66 122.19,185.05 122.41,161.36 122.63,179.91 122.84,177.21 123.06,159.47 123.28,177.84 123.50,160.82 123.71,175.15 123.93,166.52 124.15,183.96 124.37,161.12 124.59,175.09 124.80,165.14 125.02,173.06 125.24,167.57 125.46,165.32 125.67,175.88 125.89,175.39 126.11,167.12 126.33,164.56 126.55,174.06 126.76,160.48 126.98,181.76 127.20,174.92 127.42,162.00 127.63,180.89 127.85,164.61 128.07,184.03 128.29,162.67 128.51,181.96 128.72,163.79 128.94,161.55 129.16,175.34 129.38,174.34 129.59,166.20 129.81,160.87 130.03,181.53 130.25,183.27 130.46,153.90 130.68,174.76 130.90,165.84 131.12,161.24 131.34,177.57 131.55,159.90 131.77,179.48 131.99,156.92 132.21,191.65 132.42,181.62 132.64,154.88 132.86,174.77 133.08,166.99 133.30,175.37 133.51,165.90 133.73,162.64 133.95,179.56 134.17,163.18 134.38,177.13 134.60,178.42 134.82,162.72 135.04,159.05 135.26,177.78 135.47,178.28 135.69,161.50 135.91,188.29 136.13,152.39 136.34,161.27 136.56,175.44 136.78,198.48 137.00,156.07 137.22,180.21 137.43,161.27 137.65,144.52 137.87,178.22 138.09,178.29 138.30,162.15 138.52,152.50 138.74,179.73 138.96,154.69 139.18,185.69 139.39,161.15 139.61,179.71 139.83,177.42 140.05,162.78 140.26,182.30 140.48,161.77 140.70,167.03 140.92,176.88 141.14,165.22 141.35,174.27 141.57,182.44 141.79,154.28 142.01,177.67 142.22,165.29 142.44,177.19 142.66,164.05 142.88,157.02 143.10,180.69 143.31,165.25 143.53,176.56 143.75,179.15 143.97,162.34 144.18,183.02 144.40,164.10 144.62,155.47 144.84,178.38 145.06,188.72 145.27,160.39 145.49,165.40 145.71,176.16 145.93,159.81 146.14,178.68 146.36,179.72 146.58,160.59 146.80,178.81 147.02,163.21 147.23,178.62 147.45,159.61 147.67,157.40 147.89,187.53 148.10,178.39 148.32,164.09 148.54,182.20 148.76,162.37 148.98,174.68 149.19,165.03 149.41,172.66 149.63,164.95 149.85,176.53 150.06,164.69 150.28,173.38 150.50,167.36 150.72,175.14 150.94,164.17 151.15,166.47 151.37,176.28 151.59,178.41 151.81,163.31 152.02,145.32 152.24,185.95 152.46,130.89 152.68,182.89 152.90,158.87 153.11,192.61 153.33,161.35 153.55,181.08 153.77,154.91 153.98,179.82 154.20,130.95 154.42,205.55 154.64,155.06 154.86,193.47 155.07,182.42 155.29,157.20 155.51,152.55 155.73,191.27 155.94,180.58 156.16,158.26 156.38,185.31 156.60,158.92 156.81,189.36 157.03,157.74 157.25,175.99 157.47,164.58 157.69,177.23 157.90,163.98 158.12,165.10 158.34,177.46 158.56,160.63 158.77,182.78 158.99,238.21 159.21,137.11 159.43,148.14 159.65,181.63 159.86,154.42 160.08,184.48 160.30,157.89 160.52,182.21 160.73,207.89 160.95,137.75 161.17,211.15 161.39,129.97 161.61,183.77 161.82,149.57 162.04,146.11 162.26,196.28 162.48,184.68 162.69,157.90 162.91,161.71 163.13,184.27 163.35,159.12 163.57,194.27 163.78,178.15 164.00,161.18 164.22,176.72 164.44,156.27 164.65,145.64 164.87,209.67 165.09,166.11 165.31,176.22 165.53,165.73 165.74,175.52 165.96,161.10 166.18,178.25 166.40,159.44 166.61,176.48 166.83,179.83 167.05,159.53 167.27,181.77 167.49,153.13 167.70,150.23 167.92,194.20 168.14,162.56 168.36,180.56 168.57,161.16 168.79,177.54 169.01,189.99 169.23,151.11 169.45,179.42 169.66,159.65 169.88,160.41 170.10,182.19 170.32,181.18 170.53,159.75 170.75,163.42 170.97,178.50 171.19,189.64 171.41,155.26 171.62,193.35 171.84,149.98 172.06,206.70 172.28,142.14 172.49,187.57 172.71,145.54 172.93,200.78 173.15,156.85 173.37,178.90 173.58,161.97 173.80,158.59 174.02,184.99 174.24,193.71 174.45,141.57 174.67,155.83 174.89,181.73 175.11,187.52 175.33,155.01 175.54,155.23 175.76,182.42 175.98,152.53 176.20,193.23 176.41,191.50 176.63,156.26 176.85,194.78 177.07,147.51 177.29,153.76 177.50,187.26 177.72,153.09 177.94,189.86 178.16,191.16 178.37,137.86 178.59,198.12 178.81,148.49 179.03,184.31 179.25,159.86 179.46,190.71 179.68,144.09 179.90,182.39 180.12,159.17 180.33,184.78 180.55,156.65 180.77,149.47 180.99,186.06 181.21,182.09 181.42,157.94 181.64,180.18 181.86,152.51 182.08,162.17 182.29,181.39 182.51,178.35 182.73,158.33 182.95,186.71 183.16,155.00 183.38,180.05 183.60,158.43 183.82,153.81 184.04,181.14 184.25,155.81 184.47,182.00 184.69,155.12 184.91,184.21 185.12,186.83 185.34,160.60 185.56,182.42 185.78,161.82 186.00,176.71 186.21,162.35 186.43,147.99 186.65,193.69 186.87,160.03 187.08,183.61 187.30,181.83 187.52,158.09 187.74,178.72 187.96,163.80 188.17,178.98 188.39,161.21 188.61,164.03 188.83,183.37 189.04,166.20 189.26,174.64 189.48,164.32 189.70,175.49 189.92,162.89 190.13,173.99 190.35,162.87 190.57,174.63 190.79,165.27 191.00,175.33 191.22,155.70 191.44,178.98 191.66,190.49 191.88,164.91 192.09,160.20 192.31,183.98 192.53,232.13 192.75,162.66 192.96,186.34 193.18,159.41 193.40,184.01 193.62,153.41 193.84,179.52 194.05,155.89 194.27,188.42 194.49,147.92 194.71,178.96 194.92,163.92 195.14,177.73 195.36,160.97 195.58,154.52 195.80,186.40 196.01,163.21 196.23,192.63 196.45,155.30 196.67,187.50 196.88,161.29 197.10,179.36 197.32,164.90 197.54,174.83 197.76,159.66 197.97,174.82 198.19,158.75 198.41,183.13 198.63,175.29 198.84,165.51 199.06,161.35 199.28,181.88 199.50,162.61 199.72,179.67 199.93,147.95 200.15,180.01 200.37,164.62 200.59,178.36 200.80,188.02 201.02,162.52 201.24,186.41 201.46,157.25 201.68,162.38 201.89,182.84 202.11,196.03 202.33,158.20 202.55,181.34 202.76,150.52 202.98,157.48 203.20,180.25 203.42,145.49 203.64,190.48 203.85,177.14 204.07,163.10 204.29,164.71 204.51,175.95 204.72,209.50 204.94,152.64 205.16,158.63 205.38,179.68 205.60,178.56 205.81,159.91 206.03,263.31 206.25,138.86 206.47,146.56 206.68,188.66 206.90,159.21 207.12,183.87 207.34,201.65 207.56,140.26 207.77,180.72 207.99,155.89 208.21,187.03 208.43,153.14 208.64,158.18 208.86,188.65 209.08,192.34 209.30,151.92 209.52,184.15 209.73,156.29 209.95,158.49 210.17,187.46 210.39,196.10 210.60,147.57 210.82,152.02 211.04,185.37 211.26,184.01 211.47,158.26 211.69,186.60 211.91,150.95 212.13,194.23 212.35,140.17 212.56,141.38 212.78,187.15 213.00,159.33 213.22,201.06 213.43,179.45 213.65,151.89 213.87,158.61 214.09,181.14 214.31,177.72 214.52,160.44 214.74,180.64 214.96,164.57 215.18,182.03 215.39,159.85 215.61,156.81 215.83,195.90 216.05,181.93 216.27,164.54 216.48,156.58 216.70,177.17 216.92,163.77 217.14,175.83 217.35,159.20 217.57,178.32 217.79,177.46 218.01,165.55 218.23,163.29 218.44,178.75 218.66,157.66 218.88,185.91 219.10,178.87 219.31,162.67 219.53,160.09 219.75,179.91 219.97,161.48 220.19,184.35 220.40,163.09 220.62,177.61 220.84,159.92 221.06,186.17 221.27,187.48 221.49,162.47 221.71,177.33 221.93,161.91 222.15,182.86 222.36,161.23 222.58,160.66 222.80,175.60 223.02,176.77 223.23,163.66 223.45,164.05 223.67,181.03 223.89,163.14 224.11,183.67 224.32,157.61 224.54,179.93 224.76,157.54 224.98,185.48 225.19,163.62 225.41,187.51 225.63,186.97 225.85,147.72 226.07,157.73 226.28,205.08 226.50,184.37 226.72,157.91 226.94,139.00 227.15,206.89 227.37,177.36 227.59,155.21 227.81,181.85 228.03,157.99 228.24,152.87 228.46,181.62 228.68,177.44 228.90,132.13 229.11,156.32 229.33,183.51 229.55,152.69 229.77,189.07 229.99,156.55 230.20,180.97 230.42,160.69 230.64,188.95 230.86,162.98 231.07,177.29 231.29,158.28 231.51,180.58 231.73,176.53 231.95,162.88 232.16,153.08 232.38,186.07 232.60,181.80 232.82,161.87 233.03,190.42 233.25,159.62 233.47,156.43 233.69,180.15 233.91,187.62 234.12,163.61 234.34,162.05 234.56,179.15 234.78,158.87 234.99,187.16 235.21,180.97 235.43,163.20 235.65,183.25 235.87,157.56 236.08,161.60 236.30,177.53 236.52,178.85 236.74,160.54 236.95,189.02 237.17,163.31 237.39,178.13 237.61,163.60 237.82,175.33 238.04,165.10 238.26,161.47 238.48,176.72 238.70,176.63 238.91,167.48 239.13,160.13 239.35,177.14 239.57,164.08 239.78,180.27 240.00,177.75 240.22,144.94 240.44,162.22 240.66,180.21 240.87,182.06 241.09,164.18 241.31,190.02 241.53,143.22 241.74,179.61 241.96,161.73 242.18,177.35 242.40,162.05 242.62,127.71 242.83,179.33 243.05,157.25 243.27,186.23 243.49,163.61 243.70,177.01 243.92,180.72 244.14,161.68 244.36,162.56 244.58,177.64 244.79,155.80 245.01,178.72 245.23,157.43 245.45,179.67 245.66,160.98 245.88,174.23 246.10,180.38 246.32,162.55 246.54,175.34 246.75,165.86 246.97,162.17 247.19,183.26 247.41,166.48 247.62,179.79 247.84,175.82 248.06,162.77 248.28,186.46 248.50,162.21 248.71,147.73 248.93,178.47 249.15,180.53 249.37,164.50 249.58,181.64 249.80,161.42 250.02,184.29 250.24,164.00 250.46,177.84 250.67,161.70 250.89,159.54 251.11,180.62 251.33,174.36 251.54,165.05 251.76,192.31 251.98,156.53 252.20,190.20 252.42,148.70 252.63,162.34 252.85,180.91 253.07,179.91 253.29,159.54 253.50,176.52 253.72,166.58 253.94,164.05 254.16,177.11 254.38,167.28 254.59,173.09 254.81,176.21 255.03,162.64 255.25,165.86 255.46,183.07 255.68,177.19 255.90,158.65 256.12,182.22 256.34,164.72 256.55,159.00 256.77,192.59 256.99,192.49 257.21,161.57 257.42,160.68 257.64,179.90 257.86,163.20 258.08,190.01 258.30,160.44 258.51,178.09 258.73,184.47 258.95,161.92 259.17,176.89 259.38,164.50 259.60,182.34 259.82,164.44 260.04,157.33 260.26,181.04 260.47,165.89 260.69,175.40 260.91,159.20 261.13,188.71 261.34,183.72 261.56,161.02 261.78,174.54 262.00,167.35 262.22,173.57 262.43,167.46 262.65,167.27 262.87,173.45 263.09,158.74 263.30,177.42 263.52,181.79 263.74,165.35 263.96,162.44 264.18,177.44 264.39,157.22 264.61,184.15 264.83,159.31 265.05,178.80 265.26,175.52 265.48,165.65 265.70,181.07 265.92,158.12 266.13,181.36 266.35,163.68 266.57,175.70 266.79,163.23 267.01,178.66 267.22,157.94 267.44,179.57 267.66,167.43 267.88,164.86 268.09,178.55 268.31,179.32 268.53,163.88 268.75,165.68 268.97,174.99 269.18,204.75 269.40,156.67 269.62,174.25 269.84,165.85 270.05,174.02 270.27,168.14 270.49,173.04 270.71,168.12 270.93,172.57 271.14,168.23 271.36,165.73 271.58,176.58 271.80,173.13 272.01,167.42 272.23,174.77 272.45,166.35 272.67,164.24 272.89,177.76 273.10,189.45 273.32,161.18 273.54,181.15 273.76,160.56 273.97,190.75 274.19,162.14 274.41,174.23 274.63,162.26 274.85,124.38 275.06,179.68 275.28,161.16 275.50,192.10 275.72,180.77 275.93,161.68 276.15,161.34 276.37,182.64 276.59,175.82 276.81,165.27 277.02,176.63 277.24,165.45 277.46,191.27 277.68,159.19 277.89,173.83 278.11,167.41 278.33,174.13 278.55,166.85 278.77,177.23 278.98,166.21 279.20,164.85 279.42,174.08 279.64,173.32 279.85,167.94 280.07,160.56 280.29,180.75 280.51,164.71 280.73,182.91 280.94,151.82 281.16,185.96 281.38,202.85 281.60,160.86 281.81,157.30 282.03,183.97 282.25,160.36 282.47,178.57 282.69,164.45 282.90,180.49 283.12,174.56 283.34,165.33 283.56,177.52 283.77,157.54 283.99,156.94 284.21,178.16 284.43,161.61 284.65,176.26 284.86,183.53 285.08,162.20 285.30,163.39 285.52,180.66 285.73,164.24 285.95,175.60 286.17,174.36 286.39,166.96 286.61,172.97 286.82,168.41 287.04,166.79 287.26,176.06 287.48,168.10 287.69,174.83 287.91,182.38 288.13,160.74 288.35,158.56 288.57,205.86 288.78,187.44 289.00,158.16 289.22,180.31 289.44,152.91 289.65,150.05 289.87,180.04 290.09,181.62 290.31,157.60 290.53,160.40 290.74,178.84 290.96,180.48 291.18,163.42 291.40,159.37 291.61,177.17 291.83,165.22 292.05,176.88 292.27,181.11 292.48,161.89 292.70,161.00 292.92,178.33 293.14,162.89 293.36,180.67 293.57,184.99 293.79,164.69 294.01,163.78 294.23,176.17 294.44,166.05 294.66,173.33 294.88,174.94 295.10,165.75 295.32,157.38 295.53,179.00 295.75,164.53 295.97,177.63 296.19,147.19 296.40,177.84 296.62,162.20 296.84,178.26 297.06,162.50 297.28,180.45 297.49,174.83 297.71,162.48 297.93,163.85 298.15,180.83 298.36,165.94 298.58,188.61 298.80,179.57 299.02,161.02 299.24,179.42 299.45,159.15 299.67,188.03 299.89,162.78 300.11,186.13 300.32,153.00 300.54,191.60 300.76,158.67 300.98,227.27 301.20,147.20 301.41,191.21 301.63,154.95 301.85,157.37 302.07,178.49 302.28,173.99 302.50,158.46 302.72,178.35 302.94,160.13 303.16,163.90 303.37,179.67 303.59,179.51 303.81,163.91 304.03,191.75 304.24,151.24 304.46,145.91 304.68,181.58 304.90,223.65 305.12,151.57 305.33,157.18 305.55,179.39 305.77,144.02 305.99,180.45 306.20,186.25 306.42,163.15 306.64,153.79 306.86,179.75 307.08,190.40 307.29,161.84 307.51,177.19 307.73,156.17 307.95,187.07 308.16,162.24 308.38,148.01 308.60,190.37 308.82,184.57 309.04,159.84 309.25,179.31 309.47,159.56 309.69,160.10 309.91,179.05 310.12,164.72 310.34,173.42 310.56,160.55 310.78,178.42 311.00,152.39 311.21,179.14 311.43,180.69 311.65,158.58 311.87,180.44 312.08,148.78 312.30,144.38 312.52,179.82 312.74,181.44 312.96,161.99 313.17,186.38 313.39,154.87 313.61,186.43 313.83,161.24 314.04,157.66 314.26,192.14 314.48,181.94 314.70,159.14 314.92,163.08 315.13,178.62 315.35,159.12 315.57,186.33 315.79,159.51 316.00,180.97 316.22,179.69 316.44,161.80 316.66,180.79 316.88,161.27 317.09,161.89 317.31,179.45 317.53,149.97 317.75,180.02 317.96,161.54 318.18,178.96 318.40,165.60 318.62,173.96 318.84,159.19 319.05,183.81 319.27,166.80 319.49,180.59 319.71,177.25 319.92,158.33 320.14,188.19 320.36,159.41 320.58,179.70 320.79,166.23 321.01,182.67 321.23,162.24 321.45,164.93 321.67,179.46 321.88,178.16 322.10,158.97 322.32,187.85 322.54,163.56 322.75,177.68 322.97,159.75 323.19,181.06 323.41,161.65 323.63,163.73 323.84,207.47 324.06,164.56 324.28,178.35 324.50,181.91 324.71,155.45 324.93,177.63 325.15,161.01 325.37,160.24 325.59,184.59 325.80,165.22 326.02,179.42 326.24,174.81 326.46,164.84 326.67,158.77 326.89,177.99 327.11,202.88 327.33,123.68 327.55,181.09 327.76,164.18 327.98,175.02 328.20,165.02 328.42,151.20 328.63,177.22 328.85,183.53 329.07,157.95 329.29,185.10 329.51,159.90 329.72,181.27 329.94,164.40 330.16,160.83 330.38,179.38 330.59,182.24 330.81,159.72 331.03,159.91 331.25,176.94 331.47,160.77 331.68,185.16 331.90,178.14 332.12,162.28 332.34,162.40 332.55,180.20 332.77,181.61 332.99,154.48 333.21,180.54 333.43,160.88 333.64,189.39 333.86,155.33 334.08,159.17 334.30,189.58 334.51,166.23 334.73,176.37 334.95,190.12 335.17,152.73 335.39,162.70 335.60,178.45 335.82,184.81 336.04,163.71 336.26,218.17 336.47,141.34 336.69,246.77 336.91,122.47 337.13,92.96 337.35,202.95 337.56,187.30 337.78,147.43 338.00,141.50 338.22,191.18 338.43,156.24 338.65,192.86 338.87,185.48 339.09,159.93 339.31,148.70 339.52,189.81 339.74,106.29 339.96,198.21 340.18,160.23 340.39,179.72 340.61,118.36 340.83,186.14 341.05,138.09 341.27,186.39 341.48,144.83 341.70,194.08 341.92,186.06 342.14,154.46 342.35,160.87 342.57,176.26 342.79,177.15 343.01,161.83 343.23,175.62 343.44,164.58 343.66,162.58 343.88,183.99 344.10,160.97 344.31,187.43 344.53,186.98 344.75,158.94 344.97,143.00 345.19,204.04 345.40,184.45 345.62,154.73 345.84,158.02 346.06,182.77 346.27,183.46 346.49,153.72 346.71,161.12 346.93,179.98 347.14,161.92 347.36,186.45 347.58,187.51 347.80,154.72 348.02,196.68 348.23,157.58 348.45,152.73 348.67,180.69 348.89,194.26 349.10,155.96 349.32,152.04 349.54,177.28 349.76,147.46 349.98,191.02 350.19,164.76 350.41,175.60 350.63,167.16 350.85,174.90 351.06,164.94 351.28,174.77 351.50,160.34 351.72,179.27 351.94,163.70 352.15,178.64 352.37,158.18 352.59,181.03 352.81,163.33 353.02,185.93 353.24,184.74 353.46,153.26 353.68,151.64 353.90,179.97 354.11,156.25 354.33,182.48 354.55,185.94 354.77,157.67 354.98,165.43 355.20,182.06 355.42,141.18 355.64,191.07 355.86,158.49 356.07,184.35 356.29,175.97 356.51,164.56 356.73,185.45 356.94,159.25 357.16,159.09 357.38,175.25 357.60,150.75 357.82,204.74 358.03,149.89 358.25,182.96 358.47,165.80 358.69,175.41 358.90,175.40 359.12,158.08 359.34,179.18 359.56,163.56 359.78,174.13 359.99,164.58 360.21,176.16 360.43,165.60 360.65,162.79 360.86,180.37 361.08,163.86 361.30,181.45 361.52,180.42 361.74,156.84 361.95,176.56 362.17,166.51 362.39,162.99 362.61,179.97 362.82,217.27 363.04,143.77 363.26,154.60 363.48,182.64 363.70,149.73 363.91,197.43 364.13,179.05 364.35,160.90 364.57,160.75 364.78,179.40 365.00,157.07 365.22,187.73 365.44,163.93 365.66,176.98 365.87,183.82 366.09,155.21 366.31,164.76 366.53,175.51 366.74,167.08 366.96,175.06 367.18,173.40 367.40,165.82 367.62,162.35 367.83,182.35 368.05,188.54 368.27,158.26 368.49,161.76 368.70,183.74 368.92,177.31 369.14,159.38 369.36,176.21 369.58,150.67 369.79,161.43 370.01,177.63 370.23,164.26 370.45,183.22 370.66,178.17 370.88,163.27 371.10,235.12 371.32,153.69 371.54,183.46 371.75,152.19 371.97,163.33 372.19,186.92 372.41,193.35 372.62,158.36 372.84,152.26 373.06,186.58 373.28,176.78 373.49,158.92 373.71,147.92 373.93,199.41 374.15,157.66 374.37,186.50 374.58,157.14 374.80,175.75 375.02,176.97 375.24,164.23 375.45,165.08 375.67,176.13 375.89,163.24 376.11,179.10 376.33,178.14 376.54,159.99 376.76,152.86 376.98,185.57 377.20,183.63 377.41,153.74 377.63,155.70 377.85,179.77 378.07,175.96 378.29,162.29 378.50,185.76 378.72,154.19 378.94,195.65 379.16,160.54 379.37,159.13 379.59,188.75 379.81,186.87 380.03,153.34 380.25,154.99 380.46,182.96 380.68,158.10 380.90,187.38 381.12,177.86 381.33,163.04 381.55,165.95 381.77,173.58 381.99,180.74 382.21,152.72 382.42,175.40 382.64,165.67 382.86,175.99 383.08,165.86 383.29,182.96 383.51,166.24 383.73,166.66 383.95,174.19 384.17,177.67 384.38,165.25 384.60,158.98 384.82,185.09 385.04,178.67 385.25,161.87 385.47,161.84 385.69,184.76 385.91,178.61 386.13,159.55 386.34,151.66 386.56,179.81 386.78,187.40 387.00,154.30 387.21,180.48 387.43,159.47 387.65,180.89 387.87,156.59 388.09,145.90 388.30,191.85 388.52,180.65 388.74,159.60 388.96,180.64 389.17,160.73 389.39,161.94 389.61,178.68 389.83,158.28 390.05,181.21 390.26,179.65 390.48,161.94 390.70,166.48 390.92,174.90 391.13,166.93 391.35,174.24 391.57,163.72 391.79,176.32 392.01,177.11 392.22,166.97 392.44,181.32 392.66,163.22 392.88,157.78 393.09,178.90 393.31,162.30 393.53,186.79 393.75,161.31 393.97,182.05 394.18,175.37 394.40,164.61 394.62,182.76 394.84,162.71 395.05,184.36 395.27,158.33 395.49,177.57 395.71,162.30 395.93,164.64 396.14,178.17 396.36,163.36 396.58,183.09 396.80,185.37 397.01,155.44 397.23,162.17 397.45,177.09 397.67,164.41 397.89,175.26 398.10,160.95 398.32,180.10 398.54,174.64 398.76,167.10 398.97,175.71 399.19,166.12 399.41,166.32 399.63,175.02 399.85,166.64 400.06,175.92 400.28,173.79 400.50,167.06 400.72,164.47 400.93,183.00 401.15,161.85 401.37,182.13 401.59,163.34 401.80,178.87 402.02,178.51 402.24,160.47 402.46,188.75 402.68,161.19 402.89,184.90 403.11,160.56 403.33,163.19 403.55,176.44 403.76,151.04 403.98,190.11 404.20,191.76 404.42,160.10 404.64,179.44 404.85,164.51 405.07,161.16 405.29,184.15 405.51,176.50 405.72,161.29 405.94,184.77 406.16,159.46 406.38,175.79 406.60,161.20 406.81,173.95 407.03,167.00 407.25,174.26 407.47,168.45 407.68,165.92 407.90,173.54 408.12,174.35 408.34,165.41 408.56,165.06 408.77,175.10 408.99,156.17 409.21,178.87 409.43,158.13 409.64,178.93 409.86,184.25 410.08,157.29 410.30,164.84 410.52,179.48 410.73,160.58 410.95,181.65 411.17,178.46 411.39,165.80 411.60,164.66 411.82,175.69 412.04,163.02 412.26,183.67 412.48,175.62 412.69,165.61 412.91,163.07 413.13,183.75 413.35,186.21 413.56,160.16 413.78,164.40 414.00,174.87 414.22,158.39 414.44,179.06 414.65,177.85 414.87,164.18 415.09,177.38 415.31,165.38 415.52,163.51 415.74,175.12 415.96,177.05 416.18,166.24 416.40,163.07 416.61,177.51 416.83,161.61 417.05,176.33 417.27,159.27 417.48,177.04 417.70,155.76 417.92,179.43 418.14,158.75 418.36,178.40 418.57,196.82 418.79,152.89 419.01,155.57 419.23,180.05 419.44,161.02 419.66,177.92 419.88,192.74 420.10,158.16 420.32,163.76 420.53,177.53 420.75,180.58 420.97,164.33 421.19,159.40 421.40,178.81 421.62,162.89 421.84,175.64 422.06,160.40 422.28,185.79 422.49,176.47 422.71,164.57 422.93,164.39 423.15,173.40 423.36,172.98 423.58,167.60 423.80,168.23 424.02,173.02 424.24,165.89 424.45,173.83 424.67,176.38 424.89,161.06 425.11,161.51 425.32,179.04 425.54,184.53 425.76,158.78 425.98,177.97 426.20,158.18 426.41,164.96 426.63,176.40 426.85,156.44 427.07,181.65 427.28,175.49 427.50,165.99 427.72,177.81 427.94,160.62 428.15,180.54 428.37,159.34 428.59,157.18 428.81,176.16 429.03,161.30 429.24,178.11 429.46,176.28 429.68,163.17 429.90,178.53 430.11,166.76 430.33,192.92 430.55,139.01 430.77,152.51 430.99,189.06 431.20,164.36 431.42,174.79 431.64,166.73 431.86,173.46 432.07,173.65 432.29,167.23 432.51,174.22 432.73,164.31 432.95,163.78 433.16,174.66 433.38,162.12 433.60,175.14 433.82,157.10 434.03,180.48 434.25,176.79 434.47,153.17 434.69,155.52 434.91,181.31 435.12,158.76 435.34,183.36 435.56,177.47 435.78,163.66 435.99,160.53 436.21,185.05 436.43,151.86 436.65,185.78 436.87,164.31 437.08,174.89 437.30,185.39 437.52,158.19 437.74,181.76 437.95,160.75 438.17,159.03 438.39,190.90 438.61,155.73 438.83,181.50 439.04,166.16 439.26,174.24 439.48,165.05 439.70,177.04 439.91,181.43 440.13,163.20 440.35,175.66 440.57,165.21 440.79,178.94 441.00,155.67 441.22,178.15 441.44,163.71 441.66,182.67 441.87,164.38 442.09,157.29 442.31,185.78 442.53,164.75 442.75,174.93 442.96,154.04 443.18,186.29 443.40,143.40 443.62,187.78 443.83,156.60 444.05,190.34 444.27,182.90 444.49,158.08 444.71,184.80 444.92,161.17 445.14,177.09 445.36,160.48 445.58,187.11 445.79,161.82 446.01,162.94 446.23,177.17 446.45,180.69 446.67,160.62 446.88,175.03 447.10,166.04 447.32,166.38 447.54,174.12 447.75,164.00 447.97,177.27 448.19,140.02 448.41,181.84 448.63,183.61 448.84,159.62 449.06,155.32 449.28,183.08 449.50,160.64 449.71,182.28 449.93,185.26 450.15,154.73 450.37,145.82 450.59,199.22 450.80,192.88 451.02,139.24 451.24,155.39 451.46,185.90 451.67,184.92 451.89,154.53 452.11,143.60 452.33,186.80 452.55,192.79 452.76,140.62 452.98,179.52 453.20,158.68 453.42,205.38 453.63,154.48 453.85,188.23 454.07,156.58 454.29,150.74 454.51,185.40 454.72,158.67 454.94,184.19 455.16,164.69 455.38,176.00 455.59,182.87 455.81,160.88 456.03,180.69 456.25,163.81 456.46,161.69 456.68,176.11 456.90,160.38 457.12,181.39 457.34,150.41 457.55,175.67 457.77,187.88 457.99,149.94 458.21,148.51 458.42,179.71 458.64,163.28 458.86,177.70 459.08,182.43 459.30,154.76 459.51,182.79 459.73,162.53 459.95,179.53 460.17,163.28 460.38,159.50 460.60,185.48 460.82,151.92 461.04,178.43 461.26,154.06 461.47,185.89 461.69,161.13 461.91,179.84 462.13,179.93 462.34,163.28 462.56,179.29 462.78,160.68 463.00,164.58 463.22,175.79 463.43,174.01 463.65,165.95 463.87,178.43 464.09,160.99 464.30,164.15 464.52,174.35 464.74,178.32 464.96,161.58 465.18,162.37 465.39,178.86 465.61,177.01 465.83,164.02 466.05,189.77 466.26,157.21 466.48,184.22 466.70,152.10 466.92,184.96 467.14,155.61 467.35,182.47 467.57,155.41 467.79,178.66 468.01,159.68 468.22,151.85 468.44,177.56 468.66,177.26 468.88,163.40 469.10,177.99 469.31,157.17 469.53,162.50 469.75,177.78 469.97,179.02 470.18,163.17 470.40,161.76 470.62,179.62 470.84,181.91 471.06,163.53 471.27,166.39 471.49,178.67 471.71,174.17 471.93,166.32 472.14,176.03 472.36,164.99 472.58,175.81 472.80,165.51 473.02,165.79 473.23,174.84 473.45,162.89 473.67,180.35 473.89,184.50 474.10,158.14 474.32,184.19 474.54,157.96 474.76,164.07 474.98,180.13 475.19,184.57 475.41,150.23 475.63,154.14 475.85,179.85 476.06,165.52 476.28,175.98 476.50,158.68 476.72,184.69 476.94,137.14 477.15,188.46 477.37,156.49 477.59,190.53 477.81,272.57 478.02,135.19 478.24,160.52 478.46,178.39 478.68,185.82 478.90,148.19 479.11,162.66 479.33,190.64 479.55,164.96 479.77,174.84 479.98,164.70 480.20,177.88 480.42,166.78 480.64,178.51 480.86,163.66 481.07,176.25 481.29,159.51 481.51,183.93 481.73,160.61 481.94,180.62 482.16,207.64 482.38,130.41 482.60,154.24 482.81,189.98 483.03,153.13 483.25,185.75 483.47,152.80 483.69,187.46 483.90,182.19 484.12,157.52 484.34,158.22 484.56,182.00 484.77,151.27 484.99,183.10 485.21,177.03 485.43,165.78 485.65,159.60 485.86,183.93 486.08,162.59 486.30,176.00 486.52,162.74 486.73,184.64 486.95,177.39 487.17,153.21 487.39,176.56 487.61,166.31 487.82,176.80 488.04,165.93 488.26,162.22 488.48,175.67 488.69,164.05 488.91,178.63 489.13,176.90 489.35,164.72 489.57,147.84 489.78,185.22 490.00,154.41 490.22,178.09 490.44,186.24 490.65,162.81 490.87,174.99 491.09,163.68 491.31,189.15 491.53,157.62 491.74,185.16 491.96,159.82 492.18,162.89 492.40,177.99 492.61,143.51 492.83,193.18 493.05,183.14 493.27,153.98 493.49,187.02 493.70,157.08 493.92,142.84 494.14,189.27 494.36,184.94 494.57,152.33 494.79,131.81 495.01,186.68 495.23,182.42 495.45,161.47 495.66,161.61 495.88,178.13 496.10,156.89 496.32,182.47 496.53,176.83 496.75,161.10 496.97,182.38 497.19,161.76 497.41,184.58 497.62,156.59 497.84,179.20 498.06,159.02 498.28,185.96 498.49,157.72 498.71,156.73 498.93,179.05 499.15,178.73 499.37,156.79 499.58,182.30 499.80,162.39 500.02,163.92 500.24,179.94 500.45,160.38 500.67,183.75 500.89,161.60 501.11,178.99 501.33,181.93 501.54,160.25 501.76,159.30 501.98,180.84 502.20,163.04 502.41,180.04 502.63,148.64 502.85,187.95 503.07,158.54 503.29,179.29 503.50,162.25 503.72,174.75 503.94,163.79 504.16,180.24 504.37,165.17 504.59,175.09 504.81,167.67 505.03,173.49 505.25,181.12 505.46,161.13 505.68,177.02 505.90,160.34 506.12,164.50 506.33,182.03 506.55,152.10 506.77,185.29 506.99,174.89 507.21,159.14 507.42,159.49 507.64,188.74 507.86,163.17 508.08,177.90 508.29,177.26 508.51,161.67 508.73,174.74 508.95,162.88 509.16,178.43 509.38,159.75 509.60,182.23 509.82,157.65 510.04,178.06 510.25,157.86 510.47,176.03 510.69,165.12 510.91,178.45 511.12,155.45 511.34,166.08 511.56,176.62 511.78,174.90 512.00,167.80 512.21,166.68 512.43,177.73 512.65,167.81 512.87,178.22 513.08,178.86 513.30,165.33 513.52,156.99 513.74,175.32 513.96,175.77 514.17,164.10 514.39,183.61 514.61,146.90 514.83,166.30 515.04,176.38 515.26,182.35 515.48,159.95 515.70,179.39 515.92,160.70 516.13,164.84 516.35,180.67 516.57,153.81 516.79,188.16 517.00,198.06 517.22,161.23 517.44,158.03 517.66,184.19 517.88,187.53 518.09,159.64 518.31,177.01 518.53,162.69 518.75,205.65 518.96,152.82 519.18,151.48 519.40,178.40 519.62,175.56 519.84,167.78 520.05,166.96 520.27,177.23 520.49,166.69 520.71,174.59 520.92,175.16 521.14,165.55 521.36,158.69 521.58,175.64 521.80,155.99 522.01,186.73 522.23,197.14 522.45,142.67 522.67,184.00 522.88,160.89 523.10,159.66 523.32,178.11 523.54,147.08 523.76,189.02 523.97,178.81 524.19,161.57 524.41,138.55 524.63,179.87 524.84,159.56 525.06,182.04 525.28,165.21 525.50,180.78 525.72,187.35 525.93,157.88 526.15,155.32 526.37,183.62 526.59,176.79 526.80,166.08 527.02,157.47 527.24,179.07 527.46,161.49 527.68,184.63 527.89,178.58 528.11,159.02 528.33,179.70 528.55,161.11 528.76,180.20 528.98,162.60 529.20,153.81 529.42,179.67 529.64,211.68 529.85,132.78 530.07,128.18 530.29,200.75 530.51,226.93 530.72,120.17 530.94,152.68 531.16,200.96 531.38,153.53 531.60,193.84 531.81,145.16 532.03,185.44 532.25,176.64 532.47,162.88 532.68,184.22 532.90,161.71 533.12,162.63 533.34,182.47 533.56,180.95 533.77,163.69 533.99,131.39 534.21,223.08 534.43,179.45 534.64,153.14 534.86,151.30 535.08,180.36 535.30,180.74 535.52,160.42 535.73,165.77 535.95,175.53 536.17,164.89 536.39,174.91 536.60,166.83 536.82,174.56 537.04,177.07 537.26,167.29 537.47,167.07 537.69,180.42 537.91,188.81 538.13,157.17 538.35,153.54 538.56,185.85 538.78,157.06 539.00,181.86 539.22,164.37 539.43,176.46 539.65,180.25 539.87,155.53 540.09,180.24 540.31,163.91 540.52,166.32 540.74,178.07 540.96,153.18 541.18,187.14 541.39,162.35 541.61,178.21 541.83,156.03 542.05,178.94 542.27,179.69 542.48,162.91 542.70,175.55 542.92,165.70 543.14,161.31 543.35,182.48 543.57,164.48 543.79,176.21 544.01,174.49 544.23,163.26 544.44,162.99 544.66,178.68 544.88,183.48 545.10,160.80 545.31,181.21 545.53,160.34 545.75,197.89 545.97,145.03 546.19,182.76 546.40,153.12 546.62,136.61 546.84,184.66 547.06,160.09 547.27,185.03 547.49,150.57 547.71,187.64 547.93,154.81 548.15,190.51 548.36,163.32 548.58,179.63 548.80,161.72 549.02,185.20 549.23,185.70 549.45,161.59 549.67,161.20 549.89,179.38 550.11,183.35 550.32,160.58 550.54,146.40 550.76,179.14 550.98,155.43 551.19,191.21 551.41,184.07 551.63,162.02 551.85,175.91 552.07,166.57 552.28,165.97 552.50,176.40 552.72,163.17 552.94,174.64 553.15,175.79 553.37,166.54 553.59,182.23 553.81,155.86 554.03,187.08 554.24,159.55 554.46,162.84 554.68,181.35 554.90,175.37 555.11,165.66 555.33,166.59 555.55,174.72 555.77,163.48 555.99,177.31 556.20,164.38 556.42,177.77 556.64,211.96 556.86,160.50 557.07,183.30 557.29,157.53 557.51,165.04 557.73,178.47 557.95,159.17 558.16,181.61 558.38,163.04 558.60,175.74 558.82,161.75 559.03,175.86 559.25,150.62 559.47,180.17 559.69,165.91 559.91,175.87 560.12,174.06 560.34,167.59 560.56,175.83 560.78,168.01 560.99,172.85 561.21,168.93 561.43,174.32 561.65,168.00 561.87,166.56 562.08,180.20 562.30,163.32 562.52,175.12 562.74,163.37 562.95,177.77 563.17,177.04 563.39,163.78 563.61,163.28 563.82,177.37 564.04,181.11 564.26,152.50 564.48,174.70 564.70,157.36 564.91,181.54 565.13,159.90 565.35,164.02 565.57,174.72 565.78,173.85 566.00,166.69 566.22,179.17 566.44,162.27 566.66,165.15 566.87,174.56 567.09,193.25 567.31,152.91 567.53,163.04 567.74,184.85 567.96,165.63 568.18,174.50 568.40,167.41 568.62,175.60 568.83,172.64 569.05,168.76 569.27,174.05 569.49,166.42 569.70,173.61 569.92,163.36 570.14,175.69 570.36,164.87 570.58,159.95 570.79,180.11 571.01,183.69 571.23,146.97 571.45,191.45 571.66,154.15 571.88,148.31 572.10,185.29 572.32,181.17 572.54,159.96 572.75,188.51 572.97,153.95 573.19,215.01 573.41,135.77 573.62,179.90 573.84,159.98 574.06,155.87 574.28,183.68 574.50,221.34 574.71,141.78 574.93,194.12 575.15,149.55 575.37,192.97 575.58,145.86 575.80,156.94 576.02,180.49 576.24,182.29 576.46,163.01 576.67,178.46 576.89,164.21 577.11,163.57 577.33,177.04 577.54,199.94 577.76,116.94 577.98,182.44 578.20,158.91 578.42,186.96 578.63,158.38 578.85,204.08 579.07,143.92 579.29,198.50 579.50,145.78 579.72,123.96 579.94,189.26 580.16,149.00 580.38,190.47 580.59,186.28 580.81,161.44 581.03,149.22 581.25,188.24 581.46,139.06 581.68,185.31 581.90,161.48 582.12,185.55 582.34,191.12 582.55,151.74 582.77,224.70 582.99,135.29 583.21,147.60 583.42,188.47 583.64,152.37 583.86,201.95 584.08,180.46 584.30,161.62 584.51,177.06 584.73,161.47 584.95,176.41 585.17,162.78 585.38,184.17 585.60,163.24 585.82,159.75 586.04,189.24 586.26,183.76 586.47,152.92 586.69,136.02 586.91,194.13 587.13,143.41 587.34,191.58 587.56,178.41 587.78,159.66 588.00,191.71 588.22,142.45 588.43,162.83 588.65,183.95 588.87,153.90 589.09,186.48 589.30,183.92 589.52,159.58 589.74,162.42 589.96,178.26 590.18,158.11 590.39,181.39 590.61,161.69 590.83,178.85 591.05,162.55 591.26,176.22 591.48,155.22 591.70,180.42 591.92,164.09 592.13,174.47 592.35,164.52 592.57,177.11 592.79,174.26 593.01,166.50 593.22,176.83 593.44,166.46 593.66,136.98 593.88,185.22 594.09,180.43 594.31,165.11 594.53,158.37 594.75,178.53 594.97,155.55 595.18,182.45 595.40,177.46 595.62,158.29 595.84,183.59 596.05,161.77 596.27,178.02 596.49,160.21 596.71,178.96 596.93,166.39 597.14,151.67 597.36,181.07 597.58,157.59 597.80,181.30 598.01,183.63 598.23,164.11 598.45,187.97 598.67,160.50 598.89,165.95 599.10,176.91 599.32,178.84 599.54,157.75 599.76,176.26 599.97,165.61 600.19,167.52 600.41,174.20 600.63,172.96 600.85,167.37 601.06,174.62 601.28,167.83 601.50,163.47 601.72,175.01 601.93,177.32 602.15,162.77 602.37,162.24 602.59,177.31 602.81,159.74 603.02,181.65 603.24,164.28 603.46,176.77 603.68,176.15 603.89,163.51 604.11,177.88 604.33,160.81 604.55,177.03 604.77,164.71 604.98,182.41 605.20,160.94 605.42,176.55 605.64,164.05 605.85,161.58 606.07,174.87 606.29,177.85 606.51,163.76 606.73,161.88 606.94,173.81 607.16,162.45 607.38,177.11 607.60,182.77 607.81,162.19 608.03,167.10 608.25,178.02 608.47,180.61 608.69,164.93 608.90,157.44 609.12,178.01 609.34,164.38 609.56,175.69 609.77,177.12 609.99,165.39 610.21,180.73 610.43,161.02 610.65,175.22 610.86,158.94 611.08,189.19 611.30,152.14 611.52,175.78 611.73,165.56 611.95,179.49 612.17,151.59 612.39,178.85 612.61,163.14 612.82,176.03 613.04,159.43 613.26,152.46 613.48,185.42 613.69,138.47 613.91,212.12 614.13,179.74 614.35,151.79 614.57,159.14 614.78,181.37 615.00,158.74 615.22,176.73 615.44,190.60 615.65,147.80 615.87,152.51 616.09,180.23 616.31,166.10 616.53,174.12 616.74,177.53 616.96,166.45 617.18,174.80 617.40,162.09 617.61,175.28 617.83,164.81 618.05,184.69 618.27,157.24 618.48,192.23 618.70,148.28 618.92,131.17 619.14,224.68 619.36,187.14 619.57,153.48 619.79,178.22 620.01,163.30 620.23,183.36 620.44,156.23 620.66,189.71 620.88,147.15 621.10,149.82 621.32,199.66 621.53,185.52 621.75,114.79 621.97,183.65 622.19,163.97 622.40,191.67 622.62,155.20 622.84,162.98 623.06,178.35 623.28,156.72 623.49,180.13 623.71,146.46 623.93,183.11 624.15,177.69 624.36,163.40 624.58,177.85 624.80,155.29 625.02,178.44 625.24,163.59 625.45,179.18 625.67,162.17 625.89,181.46 626.11,159.88 626.32,196.23 626.54,158.57 626.76,183.48 626.98,163.99 627.20,153.59 627.41,188.47 627.63,176.92 627.85,162.53 628.07,160.60 628.28,189.08 628.50,179.65 628.72,163.93 628.94,183.48 629.16,162.02 629.37,185.22 629.59,155.92 629.81,174.93 630.03,165.09 630.24,165.34 630.46,176.90 630.68,161.09 630.90,177.50 631.12,167.33 631.33,173.38 631.55,168.06 631.77,173.00 631.99,167.40 632.20,173.28 632.42,174.24 632.64,166.57 632.86,179.07 633.08,164.55 633.29,168.00 633.51,172.57 633.73,166.13 633.95,175.19 634.16,163.46 634.38,175.49 634.60,151.55 634.82,182.68 635.04,158.58 635.25,185.82 635.47,179.17 635.69,153.85 635.91,177.09 636.12,164.66 636.34,160.23 636.56,183.15 636.78,123.34 637.00,179.50 637.21,154.34 637.43,185.24 637.65,180.14 637.87,158.45 638.08,165.73 638.30,176.88 638.52,160.81 638.74,179.94 638.96,162.48 639.17,179.46 639.39,163.64 639.61,176.58 639.83,156.88 640.04,182.23 640.26,162.80 640.48,174.28 640.70,165.98 640.92,175.80 641.13,165.57 641.35,173.78 641.57,182.22 641.79,164.57 642.00,164.69 642.22,174.72 642.44,176.69 642.66,165.38 642.88,177.58 643.09,161.16 643.31,179.93 643.53,159.64 643.75,164.44 643.96,176.72 644.18,175.05 644.40,164.15 644.62,164.79 644.84,178.51 645.05,174.52 645.27,164.64 645.49,181.88 645.71,156.69 645.92,164.97 646.14,176.85 646.36,158.21 646.58,179.34 646.79,161.17 647.01,177.40 647.23,165.41 647.45,175.62 647.67,177.70 647.88,160.92 648.10,167.21 648.32,175.23 648.54,174.19 648.75,166.68 648.97,174.25 649.19,167.05 649.41,163.42 649.63,174.68 649.84,166.08 650.06,175.26 650.28,166.22 650.50,183.50 650.71,178.61 650.93,159.72 651.15,158.33 651.37,177.48 651.59,178.32 651.80,164.92 652.02,166.82 652.24,174.32 652.46,179.14 652.67,159.37 652.89,155.76 653.11,177.61 653.33,164.75 653.55,179.03 653.76,186.98 653.98,159.58 654.20,155.66 654.42,174.12 654.63,153.34 654.85,181.97 655.07,153.96 655.29,179.32 655.51,183.25 655.72,163.32 655.94,160.02 656.16,181.62 656.38,172.63 656.59,165.80 656.81,163.41 657.03,175.74 657.25,153.23 657.47,184.05 657.68,180.93 657.90,163.42 658.12,179.92 658.34,160.41 658.55,179.17 658.77,163.10 658.99,141.17 659.21,181.73 659.43,189.46 659.64,153.83 659.86,162.53 660.08,180.77 660.30,176.90 660.51,159.52 660.73,177.04 660.95,164.25 661.17,165.82 661.39,177.39 661.60,181.73 661.82,163.92 662.04,174.19 662.26,165.87 662.47,162.61 662.69,184.63 662.91,180.58 663.13,162.57 663.35,163.73 663.56,176.49 663.78,177.01 664.00,159.89 664.22,177.73 664.43,165.65 664.65,164.70 664.87,174.71 665.09,165.00 665.31,174.38 665.52,166.32 665.74,175.23 665.96,160.79 666.18,175.08 666.39,181.94 666.61,159.23 666.83,158.07 667.05,180.42 667.27,163.11 667.48,181.70 667.70,159.08 667.92,185.04 668.14,164.71 668.35,178.53 668.57,158.79 668.79,177.59 669.01,183.40 669.23,157.12 669.44,157.08 669.66,179.29 669.88,193.48 670.10,154.15 670.31,157.83 670.53,181.28 670.75,161.52 670.97,180.11 671.19,176.82 671.40,165.52 671.62,184.67 671.84,161.99 672.06,153.93 672.27,182.72 672.49,159.23 672.71,180.86 672.93,164.90 673.14,176.67 673.36,162.67 673.58,180.25 673.80,164.07 674.02,176.74 674.23,179.27 674.45,164.23 674.67,176.61 674.89,158.63 675.10,178.20 675.32,163.46 675.54,179.27 675.76,163.81 675.98,183.50 676.19,163.25 676.41,157.94 676.63,177.85 676.85,165.09 677.06,178.71 677.28,164.37 677.50,177.80 677.72,178.81 677.94,165.02 678.15,175.94 678.37,163.09 678.59,177.95 678.81,161.88 679.02,183.50 679.24,155.19 679.46,163.75 679.68,179.90 679.90,163.84 680.11,182.21 680.33,179.52 680.55,160.47 680.77,176.30 680.98,166.09 681.20,166.18 681.42,175.47 681.64,165.58 681.86,176.99 682.07,174.86 682.29,166.23 682.51,159.49 682.73,175.78 682.94,175.01 683.16,164.79 683.38,164.33 683.60,178.09 683.82,164.16 684.03,179.37 684.25,166.08 684.47,174.39 684.69,160.38 684.90,176.97 685.12,166.78 685.34,174.42 685.56,178.79 685.78,164.48 685.99,165.50 686.21,174.98 686.43,166.35 686.65,174.15 686.86,164.09 687.08,181.37 687.30,190.31 687.52,157.49 687.74,165.50 687.95,176.07 688.17,159.24 688.39,176.05 688.61,175.14 688.82,163.42 689.04,175.13 689.26,165.32 689.48,173.29 689.70,162.43 689.91,175.21 690.13,167.53 690.35,166.85 690.57,177.38 690.78,176.06 691.00,166.68 691.22,158.56 691.44,174.54 691.66,148.31 691.87,180.40 692.09,163.82 692.31,176.67 692.53,184.28 692.74,164.82 692.96,165.15 693.18,178.47 693.40,166.54 693.62,172.98 693.83,159.57 694.05,180.93 694.27,164.89 694.49,179.37 694.70,175.76 694.92,164.90 695.14,181.22 695.36,162.18 695.58,190.97 695.79,157.80 696.01,177.36 696.23,159.18 696.45,164.19 696.66,176.56 696.88,173.37 697.10,167.35 697.32,166.04 697.54,175.41 697.75,174.02 697.97,164.13 698.19,174.05 698.41,165.04 698.62,175.79 698.84,164.61 699.06,176.39 699.28,162.39 699.49,161.25 699.71,178.71 699.93,183.46 700.15,159.50 700.37,165.76 700.58,175.25 700.80,162.58 701.02,181.25 701.24,165.17 701.45,177.83 701.67,162.48 701.89,178.66 702.11,180.82 702.33,160.17 702.54,178.98 702.76,164.39 702.98,176.51 703.20,163.07 703.41,174.23 703.63,166.11 703.85,164.54 704.07,182.79 704.29,183.58 704.50,161.23 704.72,175.28 704.94,166.71 705.16,164.27 705.37,175.46 705.59,193.81 705.81,155.84 706.03,159.66 706.25,186.06 706.46,160.34 706.68,187.48 706.90,154.29 707.12,178.24 707.33,162.36 707.55,175.53 707.77,153.23 707.99,182.04 708.21,163.78 708.42,178.88 708.64,176.10 708.86,162.30 709.08,164.15 709.29,176.81 709.51,165.01 709.73,175.86 709.95,162.60 710.17,180.87 710.38,174.77 710.60,162.21 710.82,177.78 711.04,167.24 711.25,161.49 711.47,180.87 711.69,176.51 711.91,162.00 712.13,177.56 712.34,163.70 712.56,175.83 712.78,165.20 713.00,168.50 713.21,171.82 713.43,172.12 713.65,167.40 713.87,168.52 714.09,173.53 714.30,166.46 714.52,174.16 714.74,174.32 714.96,164.33 715.17,165.06 715.39,177.08 715.61,178.57 715.83,162.28 716.05,166.29 716.26,176.60 716.48,176.18 716.70,165.72 716.92,163.37 717.13,177.37 717.35,173.86 717.57,166.48 717.79,163.03 718.01,176.16 718.22,155.94 718.44,178.74 718.66,173.59 718.88,163.41 719.09,159.40 719.31,178.93 719.53,166.92 719.75,174.54 719.97,174.91 720.18,167.87 720.40,162.64 720.62,176.05 720.84,174.39 721.05,164.42 721.27,167.08 721.49,172.72 721.71,168.01 721.93,172.99 722.14,168.53 722.36,173.73 722.58,165.66 722.80,175.50 723.01,163.85 723.23,175.02 723.45,165.96 723.67,175.68 723.89,165.17 724.10,178.86 724.32,176.02 724.54,165.38 724.76,161.71 724.97,176.24 725.19,164.23 725.41,173.88 725.63,173.52 725.85,164.04 726.06,181.07 726.28,159.12 726.50,162.40 726.72,175.24 726.93,177.87 727.15,166.10 727.37,116.51 727.59,176.74 727.80,179.04 728.02,163.58 728.24,178.70 728.46,159.69 728.68,162.35 728.89,176.55 729.11,167.87 729.33,177.10 729.55,167.56 729.76,174.34 729.98,174.19 730.20,166.74 730.42,174.52 730.64,157.58 730.85,164.47 731.07,175.51 731.29,146.50 731.51,178.31 731.72,180.58 731.94,162.15 732.16,163.25 732.38,185.57 732.60,163.53 732.81,178.85 733.03,157.62 733.25,187.21 733.47,176.54 733.68,165.29 733.90,162.66 734.12,180.91 734.34,161.97 734.56,178.73 734.77,181.21 734.99,162.77 735.21,176.22 735.43,161.30 735.64,161.67 735.86,179.56 736.08,165.81 736.30,179.05 736.52,184.08 736.73,161.08 736.95,173.26 737.17,166.63 737.39,175.74 737.60,165.67 737.82,176.63 738.04,162.99 738.26,173.24 738.48,166.70 738.69,164.74 738.91,175.53 739.13,180.98 739.35,164.87 739.56,162.98 739.78,175.57 740.00,164.03 740.22,177.08 740.44,179.51 740.65,163.91 740.87,182.56 741.09,159.61 741.31,157.21 741.52,178.47 741.74,175.53 741.96,165.15 742.18,178.35 742.40,160.82 742.61,164.99 742.83,178.43 743.05,162.01 743.27,178.96 743.48,164.64 743.70,176.16 743.92,180.46 744.14,158.70 744.36,161.23 744.57,180.62 744.79,175.52 745.01,166.40 745.23,165.58 745.44,175.85 745.66,174.26 745.88,167.19 746.10,167.42 746.32,175.07 746.53,173.85 746.75,167.82 746.97,162.36 747.19,176.04 747.40,164.56 747.62,177.06 747.84,161.09 748.06,177.59 748.28,163.99 748.49,179.32 748.71,174.96 748.93,166.77 749.15,178.05 749.36,160.97 749.58,166.55 749.80,176.94 750.02,176.17 750.24,162.16 750.45,181.58 750.67,163.54 750.89,174.76 751.11,166.25 751.32,176.69 751.54,159.12 751.76,178.76 751.98,159.31 752.20,178.80 752.41,160.18 752.63,181.25 752.85,157.67 753.07,177.45 753.28,165.73 753.50,166.60 753.72,174.83 753.94,163.74 754.15,179.40 754.37,175.32 754.59,165.36 754.81,166.44 755.03,174.77 755.24,175.93 755.46,165.96 755.68,174.04 755.90,164.02 756.11,163.65 756.33,178.61 756.55,176.17 756.77,165.99 756.99,186.08 757.20,163.04 757.42,176.28 757.64,164.85 757.86,174.54 758.07,161.47 758.29,177.05 758.51,154.62 758.73,173.29 758.95,167.73 759.16,161.99 759.38,176.14 759.60,179.59 759.82,164.36 760.03,180.90 760.25,160.63 760.47,165.75 760.69,175.11 760.91,175.68 761.12,166.97 761.34,174.94 761.56,165.34 761.78,175.01 761.99,167.46 762.21,161.20 762.43,174.14 762.65,175.96 762.87,164.08 763.08,178.41 763.30,165.22 763.52,156.12 763.74,175.46 763.95,180.97 764.17,162.78 764.39,164.02 764.61,178.87 764.83,176.56 765.04,161.24 765.26,164.29 765.48,183.20 765.70,174.81 765.91,165.35 766.13,151.90 766.35,180.78 766.57,160.84 766.79,177.47 767.00,176.34 767.22,163.76 767.44,220.25 767.66,155.63 767.87,176.54 768.09,164.16 768.31,163.94 768.53,175.20 768.75,177.65 768.96,162.65 769.18,174.27 769.40,167.04 769.62,174.46 769.83,167.54 770.05,172.89 770.27,167.72 770.49,164.02 770.71,173.58 770.92,175.81 771.14,167.02 771.36,179.90 771.58,164.53 771.79,165.73 772.01,175.89 772.23,176.62 772.45,164.05 772.67,164.05 772.88,175.98 773.10,180.21 773.32,163.33 773.54,163.95 773.75,177.00 773.97,167.48 774.19,174.59 774.41,178.67 774.63,159.26 774.84,177.49 775.06,164.10 775.28,176.88 775.50,166.28 775.71,180.45 775.93,163.10 776.15,176.34 776.37,164.99 776.59,134.01 776.80,178.57 777.02,176.41 777.24,165.24 777.46,175.97 777.67,167.19 777.89,174.79 778.11,166.21 778.33,174.67 778.55,167.28 778.76,165.06 778.98,174.09 779.20,195.42 779.42,159.71 779.63,178.34 779.85,161.14 780.07,180.69 780.29,161.77 780.51,192.09 780.72,161.05 780.94,160.22 781.16,175.57 781.38,187.99 781.59,158.81 781.81,174.68 782.03,161.45 782.25,162.22 782.46,180.19 782.68,163.29 782.90,179.67 783.12,164.23 783.34,173.26 783.55,165.10 783.77,179.19 783.99,176.21 784.21,165.47 784.42,179.06 784.64,160.77 784.86,179.96 785.08,162.70 785.30,176.41 785.51,165.26 785.73,175.19 785.95,165.63 786.17,166.10 786.38,174.28 786.60,167.56 786.82,174.37 787.04,166.66 787.26,174.19 787.47,175.78 787.69,161.47 787.91,162.12 788.13,178.25 788.34,179.12 788.56,164.95 788.78,159.25 789.00,174.47 789.22,181.53 789.43,156.54 789.65,176.30 789.87,163.41 790.09,177.08 790.30,163.88 790.52,181.94 790.74,159.80 790.96,166.08 791.18,177.58 791.39,164.37 791.61,179.27 791.83,176.38 792.05,156.33 792.26,174.72 792.48,164.45 792.70,160.26 792.92,188.49 793.14,165.25 793.35,179.64 793.57,174.27 793.79,168.75 794.01,174.02 794.22,166.70 794.44,171.75 794.66,168.15 794.88,165.06 795.10,175.78 795.31,167.67 795.53,173.81 795.75,175.14 795.97,166.23 796.18,176.75 796.40,161.60 796.62,166.04 796.84,176.21 797.06,164.41 797.27,174.21 797.49,184.23 797.71,164.57 797.93,165.23 798.14,175.95 798.36,154.16 798.58,179.83 798.80,175.69 799.02,165.32 799.23,167.74 799.45,175.92 799.67,183.85 799.89,160.49 800.10,162.32 800.32,176.47 800.54,174.52 800.76,165.56 800.98,177.20 801.19,165.21 801.41,167.74 801.63,174.30 801.85,166.34 802.06,173.23 802.28,173.91 802.50,167.28 802.72,173.67 802.94,167.34 803.15,175.74 803.37,167.28 803.59,174.51 803.81,164.11 804.02,164.40 804.24,177.88 804.46,176.61 804.68,164.09 804.90,175.52 805.11,166.14 805.33,176.21 805.55,161.72 805.77,177.43 805.98,166.95 806.20,166.75 806.42,173.79 806.64,156.12 806.86,183.27 807.07,163.07 807.29,175.34 807.51,165.56 807.73,178.65 807.94,166.12 808.16,177.64 808.38,175.69 808.60,167.55 808.81,175.83 809.03,166.84 809.25,173.95 809.47,166.89 809.69,167.71 809.90,172.37 810.12,172.46 810.34,168.77 810.56,172.51 810.77,168.41 810.99,168.27 811.21,172.22 811.43,167.62 811.65,174.76 811.86,196.60 812.08,164.82 812.30,162.38 812.52,175.87 812.73,175.94 812.95,164.17 813.17,164.20 813.39,173.83 813.61,174.93 813.82,164.17 814.04,176.13 814.26,159.55 814.48,164.54 814.69,174.27 814.91,174.88 815.13,165.98 815.35,162.74 815.57,178.86 815.78,162.10 816.00,181.86 816.22,178.03 816.44,159.29 816.65,177.49 816.87,164.98 817.09,162.97 817.31,176.58 817.53,173.86 817.74,167.97 817.96,172.98 818.18,168.17 818.40,168.42 818.61,173.28 818.83,168.44 819.05,172.66 819.27,173.41 819.49,167.59 819.70,158.42 819.92,175.15 820.14,174.47 820.36,151.09 820.57,164.41 820.79,175.02 821.01,174.65 821.23,166.23 821.45,175.50 821.66,164.59 821.88,164.37 822.10,178.26 822.32,175.53 822.53,158.67 822.75,162.14 822.97,176.02 823.19,175.56 823.41,160.91 823.62,165.22 823.84,179.32 824.06,175.50 824.28,160.98 824.49,174.28 824.71,166.54 824.93,158.14 825.15,183.50 825.37,165.46 825.58,176.79 825.80,173.97 826.02,167.45 826.24,165.52 826.45,174.16 826.67,145.12 826.89,178.70 827.11,179.41 827.33,165.17 827.54,154.23 827.76,178.58 827.98,177.96 828.20,164.08 828.41,162.15 828.63,177.23 828.85,164.83 829.07,176.15 829.29,174.66 829.50,164.35 829.72,187.41 829.94,162.43 830.16,176.04 830.37,163.89 830.59,180.46 830.81,160.88 831.03,163.61 831.25,177.91 831.46,177.51 831.68,164.65 831.90,162.48 832.12,180.16 832.33,164.80 832.55,176.59 832.77,176.54 832.99,164.64 833.21,357.73 833.42,72.27 833.64,192.87 833.86,154.37 834.08,161.48 834.29,177.66 834.51,159.31 834.73,179.07 834.95,151.43 835.16,179.38 835.38,152.34 835.60,183.51 835.82,180.30 836.04,159.61 836.25,181.17 836.47,153.62 836.69,178.42 836.91,156.29 837.12,165.81 837.34,178.46 837.56,159.68 837.78,180.00 838.00,185.12 838.21,160.45 838.43,166.62 838.65,179.24 838.87,181.72 839.08,157.05 839.30,164.58 839.52,181.03 839.74,191.31 839.96,138.75 840.17,157.26 840.39,186.81 840.61,163.11 840.83,181.95 841.04,181.80 841.26,149.97 841.48,165.79 841.70,179.10 841.92,178.59 842.13,164.23 842.35,167.08 842.57,176.40 842.79,164.32 843.00,173.60 843.22,182.50 843.44,148.23 843.66,159.57 843.88,177.00 844.09,148.52 844.31,177.93 844.53,181.52 844.75,160.20 844.96,165.88 845.18,175.95 845.40,179.25 845.62,157.17 845.84,149.19 846.05,188.32 846.27,183.82 846.49,160.13 846.71,182.07 846.92,152.49 847.14,179.48 847.36,161.13 847.58,153.11 847.80,177.61 848.01,182.73 848.23,157.52 848.45,177.49 848.67,163.32 848.88,158.40 849.10,181.10 849.32,181.52 849.54,162.86 849.76,175.67 849.97,165.64 850.19,174.12 850.41,167.17 850.63,167.43 850.84,172.61 851.06,158.86 851.28,175.49 851.50,162.26 851.72,175.26 851.93,176.04 852.15,143.04 852.37,178.13 852.59,162.95 852.80,165.60 853.02,176.93 853.24,165.26 853.46,176.29 853.68,163.14 853.89,183.83 854.11,185.96 854.33,161.95 854.55,175.83 854.76,166.38 854.98,221.72 855.20,152.89 855.42,194.39 855.64,144.75 855.85,155.99 856.07,182.04 856.29,179.17 856.51,160.80 856.72,178.51 856.94,158.38 857.16,179.99 857.38,156.32 857.60,158.04 857.81,178.14 858.03,174.13 858.25,166.63 858.47,162.37 858.68,174.04 858.90,174.80 859.12,164.49 859.34,163.67 859.56,174.96 859.77,180.77 859.99,164.72 860.21,183.33 860.43,159.47 860.64,196.50 860.86,157.81 861.08,179.59 861.30,160.09 861.52,180.31 861.73,155.93 861.95,148.13 862.17,190.44 862.39,187.68 862.60,152.54 862.82,179.88 863.04,157.89 863.26,179.21 863.47,162.90 863.69,179.05 863.91,157.00 864.13,184.72 864.35,155.53 864.56,183.59 864.78,162.08 865.00,180.11 865.22,163.04 865.43,182.70 865.65,141.03 865.87,178.94 866.09,164.50 866.31,176.44 866.52,161.88 866.74,164.63 866.96,179.55 867.18,176.22 867.39,165.34 867.61,156.03 867.83,178.56 868.05,160.46 868.27,177.99 868.48,162.64 868.70,177.24 868.92,182.45 869.14,163.65 869.35,145.05 869.57,179.47 869.79,156.30 870.01,181.01 870.23,161.90 870.44,176.44 870.66,162.89 870.88,175.36 871.10,188.79 871.31,159.97 871.53,182.55 871.75,161.46 871.97,189.19 872.19,154.04 872.40,160.61 872.62,182.96 872.84,201.59 873.06,148.30 873.27,184.50 873.49,151.80 873.71,188.74 873.93,160.43 874.15,180.49 874.36,163.33 874.58,177.49 874.80,161.46 875.02,177.09 875.23,163.02 875.45,164.25 875.67,179.80 875.89,199.83 876.11,154.24 876.32,160.56 876.54,176.18 876.76,151.86 876.98,185.09 877.19,183.47 877.41,146.27 877.63,159.01 877.85,180.76 878.07,188.13 878.28,152.10 878.50,184.25 878.72,162.31 878.94,161.17 879.15,185.36 879.37,182.48 879.59,155.78 879.81,181.05 880.03,162.11 880.24,157.54 880.46,183.62 880.68,183.18 880.90,157.92 881.11,221.62 881.33,132.55 881.55,139.03 881.77,189.23 881.99,179.08 882.20,162.47 882.42,178.33 882.64,161.65 882.86,159.04 883.07,178.30 883.29,164.60 883.51,177.08 883.73,182.19 883.95,162.06 884.16,186.62 884.38,152.35 884.60,180.85 884.82,161.63 885.03,154.95 885.25,184.19 885.47,177.31 885.69,163.72 885.91,184.30 886.12,158.20 886.34,183.89 886.56,158.99 886.78,180.04 886.99,164.76 887.21,182.99 887.43,150.91 887.65,158.49 887.87,177.30 888.08,163.65 888.30,178.70 888.52,160.35 888.74,177.54 888.95,176.45 889.17,161.96 889.39,157.58 889.61,186.49 889.82,165.36 890.04,177.30 890.26,167.48 890.48,175.31 890.70,165.75 890.91,176.72 891.13,174.92 891.35,164.04 891.57,163.22 891.78,176.21 892.00,166.39 892.22,188.96 892.44,158.44 892.66,182.46 892.87,189.66 893.09,153.28 893.31,178.70 893.53,154.27 893.74,176.29 893.96,162.23 894.18,150.11 894.40,181.12 894.62,152.96 894.83,182.11 895.05,207.10 895.27,147.27 895.49,183.64 895.70,158.10 895.92,163.44 896.14,178.92 896.36,150.74 896.58,188.45 896.79,175.66 897.01,163.18 897.23,183.34 897.45,163.22 897.66,146.20 897.88,188.58 898.10,175.76 898.32,165.13 898.54,161.28 898.75,178.69 898.97,166.36 899.19,176.00 899.41,175.92 899.62,166.89 899.84,183.01 900.06,150.82 900.28,186.68 900.50,161.10 900.71,176.71 900.93,164.57 901.15,186.11 901.37,156.98 901.58,178.05 901.80,163.00 902.02,147.57 902.24,180.42 902.46,180.74 902.67,161.24 902.89,164.75 903.11,177.40 903.33,152.22 903.54,195.93 903.76,161.08 903.98,182.68 904.20,161.21 904.42,182.59 904.63,154.45 904.85,182.26 905.07,183.17 905.29,161.99 905.50,188.71 905.72,160.93 905.94,176.07 906.16,164.15 906.38,172.10 906.59,167.44 906.81,175.15 907.03,166.07 907.25,167.50 907.46,174.42 907.68,183.90 907.90,163.62 908.12,180.16 908.34,163.92 908.55,159.47 908.77,174.85 908.99,185.83 909.21,156.69 909.42,178.64 909.64,164.13 909.86,177.27 910.08,159.75 910.30,184.64 910.51,159.72 910.73,162.65 910.95,177.53 911.17,119.37 911.38,190.18 911.60,182.65 911.82,157.55 912.04,162.38 912.26,176.45 912.47,152.90 912.69,198.70 912.91,181.39 913.13,152.21 913.34,161.20 913.56,177.13 913.78,147.70 914.00,186.97 914.22,166.58 914.43,173.94 914.65,167.01 914.87,176.66 915.09,167.92 915.30,173.77 915.52,164.56 915.74,174.79 915.96,178.61 916.18,164.40 916.39,155.66 916.61,183.19 916.83,162.71 917.05,178.10 917.26,163.38 917.48,186.31 917.70,164.91 917.92,181.29 918.13,180.18 918.35,152.55 918.57,163.79 918.79,178.28 919.01,176.92 919.22,166.55 919.44,183.50 919.66,156.23 919.88,166.04 920.09,175.59 920.31,177.31 920.53,167.12 920.75,158.44 920.97,179.36 921.18,153.76 921.40,178.66 921.62,182.13 921.84,163.88 922.05,173.27 922.27,167.57 922.49,165.89 922.71,173.60 922.93,168.05 923.14,172.02 923.36,164.99 923.58,173.16 923.80,167.67 924.01,173.32 924.23,165.62 924.45,177.00 924.67,158.79 924.89,187.41 925.10,185.51 925.32,160.61 925.54,176.01 925.76,164.89 925.97,164.37 926.19,175.58 926.41,155.37 926.63,186.50 926.85,162.14 927.06,173.93 927.28,179.25 927.50,165.94 927.72,179.85 927.93,165.00 928.15,173.52 928.37,166.58 928.59,166.84 928.81,173.15 929.02,174.78 929.24,164.77 929.46,163.84 929.68,175.22 929.89,151.91 930.11,180.98 930.33,175.02 930.55,167.29 930.77,165.66 930.98,173.48 931.20,161.88 931.42,176.04 931.64,166.20 931.85,176.85 932.07,167.47 932.29,174.96 932.51,158.94 932.73,175.40 932.94,174.97 933.16,159.57 933.38,163.27 933.60,180.70 933.81,175.52 934.03,166.87 934.25,162.70 934.47,183.24 934.69,148.96 934.90,178.94 935.12,166.58 935.34,176.91 935.56,184.14 935.77,164.61 935.99,165.03 936.21,177.69 936.43,177.02 936.65,157.10 936.86,160.73 937.08,176.61 937.30,160.92 937.52,181.81 937.73,149.73 937.95,180.86 938.17,165.77 938.39,176.92 938.61,173.35 938.82,168.51 939.04,172.26 939.26,169.15 939.48,173.44 939.69,168.25 939.91,168.08 940.13,175.09 940.35,177.43 940.57,160.62 940.78,163.69 941.00,180.46 941.22,160.26 941.44,186.23 941.65,177.33 941.87,165.37 942.09,162.38 942.31,176.81 942.53,177.81 942.74,147.20 942.96,164.98 943.18,176.52 943.40,151.70 943.61,179.13 943.83,183.86 944.05,162.34 944.27,178.21 944.48,164.20 944.70,180.95 944.92,143.75 945.14,175.97 945.36,165.50 945.57,166.81 945.79,174.01 946.01,162.07 946.23,187.87 946.44,168.58 946.66,173.48 946.88,166.69 947.10,174.53 947.32,167.87 947.53,174.94 947.75,168.11 947.97,175.34 948.19,165.58 948.40,173.81 948.62,188.84 948.84,161.42 949.06,162.94 949.28,176.81 949.49,165.46 949.71,174.83 949.93,185.12 950.15,163.00 950.36,187.21 950.58,154.49 950.80,159.58 951.02,205.69 951.24,177.08 951.45,164.68 951.67,190.38 951.89,142.36 952.11,163.50 952.32,176.90 952.54,180.93 952.76,162.76 952.98,176.91 953.20,161.30 953.41,165.95 953.63,175.52 953.85,185.37 954.07,154.62 954.28,181.81 954.50,164.38 954.72,173.09 954.94,168.95 955.16,175.16 955.37,167.61 955.59,174.78 955.81,166.64 956.03,165.63 956.24,176.69 956.46,180.17 956.68,162.40 956.90,163.08 957.12,176.07 957.33,157.94 957.55,191.53 957.77,176.36 957.99,164.40 958.20,167.14 958.42,173.60 958.64,182.14 958.86,157.52 959.08,174.40 959.29,166.05 959.51,164.29 959.73,180.10 959.95,154.94 960.16,181.44 960.38,179.73 960.60,160.17 960.82,192.87 961.04,161.10 961.25,196.02 961.47,157.59 961.69,154.89 961.91,177.07 962.12,189.55 962.34,150.51 962.56,165.40 962.78,177.49 963.00,157.07 963.21,196.00 963.43,197.86 963.65,151.21 963.87,161.84 964.08,178.95 964.30,189.53 964.52,153.68 964.74,204.66 964.96,128.59 965.17,125.98 965.39,181.42 965.61,186.26 965.83,155.91 966.04,180.89 966.26,160.54 966.48,187.78 966.70,155.62 966.92,185.90 967.13,136.66 967.35,159.86 967.57,180.15 967.79,195.13 968.00,151.10 968.22,147.71 968.44,193.66 968.66,150.32 968.88,197.84 969.09,123.13 969.31,217.71 969.53,132.92 969.75,187.54 969.96,143.87 970.18,198.13 970.40,155.83 970.62,184.51 970.84,198.47 971.05,134.58 971.27,183.01 971.49,156.09 971.71,179.05 971.92,163.25 972.14,152.90 972.36,180.96 972.58,152.98 972.79,200.78 973.01,160.41 973.23,187.33 973.45,148.77 973.67,184.90 973.88,181.63 974.10,155.16 974.32,182.82 974.54,159.91 974.75,189.77 974.97,146.92 975.19,162.76 975.41,185.88 975.63,151.94 975.84,191.77 976.06,158.80 976.28,182.52 976.50,178.37 976.71,162.68 976.93,190.25 977.15,153.83 977.37,180.18 977.59,161.23 977.80,164.31 978.02,178.01 978.24,150.20 978.46,181.09 978.67,174.26 978.89,163.32 979.11,160.75 979.33,179.21 979.55,165.07 979.76,179.80 979.98,151.41 980.20,180.64 980.42,189.66 980.63,156.92 980.85,181.87 981.07,162.82 981.29,148.59 981.51,194.78 981.72,199.57 981.94,158.20 982.16,158.50 982.38,178.82 982.59,188.94 982.81,157.35 983.03,156.50 983.25,180.30 983.47,192.45 983.68,162.86 983.90,146.04 984.12,190.51 984.34,176.58 984.55,165.28 984.77,156.83 984.99,181.82 985.21,181.05 985.43,158.13 985.64,152.72 985.86,176.50 986.08,157.12 986.30,189.31 986.51,178.36 986.73,163.33 986.95,164.92 987.17,174.40 987.39,161.31 987.60,178.15 987.82,176.67 988.04,167.76 988.26,177.62 988.47,164.52 988.69,166.96 988.91,203.79 989.13,187.93 989.35,159.14 989.56,181.60 989.78,158.19 990.00,191.68 990.22,152.51 990.43,191.88 990.65,155.58 990.87,156.75 991.09,182.33 991.31,125.89 991.52,182.85 991.74,183.58 991.96,150.84 992.18,153.88 992.39,182.57 992.61,178.77 992.83,162.40 993.05,186.45 993.27,153.18 993.48,178.81 993.70,162.51 993.92,160.30 994.14,184.47 994.35,188.63 994.57,158.42 994.79,191.21 995.01,156.63 995.23,152.26 995.44,182.56 995.66,185.38 995.88,144.37 996.10,164.49 996.31,187.93 996.53,142.33 996.75,197.75 996.97,192.14 997.19,151.45 997.40,184.56 997.62,145.45 997.84,145.88 998.06,182.01 998.27,178.61 998.49,163.56 998.71,190.19 998.93,147.83 999.14,160.30 999.36,181.36 999.58,186.84 999.80,145.35 1000.02,147.42 1000.23,188.31 1000.45,158.88 1000.67,180.03 1000.89,187.22 1001.10,158.33 1001.32,158.68 1001.54,186.78 1001.76,183.65 1001.98,157.12 1002.19,197.67 1002.41,159.89 1002.63,164.68 1002.85,179.43 1003.06,177.67 1003.28,159.56 1003.50,161.74 1003.72,177.11 1003.94,162.81 1004.15,182.43 1004.37,161.70 1004.59,182.59 1004.81,158.39 1005.02,216.58 1005.24,158.11 1005.46,188.53 1005.68,150.46 1005.90,181.51 1006.11,148.32 1006.33,180.07 1006.55,155.78 1006.77,191.87 1006.98,153.52 1007.20,191.40 1007.42,163.25 1007.64,178.67 1007.86,152.83 1008.07,190.03 1008.29,163.91 1008.51,180.18 1008.73,155.91 1008.94,182.40 1009.16,159.72 1009.38,186.36 1009.60,153.73 1009.82,178.20 1010.03,178.52 1010.25,155.67 1010.47,188.43 1010.69,162.16 1010.90,178.32 1011.12,164.37 1011.34,176.27 1011.56,164.96 1011.78,174.11 1011.99,163.51 1012.21,177.32 1012.43,164.97 1012.65,157.16 1012.86,179.59 1013.08,141.34 1013.30,187.44 1013.52,156.92 1013.74,188.93 1013.95,182.81 1014.17,157.88 1014.39,154.08 1014.61,181.99 1014.82,181.01 1015.04,160.43 1015.26,180.56 1015.48,163.43 1015.70,161.81 1015.91,185.23 1016.13,159.14 1016.35,183.38 1016.57,157.36 1016.78,180.60 1017.00,156.03 1017.22,183.14 1017.44,160.24 1017.66,179.85 1017.87,180.19 1018.09,158.39 1018.31,187.14 1018.53,160.57 1018.74,176.52 1018.96,156.36 1019.18,173.59 1019.40,167.37 1019.62,163.43 1019.83,175.51 1020.05,190.62 1020.27,155.69 1020.49,180.05 1020.70,163.78 1020.92,183.79 1021.14,161.25 1021.36,161.94 1021.58,182.05 1021.79,77.67 1022.01,186.80 1022.23,164.82 1022.45,182.58 1022.66,161.23 1022.88,179.41 1023.10,186.64 1023.32,155.23 1023.54,162.71 1023.75,175.96 1023.97,182.36 1024.19,155.67 1024.41,176.34 1024.62,163.82 1024.84,190.22 1025.06,164.35 1025.28,180.40 1025.49,146.24 1025.71,164.21 1025.93,178.53 1026.15,161.99 1026.37,196.35 1026.58,162.40 1026.80,179.41 1027.02,176.13 1027.24,165.44 1027.45,160.68 1027.67,178.37 1027.89,166.13 1028.11,177.30 1028.33,161.27 1028.54,175.39 1028.76,180.89 1028.98,163.70 1029.20,194.53 1029.41,131.49 1029.63,179.88 1029.85,159.77 1030.07,161.79 1030.29,181.32 1030.50,150.22 1030.72,179.79 1030.94,182.25 1031.16,142.03 1031.37,178.16 1031.59,160.59 1031.81,162.09 1032.03,178.46 1032.25,156.90 1032.46,185.14 1032.68,190.08 1032.90,162.33 1033.12,157.90 1033.33,181.58 1033.55,164.42 1033.77,178.55 1033.99,181.87 1034.21,163.21 1034.42,177.47 1034.64,164.18 1034.86,173.13 1035.08,168.14 1035.29,173.75 1035.51,167.08 1035.73,165.63 1035.95,173.97 1036.17,167.58 1036.38,179.07 1036.60,175.26 1036.82,151.71 1037.04,177.48 1037.25,159.25 1037.47,177.75 1037.69,159.37 1037.91,181.23 1038.13,161.02 1038.34,179.10 1038.56,162.80 1038.78,162.87 1039.00,178.76 1039.21,179.77 1039.43,152.70 1039.65,145.51 1039.87,183.29 1040.09,153.94 1040.30,185.18 1040.52,180.95 1040.74,163.64 1040.96,164.06 1041.17,174.71 1041.39,141.10 1041.61,185.05 1041.83,160.47 1042.05,179.44 1042.26,177.13 1042.48,160.46 1042.70,162.47 1042.92,186.68 1043.13,174.67 1043.35,166.47 1043.57,175.47 1043.79,164.40 1044.01,160.52 1044.22,187.80 1044.44,174.79 1044.66,165.38 1044.88,179.97 1045.09,164.64 1045.31,191.67 1045.53,163.45 1045.75,150.63 1045.97,181.89 1046.18,179.09 1046.40,156.07 1046.62,159.60 1046.84,175.21 1047.05,160.03 1047.27,180.98 1047.49,185.15 1047.71,156.89 1047.93,179.67 1048.14,163.21 1048.36,161.76 1048.58,182.94 1048.80,160.44 1049.01,179.82 1049.23,205.64 1049.45,155.94 1049.67,179.06 1049.89,163.64 1050.10,155.61 1050.32,188.88 1050.54,185.94 1050.76,156.67 1050.97,165.16 1051.19,179.38 1051.41,179.83 1051.63,164.50 1051.85,166.51 1052.06,177.46 1052.28,175.84 1052.50,166.52 1052.72,161.77 1052.93,178.24 1053.15,188.38 1053.37,160.44 1053.59,155.23 1053.80,176.05 1054.02,182.77 1054.24,160.12 1054.46,175.58 1054.68,165.50 1054.89,160.62 1055.11,182.67 1055.33,159.53 1055.55,185.89 1055.76,177.39 1055.98,157.91 1056.20,161.93 1056.42,179.22 1056.64,179.74 1056.85,154.69 1057.07,166.09 1057.29,180.74 1057.51,183.23 1057.72,159.06 1057.94,163.12 1058.16,181.36 1058.38,178.42 1058.60,163.06 1058.81,177.42 1059.03,162.63 1059.25,174.70 1059.47,168.29 1059.68,166.85 1059.90,176.03 1060.12,173.18 1060.34,168.32 1060.56,159.86 1060.77,173.75 1060.99,166.62 1061.21,176.26 1061.43,152.24 1061.64,185.23 1061.86,164.68 1062.08,185.05 1062.30,163.18 1062.52,178.28 1062.73,178.65 1062.95,165.83 1063.17,176.77 1063.39,162.73 1063.60,176.20 1063.82,163.82 1064.04,157.53 1064.26,175.94 1064.48,163.68 1064.69,199.82 1064.91,163.40 1065.13,182.33 1065.35,162.84 1065.56,175.94 1065.78,165.57 1066.00,174.26" fill="none" stroke="#5f6b7a" stroke-width="1.25" stroke-linejoin="round" stroke-linecap="round"/>
<text transform="translate(18,215.0) rotate(-90)" text-anchor="middle" font-family="Arial, sans-serif" font-size="13" fill="#222222">r</text>
<line x1="88.00" y1="372.00" x2="88.00" y2="377.00" stroke="#222222" stroke-width="1"/>
<text x="88.00" y="394.00" text-anchor="middle" font-family="Arial, sans-serif" font-size="11" fill="#333333">2024-01-02</text>
<line x1="577.11" y1="372.00" x2="577.11" y2="377.00" stroke="#222222" stroke-width="1"/>
<text x="577.11" y="394.00" text-anchor="middle" font-family="Arial, sans-serif" font-size="11" fill="#333333">2025-03-02</text>
<line x1="1066.00" y1="372.00" x2="1066.00" y2="377.00" stroke="#222222" stroke-width="1"/>
<text x="1066.00" y="394.00" text-anchor="middle" font-family="Arial, sans-serif" font-size="11" fill="#333333">2026-04-30</text>
<text x="577.00" y="415.00" text-anchor="middle" font-family="Arial, sans-serif" font-size="13" fill="#222222">Tiempo</text>
</svg>