<svg xmlns="http://www.w3.org/2000/svg" width="980" height="460" viewBox="0 0 980 460">
<rect x="0" y="0" width="980" height="460" fill="#ffffff"/>
<text x="490.0" y="28" text-anchor="middle" font-family="Arial, sans-serif" font-size="18" font-weight="700">Referencia lineal: seleccion BIC de AR(p)</text>
<rect x="76" y="58" width="876.00" height="340.00" fill="none" stroke="#222222"/>
<line x1="76" y1="398.00" x2="952.00" y2="398.00" stroke="#e8e8e8"/>
<text x="68" y="402.00" text-anchor="end" font-family="Arial, sans-serif" font-size="11">-55.1</text>
<line x1="76" y1="313.00" x2="952.00" y2="313.00" stroke="#e8e8e8"/>
<text x="68" y="317.00" text-anchor="end" font-family="Arial, sans-serif" font-size="11">173</text>
<line x1="76" y1="228.00" x2="952.00" y2="228.00" stroke="#e8e8e8"/>
<text x="68" y="232.00" text-anchor="end" font-family="Arial, sans-serif" font-size="11">401</text>
<line x1="76" y1="143.00" x2="952.00" y2="143.00" stroke="#e8e8e8"/>
<text x="68" y="147.00" text-anchor="end" font-family="Arial, sans-serif" font-size="11">629</text>
<line x1="76" y1="58.00" x2="952.00" y2="58.00" stroke="#e8e8e8"/>
<text x="68" y="62.00" text-anchor="end" font-family="Arial, sans-serif" font-size="11">857</text>
<polyline points="76.00,374.55 84.76,371.28 93.52,368.42 102.28,365.22 111.04,362.01 119.80,359.26 128.56,355.99 137.32,353.30 146.08,350.22 154.84,346.96 163.60,343.76 172.36,340.63 181.12,339.03 189.88,335.86 198.64,332.73 207.40,329.47 216.16,326.20 224.92,322.92 233.68,319.91 242.44,316.73 251.20,313.56 259.96,310.29 268.72,308.77 277.48,305.51 286.24,302.23 295.00,299.07 303.76,296.10 312.52,292.93 321.28,290.88 330.04,287.89 338.80,285.10 347.56,281.93 356.32,279.26 365.08,276.19 373.84,272.95 382.60,269.69 391.36,266.42 400.12,263.17 408.88,259.92 417.64,256.74 426.40,254.72 435.16,251.66 443.92,249.50 452.68,246.27 461.44,244.49 470.20,241.21 478.96,238.01 487.72,235.45 496.48,233.55 505.24,230.44 514.00,229.01 522.76,225.81 531.52,223.04 540.28,220.49 549.04,217.66 557.80,214.39 566.56,211.40 575.32,208.12 584.08,206.07 592.84,202.79 601.60,199.51 610.36,196.36 619.12,193.26 627.88,189.99 636.64,187.14 645.40,184.06 654.16,180.88 662.92,177.61 671.68,174.39 680.44,171.12 689.20,167.98 697.96,164.73 706.72,161.45 715.48,159.16 724.24,155.91 733.00,152.66 741.76,149.40 750.52,146.19 759.28,143.07 768.04,140.36 776.80,137.17 785.56,133.93 794.32,130.78 803.08,128.24 811.84,125.17 820.60,122.55 829.36,119.36 838.12,116.22 846.88,113.50 855.64,110.23 864.40,109.92 873.16,106.84 881.92,104.24 890.68,100.97 899.44,98.19 908.20,95.07 916.96,91.80 925.72,88.56 934.48,86.90 943.24,84.46 952.00,81.45" fill="none" stroke="#2a6fbb" stroke-width="2"/>
<line x1="76.00" y1="58" x2="76.00" y2="398.00" stroke="#2a6fbb" stroke-width="1" stroke-dasharray="4,4"/>
<polyline points="76.00,374.55 84.76,371.28 93.52,368.41 102.28,365.20 111.04,361.99 119.80,359.24 128.56,355.96 137.32,353.27 146.08,350.19 154.84,346.93 163.60,343.73 172.36,340.60 181.12,339.04 189.88,335.88 198.64,332.75 207.40,329.49 216.16,326.21 224.92,322.94 233.68,319.94 242.44,316.75 251.20,313.59 259.96,310.32 268.72,308.81 277.48,305.54 286.24,302.26 295.00,299.10 303.76,296.14 312.52,292.97 321.28,290.91 330.04,287.91 338.80,285.13 347.56,281.96 356.32,279.26 365.08,276.19 373.84,272.94 382.60,269.69 391.36,266.41 400.12,263.18 408.88,259.93 417.64,256.74 426.40,254.73 435.16,251.68 443.92,249.49 452.68,246.25 461.44,244.48 470.20,241.20 478.96,237.99 487.72,235.43 496.48,233.53 505.24,230.44 514.00,229.04 522.76,225.85 531.52,223.09 540.28,220.54 549.04,217.73 557.80,214.46 566.56,211.43 575.32,208.16 584.08,206.12 592.84,202.85 601.60,199.57 610.36,196.42 619.12,193.33 627.88,190.06 636.64,187.19 645.40,184.11 654.16,180.93 662.92,177.65 671.68,174.44 680.44,171.16 689.20,168.03 697.96,164.77 706.72,161.50 715.48,159.22 724.24,155.97 733.00,152.72 741.76,149.46 750.52,146.24 759.28,143.12 768.04,140.42 776.80,137.21 785.56,133.98 794.32,130.84 803.08,128.31 811.84,125.25 820.60,122.62 829.36,119.44 838.12,116.30 846.88,113.59 855.64,110.32 864.40,109.98 873.16,106.90 881.92,104.31 890.68,101.05 899.44,98.29 908.20,95.16 916.96,91.89 925.72,88.65 934.48,86.95 943.24,84.49 952.00,81.47" fill="none" stroke="#6b8e23" stroke-width="2"/>
<line x1="76.00" y1="58" x2="76.00" y2="398.00" stroke="#6b8e23" stroke-width="1" stroke-dasharray="4,4"/>
<polyline points="76.00,374.55 84.76,371.28 93.52,368.51 102.28,365.31 111.04,362.13 119.80,359.37 128.56,356.10 137.32,353.33 146.08,350.19 154.84,346.92 163.60,343.74 172.36,340.61 181.12,339.18 189.88,336.06 198.64,332.92 207.40,329.66 216.16,326.38 224.92,323.11 233.68,320.06 242.44,316.86 251.20,313.69 259.96,310.44 268.72,308.93 277.48,305.67 286.24,302.39 295.00,299.18 303.76,296.20 312.52,293.04 321.28,291.03 330.04,288.05 338.80,285.28 347.56,282.11 356.32,279.36 365.08,276.28 373.84,273.04 382.60,269.82 391.36,266.55 400.12,263.32 408.88,260.08 417.64,256.88 426.40,254.92 435.16,251.85 443.92,249.70 452.68,246.46 461.44,244.95 470.20,241.67 478.96,238.44 487.72,235.88 496.48,233.88 505.24,230.73 514.00,229.23 522.76,226.04 531.52,223.39 540.28,220.80 549.04,217.97 557.80,214.69 566.56,211.75 575.32,208.48 584.08,206.31 592.84,203.04 601.60,199.77 610.36,196.61 619.12,193.49 627.88,190.22 636.64,187.32 645.40,184.21 654.16,181.02 662.92,177.75 671.68,174.54 680.44,171.27 689.20,168.13 697.96,164.88 706.72,161.61 715.48,159.33 724.24,156.07 733.00,152.81 741.76,149.59 750.52,146.41 759.28,143.29 768.04,140.61 776.80,137.40 785.56,134.15 794.32,131.00 803.08,128.46 811.84,125.43 820.60,122.74 829.36,119.57 838.12,116.45 846.88,113.70 855.64,110.43 864.40,110.21 873.16,107.08 881.92,104.47 890.68,101.21 899.44,98.48 908.20,95.42 916.96,92.14 925.72,88.90 934.48,87.17 943.24,84.67 952.00,81.65" fill="none" stroke="#b45f06" stroke-width="2"/>
<line x1="76.00" y1="58" x2="76.00" y2="398.00" stroke="#b45f06" stroke-width="1" stroke-dasharray="4,4"/>
<g><circle cx="730.00" cy="28.00" r="4" fill="#2a6fbb"/><text x="740.00" y="32.00" font-family="Arial, sans-serif" font-size="12">logistic_clean</text></g>
<g><circle cx="730.00" cy="46.00" r="4" fill="#6b8e23"/><text x="740.00" y="50.00" font-family="Arial, sans-serif" font-size="12">logistic_noise_small</text></g>
<g><circle cx="730.00" cy="64.00" r="4" fill="#b45f06"/><text x="740.00" y="68.00" font-family="Arial, sans-serif" font-size="12">logistic_noise_moderate</text></g>
<line x1="76.00" y1="58" x2="76.00" y2="398.00" stroke="#f0f0f0"/>
<line x1="76.00" y1="398.00" x2="76.00" y2="403.00" stroke="#222222"/>
<text x="76.00" y="416.00" text-anchor="middle" font-family="Arial, sans-serif" font-size="10">0</text>
<line x1="251.20" y1="58" x2="251.20" y2="398.00" stroke="#f0f0f0"/>
<line x1="251.20" y1="398.00" x2="251.20" y2="403.00" stroke="#222222"/>
<text x="251.20" y="416.00" text-anchor="middle" font-family="Arial, sans-serif" font-size="10">20</text>
<line x1="426.40" y1="58" x2="426.40" y2="398.00" stroke="#f0f0f0"/>
<line x1="426.40" y1="398.00" x2="426.40" y2="403.00" stroke="#222222"/>
<text x="426.40" y="416.00" text-anchor="middle" font-family="Arial, sans-serif" font-size="10">40</text>
<line x1="601.60" y1="58" x2="601.60" y2="398.00" stroke="#f0f0f0"/>
<line x1="601.60" y1="398.00" x2="601.60" y2="403.00" stroke="#222222"/>
<text x="601.60" y="416.00" text-anchor="middle" font-family="Arial, sans-serif" font-size="10">60</text>
<line x1="776.80" y1="58" x2="776.80" y2="398.00" stroke="#f0f0f0"/>
<line x1="776.80" y1="398.00" x2="776.80" y2="403.00" stroke="#222222"/>
<text x="776.80" y="416.00" text-anchor="middle" font-family="Arial, sans-serif" font-size="10">80</text>
<line x1="952.00" y1="58" x2="952.00" y2="398.00" stroke="#f0f0f0"/>
<line x1="952.00" y1="398.00" x2="952.00" y2="403.00" stroke="#222222"/>
<text x="952.00" y="416.00" text-anchor="middle" font-family="Arial, sans-serif" font-size="10">100</text>
<text x="514.00" y="450" text-anchor="middle" font-family="Arial, sans-serif" font-size="13">p</text>
<text transform="translate(18,228.0) rotate(-90)" text-anchor="middle" font-family="Arial, sans-serif" font-size="13">BIC</text>
</svg>