<svg xmlns="http://www.w3.org/2000/svg" width="760" height="460" viewBox="0 0 760 460">
<rect x="0" y="0" width="760" height="460" fill="#ffffff"/>
<text x="380.0" y="28" text-anchor="middle" font-family="Arial, sans-serif" font-size="18" font-weight="700">Fase 14: coeficientes HAR-logRV</text>
<rect x="84" y="58" width="648.00" height="302.00" fill="none" stroke="#222222"/>
<line x1="84" y1="360.00" x2="732.00" y2="360.00" stroke="#e8e8e8"/>
<text x="76" y="364.00" text-anchor="end" font-family="Arial, sans-serif" font-size="11">-0.0534</text>
<line x1="84" y1="284.50" x2="732.00" y2="284.50" stroke="#e8e8e8"/>
<text x="76" y="288.50" text-anchor="end" font-family="Arial, sans-serif" font-size="11">0.0846</text>
<line x1="84" y1="209.00" x2="732.00" y2="209.00" stroke="#e8e8e8"/>
<text x="76" y="213.00" text-anchor="end" font-family="Arial, sans-serif" font-size="11">0.223</text>
<line x1="84" y1="133.50" x2="732.00" y2="133.50" stroke="#e8e8e8"/>
<text x="76" y="137.50" text-anchor="end" font-family="Arial, sans-serif" font-size="11">0.361</text>
<line x1="84" y1="58.00" x2="732.00" y2="58.00" stroke="#e8e8e8"/>
<text x="76" y="62.00" text-anchor="end" font-family="Arial, sans-serif" font-size="11">0.499</text>
<line x1="84" y1="330.77" x2="732.00" y2="330.77" stroke="#333333" stroke-width="1.2"/>
<rect x="146.64" y="87.23" width="90.72" height="243.55" fill="#2a6fbb" opacity="0.78"/>
<text x="192.00" y="406" text-anchor="end" transform="rotate(-26 192.00,406)" font-family="Arial, sans-serif" font-size="11">log_rv_past_12</text>
<rect x="362.64" y="203.08" width="90.72" height="127.69" fill="#2a6fbb" opacity="0.78"/>
<text x="408.00" y="406" text-anchor="end" transform="rotate(-26 408.00,406)" font-family="Arial, sans-serif" font-size="11">log_rv_past_48</text>
<rect x="578.64" y="221.40" width="90.72" height="109.37" fill="#2a6fbb" opacity="0.78"/>
<text x="624.00" y="406" text-anchor="end" transform="rotate(-26 624.00,406)" font-family="Arial, sans-serif" font-size="11">log_rv_past_288</text>
<text x="408.00" y="450" text-anchor="middle" font-family="Arial, sans-serif" font-size="13">feature</text>
<text transform="translate(18,209.0) rotate(-90)" text-anchor="middle" font-family="Arial, sans-serif" font-size="13">coeficiente</text>
</svg>