<svg xmlns="http://www.w3.org/2000/svg" width="1040" height="430" viewBox="0 0 1040 430">
<rect x="0" y="0" width="1040" height="430" fill="#ffffff"/>
<text x="520.0" y="28" text-anchor="middle" font-family="Arial, sans-serif" font-size="18" font-weight="700">Metodo de Cao</text>
<rect x="78" y="58" width="924.00" height="314.00" fill="none" stroke="#222222" stroke-width="1"/>
<line x1="78" y1="372.00" x2="1002.00" y2="372.00" stroke="#e8e8e8" stroke-width="1"/>
<text x="70" y="376.00" text-anchor="end" font-family="Arial, sans-serif" font-size="11">0</text>
<line x1="78" y1="293.50" x2="1002.00" y2="293.50" stroke="#e8e8e8" stroke-width="1"/>
<text x="70" y="297.50" text-anchor="end" font-family="Arial, sans-serif" font-size="11">0.275</text>
<line x1="78" y1="215.00" x2="1002.00" y2="215.00" stroke="#e8e8e8" stroke-width="1"/>
<text x="70" y="219.00" text-anchor="end" font-family="Arial, sans-serif" font-size="11">0.55</text>
<line x1="78" y1="136.50" x2="1002.00" y2="136.50" stroke="#e8e8e8" stroke-width="1"/>
<text x="70" y="140.50" text-anchor="end" font-family="Arial, sans-serif" font-size="11">0.825</text>
<line x1="78" y1="58.00" x2="1002.00" y2="58.00" stroke="#e8e8e8" stroke-width="1"/>
<text x="70" y="62.00" text-anchor="end" font-family="Arial, sans-serif" font-size="11">1.1</text>
<line x1="474.00" y1="58" x2="474.00" y2="372.00" stroke="#8a2222" stroke-width="1" stroke-dasharray="5,4"/>
<text x="478.00" y="73" font-family="Arial, sans-serif" font-size="11" fill="#8a2222">m elegida = 7</text>
<polyline points="78.00,370.38 144.00,319.40 210.00,245.83 276.00,183.58 342.00,159.09 408.00,133.33 474.00,109.13 540.00,111.92 606.00,102.81 672.00,95.36 738.00,92.95 804.00,99.09 870.00,91.77 936.00,89.21 1002.00,92.10" fill="none" stroke="#5f6b7a" stroke-width="2" stroke-linejoin="round" stroke-linecap="round"/>
<circle cx="78.00" cy="370.38" r="2.2" fill="#5f6b7a" opacity="0.85"/>
<circle cx="144.00" cy="319.40" r="2.2" fill="#5f6b7a" opacity="0.85"/>
<circle cx="210.00" cy="245.83" r="2.2" fill="#5f6b7a" opacity="0.85"/>
<circle cx="276.00" cy="183.58" r="2.2" fill="#5f6b7a" opacity="0.85"/>
<circle cx="342.00" cy="159.09" r="2.2" fill="#5f6b7a" opacity="0.85"/>
<circle cx="408.00" cy="133.33" r="2.2" fill="#5f6b7a" opacity="0.85"/>
<circle cx="474.00" cy="109.13" r="2.2" fill="#5f6b7a" opacity="0.85"/>
<circle cx="540.00" cy="111.92" r="2.2" fill="#5f6b7a" opacity="0.85"/>
<circle cx="606.00" cy="102.81" r="2.2" fill="#5f6b7a" opacity="0.85"/>
<circle cx="672.00" cy="95.36" r="2.2" fill="#5f6b7a" opacity="0.85"/>
<circle cx="738.00" cy="92.95" r="2.2" fill="#5f6b7a" opacity="0.85"/>
<circle cx="804.00" cy="99.09" r="2.2" fill="#5f6b7a" opacity="0.85"/>
<circle cx="870.00" cy="91.77" r="2.2" fill="#5f6b7a" opacity="0.85"/>
<circle cx="936.00" cy="89.21" r="2.2" fill="#5f6b7a" opacity="0.85"/>
<circle cx="1002.00" cy="92.10" r="2.2" fill="#5f6b7a" opacity="0.85"/>
<polyline points="78.00,98.62 144.00,83.90 210.00,97.54 276.00,82.47 342.00,91.05 408.00,92.65 474.00,73.30 540.00,96.18 606.00,88.96 672.00,79.28 738.00,78.81 804.00,101.31 870.00,84.50 936.00,81.61 1002.00,96.20" fill="none" stroke="#b45f06" stroke-width="2" stroke-linejoin="round" stroke-linecap="round"/>
<circle cx="78.00" cy="98.62" r="2.2" fill="#b45f06" opacity="0.85"/>
<circle cx="144.00" cy="83.90" r="2.2" fill="#b45f06" opacity="0.85"/>
<circle cx="210.00" cy="97.54" r="2.2" fill="#b45f06" opacity="0.85"/>
<circle cx="276.00" cy="82.47" r="2.2" fill="#b45f06" opacity="0.85"/>
<circle cx="342.00" cy="91.05" r="2.2" fill="#b45f06" opacity="0.85"/>
<circle cx="408.00" cy="92.65" r="2.2" fill="#b45f06" opacity="0.85"/>
<circle cx="474.00" cy="73.30" r="2.2" fill="#b45f06" opacity="0.85"/>
<circle cx="540.00" cy="96.18" r="2.2" fill="#b45f06" opacity="0.85"/>
<circle cx="606.00" cy="88.96" r="2.2" fill="#b45f06" opacity="0.85"/>
<circle cx="672.00" cy="79.28" r="2.2" fill="#b45f06" opacity="0.85"/>
<circle cx="738.00" cy="78.81" r="2.2" fill="#b45f06" opacity="0.85"/>
<circle cx="804.00" cy="101.31" r="2.2" fill="#b45f06" opacity="0.85"/>
<circle cx="870.00" cy="84.50" r="2.2" fill="#b45f06" opacity="0.85"/>
<circle cx="936.00" cy="81.61" r="2.2" fill="#b45f06" opacity="0.85"/>
<circle cx="1002.00" cy="96.20" r="2.2" fill="#b45f06" opacity="0.85"/>
<text x="78.00" y="400" text-anchor="middle" font-family="Arial, sans-serif" font-size="11">1</text>
<text x="144.00" y="400" text-anchor="middle" font-family="Arial, sans-serif" font-size="11">2</text>
<text x="210.00" y="400" text-anchor="middle" font-family="Arial, sans-serif" font-size="11">3</text>
<text x="276.00" y="400" text-anchor="middle" font-family="Arial, sans-serif" font-size="11">4</text>
<text x="342.00" y="400" text-anchor="middle" font-family="Arial, sans-serif" font-size="11">5</text>
<text x="408.00" y="400" text-anchor="middle" font-family="Arial, sans-serif" font-size="11">6</text>
<text x="474.00" y="400" text-anchor="middle" font-family="Arial, sans-serif" font-size="11">7</text>
<text x="540.00" y="400" text-anchor="middle" font-family="Arial, sans-serif" font-size="11">8</text>
<text x="606.00" y="400" text-anchor="middle" font-family="Arial, sans-serif" font-size="11">9</text>
<text x="672.00" y="400" text-anchor="middle" font-family="Arial, sans-serif" font-size="11">10</text>
<text x="738.00" y="400" text-anchor="middle" font-family="Arial, sans-serif" font-size="11">11</text>
<text x="804.00" y="400" text-anchor="middle" font-family="Arial, sans-serif" font-size="11">12</text>
<text x="870.00" y="400" text-anchor="middle" font-family="Arial, sans-serif" font-size="11">13</text>
<text x="936.00" y="400" text-anchor="middle" font-family="Arial, sans-serif" font-size="11">14</text>
<text x="1002.00" y="400" text-anchor="middle" font-family="Arial, sans-serif" font-size="11">15</text>
<text x="540.00" y="420" text-anchor="middle" font-family="Arial, sans-serif" font-size="13">dimension m</text>
<text transform="translate(18,215.0) rotate(-90)" text-anchor="middle" font-family="Arial, sans-serif" font-size="13">valor</text>
<g><circle cx="855.00" cy="28.00" r="4" fill="#5f6b7a"/><text x="865.00" y="32.00" font-family="Arial, sans-serif" font-size="12">E1</text></g>
<g><circle cx="855.00" cy="46.00" r="4" fill="#b45f06"/><text x="865.00" y="50.00" font-family="Arial, sans-serif" font-size="12">E2</text></g>
</svg>