<svg xmlns="http://www.w3.org/2000/svg" width="1120" height="520" viewBox="0 0 1120 520">
<rect x="0" y="0" width="1120" height="520" fill="#ffffff"/>
<text x="560.0" y="28" text-anchor="middle" font-family="Arial, sans-serif" font-size="18" font-weight="700">Ejemplos de serie original y subrogadas</text>
<line x1="96" y1="144.00" x2="1090.00" y2="144.00" stroke="#eeeeee"/>
<text x="88" y="148.00" text-anchor="end" font-family="Arial, sans-serif" font-size="10">-3.13</text>
<line x1="96" y1="101.00" x2="1090.00" y2="101.00" stroke="#eeeeee"/>
<text x="88" y="105.00" text-anchor="end" font-family="Arial, sans-serif" font-size="10">-0.107</text>
<line x1="96" y1="58.00" x2="1090.00" y2="58.00" stroke="#eeeeee"/>
<text x="88" y="62.00" text-anchor="end" font-family="Arial, sans-serif" font-size="10">2.91</text>
<text x="86" y="105.00" text-anchor="end" font-family="Arial, sans-serif" font-size="12">original</text>
<polyline points="96.00,83.13 97.95,83.46 99.89,85.02 101.84,83.96 103.78,84.69 105.73,83.88 107.67,92.86 109.62,92.85 111.56,90.89 113.51,90.69 115.45,91.54 117.40,91.71 119.34,93.64 121.29,95.17 123.23,94.70 125.18,97.38 127.12,97.79 129.07,97.32 131.01,95.12 132.96,94.76 134.90,97.12 136.85,89.29 138.79,89.22 140.74,89.16 142.68,89.20 144.63,89.44 146.58,89.77 148.52,89.81 150.47,88.87 152.41,90.18 154.36,92.40 156.30,92.55 158.25,93.04 160.19,105.09 162.14,105.23 164.08,105.17 166.03,105.02 167.97,101.76 169.92,101.48 171.86,101.56 173.81,104.08 175.75,104.46 177.70,104.47 179.64,100.91 181.59,101.21 183.53,102.32 185.48,102.14 187.42,102.24 189.37,101.82 191.32,105.59 193.26,105.15 195.21,105.54 197.15,102.98 199.10,102.88 201.04,104.05 202.99,105.21 204.93,104.62 206.88,104.63 208.82,104.19 210.77,103.37 212.71,103.47 214.66,102.27 216.60,100.80 218.55,100.72 220.49,102.86 222.44,103.06 224.38,102.94 226.33,106.22 228.27,106.72 230.22,105.47 232.16,106.47 234.11,104.74 236.05,104.87 238.00,100.27 239.95,94.63 241.89,92.34 243.84,90.34 245.78,90.40 247.73,90.05 249.67,89.82 251.62,89.79 253.56,90.06 255.51,89.79 257.45,90.47 259.40,89.56 261.34,91.35 263.29,97.14 265.23,100.84 267.18,107.26 269.12,106.93 271.07,107.07 273.01,103.75 274.96,104.32 276.90,104.35 278.85,105.02 280.79,103.49 282.74,102.50 284.68,101.09 286.63,99.01 288.58,98.99 290.52,99.09 292.47,98.84 294.41,99.63 296.36,102.12 298.30,101.70 300.25,101.82 302.19,102.02 304.14,103.54 306.08,108.26 308.03,112.52 309.97,119.65 311.92,119.16 313.86,119.78 315.81,117.76 317.75,117.22 319.70,119.17 321.64,120.46 323.59,118.81 325.53,118.53 327.48,118.75 329.42,119.74 331.37,119.70 333.32,118.01 335.26,118.54 337.21,117.90 339.15,122.54 341.10,122.17 343.04,122.10 344.99,123.67 346.93,122.35 348.88,111.55 350.82,109.83 352.77,109.92 354.71,107.02 356.66,91.86 358.60,90.21 360.55,89.09 362.49,89.07 364.44,88.88 366.38,88.82 368.33,88.68 370.27,88.70 372.22,89.72 374.16,89.94 376.11,89.80 378.05,90.34 380.00,102.86 381.95,108.40 383.89,115.79 385.84,109.72 387.78,111.31 389.73,111.80 391.67,111.40 393.62,112.15 395.56,110.55 397.51,109.69 399.45,110.38 401.40,110.91 403.34,111.19 405.29,111.19 407.23,103.42 409.18,103.30 411.12,103.05 413.07,102.59 415.01,102.31 416.96,102.53 418.90,103.40 420.85,103.23 422.79,101.66 424.74,100.12 426.68,99.64 428.63,99.65 430.58,103.67 432.52,97.49 434.47,93.44 436.41,93.51 438.36,93.94 440.30,93.85 442.25,93.83 444.19,92.84 446.14,93.13 448.08,93.16 450.03,91.09 451.97,90.69 453.92,90.82 455.86,93.94 457.81,98.39 459.75,97.13 461.70,97.10 463.64,97.20 465.59,96.27 467.53,98.29 469.48,98.98 471.42,100.41 473.37,103.53 475.32,104.31 477.26,104.33 479.21,103.05 481.15,102.24 483.10,104.30 485.04,103.95 486.99,103.85 488.93,106.03 490.88,105.39 492.82,105.21 494.77,104.90 496.71,106.78 498.66,106.91 500.60,105.89 502.55,109.35 504.49,101.27 506.44,100.45 508.38,99.33 510.33,99.35 512.27,98.88 514.22,99.24 516.16,94.51 518.11,94.59 520.05,94.25 522.00,94.33 523.95,94.75 525.89,95.51 527.84,98.25 529.78,98.41 531.73,97.66 533.67,96.22 535.62,92.42 537.56,92.42 539.51,94.26 541.45,94.09 543.40,94.47 545.34,93.96 547.29,90.59 549.23,88.37 551.18,77.10 553.12,75.67 555.07,74.12 557.01,74.34 558.96,73.67 560.90,72.95 562.85,73.25 564.79,72.15 566.74,72.10 568.68,72.18 570.63,69.12 572.58,69.00 574.52,72.84 576.47,72.85 578.41,74.14 580.36,74.14 582.30,74.88 584.25,75.68 586.19,75.41 588.14,76.80 590.08,75.38 592.03,75.33 593.97,82.46 595.92,83.95 597.86,85.12 599.81,83.25 601.75,84.05 603.70,83.49 605.64,83.56 607.59,82.53 609.53,82.53 611.48,82.62 613.42,85.63 615.37,85.52 617.32,84.84 619.26,85.06 621.21,86.16 623.15,93.82 625.10,91.28 627.04,92.00 628.99,93.77 630.93,95.25 632.88,95.83 634.82,95.60 636.77,94.97 638.71,95.51 640.66,97.50 642.60,96.69 644.55,94.29 646.49,94.27 648.44,95.74 650.38,96.13 652.33,97.76 654.27,99.72 656.22,98.47 658.16,94.06 660.11,91.33 662.05,91.31 664.00,91.31 665.95,90.66 667.89,92.51 669.84,89.92 671.78,88.38 673.73,87.80 675.67,87.74 677.62,87.55 679.56,86.02 681.51,78.36 683.45,74.00 685.40,73.40 687.34,73.06 689.29,73.20 691.23,73.17 693.18,73.02 695.12,73.70 697.07,73.85 699.01,73.70 700.96,72.44 702.90,73.14 704.85,78.11 706.79,86.65 708.74,88.37 710.68,89.27 712.63,89.06 714.58,89.18 716.52,92.18 718.47,91.99 720.41,92.12 722.36,93.33 724.30,102.86 726.25,103.74 728.19,108.72 730.14,104.56 732.08,103.39 734.03,96.78 735.97,97.18 737.92,97.18 739.86,97.01 741.81,97.03 743.75,97.00 745.70,96.44 747.64,97.27 749.59,96.81 751.53,96.73 753.48,98.95 755.42,99.85 757.37,107.68 759.32,107.70 761.26,107.65 763.21,107.01 765.15,107.49 767.10,107.20 769.04,107.88 770.99,107.48 772.93,108.12 774.88,105.25 776.82,105.25 778.77,105.89 780.71,109.06 782.66,101.06 784.60,101.06 786.55,101.17 788.49,100.99 790.44,101.06 792.38,99.61 794.33,99.79 796.27,96.75 798.22,95.08 800.16,94.92 802.11,94.78 804.05,92.78 806.00,91.69 807.95,86.06 809.89,85.95 811.84,86.00 813.78,85.74 815.73,86.18 817.67,86.03 819.62,86.19 821.56,85.37 823.51,85.45 825.45,85.41 827.40,86.44 829.34,89.68 831.29,96.88 833.23,97.78 835.18,97.39 837.12,98.32 839.07,98.43 841.01,98.21 842.96,101.40 844.90,113.00 846.85,113.13 848.79,104.34 850.74,90.67 852.68,89.17 854.63,89.13 856.58,88.41 858.52,88.57 860.47,87.93 862.41,87.86 864.36,88.10 866.30,86.10 868.25,84.01 870.19,83.95 872.14,85.20 874.08,91.94 876.03,93.74 877.97,94.05 879.92,94.87 881.86,94.99 883.81,96.15 885.75,92.93 887.70,93.00 889.64,96.82 891.59,103.19 893.53,103.51 895.48,103.39 897.42,101.90 899.37,102.15 901.32,103.62 903.26,102.76 905.21,102.76 907.15,102.28 909.10,112.09 911.04,110.43 912.99,106.60 914.93,108.60 916.88,107.68 918.82,108.04 920.77,110.60 922.71,108.86 924.66,108.87 926.60,111.35 928.55,111.25 930.49,111.64 932.44,111.58 934.38,113.19 936.33,119.80 938.27,119.32 940.22,108.46 942.16,108.05 944.11,107.59 946.05,109.31 948.00,108.95 949.95,107.22 951.89,105.60 953.84,104.05 955.78,103.94 957.73,103.82 959.67,104.13 961.62,104.16 963.56,111.67 965.51,112.09 967.45,107.48 969.40,104.77 971.34,103.99 973.29,104.64 975.23,106.11 977.18,105.06 979.12,104.82 981.07,104.99 983.01,104.85 984.96,104.85 986.90,104.11 988.85,104.29 990.79,104.67 992.74,105.20 994.68,106.11 996.63,105.75 998.58,103.83 1000.52,104.91 1002.47,104.24 1004.41,104.29 1006.36,104.40 1008.30,104.19 1010.25,99.89 1012.19,97.51 1014.14,96.77 1016.08,97.60 1018.03,88.98 1019.97,89.18 1021.92,89.59 1023.86,89.68 1025.81,89.28 1027.75,87.81 1029.70,87.63 1031.64,87.70 1033.59,89.13 1035.53,90.11 1037.48,91.11 1039.42,91.20 1041.37,102.92 1043.32,100.88 1045.26,101.26 1047.21,102.22 1049.15,104.12 1051.10,110.97 1053.04,112.09 1054.99,112.09 1056.93,111.30 1058.88,111.91 1060.82,112.98 1062.77,110.28 1064.71,107.57 1066.66,112.00 1068.60,103.87 1070.55,103.40 1072.49,102.10 1074.44,102.25 1076.38,102.13 1078.33,102.17 1080.27,100.82 1082.22,100.94 1084.16,98.05 1086.11,91.90 1088.05,92.57 1090.00,91.30" fill="none" stroke="#5f6b7a" stroke-width="1.2"/>
<line x1="96" y1="242.00" x2="1090.00" y2="242.00" stroke="#eeeeee"/>
<text x="88" y="246.00" text-anchor="end" font-family="Arial, sans-serif" font-size="10">-3.13</text>
<line x1="96" y1="199.00" x2="1090.00" y2="199.00" stroke="#eeeeee"/>
<text x="88" y="203.00" text-anchor="end" font-family="Arial, sans-serif" font-size="10">-0.107</text>
<line x1="96" y1="156.00" x2="1090.00" y2="156.00" stroke="#eeeeee"/>
<text x="88" y="160.00" text-anchor="end" font-family="Arial, sans-serif" font-size="10">2.91</text>
<text x="86" y="203.00" text-anchor="end" font-family="Arial, sans-serif" font-size="12">barajada</text>
<polyline points="96.00,192.50 97.95,194.82 99.89,196.99 101.84,209.80 103.78,207.76 105.73,203.94 107.67,181.89 109.62,173.29 111.56,203.28 113.51,211.05 115.45,212.33 117.40,230.53 119.34,195.48 121.29,203.68 123.23,187.56 125.18,207.24 127.12,204.29 129.07,228.41 131.01,201.44 132.96,206.72 134.90,207.69 136.85,201.35 138.79,192.29 140.74,191.01 142.68,205.21 144.63,197.99 146.58,199.78 148.52,187.21 150.47,180.08 152.41,200.33 154.36,204.54 156.30,193.95 158.25,192.51 160.19,205.54 162.14,205.50 164.08,182.24 166.03,188.26 167.97,202.46 169.92,179.70 171.86,207.24 173.81,194.04 175.75,196.99 177.70,195.57 179.64,196.29 181.59,192.56 183.53,196.04 185.48,191.27 187.42,203.80 189.37,191.58 191.32,211.95 193.26,189.33 195.21,211.46 197.15,200.34 199.10,197.48 201.04,212.27 202.99,191.94 204.93,190.05 206.88,192.17 208.82,198.48 210.77,190.34 212.71,202.47 214.66,208.27 216.60,206.25 218.55,185.25 220.49,202.94 222.44,213.97 224.38,197.41 226.33,224.25 228.27,192.72 230.22,214.42 232.16,221.47 234.11,215.83 236.05,227.61 238.00,195.02 239.95,206.60 241.89,224.81 243.84,195.79 245.78,207.24 247.73,188.40 249.67,202.89 251.62,213.97 253.56,193.32 255.51,191.78 257.45,209.00 259.40,188.03 261.34,202.56 263.29,203.95 265.23,193.64 267.18,191.17 269.12,206.14 271.07,214.57 273.01,207.82 274.96,210.71 276.90,204.76 278.85,216.43 280.79,170.12 282.74,221.94 284.68,197.26 286.63,196.72 288.58,189.55 290.52,171.06 292.47,215.63 294.41,196.06 296.36,188.50 298.30,195.68 300.25,196.92 302.19,199.28 304.14,222.71 306.08,204.29 308.03,207.25 309.97,220.31 311.92,187.83 313.86,185.06 315.81,206.83 317.75,219.08 319.70,202.48 321.64,219.90 323.59,190.68 325.53,185.26 327.48,216.31 329.42,194.30 331.37,204.18 333.32,209.70 335.26,216.77 337.21,188.88 339.15,215.09 341.10,196.43 343.04,176.20 344.99,203.60 346.93,193.88 348.88,193.14 350.82,207.24 352.77,223.21 354.71,183.02 356.66,195.23 358.60,205.91 360.55,200.94 362.49,205.53 364.44,187.44 366.38,183.99 368.33,190.53 370.27,216.02 372.22,217.65 374.16,205.62 376.11,219.00 378.05,216.14 380.00,217.05 381.95,183.18 383.89,218.37 385.84,192.59 387.78,203.60 389.73,213.65 391.67,218.35 393.62,212.87 395.56,192.72 397.51,187.08 399.45,209.51 401.40,190.62 403.34,205.35 405.29,212.91 407.23,207.63 409.18,201.92 411.12,208.01 413.07,216.54 415.01,197.55 416.96,201.01 418.90,205.70 420.85,226.87 422.79,200.26 424.74,208.11 426.68,197.16 428.63,235.98 430.58,208.38 432.52,213.61 434.47,198.99 436.41,229.97 438.36,200.59 440.30,215.44 442.25,209.23 444.19,190.67 446.14,184.65 448.08,202.99 450.03,198.18 451.97,192.74 453.92,198.36 455.86,187.07 457.81,177.65 459.75,198.74 461.70,209.71 463.64,191.96 465.59,219.66 467.53,201.54 469.48,214.94 471.42,215.03 473.37,193.39 475.32,211.75 477.26,212.96 479.21,210.40 481.15,187.40 483.10,193.28 485.04,220.15 486.99,179.37 488.93,206.82 490.88,197.21 492.82,190.42 494.77,202.39 496.71,210.09 498.66,197.22 500.60,194.63 502.55,189.99 504.49,203.77 506.44,206.11 508.38,194.71 510.33,191.90 512.27,187.04 514.22,212.08 516.16,177.25 518.11,181.72 520.05,183.98 522.00,199.42 523.95,200.36 525.89,194.20 527.84,195.49 529.78,208.73 531.73,216.51 533.67,191.83 535.62,184.45 537.56,205.51 539.51,196.76 541.45,188.10 543.40,208.31 545.34,189.07 547.29,197.53 549.23,193.79 551.18,197.51 553.12,211.97 555.07,210.33 557.01,208.18 558.96,209.62 560.90,183.98 562.85,219.24 564.79,206.07 566.74,212.80 568.68,188.91 570.63,195.67 572.58,206.96 574.52,192.20 576.47,202.85 578.41,204.88 580.36,202.48 582.30,188.94 584.25,207.97 586.19,216.41 588.14,216.37 590.08,211.69 592.03,218.79 593.97,205.85 595.92,216.81 597.86,215.68 599.81,171.14 601.75,168.18 603.70,211.70 605.64,219.80 607.59,208.42 609.53,196.18 611.48,204.28 613.42,188.78 615.37,213.28 617.32,191.79 619.26,177.87 621.21,200.98 623.15,179.85 625.10,202.97 627.04,194.11 628.99,215.66 630.93,206.77 632.88,195.13 634.82,166.60 636.77,196.42 638.71,184.71 640.66,176.75 642.60,202.17 644.55,215.86 646.49,217.32 648.44,218.26 650.38,216.48 652.33,207.00 654.27,176.21 656.22,173.49 658.16,189.89 660.11,212.23 662.05,228.50 664.00,191.94 665.95,203.85 667.89,206.95 669.84,178.05 671.78,205.06 673.73,222.75 675.67,208.53 677.62,210.44 679.56,194.75 681.51,218.03 683.45,206.90 685.40,197.54 687.34,213.59 689.29,192.61 691.23,192.60 693.18,186.32 695.12,211.64 697.07,176.64 699.01,198.51 700.96,184.33 702.90,201.39 704.85,198.80 706.79,202.30 708.74,198.05 710.68,212.29 712.63,216.17 714.58,206.44 716.52,205.10 718.47,203.01 720.41,220.53 722.36,217.13 724.30,204.08 726.25,195.70 728.19,202.29 730.14,189.65 732.08,177.04 734.03,203.21 735.97,200.24 737.92,219.14 739.86,211.69 741.81,186.07 743.75,185.08 745.70,190.21 747.64,190.19 749.59,199.51 751.53,210.79 753.48,207.77 755.42,214.96 757.37,221.07 759.32,201.74 761.26,205.58 763.21,198.12 765.15,203.08 767.10,192.83 769.04,196.37 770.99,186.54 772.93,216.08 774.88,197.25 776.82,161.93 778.77,187.56 780.71,199.18 782.66,196.24 784.60,212.45 786.55,214.71 788.49,200.07 790.44,188.15 792.38,197.18 794.33,195.31 796.27,217.49 798.22,219.41 800.16,198.62 802.11,182.28 804.05,200.00 806.00,187.56 807.95,181.07 809.89,216.01 811.84,189.58 813.78,182.94 815.73,191.44 817.67,233.32 819.62,190.54 821.56,206.98 823.51,198.35 825.45,202.77 827.40,213.55 829.34,198.28 831.29,179.92 833.23,192.05 835.18,190.54 837.12,207.84 839.07,198.72 841.01,194.63 842.96,200.43 844.90,206.68 846.85,177.60 848.79,217.63 850.74,192.83 852.68,197.99 854.63,211.26 856.58,173.11 858.52,202.51 860.47,194.32 862.41,187.79 864.36,201.69 866.30,211.78 868.25,219.17 870.19,217.11 872.14,196.76 874.08,201.96 876.03,202.56 877.97,184.19 879.92,213.33 881.86,204.99 883.81,196.24 885.75,173.72 887.70,204.26 889.64,222.07 891.59,185.63 893.53,186.62 895.48,195.00 897.42,178.75 899.37,181.07 901.32,206.86 903.26,201.64 905.21,196.98 907.15,191.29 909.10,199.61 911.04,193.04 912.99,202.26 914.93,198.52 916.88,203.74 918.82,202.15 920.77,219.46 922.71,190.66 924.66,210.66 926.60,207.01 928.55,215.29 930.49,206.37 932.44,193.67 934.38,175.22 936.33,207.40 938.27,191.60 940.22,216.79 942.16,195.22 944.11,173.24 946.05,178.20 948.00,219.93 949.95,181.13 951.89,203.84 953.84,206.15 955.78,199.87 957.73,203.21 959.67,216.92 961.62,215.69 963.56,189.06 965.51,188.30 967.45,208.68 969.40,212.37 971.34,187.49 973.29,205.70 975.23,198.05 977.18,190.47 979.12,197.54 981.07,191.91 983.01,197.42 984.96,205.57 986.90,183.63 988.85,201.25 990.79,206.54 992.74,207.00 994.68,211.59 996.63,214.71 998.58,210.19 1000.52,194.20 1002.47,202.29 1004.41,191.66 1006.36,193.92 1008.30,209.93 1010.25,213.48 1012.19,218.23 1014.14,209.61 1016.08,214.49 1018.03,177.60 1019.97,210.26 1021.92,218.70 1023.86,180.92 1025.81,198.41 1027.75,194.13 1029.70,204.28 1031.64,175.87 1033.59,203.87 1035.53,194.73 1037.48,200.65 1039.42,217.16 1041.37,216.56 1043.32,217.22 1045.26,210.09 1047.21,218.86 1049.15,199.06 1051.10,208.71 1053.04,190.93 1054.99,171.22 1056.93,201.60 1058.88,194.76 1060.82,195.49 1062.77,207.27 1064.71,196.09 1066.66,209.55 1068.60,197.22 1070.55,209.62 1072.49,197.94 1074.44,218.00 1076.38,197.61 1078.33,215.68 1080.27,196.96 1082.22,219.54 1084.16,209.33 1086.11,215.97 1088.05,208.15 1090.00,200.22" fill="none" stroke="#6f7f8f" stroke-width="1.2"/>
<line x1="96" y1="340.00" x2="1090.00" y2="340.00" stroke="#eeeeee"/>
<text x="88" y="344.00" text-anchor="end" font-family="Arial, sans-serif" font-size="10">-3.13</text>
<line x1="96" y1="297.00" x2="1090.00" y2="297.00" stroke="#eeeeee"/>
<text x="88" y="301.00" text-anchor="end" font-family="Arial, sans-serif" font-size="10">-0.107</text>
<line x1="96" y1="254.00" x2="1090.00" y2="254.00" stroke="#eeeeee"/>
<text x="88" y="258.00" text-anchor="end" font-family="Arial, sans-serif" font-size="10">2.91</text>
<text x="86" y="301.00" text-anchor="end" font-family="Arial, sans-serif" font-size="12">phase</text>
<polyline points="96.00,310.26 97.95,302.92 99.89,300.54 101.84,303.11 103.78,302.01 105.73,304.10 107.67,301.35 109.62,300.31 111.56,299.60 113.51,303.74 115.45,300.65 117.40,299.23 119.34,298.81 121.29,300.64 123.23,304.26 125.18,300.34 127.12,302.96 129.07,301.82 131.01,302.59 132.96,303.60 134.90,304.12 136.85,304.98 138.79,310.69 140.74,315.64 142.68,318.79 144.63,322.33 146.58,320.50 148.52,320.99 150.47,322.50 152.41,328.31 154.36,330.61 156.30,330.86 158.25,331.51 160.19,332.19 162.14,331.14 164.08,330.63 166.03,326.49 167.97,323.47 169.92,325.36 171.86,327.24 173.81,323.67 175.75,321.22 177.70,319.57 179.64,319.93 181.59,318.51 183.53,314.24 185.48,312.11 187.42,313.52 189.37,313.12 191.32,312.84 193.26,314.26 195.21,313.26 197.15,315.23 199.10,315.17 201.04,313.07 202.99,310.96 204.93,308.27 206.88,310.49 208.82,311.30 210.77,307.88 212.71,309.61 214.66,310.71 216.60,310.04 218.55,308.55 220.49,306.57 222.44,308.81 224.38,311.25 226.33,309.22 228.27,314.68 230.22,313.72 232.16,313.65 234.11,316.19 236.05,314.41 238.00,313.52 239.95,313.15 241.89,309.91 243.84,311.43 245.78,311.20 247.73,308.73 249.67,309.02 251.62,303.99 253.56,301.62 255.51,304.91 257.45,307.22 259.40,311.98 261.34,310.08 263.29,312.19 265.23,316.18 267.18,313.90 269.12,313.07 271.07,315.03 273.01,315.91 274.96,320.12 276.90,319.81 278.85,318.74 280.79,319.38 282.74,312.49 284.68,311.02 286.63,307.35 288.58,304.72 290.52,303.74 292.47,307.66 294.41,305.86 296.36,303.35 298.30,299.82 300.25,300.28 302.19,300.81 304.14,297.59 306.08,304.85 308.03,307.03 309.97,313.74 311.92,313.93 313.86,314.35 315.81,317.98 317.75,318.64 319.70,317.99 321.64,323.16 323.59,328.04 325.53,328.06 327.48,325.75 329.42,324.75 331.37,325.46 333.32,331.74 335.26,332.26 337.21,332.90 339.15,332.06 341.10,328.37 343.04,328.40 344.99,325.83 346.93,320.03 348.88,319.41 350.82,323.07 352.77,322.71 354.71,319.84 356.66,317.26 358.60,320.02 360.55,319.21 362.49,320.95 364.44,320.95 366.38,321.12 368.33,320.57 370.27,321.28 372.22,322.12 374.16,317.68 376.11,317.92 378.05,319.41 380.00,318.36 381.95,319.86 383.89,322.38 385.84,322.56 387.78,321.24 389.73,320.45 391.67,328.20 393.62,330.42 395.56,330.49 397.51,329.54 399.45,326.08 401.40,324.78 403.34,324.04 405.29,319.69 407.23,315.87 409.18,310.39 411.12,308.05 413.07,306.88 415.01,305.07 416.96,303.37 418.90,302.99 420.85,298.62 422.79,302.73 424.74,301.00 426.68,300.62 428.63,301.54 430.58,300.06 432.52,300.49 434.47,304.43 436.41,304.42 438.36,305.15 440.30,305.89 442.25,303.85 444.19,310.04 446.14,310.59 448.08,312.10 450.03,313.80 451.97,315.60 453.92,318.70 455.86,318.71 457.81,316.60 459.75,314.52 461.70,312.15 463.64,309.73 465.59,309.89 467.53,302.66 469.48,300.49 471.42,301.37 473.37,300.35 475.32,296.63 477.26,294.66 479.21,291.09 481.15,294.03 483.10,292.68 485.04,296.91 486.99,297.54 488.93,296.82 490.88,294.18 492.82,291.48 494.77,291.67 496.71,292.81 498.66,290.69 500.60,290.55 502.55,292.11 504.49,293.74 506.44,296.10 508.38,294.35 510.33,293.02 512.27,294.55 514.22,293.25 516.16,294.32 518.11,294.95 520.05,295.87 522.00,295.47 523.95,299.92 525.89,300.71 527.84,298.39 529.78,294.73 531.73,297.53 533.67,302.63 535.62,304.42 537.56,305.19 539.51,305.39 541.45,308.91 543.40,307.23 545.34,310.29 547.29,314.11 549.23,314.53 551.18,317.21 553.12,317.68 555.07,321.24 557.01,317.74 558.96,315.66 560.90,318.60 562.85,319.92 564.79,319.69 566.74,319.88 568.68,319.08 570.63,317.75 572.58,316.11 574.52,314.34 576.47,314.62 578.41,315.57 580.36,317.37 582.30,315.78 584.25,313.18 586.19,312.71 588.14,309.80 590.08,308.42 592.03,306.32 593.97,304.41 595.92,307.42 597.86,306.02 599.81,303.70 601.75,301.35 603.70,304.71 605.64,305.92 607.59,304.82 609.53,303.98 611.48,305.00 613.42,305.07 615.37,309.57 617.32,314.82 619.26,316.26 621.21,315.97 623.15,319.58 625.10,322.25 627.04,319.57 628.99,320.07 630.93,320.36 632.88,319.93 634.82,316.80 636.77,318.14 638.71,318.90 640.66,317.43 642.60,316.29 644.55,318.57 646.49,317.14 648.44,311.08 650.38,309.35 652.33,313.53 654.27,313.08 656.22,316.91 658.16,320.32 660.11,318.74 662.05,314.33 664.00,314.32 665.95,316.54 667.89,313.22 669.84,313.53 671.78,315.20 673.73,312.70 675.67,310.49 677.62,310.45 679.56,303.69 681.51,303.70 683.45,308.54 685.40,312.39 687.34,314.86 689.29,315.49 691.23,321.75 693.18,322.18 695.12,322.87 697.07,322.70 699.01,330.50 700.96,333.13 702.90,332.51 704.85,334.07 706.79,331.20 708.74,330.00 710.68,328.35 712.63,324.33 714.58,318.19 716.52,313.10 718.47,308.25 720.41,304.29 722.36,300.65 724.30,297.82 726.25,298.85 728.19,296.63 730.14,296.18 732.08,297.66 734.03,297.13 735.97,300.63 737.92,305.73 739.86,308.08 741.81,310.24 743.75,315.40 745.70,317.02 747.64,314.08 749.59,317.91 751.53,315.15 753.48,312.30 755.42,312.05 757.37,308.87 759.32,305.51 761.26,302.79 763.21,302.25 765.15,299.22 767.10,300.80 769.04,296.45 770.99,298.35 772.93,295.78 774.88,295.98 776.82,296.62 778.77,294.96 780.71,292.83 782.66,295.18 784.60,294.56 786.55,291.83 788.49,293.60 790.44,288.41 792.38,288.60 794.33,287.47 796.27,293.49 798.22,290.08 800.16,288.46 802.11,287.70 804.05,287.51 806.00,287.45 807.95,289.98 809.89,288.73 811.84,291.85 813.78,296.39 815.73,296.89 817.67,298.70 819.62,295.62 821.56,297.85 823.51,298.47 825.45,302.83 827.40,304.89 829.34,305.79 831.29,303.08 833.23,304.29 835.18,301.56 837.12,304.46 839.07,303.89 841.01,302.18 842.96,308.35 844.90,307.87 846.85,306.52 848.79,301.65 850.74,303.42 852.68,302.40 854.63,302.53 856.58,301.07 858.52,303.87 860.47,299.63 862.41,299.38 864.36,301.52 866.30,294.86 868.25,295.49 870.19,296.40 872.14,294.01 874.08,292.28 876.03,293.16 877.97,294.38 879.92,297.00 881.86,295.60 883.81,295.89 885.75,297.53 887.70,298.36 889.64,297.94 891.59,299.09 893.53,298.94 895.48,300.79 897.42,299.93 899.37,299.23 901.32,299.68 903.26,297.89 905.21,303.06 907.15,306.19 909.10,305.76 911.04,305.17 912.99,303.68 914.93,302.22 916.88,306.77 918.82,304.21 920.77,303.21 922.71,300.36 924.66,299.80 926.60,303.24 928.55,298.21 930.49,295.48 932.44,294.73 934.38,293.69 936.33,292.44 938.27,291.89 940.22,287.69 942.16,289.51 944.11,288.42 946.05,289.26 948.00,289.34 949.95,288.08 951.89,289.34 953.84,294.87 955.78,295.07 957.73,295.13 959.67,296.93 961.62,294.69 963.56,291.00 965.51,289.25 967.45,287.76 969.40,285.01 971.34,287.10 973.29,285.00 975.23,289.90 977.18,293.06 979.12,290.51 981.07,293.50 983.01,290.82 984.96,292.68 986.90,294.53 988.85,301.46 990.79,299.45 992.74,298.93 994.68,301.39 996.63,306.12 998.58,304.76 1000.52,299.79 1002.47,303.67 1004.41,308.71 1006.36,306.56 1008.30,302.73 1010.25,304.23 1012.19,303.86 1014.14,303.38 1016.08,301.28 1018.03,305.83 1019.97,302.12 1021.92,295.33 1023.86,292.78 1025.81,290.58 1027.75,287.29 1029.70,287.61 1031.64,288.97 1033.59,287.42 1035.53,283.04 1037.48,283.58 1039.42,286.31 1041.37,284.12 1043.32,282.93 1045.26,286.19 1047.21,284.58 1049.15,286.61 1051.10,289.31 1053.04,286.29 1054.99,284.74 1056.93,289.85 1058.88,293.07 1060.82,293.47 1062.77,290.25 1064.71,282.92 1066.66,283.58 1068.60,283.79 1070.55,284.05 1072.49,280.50 1074.44,278.53 1076.38,277.96 1078.33,278.01 1080.27,274.11 1082.22,275.29 1084.16,276.25 1086.11,275.57 1088.05,281.05 1090.00,277.26" fill="none" stroke="#b45f06" stroke-width="1.2"/>
<line x1="96" y1="438.00" x2="1090.00" y2="438.00" stroke="#eeeeee"/>
<text x="88" y="442.00" text-anchor="end" font-family="Arial, sans-serif" font-size="10">-3.13</text>
<line x1="96" y1="395.00" x2="1090.00" y2="395.00" stroke="#eeeeee"/>
<text x="88" y="399.00" text-anchor="end" font-family="Arial, sans-serif" font-size="10">-0.107</text>
<line x1="96" y1="352.00" x2="1090.00" y2="352.00" stroke="#eeeeee"/>
<text x="88" y="356.00" text-anchor="end" font-family="Arial, sans-serif" font-size="10">2.91</text>
<text x="86" y="399.00" text-anchor="end" font-family="Arial, sans-serif" font-size="12">AAFT</text>
<polyline points="96.00,383.22 97.95,385.71 99.89,387.90 101.84,386.16 103.78,385.44 105.73,388.01 107.67,388.40 109.62,389.55 111.56,389.73 113.51,386.92 115.45,389.47 117.40,389.14 119.34,388.33 121.29,387.74 123.23,389.88 125.18,388.88 127.12,388.61 129.07,385.30 131.01,391.08 132.96,394.84 134.90,393.88 136.85,395.07 138.79,391.51 140.74,390.77 142.68,391.16 144.63,388.74 146.58,386.48 148.52,391.32 150.47,391.77 152.41,392.47 154.36,390.69 156.30,393.18 158.25,392.99 160.19,396.97 162.14,401.33 164.08,407.22 166.03,406.94 167.97,409.15 169.92,411.43 171.86,407.83 173.81,409.05 175.75,409.11 177.70,411.65 179.64,413.19 181.59,417.36 183.53,418.25 185.48,418.13 187.42,412.02 189.37,411.27 191.32,409.33 193.26,407.81 195.21,408.06 197.15,408.69 199.10,409.64 201.04,408.78 202.99,406.61 204.93,403.97 206.88,402.69 208.82,402.41 210.77,404.55 212.71,400.60 214.66,401.70 216.60,402.26 218.55,402.30 220.49,399.37 222.44,401.08 224.38,400.63 226.33,396.29 228.27,394.79 230.22,393.35 232.16,386.15 234.11,388.46 236.05,390.69 238.00,388.13 239.95,393.68 241.89,396.77 243.84,398.93 245.78,396.26 247.73,395.02 249.67,400.21 251.62,399.80 253.56,401.14 255.51,401.20 257.45,402.50 259.40,399.09 261.34,396.79 263.29,397.63 265.23,391.25 267.18,392.95 269.12,387.66 271.07,389.54 273.01,386.92 274.96,388.00 276.90,383.44 278.85,384.59 280.79,386.71 282.74,391.17 284.68,392.77 286.63,395.23 288.58,398.32 290.52,395.03 292.47,399.06 294.41,394.95 296.36,398.61 298.30,399.59 300.25,395.22 302.19,396.22 304.14,397.42 306.08,388.99 308.03,384.25 309.97,384.34 311.92,384.30 313.86,382.84 315.81,380.66 317.75,383.83 319.70,385.51 321.64,385.69 323.59,387.49 325.53,390.10 327.48,384.59 329.42,389.61 331.37,390.31 333.32,387.01 335.26,383.21 337.21,381.55 339.15,383.49 341.10,383.27 343.04,380.55 344.99,377.46 346.93,380.55 348.88,387.62 350.82,393.89 352.77,392.04 354.71,391.97 356.66,396.31 358.60,397.65 360.55,397.34 362.49,394.89 364.44,394.61 366.38,389.79 368.33,389.30 370.27,388.38 372.22,384.74 374.16,380.16 376.11,379.18 378.05,380.94 380.00,377.73 381.95,378.84 383.89,378.69 385.84,381.48 387.78,378.60 389.73,380.55 391.67,382.88 393.62,385.40 395.56,387.96 397.51,387.13 399.45,388.50 401.40,389.91 403.34,387.22 405.29,384.78 407.23,387.04 409.18,389.06 411.12,391.80 413.07,392.02 415.01,394.41 416.96,390.73 418.90,387.08 420.85,387.83 422.79,385.40 424.74,387.34 426.68,389.93 428.63,392.24 430.58,396.06 432.52,394.70 434.47,398.38 436.41,399.21 438.36,397.80 440.30,398.46 442.25,402.49 444.19,405.32 446.14,406.95 448.08,407.64 450.03,407.98 451.97,405.40 453.92,401.96 455.86,403.59 457.81,400.63 459.75,402.03 461.70,403.73 463.64,403.42 465.59,402.65 467.53,398.77 469.48,399.68 471.42,397.17 473.37,396.01 475.32,396.92 477.26,399.37 479.21,398.12 481.15,398.40 483.10,394.48 485.04,392.42 486.99,391.60 488.93,392.49 490.88,395.79 492.82,399.06 494.77,398.68 496.71,399.83 498.66,398.50 500.60,397.30 502.55,396.41 504.49,399.47 506.44,399.44 508.38,400.04 510.33,401.51 512.27,399.67 514.22,403.87 516.16,402.02 518.11,403.92 520.05,403.42 522.00,403.32 523.95,406.56 525.89,405.29 527.84,405.95 529.78,409.97 531.73,408.99 533.67,409.83 535.62,410.43 537.56,407.42 539.51,406.76 541.45,408.92 543.40,413.12 545.34,417.05 547.29,415.71 549.23,413.22 551.18,413.13 553.12,411.92 555.07,412.54 557.01,411.91 558.96,415.22 560.90,417.32 562.85,418.31 564.79,416.65 566.74,411.85 568.68,406.92 570.63,406.07 572.58,411.83 574.52,409.97 576.47,406.80 578.41,406.28 580.36,407.70 582.30,406.15 584.25,407.05 586.19,408.40 588.14,406.54 590.08,410.48 592.03,410.02 593.97,408.35 595.92,405.63 597.86,404.54 599.81,405.24 601.75,407.12 603.70,408.87 605.64,407.64 607.59,408.39 609.53,408.25 611.48,408.84 613.42,408.87 615.37,405.84 617.32,410.23 619.26,407.60 621.21,406.33 623.15,409.40 625.10,411.43 627.04,407.23 628.99,405.06 630.93,402.33 632.88,403.11 634.82,402.09 636.77,401.41 638.71,400.52 640.66,398.76 642.60,397.13 644.55,399.60 646.49,402.24 648.44,402.66 650.38,405.10 652.33,410.49 654.27,410.80 656.22,410.46 658.16,415.00 660.11,418.17 662.05,422.51 664.00,418.57 665.95,418.24 667.89,418.85 669.84,420.31 671.78,424.17 673.73,425.40 675.67,418.81 677.62,419.21 679.56,422.45 681.51,420.22 683.45,420.78 685.40,421.81 687.34,429.32 689.29,430.95 691.23,431.05 693.18,428.03 695.12,428.28 697.07,426.79 699.01,427.72 700.96,431.93 702.90,429.77 704.85,429.69 706.79,427.29 708.74,427.39 710.68,424.40 712.63,419.01 714.58,417.09 716.52,418.30 718.47,420.20 720.41,422.77 722.36,423.10 724.30,414.61 726.25,417.53 728.19,415.97 730.14,414.87 732.08,417.09 734.03,412.57 735.97,415.03 737.92,420.88 739.86,418.56 741.81,413.65 743.75,411.90 745.70,412.35 747.64,415.59 749.59,414.27 751.53,416.10 753.48,420.24 755.42,417.79 757.37,418.32 759.32,421.37 761.26,418.34 763.21,421.05 765.15,421.53 767.10,421.79 769.04,424.64 770.99,419.92 772.93,418.64 774.88,412.76 776.82,410.94 778.77,407.69 780.71,408.18 782.66,402.59 784.60,398.84 786.55,397.35 788.49,400.31 790.44,398.13 792.38,392.87 794.33,396.88 796.27,398.33 798.22,398.76 800.16,396.36 802.11,396.13 804.05,396.58 806.00,399.69 807.95,401.21 809.89,402.90 811.84,405.51 813.78,403.49 815.73,408.30 817.67,407.56 819.62,407.02 821.56,407.69 823.51,405.81 825.45,406.68 827.40,404.73 829.34,402.10 831.29,402.18 833.23,398.87 835.18,392.78 837.12,398.30 839.07,395.91 841.01,393.29 842.96,392.27 844.90,391.95 846.85,391.66 848.79,391.64 850.74,392.34 852.68,390.60 854.63,394.31 856.58,392.51 858.52,395.42 860.47,393.54 862.41,391.35 864.36,393.62 866.30,396.86 868.25,398.43 870.19,402.48 872.14,400.73 874.08,401.48 876.03,402.36 877.97,401.27 879.92,404.12 881.86,403.18 883.81,402.67 885.75,402.45 887.70,401.27 889.64,401.79 891.59,400.93 893.53,399.18 895.48,397.97 897.42,396.98 899.37,397.97 901.32,398.63 903.26,396.36 905.21,391.67 907.15,390.87 909.10,391.84 911.04,390.67 912.99,391.25 914.93,395.13 916.88,397.40 918.82,393.47 920.77,390.32 922.71,390.49 924.66,391.19 926.60,393.55 928.55,394.50 930.49,396.98 932.44,394.28 934.38,396.35 936.33,391.66 938.27,392.02 940.22,391.69 942.16,394.69 944.11,395.56 946.05,394.32 948.00,397.65 949.95,392.16 951.89,394.99 953.84,390.38 955.78,389.99 957.73,387.95 959.67,393.54 961.62,393.22 963.56,390.56 965.51,392.38 967.45,392.24 969.40,392.91 971.34,391.73 973.29,392.49 975.23,389.36 977.18,391.49 979.12,395.97 981.07,399.33 983.01,401.77 984.96,401.46 986.90,397.59 988.85,396.05 990.79,398.36 992.74,401.79 994.68,402.22 996.63,405.07 998.58,404.96 1000.52,410.20 1002.47,414.61 1004.41,412.46 1006.36,415.66 1008.30,411.83 1010.25,414.09 1012.19,413.41 1014.14,411.98 1016.08,411.17 1018.03,410.78 1019.97,413.77 1021.92,413.47 1023.86,409.86 1025.81,409.58 1027.75,411.81 1029.70,410.21 1031.64,412.91 1033.59,413.52 1035.53,415.23 1037.48,414.79 1039.42,410.56 1041.37,405.35 1043.32,400.05 1045.26,399.91 1047.21,399.10 1049.15,398.37 1051.10,399.18 1053.04,398.53 1054.99,397.38 1056.93,399.99 1058.88,401.87 1060.82,397.96 1062.77,398.71 1064.71,399.96 1066.66,402.95 1068.60,399.75 1070.55,401.06 1072.49,395.50 1074.44,392.97 1076.38,397.12 1078.33,391.96 1080.27,390.21 1082.22,392.84 1084.16,395.37 1086.11,397.81 1088.05,399.54 1090.00,397.69" fill="none" stroke="#6b8e23" stroke-width="1.2"/>
<line x1="96.00" y1="438.00" x2="96.00" y2="443.00" stroke="#222222"/>
<text x="96.00" y="456.00" text-anchor="middle" font-family="Arial, sans-serif" font-size="10">0</text>
<line x1="344.99" y1="438.00" x2="344.99" y2="443.00" stroke="#222222"/>
<text x="344.99" y="456.00" text-anchor="middle" font-family="Arial, sans-serif" font-size="10">128</text>
<line x1="593.97" y1="438.00" x2="593.97" y2="443.00" stroke="#222222"/>
<text x="593.97" y="456.00" text-anchor="middle" font-family="Arial, sans-serif" font-size="10">256</text>
<line x1="842.96" y1="438.00" x2="842.96" y2="443.00" stroke="#222222"/>
<text x="842.96" y="456.00" text-anchor="middle" font-family="Arial, sans-serif" font-size="10">384</text>
<line x1="1090.00" y1="438.00" x2="1090.00" y2="443.00" stroke="#222222"/>
<text x="1090.00" y="456.00" text-anchor="middle" font-family="Arial, sans-serif" font-size="10">511</text>
<text x="593.00" y="510" text-anchor="middle" font-family="Arial, sans-serif" font-size="13">indice en ventana (velas de 5 min)</text>
<text transform="translate(18,254.0) rotate(-90)" text-anchor="middle" font-family="Arial, sans-serif" font-size="13">z_log_rv_past_12</text>
</svg>