<svg xmlns="http://www.w3.org/2000/svg" width="1120" height="430" viewBox="0 0 1120 430">
<rect x="0" y="0" width="1120" height="430" fill="#ffffff"/>
<text x="560.0" y="26" text-anchor="middle" font-family="Arial, sans-serif" font-size="18" font-weight="700">ACF residuos AR(49) hasta 288 retardos</text>
<line x1="82" y1="372.00" x2="1090.00" y2="372.00" stroke="#e8e8e8" stroke-width="1"/>
<text x="74" y="376.00" text-anchor="end" font-family="Arial, sans-serif" font-size="11">-0.02</text>
<line x1="82" y1="293.50" x2="1090.00" y2="293.50" stroke="#e8e8e8" stroke-width="1"/>
<text x="74" y="297.50" text-anchor="end" font-family="Arial, sans-serif" font-size="11">-0.00924</text>
<line x1="82" y1="215.00" x2="1090.00" y2="215.00" stroke="#e8e8e8" stroke-width="1"/>
<text x="74" y="219.00" text-anchor="end" font-family="Arial, sans-serif" font-size="11">0.00152</text>
<line x1="82" y1="136.50" x2="1090.00" y2="136.50" stroke="#e8e8e8" stroke-width="1"/>
<text x="74" y="140.50" text-anchor="end" font-family="Arial, sans-serif" font-size="11">0.0123</text>
<line x1="82" y1="58.00" x2="1090.00" y2="58.00" stroke="#e8e8e8" stroke-width="1"/>
<text x="74" y="62.00" text-anchor="end" font-family="Arial, sans-serif" font-size="11">0.023</text>
<rect x="82" y="58" width="1008.00" height="314.00" fill="none" stroke="#222222" stroke-width="1"/>
<line x1="82" y1="226.12" x2="1090.00" y2="226.12" stroke="#222222" stroke-width="1"/>
<line x1="82" y1="197.22" x2="1090.00" y2="197.22" stroke="#a33" stroke-width="1" stroke-dasharray="5,4"/>
<line x1="82" y1="255.02" x2="1090.00" y2="255.02" stroke="#a33" stroke-width="1" stroke-dasharray="5,4"/>
<line x1="120.63" y1="58" x2="120.63" y2="372.00" stroke="#777777" stroke-width="1" stroke-dasharray="3,4"/>
<text x="120.63" y="50" text-anchor="middle" font-family="Arial, sans-serif" font-size="10" fill="#555555">12</text>
<line x1="1090.00" y1="58" x2="1090.00" y2="372.00" stroke="#777777" stroke-width="1" stroke-dasharray="3,4"/>
<text x="1090.00" y="50" text-anchor="middle" font-family="Arial, sans-serif" font-size="10" fill="#555555">288</text>
<rect x="80.50" y="226.12" width="3.00" height="20.87" fill="#60758a" opacity="0.82"/>
<rect x="84.01" y="226.12" width="3.00" height="39.47" fill="#60758a" opacity="0.82"/>
<rect x="87.52" y="226.12" width="3.00" height="12.90" fill="#60758a" opacity="0.82"/>
<rect x="91.04" y="226.12" width="3.00" height="14.77" fill="#60758a" opacity="0.82"/>
<rect x="94.55" y="226.12" width="3.00" height="10.15" fill="#60758a" opacity="0.82"/>
<rect x="98.06" y="226.12" width="3.00" height="11.22" fill="#60758a" opacity="0.82"/>
<rect x="101.57" y="220.66" width="3.00" height="5.45" fill="#60758a" opacity="0.82"/>
<rect x="105.09" y="226.12" width="3.00" height="1.23" fill="#60758a" opacity="0.82"/>
<rect x="108.60" y="226.12" width="3.00" height="14.84" fill="#60758a" opacity="0.82"/>
<rect x="112.11" y="226.12" width="3.00" height="25.99" fill="#60758a" opacity="0.82"/>
<rect x="115.62" y="226.12" width="3.00" height="30.41" fill="#60758a" opacity="0.82"/>
<rect x="119.13" y="192.57" width="3.00" height="33.55" fill="#60758a" opacity="0.82"/>
<rect x="122.65" y="226.12" width="3.00" height="13.78" fill="#60758a" opacity="0.82"/>
<rect x="126.16" y="226.12" width="3.00" height="18.05" fill="#60758a" opacity="0.82"/>
<rect x="129.67" y="200.34" width="3.00" height="25.78" fill="#60758a" opacity="0.82"/>
<rect x="133.18" y="223.24" width="3.00" height="2.87" fill="#60758a" opacity="0.82"/>
<rect x="136.70" y="223.07" width="3.00" height="3.04" fill="#60758a" opacity="0.82"/>
<rect x="140.21" y="226.12" width="3.00" height="12.42" fill="#60758a" opacity="0.82"/>
<rect x="143.72" y="226.12" width="3.00" height="6.49" fill="#60758a" opacity="0.82"/>
<rect x="147.23" y="226.12" width="3.00" height="28.10" fill="#60758a" opacity="0.82"/>
<rect x="150.74" y="218.87" width="3.00" height="7.25" fill="#60758a" opacity="0.82"/>
<rect x="154.26" y="226.12" width="3.00" height="20.64" fill="#60758a" opacity="0.82"/>
<rect x="157.77" y="226.12" width="3.00" height="6.22" fill="#60758a" opacity="0.82"/>
<rect x="161.28" y="222.84" width="3.00" height="3.28" fill="#60758a" opacity="0.82"/>
<rect x="164.79" y="226.12" width="3.00" height="10.31" fill="#60758a" opacity="0.82"/>
<rect x="168.30" y="226.12" width="3.00" height="8.77" fill="#60758a" opacity="0.82"/>
<rect x="171.82" y="215.23" width="3.00" height="10.88" fill="#60758a" opacity="0.82"/>
<rect x="175.33" y="226.12" width="3.00" height="12.61" fill="#60758a" opacity="0.82"/>
<rect x="178.84" y="215.45" width="3.00" height="10.67" fill="#60758a" opacity="0.82"/>
<rect x="182.35" y="222.10" width="3.00" height="4.02" fill="#60758a" opacity="0.82"/>
<rect x="185.87" y="225.16" width="3.00" height="0.95" fill="#60758a" opacity="0.82"/>
<rect x="189.38" y="206.68" width="3.00" height="19.44" fill="#60758a" opacity="0.82"/>
<rect x="192.89" y="226.12" width="3.00" height="10.93" fill="#60758a" opacity="0.82"/>
<rect x="196.40" y="222.05" width="3.00" height="4.07" fill="#60758a" opacity="0.82"/>
<rect x="199.91" y="218.28" width="3.00" height="7.84" fill="#60758a" opacity="0.82"/>
<rect x="203.43" y="226.12" width="3.00" height="26.91" fill="#60758a" opacity="0.82"/>
<rect x="206.94" y="226.12" width="3.00" height="4.76" fill="#60758a" opacity="0.82"/>
<rect x="210.45" y="226.12" width="3.00" height="28.12" fill="#60758a" opacity="0.82"/>
<rect x="213.96" y="226.12" width="3.00" height="5.03" fill="#60758a" opacity="0.82"/>
<rect x="217.48" y="218.33" width="3.00" height="7.79" fill="#60758a" opacity="0.82"/>
<rect x="220.99" y="226.12" width="3.00" height="11.16" fill="#60758a" opacity="0.82"/>
<rect x="224.50" y="226.12" width="3.00" height="5.43" fill="#60758a" opacity="0.82"/>
<rect x="228.01" y="216.38" width="3.00" height="9.73" fill="#60758a" opacity="0.82"/>
<rect x="231.52" y="226.12" width="3.00" height="3.90" fill="#60758a" opacity="0.82"/>
<rect x="235.04" y="226.12" width="3.00" height="10.45" fill="#60758a" opacity="0.82"/>
<rect x="238.55" y="226.12" width="3.00" height="1.07" fill="#60758a" opacity="0.82"/>
<rect x="242.06" y="226.12" width="3.00" height="6.52" fill="#60758a" opacity="0.82"/>
<rect x="245.57" y="226.12" width="3.00" height="77.45" fill="#60758a" opacity="0.82"/>
<rect x="249.09" y="226.12" width="3.00" height="47.97" fill="#60758a" opacity="0.82"/>
<rect x="252.60" y="226.12" width="3.00" height="33.57" fill="#60758a" opacity="0.82"/>
<rect x="256.11" y="226.12" width="3.00" height="30.43" fill="#60758a" opacity="0.82"/>
<rect x="259.62" y="226.12" width="3.00" height="13.87" fill="#60758a" opacity="0.82"/>
<rect x="263.13" y="223.26" width="3.00" height="2.85" fill="#60758a" opacity="0.82"/>
<rect x="266.65" y="226.12" width="3.00" height="32.31" fill="#60758a" opacity="0.82"/>
<rect x="270.16" y="226.12" width="3.00" height="18.20" fill="#60758a" opacity="0.82"/>
<rect x="273.67" y="226.12" width="3.00" height="4.68" fill="#60758a" opacity="0.82"/>
<rect x="277.18" y="226.12" width="3.00" height="17.39" fill="#60758a" opacity="0.82"/>
<rect x="280.70" y="223.19" width="3.00" height="2.92" fill="#60758a" opacity="0.82"/>
<rect x="284.21" y="220.65" width="3.00" height="5.47" fill="#60758a" opacity="0.82"/>
<rect x="287.72" y="226.12" width="3.00" height="122.31" fill="#60758a" opacity="0.82"/>
<rect x="291.23" y="226.12" width="3.00" height="2.46" fill="#60758a" opacity="0.82"/>
<rect x="294.74" y="226.12" width="3.00" height="10.88" fill="#60758a" opacity="0.82"/>
<rect x="298.26" y="216.72" width="3.00" height="9.40" fill="#60758a" opacity="0.82"/>
<rect x="301.77" y="226.12" width="3.00" height="24.82" fill="#60758a" opacity="0.82"/>
<rect x="305.28" y="188.96" width="3.00" height="37.16" fill="#60758a" opacity="0.82"/>
<rect x="308.79" y="215.11" width="3.00" height="11.01" fill="#60758a" opacity="0.82"/>
<rect x="312.30" y="213.97" width="3.00" height="12.15" fill="#60758a" opacity="0.82"/>
<rect x="315.82" y="213.15" width="3.00" height="12.96" fill="#60758a" opacity="0.82"/>
<rect x="319.33" y="207.18" width="3.00" height="18.94" fill="#60758a" opacity="0.82"/>
<rect x="322.84" y="199.71" width="3.00" height="26.41" fill="#60758a" opacity="0.82"/>
<rect x="326.35" y="207.08" width="3.00" height="19.04" fill="#60758a" opacity="0.82"/>
<rect x="329.87" y="209.05" width="3.00" height="17.06" fill="#60758a" opacity="0.82"/>
<rect x="333.38" y="226.12" width="3.00" height="15.75" fill="#60758a" opacity="0.82"/>
<rect x="336.89" y="193.57" width="3.00" height="32.55" fill="#60758a" opacity="0.82"/>
<rect x="340.40" y="224.42" width="3.00" height="1.70" fill="#60758a" opacity="0.82"/>
<rect x="343.91" y="223.47" width="3.00" height="2.65" fill="#60758a" opacity="0.82"/>
<rect x="347.43" y="215.57" width="3.00" height="10.54" fill="#60758a" opacity="0.82"/>
<rect x="350.94" y="207.48" width="3.00" height="18.64" fill="#60758a" opacity="0.82"/>
<rect x="354.45" y="226.12" width="3.00" height="9.91" fill="#60758a" opacity="0.82"/>
<rect x="357.96" y="195.23" width="3.00" height="30.89" fill="#60758a" opacity="0.82"/>
<rect x="361.48" y="216.84" width="3.00" height="9.28" fill="#60758a" opacity="0.82"/>
<rect x="364.99" y="226.12" width="3.00" height="0.80" fill="#60758a" opacity="0.82"/>
<rect x="368.50" y="226.12" width="3.00" height="6.55" fill="#60758a" opacity="0.82"/>
<rect x="372.01" y="181.91" width="3.00" height="44.21" fill="#60758a" opacity="0.82"/>
<rect x="375.52" y="226.12" width="3.00" height="14.43" fill="#60758a" opacity="0.82"/>
<rect x="379.04" y="215.54" width="3.00" height="10.57" fill="#60758a" opacity="0.82"/>
<rect x="382.55" y="191.52" width="3.00" height="34.59" fill="#60758a" opacity="0.82"/>
<rect x="386.06" y="196.64" width="3.00" height="29.48" fill="#60758a" opacity="0.82"/>
<rect x="389.57" y="215.31" width="3.00" height="10.81" fill="#60758a" opacity="0.82"/>
<rect x="393.09" y="226.12" width="3.00" height="2.48" fill="#60758a" opacity="0.82"/>
<rect x="396.60" y="201.33" width="3.00" height="24.79" fill="#60758a" opacity="0.82"/>
<rect x="400.11" y="192.41" width="3.00" height="33.70" fill="#60758a" opacity="0.82"/>
<rect x="403.62" y="204.64" width="3.00" height="21.47" fill="#60758a" opacity="0.82"/>
<rect x="407.13" y="213.03" width="3.00" height="13.09" fill="#60758a" opacity="0.82"/>
<rect x="410.65" y="226.12" width="3.00" height="5.50" fill="#60758a" opacity="0.82"/>
<rect x="414.16" y="226.12" width="3.00" height="44.25" fill="#60758a" opacity="0.82"/>
<rect x="417.67" y="208.31" width="3.00" height="17.81" fill="#60758a" opacity="0.82"/>
<rect x="421.18" y="218.58" width="3.00" height="7.54" fill="#60758a" opacity="0.82"/>
<rect x="424.70" y="200.09" width="3.00" height="26.02" fill="#60758a" opacity="0.82"/>
<rect x="428.21" y="226.12" width="3.00" height="37.25" fill="#60758a" opacity="0.82"/>
<rect x="431.72" y="226.12" width="3.00" height="21.52" fill="#60758a" opacity="0.82"/>
<rect x="435.23" y="226.12" width="3.00" height="3.11" fill="#60758a" opacity="0.82"/>
<rect x="438.74" y="226.12" width="3.00" height="18.87" fill="#60758a" opacity="0.82"/>
<rect x="442.26" y="226.12" width="3.00" height="15.96" fill="#60758a" opacity="0.82"/>
<rect x="445.77" y="226.12" width="3.00" height="17.41" fill="#60758a" opacity="0.82"/>
<rect x="449.28" y="226.12" width="3.00" height="11.94" fill="#60758a" opacity="0.82"/>
<rect x="452.79" y="209.32" width="3.00" height="16.80" fill="#60758a" opacity="0.82"/>
<rect x="456.30" y="226.12" width="3.00" height="31.20" fill="#60758a" opacity="0.82"/>
<rect x="459.82" y="215.38" width="3.00" height="10.73" fill="#60758a" opacity="0.82"/>
<rect x="463.33" y="206.81" width="3.00" height="19.31" fill="#60758a" opacity="0.82"/>
<rect x="466.84" y="226.12" width="3.00" height="8.77" fill="#60758a" opacity="0.82"/>
<rect x="470.35" y="220.84" width="3.00" height="5.28" fill="#60758a" opacity="0.82"/>
<rect x="473.87" y="226.12" width="3.00" height="41.89" fill="#60758a" opacity="0.82"/>
<rect x="477.38" y="226.12" width="3.00" height="5.23" fill="#60758a" opacity="0.82"/>
<rect x="480.89" y="226.12" width="3.00" height="7.29" fill="#60758a" opacity="0.82"/>
<rect x="484.40" y="226.12" width="3.00" height="27.87" fill="#60758a" opacity="0.82"/>
<rect x="487.91" y="226.12" width="3.00" height="6.47" fill="#60758a" opacity="0.82"/>
<rect x="491.43" y="226.12" width="3.00" height="19.17" fill="#60758a" opacity="0.82"/>
<rect x="494.94" y="222.30" width="3.00" height="3.81" fill="#60758a" opacity="0.82"/>
<rect x="498.45" y="218.55" width="3.00" height="7.57" fill="#60758a" opacity="0.82"/>
<rect x="501.96" y="226.12" width="3.00" height="0.80" fill="#60758a" opacity="0.82"/>
<rect x="505.48" y="226.12" width="3.00" height="9.44" fill="#60758a" opacity="0.82"/>
<rect x="508.99" y="226.12" width="3.00" height="5.70" fill="#60758a" opacity="0.82"/>
<rect x="512.50" y="226.12" width="3.00" height="0.89" fill="#60758a" opacity="0.82"/>
<rect x="516.01" y="226.12" width="3.00" height="15.25" fill="#60758a" opacity="0.82"/>
<rect x="519.52" y="225.30" width="3.00" height="0.81" fill="#60758a" opacity="0.82"/>
<rect x="523.04" y="223.68" width="3.00" height="2.44" fill="#60758a" opacity="0.82"/>
<rect x="526.55" y="208.06" width="3.00" height="18.05" fill="#60758a" opacity="0.82"/>
<rect x="530.06" y="215.03" width="3.00" height="11.09" fill="#60758a" opacity="0.82"/>
<rect x="533.57" y="206.13" width="3.00" height="19.98" fill="#60758a" opacity="0.82"/>
<rect x="537.09" y="210.84" width="3.00" height="15.28" fill="#60758a" opacity="0.82"/>
<rect x="540.60" y="226.12" width="3.00" height="2.53" fill="#60758a" opacity="0.82"/>
<rect x="544.11" y="220.38" width="3.00" height="5.74" fill="#60758a" opacity="0.82"/>
<rect x="547.62" y="197.59" width="3.00" height="28.53" fill="#60758a" opacity="0.82"/>
<rect x="551.13" y="214.61" width="3.00" height="11.51" fill="#60758a" opacity="0.82"/>
<rect x="554.65" y="226.12" width="3.00" height="12.79" fill="#60758a" opacity="0.82"/>
<rect x="558.16" y="221.99" width="3.00" height="4.13" fill="#60758a" opacity="0.82"/>
<rect x="561.67" y="174.58" width="3.00" height="51.54" fill="#60758a" opacity="0.82"/>
<rect x="565.18" y="226.12" width="3.00" height="10.08" fill="#60758a" opacity="0.82"/>
<rect x="568.70" y="222.08" width="3.00" height="4.03" fill="#60758a" opacity="0.82"/>
<rect x="572.21" y="222.69" width="3.00" height="3.43" fill="#60758a" opacity="0.82"/>
<rect x="575.72" y="226.12" width="3.00" height="9.76" fill="#60758a" opacity="0.82"/>
<rect x="579.23" y="220.10" width="3.00" height="6.02" fill="#60758a" opacity="0.82"/>
<rect x="582.74" y="223.67" width="3.00" height="2.44" fill="#60758a" opacity="0.82"/>
<rect x="586.26" y="217.82" width="3.00" height="8.29" fill="#60758a" opacity="0.82"/>
<rect x="589.77" y="208.75" width="3.00" height="17.37" fill="#60758a" opacity="0.82"/>
<rect x="593.28" y="189.68" width="3.00" height="36.43" fill="#60758a" opacity="0.82"/>
<rect x="596.79" y="217.04" width="3.00" height="9.07" fill="#60758a" opacity="0.82"/>
<rect x="600.30" y="181.03" width="3.00" height="45.09" fill="#60758a" opacity="0.82"/>
<rect x="603.82" y="204.41" width="3.00" height="21.70" fill="#60758a" opacity="0.82"/>
<rect x="607.33" y="221.33" width="3.00" height="4.79" fill="#60758a" opacity="0.82"/>
<rect x="610.84" y="205.65" width="3.00" height="20.47" fill="#60758a" opacity="0.82"/>
<rect x="614.35" y="210.21" width="3.00" height="15.90" fill="#60758a" opacity="0.82"/>
<rect x="617.87" y="226.12" width="3.00" height="16.72" fill="#60758a" opacity="0.82"/>
<rect x="621.38" y="226.12" width="3.00" height="0.80" fill="#60758a" opacity="0.82"/>
<rect x="624.89" y="213.91" width="3.00" height="12.20" fill="#60758a" opacity="0.82"/>
<rect x="628.40" y="226.12" width="3.00" height="0.80" fill="#60758a" opacity="0.82"/>
<rect x="631.91" y="222.54" width="3.00" height="3.57" fill="#60758a" opacity="0.82"/>
<rect x="635.43" y="219.59" width="3.00" height="6.53" fill="#60758a" opacity="0.82"/>
<rect x="638.94" y="218.03" width="3.00" height="8.09" fill="#60758a" opacity="0.82"/>
<rect x="642.45" y="196.16" width="3.00" height="29.96" fill="#60758a" opacity="0.82"/>
<rect x="645.96" y="226.12" width="3.00" height="12.34" fill="#60758a" opacity="0.82"/>
<rect x="649.48" y="226.12" width="3.00" height="0.80" fill="#60758a" opacity="0.82"/>
<rect x="652.99" y="221.48" width="3.00" height="4.63" fill="#60758a" opacity="0.82"/>
<rect x="656.50" y="224.70" width="3.00" height="1.42" fill="#60758a" opacity="0.82"/>
<rect x="660.01" y="221.42" width="3.00" height="4.70" fill="#60758a" opacity="0.82"/>
<rect x="663.52" y="226.12" width="3.00" height="3.08" fill="#60758a" opacity="0.82"/>
<rect x="667.04" y="226.12" width="3.00" height="13.11" fill="#60758a" opacity="0.82"/>
<rect x="670.55" y="226.12" width="3.00" height="40.94" fill="#60758a" opacity="0.82"/>
<rect x="674.06" y="226.12" width="3.00" height="9.41" fill="#60758a" opacity="0.82"/>
<rect x="677.57" y="226.12" width="3.00" height="22.25" fill="#60758a" opacity="0.82"/>
<rect x="681.09" y="226.12" width="3.00" height="28.98" fill="#60758a" opacity="0.82"/>
<rect x="684.60" y="226.12" width="3.00" height="2.22" fill="#60758a" opacity="0.82"/>
<rect x="688.11" y="224.95" width="3.00" height="1.17" fill="#60758a" opacity="0.82"/>
<rect x="691.62" y="223.96" width="3.00" height="2.16" fill="#60758a" opacity="0.82"/>
<rect x="695.13" y="223.29" width="3.00" height="2.83" fill="#60758a" opacity="0.82"/>
<rect x="698.65" y="226.12" width="3.00" height="19.79" fill="#60758a" opacity="0.82"/>
<rect x="702.16" y="210.19" width="3.00" height="15.93" fill="#60758a" opacity="0.82"/>
<rect x="705.67" y="226.12" width="3.00" height="13.90" fill="#60758a" opacity="0.82"/>
<rect x="709.18" y="226.12" width="3.00" height="29.99" fill="#60758a" opacity="0.82"/>
<rect x="712.70" y="226.12" width="3.00" height="6.02" fill="#60758a" opacity="0.82"/>
<rect x="716.21" y="226.12" width="3.00" height="30.08" fill="#60758a" opacity="0.82"/>
<rect x="719.72" y="218.87" width="3.00" height="7.25" fill="#60758a" opacity="0.82"/>
<rect x="723.23" y="226.12" width="3.00" height="17.46" fill="#60758a" opacity="0.82"/>
<rect x="726.74" y="226.12" width="3.00" height="26.56" fill="#60758a" opacity="0.82"/>
<rect x="730.26" y="226.12" width="3.00" height="6.48" fill="#60758a" opacity="0.82"/>
<rect x="733.77" y="226.12" width="3.00" height="16.06" fill="#60758a" opacity="0.82"/>
<rect x="737.28" y="212.70" width="3.00" height="13.42" fill="#60758a" opacity="0.82"/>
<rect x="740.79" y="217.51" width="3.00" height="8.61" fill="#60758a" opacity="0.82"/>
<rect x="744.30" y="226.12" width="3.00" height="1.60" fill="#60758a" opacity="0.82"/>
<rect x="747.82" y="203.49" width="3.00" height="22.63" fill="#60758a" opacity="0.82"/>
<rect x="751.33" y="226.12" width="3.00" height="11.33" fill="#60758a" opacity="0.82"/>
<rect x="754.84" y="226.12" width="3.00" height="2.86" fill="#60758a" opacity="0.82"/>
<rect x="758.35" y="217.96" width="3.00" height="8.16" fill="#60758a" opacity="0.82"/>
<rect x="761.87" y="196.97" width="3.00" height="29.15" fill="#60758a" opacity="0.82"/>
<rect x="765.38" y="209.36" width="3.00" height="16.75" fill="#60758a" opacity="0.82"/>
<rect x="768.89" y="218.33" width="3.00" height="7.79" fill="#60758a" opacity="0.82"/>
<rect x="772.40" y="220.43" width="3.00" height="5.69" fill="#60758a" opacity="0.82"/>
<rect x="775.91" y="204.78" width="3.00" height="21.34" fill="#60758a" opacity="0.82"/>
<rect x="779.43" y="203.69" width="3.00" height="22.42" fill="#60758a" opacity="0.82"/>
<rect x="782.94" y="224.11" width="3.00" height="2.00" fill="#60758a" opacity="0.82"/>
<rect x="786.45" y="189.66" width="3.00" height="36.46" fill="#60758a" opacity="0.82"/>
<rect x="789.96" y="219.03" width="3.00" height="7.09" fill="#60758a" opacity="0.82"/>
<rect x="793.48" y="208.62" width="3.00" height="17.50" fill="#60758a" opacity="0.82"/>
<rect x="796.99" y="224.77" width="3.00" height="1.35" fill="#60758a" opacity="0.82"/>
<rect x="800.50" y="204.70" width="3.00" height="21.42" fill="#60758a" opacity="0.82"/>
<rect x="804.01" y="217.72" width="3.00" height="8.40" fill="#60758a" opacity="0.82"/>
<rect x="807.52" y="226.12" width="3.00" height="16.34" fill="#60758a" opacity="0.82"/>
<rect x="811.04" y="226.12" width="3.00" height="22.21" fill="#60758a" opacity="0.82"/>
<rect x="814.55" y="218.18" width="3.00" height="7.94" fill="#60758a" opacity="0.82"/>
<rect x="818.06" y="218.55" width="3.00" height="7.57" fill="#60758a" opacity="0.82"/>
<rect x="821.57" y="203.14" width="3.00" height="22.98" fill="#60758a" opacity="0.82"/>
<rect x="825.09" y="226.12" width="3.00" height="0.80" fill="#60758a" opacity="0.82"/>
<rect x="828.60" y="194.36" width="3.00" height="31.75" fill="#60758a" opacity="0.82"/>
<rect x="832.11" y="226.12" width="3.00" height="4.79" fill="#60758a" opacity="0.82"/>
<rect x="835.62" y="203.17" width="3.00" height="22.95" fill="#60758a" opacity="0.82"/>
<rect x="839.13" y="217.47" width="3.00" height="8.65" fill="#60758a" opacity="0.82"/>
<rect x="842.65" y="208.41" width="3.00" height="17.71" fill="#60758a" opacity="0.82"/>
<rect x="846.16" y="190.36" width="3.00" height="35.75" fill="#60758a" opacity="0.82"/>
<rect x="849.67" y="209.66" width="3.00" height="16.46" fill="#60758a" opacity="0.82"/>
<rect x="853.18" y="212.45" width="3.00" height="13.67" fill="#60758a" opacity="0.82"/>
<rect x="856.70" y="226.12" width="3.00" height="3.65" fill="#60758a" opacity="0.82"/>
<rect x="860.21" y="185.39" width="3.00" height="40.73" fill="#60758a" opacity="0.82"/>
<rect x="863.72" y="202.12" width="3.00" height="23.99" fill="#60758a" opacity="0.82"/>
<rect x="867.23" y="220.35" width="3.00" height="5.76" fill="#60758a" opacity="0.82"/>
<rect x="870.74" y="199.90" width="3.00" height="26.21" fill="#60758a" opacity="0.82"/>
<rect x="874.26" y="226.12" width="3.00" height="4.46" fill="#60758a" opacity="0.82"/>
<rect x="877.77" y="198.76" width="3.00" height="27.35" fill="#60758a" opacity="0.82"/>
<rect x="881.28" y="217.01" width="3.00" height="9.10" fill="#60758a" opacity="0.82"/>
<rect x="884.79" y="226.12" width="3.00" height="16.39" fill="#60758a" opacity="0.82"/>
<rect x="888.30" y="203.36" width="3.00" height="22.75" fill="#60758a" opacity="0.82"/>
<rect x="891.82" y="198.66" width="3.00" height="27.46" fill="#60758a" opacity="0.82"/>
<rect x="895.33" y="200.68" width="3.00" height="25.44" fill="#60758a" opacity="0.82"/>
<rect x="898.84" y="226.12" width="3.00" height="23.49" fill="#60758a" opacity="0.82"/>
<rect x="902.35" y="226.12" width="3.00" height="6.55" fill="#60758a" opacity="0.82"/>
<rect x="905.87" y="225.53" width="3.00" height="0.80" fill="#60758a" opacity="0.82"/>
<rect x="909.38" y="226.12" width="3.00" height="5.45" fill="#60758a" opacity="0.82"/>
<rect x="912.89" y="226.12" width="3.00" height="4.45" fill="#60758a" opacity="0.82"/>
<rect x="916.40" y="226.12" width="3.00" height="10.14" fill="#60758a" opacity="0.82"/>
<rect x="919.91" y="192.67" width="3.00" height="33.45" fill="#60758a" opacity="0.82"/>
<rect x="923.43" y="215.61" width="3.00" height="10.51" fill="#60758a" opacity="0.82"/>
<rect x="926.94" y="226.12" width="3.00" height="4.21" fill="#60758a" opacity="0.82"/>
<rect x="930.45" y="226.12" width="3.00" height="7.41" fill="#60758a" opacity="0.82"/>
<rect x="933.96" y="211.79" width="3.00" height="14.33" fill="#60758a" opacity="0.82"/>
<rect x="937.48" y="205.37" width="3.00" height="20.74" fill="#60758a" opacity="0.82"/>
<rect x="940.99" y="201.08" width="3.00" height="25.04" fill="#60758a" opacity="0.82"/>
<rect x="944.50" y="226.12" width="3.00" height="6.52" fill="#60758a" opacity="0.82"/>
<rect x="948.01" y="224.97" width="3.00" height="1.14" fill="#60758a" opacity="0.82"/>
<rect x="951.52" y="226.12" width="3.00" height="14.68" fill="#60758a" opacity="0.82"/>
<rect x="955.04" y="226.12" width="3.00" height="0.80" fill="#60758a" opacity="0.82"/>
<rect x="958.55" y="224.79" width="3.00" height="1.33" fill="#60758a" opacity="0.82"/>
<rect x="962.06" y="219.86" width="3.00" height="6.26" fill="#60758a" opacity="0.82"/>
<rect x="965.57" y="226.12" width="3.00" height="10.85" fill="#60758a" opacity="0.82"/>
<rect x="969.09" y="202.50" width="3.00" height="23.61" fill="#60758a" opacity="0.82"/>
<rect x="972.60" y="207.04" width="3.00" height="19.07" fill="#60758a" opacity="0.82"/>
<rect x="976.11" y="223.31" width="3.00" height="2.80" fill="#60758a" opacity="0.82"/>
<rect x="979.62" y="220.78" width="3.00" height="5.34" fill="#60758a" opacity="0.82"/>
<rect x="983.13" y="215.49" width="3.00" height="10.63" fill="#60758a" opacity="0.82"/>
<rect x="986.65" y="205.00" width="3.00" height="21.11" fill="#60758a" opacity="0.82"/>
<rect x="990.16" y="201.38" width="3.00" height="24.74" fill="#60758a" opacity="0.82"/>
<rect x="993.67" y="189.63" width="3.00" height="36.49" fill="#60758a" opacity="0.82"/>
<rect x="997.18" y="202.69" width="3.00" height="23.42" fill="#60758a" opacity="0.82"/>
<rect x="1000.70" y="201.97" width="3.00" height="24.15" fill="#60758a" opacity="0.82"/>
<rect x="1004.21" y="222.90" width="3.00" height="3.21" fill="#60758a" opacity="0.82"/>
<rect x="1007.72" y="217.65" width="3.00" height="8.47" fill="#60758a" opacity="0.82"/>
<rect x="1011.23" y="185.82" width="3.00" height="40.29" fill="#60758a" opacity="0.82"/>
<rect x="1014.74" y="212.86" width="3.00" height="13.26" fill="#60758a" opacity="0.82"/>
<rect x="1018.26" y="194.42" width="3.00" height="31.70" fill="#60758a" opacity="0.82"/>
<rect x="1021.77" y="173.68" width="3.00" height="52.44" fill="#60758a" opacity="0.82"/>
<rect x="1025.28" y="169.23" width="3.00" height="56.89" fill="#60758a" opacity="0.82"/>
<rect x="1028.79" y="195.56" width="3.00" height="30.56" fill="#60758a" opacity="0.82"/>
<rect x="1032.30" y="176.89" width="3.00" height="49.23" fill="#60758a" opacity="0.82"/>
<rect x="1035.82" y="188.66" width="3.00" height="37.46" fill="#60758a" opacity="0.82"/>
<rect x="1039.33" y="152.09" width="3.00" height="74.02" fill="#60758a" opacity="0.82"/>
<rect x="1042.84" y="175.98" width="3.00" height="50.13" fill="#60758a" opacity="0.82"/>
<rect x="1046.35" y="153.59" width="3.00" height="72.53" fill="#60758a" opacity="0.82"/>
<rect x="1049.87" y="156.33" width="3.00" height="69.78" fill="#60758a" opacity="0.82"/>
<rect x="1053.38" y="155.77" width="3.00" height="70.34" fill="#60758a" opacity="0.82"/>
<rect x="1056.89" y="175.14" width="3.00" height="50.98" fill="#60758a" opacity="0.82"/>
<rect x="1060.40" y="170.47" width="3.00" height="55.65" fill="#60758a" opacity="0.82"/>
<rect x="1063.91" y="140.70" width="3.00" height="85.41" fill="#60758a" opacity="0.82"/>
<rect x="1067.43" y="165.37" width="3.00" height="60.75" fill="#60758a" opacity="0.82"/>
<rect x="1070.94" y="152.49" width="3.00" height="73.62" fill="#60758a" opacity="0.82"/>
<rect x="1074.45" y="163.04" width="3.00" height="63.08" fill="#60758a" opacity="0.82"/>
<rect x="1077.96" y="136.92" width="3.00" height="89.20" fill="#60758a" opacity="0.82"/>
<rect x="1081.48" y="153.47" width="3.00" height="72.64" fill="#60758a" opacity="0.82"/>
<rect x="1084.99" y="99.71" width="3.00" height="126.40" fill="#60758a" opacity="0.82"/>
<rect x="1088.50" y="70.45" width="3.00" height="155.66" fill="#60758a" opacity="0.82"/>
<text x="82.00" y="402" text-anchor="middle" font-family="Arial, sans-serif" font-size="11">1</text>
<text x="120.63" y="402" text-anchor="middle" font-family="Arial, sans-serif" font-size="11">12</text>
<text x="247.07" y="402" text-anchor="middle" font-family="Arial, sans-serif" font-size="11">48</text>
<text x="415.66" y="402" text-anchor="middle" font-family="Arial, sans-serif" font-size="11">96</text>
<text x="584.24" y="402" text-anchor="middle" font-family="Arial, sans-serif" font-size="11">144</text>
<text x="837.12" y="402" text-anchor="middle" font-family="Arial, sans-serif" font-size="11">216</text>
<text x="1090.00" y="402" text-anchor="middle" font-family="Arial, sans-serif" font-size="11">288</text>
<text x="586.00" y="422" text-anchor="middle" font-family="Arial, sans-serif" font-size="13">Retardo</text>
<text transform="translate(18,215.0) rotate(-90)" text-anchor="middle" font-family="Arial, sans-serif" font-size="13">ACF</text>
<text x="90" y="418" font-family="Arial, sans-serif" font-size="11" fill="#8a2222">Bandas orientativas ±0.003962</text>
</svg>