<svg xmlns="http://www.w3.org/2000/svg" width="1080" height="460" viewBox="0 0 1080 460">
<rect x="0" y="0" width="1080" height="460" fill="#ffffff"/>
<text x="540.0" y="28" text-anchor="middle" font-family="Arial, sans-serif" font-size="18" font-weight="700">Prediccion test completa logistic_noise_moderate</text>
<rect x="76" y="58" width="974.00" height="340.00" fill="none" stroke="#222222"/>
<line x1="76" y1="398.00" x2="1050.00" y2="398.00" stroke="#e8e8e8"/>
<text x="68" y="402.00" text-anchor="end" font-family="Arial, sans-serif" font-size="11">-0.08</text>
<line x1="76" y1="313.00" x2="1050.00" y2="313.00" stroke="#e8e8e8"/>
<text x="68" y="317.00" text-anchor="end" font-family="Arial, sans-serif" font-size="11">0.21</text>
<line x1="76" y1="228.00" x2="1050.00" y2="228.00" stroke="#e8e8e8"/>
<text x="68" y="232.00" text-anchor="end" font-family="Arial, sans-serif" font-size="11">0.5</text>
<line x1="76" y1="143.00" x2="1050.00" y2="143.00" stroke="#e8e8e8"/>
<text x="68" y="147.00" text-anchor="end" font-family="Arial, sans-serif" font-size="11">0.79</text>
<line x1="76" y1="58.00" x2="1050.00" y2="58.00" stroke="#e8e8e8"/>
<text x="68" y="62.00" text-anchor="end" font-family="Arial, sans-serif" font-size="11">1.08</text>
<polyline points="76.00,91.25 77.95,373.25 79.90,139.57 81.86,171.89 83.81,374.55 85.76,259.87 87.71,104.88 89.66,81.45 91.62,305.27 93.57,299.97 95.52,194.21 97.47,92.32 99.42,148.23 101.37,207.67 103.33,121.56 105.28,315.00 107.23,292.77 109.18,151.04 111.13,81.45 113.09,90.21 115.04,221.81 116.99,199.47 118.94,81.45 120.89,317.33 122.85,119.43 124.80,319.85 126.75,132.65 128.70,329.45 130.65,174.78 132.61,240.33 134.56,302.37 136.51,237.07 138.46,331.87 140.41,288.35 142.36,365.50 144.32,317.17 146.27,369.39 148.22,349.15 150.17,140.29 152.12,364.19 154.08,304.96 156.03,192.00 157.98,90.75 159.93,372.25 161.88,237.40 163.84,353.60 165.79,81.45 167.74,134.23 169.69,198.68 171.64,310.51 173.60,84.17 175.55,239.37 177.50,367.06 179.45,374.55 181.40,81.45 183.35,330.69 185.31,222.11 187.26,370.10 189.21,81.45 191.16,140.01 193.11,92.30 195.07,242.27 197.02,196.44 198.97,293.90 200.92,194.70 202.87,137.08 204.83,323.36 206.78,348.55 208.73,174.00 210.68,219.25 212.63,224.58 214.59,277.00 216.54,286.44 218.49,371.00 220.44,86.47 222.39,103.00 224.34,374.55 226.30,92.93 228.25,305.40 230.20,85.23 232.15,348.70 234.10,340.34 236.06,198.77 238.01,363.90 239.96,361.92 241.91,373.83 243.86,357.39 245.82,207.06 247.77,355.39 249.72,259.59 251.67,83.21 253.62,330.97 255.58,363.62 257.53,92.15 259.48,332.20 261.43,319.22 263.38,212.87 265.33,273.11 267.29,112.18 269.24,220.70 271.19,260.14 273.14,369.10 275.09,179.59 277.05,289.59 279.00,372.33 280.95,355.58 282.90,110.90 284.85,195.89 286.81,366.62 288.76,343.79 290.71,150.43 292.66,117.24 294.61,200.59 296.57,344.85 298.52,155.55 300.47,178.22 302.42,314.36 304.37,130.94 306.32,81.45 308.28,273.04 310.23,244.48 312.18,195.44 314.13,92.54 316.08,356.57 318.04,225.15 319.99,357.12 321.94,370.46 323.89,139.79 325.84,315.36 327.80,90.39 329.75,153.40 331.70,83.60 333.65,173.99 335.60,242.49 337.56,89.81 339.51,276.75 341.46,254.98 343.41,129.90 345.36,349.64 347.31,81.45 349.27,199.88 351.22,105.80 353.17,154.76 355.12,331.81 357.07,369.38 359.03,132.32 360.98,200.16 362.93,145.26 364.88,199.33 366.83,85.49 368.79,184.09 370.74,363.18 372.69,83.08 374.64,97.21 376.59,363.96 378.55,286.98 380.50,365.37 382.45,88.14 384.40,181.88 386.35,266.50 388.30,96.50 390.26,332.41 392.21,192.52 394.16,149.55 396.11,91.19 398.06,372.97 400.02,351.00 401.97,130.84 403.92,293.78 405.87,273.77 407.82,136.92 409.78,185.16 411.73,353.57 413.68,366.43 415.63,228.87 417.58,374.55 419.54,89.30 421.49,95.26 423.44,371.03 425.39,97.31 427.34,102.30 429.29,149.04 431.25,306.49 433.20,120.11 435.15,374.55 437.10,363.28 439.05,334.96 441.01,281.07 442.96,362.77 444.91,95.46 446.86,316.97 448.81,127.98 450.77,361.92 452.72,364.73 454.67,369.86 456.62,90.08 458.57,298.58 460.53,93.12 462.48,198.73 464.43,368.30 466.38,98.83 468.33,173.69 470.28,370.61 472.24,371.59 474.19,121.90 476.14,374.04 478.09,86.76 480.04,145.35 482.00,89.04 483.95,340.96 485.90,324.33 487.85,374.55 489.80,370.73 491.76,81.66 493.71,206.83 495.66,284.88 497.61,371.35 499.56,84.02 501.52,127.99 503.47,81.45 505.42,369.97 507.37,358.28 509.32,361.88 511.27,162.78 513.23,122.56 515.18,302.40 517.13,194.09 519.08,374.55 521.03,84.86 522.99,114.80 524.94,150.35 526.89,161.26 528.84,290.67 530.79,127.45 532.75,247.25 534.70,98.72 536.65,215.08 538.60,248.97 540.55,138.02 542.51,335.69 544.46,251.69 546.41,263.61 548.36,227.90 550.31,374.55 552.26,310.72 554.22,283.86 556.17,125.49 558.12,243.13 560.07,263.06 562.02,340.59 563.98,374.55 565.93,89.34 567.88,374.55 569.83,365.78 571.78,203.53 573.74,259.32 575.69,168.16 577.64,357.28 579.59,132.72 581.54,365.34 583.49,81.45 585.45,84.81 587.40,285.79 589.35,358.81 591.30,215.13 593.25,204.63 595.21,323.84 597.16,370.12 599.11,351.99 601.06,85.07 603.01,352.86 604.97,301.50 606.92,81.45 608.87,83.76 610.82,81.45 612.77,361.04 614.73,335.60 616.68,360.01 618.63,87.08 620.58,374.55 622.53,135.96 624.48,144.57 626.44,81.45 628.39,225.38 630.34,368.73 632.29,242.26 634.24,85.71 636.20,122.67 638.15,89.85 640.10,175.13 642.05,299.97 644.00,246.82 645.96,206.10 647.91,370.45 649.86,134.73 651.81,102.95 653.76,326.86 655.72,311.72 657.67,371.50 659.62,104.64 661.57,97.50 663.52,169.02 665.47,367.61 667.43,155.39 669.38,85.83 671.33,288.52 673.28,119.48 675.23,354.26 677.19,104.00 679.14,165.19 681.09,222.76 683.04,87.72 684.99,122.76 686.95,123.34 688.90,374.55 690.85,298.04 692.80,158.32 694.75,374.55 696.71,172.36 698.66,355.30 700.61,370.24 702.56,81.45 704.51,196.67 706.46,279.26 708.42,374.55 710.37,211.35 712.32,261.95 714.27,81.45 716.22,261.35 718.18,92.08 720.13,155.79 722.08,163.35 724.03,331.67 725.98,183.75 727.94,115.24 729.89,246.21 731.84,175.79 733.79,368.23 735.74,237.87 737.70,242.69 739.65,187.57 741.60,184.31 743.55,336.82 745.50,351.66 747.45,81.45 749.41,87.49 751.36,134.70 753.31,345.70 755.26,355.64 757.21,361.39 759.17,81.45 761.12,100.91 763.07,98.98 765.02,325.19 766.97,267.17 768.93,119.80 770.88,238.89 772.83,81.45 774.78,108.06 776.73,156.35 778.69,345.56 780.64,106.62 782.59,83.35 784.54,93.26 786.49,304.01 788.44,319.86 790.40,348.77 792.35,341.08 794.30,285.96 796.25,373.49 798.20,99.88 800.16,298.10 802.11,260.55 804.06,117.83 806.01,228.59 807.96,374.55 809.92,269.20 811.87,150.13 813.82,86.07 815.77,220.90 817.72,85.89 819.68,170.02 821.63,366.52 823.58,342.54 825.53,81.45 827.48,266.27 829.43,98.48 831.39,277.95 833.34,361.50 835.29,305.07 837.24,371.18 839.19,243.75 841.15,134.72 843.10,292.31 845.05,363.17 847.00,91.36 848.95,112.41 850.91,145.55 852.86,210.01 854.81,88.20 856.76,299.58 858.71,234.77 860.67,271.75 862.62,112.18 864.57,317.06 866.52,81.45 868.47,202.69 870.42,172.73 872.38,322.10 874.33,326.69 876.28,316.73 878.23,234.56 880.18,143.16 882.14,227.77 884.09,328.05 886.04,234.79 887.99,354.94 889.94,240.87 891.90,143.38 893.85,136.68 895.80,237.06 897.75,190.65 899.70,301.28 901.66,97.59 903.61,147.01 905.56,142.76 907.51,81.45 909.46,81.45 911.41,357.51 913.37,180.84 915.32,361.06 917.27,243.72 919.22,372.18 921.17,370.33 923.13,91.43 925.08,261.49 927.03,246.82 928.98,133.31 930.93,283.58 932.89,372.11 934.84,159.01 936.79,124.97 938.74,374.55 940.69,89.78 942.65,359.33 944.60,184.92 946.55,88.45 948.50,340.72 950.45,212.24 952.40,85.31 954.36,81.45 956.31,81.45 958.26,98.39 960.21,289.85 962.16,192.08 964.12,200.12 966.07,345.44 968.02,84.65 969.97,202.34 971.92,173.60 973.88,305.42 975.83,271.23 977.78,103.60 979.73,146.76 981.68,104.91 983.64,108.74 985.59,81.45 987.54,317.15 989.49,82.25 991.44,253.60 993.39,187.10 995.35,81.45 997.30,364.33 999.25,103.86 1001.20,150.16 1003.15,117.83 1005.11,121.95 1007.06,373.67 1009.01,89.40 1010.96,353.26 1012.91,231.32 1014.87,353.26 1016.82,81.45 1018.77,314.78 1020.72,122.11 1022.67,363.06 1024.63,145.15 1026.58,126.47 1028.53,272.86 1030.48,219.73 1032.43,313.99 1034.38,234.74 1036.34,365.37 1038.29,81.45 1040.24,97.69 1042.19,238.10 1044.14,178.15 1046.10,254.58 1048.05,354.72 1050.00,86.77" fill="none" stroke="#222222" stroke-width="1.6"/>
<polyline points="76.00,199.75 77.95,81.45 79.90,167.77 81.86,312.78 83.81,372.52 85.76,333.33 87.71,263.74 89.66,231.90 91.62,357.29 93.57,110.07 95.52,133.95 97.47,232.30 99.42,307.29 101.37,130.07 103.33,165.55 105.28,350.19 107.23,359.11 109.18,302.67 111.13,231.31 113.09,249.71 115.04,124.73 116.99,320.74 118.94,237.40 120.89,363.15 122.85,178.40 124.80,365.89 126.75,172.57 128.70,355.36 130.65,309.57 132.61,334.93 134.56,357.80 136.51,125.00 138.46,363.87 140.41,353.45 142.36,370.87 144.32,95.62 146.27,82.60 148.22,362.49 150.17,299.02 152.12,81.45 154.08,354.64 156.03,139.76 157.98,200.76 159.93,81.45 161.88,123.01 163.84,374.55 165.79,230.51 167.74,288.46 169.69,318.49 171.64,103.71 173.60,237.18 175.55,320.17 177.50,374.55 179.45,81.45 181.40,234.77 183.35,364.17 185.31,322.98 187.26,373.10 189.21,209.87 191.16,150.84 193.11,213.16 195.07,121.73 197.02,316.16 198.97,102.46 200.92,137.65 202.87,164.91 204.83,97.70 206.78,369.01 208.73,131.27 210.68,130.50 212.63,332.10 214.59,345.74 216.54,103.05 218.49,374.55 220.44,218.69 222.39,178.32 224.34,87.57 226.30,227.36 228.25,359.26 230.20,258.08 232.15,89.20 234.10,94.46 236.06,319.21 238.01,87.43 239.96,89.23 241.91,85.84 243.86,83.63 245.82,137.66 247.77,86.79 249.72,117.17 251.67,240.30 253.62,82.05 255.58,371.49 257.53,256.06 259.48,82.13 261.43,367.90 263.38,328.98 265.33,342.59 267.29,278.10 269.24,323.93 271.19,343.88 273.14,95.46 275.09,312.70 277.05,356.60 279.00,82.69 280.95,366.43 282.90,277.86 284.85,315.93 286.81,89.23 288.76,93.20 290.71,163.95 292.66,276.30 294.61,323.02 296.57,86.50 298.52,303.57 300.47,143.25 302.42,96.58 304.37,289.92 306.32,223.60 308.28,346.31 310.23,116.86 312.18,314.60 314.13,201.94 316.08,374.55 318.04,136.46 319.99,366.94 321.94,90.25 323.89,168.02 325.84,105.75 327.80,219.11 329.75,297.44 331.70,231.51 333.65,323.86 335.60,344.65 337.56,254.88 339.51,345.34 341.46,115.81 343.41,290.83 345.36,361.70 347.31,240.23 349.27,133.31 351.22,261.58 353.17,150.93 355.12,85.78 357.07,374.55 359.03,167.73 360.98,324.69 362.93,173.59 364.88,308.35 366.83,207.19 368.79,315.65 370.74,86.39 372.69,219.61 374.64,249.76 376.59,84.05 378.55,106.60 380.50,82.22 382.45,208.54 384.40,138.97 386.35,105.82 388.30,199.23 390.26,81.45 392.21,317.57 394.16,160.36 396.11,258.64 398.06,373.28 400.02,84.49 401.97,289.18 403.92,348.35 405.87,113.21 407.82,158.45 409.78,304.68 411.73,374.55 413.68,81.45 415.63,333.73 417.58,373.95 419.54,236.83 421.49,201.78 423.44,81.45 425.39,188.85 427.34,263.80 429.29,156.28 431.25,96.97 433.20,165.23 435.15,374.55 437.10,90.45 439.05,94.47 441.01,343.92 442.96,81.45 444.91,260.72 446.86,102.02 448.81,279.74 450.77,374.55 452.72,91.36 454.67,370.90 456.62,243.26 458.57,99.59 460.53,255.18 462.48,130.14 464.43,81.45 466.38,205.14 468.33,145.22 470.28,374.55 472.24,90.28 474.19,175.95 476.14,373.77 478.09,206.28 480.04,293.94 482.00,195.37 483.95,359.87 485.90,361.89 487.85,369.75 489.80,374.36 491.76,206.95 493.71,122.36 495.66,341.81 497.61,95.89 499.56,217.34 501.52,293.32 503.47,225.51 505.42,372.78 507.37,372.81 509.32,88.88 511.27,296.00 513.23,265.76 515.18,354.22 517.13,123.25 519.08,90.37 521.03,212.08 522.99,277.30 524.94,301.82 526.89,149.38 528.84,103.53 530.79,171.23 532.75,338.48 534.70,265.23 536.65,133.13 538.60,341.48 540.55,297.23 542.51,81.45 544.46,342.76 546.41,109.17 548.36,122.36 550.31,373.81 552.26,357.16 554.22,346.77 556.17,277.95 558.12,337.04 560.07,334.46 562.02,102.97 563.98,366.21 565.93,203.42 567.88,81.45 569.83,366.29 571.78,329.26 573.74,334.02 575.69,146.02 577.64,92.72 579.59,164.44 581.54,359.90 583.49,227.71 585.45,205.74 587.40,103.72 589.35,82.60 591.30,124.02 593.25,321.60 595.21,94.53 597.16,374.55 599.11,374.55 601.06,227.38 603.01,372.21 604.97,345.76 606.92,234.97 608.87,211.88 610.82,227.79 612.77,374.55 614.73,362.61 616.68,366.86 618.63,260.55 620.58,81.45 622.53,291.32 624.48,159.90 626.44,219.54 628.39,130.52 630.34,374.55 632.29,127.36 634.24,218.19 636.20,278.38 638.15,248.96 640.10,137.56 642.05,98.49 644.00,332.70 645.96,321.63 647.91,81.45 649.86,296.04 651.81,267.12 653.76,102.92 655.72,348.47 657.67,82.42 659.62,189.06 661.57,189.17 663.52,142.11 665.47,84.39 667.43,297.26 669.38,227.37 671.33,350.95 673.28,291.69 675.23,365.23 677.19,265.05 679.14,297.34 681.09,143.23 683.04,209.78 684.99,179.93 686.95,289.94 688.90,373.18 690.85,102.40 692.80,146.44 694.75,84.89 696.71,307.67 698.66,91.40 700.61,81.45 702.56,210.01 704.51,326.03 706.46,100.84 708.42,82.26 710.37,332.50 712.32,349.54 714.27,230.43 716.22,338.78 718.18,232.41 720.13,300.15 722.08,146.78 724.03,93.74 725.98,325.95 727.94,181.96 729.89,121.94 731.84,307.46 733.79,88.70 735.74,342.36 737.70,336.54 739.65,144.26 741.60,144.66 743.55,91.14 745.50,366.54 747.45,202.07 749.41,221.10 751.36,291.53 753.31,370.09 755.26,81.45 757.21,93.17 759.17,219.66 761.12,265.58 763.07,204.06 765.02,362.63 766.97,337.86 768.93,182.42 770.88,334.37 772.83,243.02 774.78,270.49 776.73,168.80 778.69,93.68 780.64,260.22 782.59,242.36 784.54,263.32 786.49,96.66 788.44,89.22 790.40,374.55 792.35,92.15 794.30,346.39 796.25,81.45 798.20,193.35 800.16,96.84 802.11,118.15 804.06,175.51 806.01,332.50 807.96,373.42 809.92,105.14 811.87,290.24 813.82,247.35 815.77,125.53 817.72,235.88 819.68,304.46 821.63,374.55 823.58,85.14 825.53,229.61 827.48,347.76 829.43,189.02 831.39,117.03 833.34,87.83 835.29,108.66 837.24,86.31 839.19,125.21 841.15,168.33 843.10,353.88 845.05,81.45 847.00,240.91 848.95,288.75 850.91,155.36 852.86,134.69 854.81,196.13 856.76,107.68 858.71,119.45 860.67,344.37 862.62,185.30 864.57,102.03 866.52,222.58 868.47,322.97 870.42,145.47 872.38,86.26 874.33,358.64 876.28,359.19 878.23,331.47 880.18,301.60 882.14,123.82 884.09,362.71 886.04,334.23 887.99,374.55 889.94,115.32 891.90,298.22 893.85,165.28 895.80,331.26 897.75,318.61 899.70,92.84 901.66,203.36 903.61,299.45 905.56,165.08 907.51,204.58 909.46,232.40 911.41,371.93 913.37,141.16 915.32,81.45 917.27,119.55 919.22,373.88 921.17,88.46 923.13,244.11 925.08,107.57 927.03,117.64 928.98,168.01 930.93,357.09 932.89,366.48 934.84,152.97 936.79,284.63 938.74,374.55 940.69,218.15 942.65,81.45 944.60,138.45 946.55,227.70 948.50,364.13 950.45,331.74 952.40,218.97 954.36,244.20 956.31,244.65 958.26,199.65 960.21,102.95 962.16,319.11 964.12,138.77 966.07,89.77 968.02,220.76 969.97,323.01 971.92,147.86 973.88,109.34 975.83,112.71 977.78,185.83 979.73,163.67 981.68,181.91 983.64,169.00 985.59,227.36 987.54,357.17 989.49,213.14 991.44,115.32 993.39,317.14 995.35,224.75 997.30,366.09 999.25,188.78 1001.20,151.27 1003.15,185.51 1005.11,176.73 1007.06,374.55 1009.01,200.57 1010.96,367.11 1012.91,124.42 1014.87,363.29 1016.82,239.47 1018.77,101.75 1020.72,282.55 1022.67,371.31 1024.63,294.44 1026.58,271.30 1028.53,336.91 1030.48,125.85 1032.43,362.45 1034.38,122.46 1036.34,371.09 1038.29,211.51 1040.24,258.80 1042.19,128.06 1044.14,316.16 1046.10,110.22 1048.05,89.97 1050.00,243.72" fill="none" stroke="#6f7f8f" stroke-width="1.6"/>
<polyline points="76.00,227.95 77.95,227.95 79.90,227.95 81.86,227.95 83.81,227.95 85.76,227.95 87.71,227.95 89.66,227.95 91.62,227.95 93.57,227.95 95.52,227.95 97.47,227.95 99.42,227.95 101.37,227.95 103.33,227.95 105.28,227.95 107.23,227.95 109.18,227.95 111.13,227.95 113.09,227.95 115.04,227.95 116.99,227.95 118.94,227.95 120.89,227.95 122.85,227.95 124.80,227.95 126.75,227.95 128.70,227.95 130.65,227.95 132.61,227.95 134.56,227.95 136.51,227.95 138.46,227.95 140.41,227.95 142.36,227.95 144.32,227.95 146.27,227.95 148.22,227.95 150.17,227.95 152.12,227.95 154.08,227.95 156.03,227.95 157.98,227.95 159.93,227.95 161.88,227.95 163.84,227.95 165.79,227.95 167.74,227.95 169.69,227.95 171.64,227.95 173.60,227.95 175.55,227.95 177.50,227.95 179.45,227.95 181.40,227.95 183.35,227.95 185.31,227.95 187.26,227.95 189.21,227.95 191.16,227.95 193.11,227.95 195.07,227.95 197.02,227.95 198.97,227.95 200.92,227.95 202.87,227.95 204.83,227.95 206.78,227.95 208.73,227.95 210.68,227.95 212.63,227.95 214.59,227.95 216.54,227.95 218.49,227.95 220.44,227.95 222.39,227.95 224.34,227.95 226.30,227.95 228.25,227.95 230.20,227.95 232.15,227.95 234.10,227.95 236.06,227.95 238.01,227.95 239.96,227.95 241.91,227.95 243.86,227.95 245.82,227.95 247.77,227.95 249.72,227.95 251.67,227.95 253.62,227.95 255.58,227.95 257.53,227.95 259.48,227.95 261.43,227.95 263.38,227.95 265.33,227.95 267.29,227.95 269.24,227.95 271.19,227.95 273.14,227.95 275.09,227.95 277.05,227.95 279.00,227.95 280.95,227.95 282.90,227.95 284.85,227.95 286.81,227.95 288.76,227.95 290.71,227.95 292.66,227.95 294.61,227.95 296.57,227.95 298.52,227.95 300.47,227.95 302.42,227.95 304.37,227.95 306.32,227.95 308.28,227.95 310.23,227.95 312.18,227.95 314.13,227.95 316.08,227.95 318.04,227.95 319.99,227.95 321.94,227.95 323.89,227.95 325.84,227.95 327.80,227.95 329.75,227.95 331.70,227.95 333.65,227.95 335.60,227.95 337.56,227.95 339.51,227.95 341.46,227.95 343.41,227.95 345.36,227.95 347.31,227.95 349.27,227.95 351.22,227.95 353.17,227.95 355.12,227.95 357.07,227.95 359.03,227.95 360.98,227.95 362.93,227.95 364.88,227.95 366.83,227.95 368.79,227.95 370.74,227.95 372.69,227.95 374.64,227.95 376.59,227.95 378.55,227.95 380.50,227.95 382.45,227.95 384.40,227.95 386.35,227.95 388.30,227.95 390.26,227.95 392.21,227.95 394.16,227.95 396.11,227.95 398.06,227.95 400.02,227.95 401.97,227.95 403.92,227.95 405.87,227.95 407.82,227.95 409.78,227.95 411.73,227.95 413.68,227.95 415.63,227.95 417.58,227.95 419.54,227.95 421.49,227.95 423.44,227.95 425.39,227.95 427.34,227.95 429.29,227.95 431.25,227.95 433.20,227.95 435.15,227.95 437.10,227.95 439.05,227.95 441.01,227.95 442.96,227.95 444.91,227.95 446.86,227.95 448.81,227.95 450.77,227.95 452.72,227.95 454.67,227.95 456.62,227.95 458.57,227.95 460.53,227.95 462.48,227.95 464.43,227.95 466.38,227.95 468.33,227.95 470.28,227.95 472.24,227.95 474.19,227.95 476.14,227.95 478.09,227.95 480.04,227.95 482.00,227.95 483.95,227.95 485.90,227.95 487.85,227.95 489.80,227.95 491.76,227.95 493.71,227.95 495.66,227.95 497.61,227.95 499.56,227.95 501.52,227.95 503.47,227.95 505.42,227.95 507.37,227.95 509.32,227.95 511.27,227.95 513.23,227.95 515.18,227.95 517.13,227.95 519.08,227.95 521.03,227.95 522.99,227.95 524.94,227.95 526.89,227.95 528.84,227.95 530.79,227.95 532.75,227.95 534.70,227.95 536.65,227.95 538.60,227.95 540.55,227.95 542.51,227.95 544.46,227.95 546.41,227.95 548.36,227.95 550.31,227.95 552.26,227.95 554.22,227.95 556.17,227.95 558.12,227.95 560.07,227.95 562.02,227.95 563.98,227.95 565.93,227.95 567.88,227.95 569.83,227.95 571.78,227.95 573.74,227.95 575.69,227.95 577.64,227.95 579.59,227.95 581.54,227.95 583.49,227.95 585.45,227.95 587.40,227.95 589.35,227.95 591.30,227.95 593.25,227.95 595.21,227.95 597.16,227.95 599.11,227.95 601.06,227.95 603.01,227.95 604.97,227.95 606.92,227.95 608.87,227.95 610.82,227.95 612.77,227.95 614.73,227.95 616.68,227.95 618.63,227.95 620.58,227.95 622.53,227.95 624.48,227.95 626.44,227.95 628.39,227.95 630.34,227.95 632.29,227.95 634.24,227.95 636.20,227.95 638.15,227.95 640.10,227.95 642.05,227.95 644.00,227.95 645.96,227.95 647.91,227.95 649.86,227.95 651.81,227.95 653.76,227.95 655.72,227.95 657.67,227.95 659.62,227.95 661.57,227.95 663.52,227.95 665.47,227.95 667.43,227.95 669.38,227.95 671.33,227.95 673.28,227.95 675.23,227.95 677.19,227.95 679.14,227.95 681.09,227.95 683.04,227.95 684.99,227.95 686.95,227.95 688.90,227.95 690.85,227.95 692.80,227.95 694.75,227.95 696.71,227.95 698.66,227.95 700.61,227.95 702.56,227.95 704.51,227.95 706.46,227.95 708.42,227.95 710.37,227.95 712.32,227.95 714.27,227.95 716.22,227.95 718.18,227.95 720.13,227.95 722.08,227.95 724.03,227.95 725.98,227.95 727.94,227.95 729.89,227.95 731.84,227.95 733.79,227.95 735.74,227.95 737.70,227.95 739.65,227.95 741.60,227.95 743.55,227.95 745.50,227.95 747.45,227.95 749.41,227.95 751.36,227.95 753.31,227.95 755.26,227.95 757.21,227.95 759.17,227.95 761.12,227.95 763.07,227.95 765.02,227.95 766.97,227.95 768.93,227.95 770.88,227.95 772.83,227.95 774.78,227.95 776.73,227.95 778.69,227.95 780.64,227.95 782.59,227.95 784.54,227.95 786.49,227.95 788.44,227.95 790.40,227.95 792.35,227.95 794.30,227.95 796.25,227.95 798.20,227.95 800.16,227.95 802.11,227.95 804.06,227.95 806.01,227.95 807.96,227.95 809.92,227.95 811.87,227.95 813.82,227.95 815.77,227.95 817.72,227.95 819.68,227.95 821.63,227.95 823.58,227.95 825.53,227.95 827.48,227.95 829.43,227.95 831.39,227.95 833.34,227.95 835.29,227.95 837.24,227.95 839.19,227.95 841.15,227.95 843.10,227.95 845.05,227.95 847.00,227.95 848.95,227.95 850.91,227.95 852.86,227.95 854.81,227.95 856.76,227.95 858.71,227.95 860.67,227.95 862.62,227.95 864.57,227.95 866.52,227.95 868.47,227.95 870.42,227.95 872.38,227.95 874.33,227.95 876.28,227.95 878.23,227.95 880.18,227.95 882.14,227.95 884.09,227.95 886.04,227.95 887.99,227.95 889.94,227.95 891.90,227.95 893.85,227.95 895.80,227.95 897.75,227.95 899.70,227.95 901.66,227.95 903.61,227.95 905.56,227.95 907.51,227.95 909.46,227.95 911.41,227.95 913.37,227.95 915.32,227.95 917.27,227.95 919.22,227.95 921.17,227.95 923.13,227.95 925.08,227.95 927.03,227.95 928.98,227.95 930.93,227.95 932.89,227.95 934.84,227.95 936.79,227.95 938.74,227.95 940.69,227.95 942.65,227.95 944.60,227.95 946.55,227.95 948.50,227.95 950.45,227.95 952.40,227.95 954.36,227.95 956.31,227.95 958.26,227.95 960.21,227.95 962.16,227.95 964.12,227.95 966.07,227.95 968.02,227.95 969.97,227.95 971.92,227.95 973.88,227.95 975.83,227.95 977.78,227.95 979.73,227.95 981.68,227.95 983.64,227.95 985.59,227.95 987.54,227.95 989.49,227.95 991.44,227.95 993.39,227.95 995.35,227.95 997.30,227.95 999.25,227.95 1001.20,227.95 1003.15,227.95 1005.11,227.95 1007.06,227.95 1009.01,227.95 1010.96,227.95 1012.91,227.95 1014.87,227.95 1016.82,227.95 1018.77,227.95 1020.72,227.95 1022.67,227.95 1024.63,227.95 1026.58,227.95 1028.53,227.95 1030.48,227.95 1032.43,227.95 1034.38,227.95 1036.34,227.95 1038.29,227.95 1040.24,227.95 1042.19,227.95 1044.14,227.95 1046.10,227.95 1048.05,227.95 1050.00,227.95" fill="none" stroke="#2a6fbb" stroke-width="1.6"/>
<polyline points="76.00,98.21 77.95,316.20 79.90,175.09 81.86,259.04 83.81,334.49 85.76,209.07 87.71,120.81 89.66,96.91 91.62,328.19 93.57,319.15 95.52,281.97 97.47,94.94 99.42,190.22 101.37,233.67 103.33,150.77 105.28,321.72 107.23,316.68 109.18,176.94 111.13,93.73 113.09,105.66 115.04,277.15 116.99,291.68 118.94,91.24 120.89,319.46 122.85,139.55 124.80,334.52 126.75,125.92 128.70,274.48 130.65,167.21 132.61,236.41 134.56,330.87 136.51,207.49 138.46,324.73 140.41,288.19 142.36,333.79 144.32,328.45 146.27,331.25 148.22,348.09 150.17,135.27 152.12,353.33 154.08,311.86 156.03,266.43 157.98,90.15 159.93,321.52 161.88,228.51 163.84,352.12 165.79,91.72 167.74,134.14 169.69,218.07 171.64,271.94 173.60,88.16 175.55,281.16 177.50,330.05 179.45,340.15 181.40,86.41 183.35,352.99 185.31,234.02 187.26,296.64 189.21,100.24 191.16,177.97 193.11,84.29 195.07,293.50 197.02,197.99 198.97,292.34 200.92,200.68 202.87,146.26 204.83,289.59 206.78,331.72 208.73,284.00 210.68,235.08 212.63,256.44 214.59,287.97 216.54,352.70 218.49,345.09 220.44,91.43 222.39,117.45 224.34,313.11 226.30,90.78 228.25,312.23 230.20,107.36 232.15,310.93 234.10,330.79 236.06,248.90 238.01,306.89 239.96,339.26 241.91,316.54 243.86,321.29 245.82,258.26 247.77,299.47 249.72,276.57 251.67,94.03 253.62,333.65 255.58,338.78 257.53,99.47 259.48,327.43 261.43,305.01 263.38,227.72 265.33,323.10 267.29,116.31 269.24,193.27 271.19,261.29 273.14,335.94 275.09,195.91 277.05,315.12 279.00,314.14 280.95,351.21 282.90,122.79 284.85,233.01 286.81,318.27 288.76,327.08 290.71,181.59 292.66,119.07 294.61,191.90 296.57,317.99 298.52,134.26 300.47,189.81 302.42,303.86 304.37,168.21 306.32,91.71 308.28,338.96 310.23,278.72 312.18,172.85 314.13,103.11 316.08,323.49 318.04,230.36 319.99,325.48 321.94,316.17 323.89,143.17 325.84,336.79 327.80,85.35 329.75,119.29 331.70,87.89 333.65,229.07 335.60,262.94 337.56,102.62 339.51,327.78 341.46,249.13 343.41,128.38 345.36,299.30 347.31,98.99 349.27,248.66 351.22,104.07 353.17,131.14 355.12,288.21 357.07,324.86 359.03,150.07 360.98,225.40 362.93,133.11 364.88,207.02 366.83,94.20 368.79,233.86 370.74,334.72 372.69,90.98 374.64,91.56 376.59,358.04 378.55,347.13 380.50,347.67 382.45,88.29 384.40,223.32 386.35,333.11 388.30,106.71 390.26,340.35 392.21,217.60 394.16,158.45 396.11,112.71 398.06,303.45 400.02,357.21 401.97,135.23 403.92,316.22 405.87,213.85 407.82,138.73 409.78,125.54 411.73,323.24 413.68,358.20 415.63,306.57 417.58,347.14 419.54,91.88 421.49,94.20 423.44,339.38 425.39,98.87 427.34,103.17 429.29,129.86 431.25,306.78 433.20,153.10 435.15,359.62 437.10,338.75 439.05,315.39 441.01,233.62 442.96,302.83 444.91,96.75 446.86,313.13 448.81,148.79 450.77,307.31 452.72,324.97 454.67,349.60 456.62,96.46 458.57,302.83 460.53,95.84 462.48,188.50 464.43,330.87 466.38,94.59 468.33,244.96 470.28,340.16 472.24,328.31 474.19,120.50 476.14,312.75 478.09,103.45 480.04,152.11 482.00,110.67 483.95,329.11 485.90,344.96 487.85,318.37 489.80,313.22 491.76,101.56 493.71,283.12 495.66,263.31 497.61,314.91 499.56,90.82 501.52,169.83 503.47,89.79 505.42,326.27 507.37,322.63 509.32,315.00 511.27,158.57 513.23,127.37 515.18,322.76 517.13,227.93 519.08,362.54 521.03,87.00 522.99,145.17 524.94,132.05 526.89,166.16 528.84,346.23 530.79,139.61 532.75,239.83 534.70,114.18 536.65,203.27 538.60,259.83 540.55,153.08 542.51,315.44 544.46,254.15 546.41,306.04 548.36,252.04 550.31,338.54 552.26,321.77 554.22,288.28 556.17,112.50 558.12,285.52 560.07,248.99 562.02,288.87 563.98,335.37 565.93,93.18 567.88,319.98 569.83,311.18 571.78,236.79 573.74,319.17 575.69,197.87 577.64,335.91 579.59,151.83 581.54,288.23 583.49,87.88 585.45,109.04 587.40,325.10 589.35,299.30 591.30,257.91 593.25,205.55 595.21,266.95 597.16,354.65 599.11,336.61 601.06,87.22 603.01,331.81 604.97,302.61 606.92,83.64 608.87,93.34 610.82,92.60 612.77,329.01 614.73,337.53 616.68,339.96 618.63,113.85 620.58,338.40 622.53,175.55 624.48,159.26 626.44,81.45 628.39,237.87 630.34,343.48 632.29,233.03 634.24,94.68 636.20,120.31 638.15,96.33 640.10,222.74 642.05,289.93 644.00,234.20 645.96,304.77 647.91,343.86 649.86,146.37 651.81,107.25 653.76,276.76 655.72,282.20 657.67,352.90 659.62,86.79 661.57,118.73 663.52,238.46 665.47,301.37 667.43,142.26 669.38,87.80 671.33,275.56 673.28,156.49 675.23,293.05 677.19,124.66 679.14,175.02 681.09,205.89 683.04,101.63 684.99,127.33 686.95,159.21 688.90,325.39 690.85,254.77 692.80,145.90 694.75,305.69 696.71,164.55 698.66,355.64 700.61,338.31 702.56,86.75 704.51,316.63 706.46,284.51 708.42,320.19 710.37,239.07 712.32,308.90 714.27,87.59 716.22,239.11 718.18,94.46 720.13,144.31 722.08,160.60 724.03,366.47 725.98,228.49 727.94,112.92 729.89,273.24 731.84,160.27 733.79,290.55 735.74,256.60 737.70,314.56 739.65,192.92 741.60,146.41 743.55,317.64 745.50,341.38 747.45,92.15 749.41,85.58 751.36,146.37 753.31,353.87 755.26,341.19 757.21,319.78 759.17,90.64 761.12,120.43 763.07,95.63 765.02,309.70 766.97,253.39 768.93,95.87 770.88,209.34 772.83,84.82 774.78,126.77 776.73,121.38 778.69,280.48 780.64,99.15 782.59,92.79 784.54,105.76 786.49,296.21 788.44,318.05 790.40,327.49 792.35,317.41 794.30,274.55 796.25,303.25 798.20,100.71 800.16,321.79 802.11,305.96 804.06,112.34 806.01,313.09 807.96,286.65 809.92,293.56 811.87,186.01 813.82,93.31 815.77,301.37 817.72,84.89 819.68,154.37 821.63,312.05 823.58,304.11 825.53,88.23 827.48,305.93 829.43,107.59 831.39,251.56 833.34,306.56 835.29,290.52 837.24,341.84 839.19,264.97 841.15,131.48 843.10,309.77 845.05,338.73 847.00,85.44 848.95,142.21 850.91,132.26 852.86,244.47 854.81,103.75 856.76,288.60 858.71,281.76 860.67,296.31 862.62,123.75 864.57,273.30 866.52,89.81 868.47,246.95 870.42,193.52 872.38,322.95 874.33,339.40 876.28,315.04 878.23,254.55 880.18,183.93 882.14,222.23 884.09,311.59 886.04,259.19 887.99,339.00 889.94,251.91 891.90,175.57 893.85,138.25 895.80,233.80 897.75,195.36 899.70,325.37 901.66,86.26 903.61,158.76 905.56,129.37 907.51,83.99 909.46,89.08 911.41,345.56 913.37,159.36 915.32,353.52 917.27,221.76 919.22,306.75 921.17,356.35 923.13,87.43 925.08,293.01 927.03,259.20 928.98,134.81 930.93,292.56 932.89,361.11 934.84,161.08 936.79,124.60 938.74,325.58 940.69,84.25 942.65,330.76 944.60,213.41 946.55,90.03 948.50,329.15 950.45,242.62 952.40,85.62 954.36,86.41 956.31,95.04 958.26,103.93 960.21,314.84 962.16,190.27 964.12,167.13 966.07,339.17 968.02,90.26 969.97,239.49 971.92,191.27 973.88,306.76 975.83,270.40 977.78,116.45 979.73,206.99 981.68,115.49 983.64,146.25 985.59,91.89 987.54,299.91 989.49,98.73 991.44,283.69 993.39,213.15 995.35,92.31 997.30,297.65 999.25,104.23 1001.20,160.38 1003.15,109.24 1005.11,122.85 1007.06,341.12 1009.01,97.40 1010.96,332.01 1012.91,256.78 1014.87,330.20 1016.82,88.61 1018.77,270.77 1020.72,137.27 1022.67,328.02 1024.63,155.27 1026.58,109.65 1028.53,287.41 1030.48,272.71 1032.43,325.77 1034.38,267.53 1036.34,306.69 1038.29,93.20 1040.24,97.92 1042.19,243.20 1044.14,214.52 1046.10,320.34 1048.05,334.01 1050.00,92.04" fill="none" stroke="#b45f06" stroke-width="1.6"/>
<g><line x1="870.00" y1="28.00" x2="898.00" y2="28.00" stroke="#222222" stroke-width="2"/><text x="906.00" y="32.00" font-family="Arial, sans-serif" font-size="12">real</text></g>
<g><line x1="870.00" y1="46.00" x2="898.00" y2="46.00" stroke="#6f7f8f" stroke-width="2"/><text x="906.00" y="50.00" font-family="Arial, sans-serif" font-size="12">persistencia</text></g>
<g><line x1="870.00" y1="64.00" x2="898.00" y2="64.00" stroke="#2a6fbb" stroke-width="2"/><text x="906.00" y="68.00" font-family="Arial, sans-serif" font-size="12">AR(0) / media</text></g>
<g><line x1="870.00" y1="82.00" x2="898.00" y2="82.00" stroke="#b45f06" stroke-width="2"/><text x="906.00" y="86.00" font-family="Arial, sans-serif" font-size="12">kNN k=5</text></g>
<line x1="76.00" y1="398.00" x2="76.00" y2="403.00" stroke="#222222"/>
<text x="76.00" y="422" text-anchor="middle" font-family="Arial, sans-serif" font-size="10">8800</text>
<line x1="319.99" y1="398.00" x2="319.99" y2="403.00" stroke="#222222"/>
<text x="319.99" y="422" text-anchor="middle" font-family="Arial, sans-serif" font-size="10">9351</text>
<line x1="563.98" y1="398.00" x2="563.98" y2="403.00" stroke="#222222"/>
<text x="563.98" y="422" text-anchor="middle" font-family="Arial, sans-serif" font-size="10">9901</text>
<line x1="807.96" y1="398.00" x2="807.96" y2="403.00" stroke="#222222"/>
<text x="807.96" y="422" text-anchor="middle" font-family="Arial, sans-serif" font-size="10">10452</text>
<line x1="1050.00" y1="398.00" x2="1050.00" y2="403.00" stroke="#222222"/>
<text x="1050.00" y="422" text-anchor="middle" font-family="Arial, sans-serif" font-size="10">10998</text>
<text x="563.00" y="450" text-anchor="middle" font-family="Arial, sans-serif" font-size="13">t</text>
<text transform="translate(18,228.0) rotate(-90)" text-anchor="middle" font-family="Arial, sans-serif" font-size="13">x[t+1]</text>
</svg>