<svg xmlns="http://www.w3.org/2000/svg" width="1240" height="660" viewBox="0 0 1240 660">
<rect x="0" y="0" width="1240" height="660" fill="#ffffff"/>
<text x="620.0" y="28" text-anchor="middle" font-family="Arial, sans-serif" font-size="18" font-weight="700">Mapa logistico: ejemplos de series</text>
<rect x="204" y="60.00" width="1008.00" height="153.33" fill="none" stroke="#222222"/>
<line x1="204" y1="213.33" x2="1212.00" y2="213.33" stroke="#eeeeee"/>
<text x="196" y="217.33" text-anchor="end" font-family="Arial, sans-serif" font-size="10">-0.08</text>
<line x1="204" y1="136.67" x2="1212.00" y2="136.67" stroke="#eeeeee"/>
<text x="196" y="140.67" text-anchor="end" font-family="Arial, sans-serif" font-size="10">0.5</text>
<line x1="204" y1="60.00" x2="1212.00" y2="60.00" stroke="#eeeeee"/>
<text x="196" y="64.00" text-anchor="end" font-family="Arial, sans-serif" font-size="10">1.08</text>
<polyline points="204.00,179.11 206.53,125.09 209.05,74.63 211.58,187.03 214.11,147.33 216.63,74.01 219.16,189.36 221.68,154.60 224.21,80.31 226.74,166.69 229.26,97.85 231.79,116.17 234.32,83.29 236.84,156.78 239.37,82.82 241.89,158.33 244.42,84.77 246.95,152.07 249.47,77.75 252.00,175.61 254.53,116.46 257.05,82.93 259.58,157.97 262.11,84.31 264.63,153.52 267.16,79.17 269.68,170.61 272.21,105.43 274.74,100.09 277.26,111.05 279.79,90.43 282.32,135.27 284.84,70.63 287.37,202.52 289.89,201.82 292.42,199.02 294.95,188.22 297.47,151.00 300.00,76.79 302.53,179.06 305.05,124.96 307.58,74.72 310.11,186.70 312.63,146.33 315.16,73.40 317.68,191.69 320.21,162.18 322.74,90.28 325.26,135.70 327.79,70.60 330.32,202.65 332.84,202.31 335.37,200.96 337.89,195.67 340.42,175.93 342.95,117.22 345.47,82.02 348.00,160.94 350.53,88.40 353.05,141.07 355.58,71.16 358.11,200.42 360.63,193.56 363.16,168.53 365.68,101.30 368.21,108.42 370.74,94.71 373.26,123.84 375.79,75.55 378.32,183.59 380.84,137.20 383.37,70.58 385.89,202.72 388.42,202.62 390.95,202.20 393.47,200.53 396.00,193.99 398.53,170.02 401.05,104.24 403.58,102.39 406.11,106.12 408.63,98.81 411.16,113.95 413.68,86.19 416.21,147.67 418.74,74.24 421.26,188.50 423.79,151.87 426.32,77.57 428.84,176.25 431.37,118.00 433.89,81.12 436.42,163.93 438.95,93.07 441.47,128.09 444.00,72.80 446.53,194.01 449.05,170.09 451.58,104.37 454.11,102.14 456.63,106.65 459.16,97.84 461.68,116.20 464.21,83.25 466.74,156.92 469.26,82.99 471.79,157.75 474.32,84.03 476.84,154.43 479.37,80.12 481.89,167.33 484.42,99.02 486.95,113.46 489.47,86.87 492.00,145.62 494.53,73.00 497.05,193.23 499.58,167.40 502.11,99.16 504.63,113.15 507.16,87.31 509.68,144.29 512.21,72.33 514.74,195.81 517.26,176.43 519.79,118.42 522.32,80.65 524.84,165.53 527.37,95.79 529.89,121.13 532.42,77.88 534.95,175.17 537.47,115.43 540.00,84.23 542.53,153.79 545.05,79.45 547.58,169.64 550.11,103.48 552.63,103.90 555.16,103.06 557.68,104.76 560.21,101.39 562.74,108.24 565.26,95.04 567.79,123.02 570.32,76.21 572.84,181.18 575.37,130.53 577.89,71.71 580.42,198.24 582.95,185.30 585.47,142.14 588.00,71.48 590.53,199.16 593.05,188.75 595.58,152.67 598.11,78.32 600.63,173.59 603.16,111.83 605.68,89.24 608.21,138.65 610.74,70.69 613.26,202.28 615.79,200.86 618.32,195.25 620.84,174.44 623.37,113.76 625.89,86.45 628.42,146.88 630.95,73.73 633.47,190.44 636.00,158.08 638.53,84.45 641.05,153.08 643.58,78.73 646.11,172.16 648.63,108.70 651.16,94.24 653.68,125.04 656.21,74.67 658.74,186.90 661.26,146.94 663.79,73.77 666.32,190.29 668.84,157.59 671.37,83.82 673.89,155.09 676.42,80.84 678.95,164.88 681.47,94.66 684.00,123.96 686.53,75.46 689.05,183.95 691.58,138.22 694.11,70.65 696.63,202.47 699.16,201.59 701.68,198.13 704.21,184.87 706.74,140.90 709.26,71.12 711.79,200.60 714.32,194.26 716.84,170.94 719.37,106.13 721.89,98.80 724.42,113.96 726.95,86.17 729.47,147.74 732.00,74.28 734.53,188.34 737.05,151.39 739.58,77.13 742.11,177.83 744.63,121.84 747.16,77.23 749.68,177.49 752.21,121.01 754.74,77.99 757.26,174.75 759.79,114.46 762.32,85.50 764.84,149.80 767.37,75.80 769.89,182.69 772.42,134.68 774.95,70.69 777.47,202.28 780.00,200.85 782.53,195.24 785.05,174.38 787.58,113.61 790.11,86.66 792.63,146.26 795.16,73.36 797.68,191.85 800.21,162.73 802.74,91.13 805.26,133.33 807.79,70.91 810.32,201.42 812.84,197.44 815.37,182.36 817.89,133.74 820.42,70.83 822.95,201.73 825.47,198.66 828.00,186.89 830.53,146.89 833.05,73.74 835.58,190.40 838.11,157.95 840.63,84.28 843.16,153.63 845.68,79.28 848.21,170.24 850.74,104.68 853.26,101.54 855.79,107.91 858.32,95.59 860.84,121.63 863.37,77.42 865.89,176.79 868.42,119.30 870.95,79.70 873.47,168.77 876.00,101.75 878.53,107.46 881.05,96.39 883.58,119.68 886.11,79.31 888.63,170.12 891.16,104.44 893.68,102.00 896.21,106.95 898.74,97.30 901.26,117.48 903.79,81.71 906.32,161.96 908.84,89.93 911.37,136.68 913.89,70.57 916.42,202.76 918.95,202.76 921.47,202.76 924.00,202.76 926.53,202.75 929.05,202.74 931.58,202.67 934.11,202.39 936.63,201.30 939.16,197.00 941.68,180.74 944.21,129.36 946.74,72.19 949.26,196.37 951.79,178.44 954.32,123.39 956.84,75.91 959.37,182.27 961.89,133.52 964.42,70.88 966.95,201.56 969.47,198.01 972.00,184.44 974.53,139.63 977.05,70.84 979.58,201.69 982.11,198.54 984.63,186.41 987.16,145.45 989.68,72.91 992.21,193.59 994.74,168.63 997.26,101.49 999.79,108.02 1002.32,95.40 1004.84,122.10 1007.37,77.00 1009.89,178.31 1012.42,123.05 1014.95,76.19 1017.47,181.26 1020.00,130.74 1022.53,71.64 1025.05,198.54 1027.58,186.41 1030.11,145.46 1032.63,72.92 1035.16,193.56 1037.68,168.53 1040.21,101.29 1042.74,108.44 1045.26,94.69 1047.79,123.90 1050.32,75.51 1052.84,183.77 1055.37,137.71 1057.89,70.61 1060.42,202.63 1062.95,202.23 1065.47,200.65 1068.00,194.45 1070.53,171.62 1073.05,107.54 1075.58,96.24 1078.11,120.03 1080.63,78.95 1083.16,171.37 1085.68,107.01 1088.21,97.19 1090.74,117.73 1093.26,81.43 1095.79,162.92 1098.32,91.43 1100.84,132.51 1103.37,71.10 1105.89,200.68 1108.42,194.56 1110.95,172.01 1113.47,108.37 1116.00,94.81 1118.53,123.59 1121.05,75.75 1123.58,182.86 1126.11,135.16 1128.63,70.64 1131.16,202.48 1133.68,201.66 1136.21,198.41 1138.74,185.93 1141.26,144.03 1143.79,72.21 1146.32,196.28 1148.84,178.11 1151.37,122.56 1153.89,76.60 1156.42,179.77 1158.95,126.78 1161.47,73.53 1164.00,191.20 1166.53,160.57 1169.05,87.86 1171.58,142.66 1174.11,71.66 1176.63,198.45 1179.16,186.08 1181.68,144.47 1184.21,72.42 1186.74,195.50 1189.26,175.31 1191.79,115.77 1194.32,83.79 1196.84,155.18 1199.37,80.95 1201.89,164.51 1204.42,94.03 1206.95,125.58 1209.47,74.29 1212.00,188.30" fill="none" stroke="#2a6fbb" stroke-width="1.3"/>
<text x="192" y="76.00" text-anchor="end" font-family="Arial, sans-serif" font-size="12">logistic_clean</text>
<rect x="204" y="247.33" width="1008.00" height="153.33" fill="none" stroke="#222222"/>
<line x1="204" y1="400.67" x2="1212.00" y2="400.67" stroke="#eeeeee"/>
<text x="196" y="404.67" text-anchor="end" font-family="Arial, sans-serif" font-size="10">-0.08</text>
<line x1="204" y1="324.00" x2="1212.00" y2="324.00" stroke="#eeeeee"/>
<text x="196" y="328.00" text-anchor="end" font-family="Arial, sans-serif" font-size="10">0.5</text>
<line x1="204" y1="247.33" x2="1212.00" y2="247.33" stroke="#eeeeee"/>
<text x="196" y="251.33" text-anchor="end" font-family="Arial, sans-serif" font-size="10">1.08</text>
<polyline points="204.00,365.65 206.53,311.79 209.05,262.18 211.58,374.32 214.11,335.31 216.63,260.87 219.16,376.47 221.68,341.88 224.21,267.42 226.74,353.35 229.26,285.20 231.79,303.89 234.32,270.45 236.84,343.37 239.37,270.11 241.89,344.95 244.42,272.59 246.95,338.86 249.47,264.55 252.00,362.83 254.53,303.37 257.05,270.89 259.58,345.62 262.11,271.55 264.63,340.89 267.16,266.15 269.68,357.64 272.21,291.94 274.74,287.10 277.26,297.94 279.79,277.60 282.32,322.30 284.84,257.91 287.37,390.09 289.89,389.23 292.42,387.20 294.95,375.58 297.47,338.58 300.00,263.62 302.53,367.16 305.05,312.76 307.58,261.17 310.11,373.63 312.63,333.52 315.16,260.59 317.68,379.35 320.21,348.97 322.74,277.82 325.26,323.76 327.79,257.91 330.32,390.09 332.84,388.92 335.37,388.78 337.89,383.79 340.42,363.19 342.95,304.83 345.47,268.45 348.00,347.83 350.53,276.14 353.05,327.83 355.58,258.24 358.11,388.63 360.63,380.17 363.16,355.02 365.68,288.28 368.21,295.27 370.74,281.69 373.26,311.45 375.79,262.94 378.32,371.46 380.84,324.90 383.37,257.91 385.89,390.09 388.42,389.96 390.95,389.52 393.47,388.09 396.00,381.69 398.53,357.63 401.05,292.62 403.58,290.04 406.11,294.05 408.63,286.64 411.16,301.13 413.68,273.51 416.21,335.05 418.74,262.10 421.26,375.52 423.79,338.93 426.32,264.64 428.84,363.06 431.37,305.17 433.89,268.73 436.42,351.23 438.95,280.82 441.47,315.46 444.00,259.75 446.53,380.98 449.05,357.10 451.58,291.28 454.11,289.14 456.63,294.12 459.16,284.91 461.68,303.95 464.21,270.98 466.74,344.26 469.26,270.02 471.79,345.03 474.32,271.12 476.84,341.30 479.37,267.90 481.89,353.64 484.42,286.49 486.95,300.19 489.47,273.84 492.00,332.78 494.53,260.09 497.05,380.61 499.58,355.24 502.11,287.98 504.63,299.25 507.16,275.37 509.68,331.54 512.21,259.38 514.74,383.28 517.26,363.30 519.79,306.18 522.32,267.33 524.84,352.12 527.37,283.81 529.89,308.05 532.42,264.39 534.95,362.54 537.47,302.60 540.00,271.26 542.53,341.06 545.05,266.41 547.58,357.18 550.11,290.23 552.63,291.38 555.16,290.29 557.68,291.86 560.21,289.28 562.74,295.13 565.26,282.80 567.79,310.69 570.32,263.42 572.84,368.92 575.37,317.70 577.89,259.11 580.42,385.13 582.95,371.95 585.47,329.10 588.00,258.26 590.53,385.75 593.05,376.12 595.58,341.08 598.11,265.09 600.63,361.90 603.16,299.14 605.68,276.80 608.21,326.06 610.74,258.09 613.26,389.70 615.79,387.63 618.32,382.48 620.84,361.91 623.37,300.69 625.89,273.54 628.42,334.09 630.95,261.39 633.47,378.25 636.00,345.46 638.53,271.81 641.05,340.36 643.58,266.15 646.11,359.73 648.63,295.58 651.16,282.05 653.68,311.92 656.21,262.35 658.74,374.85 661.26,335.30 663.79,261.40 666.32,377.36 668.84,345.42 671.37,271.51 673.89,342.27 676.42,269.54 678.95,352.85 681.47,282.08 684.00,311.18 686.53,262.92 689.05,371.49 691.58,325.31 694.11,258.02 696.63,389.69 699.16,389.15 701.68,385.40 704.21,372.16 706.74,328.03 709.26,258.06 711.79,387.96 714.32,382.29 716.84,359.29 719.37,294.23 721.89,286.12 724.42,300.55 726.95,273.94 729.47,334.73 732.00,261.86 734.53,375.42 737.05,338.54 739.58,264.32 742.11,364.94 744.63,309.04 747.16,263.88 749.68,364.57 752.21,308.67 754.74,265.19 757.26,361.88 759.79,301.29 762.32,273.23 764.84,335.87 767.37,262.84 769.89,370.24 772.42,322.22 774.95,257.91 777.47,388.34 780.00,388.16 782.53,382.44 785.05,361.51 787.58,300.71 790.11,274.31 792.63,333.42 795.16,260.56 797.68,379.22 800.21,350.11 802.74,278.92 805.26,320.42 807.79,257.91 810.32,388.18 812.84,385.32 815.37,369.93 817.89,320.84 820.42,258.85 822.95,389.36 825.47,386.30 828.00,374.45 830.53,334.38 833.05,260.83 835.58,378.08 838.11,345.82 840.63,271.36 843.16,340.70 845.68,267.21 848.21,357.07 850.74,292.21 853.26,289.06 855.79,295.45 858.32,283.12 860.84,309.47 863.37,264.80 865.89,364.15 868.42,306.70 870.95,267.35 873.47,356.55 876.00,289.33 878.53,295.24 881.05,283.63 883.58,307.66 886.11,267.43 888.63,357.03 891.16,292.63 893.68,290.74 896.21,294.44 898.74,285.08 901.26,304.36 903.79,269.13 906.32,349.19 908.84,276.82 911.37,324.71 913.89,258.07 916.42,389.58 918.95,390.09 921.47,389.81 924.00,390.09 926.53,390.09 929.05,390.09 931.58,389.53 934.11,389.68 936.63,387.97 939.16,384.28 941.68,367.38 944.21,316.26 946.74,259.55 949.26,383.53 951.79,366.01 954.32,309.90 956.84,263.34 959.37,370.95 961.89,320.52 964.42,258.34 966.95,388.57 969.47,384.54 972.00,371.63 974.53,326.73 977.05,258.06 979.58,389.21 982.11,385.64 984.63,373.52 987.16,332.65 989.68,259.35 992.21,381.33 994.74,356.02 997.26,289.21 999.79,295.75 1002.32,282.93 1004.84,309.46 1007.37,264.06 1009.89,365.54 1012.42,310.36 1014.95,263.68 1017.47,368.15 1020.00,318.60 1022.53,259.28 1025.05,385.79 1027.58,374.25 1030.11,332.76 1032.63,259.93 1035.16,381.32 1037.68,356.36 1040.21,288.18 1042.74,294.99 1045.26,282.13 1047.79,309.69 1050.32,263.05 1052.84,371.84 1055.37,325.47 1057.89,258.02 1060.42,389.61 1062.95,389.90 1065.47,388.43 1068.00,381.50 1070.53,358.64 1073.05,294.36 1075.58,282.65 1078.11,306.68 1080.63,266.95 1083.16,358.94 1085.68,294.33 1088.21,284.53 1090.74,304.57 1093.26,269.47 1095.79,350.03 1098.32,278.15 1100.84,320.38 1103.37,257.98 1105.89,388.14 1108.42,382.32 1110.95,358.94 1113.47,295.53 1116.00,282.36 1118.53,311.56 1121.05,264.11 1123.58,370.68 1126.11,321.88 1128.63,258.25 1131.16,389.47 1133.68,388.98 1136.21,386.67 1138.74,373.18 1141.26,331.31 1143.79,259.82 1146.32,383.08 1148.84,365.85 1151.37,309.46 1153.89,263.75 1156.42,367.06 1158.95,314.38 1161.47,260.61 1164.00,378.01 1166.53,347.38 1169.05,275.17 1171.58,329.86 1174.11,259.17 1176.63,385.99 1179.16,373.09 1181.68,331.53 1184.21,259.79 1186.74,383.10 1189.26,362.92 1191.79,303.33 1194.32,270.94 1196.84,342.99 1199.37,267.41 1201.89,351.60 1204.42,282.16 1206.95,313.30 1209.47,260.38 1212.00,376.10" fill="none" stroke="#2a6fbb" stroke-width="1.3"/>
<text x="192" y="263.33" text-anchor="end" font-family="Arial, sans-serif" font-size="12">logistic_noise_small</text>
<rect x="204" y="434.67" width="1008.00" height="153.33" fill="none" stroke="#222222"/>
<line x1="204" y1="588.00" x2="1212.00" y2="588.00" stroke="#eeeeee"/>
<text x="196" y="592.00" text-anchor="end" font-family="Arial, sans-serif" font-size="10">-0.08</text>
<line x1="204" y1="511.33" x2="1212.00" y2="511.33" stroke="#eeeeee"/>
<text x="196" y="515.33" text-anchor="end" font-family="Arial, sans-serif" font-size="10">0.5</text>
<line x1="204" y1="434.67" x2="1212.00" y2="434.67" stroke="#eeeeee"/>
<text x="196" y="438.67" text-anchor="end" font-family="Arial, sans-serif" font-size="10">1.08</text>
<polyline points="204.00,553.56 206.53,499.41 209.05,449.28 211.58,562.11 214.11,521.72 216.63,449.38 219.16,568.45 221.68,526.95 224.21,453.20 226.74,535.41 229.26,471.28 231.79,494.93 234.32,456.73 236.84,530.21 239.37,461.70 241.89,533.25 244.42,458.75 246.95,529.99 249.47,454.56 252.00,545.34 254.53,493.20 257.05,457.92 259.58,532.45 262.11,459.03 264.63,526.59 267.16,453.79 269.68,544.14 272.21,476.31 274.74,476.85 277.26,483.64 279.79,464.69 282.32,508.76 284.84,446.15 287.37,575.17 289.89,576.11 292.42,572.89 294.95,561.91 297.47,525.63 300.00,450.91 302.53,557.06 305.05,503.04 307.58,453.03 310.11,562.94 312.63,519.28 315.16,449.93 317.68,564.89 320.21,535.34 322.74,461.63 325.26,505.38 327.79,445.24 330.32,574.66 332.84,575.79 335.37,576.20 337.89,572.20 340.42,549.19 342.95,494.17 345.47,457.85 348.00,535.34 350.53,461.71 353.05,517.19 355.58,445.24 358.11,576.12 360.63,565.46 363.16,541.90 365.68,477.29 368.21,481.63 370.74,473.39 373.26,498.41 375.79,450.86 378.32,557.02 380.84,510.66 383.37,445.24 385.89,577.43 388.42,576.75 390.95,577.43 393.47,574.88 396.00,566.22 398.53,545.51 401.05,479.53 403.58,480.62 406.11,480.78 408.63,472.97 411.16,490.27 413.68,455.36 416.21,520.53 418.74,449.75 421.26,560.07 423.79,529.61 426.32,449.35 428.84,551.63 431.37,492.96 433.89,458.95 436.42,539.12 438.95,468.41 441.47,501.07 444.00,446.18 446.53,569.06 449.05,547.44 451.58,476.68 454.11,478.52 456.63,480.93 459.16,473.52 461.68,486.93 464.21,455.41 466.74,529.52 469.26,455.89 471.79,532.56 474.32,458.97 476.84,527.54 479.37,456.27 481.89,542.31 484.42,477.33 486.95,487.43 489.47,460.98 492.00,521.33 494.53,445.24 497.05,566.19 499.58,541.51 502.11,474.02 504.63,488.19 507.16,456.67 509.68,520.34 512.21,447.44 514.74,569.97 517.26,550.92 519.79,494.08 522.32,453.88 524.84,539.91 527.37,469.52 529.89,492.26 532.42,452.32 534.95,549.85 537.47,491.38 540.00,458.64 542.53,530.88 545.05,453.57 547.58,546.22 550.11,477.65 552.63,475.28 555.16,483.10 557.68,480.36 560.21,477.35 562.74,483.01 565.26,471.58 567.79,493.93 570.32,446.96 572.84,560.42 575.37,502.56 577.89,447.19 580.42,573.30 582.95,559.21 585.47,516.99 588.00,448.00 590.53,571.98 593.05,562.70 595.58,524.41 598.11,453.24 600.63,549.84 603.16,486.44 605.68,461.36 608.21,511.17 610.74,445.24 613.26,573.94 615.79,573.36 618.32,570.79 620.84,546.30 623.37,487.58 625.89,460.12 628.42,521.92 630.95,449.52 633.47,564.51 636.00,531.06 638.53,457.80 641.05,529.65 643.58,451.46 646.11,547.38 648.63,484.25 651.16,471.32 653.68,504.87 656.21,449.08 658.74,561.93 661.26,522.77 663.79,449.10 666.32,561.93 668.84,533.41 671.37,459.33 673.89,532.67 676.42,454.27 678.95,539.20 681.47,463.90 684.00,500.26 686.53,450.83 689.05,561.43 691.58,512.35 694.11,448.84 696.63,577.43 699.16,575.09 701.68,573.78 704.21,562.42 706.74,517.66 709.26,445.74 711.79,574.01 714.32,567.60 716.84,548.45 719.37,481.37 721.89,474.08 724.42,490.18 726.95,455.66 729.47,525.38 732.00,449.07 734.53,559.87 737.05,528.28 739.58,452.89 742.11,553.26 744.63,494.36 747.16,450.33 749.68,551.78 752.21,498.94 754.74,449.23 757.26,547.00 759.79,491.32 762.32,461.42 764.84,524.70 767.37,452.48 769.89,556.64 772.42,507.30 774.95,447.20 777.47,577.43 780.00,577.43 782.53,566.38 785.05,549.30 787.58,484.81 790.11,462.52 792.63,519.18 795.16,446.26 797.68,564.70 800.21,539.59 802.74,460.89 805.26,505.55 807.79,447.76 810.32,577.43 812.84,575.15 815.37,560.44 817.89,507.76 820.42,445.74 822.95,573.58 825.47,577.11 828.00,561.80 830.53,522.10 833.05,449.97 835.58,563.38 838.11,533.09 840.63,459.59 843.16,525.86 845.68,452.95 848.21,548.57 850.74,474.66 853.26,480.67 855.79,480.58 858.32,466.43 860.84,498.40 863.37,453.58 865.89,552.98 868.42,496.06 870.95,456.79 873.47,545.54 876.00,476.99 878.53,480.31 881.05,472.90 883.58,493.18 886.11,450.70 888.63,549.88 891.16,482.44 893.68,474.29 896.21,484.56 898.74,470.65 901.26,489.37 903.79,453.95 906.32,537.77 908.84,464.20 911.37,510.05 913.89,445.24 916.42,577.43 918.95,577.43 921.47,576.08 924.00,576.46 926.53,575.70 929.05,577.43 931.58,575.62 934.11,576.06 936.63,576.79 939.16,571.72 941.68,556.82 944.21,506.50 946.74,445.24 949.26,572.38 951.79,549.88 954.32,495.88 956.84,456.38 959.37,558.93 961.89,507.40 964.42,445.67 966.95,576.25 969.47,575.76 972.00,559.83 974.53,514.59 977.05,445.24 979.58,576.26 982.11,573.41 984.63,560.52 987.16,519.44 989.68,445.24 992.21,568.35 994.74,542.30 997.26,477.65 999.79,481.37 1002.32,469.69 1004.84,497.38 1007.37,455.86 1009.89,551.24 1012.42,496.00 1014.95,450.36 1017.47,552.64 1020.00,509.10 1022.53,445.24 1025.05,575.37 1027.58,560.84 1030.11,518.18 1032.63,447.40 1035.16,572.08 1037.68,542.66 1040.21,478.31 1042.74,482.47 1045.26,470.92 1047.79,500.92 1050.32,450.96 1052.84,562.28 1055.37,513.74 1057.89,446.71 1060.42,577.43 1062.95,577.43 1065.47,577.43 1068.00,566.39 1070.53,544.33 1073.05,480.05 1075.58,470.54 1078.11,493.95 1080.63,456.92 1083.16,548.84 1085.68,478.29 1088.21,472.98 1090.74,494.20 1093.26,456.88 1095.79,535.62 1098.32,464.62 1100.84,511.34 1103.37,449.72 1105.89,574.38 1108.42,565.02 1110.95,546.38 1113.47,484.32 1116.00,472.93 1118.53,495.90 1121.05,450.69 1123.58,555.37 1126.11,509.36 1128.63,445.24 1131.16,576.75 1133.68,574.95 1136.21,576.18 1138.74,559.16 1141.26,520.83 1143.79,452.90 1146.32,568.95 1148.84,552.12 1151.37,494.85 1153.89,450.48 1156.42,555.42 1158.95,503.64 1161.47,446.17 1164.00,563.79 1166.53,535.38 1169.05,462.60 1171.58,518.63 1174.11,446.39 1176.63,574.10 1179.16,560.71 1181.68,520.78 1184.21,445.24 1186.74,573.55 1189.26,549.36 1191.79,491.45 1194.32,461.34 1196.84,530.52 1199.37,453.72 1201.89,538.12 1204.42,469.10 1206.95,498.96 1209.47,449.41 1212.00,562.72" fill="none" stroke="#2a6fbb" stroke-width="1.3"/>
<text x="192" y="450.67" text-anchor="end" font-family="Arial, sans-serif" font-size="12">logistic_noise_moderate</text>
<line x1="204.00" y1="588.00" x2="204.00" y2="593.00" stroke="#222222"/>
<text x="204.00" y="606.00" text-anchor="middle" font-family="Arial, sans-serif" font-size="10">1200</text>
<line x1="456.63" y1="588.00" x2="456.63" y2="593.00" stroke="#222222"/>
<text x="456.63" y="606.00" text-anchor="middle" font-family="Arial, sans-serif" font-size="10">1300</text>
<line x1="709.26" y1="588.00" x2="709.26" y2="593.00" stroke="#222222"/>
<text x="709.26" y="606.00" text-anchor="middle" font-family="Arial, sans-serif" font-size="10">1400</text>
<line x1="961.89" y1="588.00" x2="961.89" y2="593.00" stroke="#222222"/>
<text x="961.89" y="606.00" text-anchor="middle" font-family="Arial, sans-serif" font-size="10">1500</text>
<line x1="1212.00" y1="588.00" x2="1212.00" y2="593.00" stroke="#222222"/>
<text x="1212.00" y="606.00" text-anchor="middle" font-family="Arial, sans-serif" font-size="10">1599</text>
<text transform="translate(24,330.0) rotate(-90)" text-anchor="middle" font-family="Arial, sans-serif" font-size="13">x</text>
<text x="708.00" y="648" text-anchor="middle" font-family="Arial, sans-serif" font-size="13">t</text>
</svg>