<svg xmlns="http://www.w3.org/2000/svg" width="980" height="500" viewBox="0 0 980 500">
<rect x="0" y="0" width="980" height="500" fill="#ffffff"/>
<text x="490.0" y="28" text-anchor="middle" font-family="Arial, sans-serif" font-size="18" font-weight="700">Subrogadas: entropia de permutacion</text>
<rect x="82" y="58" width="868.00" height="324.00" fill="none" stroke="#222222" stroke-width="1"/>
<line x1="82" y1="382.00" x2="950.00" y2="382.00" stroke="#e8e8e8" stroke-width="1"/>
<text x="74" y="386.00" text-anchor="end" font-family="Arial, sans-serif" font-size="11">0.877</text>
<line x1="82" y1="301.00" x2="950.00" y2="301.00" stroke="#e8e8e8" stroke-width="1"/>
<text x="74" y="305.00" text-anchor="end" font-family="Arial, sans-serif" font-size="11">0.91</text>
<line x1="82" y1="220.00" x2="950.00" y2="220.00" stroke="#e8e8e8" stroke-width="1"/>
<text x="74" y="224.00" text-anchor="end" font-family="Arial, sans-serif" font-size="11">0.943</text>
<line x1="82" y1="139.00" x2="950.00" y2="139.00" stroke="#e8e8e8" stroke-width="1"/>
<text x="74" y="143.00" text-anchor="end" font-family="Arial, sans-serif" font-size="11">0.977</text>
<line x1="82" y1="58.00" x2="950.00" y2="58.00" stroke="#e8e8e8" stroke-width="1"/>
<text x="74" y="62.00" text-anchor="end" font-family="Arial, sans-serif" font-size="11">1.01</text>
<rect x="181.10" y="85.00" width="55.80" height="1.71" fill="#6f7f8f" opacity="0.42"/>
<line x1="176.64" y1="86.06" x2="241.36" y2="86.06" stroke="#6f7f8f" stroke-width="2"/>
<rect x="271.10" y="338.97" width="55.80" height="16.03" fill="#b45f06" opacity="0.42"/>
<line x1="266.64" y1="346.91" x2="331.36" y2="346.91" stroke="#b45f06" stroke-width="2"/>
<rect x="361.10" y="328.01" width="55.80" height="19.03" fill="#6b8e23" opacity="0.42"/>
<line x1="356.64" y1="338.38" x2="421.36" y2="338.38" stroke="#6b8e23" stroke-width="2"/>
<line x1="132.50" y1="353.13" x2="465.50" y2="353.13" stroke="#8a2222" stroke-width="2.2" stroke-dasharray="4,3"/>
<text x="299.00" y="428" text-anchor="end" transform="rotate(-28 299.00,428)" font-family="Arial, sans-serif" font-size="11">permutation_entropy_delay_1</text>
<rect x="615.10" y="85.23" width="55.80" height="2.05" fill="#6f7f8f" opacity="0.42"/>
<line x1="610.64" y1="86.15" x2="675.36" y2="86.15" stroke="#6f7f8f" stroke-width="2"/>
<rect x="705.10" y="132.30" width="55.80" height="20.65" fill="#b45f06" opacity="0.42"/>
<line x1="700.64" y1="138.22" x2="765.36" y2="138.22" stroke="#b45f06" stroke-width="2"/>
<rect x="795.10" y="131.31" width="55.80" height="18.10" fill="#6b8e23" opacity="0.42"/>
<line x1="790.64" y1="141.20" x2="855.36" y2="141.20" stroke="#6b8e23" stroke-width="2"/>
<line x1="566.50" y1="158.60" x2="899.50" y2="158.60" stroke="#8a2222" stroke-width="2.2" stroke-dasharray="4,3"/>
<text x="733.00" y="428" text-anchor="end" transform="rotate(-28 733.00,428)" font-family="Arial, sans-serif" font-size="11">permutation_entropy_delay_tau</text>
<g><circle cx="748.00" cy="28.00" r="4" fill="#6f7f8f"/><text x="758.00" y="32.00" font-family="Arial, sans-serif" font-size="12">barajadas p05-p95</text></g>
<g><circle cx="748.00" cy="46.00" r="4" fill="#b45f06"/><text x="758.00" y="50.00" font-family="Arial, sans-serif" font-size="12">phase randomized</text></g>
<g><circle cx="748.00" cy="64.00" r="4" fill="#6b8e23"/><text x="758.00" y="68.00" font-family="Arial, sans-serif" font-size="12">AAFT</text></g>
<g><line x1="748.00" y1="82.00" x2="776.00" y2="82.00" stroke="#8a2222" stroke-width="2" stroke-dasharray="4,3"/><text x="784.00" y="86.00" font-family="Arial, sans-serif" font-size="12">original</text></g>
<text x="516.00" y="490" text-anchor="middle" font-family="Arial, sans-serif" font-size="13">estadistico</text>
<text transform="translate(18,220.0) rotate(-90)" text-anchor="middle" font-family="Arial, sans-serif" font-size="13">entropia normalizada</text>
</svg>