<svg xmlns="http://www.w3.org/2000/svg" width="1000" height="420" viewBox="0 0 1000 420">
<rect x="0" y="0" width="1000" height="420" fill="#ffffff"/>
<text x="500.0" y="26" text-anchor="middle" font-family="Arial, sans-serif" font-size="18" font-weight="700">Distribucion de residuos AR</text>
<rect x="72" y="58" width="898.00" height="304.00" fill="none" stroke="#222222" stroke-width="1"/>
<line x1="72" y1="362.00" x2="970.00" y2="362.00" stroke="#e8e8e8" stroke-width="1"/>
<text x="64" y="366.00" text-anchor="end" font-family="Arial, sans-serif" font-size="11">0</text>
<line x1="72" y1="210.00" x2="970.00" y2="210.00" stroke="#e8e8e8" stroke-width="1"/>
<text x="64" y="214.00" text-anchor="end" font-family="Arial, sans-serif" font-size="11">10625</text>
<line x1="72" y1="58.00" x2="970.00" y2="58.00" stroke="#e8e8e8" stroke-width="1"/>
<text x="64" y="62.00" text-anchor="end" font-family="Arial, sans-serif" font-size="11">21250</text>
<rect x="72.00" y="359.97" width="8.98" height="2.03" fill="#60758a" opacity="0.85"/>
<rect x="81.98" y="359.91" width="8.98" height="2.09" fill="#60758a" opacity="0.85"/>
<rect x="91.96" y="359.93" width="8.98" height="2.07" fill="#60758a" opacity="0.85"/>
<rect x="101.93" y="359.21" width="8.98" height="2.79" fill="#60758a" opacity="0.85"/>
<rect x="111.91" y="358.97" width="8.98" height="3.03" fill="#60758a" opacity="0.85"/>
<rect x="121.89" y="358.60" width="8.98" height="3.40" fill="#60758a" opacity="0.85"/>
<rect x="131.87" y="358.14" width="8.98" height="3.86" fill="#60758a" opacity="0.85"/>
<rect x="141.84" y="357.71" width="8.98" height="4.29" fill="#60758a" opacity="0.85"/>
<rect x="151.82" y="357.12" width="8.98" height="4.88" fill="#60758a" opacity="0.85"/>
<rect x="161.80" y="356.88" width="8.98" height="5.12" fill="#60758a" opacity="0.85"/>
<rect x="171.78" y="356.18" width="8.98" height="5.82" fill="#60758a" opacity="0.85"/>
<rect x="181.76" y="355.45" width="8.98" height="6.55" fill="#60758a" opacity="0.85"/>
<rect x="191.73" y="354.73" width="8.98" height="7.27" fill="#60758a" opacity="0.85"/>
<rect x="201.71" y="353.55" width="8.98" height="8.45" fill="#60758a" opacity="0.85"/>
<rect x="211.69" y="352.49" width="8.98" height="9.51" fill="#60758a" opacity="0.85"/>
<rect x="221.67" y="350.91" width="8.98" height="11.09" fill="#60758a" opacity="0.85"/>
<rect x="231.64" y="349.54" width="8.98" height="12.46" fill="#60758a" opacity="0.85"/>
<rect x="241.62" y="347.67" width="8.98" height="14.33" fill="#60758a" opacity="0.85"/>
<rect x="251.60" y="345.33" width="8.98" height="16.67" fill="#60758a" opacity="0.85"/>
<rect x="261.58" y="342.11" width="8.98" height="19.89" fill="#60758a" opacity="0.85"/>
<rect x="271.56" y="338.20" width="8.98" height="23.80" fill="#60758a" opacity="0.85"/>
<rect x="281.53" y="334.72" width="8.98" height="27.28" fill="#60758a" opacity="0.85"/>
<rect x="291.51" y="330.68" width="8.98" height="31.32" fill="#60758a" opacity="0.85"/>
<rect x="301.49" y="324.95" width="8.98" height="37.05" fill="#60758a" opacity="0.85"/>
<rect x="311.47" y="315.69" width="8.98" height="46.31" fill="#60758a" opacity="0.85"/>
<rect x="321.44" y="307.48" width="8.98" height="54.52" fill="#60758a" opacity="0.85"/>
<rect x="331.42" y="296.36" width="8.98" height="65.64" fill="#60758a" opacity="0.85"/>
<rect x="341.40" y="282.59" width="8.98" height="79.41" fill="#60758a" opacity="0.85"/>
<rect x="351.38" y="262.32" width="8.98" height="99.68" fill="#60758a" opacity="0.85"/>
<rect x="361.36" y="238.17" width="8.98" height="123.83" fill="#60758a" opacity="0.85"/>
<rect x="371.33" y="208.56" width="8.98" height="153.44" fill="#60758a" opacity="0.85"/>
<rect x="381.31" y="164.09" width="8.98" height="197.91" fill="#60758a" opacity="0.85"/>
<rect x="391.29" y="114.08" width="8.98" height="247.92" fill="#60758a" opacity="0.85"/>
<rect x="401.27" y="69.63" width="8.98" height="292.37" fill="#60758a" opacity="0.85"/>
<rect x="411.24" y="58.00" width="8.98" height="304.00" fill="#60758a" opacity="0.85"/>
<rect x="421.22" y="95.72" width="8.98" height="266.28" fill="#60758a" opacity="0.85"/>
<rect x="431.20" y="152.88" width="8.98" height="209.12" fill="#60758a" opacity="0.85"/>
<rect x="441.18" y="199.31" width="8.98" height="162.69" fill="#60758a" opacity="0.85"/>
<rect x="451.16" y="235.04" width="8.98" height="126.96" fill="#60758a" opacity="0.85"/>
<rect x="461.13" y="258.94" width="8.98" height="103.06" fill="#60758a" opacity="0.85"/>
<rect x="471.11" y="277.71" width="8.98" height="84.29" fill="#60758a" opacity="0.85"/>
<rect x="481.09" y="291.86" width="8.98" height="70.14" fill="#60758a" opacity="0.85"/>
<rect x="491.07" y="303.25" width="8.98" height="58.75" fill="#60758a" opacity="0.85"/>
<rect x="501.04" y="311.31" width="8.98" height="50.69" fill="#60758a" opacity="0.85"/>
<rect x="511.02" y="318.82" width="8.98" height="43.18" fill="#60758a" opacity="0.85"/>
<rect x="521.00" y="323.33" width="8.98" height="38.67" fill="#60758a" opacity="0.85"/>
<rect x="530.98" y="329.88" width="8.98" height="32.12" fill="#60758a" opacity="0.85"/>
<rect x="540.96" y="333.26" width="8.98" height="28.74" fill="#60758a" opacity="0.85"/>
<rect x="550.93" y="336.58" width="8.98" height="25.42" fill="#60758a" opacity="0.85"/>
<rect x="560.91" y="339.98" width="8.98" height="22.02" fill="#60758a" opacity="0.85"/>
<rect x="570.89" y="341.71" width="8.98" height="20.29" fill="#60758a" opacity="0.85"/>
<rect x="580.87" y="343.85" width="8.98" height="18.15" fill="#60758a" opacity="0.85"/>
<rect x="590.84" y="346.44" width="8.98" height="15.56" fill="#60758a" opacity="0.85"/>
<rect x="600.82" y="348.34" width="8.98" height="13.66" fill="#60758a" opacity="0.85"/>
<rect x="610.80" y="349.65" width="8.98" height="12.35" fill="#60758a" opacity="0.85"/>
<rect x="620.78" y="350.21" width="8.98" height="11.79" fill="#60758a" opacity="0.85"/>
<rect x="630.76" y="351.60" width="8.98" height="10.40" fill="#60758a" opacity="0.85"/>
<rect x="640.73" y="352.92" width="8.98" height="9.08" fill="#60758a" opacity="0.85"/>
<rect x="650.71" y="353.27" width="8.98" height="8.73" fill="#60758a" opacity="0.85"/>
<rect x="660.69" y="354.30" width="8.98" height="7.70" fill="#60758a" opacity="0.85"/>
<rect x="670.67" y="355.30" width="8.98" height="6.70" fill="#60758a" opacity="0.85"/>
<rect x="680.64" y="355.49" width="8.98" height="6.51" fill="#60758a" opacity="0.85"/>
<rect x="690.62" y="355.85" width="8.98" height="6.15" fill="#60758a" opacity="0.85"/>
<rect x="700.60" y="356.86" width="8.98" height="5.14" fill="#60758a" opacity="0.85"/>
<rect x="710.58" y="357.16" width="8.98" height="4.84" fill="#60758a" opacity="0.85"/>
<rect x="720.56" y="356.64" width="8.98" height="5.36" fill="#60758a" opacity="0.85"/>
<rect x="730.53" y="357.44" width="8.98" height="4.56" fill="#60758a" opacity="0.85"/>
<rect x="740.51" y="358.48" width="8.98" height="3.52" fill="#60758a" opacity="0.85"/>
<rect x="750.49" y="358.12" width="8.98" height="3.88" fill="#60758a" opacity="0.85"/>
<rect x="760.47" y="358.31" width="8.98" height="3.69" fill="#60758a" opacity="0.85"/>
<rect x="770.44" y="358.72" width="8.98" height="3.28" fill="#60758a" opacity="0.85"/>
<rect x="780.42" y="359.28" width="8.98" height="2.72" fill="#60758a" opacity="0.85"/>
<rect x="790.40" y="359.25" width="8.98" height="2.75" fill="#60758a" opacity="0.85"/>
<rect x="800.38" y="359.55" width="8.98" height="2.45" fill="#60758a" opacity="0.85"/>
<rect x="810.36" y="359.78" width="8.98" height="2.22" fill="#60758a" opacity="0.85"/>
<rect x="820.33" y="359.64" width="8.98" height="2.36" fill="#60758a" opacity="0.85"/>
<rect x="830.31" y="359.93" width="8.98" height="2.07" fill="#60758a" opacity="0.85"/>
<rect x="840.29" y="360.03" width="8.98" height="1.97" fill="#60758a" opacity="0.85"/>
<rect x="850.27" y="360.27" width="8.98" height="1.73" fill="#60758a" opacity="0.85"/>
<rect x="860.24" y="359.95" width="8.98" height="2.05" fill="#60758a" opacity="0.85"/>
<rect x="870.22" y="360.63" width="8.98" height="1.37" fill="#60758a" opacity="0.85"/>
<rect x="880.20" y="360.48" width="8.98" height="1.52" fill="#60758a" opacity="0.85"/>
<rect x="890.18" y="360.57" width="8.98" height="1.43" fill="#60758a" opacity="0.85"/>
<rect x="900.16" y="360.60" width="8.98" height="1.40" fill="#60758a" opacity="0.85"/>
<rect x="910.13" y="360.61" width="8.98" height="1.39" fill="#60758a" opacity="0.85"/>
<rect x="920.11" y="360.90" width="8.98" height="1.10" fill="#60758a" opacity="0.85"/>
<rect x="930.09" y="360.93" width="8.98" height="1.07" fill="#60758a" opacity="0.85"/>
<rect x="940.07" y="361.10" width="8.98" height="0.90" fill="#60758a" opacity="0.85"/>
<rect x="950.04" y="361.28" width="8.98" height="0.72" fill="#60758a" opacity="0.85"/>
<rect x="960.02" y="361.10" width="8.98" height="0.90" fill="#60758a" opacity="0.85"/>
<line x1="72.00" y1="58" x2="72.00" y2="362.00" stroke="#8a2222" stroke-width="1" stroke-dasharray="4,4"/>
<text x="72.00" y="386" text-anchor="middle" font-family="Arial, sans-serif" font-size="11">p0.5</text>
<line x1="425.14" y1="58" x2="425.14" y2="362.00" stroke="#8a2222" stroke-width="1" stroke-dasharray="4,4"/>
<text x="425.14" y="386" text-anchor="middle" font-family="Arial, sans-serif" font-size="11">0</text>
<line x1="970.00" y1="58" x2="970.00" y2="362.00" stroke="#8a2222" stroke-width="1" stroke-dasharray="4,4"/>
<text x="970.00" y="386" text-anchor="middle" font-family="Arial, sans-serif" font-size="11">p99.5</text>
<text x="521.00" y="410" text-anchor="middle" font-family="Arial, sans-serif" font-size="13">Residuo estandarizado filtrado</text>
<text transform="translate(18,210.0) rotate(-90)" text-anchor="middle" font-family="Arial, sans-serif" font-size="13">Frecuencia</text>
<text x="80" y="382" font-family="Arial, sans-serif" font-size="11" fill="#555555">Rango visual p0.5-p99.5; cola izq=1224, cola der=1224</text>
</svg>