<svg xmlns="http://www.w3.org/2000/svg" width="1120" height="460" viewBox="0 0 1120 460">
<rect x="0" y="0" width="1120" height="460" fill="#ffffff"/>
<text x="560.0" y="26" text-anchor="middle" font-family="Arial, sans-serif" font-size="18" font-weight="700">Periodograma - Retornos absolutos |r|</text>
<line x1="82" y1="396.00" x2="1086.00" y2="396.00" stroke="#e8e8e8" stroke-width="1"/>
<text x="74" y="400.00" text-anchor="end" font-family="Arial, sans-serif" font-size="11">-6.18</text>
<line x1="82" y1="311.50" x2="1086.00" y2="311.50" stroke="#e8e8e8" stroke-width="1"/>
<text x="74" y="315.50" text-anchor="end" font-family="Arial, sans-serif" font-size="11">-5.22</text>
<line x1="82" y1="227.00" x2="1086.00" y2="227.00" stroke="#e8e8e8" stroke-width="1"/>
<text x="74" y="231.00" text-anchor="end" font-family="Arial, sans-serif" font-size="11">-4.26</text>
<line x1="82" y1="142.50" x2="1086.00" y2="142.50" stroke="#e8e8e8" stroke-width="1"/>
<text x="74" y="146.50" text-anchor="end" font-family="Arial, sans-serif" font-size="11">-3.29</text>
<line x1="82" y1="58.00" x2="1086.00" y2="58.00" stroke="#e8e8e8" stroke-width="1"/>
<text x="74" y="62.00" text-anchor="end" font-family="Arial, sans-serif" font-size="11">-2.33</text>
<rect x="82" y="58" width="1004.00" height="338.00" fill="none" stroke="#222222" stroke-width="1"/>
<polyline points="82.00,239.85 82.03,323.57 82.05,326.79 82.07,303.81 82.10,325.17 82.11,336.57 82.14,350.70 82.17,370.19 82.19,344.13 82.21,341.45 82.24,306.82 82.26,321.32 82.28,350.69 82.31,346.98 82.33,324.19 82.34,339.05 82.36,331.14 82.39,352.64 82.40,332.97 82.43,328.84 82.45,336.31 82.47,336.17 82.50,328.39 82.53,336.81 82.55,290.14 82.56,323.55 82.60,355.59 82.61,340.49 82.63,351.42 82.65,355.84 82.67,336.77 82.70,340.33 82.72,338.68 82.74,360.09 82.77,348.79 82.79,327.49 82.81,328.73 82.83,356.64 82.86,344.37 82.87,318.91 82.91,332.82 82.93,340.62 82.95,329.72 82.97,324.42 82.99,334.90 83.02,314.03 83.03,350.68 83.07,332.90 83.08,327.68 83.09,319.44 83.13,358.96 83.15,332.64 83.16,323.85 83.18,332.96 83.21,302.95 83.25,335.67 83.25,328.99 83.29,319.00 83.30,349.27 83.32,345.72 83.34,362.59 83.38,346.64 83.40,306.86 83.41,332.06 83.43,352.40 83.47,336.96 83.49,316.67 83.50,342.52 83.53,360.57 83.56,336.45 83.56,343.50 83.59,344.63 83.63,342.79 83.65,342.98 83.66,312.56 83.68,344.47 83.70,343.43 83.74,330.19 83.76,338.99 83.76,356.68 83.80,344.51 83.83,326.99 83.84,333.06 83.87,331.46 83.90,312.36 83.91,346.02 83.93,330.10 83.95,348.06 83.98,337.50 84.00,354.33 84.02,341.46 84.04,357.21 84.07,323.68 84.09,312.10 84.11,347.22 84.14,335.05 84.15,315.71 84.18,329.33 84.19,332.55 84.22,331.96 84.26,333.52 84.26,346.16 84.30,336.82 84.31,344.99 84.34,334.14 84.37,338.47 84.37,339.40 84.42,328.80 84.42,336.75 84.44,319.80 84.47,333.39 84.50,352.13 84.51,344.70 84.54,339.36 84.56,352.56 84.58,344.62 84.62,344.35 84.64,362.75 84.66,355.44 84.68,329.75 84.71,340.59 84.72,344.13 84.74,336.65 84.78,326.67 84.80,343.89 84.80,347.87 84.83,336.94 84.87,346.68 84.89,321.26 84.90,337.69 84.93,325.92 84.95,348.19 84.97,345.90 84.99,322.38 85.01,333.30 85.03,365.12 85.07,348.08 85.09,307.58 85.11,311.60 85.13,325.35 85.16,315.20 85.18,345.51 85.20,352.77 85.23,346.21 85.24,324.53 85.27,331.38 85.30,365.65 85.31,313.70 85.33,340.09 85.35,321.20 85.39,335.16 85.41,324.41 85.42,350.99 85.45,344.37 85.48,328.22 85.49,333.56 85.52,339.48 85.53,333.37 85.56,354.26 85.58,336.71 85.62,340.17 85.62,351.76 85.64,350.71 85.69,343.91 85.69,348.78 85.73,329.57 85.76,344.84 85.76,318.75 85.80,325.09 85.82,360.19 85.85,330.02 85.86,324.41 85.89,337.96 85.90,354.68 85.92,356.20 85.95,341.23 85.97,337.64 86.00,321.23 86.02,332.86 86.05,351.35 86.07,310.94 86.10,347.02 86.12,361.59 86.13,347.30 86.16,343.65 86.19,342.84 86.20,359.91 86.22,343.63 86.25,331.76 86.27,357.71 86.30,335.14 86.33,329.54 86.34,338.58 86.36,335.82 86.39,352.19 86.41,336.69 86.43,345.09 86.45,321.14 86.48,337.98 86.49,334.43 86.53,344.89 86.55,337.30 86.57,325.90 86.60,369.59 86.61,348.38 86.64,367.70 86.66,350.05 86.69,353.00 86.70,335.00 86.72,318.34 86.75,351.12 86.77,313.05 86.80,323.34 86.83,353.58 86.84,333.77 86.87,335.56 86.90,345.07 86.93,333.21 86.95,342.25 86.96,357.13 86.99,343.59 87.02,337.69 87.02,327.37 87.06,305.27 87.07,328.48 87.09,363.09 87.12,317.99 87.15,321.84 87.17,333.78 87.18,332.03 87.21,347.30 87.23,336.78 87.27,326.62 87.28,333.04 87.30,352.31 87.32,346.78 87.34,351.73 87.37,361.56 87.40,343.39 87.41,337.99 87.44,328.27 87.46,331.53 87.50,347.81 87.52,328.96 87.55,330.14 87.56,325.32 87.58,344.00 87.62,341.95 87.64,349.17 87.64,345.16 87.68,328.74 87.71,341.70 87.73,334.04 87.74,338.20 87.77,326.01 87.80,338.05 87.81,336.54 87.83,339.45 87.86,338.18 87.89,329.54 87.90,364.97 87.94,322.75 87.97,343.67 87.97,312.30 88.00,331.48 88.04,338.77 88.04,346.95 88.08,329.53 88.10,334.21 88.13,367.93 88.13,300.49 88.16,327.99 88.20,351.90 88.22,325.75 88.23,336.00 88.25,319.22 88.28,318.92 88.30,320.50 88.33,326.29 88.36,322.55 88.37,324.98 88.41,345.49 88.43,356.67 88.45,341.75 88.48,334.69 88.48,349.56 88.51,337.58 88.54,336.10 88.57,349.32 88.58,326.61 88.60,319.34 88.64,313.94 88.65,323.14 88.67,335.37 88.70,341.23 88.73,342.72 88.74,339.04 88.76,349.16 88.80,342.07 88.82,308.75 88.85,350.68 88.87,347.94 88.89,329.83 88.90,350.78 88.94,309.20 88.96,321.68 88.99,320.88 89.02,333.40 89.02,330.45 89.05,372.93 89.08,349.76 89.11,331.73 89.13,326.70 89.14,318.68 89.17,345.35 89.20,352.34 89.23,308.54 89.23,337.90 89.27,328.84 89.28,294.12 89.32,325.30 89.34,323.68 89.35,351.11 89.37,330.91 89.40,326.38 89.43,331.40 89.44,352.89 89.48,351.65 89.50,350.63 89.53,351.97 89.53,338.27 89.56,340.99 89.59,357.98 89.61,345.16 89.64,325.36 89.67,323.98 89.70,309.38 89.70,330.62 89.73,334.34 89.77,363.94 89.79,359.23 89.81,328.49 89.83,325.09 89.86,367.81 89.87,332.91 89.90,346.21 89.93,323.56 89.95,324.51 89.97,339.12 89.98,339.70 90.01,331.05 90.05,318.93 90.06,350.27 90.09,331.32 90.12,325.16 90.13,339.87 90.16,334.59 90.19,343.44 90.21,318.53 90.23,353.81 90.24,342.47 90.27,335.74 90.31,347.18 90.33,355.73 90.34,319.66 90.37,346.33 90.39,347.21 90.42,357.97 90.44,365.71 90.46,340.04 90.49,350.98 90.51,352.38 90.55,326.13 90.56,316.22 90.59,348.72 90.61,344.91 90.64,341.50 90.66,341.79 90.69,355.74 90.71,344.23 90.73,346.66 90.74,348.63 90.77,341.88 90.80,340.62 90.82,342.11 90.85,349.26 90.88,325.39 90.90,335.02 90.91,339.58 90.94,332.95 90.95,338.90 90.99,342.05 91.00,342.92 91.04,338.15 91.05,323.12 91.07,314.11 91.11,331.38 91.13,343.95 91.16,334.23 91.19,327.53 91.21,338.80 91.22,339.25 91.24,320.82 91.27,372.80 91.30,350.06 91.31,358.62 91.33,353.03 91.38,319.30 91.40,346.57 91.42,356.10 91.44,318.27 91.46,335.33 91.49,325.06 91.51,334.99 91.54,341.87 91.57,357.06 91.58,320.49 91.62,348.34 91.62,342.97 91.64,336.08 91.67,360.12 91.70,320.00 91.73,332.08 91.76,342.95 91.78,355.87 91.79,346.42 91.82,332.33 91.84,351.36 91.87,355.50 91.89,336.93 91.93,346.15 91.94,332.24 91.97,339.90 91.99,327.23 92.01,323.32 92.03,332.75 92.06,331.26 92.09,341.27 92.11,313.27 92.13,333.85 92.15,326.60 92.19,344.30 92.19,352.42 92.22,325.72 92.26,324.52 92.27,345.88 92.30,347.87 92.31,351.15 92.34,320.01 92.38,326.84 92.41,334.34 92.41,329.47 92.43,350.17 92.47,344.03 92.50,350.27 92.53,313.17 92.55,346.97 92.56,332.02 92.58,333.47 92.61,331.21 92.62,333.91 92.66,338.45 92.69,368.58 92.71,355.40 92.74,318.63 92.74,329.70 92.78,323.37 92.81,345.37 92.82,319.08 92.86,333.39 92.88,329.37 92.90,330.87 92.92,323.85 92.95,314.76 92.97,347.36 93.00,343.89 93.02,323.37 93.04,343.47 93.07,334.21 93.10,329.04 93.11,363.19 93.14,333.30 93.17,325.07 93.18,337.63 93.21,325.95 93.23,318.89 93.25,348.20 93.28,339.94 93.30,320.27 93.33,349.22 93.36,334.57 93.39,350.98 93.41,338.80 93.43,326.72 93.45,330.16 93.49,327.88 93.50,341.28 93.53,336.54 93.54,351.40 93.57,313.65 93.60,337.26 93.61,331.14 93.66,338.96 93.67,360.51 93.70,365.43 93.72,344.55 93.74,351.94 93.76,332.60 93.80,332.39 93.82,317.13 93.84,346.37 93.86,319.55 93.90,314.21 93.91,342.18 93.95,330.64 93.97,344.47 93.99,338.89 94.01,348.55 94.03,318.22 94.05,335.63 94.08,346.07 94.12,329.10 94.14,330.91 94.17,329.09 94.19,318.38 94.21,318.52 94.23,338.92 94.26,336.36 94.27,364.29 94.30,317.85 94.33,335.16 94.36,319.98 94.37,353.39 94.39,354.92 94.44,344.83 94.46,345.96 94.47,337.43 94.49,335.36 94.52,332.57 94.55,340.65 94.56,346.26 94.59,339.76 94.62,337.74 94.65,348.10 94.67,351.35 94.70,335.07 94.72,338.58 94.73,336.47 94.76,340.39 94.80,360.32 94.82,372.98 94.84,367.19 94.87,330.99 94.90,346.82 94.93,315.67 94.94,332.34 94.96,346.49 94.99,341.54 95.02,323.38 95.05,334.85 95.07,317.22 95.08,328.41 95.12,342.13 95.14,341.59 95.16,344.26 95.18,323.24 95.22,337.62 95.24,337.40 95.26,340.55 95.28,324.82 95.30,349.71 95.32,331.03 95.35,343.13 95.39,336.70 95.40,317.06 95.44,373.73 95.45,333.49 95.48,324.92 95.51,310.09 95.53,329.01 95.55,358.52 95.58,328.36 95.60,308.49 95.62,352.92 95.66,314.12 95.68,337.66 95.69,352.99 95.73,348.98 95.74,340.42 95.77,353.15 95.79,343.12 95.83,345.81 95.84,335.60 95.88,347.49 95.90,342.96 95.92,316.86 95.95,324.56 95.96,336.56 96.00,356.87 96.02,353.81 96.06,319.27 96.08,341.54 96.08,340.30 96.12,327.69 96.14,342.00 96.17,336.94 96.20,335.13 96.22,334.34 96.25,343.89 96.28,333.15 96.30,316.78 96.32,350.10 96.35,337.32 96.37,331.71 96.40,354.87 96.41,331.75 96.45,342.23 96.45,339.40 96.50,326.08 96.51,329.79 96.54,331.44 96.57,341.47 96.60,326.80 96.62,347.54 96.64,345.54 96.66,340.08 96.69,345.84 96.72,308.43 96.75,339.19 96.75,318.18 96.79,306.58 96.82,321.79 96.83,361.86 96.86,355.51 96.90,322.38 96.91,323.65 96.94,349.22 96.97,351.13 96.99,325.42 97.02,347.61 97.04,318.21 97.07,315.17 97.08,340.54 97.10,329.81 97.14,337.10 97.17,334.30 97.18,335.46 97.21,334.50 97.25,339.42 97.25,309.82 97.28,335.98 97.31,336.26 97.33,332.49 97.35,347.60 97.39,327.64 97.41,345.40 97.45,333.87 97.47,349.17 97.48,350.84 97.52,343.51 97.54,338.23 97.56,340.71 97.60,350.17 97.60,326.03 97.63,322.54 97.66,326.90 97.68,341.15 97.70,319.66 97.74,331.33 97.76,349.12 97.78,324.11 97.80,325.11 97.84,339.70 97.87,314.52 97.88,314.53 97.92,321.46 97.93,324.10 97.95,355.70 97.98,345.23 98.02,311.55 98.04,330.43 98.06,348.05 98.08,342.71 98.12,355.62 98.13,347.49 98.17,350.56 98.18,324.61 98.20,323.08 98.25,348.73 98.26,325.25 98.28,330.36 98.31,308.27 98.34,359.33 98.35,349.60 98.39,316.49 98.42,335.38 98.43,336.43 98.47,322.81 98.49,334.93 98.52,339.34 98.53,332.76 98.56,352.33 98.58,336.71 98.61,344.65 98.65,317.26 98.66,330.46 98.69,334.01 98.72,323.62 98.73,344.25 98.77,335.23 98.79,338.35 98.82,328.74 98.83,356.58 98.86,347.00 98.88,356.45 98.92,341.40 98.94,351.14 98.97,328.65 98.99,341.66 99.02,322.85 99.03,333.38 99.08,347.42 99.09,318.32 99.12,344.46 99.15,334.29 99.18,337.92 99.19,340.94 99.22,331.31 99.25,361.79 99.27,334.38 99.30,313.36 99.32,343.51 99.33,353.75 99.38,334.54 99.39,358.23 99.41,333.62 99.45,338.52 99.47,340.14 99.50,330.44 99.53,353.62 99.53,353.03 99.57,334.62 99.60,336.72 99.61,348.17 99.65,334.58 99.66,343.96 99.70,333.98 99.72,355.83 99.76,347.82 99.77,327.53 99.79,320.60 99.82,343.74 99.84,346.69 99.87,336.95 99.89,332.01 99.92,362.54 99.96,335.84 99.97,328.34 100.01,320.30 100.02,342.29 100.06,353.23 100.08,349.56 100.12,334.53 100.13,337.83 100.15,335.89 100.19,348.50 100.20,359.32 100.24,347.32 100.25,321.30 100.28,337.92 100.30,345.00 100.35,352.13 100.36,322.83 100.38,344.06 100.40,331.09 100.44,344.97 100.47,339.35 100.48,347.59 100.51,348.59 100.54,333.99 100.56,336.63 100.59,347.47 100.62,334.60 100.63,319.80 100.67,345.10 100.70,338.69 100.71,324.36 100.74,327.54 100.76,346.23 100.80,348.22 100.83,324.61 100.84,356.52 100.87,340.95 100.89,315.11 100.92,351.07 100.94,353.27 100.97,349.22 101.00,350.19 101.03,361.78 101.06,342.98 101.06,366.91 101.10,340.83 101.12,337.60 101.16,351.84 101.18,322.53 101.20,343.28 101.24,327.69 101.25,335.27 101.28,354.22 101.31,346.48 101.34,331.37 101.36,325.10 101.37,345.75 101.41,357.17 101.43,331.64 101.46,331.07 101.48,338.05 101.51,345.64 101.54,337.20 101.58,325.52 101.60,348.71 101.61,329.14 101.65,328.48 101.66,312.31 101.69,339.95 101.73,361.80 101.74,332.76 101.76,342.34 101.81,319.88 101.82,327.47 101.85,331.49 101.86,321.08 101.89,321.68 101.93,315.51 101.96,323.20 101.98,347.02 102.00,330.42 102.03,342.80 102.06,351.73 102.08,322.38 102.11,341.19 102.13,350.79 102.17,345.22 102.18,360.89 102.21,341.89 102.24,326.02 102.27,327.26 102.28,354.99 102.30,321.35 102.33,341.44 102.36,322.02 102.40,328.60 102.41,339.00 102.45,343.71 102.46,331.38 102.50,342.77 102.53,336.75 102.55,322.07 102.57,348.80 102.60,333.11 102.63,324.91 102.66,322.81 102.67,307.17 102.69,331.88 102.72,336.31 102.75,331.37 102.79,342.17 102.81,341.72 102.83,340.84 102.85,334.60 102.89,337.47 102.92,347.45 102.94,343.03 102.97,330.17 102.99,328.71 103.02,333.16 103.03,325.03 103.08,315.10 103.08,355.31 103.12,354.65 103.14,344.30 103.17,329.79 103.18,305.25 103.22,328.57 103.25,312.30 103.28,339.60 103.29,321.02 103.34,323.34 103.34,340.66 103.39,310.63 103.40,346.13 103.44,353.13 103.45,323.73 103.48,340.56 103.50,340.05 103.54,348.53 103.55,361.47 103.59,346.00 103.60,335.01 103.65,338.55 103.66,323.86 103.70,312.68 103.71,330.16 103.74,340.57 103.77,366.84 103.81,348.24 103.83,341.34 103.84,315.82 103.87,331.56 103.89,332.84 103.94,308.35 103.95,337.24 103.99,351.30 104.02,321.41 104.04,342.30 104.05,326.77 104.09,326.03 104.10,330.40 104.14,321.08 104.17,343.13 104.19,340.87 104.22,337.76 104.24,311.81 104.27,330.12 104.28,314.99 104.33,347.64 104.35,340.91 104.37,348.34 104.40,343.59 104.42,325.23 104.46,347.40 104.49,353.78 104.51,327.91 104.54,319.77 104.55,342.81 104.57,326.79 104.61,343.72 104.64,370.18 104.65,345.16 104.68,337.13 104.71,357.85 104.74,358.31 104.76,351.35 104.78,356.65 104.82,350.36 104.83,321.65 104.86,350.34 104.91,348.53 104.94,309.59 104.95,333.77 104.99,339.09 105.01,301.68 105.04,344.43 105.05,349.84 105.08,340.48 105.11,328.17 105.13,317.33 105.16,345.01 105.18,348.42 105.21,325.21 105.23,335.99 105.27,345.39 105.29,334.09 105.31,328.09 105.34,324.17 105.37,345.10 105.39,329.47 105.42,324.74 105.46,339.95 105.48,330.95 105.50,356.06 105.54,326.86 105.55,362.00 105.59,329.98 105.61,348.84 105.65,338.30 105.68,356.07 105.69,333.37 105.71,331.34 105.76,348.28 105.77,339.58 105.81,329.00 105.82,350.94 105.87,330.83 105.87,346.90 105.91,347.14 105.94,322.99 105.95,341.07 105.98,334.78 106.00,328.55 106.04,336.93 106.06,346.26 106.10,314.93 106.11,313.07 106.14,349.47 106.18,329.46 106.19,351.80 106.22,349.38 106.26,361.28 106.28,352.26 106.31,301.40 106.33,336.78 106.35,327.60 106.40,348.75 106.42,344.59 106.44,324.45 106.48,316.36 106.50,345.64 106.53,352.89 106.54,315.27 106.58,350.92 106.59,337.16 106.63,337.16 106.65,316.55 106.69,330.68 106.70,341.48 106.72,340.49 106.75,348.10 106.80,316.20 106.83,349.63 106.83,337.14 106.87,321.40 106.88,337.57 106.93,330.35 106.96,342.57 106.97,328.15 106.99,340.64 107.03,347.11 107.05,328.75 107.07,342.99 107.11,346.22 107.14,344.25 107.17,341.27 107.18,342.51 107.23,317.51 107.24,360.29 107.26,325.95 107.28,348.56 107.34,337.13 107.36,359.16 107.37,326.81 107.40,334.48 107.42,355.19 107.45,341.68 107.47,326.77 107.50,359.84 107.53,333.94 107.58,326.60 107.59,334.00 107.61,345.83 107.65,355.02 107.67,341.27 107.70,337.58 107.74,352.61 107.76,348.01 107.78,338.01 107.81,344.46 107.84,346.41 107.87,343.02 107.90,349.69 107.92,335.18 107.95,326.67 107.97,317.55 108.00,337.93 108.02,327.45 108.05,362.77 108.07,322.96 108.10,343.14 108.12,344.61 108.17,355.84 108.20,335.21 108.21,345.54 108.25,327.13 108.27,346.43 108.30,352.32 108.33,330.65 108.35,324.26 108.38,327.01 108.41,349.35 108.42,358.24 108.46,340.65 108.49,325.46 108.52,374.73 108.55,314.76 108.58,327.75 108.60,340.81 108.63,343.96 108.65,355.80 108.67,309.24 108.70,326.12 108.74,359.99 108.77,339.03 108.77,344.07 108.81,323.14 108.83,362.09 108.86,340.04 108.88,356.97 108.91,350.27 108.95,342.25 108.98,335.28 109.00,349.68 109.03,312.30 109.07,346.89 109.07,337.25 109.10,338.39 109.13,347.70 109.17,323.12 109.20,344.70 109.20,343.07 109.24,340.69 109.28,342.46 109.31,345.78 109.33,343.32 109.36,321.30 109.38,333.57 109.40,339.56 109.44,358.93 109.45,314.21 109.49,325.53 109.53,342.55 109.55,336.19 109.59,317.56 109.60,336.51 109.63,318.52 109.65,335.09 109.68,353.76 109.71,336.86 109.75,330.18 109.77,348.03 109.78,340.61 109.83,329.06 109.84,359.42 109.87,351.36 109.90,333.42 109.92,312.14 109.95,328.25 109.98,318.98 110.01,330.37 110.04,337.43 110.06,349.39 110.08,329.16 110.13,341.79 110.15,345.73 110.16,324.83 110.20,345.62 110.24,329.96 110.27,344.95 110.29,304.91 110.32,330.71 110.35,341.25 110.36,310.28 110.39,353.20 110.42,329.06 110.45,318.03 110.49,338.41 110.51,318.13 110.54,348.22 110.57,333.11 110.59,323.86 110.61,327.24 110.64,343.37 110.66,357.65 110.69,328.99 110.73,338.86 110.75,326.22 110.77,350.02 110.81,320.40 110.83,341.44 110.85,345.49 110.90,349.70 110.91,328.48 110.96,337.01 110.98,346.62 110.99,334.75 111.04,329.48 111.06,328.20 111.08,324.22 111.11,310.11 111.14,321.22 111.17,355.27 111.18,331.97 111.22,342.07 111.25,353.29 111.27,316.95 111.31,340.38 111.34,338.14 111.37,321.47 111.38,348.89 111.41,325.74 111.45,336.77 111.46,324.13 111.51,322.85 111.54,326.50 111.55,343.48 111.57,333.85 111.61,339.53 111.65,359.46 111.66,341.26 111.70,334.85 111.73,314.93 111.76,341.34 111.77,353.62 111.81,348.65 111.82,345.21 111.87,341.68 111.88,337.46 111.92,335.32 111.96,347.62 111.98,334.10 112.00,318.82 112.02,344.73 112.06,315.18 112.09,338.77 112.10,342.78 112.13,342.45 112.17,318.79 112.18,334.63 112.22,328.67 112.25,322.97 112.27,352.77 112.29,331.68 112.33,331.63 112.37,344.84 112.39,335.50 112.43,318.06 112.44,335.79 112.48,355.06 112.51,319.59 112.52,338.27 112.57,350.20 112.60,360.58 112.62,337.24 112.65,322.04 112.67,349.78 112.70,336.50 112.72,320.73 112.75,321.65 112.78,334.45 112.81,356.04 112.83,340.43 112.87,335.84 112.90,328.81 112.92,337.01 112.96,338.41 112.96,343.45 113.01,323.23 113.05,347.29 113.05,325.29 113.10,337.23 113.13,325.02 113.16,354.11 113.16,329.01 113.20,347.12 113.23,338.25 113.27,349.64 113.29,325.74 113.32,347.28 113.35,339.60 113.38,332.24 113.39,315.76 113.43,335.84 113.45,332.86 113.50,335.41 113.50,303.93 113.53,331.59 113.57,340.72 113.59,323.55 113.62,329.74 113.65,344.79 113.69,322.74 113.70,331.72 113.74,326.09 113.77,336.16 113.80,318.23 113.83,346.83 113.86,358.96 113.89,346.76 113.91,333.73 113.94,347.88 113.96,354.77 113.99,351.02 114.02,295.22 114.05,311.99 114.07,325.38 114.11,342.41 114.14,305.53 114.17,332.58 114.18,344.84 114.22,322.86 114.26,345.54 114.27,348.77 114.30,335.90 114.32,355.80 114.35,326.26 114.39,337.75 114.41,349.81 114.46,347.13 114.46,339.00 114.51,339.45 114.52,328.89 114.55,327.86 114.60,342.74 114.61,356.87 114.66,346.98 114.67,343.61 114.70,306.83 114.73,352.77 114.75,315.64 114.78,341.87 114.80,356.10 114.85,342.22 114.86,350.28 114.90,337.42 114.94,323.47 114.96,334.70 114.97,335.70 115.02,337.91 115.03,347.68 115.07,340.38 115.10,357.18 115.14,331.20 115.16,337.57 115.17,330.34 115.23,339.58 115.24,351.50 115.28,355.69 115.30,353.58 115.33,347.03 115.36,324.05 115.39,329.61 115.41,347.56 115.43,330.82 115.47,356.19 115.50,349.22 115.53,322.93 115.55,303.55 115.60,329.12 115.61,330.05 115.64,342.30 115.67,348.23 115.71,316.03 115.71,306.65 115.76,361.86 115.78,334.83 115.82,360.48 115.84,352.15 115.86,359.75 115.90,348.45 115.94,343.40 115.96,338.46 115.97,330.59 116.02,341.75 116.03,342.05 116.07,365.37 116.09,346.17 116.14,351.62 116.15,361.94 116.18,329.34 116.21,340.62 116.25,331.04 116.27,321.43 116.30,339.03 116.34,330.96 116.37,339.52 116.38,338.87 116.41,338.06 116.44,348.06 116.47,338.89 116.49,341.96 116.53,324.24 116.57,335.44 116.59,329.99 116.60,330.54 116.64,343.01 116.66,321.03 116.71,330.34 116.72,326.23 116.77,344.92 116.79,341.20 116.81,345.34 116.85,320.26 116.87,347.32 116.90,322.34 116.94,346.67 116.95,328.75 117.00,335.35 117.01,351.31 117.05,337.46 117.08,327.96 117.12,362.25 117.14,344.13 117.16,344.63 117.19,339.97 117.22,343.46 117.24,344.05 117.28,348.50 117.31,338.45 117.34,348.84 117.37,304.51 117.40,332.18 117.43,339.51 117.46,326.15 117.49,334.28 117.51,306.39 117.54,327.87 117.57,339.57 117.61,353.11 117.65,343.81 117.65,354.65 117.70,330.26 117.72,329.22 117.74,350.64 117.78,335.33 117.80,330.83 117.84,325.66 117.87,305.56 117.89,332.79 117.92,334.69 117.96,332.00 117.97,346.05 118.00,349.96 118.05,358.73 118.07,335.61 118.09,342.03 118.12,358.50 118.15,356.41 118.18,357.75 118.22,328.52 118.25,347.54 118.28,327.27 118.30,321.92 118.32,340.27 118.36,362.08 118.39,347.79 118.43,335.01 118.45,325.19 118.49,320.48 118.51,339.98 118.54,329.53 118.58,333.37 118.58,346.17 118.63,348.93 118.65,349.29 118.67,335.09 118.70,324.31 118.75,371.60 118.78,329.99 118.81,352.49 118.82,344.02 118.85,330.45 118.90,335.39 118.90,332.88 118.94,336.85 118.98,322.10 118.99,305.78 119.02,328.95 119.06,338.54 119.10,306.30 119.13,331.57 119.15,357.31 119.17,348.76 119.22,345.33 119.25,351.52 119.26,334.86 119.30,347.55 119.34,347.54 119.36,338.49 119.38,335.37 119.42,336.44 119.44,339.17 119.48,316.81 119.50,294.47 119.52,345.09 119.56,311.54 119.60,356.28 119.61,308.19 119.66,355.85 119.68,328.62 119.72,318.40 119.74,330.45 119.77,350.90 119.81,335.65 119.82,339.54 119.85,334.28 119.88,338.08 119.90,332.33 119.95,341.41 119.98,330.68 120.01,339.73 120.04,341.25 120.07,336.62 120.09,330.70 120.12,337.75 120.16,333.98 120.19,340.22 120.21,349.68 120.25,343.80 120.26,343.34 120.30,321.17 120.34,341.36 120.36,333.62 120.39,330.75 120.42,334.27 120.44,350.83 120.47,350.08 120.50,357.71 120.55,337.40 120.56,339.41 120.59,326.09 120.64,343.90 120.64,324.91 120.68,341.51 120.72,330.90 120.75,335.56 120.78,337.02 120.80,347.20 120.85,324.88 120.86,315.98 120.90,304.53 120.94,327.11 120.96,343.87 120.99,350.25 121.02,338.14 121.05,321.89 121.07,316.66 121.11,331.61 121.14,349.62 121.16,327.81 121.20,350.13 121.23,354.92 121.26,319.33 121.28,340.83 121.31,337.22 121.35,326.96 121.37,344.74 121.40,329.26 121.43,323.41 121.45,343.01 121.51,329.39 121.51,307.11 121.57,326.81 121.59,309.99 121.60,310.84 121.65,348.45 121.66,339.37 121.70,335.02 121.73,336.12 121.77,352.51 121.79,321.07 121.82,318.51 121.84,351.98 121.89,335.50 121.92,328.33 121.95,335.47 121.98,377.86 122.00,311.29 122.03,342.80 122.06,326.67 122.09,359.70 122.13,348.99 122.16,330.64 122.19,338.29 122.21,326.53 122.26,322.86 122.28,335.33 122.31,329.72 122.34,329.56 122.37,336.35 122.40,343.95 122.41,337.41 122.47,301.88 122.47,318.19 122.53,335.28 122.55,346.70 122.57,340.51 122.61,359.90 122.64,345.26 122.67,346.78 122.70,356.33 122.74,361.55 122.75,310.53 122.78,322.92 122.83,341.57 122.84,321.91 122.87,332.43 122.90,330.35 122.93,345.91 122.96,340.24 122.98,342.91 123.02,323.49 123.05,337.71 123.10,339.39 123.12,322.95 123.14,335.77 123.19,342.69 123.20,353.19 123.23,349.81 123.26,329.24 123.29,326.90 123.34,314.56 123.36,306.29 123.38,345.13 123.43,332.96 123.46,308.50 123.47,336.91 123.52,306.12 123.56,339.00 123.57,355.32 123.61,333.44 123.62,320.05 123.65,341.07 123.70,324.71 123.72,311.45 123.75,310.42 123.78,310.55 123.83,330.49 123.85,340.10 123.88,333.21 123.91,353.15 123.95,342.31 123.98,321.41 124.01,342.72 124.03,339.16 124.05,315.99 124.10,314.39 124.13,346.71 124.14,328.88 124.17,352.07 124.20,322.11 124.24,311.71 124.29,333.31 124.31,342.60 124.34,343.35 124.36,352.29 124.39,331.13 124.42,338.73 124.46,364.31 124.50,322.45 124.51,317.54 124.55,326.70 124.58,328.83 124.61,329.33 124.64,313.11 124.67,340.77 124.71,315.89 124.73,329.64 124.76,362.10 124.80,334.65 124.82,335.78 124.86,311.73 124.89,332.27 124.92,344.39 124.94,332.78 124.99,331.40 125.02,334.09 125.03,328.99 125.08,348.06 125.11,336.46 125.14,344.19 125.16,327.94 125.20,320.95 125.22,326.74 125.26,326.04 125.27,349.81 125.32,332.19 125.35,339.64 125.38,340.19 125.40,297.70 125.43,330.50 125.46,354.48 125.50,343.64 125.54,318.74 125.58,357.02 125.61,361.00 125.61,345.14 125.65,319.70 125.68,329.90 125.71,346.75 125.75,339.24 125.79,349.19 125.81,361.59 125.84,348.67 125.87,330.10 125.89,325.42 125.94,332.20 125.96,329.08 126.00,355.94 126.04,350.63 126.05,340.07 126.09,340.43 126.13,337.52 126.16,340.15 126.17,352.27 126.20,337.81 126.26,352.31 126.27,335.74 126.31,333.33 126.34,323.25 126.37,336.00 126.40,327.99 126.44,328.18 126.47,348.58 126.49,361.76 126.51,342.33 126.56,342.49 126.57,334.01 126.62,343.36 126.65,338.44 126.69,326.35 126.70,338.34 126.74,334.18 126.76,342.81 126.79,324.06 126.82,327.54 126.86,318.02 126.90,342.77 126.94,338.01 126.97,337.95 126.99,346.81 127.03,350.40 127.06,341.33 127.10,329.89 127.11,334.56 127.16,327.56 127.16,323.04 127.22,335.00 127.26,352.25 127.27,340.00 127.30,343.48 127.34,340.31 127.38,347.96 127.41,334.60 127.44,314.48 127.45,339.41 127.48,310.91 127.52,311.08 127.57,325.70 127.59,324.21 127.62,335.57 127.66,334.50 127.68,345.22 127.71,324.47 127.75,309.45 127.76,300.85 127.81,327.25 127.82,344.22 127.87,330.72 127.89,337.25 127.93,334.25 127.97,343.38 127.99,344.56 128.01,346.55 128.07,316.25 128.08,325.10 128.12,323.13 128.16,352.03 128.17,332.63 128.20,331.25 128.25,326.97 128.29,323.23 128.30,330.03 128.33,351.08 128.36,341.34 128.41,328.68 128.43,322.73 128.47,324.32 128.49,330.16 128.53,325.44 128.57,327.77 128.58,322.21 128.62,337.99 128.64,355.12 128.68,344.17 128.73,357.42 128.76,341.71 128.78,329.85 128.80,335.57 128.84,340.62 128.89,339.22 128.91,331.92 128.93,323.65 128.96,324.78 129.01,322.48 129.05,339.49 129.07,320.20 129.09,323.99 129.14,325.88 129.15,342.47 129.19,342.04 129.24,339.73 129.26,336.36 129.29,340.76 129.32,334.90 129.35,348.36 129.38,322.45 129.43,333.36 129.44,314.64 129.47,325.76 129.52,351.22 129.54,350.49 129.58,327.18 129.61,328.23 129.64,351.91 129.66,323.50 129.71,348.20 129.73,352.52 129.78,345.69 129.78,334.95 129.83,340.80 129.87,344.47 129.90,353.97 129.94,310.12 129.95,332.00 129.97,331.98 130.01,349.18 130.06,323.97 130.09,338.40 130.12,338.46 130.15,328.37 130.17,323.83 130.21,317.65 130.24,309.80 130.28,317.49 130.31,336.83 130.33,346.45 130.37,334.95 130.39,330.17 130.43,326.31 130.47,321.04 130.48,341.27 130.55,352.66 130.56,326.07 130.59,335.85 130.62,352.90 130.67,314.61 130.69,343.13 130.73,353.29 130.76,316.78 130.78,345.08 130.83,311.01 130.86,333.31 130.89,345.70 130.91,320.38 130.95,308.61 130.99,358.81 131.02,330.30 131.03,337.42 131.07,348.00 131.12,344.26 131.15,312.83 131.19,327.88 131.20,323.56 131.24,319.20 131.28,326.03 131.31,339.37 131.35,336.67 131.36,339.60 131.41,330.99 131.45,340.38 131.47,342.35 131.51,345.57 131.52,315.61 131.57,329.20 131.58,324.53 131.61,337.28 131.64,323.24 131.67,337.23 131.73,312.85 131.75,329.95 131.78,362.10 131.81,314.22 131.86,343.12 131.90,360.38 131.93,345.75 131.93,356.09 131.99,332.06 132.01,324.00 132.05,351.92 132.07,325.28 132.10,351.15 132.14,339.86 132.18,330.18 132.20,327.70 132.25,321.92 132.29,327.25 132.32,339.20 132.33,344.48 132.37,337.82 132.40,344.34 132.44,324.11 132.48,347.45 132.51,310.25 132.53,323.61 132.56,329.36 132.60,327.58 132.62,324.31 132.65,334.02 132.69,332.26 132.74,341.61 132.77,344.21 132.78,344.40 132.84,355.87 132.87,362.93 132.89,338.25 132.93,343.71 132.95,354.91 133.00,324.32 133.02,342.30 133.05,321.47 133.09,343.53 133.13,321.18 133.14,326.04 133.17,334.33 133.23,339.70 133.26,308.69 133.28,317.83 133.32,324.04 133.35,338.85 133.37,330.73 133.41,323.97 133.45,347.41 133.46,330.50 133.52,326.53 133.55,318.47 133.58,313.45 133.62,339.21 133.63,350.53 133.68,339.79 133.69,338.67 133.74,316.65 133.77,331.18 133.79,338.25 133.84,343.50 133.86,354.99 133.90,351.06 133.94,319.52 133.98,300.51 134.00,367.29 134.03,338.64 134.07,325.69 134.11,350.22 134.14,340.62 134.17,325.51 134.21,333.24 134.24,307.59 134.27,334.90 134.31,330.04 134.34,341.83 134.37,338.21 134.40,333.23 134.45,323.89 134.47,327.57 134.51,325.26 134.52,326.31 134.56,345.47 134.61,362.93 134.63,351.00 134.66,334.68 134.69,321.23 134.72,334.71 134.75,351.06 134.81,315.27 134.84,330.73 134.86,319.05 134.89,346.40 134.92,317.20 134.97,328.86 135.00,327.86 135.02,327.42 135.06,327.76 135.10,313.51 135.13,336.11 135.17,334.90 135.20,332.06 135.23,352.77 135.26,352.91 135.28,325.57 135.32,343.20 135.34,341.10 135.39,320.59 135.43,335.29 135.47,311.57 135.48,334.49 135.51,336.86 135.55,313.12 135.61,168.56 135.61,256.37 135.67,353.78 135.69,353.96 135.73,329.09 135.77,322.51 135.79,333.41 135.84,324.08 135.85,351.78 135.88,328.25 135.92,339.47 135.95,326.36 136.00,298.02 136.02,330.70 136.04,338.07 136.10,358.44 136.14,347.79 136.16,348.60 136.20,344.37 136.23,367.46 136.27,323.60 136.30,329.18 136.33,347.11 136.37,342.22 136.39,355.27 136.42,353.27 136.47,350.57 136.50,324.41 136.52,334.82 136.56,349.14 136.60,335.44 136.63,355.26 136.66,359.30 136.71,325.61 136.72,321.00 136.75,339.54 136.81,335.50 136.84,330.38 136.86,334.86 136.89,336.35 136.93,336.81 136.98,333.59 137.00,331.29 137.04,362.20 137.07,333.15 137.10,330.03 137.12,348.28 137.16,323.18 137.19,350.96 137.22,321.93 137.26,339.15 137.28,336.53 137.34,333.48 137.37,333.07 137.39,347.92 137.43,371.30 137.45,364.64 137.52,349.56 137.55,322.66 137.57,352.67 137.62,318.74 137.65,316.41 137.67,317.16 137.70,328.90 137.75,330.45 137.76,324.42 137.81,338.65 137.85,347.46 137.89,343.87 137.92,342.06 137.94,337.20 137.98,334.51 138.02,314.37 138.04,345.51 138.09,336.28 138.10,344.32 138.14,361.74 138.19,316.45 138.23,322.80 138.25,329.20 138.27,344.33 138.30,340.70 138.35,340.23 138.39,307.29 138.41,337.60 138.45,321.94 138.49,330.48 138.50,357.83 138.56,330.56 138.59,351.53 138.63,317.54 138.66,348.77 138.68,347.73 138.71,329.19 138.74,350.21 138.79,328.23 138.82,352.60 138.88,330.22 138.91,334.52 138.94,308.04 138.95,326.05 139.00,353.91 139.04,311.28 139.08,327.07 139.10,338.55 139.14,360.30 139.18,332.17 139.20,346.29 139.22,330.60 139.27,313.11 139.30,322.12 139.33,322.48 139.36,333.58 139.42,328.78 139.43,340.16 139.48,334.35 139.51,317.11 139.53,331.59 139.57,343.71 139.62,337.03 139.65,336.85 139.68,327.93 139.72,320.42 139.74,336.44 139.77,359.72 139.80,332.59 139.85,343.99 139.87,319.83 139.93,342.24 139.95,338.66 139.99,339.64 140.03,332.27 140.06,335.26 140.10,322.96 140.13,353.78 140.17,334.58 140.21,328.17 140.22,329.88 140.26,331.09 140.30,348.77 140.34,347.79 140.36,322.23 140.41,316.87 140.46,325.69 140.46,339.62 140.50,303.77 140.53,311.18 140.57,354.04 140.62,345.03 140.64,334.55 140.67,320.87 140.70,355.32 140.75,350.07 140.77,339.36 140.81,349.95 140.84,349.12 140.88,345.42 140.91,347.07 140.97,315.05 140.99,316.28 141.03,325.63 141.05,344.44 141.08,336.58 141.14,341.63 141.17,355.11 141.22,295.15 141.23,318.39 141.27,327.76 141.32,326.23 141.35,349.57 141.37,334.04 141.39,321.10 141.45,325.48 141.47,321.24 141.52,322.45 141.53,359.06 141.60,311.00 141.62,343.92 141.66,322.38 141.67,314.02 141.71,349.60 141.76,335.44 141.78,323.54 141.84,304.69 141.86,329.30 141.88,334.48 141.92,336.03 141.95,333.26 141.99,320.42 142.03,335.98 142.07,315.81 142.11,360.08 142.16,358.02 142.19,310.58 142.23,345.01 142.25,325.36 142.29,330.47 142.31,336.41 142.37,337.80 142.38,361.38 142.41,340.14 142.44,352.93 142.50,341.03 142.54,332.08 142.56,337.40 142.60,337.85 142.65,308.08 142.68,330.16 142.69,336.08 142.74,340.23 142.77,338.87 142.80,336.85 142.85,351.58 142.87,323.10 142.92,322.86 142.94,314.23 143.00,347.04 143.01,323.44 143.05,350.22 143.08,322.96 143.14,321.39 143.16,363.27 143.21,313.08 143.22,330.91 143.28,341.68 143.31,333.13 143.35,329.36 143.36,318.54 143.39,328.84 143.45,336.26 143.48,327.32 143.50,339.84 143.56,331.65 143.57,340.27 143.61,325.81 143.66,346.20 143.70,336.10 143.74,342.66 143.75,345.93 143.78,356.56 143.83,345.64 143.87,332.88 143.90,342.14 143.95,331.14 143.98,326.25 144.00,321.57 144.03,346.65 144.09,337.54 144.12,335.18 144.16,340.97 144.18,330.46 144.22,334.53 144.25,342.92 144.29,302.36 144.31,327.22 144.37,342.32 144.39,336.28 144.45,338.75 144.49,344.13 144.52,328.17 144.53,340.89 144.57,332.53 144.61,342.32 144.65,311.81 144.70,310.79 144.73,347.95 144.76,341.22 144.80,349.58 144.83,341.67 144.86,347.25 144.90,342.87 144.94,348.02 144.96,330.94 145.02,321.13 145.06,317.54 145.07,333.13 145.10,313.05 145.13,336.98 145.20,336.53 145.22,349.48 145.26,317.41 145.27,347.02 145.34,326.89 145.35,343.65 145.40,312.97 145.43,325.91 145.47,338.09 145.52,317.44 145.54,346.51 145.59,353.59 145.60,345.04 145.65,334.94 145.70,347.24 145.73,292.41 145.77,327.28 145.81,333.38 145.81,351.44 145.88,345.54 145.90,343.21 145.93,339.17 145.97,337.34 146.02,358.77 146.05,340.86 146.09,332.46 146.13,343.87 146.15,344.58 146.17,321.11 146.21,312.94 146.28,341.56 146.29,351.92 146.33,316.41 146.37,338.98 146.41,330.29 146.43,333.49 146.49,328.43 146.50,318.14 146.54,338.01 146.57,328.28 146.63,346.41 146.65,358.36 146.70,330.53 146.73,325.44 146.76,338.49 146.82,359.58 146.84,330.83 146.88,336.57 146.91,318.51 146.95,323.42 146.99,330.47 147.04,324.52 147.04,341.88 147.11,332.01 147.15,326.01 147.18,313.81 147.22,332.02 147.23,323.47 147.28,327.46 147.31,329.07 147.35,351.40 147.38,319.16 147.43,331.49 147.46,360.48 147.49,350.24 147.52,323.91 147.55,346.04 147.59,353.36 147.62,325.64 147.68,357.07 147.72,348.74 147.74,320.56 147.80,331.94 147.83,334.11 147.88,331.46 147.91,346.05 147.94,345.87 147.96,311.11 148.00,336.41 148.04,351.18 148.08,324.36 148.11,343.60 148.14,345.83 148.17,351.39 148.21,332.05 148.27,341.79 148.30,335.09 148.34,313.74 148.37,347.53 148.43,349.48 148.43,352.88 148.48,341.37 148.54,351.79 148.56,354.94 148.61,322.50 148.63,332.60 148.66,341.84 148.69,321.99 148.75,324.64 148.78,356.78 148.82,351.75 148.84,331.66 148.90,319.57 148.91,316.41 148.97,361.45 148.98,317.97 149.05,340.30 149.07,348.96 149.10,339.48 149.16,321.47 149.19,341.37 149.22,353.87 149.26,322.69 149.29,337.89 149.32,324.12 149.35,355.53 149.40,343.07 149.42,353.12 149.49,335.77 149.52,322.90 149.54,330.67 149.60,324.90 149.64,344.66 149.67,327.71 149.69,335.84 149.73,350.44 149.77,313.70 149.81,327.92 149.84,338.18 149.89,329.37 149.93,339.64 149.96,316.98 149.99,336.59 150.05,337.94 150.06,321.46 150.11,341.11 150.13,344.84 150.18,320.12 150.22,331.53 150.27,340.38 150.30,343.25 150.33,331.97 150.38,340.46 150.41,331.49 150.44,344.38 150.49,345.52 150.50,344.37 150.55,320.90 150.60,317.86 150.62,322.00 150.67,332.36 150.69,327.59 150.73,326.29 150.79,357.74 150.82,319.98 150.85,329.28 150.89,357.17 150.91,320.59 150.96,318.98 150.99,345.30 151.03,344.56 151.08,343.38 151.11,340.51 151.15,333.84 151.18,356.86 151.24,323.95 151.28,335.79 151.30,339.51 151.35,325.22 151.39,332.00 151.40,322.85 151.43,344.33 151.50,340.89 151.53,340.84 151.55,340.47 151.61,352.70 151.65,341.58 151.66,335.29 151.72,322.80 151.76,332.98 151.78,337.22 151.83,321.37 151.87,366.28 151.89,344.57 151.92,336.67 151.99,331.15 152.01,350.20 152.05,328.65 152.09,359.69 152.12,349.23 152.18,334.51 152.20,343.66 152.22,328.47 152.27,317.11 152.33,328.82 152.37,339.89 152.40,353.55 152.44,337.83 152.48,324.42 152.49,326.00 152.55,340.49 152.57,331.64 152.62,336.43 152.65,334.54 152.68,325.77 152.75,323.05 152.78,350.34 152.79,355.39 152.85,342.00 152.90,337.23 152.93,333.82 152.96,350.54 152.99,342.29 153.04,341.60 153.06,317.64 153.11,308.66 153.14,347.10 153.18,332.91 153.23,319.28 153.25,343.20 153.31,352.54 153.33,308.93 153.36,357.75 153.40,339.15 153.44,351.55 153.50,328.35 153.54,333.38 153.56,314.34 153.60,345.59 153.65,331.66 153.70,329.20 153.71,340.82 153.77,344.81 153.81,358.29 153.85,342.99 153.87,348.12 153.90,325.86 153.95,329.81 154.00,326.34 154.03,303.41 154.05,316.92 154.12,316.94 154.16,332.26 154.17,332.84 154.22,328.29 154.24,353.60 154.30,330.09 154.33,341.59 154.39,337.95 154.41,337.40 154.45,346.63 154.49,340.70 154.54,343.99 154.56,350.28 154.59,316.06 154.65,344.09 154.70,352.64 154.71,353.46 154.74,340.88 154.81,333.52 154.82,342.01 154.88,331.37 154.89,350.13 154.95,327.15 154.98,335.35 155.02,317.67 155.06,319.76 155.08,324.09 155.13,333.57 155.18,317.47 155.22,324.96 155.24,347.54 155.29,333.81 155.32,329.51 155.36,346.69 155.41,339.07 155.44,347.80 155.49,341.39 155.54,339.07 155.56,349.18 155.60,333.68 155.65,340.77 155.69,334.83 155.72,329.08 155.75,359.38 155.81,311.73 155.85,348.48 155.88,354.63 155.90,338.58 155.97,317.85 155.99,329.28 156.03,333.22 156.06,343.29 156.11,342.41 156.13,350.84 156.20,323.42 156.21,354.19 156.26,359.94 156.30,334.98 156.36,334.49 156.36,343.62 156.43,327.32 156.45,329.51 156.51,315.39 156.54,330.62 156.56,338.71 156.62,327.41 156.67,293.84 156.71,335.20 156.74,334.47 156.77,345.94 156.80,329.99 156.84,344.67 156.91,320.26 156.94,324.82 156.96,323.72 157.00,342.39 157.04,348.04 157.08,341.25 157.12,342.53 157.17,334.69 157.20,318.82 157.25,324.46 157.29,316.48 157.33,337.15 157.36,336.09 157.39,338.71 157.43,346.03 157.46,357.59 157.53,323.80 157.57,338.46 157.60,341.82 157.63,345.89 157.68,322.28 157.73,319.13 157.77,326.61 157.78,332.09 157.84,354.73 157.88,373.07 157.91,336.83 157.94,338.08 157.99,339.98 158.01,338.79 158.08,349.45 158.11,343.94 158.14,363.58 158.19,365.48 158.22,327.28 158.26,332.34 158.32,324.89 158.33,315.32 158.38,335.55 158.41,329.75 158.46,336.67 158.49,360.27 158.53,356.26 158.58,290.24 158.62,311.87 158.65,348.71 158.72,344.59 158.76,341.55 158.78,341.65 158.84,330.09 158.85,336.28 158.90,332.64 158.94,348.17 158.97,341.19 159.03,338.73 159.04,338.37 159.11,338.88 159.15,344.36 159.17,339.53 159.22,348.71 159.26,336.07 159.31,354.28 159.35,320.80 159.38,345.87 159.40,329.42 159.47,347.12 159.49,348.34 159.53,337.06 159.56,334.52 159.60,351.01 159.65,308.51 159.71,357.69 159.74,335.79 159.79,314.38 159.82,337.77 159.85,290.01 159.90,296.50 159.94,326.58 159.99,375.35 160.00,316.01 160.05,330.73 160.09,338.75 160.13,353.39 160.18,339.50 160.23,335.21 160.27,332.37 160.28,342.07 160.33,333.69 160.39,358.84 160.40,322.16 160.47,327.61 160.51,339.92 160.52,334.64 160.59,365.26 160.60,316.79 160.66,328.62 160.71,331.94 160.73,343.96 160.76,327.71 160.83,341.40 160.85,319.38 160.92,340.04 160.93,331.37 160.99,330.99 161.03,342.51 161.06,336.81 161.09,345.87 161.14,332.30 161.16,347.27 161.20,354.94 161.24,333.33 161.28,339.42 161.33,319.96 161.37,317.38 161.44,323.99 161.47,337.95 161.50,336.84 161.56,337.93 161.58,327.00 161.63,343.29 161.68,344.41 161.72,311.93 161.73,356.48 161.77,333.31 161.82,332.54 161.88,338.72 161.91,335.87 161.97,342.83 161.99,350.55 162.05,329.26 162.08,339.54 162.12,318.82 162.15,363.95 162.19,333.04 162.25,342.70 162.27,340.92 162.33,321.31 162.36,350.97 162.38,347.24 162.43,336.97 162.47,340.81 162.52,331.17 162.56,354.13 162.61,324.68 162.66,331.33 162.68,341.13 162.71,328.67 162.78,332.05 162.82,336.42 162.85,343.03 162.87,338.70 162.91,349.25 162.95,330.71 163.01,306.94 163.06,303.18 163.10,347.55 163.13,343.23 163.18,341.28 163.20,338.90 163.25,353.39 163.28,351.39 163.36,326.03 163.38,315.56 163.42,354.40 163.48,344.34 163.49,328.73 163.55,312.89 163.60,342.45 163.62,328.22 163.65,354.50 163.71,354.54 163.77,332.51 163.81,343.27 163.82,346.45 163.88,352.63 163.90,334.91 163.95,339.65 163.99,354.84 164.03,329.90 164.08,340.64 164.13,320.83 164.17,316.89 164.20,352.40 164.26,345.27 164.29,332.75 164.33,346.45 164.35,318.10 164.43,335.49 164.47,331.06 164.49,334.98 164.55,346.83 164.56,340.47 164.61,326.70 164.67,348.59 164.71,332.57 164.75,329.94 164.79,324.59 164.84,318.67 164.85,329.24 164.90,350.29 164.95,350.26 164.99,333.52 165.04,321.33 165.07,347.33 165.10,325.64 165.14,349.70 165.19,352.46 165.24,336.65 165.29,316.83 165.30,334.25 165.35,329.15 165.43,345.84 165.46,339.83 165.48,333.28 165.52,341.10 165.59,340.87 165.60,337.29 165.66,344.83 165.68,314.47 165.74,358.48 165.76,331.30 165.83,321.49 165.87,334.39 165.90,336.47 165.94,347.17 166.00,330.95 166.05,332.00 166.06,330.45 166.13,321.85 166.17,344.37 166.21,323.21 166.25,349.19 166.27,334.08 166.32,328.47 166.38,356.77 166.41,340.31 166.46,334.49 166.49,322.04 166.54,329.63 166.58,330.67 166.63,316.20 166.67,333.74 166.71,348.87 166.73,322.45 166.81,344.80 166.82,330.76 166.88,320.58 166.92,324.42 166.97,335.59 167.02,317.73 167.05,328.21 167.07,318.83 167.12,362.24 167.16,322.22 167.20,329.03 167.27,324.06 167.30,322.22 167.35,340.49 167.40,332.37 167.43,338.12 167.48,339.41 167.52,329.55 167.55,315.75 167.58,343.76 167.63,350.39 167.66,336.34 167.72,317.90 167.78,313.81 167.81,339.64 167.84,343.55 167.89,356.77 167.93,344.26 168.00,326.77 168.03,344.89 168.06,309.38 168.10,316.99 168.15,337.91 168.19,338.80 168.22,309.61 168.27,333.51 168.31,321.92 168.36,334.70 168.41,347.37 168.45,341.37 168.48,329.50 168.53,338.43 168.57,347.27 168.64,307.68 168.64,344.56 168.69,331.99 168.75,324.18 168.77,342.16 168.82,322.80 168.86,344.95 168.90,350.98 168.97,336.88 168.99,316.28 169.05,333.35 169.10,331.41 169.14,315.02 169.18,320.70 169.20,340.06 169.25,346.03 169.29,337.20 169.35,355.74 169.41,353.44 169.42,339.41 169.46,337.00 169.51,335.76 169.57,330.49 169.58,331.17 169.63,334.17 169.71,342.59 169.73,333.75 169.78,344.04 169.81,334.24 169.86,335.41 169.91,313.63 169.96,331.98 170.00,346.92 170.02,322.11 170.08,350.79 170.11,351.44 170.18,342.27 170.21,346.64 170.24,325.10 170.31,341.54 170.34,324.29 170.36,342.76 170.43,338.96 170.48,338.60 170.49,350.63 170.54,316.83 170.58,358.92 170.65,357.45 170.68,354.47 170.74,343.62 170.78,344.32 170.81,338.68 170.87,357.26 170.92,333.81 170.96,320.84 170.98,340.31 171.03,361.50 171.08,339.85 171.14,338.88 171.18,365.60 171.19,329.25 171.23,338.44 171.29,326.25 171.35,353.22 171.38,323.51 171.42,335.92 171.49,341.75 171.49,330.23 171.53,326.48 171.58,339.45 171.65,351.34 171.70,325.15 171.74,342.48 171.78,322.42 171.82,299.61 171.85,333.87 171.89,323.00 171.96,314.09 171.99,329.18 172.03,306.81 172.07,329.41 172.11,327.78 172.15,333.45 172.23,341.30 172.26,327.89 172.31,325.69 172.35,349.07 172.38,310.29 172.44,346.14 172.47,309.39 172.54,339.75 172.54,352.34 172.60,326.31 172.66,332.96 172.72,344.38 172.76,342.71 172.78,312.76 172.85,333.28 172.85,340.88 172.91,326.63 172.96,340.79 173.01,354.15 173.06,332.21 173.09,326.75 173.12,340.95 173.16,333.56 173.24,325.90 173.26,348.16 173.32,327.54 173.37,328.36 173.41,320.67 173.46,335.77 173.49,354.70 173.52,314.05 173.57,345.15 173.64,326.45 173.68,351.08 173.73,324.51 173.75,335.15 173.79,344.81 173.84,360.76 173.88,336.23 173.95,362.03 174.00,353.23 174.04,344.41 174.08,343.52 174.11,337.52 174.16,335.27 174.20,316.42 174.26,335.86 174.27,346.10 174.34,343.11 174.38,356.31 174.41,352.16 174.46,326.53 174.50,326.64 174.55,336.96 174.62,340.59 174.64,329.56 174.69,332.50 174.75,337.38 174.80,340.28 174.84,350.67 174.87,345.82 174.92,341.96 174.95,311.71 174.99,328.96 175.03,331.53 175.10,347.46 175.14,356.27 175.17,354.22 175.22,367.13 175.26,315.71 175.33,352.51 175.37,358.47 175.40,347.40 175.46,324.56 175.48,305.72 175.55,346.81 175.59,346.51 175.63,322.96 175.67,346.43 175.75,351.38 175.76,354.83 175.82,328.47 175.85,332.19 175.92,349.38 175.97,352.36 175.98,336.30 176.06,359.48 176.10,333.54 176.15,316.25 176.19,337.88 176.22,345.13 176.29,320.90 176.32,318.31 176.35,323.23 176.39,344.46 176.44,332.12 176.50,328.66 176.54,348.70 176.58,322.50 176.61,343.66 176.66,321.86 176.74,340.08 176.78,338.89 176.80,344.93 176.86,345.30 176.91,340.82 176.94,323.48 176.98,328.12 177.05,354.37 177.07,351.72 177.13,339.69 177.19,339.35 177.22,347.87 177.26,339.34 177.31,342.73 177.37,343.10 177.42,326.42 177.45,339.77 177.47,346.19 177.53,341.64 177.57,326.87 177.64,301.26 177.68,362.20 177.72,358.54 177.78,340.56 177.80,356.68 177.85,330.58 177.89,340.15 177.96,329.31 178.01,317.88 178.04,341.73 178.11,322.36 178.15,328.23 178.18,325.26 178.24,339.39 178.26,352.69 178.31,341.89 178.37,331.03 178.42,328.78 178.45,338.28 178.52,341.75 178.57,345.46 178.60,338.37 178.66,345.25 178.68,337.47 178.75,346.56 178.80,344.36 178.83,329.87 178.86,319.55 178.91,344.26 178.95,347.77 179.02,336.40 179.06,343.80 179.10,336.29 179.17,322.54 179.21,342.64 179.26,332.38 179.28,348.19 179.34,333.84 179.39,345.94 179.43,344.96 179.48,347.83 179.51,337.42 179.57,340.32 179.60,343.80 179.66,356.75 179.71,348.92 179.76,342.53 179.81,344.10 179.85,338.31 179.90,339.34 179.94,342.03 179.99,344.62 180.04,359.83 180.07,312.99 180.15,351.68 180.18,344.82 180.23,328.84 180.28,312.60 180.31,327.85 180.38,337.46 180.39,326.34 180.45,340.71 180.51,354.36 180.54,318.20 180.62,340.04 180.66,340.53 180.70,333.67 180.72,330.00 180.79,333.39 180.84,337.58 180.89,346.23 180.93,316.38 180.95,331.47 181.01,322.33 181.08,347.66 181.13,328.37 181.17,353.53 181.20,332.87 181.25,327.67 181.32,332.89 181.36,348.92 181.39,328.25 181.45,354.50 181.47,326.95 181.55,340.21 181.58,317.44 181.61,353.28 181.68,339.75 181.70,345.76 181.76,311.32 181.81,352.15 181.87,340.52 181.91,340.59 181.93,339.91 182.01,344.13 182.05,317.61 182.11,339.10 182.13,336.54 182.18,341.12 182.26,334.59 182.28,336.48 182.32,329.63 182.37,360.13 182.43,360.91 182.46,324.89 182.50,343.53 182.59,339.21 182.62,360.07 182.68,327.33 182.70,341.24 182.74,318.34 182.79,328.45 182.84,321.68 182.92,336.53 182.96,333.39 182.99,338.05 183.07,338.19 183.12,341.12 183.16,335.22 183.21,348.89 183.24,352.35 183.30,319.82 183.33,333.36 183.38,360.47 183.43,336.30 183.50,327.20 183.51,299.96 183.57,346.08 183.64,343.67 183.67,347.60 183.72,324.95 183.78,322.72 183.82,339.32 183.84,329.00 183.90,331.01 183.96,331.00 184.00,332.18 184.06,341.63 184.09,344.43 184.15,351.67 184.20,330.28 184.26,338.23 184.31,320.01 184.33,339.81 184.40,338.54 184.41,316.76 184.48,321.29 184.55,339.58 184.59,337.68 184.64,325.75 184.67,330.17 184.73,307.91 184.77,340.36 184.81,342.62 184.89,342.39 184.93,300.62 184.95,335.35 185.01,323.01 185.05,340.61 185.12,332.96 185.15,319.55 185.20,328.91 185.26,338.63 185.31,310.60 185.34,321.59 185.38,345.81 185.46,336.48 185.52,332.54 185.53,328.23 185.58,348.32 185.64,342.76 185.71,362.22 185.74,328.60 185.78,343.52 185.86,331.02 185.89,336.23 185.93,332.12 186.00,311.74 186.02,317.17 186.08,338.02 186.12,333.57 186.16,328.89 186.23,350.95 186.27,357.80 186.33,334.94 186.38,337.85 186.45,332.08 186.48,329.57 186.52,333.35 186.58,329.24 186.61,346.02 186.68,328.59 186.70,337.27 186.78,342.62 186.84,312.75 186.86,336.23 186.94,328.75 186.95,347.80 187.02,346.71 187.07,327.67 187.12,322.15 187.16,324.68 187.23,347.57 187.24,361.62 187.32,338.33 187.36,328.96 187.42,308.44 187.47,326.83 187.49,320.90 187.55,344.80 187.62,319.33 187.67,338.29 187.70,332.10 187.76,341.67 187.81,337.16 187.85,330.55 187.92,326.99 187.96,322.76 188.00,316.27 188.03,313.37 188.10,342.81 188.15,332.42 188.21,330.52 188.25,332.70 188.32,341.07 188.35,327.32 188.42,337.29 188.44,363.12 188.49,324.25 188.57,344.77 188.60,331.79 188.67,332.51 188.68,337.92 188.77,315.82 188.80,321.89 188.82,342.15 188.89,333.77 188.94,330.56 189.00,322.93 189.03,309.90 189.09,344.05 189.13,323.61 189.19,325.95 189.26,350.74 189.30,336.34 189.33,348.45 189.42,323.77 189.46,340.57 189.48,314.89 189.54,329.89 189.60,345.96 189.63,342.31 189.68,344.32 189.72,307.41 189.77,320.24 189.86,331.27 189.89,348.62 189.96,324.51 190.01,343.38 190.07,321.33 190.12,344.82 190.16,339.94 190.19,343.92 190.25,365.01 190.28,363.01 190.37,350.43 190.40,350.14 190.46,341.34 190.52,357.12 190.53,337.10 190.60,345.38 190.66,340.89 190.69,338.18 190.77,335.57 190.78,323.82 190.84,344.71 190.92,349.96 190.95,353.30 191.00,317.59 191.03,320.21 191.09,341.55 191.15,326.45 191.19,353.02 191.24,340.77 191.30,311.54 191.37,335.19 191.41,321.50 191.48,327.33 191.49,344.14 191.55,351.71 191.61,349.09 191.64,358.97 191.71,337.23 191.74,338.30 191.81,327.98 191.89,342.33 191.91,370.56 191.96,328.12 192.04,315.60 192.06,326.03 192.10,338.23 192.17,337.84 192.21,329.79 192.29,348.53 192.34,347.05 192.40,328.12 192.41,335.83 192.49,356.18 192.51,341.85 192.61,310.61 192.64,353.18 192.70,356.50 192.73,332.45 192.79,345.58 192.83,310.66 192.90,354.52 192.93,323.78 192.99,348.96 193.04,337.35 193.12,329.12 193.16,332.39 193.21,341.86 193.24,336.99 193.28,324.00 193.37,345.56 193.38,328.40 193.45,347.07 193.51,314.42 193.54,345.76 193.62,313.18 193.68,346.29 193.71,327.74 193.78,348.67 193.82,338.62 193.87,330.59 193.93,330.04 194.00,344.82 194.04,313.08 194.08,342.94 194.14,341.24 194.19,315.54 194.21,328.63 194.30,349.52 194.36,346.53 194.40,344.48 194.46,335.78 194.47,348.93 194.53,343.51 194.59,329.94 194.65,334.25 194.70,340.05 194.74,344.53 194.79,350.60 194.84,344.52 194.88,351.54 194.97,332.80 194.99,334.66 195.04,326.28 195.14,327.42 195.15,336.11 195.20,345.51 195.27,338.64 195.34,327.12 195.39,343.17 195.43,347.37 195.50,336.98 195.52,334.09 195.56,322.34 195.62,325.57 195.72,337.75 195.77,308.61 195.78,330.14 195.85,334.97 195.91,317.94 195.95,339.06 196.03,339.48 196.07,333.89 196.10,327.37 196.18,339.89 196.24,345.75 196.25,339.02 196.33,349.05 196.40,322.34 196.40,313.54 196.49,331.32 196.51,346.19 196.61,332.95 196.64,354.39 196.71,335.04 196.75,346.99 196.81,346.97 196.88,367.22 196.92,356.79 196.93,325.26 197.00,339.84 197.04,324.57 197.14,314.17 197.19,366.54 197.22,337.16 197.29,348.74 197.33,332.91 197.39,347.78 197.45,354.88 197.49,332.83 197.53,339.35 197.60,353.57 197.66,314.58 197.69,329.81 197.75,339.83 197.82,337.36 197.85,347.64 197.89,348.68 197.95,318.36 198.01,299.14 198.05,325.24 198.14,337.35 198.16,355.94 198.25,336.69 198.27,312.14 198.36,356.69 198.37,325.26 198.45,328.41 198.51,327.07 198.57,318.83 198.61,303.19 198.66,341.09 198.72,331.45 198.79,332.13 198.80,380.64 198.87,328.73 198.92,349.99 198.98,309.92 199.03,330.04 199.09,339.80 199.12,328.95 199.20,337.43 199.27,325.78 199.31,320.28 199.37,334.96 199.42,321.69 199.47,341.42 199.54,335.30 199.60,337.86 199.61,311.65 199.71,341.48 199.72,333.55 199.77,326.80 199.84,348.31 199.93,347.06 199.96,317.79 200.03,325.53 200.08,317.86 200.12,334.50 200.15,314.31 200.24,346.83 200.28,361.53 200.34,334.93 200.41,346.42 200.43,319.54 200.51,327.55 200.55,325.25 200.62,337.34 200.68,340.12 200.72,317.20 200.75,327.63 200.83,310.42 200.85,333.26 200.93,336.95 201.01,341.45 201.06,332.41 201.09,322.57 201.18,324.96 201.22,299.02 201.24,325.68 201.33,334.24 201.40,308.32 201.40,330.01 201.48,337.32 201.54,339.70 201.59,339.79 201.66,316.96 201.72,335.89 201.75,361.07 201.78,305.14 201.86,317.68 201.90,348.77 201.99,332.19 202.04,339.88 202.10,329.14 202.11,343.61 202.18,335.26 202.24,334.15 202.30,306.00 202.37,338.07 202.43,343.36 202.45,334.20 202.52,346.81 202.57,348.09 202.62,345.59 202.72,328.19 202.73,347.65 202.79,327.08 202.88,360.87 202.91,336.80 202.97,335.33 203.02,344.95 203.08,352.84 203.13,309.36 203.22,348.77 203.23,318.55 203.31,324.10 203.38,363.99 203.38,322.34 203.46,305.70 203.52,323.63 203.60,332.12 203.64,328.53 203.71,291.08 203.75,327.43 203.82,312.51 203.83,313.62 203.90,315.57 203.95,319.94 204.03,327.00 204.08,319.01 204.11,350.46 204.21,327.42 204.24,345.00 204.29,349.12 204.36,336.21 204.39,317.05 204.49,329.73 204.54,310.75 204.60,313.07 204.62,332.37 204.71,348.30 204.72,333.88 204.82,355.99 204.85,357.00 204.92,319.15 204.98,342.12 205.04,325.03 205.11,343.57 205.15,344.94 205.19,338.33 205.24,331.74 205.30,329.18 205.38,348.11 205.42,324.95 205.48,326.55 205.52,353.68 205.58,347.57 205.65,322.95 205.70,329.27 205.75,326.63 205.85,345.59 205.90,339.82 205.91,336.74 206.00,336.65 206.05,335.78 206.11,345.46 206.17,312.93 206.23,336.62 206.28,349.94 206.32,340.75 206.39,334.34 206.45,336.33 206.49,358.48 206.58,328.60 206.63,315.28 206.66,320.64 206.73,334.91 206.79,342.64 206.87,307.34 206.90,313.93 206.93,326.02 207.04,337.06 207.05,324.47 207.15,323.00 207.16,324.53 207.27,341.01 207.30,336.70 207.35,343.62 207.41,310.70 207.48,326.94 207.56,345.36 207.59,335.11 207.66,345.22 207.68,330.65 207.74,332.60 207.83,346.72 207.88,342.37 207.94,352.35 207.99,344.44 208.03,311.28 208.10,337.73 208.14,317.38 208.23,312.76 208.26,370.45 208.33,321.50 208.42,324.89 208.45,329.06 208.51,330.14 208.58,336.31 208.61,352.85 208.68,330.22 208.76,332.47 208.82,343.34 208.86,323.89 208.91,327.93 208.98,322.24 209.01,344.06 209.08,319.58 209.13,322.91 209.19,323.77 209.29,312.32 209.31,336.38 209.37,328.68 209.45,335.85 209.48,336.41 209.53,326.31 209.61,323.56 209.68,325.62 209.74,328.35 209.76,338.74 209.86,338.02 209.93,345.24 209.98,327.94 210.03,308.47 210.07,332.87 210.12,336.08 210.19,340.61 210.26,332.68 210.30,342.47 210.36,334.10 210.42,332.73 210.46,338.24 210.57,347.04 210.62,337.83 210.68,337.00 210.74,330.70 210.77,336.63 210.81,341.30 210.91,339.76 210.98,335.78 211.00,335.26 211.09,322.40 211.12,339.02 211.19,320.85 211.23,328.10 211.33,331.15 211.34,338.62 211.46,328.12 211.52,319.58 211.56,336.56 211.62,334.03 211.64,350.82 211.73,347.45 211.79,307.04 211.82,323.80 211.91,320.05 211.98,334.49 212.01,336.91 212.09,349.12 212.13,307.88 212.23,335.91 212.27,322.07 212.33,327.97 212.39,334.99 212.47,316.84 212.51,334.13 212.54,321.65 212.62,332.49 212.69,342.58 212.74,346.38 212.80,321.97 212.87,309.41 212.94,329.98 213.00,326.85 213.02,330.89 213.11,333.40 213.18,336.13 213.21,322.09 213.25,347.17 213.36,330.50 213.40,335.69 213.48,343.76 213.49,325.80 213.59,312.37 213.64,345.21 213.70,347.38 213.78,344.77 213.81,330.27 213.90,301.44 213.96,323.96 213.99,341.64 214.06,317.88 214.09,315.41 214.18,330.66 214.23,334.53 214.28,333.74 214.34,344.83 214.40,346.32 214.47,326.13 214.56,340.38 214.62,351.94 214.65,329.62 214.71,354.34 214.77,319.39 214.87,337.56 214.93,308.41 214.98,324.95 215.03,339.05 215.11,339.94 215.16,333.18 215.20,343.41 215.28,303.58 215.33,340.00 215.37,329.87 215.43,323.50 215.51,323.04 215.60,312.19 215.62,307.52 215.72,325.32 215.78,344.03 215.81,354.56 215.89,344.00 215.95,345.41 216.02,345.25 216.03,334.59 216.14,342.31 216.16,341.55 216.24,316.25 216.32,339.43 216.36,336.64 216.43,311.08 216.51,318.32 216.52,320.75 216.62,327.04 216.69,323.34 216.75,327.88 216.82,339.86 216.87,317.75 216.94,337.40 216.95,331.46 217.03,313.80 217.13,336.77 217.15,347.44 217.25,333.74 217.27,324.00 217.36,323.34 217.43,342.97 217.50,345.09 217.53,329.25 217.62,346.41 217.67,314.41 217.73,307.11 217.78,339.20 217.87,316.85 217.90,341.98 217.94,336.84 218.01,353.09 218.10,369.60 218.13,329.00 218.21,325.03 218.28,331.21 218.36,315.36 218.39,333.12 218.48,328.60 218.55,335.06 218.60,349.77 218.67,351.21 218.72,341.91 218.76,333.95 218.85,331.85 218.92,341.79 218.97,342.31 219.06,346.20 219.09,324.02 219.15,336.29 219.24,315.51 219.28,350.16 219.34,345.30 219.38,325.98 219.48,345.69 219.54,329.98 219.59,334.04 219.67,344.57 219.74,329.90 219.78,313.80 219.83,359.89 219.94,334.17 219.98,331.01 220.04,335.34 220.10,351.76 220.16,332.16 220.20,323.52 220.31,336.25 220.33,344.21 220.41,314.04 220.46,334.38 220.56,331.35 220.62,322.49 220.64,324.85 220.72,329.09 220.77,352.99 220.86,326.61 220.90,340.40 220.98,343.92 221.04,332.82 221.14,315.95 221.18,323.96 221.24,335.78 221.32,334.82 221.37,320.08 221.42,323.41 221.48,326.61 221.55,301.18 221.61,327.11 221.69,331.77 221.75,327.78 221.78,331.72 221.90,334.65 221.91,324.57 222.03,343.85 222.05,318.55 222.16,322.51 222.21,326.55 222.26,325.11 222.35,324.68 222.38,338.71 222.45,331.52 222.53,328.76 222.60,326.59 222.63,310.82 222.71,353.50 222.79,342.48 222.84,307.42 222.92,350.77 222.97,326.26 223.00,340.55 223.10,316.50 223.15,329.51 223.25,326.46 223.27,342.53 223.34,335.49 223.44,326.47 223.49,309.16 223.58,311.60 223.59,319.29 223.69,320.72 223.74,346.78 223.80,318.91 223.90,356.05 223.91,326.55 224.01,339.50 224.06,345.55 224.12,328.43 224.20,330.37 224.27,317.67 224.35,329.81 224.42,336.44 224.47,318.87 224.52,296.87 224.59,338.66 224.64,332.60 224.73,298.40 224.78,327.87 224.88,328.28 224.90,318.83 224.95,327.15 225.03,361.47 225.14,331.85 225.20,325.47 225.21,335.72 225.28,318.71 225.40,323.39 225.42,321.82 225.53,336.54 225.58,335.25 225.66,325.88 225.70,330.51 225.78,325.64 225.85,324.89 225.87,338.06 225.96,325.73 226.06,352.84 226.08,316.10 226.17,325.37 226.21,350.62 226.31,321.54 226.38,339.76 226.41,341.28 226.49,307.48 226.55,313.85 226.63,337.70 226.70,334.11 226.75,340.52 226.86,316.87 226.91,337.40 226.94,319.66 227.02,332.18 227.09,318.85 227.15,317.25 227.25,211.00 227.27,302.80 227.35,324.12 227.40,326.83 227.52,335.33 227.56,322.35 227.65,330.95 227.69,311.41 227.75,326.13 227.84,346.33 227.91,338.66 227.96,335.02 228.03,327.15 228.09,332.95 228.13,338.33 228.24,343.28 228.31,331.52 228.33,316.02 228.40,337.33 228.49,334.40 228.56,324.10 228.64,332.20 228.68,341.12 228.77,350.53 228.83,325.72 228.93,334.76 228.97,315.17 229.06,342.37 229.09,333.96 229.17,345.19 229.25,295.34 229.32,340.84 229.40,316.35 229.43,325.20 229.47,319.69 229.58,325.18 229.65,312.75 229.69,357.73 229.79,321.59 229.81,307.69 229.93,354.01 229.98,338.85 230.07,343.50 230.12,326.26 230.19,334.46 230.25,336.70 230.29,342.90 230.40,336.98 230.47,342.26 230.55,338.06 230.56,346.26 230.66,332.30 230.76,328.99 230.81,325.43 230.88,335.00 230.92,328.53 230.99,325.17 231.06,332.27 231.16,345.36 231.19,327.27 231.31,336.98 231.32,323.18 231.39,335.55 231.48,340.16 231.57,322.77 231.59,326.80 231.68,325.73 231.75,313.50 231.82,316.22 231.90,345.32 231.95,329.18 232.07,329.91 232.08,340.13 232.14,340.36 232.26,306.98 232.33,328.81 232.40,314.21 232.46,333.10 232.55,317.84 232.56,322.56 232.68,329.64 232.76,343.94 232.78,331.90 232.88,288.91 232.95,334.05 233.04,322.25 233.05,337.15 233.13,318.50 233.20,308.73 233.28,327.64 233.37,342.92 233.41,341.80 233.52,329.18 233.57,341.22 233.61,324.19 233.71,359.95 233.79,325.34 233.82,369.99 233.91,345.92 233.97,336.12 234.06,320.30 234.15,320.79 234.18,332.25 234.29,328.78 234.32,336.02 234.39,323.07 234.46,347.74 234.53,338.33 234.63,338.82 234.70,344.98 234.74,329.79 234.82,335.51 234.89,331.03 234.96,336.91 235.03,344.02 235.10,316.58 235.18,327.99 235.22,322.39 235.34,326.96 235.39,340.56 235.44,326.88 235.52,317.34 235.58,332.80 235.65,326.81 235.77,312.58 235.78,314.38 235.90,330.43 235.92,325.26 236.03,307.83 236.09,315.61 236.16,314.92 236.26,338.04 236.30,327.41 236.40,317.78 236.45,323.83 236.54,322.75 236.59,328.08 236.66,332.76 236.75,339.48 236.79,321.18 236.89,307.08 236.93,340.42 237.01,326.83 237.14,307.94 237.20,342.46 237.24,323.58 237.33,336.37 237.38,316.84 237.46,322.00 237.52,346.53 237.64,319.63 237.67,305.75 237.72,348.25 237.85,316.03 237.89,323.97 237.94,324.78 238.04,317.12 238.12,337.54 238.15,340.27 238.24,336.34 238.34,327.68 238.40,333.46 238.48,316.90 238.57,316.60 238.64,330.06 238.65,328.91 238.78,311.06 238.86,337.44 238.90,317.84 238.97,329.47 239.07,330.74 239.16,314.65 239.18,320.56 239.24,320.27 239.36,336.51 239.45,338.87 239.51,347.56 239.56,308.34 239.64,315.27 239.73,323.59 239.78,334.36 239.88,331.84 239.92,346.31 240.00,340.55 240.09,335.04 240.14,334.82 240.20,332.66 240.31,325.94 240.37,333.92 240.43,331.20 240.53,348.55 240.58,320.21 240.68,324.35 240.70,348.90 240.79,337.38 240.86,334.45 240.95,340.19 241.02,328.70 241.12,336.77 241.15,359.87 241.25,329.84 241.35,301.86 241.42,319.92 241.45,347.42 241.52,344.28 241.60,315.95 241.73,341.84 241.80,328.85 241.84,330.85 241.89,318.11 241.98,335.10 242.08,346.32 242.12,350.44 242.23,303.55 242.32,341.94 242.36,320.52 242.44,344.64 242.55,332.61 242.60,334.06 242.69,318.60 242.74,342.46 242.81,335.15 242.88,316.47 242.99,339.46 243.07,340.05 243.14,339.69 243.20,346.38 243.25,344.45 243.32,329.21 243.38,315.93 243.51,319.65 243.60,342.87 243.66,335.04 243.70,331.65 243.83,337.43 243.88,330.84 243.96,325.88 244.04,350.70 244.10,315.95 244.20,334.29 244.23,339.07 244.30,306.29 244.43,329.77 244.50,320.10 244.58,332.44 244.60,318.30 244.73,348.85 244.77,330.56 244.86,316.83 244.94,325.97 245.02,329.01 245.06,324.64 245.19,343.87 245.26,339.17 245.35,306.33 245.41,339.80 245.49,348.56 245.55,339.59 245.62,318.15 245.73,342.33 245.79,326.06 245.83,316.41 245.89,331.66 246.01,327.86 246.07,323.26 246.12,344.34 246.22,319.71 246.30,325.84 246.42,324.87 246.49,334.70 246.53,333.24 246.58,329.62 246.73,336.60 246.77,333.85 246.86,342.32 246.94,307.28 247.00,318.70 247.04,312.40 247.13,326.40 247.24,359.35 247.34,342.84 247.37,325.13 247.44,317.34 247.53,338.37 247.65,315.44 247.73,340.58 247.78,342.47 247.86,315.76 247.94,311.89 248.04,337.81 248.08,327.97 248.19,334.63 248.28,324.55 248.34,323.85 248.42,320.65 248.46,315.86 248.55,314.26 248.60,334.12 248.70,345.88 248.76,351.90 248.90,327.84 248.99,320.34 249.04,329.36 249.08,336.56 249.22,324.18 249.30,311.09 249.33,305.09 249.39,335.57 249.47,326.17 249.54,332.11 249.66,325.02 249.77,320.19 249.85,348.84 249.93,330.54 249.99,326.66 250.02,327.02 250.14,340.41 250.25,338.67 250.31,320.91 250.35,327.69 250.41,334.79 250.50,348.16 250.61,333.99 250.66,358.22 250.80,327.07 250.88,325.65 250.90,349.15 251.02,343.73 251.08,331.39 251.20,320.02 251.24,323.20 251.32,336.81 251.37,319.81 251.46,338.46 251.54,321.11 251.68,337.82 251.69,346.32 251.83,323.22 251.88,306.68 251.93,320.79 252.04,338.34 252.09,333.45 252.23,329.32 252.27,331.26 252.34,343.89 252.43,320.30 252.50,311.62 252.62,314.63 252.66,347.69 252.73,316.71 252.82,312.50 252.97,324.22 253.01,306.63 253.12,335.29 253.20,334.79 253.22,335.27 253.30,318.24 253.40,322.92 253.46,332.41 253.55,357.69 253.67,327.63 253.73,348.77 253.86,339.88 253.94,335.64 253.98,330.31 254.10,304.15 254.17,324.93 254.23,332.56 254.34,336.32 254.38,307.87 254.47,344.42 254.55,344.29 254.63,345.65 254.72,327.34 254.83,315.52 254.87,344.32 254.95,322.16 255.03,359.00 255.09,331.86 255.19,322.07 255.31,326.40 255.40,338.21 255.46,308.44 255.57,343.20 255.67,318.40 255.71,323.02 255.79,344.98 255.88,342.87 255.97,329.95 256.06,326.44 256.14,319.94 256.18,331.42 256.26,315.23 256.35,344.08 256.48,344.06 256.54,330.02 256.63,332.24 256.68,332.28 256.82,327.22 256.84,332.47 256.94,324.25 257.06,332.47 257.09,327.95 257.16,325.61 257.27,334.05 257.40,326.56 257.49,343.83 257.56,305.47 257.58,317.91 257.70,332.75 257.79,338.56 257.88,313.29 257.96,325.32 258.02,320.15 258.15,309.75 258.22,318.61 258.26,328.04 258.36,330.85 258.44,330.76 258.55,328.87 258.67,353.24 258.72,321.74 258.81,331.10 258.89,333.56 258.98,344.28 259.03,308.83 259.12,337.75 259.23,330.27 259.32,339.56 259.42,335.27 259.46,331.16 259.54,341.64 259.66,335.45 259.76,339.90 259.82,331.04 259.89,332.49 259.96,334.44 260.06,333.70 260.13,322.45 260.28,349.66 260.31,332.35 260.41,344.92 260.48,306.12 260.60,324.21 260.64,330.11 260.79,328.78 260.86,337.61 260.97,331.79 261.04,310.51 261.09,342.25 261.16,350.68 261.29,343.68 261.40,323.86 261.43,332.43 261.55,333.03 261.66,311.76 261.67,312.33 261.78,316.62 261.84,332.12 261.95,329.58 262.02,359.45 262.16,312.07 262.19,329.80 262.29,334.45 262.38,322.23 262.48,320.00 262.57,339.49 262.62,331.61 262.77,316.27 262.83,312.95 262.95,299.32 262.99,337.95 263.14,338.57 263.15,351.10 263.28,347.14 263.32,325.53 263.43,347.71 263.55,331.43 263.66,331.05 263.71,324.74 263.82,339.65 263.85,328.31 264.00,335.15 264.02,328.82 264.11,324.94 264.27,310.72 264.30,330.38 264.38,314.17 264.52,311.26 264.57,315.33 264.71,346.95 264.74,334.42 264.83,333.28 264.95,330.18 265.05,312.64 265.15,317.44 265.19,345.99 265.31,341.14 265.40,316.59 265.47,360.02 265.57,339.35 265.68,314.18 265.75,335.59 265.86,308.15 265.95,325.37 265.96,319.35 266.07,322.44 266.22,328.74 266.24,345.72 266.35,350.12 266.42,363.53 266.54,348.61 266.62,347.60 266.73,345.16 266.83,325.42 266.94,334.77 266.97,313.10 267.08,313.05 267.16,354.50 267.23,320.42 267.33,332.71 267.42,334.83 267.56,336.33 267.60,336.88 267.74,328.46 267.82,353.89 267.91,338.46 268.00,316.50 268.10,319.64 268.12,320.15 268.28,329.29 268.39,349.13 268.41,348.17 268.56,335.14 268.58,329.82 268.72,329.56 268.83,321.38 268.93,307.31 269.02,328.13 269.03,337.95 269.16,340.14 269.26,336.68 269.35,336.88 269.46,324.05 269.52,326.25 269.59,318.48 269.76,326.55 269.84,335.41 269.90,343.51 269.97,314.10 270.12,339.49 270.20,335.55 270.28,336.69 270.39,338.00 270.45,309.52 270.51,310.72 270.66,316.07 270.78,330.70 270.84,335.56 270.95,331.00 271.04,333.08 271.12,327.75 271.16,340.97 271.30,310.83 271.40,342.87 271.52,312.14 271.56,340.36 271.69,313.75 271.73,353.47 271.80,325.51 271.96,310.08 272.02,334.72 272.12,348.18 272.24,333.14 272.34,294.19 272.45,329.95 272.53,333.24 272.61,341.49 272.66,338.11 272.80,327.08 272.92,321.86 273.01,320.73 273.04,333.29 273.18,331.10 273.25,342.47 273.32,330.39 273.48,335.46 273.51,300.11 273.65,321.34 273.76,324.71 273.85,311.11 273.95,306.84 274.04,312.38 274.06,319.34 274.21,332.73 274.28,338.14 274.37,343.47 274.46,332.07 274.54,343.81 274.68,333.84 274.81,343.52 274.89,317.76 275.01,320.94 275.03,330.70 275.19,291.94 275.20,310.14 275.34,345.90 275.45,340.67 275.56,333.04 275.62,315.92 275.73,302.71 275.87,328.41 275.95,303.78 276.00,338.92 276.12,324.92 276.20,323.65 276.30,334.70 276.41,322.95 276.47,317.31 276.58,323.98 276.67,335.26 276.83,303.83 276.92,315.11 276.98,318.07 277.13,331.36 277.17,308.55 277.29,341.34 277.38,364.95 277.49,310.36 277.61,312.81 277.65,330.05 277.76,324.58 277.82,321.40 277.92,334.99 278.02,335.07 278.19,320.20 278.27,326.71 278.34,323.86 278.45,327.98 278.58,334.09 278.61,336.94 278.71,314.29 278.80,331.18 278.93,318.46 279.07,323.18 279.11,313.23 279.27,338.60 279.36,312.11 279.43,318.98 279.54,321.17 279.63,329.55 279.73,320.25 279.81,334.01 279.89,317.22 280.00,363.33 280.08,339.27 280.17,323.26 280.34,334.92 280.39,333.86 280.51,337.88 280.57,321.27 280.71,341.53 280.86,343.12 280.89,344.86 281.00,337.11 281.10,346.73 281.21,327.43 281.33,347.11 281.46,333.61 281.50,343.34 281.64,323.34 281.76,339.23 281.87,324.03 281.95,348.26 282.06,311.60 282.10,326.29 282.20,346.58 282.33,308.90 282.42,322.48 282.54,323.18 282.59,328.62 282.76,326.82 282.88,340.73 282.91,342.33 283.04,343.37 283.18,328.62 283.28,311.05 283.30,353.42 283.42,333.85 283.50,342.25 283.67,352.79 283.70,314.92 283.86,340.10 283.97,331.21 284.05,304.55 284.15,320.00 284.30,322.29 284.39,312.83 284.51,331.53 284.61,336.31 284.69,326.15 284.73,326.57 284.87,336.85 285.02,321.33 285.07,297.37 285.14,327.91 285.25,327.95 285.40,344.41 285.52,318.70 285.60,340.87 285.72,338.50 285.78,342.33 285.95,326.40 285.97,332.79 286.16,317.66 286.20,336.71 286.28,350.71 286.43,327.57 286.52,344.10 286.61,321.75 286.74,325.70 286.89,332.43 286.90,348.14 287.07,348.30 287.16,335.52 287.27,325.05 287.37,340.87 287.49,311.98 287.58,338.86 287.68,328.75 287.77,315.79 287.92,350.15 288.01,316.04 288.15,331.40 288.16,338.30 288.32,341.47 288.41,340.08 288.49,329.34 288.61,334.72 288.75,344.74 288.79,344.19 288.90,319.09 289.03,322.27 289.14,342.34 289.28,349.55 289.38,301.60 289.53,313.80 289.60,340.46 289.72,329.23 289.83,322.79 289.87,344.25 290.01,339.21 290.17,313.70 290.23,316.55 290.38,349.15 290.45,308.52 290.53,323.68 290.64,339.91 290.79,337.09 290.85,328.44 290.95,335.50 291.06,355.88 291.17,322.78 291.29,346.09 291.40,329.30 291.49,343.63 291.66,331.98 291.73,328.64 291.90,317.58 291.98,322.31 292.09,319.33 292.17,336.68 292.26,333.25 292.40,327.28 292.47,330.86 292.58,303.40 292.74,309.57 292.86,333.37 292.89,347.19 293.00,343.56 293.11,343.74 293.29,318.56 293.41,318.62 293.44,329.59 293.56,323.50 293.67,314.92 293.86,307.15 293.87,311.03 294.03,329.88 294.10,342.44 294.21,333.05 294.40,322.00 294.44,320.01 294.57,334.44 294.67,327.17 294.82,319.03 294.97,305.22 295.07,333.29 295.09,351.04 295.24,342.04 295.34,347.06 295.44,335.57 295.60,317.32 295.72,356.58 295.80,342.56 295.89,321.16 296.02,330.76 296.16,359.47 296.21,339.07 296.36,353.58 296.49,321.97 296.56,336.49 296.74,344.90 296.87,338.13 296.97,332.13 297.10,308.55 297.13,319.80 297.31,314.44 297.38,335.97 297.54,336.09 297.64,326.52 297.76,332.18 297.80,330.63 297.94,320.19 298.12,345.09 298.15,306.70 298.25,344.75 298.44,332.64 298.58,283.92 298.64,337.18 298.73,338.39 298.92,340.43 298.95,301.95 299.04,348.39 299.20,346.57 299.27,323.66 299.47,327.54 299.50,318.91 299.64,348.65 299.77,324.31 299.87,336.37 300.06,339.10 300.13,333.53 300.30,334.78 300.33,319.19 300.44,285.00 300.58,344.13 300.69,321.96 300.78,344.04 300.90,335.70 301.01,343.83 301.16,327.07 301.25,327.14 301.36,343.43 301.47,336.96 301.65,312.35 301.81,335.51 301.85,305.20 301.94,320.56 302.16,328.34 302.22,315.49 302.38,337.15 302.52,337.74 302.60,289.26 302.74,321.89 302.83,323.62 302.90,352.29 303.04,341.49 303.20,330.59 303.32,290.81 303.40,331.18 303.56,326.89 303.67,322.90 303.78,316.69 303.94,330.05 303.99,326.25 304.16,331.80 304.25,314.97 304.34,358.31 304.50,337.90 304.56,334.29 304.77,326.24 304.89,324.99 304.98,326.12 305.09,312.14 305.20,295.27 305.26,315.49 305.48,323.15 305.54,342.93 305.72,337.01 305.75,322.86 305.94,320.65 306.03,342.66 306.17,325.06 306.29,360.37 306.40,316.28 306.48,339.48 306.70,331.05 306.81,296.96 306.89,315.57 307.06,319.49 307.09,350.12 307.26,323.04 307.42,325.06 307.56,319.33 307.58,327.48 307.73,310.51 307.82,327.13 307.94,333.25 308.16,310.58 308.29,330.67 308.31,278.72 308.47,316.72 308.57,350.51 308.77,322.74 308.88,348.72 309.00,332.05 309.08,313.10 309.21,335.48 309.40,317.39 309.46,342.69 309.65,340.17 309.74,334.54 309.83,335.18 309.91,328.33 310.07,334.48 310.22,312.26 310.39,324.20 310.49,318.52 310.64,331.62 310.76,328.41 310.80,310.35 311.02,319.13 311.05,354.06 311.27,348.58 311.31,303.53 311.49,293.27 311.57,322.30 311.74,324.02 311.89,343.30 311.93,316.10 312.15,343.03 312.27,334.62 312.38,336.68 312.49,323.93 312.58,321.56 312.69,345.63 312.86,306.74 312.94,331.97 313.07,323.62 313.30,332.86 313.32,332.42 313.50,296.51 313.68,335.27 313.79,324.75 313.86,355.84 314.03,320.61 314.20,324.21 314.24,313.41 314.43,344.54 314.48,362.92 314.70,337.88 314.82,322.41 314.85,353.66 315.06,350.61 315.14,320.97 315.29,334.54 315.41,326.67 315.60,327.11 315.67,348.67 315.80,320.54 316.00,339.66 316.02,331.56 316.15,321.01 316.36,338.49 316.51,313.39 316.66,338.10 316.78,325.33 316.91,315.37 317.03,342.34 317.08,358.16 317.19,338.34 317.33,327.62 317.53,316.07 317.70,311.94 317.72,314.50 317.97,340.78 318.06,310.87 318.18,320.02 318.38,312.29 318.42,315.28 318.61,327.18 318.74,324.38 318.89,228.63 319.01,317.66 319.16,316.41 319.26,312.85 319.42,311.68 319.48,311.43 319.70,325.57 319.81,316.09 319.87,329.35 320.11,324.37 320.25,312.11 320.31,332.55 320.41,312.80 320.52,315.15 320.74,299.92 320.79,331.60 321.05,335.19 321.12,317.33 321.26,319.33 321.39,321.85 321.52,320.42 321.62,337.74 321.81,318.04 321.91,327.36 322.09,335.25 322.20,337.64 322.37,290.49 322.46,327.37 322.63,322.75 322.70,333.27 322.90,338.89 323.04,343.57 323.12,328.43 323.31,323.40 323.40,302.38 323.55,322.08 323.66,327.83 323.88,330.29 323.95,335.75 324.07,313.61 324.25,315.07 324.48,325.73 324.52,247.88 324.63,313.21 324.80,331.36 325.02,327.96 325.09,322.36 325.22,314.07 325.35,318.69 325.53,335.92 325.69,328.32 325.88,319.99 325.96,314.26 326.10,323.78 326.22,335.89 326.36,317.17 326.53,315.30 326.72,346.90 326.81,325.21 326.88,349.03 327.14,316.34 327.25,333.86 327.38,331.08 327.54,323.54 327.60,332.26 327.85,328.40 327.90,307.76 328.05,313.16 328.18,316.60 328.43,307.74 328.54,329.88 328.69,307.78 328.79,341.07 328.89,317.55 329.02,329.64 329.21,285.62 329.42,320.00 329.54,311.57 329.66,304.39 329.82,326.67 329.88,304.69 330.11,322.67 330.24,306.90 330.40,250.31 330.51,320.81 330.73,328.55 330.84,302.59 331.00,338.22 331.16,344.10 331.26,304.84 331.42,356.77 331.60,330.31 331.71,336.02 331.78,314.15 332.02,332.10 332.12,324.90 332.22,345.79 332.47,333.64 332.61,319.27 332.69,349.40 332.91,329.02 333.05,327.89 333.12,317.74 333.30,343.71 333.44,322.50 333.68,338.07 333.74,334.32 333.96,341.66 334.02,332.97 334.19,312.96 334.38,337.56 334.49,315.56 334.69,317.75 334.85,329.35 334.94,325.74 335.18,322.01 335.22,308.68 335.40,337.90 335.53,332.24 335.65,295.33 335.81,337.54 335.94,311.22 336.17,314.49 336.28,319.94 336.47,304.81 336.57,337.41 336.74,289.80 336.96,338.31 337.14,323.68 337.28,309.20 337.38,308.57 337.48,335.18 337.65,314.44 337.80,338.30 338.00,327.06 338.16,333.43 338.36,332.88 338.42,297.83 338.68,337.15 338.83,351.13 338.92,331.75 339.01,358.97 339.24,322.91 339.38,335.79 339.57,311.72 339.63,344.52 339.89,342.15 339.99,329.69 340.14,334.58 340.35,303.48 340.54,306.94 340.60,310.46 340.76,341.03 340.90,334.05 341.17,327.46 341.35,336.26 341.39,318.21 341.53,303.02 341.71,334.02 341.87,318.77 342.02,328.86 342.26,312.24 342.40,323.09 342.59,321.00 342.63,333.11 342.87,344.23 342.99,256.28 343.15,332.77 343.37,316.45 343.56,322.83 343.70,323.76 343.75,336.64 343.95,317.12 344.13,338.35 344.37,342.67 344.41,323.58 344.67,306.11 344.81,324.12 344.96,308.31 345.18,324.37 345.31,299.06 345.51,318.33 345.55,310.28 345.76,329.78 345.97,316.42 346.14,308.61 346.25,335.29 346.47,328.53 346.62,306.62 346.77,333.95 346.88,324.56 347.08,335.54 347.28,317.61 347.34,332.97 347.62,321.22 347.74,334.31 347.95,317.91 348.05,344.14 348.28,325.92 348.40,309.40 348.53,314.29 348.65,297.74 348.93,325.68 349.15,324.52 349.21,336.51 349.44,324.13 349.56,318.58 349.74,294.92 349.93,309.78 350.16,323.66 350.33,328.05 350.42,323.25 350.57,333.35 350.78,295.71 350.93,328.68 351.03,285.84 351.33,344.54 351.40,331.07 351.64,308.21 351.78,325.56 351.92,322.16 352.15,326.46 352.29,307.70 352.45,327.58 352.66,320.61 352.87,315.48 352.93,336.05 353.13,330.14 353.39,311.46 353.44,317.68 353.65,335.31 353.85,325.00 354.02,306.68 354.15,298.03 354.31,302.82 354.52,336.01 354.76,339.82 354.94,332.56 355.10,316.99 355.30,306.84 355.49,314.16 355.52,330.08 355.67,330.26 355.87,324.63 356.09,327.39 356.35,318.06 356.53,330.36 356.68,291.47 356.90,288.07 356.93,238.15 357.23,322.62 357.28,312.44 357.57,328.58 357.70,329.37 357.96,348.50 358.07,330.52 358.29,335.62 358.45,328.15 358.61,318.34 358.74,328.97 358.92,318.11 359.12,322.94 359.24,321.57 359.49,331.26 359.73,312.42 359.78,299.65 360.12,333.37 360.29,310.68 360.44,336.07 360.58,335.34 360.86,318.71 360.93,335.82 361.19,308.97 361.26,343.85 361.48,299.33 361.72,341.40 361.80,313.77 362.10,308.51 362.22,303.11 362.47,318.61 362.68,324.73 362.77,324.63 363.00,304.88 363.19,340.15 363.42,333.83 363.53,335.02 363.70,310.44 363.85,331.79 364.06,315.92 364.31,308.31 364.47,294.32 364.76,295.11 364.94,318.53 365.00,319.65 365.21,310.61 365.41,309.45 365.55,312.89 365.79,309.73 365.92,324.64 366.16,316.75 366.31,307.45 366.65,304.04 366.80,329.34 366.96,335.51 367.08,297.66 367.42,339.75 367.46,310.68 367.69,334.14 367.88,309.56 368.11,328.57 368.33,328.54 368.42,317.48 368.72,316.27 368.96,324.46 369.13,312.12 369.21,301.13 369.44,333.26 369.67,317.36 369.87,328.79 370.14,331.30 370.16,312.38 370.39,316.89 370.56,322.52 370.83,335.66 371.00,319.57 371.33,323.12 371.47,302.81 371.68,322.67 371.86,333.23 372.04,299.73 372.18,318.05 372.50,280.33 372.54,289.37 372.77,331.04 373.04,332.82 373.13,323.15 373.33,319.67 373.71,299.15 373.74,311.64 374.08,312.21 374.22,294.06 374.36,320.75 374.63,316.56 374.76,320.94 375.03,340.55 375.29,342.27 375.41,311.30 375.61,324.20 375.77,326.94 376.01,322.17 376.33,317.90 376.56,306.14 376.79,289.20 376.99,325.97 377.04,322.45 377.39,304.26 377.57,312.17 377.69,287.72 377.84,327.50 378.08,324.96 378.35,298.20 378.46,300.71 378.70,324.60 379.08,326.84 379.10,308.34 379.46,292.65 379.64,319.43 379.91,322.79 379.95,326.54 380.16,325.79 380.45,314.72 380.68,294.94 380.87,336.64 381.06,302.60 381.20,295.95 381.57,354.27 381.82,343.62 381.99,314.54 382.16,333.30 382.29,337.55 382.54,329.37 382.85,321.92 383.06,322.00 383.15,327.86 383.38,327.25 383.66,319.27 383.92,318.74 384.19,353.48 384.24,320.57 384.52,324.54 384.85,329.82 384.89,314.59 385.12,323.32 385.49,320.32 385.66,347.17 385.89,333.87 386.13,333.87 386.39,325.50 386.52,312.40 386.83,311.14 386.87,321.63 387.21,334.22 387.46,328.30 387.68,334.20 387.84,336.34 388.08,318.22 388.33,332.21 388.51,337.73 388.80,306.95 389.06,319.22 389.15,332.20 389.40,324.19 389.59,303.79 389.93,314.35 390.19,312.96 390.37,329.86 390.69,296.10 390.77,320.07 390.96,311.04 391.34,319.13 391.49,312.28 391.81,324.31 392.02,319.48 392.12,314.16 392.38,351.94 392.76,321.71 392.84,314.74 393.13,322.93 393.29,326.58 393.52,302.45 393.78,333.97 394.12,323.84 394.40,320.95 394.59,304.08 394.75,335.25 395.00,325.11 395.23,333.41 395.44,339.31 395.72,323.11 396.03,328.41 396.09,316.15 396.43,311.65 396.71,309.92 396.87,308.34 397.22,313.93 397.38,309.54 397.75,320.37 397.78,306.52 398.11,326.10 398.35,315.35 398.54,332.49 398.87,324.45 399.07,306.16 399.34,327.82 399.58,313.62 399.83,297.16 399.97,317.96 400.25,309.65 400.52,302.32 400.90,298.92 401.17,314.79 401.32,317.59 401.62,314.85 401.76,311.84 402.13,311.61 402.38,326.29 402.61,331.61 402.72,304.00 402.95,317.80 403.43,316.20 403.68,296.93 403.86,318.47 404.14,304.41 404.29,316.47 404.58,318.13 404.94,314.30 405.14,310.96 405.43,319.50 405.54,320.46 405.87,298.80 406.15,324.25 406.26,302.14 406.73,329.08 406.89,305.10 407.20,315.18 407.35,293.27 407.79,314.66 407.81,306.26 408.30,303.27 408.55,326.78 408.75,312.37 408.92,344.70 409.12,312.87 409.58,301.83 409.67,315.79 410.12,310.70 410.40,303.52 410.57,275.70 410.71,322.57 411.15,309.58 411.50,293.86 411.77,303.90 411.84,337.90 412.13,318.12 412.43,328.01 412.81,314.93 413.11,317.67 413.37,305.46 413.41,318.62 413.69,328.73 413.96,320.46 414.44,293.14 414.62,319.24 414.99,300.50 415.25,316.09 415.59,326.75 415.69,335.05 416.12,324.73 416.40,302.12 416.45,336.44 416.88,305.05 417.22,316.05 417.34,294.03 417.62,308.13 418.04,313.15 418.31,321.92 418.60,319.02 418.71,312.95 419.07,337.85 419.46,324.37 419.70,318.12 419.92,302.56 420.24,329.93 420.63,304.09 420.78,311.81 421.10,321.01 421.26,329.91 421.68,313.81 421.99,290.94 422.40,319.66 422.67,307.61 422.71,305.29 423.08,308.96 423.36,292.99 423.69,333.38 424.11,291.28 424.36,296.56 424.65,326.56 425.00,313.60 425.19,310.45 425.40,316.41 425.74,326.67 426.11,306.23 426.49,309.92 426.60,307.29 427.06,333.05 427.34,313.96 427.48,305.47 427.93,304.87 428.21,328.89 428.64,303.18 428.97,327.97 429.12,325.77 429.39,301.86 429.71,333.93 430.08,298.33 430.22,296.30 430.65,325.09 430.85,332.50 431.32,312.22 431.66,305.25 432.03,319.34 432.24,302.99 432.41,302.42 432.91,297.43 433.20,315.18 433.63,311.70 433.76,323.30 434.06,289.82 434.30,337.82 434.64,284.30 435.20,326.45 435.36,319.40 435.80,306.07 436.16,323.86 436.25,310.51 436.83,312.67 437.14,308.70 437.34,311.18 437.64,333.39 437.88,314.21 438.42,307.57 438.73,311.70 438.95,322.09 439.18,295.66 439.56,308.23 439.99,297.05 440.46,303.27 440.68,317.96 441.01,319.17 441.45,299.77 441.61,293.78 441.98,308.85 442.38,323.28 442.73,308.55 443.12,307.85 443.49,287.50 443.83,322.33 444.03,327.29 444.47,314.40 444.72,273.50 445.24,314.24 445.43,315.79 445.73,306.81 446.25,313.99 446.36,292.16 446.84,302.83 447.24,299.34 447.59,295.11 447.78,302.09 448.12,294.99 448.57,242.84 449.10,302.91 449.22,299.13 449.72,315.08 449.93,328.69 450.42,289.29 450.69,267.33 451.24,298.37 451.47,304.82 451.64,309.13 452.32,297.09 452.67,316.25 452.85,297.43 453.34,307.17 453.59,311.72 454.12,310.32 454.50,313.31 454.93,308.89 455.19,305.29 455.46,299.70 455.70,317.49 456.36,313.91 456.59,322.91 457.07,322.33 457.24,308.12 457.59,292.31 458.11,298.61 458.42,322.59 458.80,321.00 459.12,309.85 459.61,305.20 460.20,318.48 460.59,323.22 460.87,300.48 461.27,307.96 461.76,317.39 461.83,284.63 462.37,304.03 462.64,329.24 463.40,304.42 463.70,297.11 464.10,264.12 464.27,308.59 464.68,301.80 465.23,302.29 465.56,315.51 466.10,333.13 466.52,299.33 466.67,304.92 467.15,297.28 467.65,286.93 467.97,303.55 468.53,289.30 468.81,297.62 469.32,292.32 469.70,319.94 470.06,312.62 470.59,296.76 471.11,304.81 471.44,301.82 471.74,300.66 472.36,336.32 472.51,294.57 473.27,290.64 473.66,308.68 473.93,313.31 474.27,307.84 474.82,280.03 475.09,318.02 475.84,293.32 476.28,301.12 476.52,310.45 476.90,304.99 477.44,307.44 477.72,305.40 478.33,292.35 478.98,318.61 479.34,312.56 479.73,309.60 480.08,311.12 480.69,305.90 481.13,297.29 481.68,319.38 481.81,237.92 482.35,295.88 483.00,310.26 483.37,309.50 483.58,284.60 484.03,304.93 484.51,295.06 485.32,307.75 485.77,308.31 486.13,297.86 486.50,267.10 486.84,309.63 487.49,301.38 487.77,310.28 488.45,295.56 488.75,315.81 489.21,312.22 489.92,299.00 490.18,316.59 491.14,302.69 491.16,303.22 491.69,308.84 492.61,302.72 492.73,307.99 493.59,298.54 493.65,314.93 494.18,304.29 494.68,281.82 495.25,302.28 495.87,298.38 496.59,298.57 497.03,307.19 497.50,298.23 497.69,291.08 498.30,288.60 499.08,286.97 499.34,282.49 499.79,293.43 500.79,306.47 500.93,271.37 501.37,307.04 502.19,218.23 502.53,284.07 503.35,282.21 503.77,290.15 504.43,295.68 504.75,303.17 505.37,298.54 505.87,291.32 506.52,297.77 506.84,303.76 507.47,293.27 508.25,301.01 508.48,289.52 509.37,314.28 509.81,269.85 510.48,302.52 511.07,300.98 511.51,308.87 512.35,286.91 512.61,293.26 513.24,297.24 513.53,304.85 514.24,309.76 514.72,301.29 515.74,299.98 516.44,297.76 516.90,308.51 517.52,278.20 517.66,314.89 518.75,310.45 519.08,302.33 519.96,303.69 520.54,304.04 520.77,296.83 521.49,277.39 522.11,301.49 522.56,266.17 523.70,292.66 524.30,296.83 524.53,295.17 525.42,297.92 526.29,214.46 526.34,286.46 527.01,306.56 528.19,317.98 528.31,296.83 529.08,307.67 530.12,258.21 530.33,319.27 530.99,273.26 531.92,286.67 532.20,306.54 533.08,303.16 533.97,288.41 534.56,309.04 535.02,296.55 536.05,305.52 536.93,297.22 537.62,306.74 537.97,299.67 538.35,284.94 539.22,267.85 540.02,299.72 540.86,287.13 541.61,305.15 541.93,289.83 542.89,284.94 543.94,297.82 544.31,298.75 545.08,294.66 545.55,310.00 546.29,280.60 547.44,269.01 548.20,274.94 549.09,300.00 549.96,295.11 550.20,264.88 551.14,236.95 552.06,258.62 552.38,302.22 553.87,300.26 554.62,291.73 554.73,262.34 555.78,143.58 556.73,306.48 557.24,286.35 558.13,302.63 559.46,297.63 559.69,301.56 560.59,216.50 561.57,275.60 562.60,279.31 563.48,262.64 564.06,283.23 565.38,281.78 565.58,231.91 566.99,313.34 567.19,267.59 568.58,298.05 569.59,282.75 570.48,287.32 571.37,282.96 572.03,292.59 573.06,305.95 574.22,300.28 575.14,301.57 576.16,265.36 576.88,294.77 577.13,289.03 578.16,289.05 579.24,293.16 580.68,274.49 581.78,226.64 582.36,286.44 583.43,298.74 584.32,289.90 585.14,292.88 586.46,287.94 587.66,256.82 588.54,295.30 589.47,289.14 590.93,283.27 591.74,288.54 592.94,281.24 593.80,165.45 594.92,279.06 595.76,285.14 596.40,277.82 597.88,274.94 598.99,271.33 600.25,293.09 601.38,282.08 601.89,291.77 602.97,276.10 604.23,282.46 605.65,285.42 607.03,266.12 608.59,289.15 609.30,295.47 610.67,281.93 611.33,280.50 612.94,297.53 614.18,274.01 616.11,283.68 617.38,285.11 618.31,260.37 619.77,280.66 621.01,282.42 621.73,279.09 623.05,292.37 624.08,287.65 626.36,290.48 627.60,262.62 628.16,282.12 630.06,277.18 631.02,287.43 633.61,285.31 634.20,300.83 635.32,301.36 637.59,294.94 638.34,274.64 640.94,259.35 641.98,281.43 642.89,276.89 644.73,272.72 647.24,209.85 647.46,138.87 649.58,284.01 650.84,266.22 652.72,296.05 654.93,278.78 657.18,246.25 657.26,193.92 659.63,278.45 660.91,279.99 663.59,280.78 665.99,298.16 667.84,213.54 668.78,279.09 670.49,254.84 673.64,275.82 675.43,302.21 677.05,291.30 679.25,278.82 679.90,266.61 681.96,304.31 684.72,262.21 686.27,273.60 690.03,277.28 690.83,261.59 694.72,249.98 695.03,281.80 697.45,265.96 699.80,264.94 703.97,278.84 705.88,203.68 706.78,265.27 710.83,269.97 713.19,264.18 715.36,260.09 718.93,257.48 721.45,154.82 723.50,252.58 728.36,240.23 728.63,271.04 734.39,255.32 736.80,242.43 739.10,73.36 740.86,239.49 746.11,257.22 747.97,274.84 751.27,275.66 754.49,243.63 759.48,158.26 762.57,249.27 769.15,243.37 770.62,253.74 777.23,240.73 780.97,253.18 783.59,191.83 789.84,236.84 794.61,266.82 796.39,239.24 803.77,254.00 811.32,241.05 815.40,246.14 818.28,260.55 827.59,251.99 834.28,267.10 837.91,218.21 845.81,211.17 851.13,159.55 863.19,237.80 873.61,215.46 876.87,221.54 891.67,229.62 904.23,193.92 904.73,99.46 916.42,198.94 942.09,204.77 949.73,206.89 973.12,202.49 996.38,79.21 1008.06,179.93 1047.96,188.25 1086.00,173.62" fill="none" stroke="#b45f06" stroke-width="1.1" stroke-linejoin="round" stroke-linecap="round"/>
<line x1="318.89" y1="58" x2="318.89" y2="396.00" stroke="#777777" stroke-width="1" stroke-dasharray="4,4"/>
<text x="318.89" y="50" text-anchor="middle" font-family="Arial, sans-serif" font-size="11" fill="#555555">1h</text>
<line x1="739.07" y1="58" x2="739.07" y2="396.00" stroke="#777777" stroke-width="1" stroke-dasharray="4,4"/>
<text x="739.07" y="50" text-anchor="middle" font-family="Arial, sans-serif" font-size="11" fill="#555555">1d</text>
<line x1="996.34" y1="58" x2="996.34" y2="396.00" stroke="#777777" stroke-width="1" stroke-dasharray="4,4"/>
<text x="996.34" y="50" text-anchor="middle" font-family="Arial, sans-serif" font-size="11" fill="#555555">1w</text>
<text x="82.00" y="428" text-anchor="middle" font-family="Arial, sans-serif" font-size="11">2</text>
<text x="227.25" y="428" text-anchor="middle" font-family="Arial, sans-serif" font-size="11">6</text>
<text x="318.89" y="428" text-anchor="middle" font-family="Arial, sans-serif" font-size="11">12</text>
<text x="502.18" y="428" text-anchor="middle" font-family="Arial, sans-serif" font-size="11">48</text>
<text x="739.07" y="428" text-anchor="middle" font-family="Arial, sans-serif" font-size="11">288</text>
<text x="996.34" y="428" text-anchor="middle" font-family="Arial, sans-serif" font-size="11">2016</text>
<text x="1087.99" y="428" text-anchor="middle" font-family="Arial, sans-serif" font-size="11">4032</text>
<text x="584.00" y="450" text-anchor="middle" font-family="Arial, sans-serif" font-size="13">Periodo equivalente en retardos de 5 minutos (escala log)</text>
<text transform="translate(18,227.0) rotate(-90)" text-anchor="middle" font-family="Arial, sans-serif" font-size="13">log10 potencia</text>
</svg>