<svg xmlns="http://www.w3.org/2000/svg" width="1080" height="460" viewBox="0 0 1080 460">
<rect x="0" y="0" width="1080" height="460" fill="#ffffff"/>
<text x="540.0" y="28" text-anchor="middle" font-family="Arial, sans-serif" font-size="18" font-weight="700">Prediccion test corta t=9874-9923 logistic_clean</text>
<rect x="76" y="58" width="974.00" height="340.00" fill="none" stroke="#222222"/>
<line x1="76" y1="398.00" x2="1050.00" y2="398.00" stroke="#e8e8e8"/>
<text x="68" y="402.00" text-anchor="end" font-family="Arial, sans-serif" font-size="11">-0.0799</text>
<line x1="76" y1="313.00" x2="1050.00" y2="313.00" stroke="#e8e8e8"/>
<text x="68" y="317.00" text-anchor="end" font-family="Arial, sans-serif" font-size="11">0.21</text>
<line x1="76" y1="228.00" x2="1050.00" y2="228.00" stroke="#e8e8e8"/>
<text x="68" y="232.00" text-anchor="end" font-family="Arial, sans-serif" font-size="11">0.5</text>
<line x1="76" y1="143.00" x2="1050.00" y2="143.00" stroke="#e8e8e8"/>
<text x="68" y="147.00" text-anchor="end" font-family="Arial, sans-serif" font-size="11">0.79</text>
<line x1="76" y1="58.00" x2="1050.00" y2="58.00" stroke="#e8e8e8"/>
<text x="68" y="62.00" text-anchor="end" font-family="Arial, sans-serif" font-size="11">1.08</text>
<polyline points="76.00,361.13 95.88,323.22 115.76,205.12 135.63,88.59 155.51,346.68 175.39,273.59 195.27,109.78 215.14,272.19 235.02,108.07 254.90,277.75 274.78,115.20 294.65,255.09 314.53,91.44 334.41,335.93 354.29,240.36 374.16,83.52 394.04,366.32 413.92,342.46 433.80,260.16 453.67,95.54 473.55,320.90 493.43,199.17 513.31,92.79 533.18,330.94 553.06,225.99 572.94,81.50 592.82,374.36 612.69,373.69 632.57,371.02 652.45,360.50 672.33,320.96 692.20,199.32 712.08,92.67 731.96,331.38 751.84,227.23 771.71,81.45 791.59,374.55 811.47,374.45 831.35,374.05 851.22,372.46 871.10,366.14 890.98,341.79 910.86,258.08 930.73,93.78 950.61,327.32 970.49,216.01 990.37,83.41 1010.24,366.77 1030.12,344.16 1050.00,265.52" fill="none" stroke="#222222" stroke-width="1.6"/>
<polyline points="76.00,371.18 95.88,361.13 115.76,323.22 135.63,205.12 155.51,88.59 175.39,346.68 195.27,273.59 215.14,109.78 235.02,272.19 254.90,108.07 274.78,277.75 294.65,115.20 314.53,255.09 334.41,91.44 354.29,335.93 374.16,240.36 394.04,83.52 413.92,366.32 433.80,342.46 453.67,260.16 473.55,95.54 493.43,320.90 513.31,199.17 533.18,92.79 553.06,330.94 572.94,225.99 592.82,81.50 612.69,374.36 632.57,373.69 652.45,371.02 672.33,360.50 692.20,320.96 712.08,199.32 731.96,92.67 751.84,331.38 771.71,227.23 791.59,81.45 811.47,374.55 831.35,374.45 851.22,374.05 871.10,372.46 890.98,366.14 910.86,341.79 930.73,258.08 950.61,93.78 970.49,327.32 990.37,216.01 1010.24,83.41 1030.12,366.77 1050.00,344.16" fill="none" stroke="#6f7f8f" stroke-width="1.6"/>
<polyline points="76.00,227.91 95.88,227.91 115.76,227.91 135.63,227.91 155.51,227.91 175.39,227.91 195.27,227.91 215.14,227.91 235.02,227.91 254.90,227.91 274.78,227.91 294.65,227.91 314.53,227.91 334.41,227.91 354.29,227.91 374.16,227.91 394.04,227.91 413.92,227.91 433.80,227.91 453.67,227.91 473.55,227.91 493.43,227.91 513.31,227.91 533.18,227.91 553.06,227.91 572.94,227.91 592.82,227.91 612.69,227.91 632.57,227.91 652.45,227.91 672.33,227.91 692.20,227.91 712.08,227.91 731.96,227.91 751.84,227.91 771.71,227.91 791.59,227.91 811.47,227.91 831.35,227.91 851.22,227.91 871.10,227.91 890.98,227.91 910.86,227.91 930.73,227.91 950.61,227.91 970.49,227.91 990.37,227.91 1010.24,227.91 1030.12,227.91 1050.00,227.91" fill="none" stroke="#2a6fbb" stroke-width="1.6"/>
<polyline points="76.00,333.64 95.88,325.11 115.76,234.89 135.63,102.24 155.51,342.48 175.39,323.46 195.27,122.69 215.14,278.84 235.02,110.03 254.90,347.03 274.78,125.58 294.65,326.37 314.53,117.92 334.41,306.11 354.29,337.74 374.16,87.40 394.04,329.46 413.92,317.13 433.80,268.44 453.67,97.24 473.55,296.38 493.43,252.11 513.31,102.08 533.18,343.01 553.06,238.81 572.94,85.19 592.82,299.03 612.69,309.24 632.57,348.13 652.45,328.08 672.33,296.53 692.20,229.41 712.08,100.65 731.96,335.63 751.84,249.62 771.71,93.78 791.59,338.95 811.47,325.89 831.35,354.78 851.22,357.92 871.10,346.46 890.98,315.08 910.86,324.30 930.73,98.76 950.61,296.02 970.49,262.73 990.37,92.91 1010.24,325.65 1030.12,323.50 1050.00,327.33" fill="none" stroke="#b45f06" stroke-width="1.6"/>
<g><line x1="870.00" y1="28.00" x2="898.00" y2="28.00" stroke="#222222" stroke-width="2"/><text x="906.00" y="32.00" font-family="Arial, sans-serif" font-size="12">real</text></g>
<g><line x1="870.00" y1="46.00" x2="898.00" y2="46.00" stroke="#6f7f8f" stroke-width="2"/><text x="906.00" y="50.00" font-family="Arial, sans-serif" font-size="12">persistencia</text></g>
<g><line x1="870.00" y1="64.00" x2="898.00" y2="64.00" stroke="#2a6fbb" stroke-width="2"/><text x="906.00" y="68.00" font-family="Arial, sans-serif" font-size="12">AR(0) / media</text></g>
<g><line x1="870.00" y1="82.00" x2="898.00" y2="82.00" stroke="#b45f06" stroke-width="2"/><text x="906.00" y="86.00" font-family="Arial, sans-serif" font-size="12">kNN k=5</text></g>
<line x1="76.00" y1="398.00" x2="76.00" y2="403.00" stroke="#222222"/>
<text x="76.00" y="422" text-anchor="middle" font-family="Arial, sans-serif" font-size="10">9874</text>
<line x1="314.53" y1="398.00" x2="314.53" y2="403.00" stroke="#222222"/>
<text x="314.53" y="422" text-anchor="middle" font-family="Arial, sans-serif" font-size="10">9886</text>
<line x1="572.94" y1="398.00" x2="572.94" y2="403.00" stroke="#222222"/>
<text x="572.94" y="422" text-anchor="middle" font-family="Arial, sans-serif" font-size="10">9899</text>
<line x1="811.47" y1="398.00" x2="811.47" y2="403.00" stroke="#222222"/>
<text x="811.47" y="422" text-anchor="middle" font-family="Arial, sans-serif" font-size="10">9911</text>
<line x1="1050.00" y1="398.00" x2="1050.00" y2="403.00" stroke="#222222"/>
<text x="1050.00" y="422" text-anchor="middle" font-family="Arial, sans-serif" font-size="10">9923</text>
<text x="563.00" y="450" text-anchor="middle" font-family="Arial, sans-serif" font-size="13">t</text>
<text transform="translate(18,228.0) rotate(-90)" text-anchor="middle" font-family="Arial, sans-serif" font-size="13">x[t+1]</text>
</svg>