<svg xmlns="http://www.w3.org/2000/svg" width="1080" height="460" viewBox="0 0 1080 460">
<rect x="0" y="0" width="1080" height="460" fill="#ffffff"/>
<text x="540.0" y="28" text-anchor="middle" font-family="Arial, sans-serif" font-size="18" font-weight="700">Prediccion test completa logistic_noise_small</text>
<rect x="76" y="58" width="974.00" height="340.00" fill="none" stroke="#222222"/>
<line x1="76" y1="398.00" x2="1050.00" y2="398.00" stroke="#e8e8e8"/>
<text x="68" y="402.00" text-anchor="end" font-family="Arial, sans-serif" font-size="11">-0.08</text>
<line x1="76" y1="313.00" x2="1050.00" y2="313.00" stroke="#e8e8e8"/>
<text x="68" y="317.00" text-anchor="end" font-family="Arial, sans-serif" font-size="11">0.21</text>
<line x1="76" y1="228.00" x2="1050.00" y2="228.00" stroke="#e8e8e8"/>
<text x="68" y="232.00" text-anchor="end" font-family="Arial, sans-serif" font-size="11">0.5</text>
<line x1="76" y1="143.00" x2="1050.00" y2="143.00" stroke="#e8e8e8"/>
<text x="68" y="147.00" text-anchor="end" font-family="Arial, sans-serif" font-size="11">0.79</text>
<line x1="76" y1="58.00" x2="1050.00" y2="58.00" stroke="#e8e8e8"/>
<text x="68" y="62.00" text-anchor="end" font-family="Arial, sans-serif" font-size="11">1.08</text>
<polyline points="76.00,90.96 77.95,374.55 79.90,138.33 81.86,172.68 83.81,374.55 85.76,251.86 87.71,96.79 89.66,82.66 91.62,302.88 93.57,299.08 95.52,200.77 97.47,81.92 99.42,157.46 101.37,210.48 103.33,130.61 105.28,322.75 107.23,293.19 109.18,147.65 111.13,82.29 113.09,87.04 115.04,220.33 116.99,199.71 118.94,81.93 120.89,318.22 122.85,118.08 124.80,316.62 126.75,131.10 128.70,318.37 130.65,179.46 132.61,236.76 134.56,302.15 136.51,235.00 138.46,337.38 140.41,282.04 142.36,360.08 144.32,310.06 146.27,371.95 148.22,344.13 150.17,145.74 152.12,373.86 154.08,314.95 156.03,196.12 157.98,93.83 159.93,372.65 161.88,230.27 163.84,369.30 165.79,81.45 167.74,136.06 169.69,204.11 171.64,310.70 173.60,81.45 175.55,232.68 177.50,363.60 179.45,374.55 181.40,83.33 183.35,337.79 185.31,227.59 187.26,369.45 189.21,84.95 191.16,147.06 193.11,85.87 195.07,244.67 197.02,194.75 198.97,298.22 200.92,190.52 202.87,142.66 204.83,326.30 206.78,345.22 208.73,185.28 210.68,214.00 212.63,221.85 214.59,273.42 216.54,284.21 218.49,368.74 220.44,85.68 222.39,106.89 224.34,370.08 226.30,83.09 228.25,313.82 230.20,95.18 232.15,350.15 234.10,343.17 236.06,195.64 238.01,365.17 239.96,364.03 241.91,371.88 243.86,355.48 245.82,201.01 247.77,359.30 249.72,254.08 251.67,84.65 253.62,335.08 255.58,358.67 257.53,94.58 259.48,336.95 261.43,326.58 263.38,216.60 265.33,274.64 267.29,114.06 269.24,215.69 271.19,256.31 273.14,373.54 275.09,177.09 277.05,282.93 279.00,374.32 280.95,346.54 282.90,113.43 284.85,201.53 286.81,361.28 288.76,342.86 290.71,142.89 292.66,114.79 294.61,195.45 296.57,344.18 298.52,155.59 300.47,179.91 302.42,315.58 304.37,134.44 306.32,81.45 308.28,263.47 310.23,245.72 312.18,197.70 314.13,92.07 316.08,367.41 318.04,231.59 319.99,361.42 321.94,369.28 323.89,143.82 325.84,307.31 327.80,88.41 329.75,146.20 331.70,82.45 333.65,178.66 335.60,254.08 337.56,90.69 339.51,271.83 341.46,249.36 343.41,121.19 345.36,348.45 347.31,81.45 349.27,203.27 351.22,100.50 353.17,151.37 355.12,333.14 357.07,367.86 359.03,136.50 360.98,190.25 362.93,136.51 364.88,195.52 366.83,90.44 368.79,177.02 370.74,357.66 372.69,84.80 374.64,91.19 376.59,373.01 378.55,283.63 380.50,374.55 382.45,88.04 384.40,183.08 386.35,267.76 388.30,89.62 390.26,335.84 392.21,188.45 394.16,143.26 396.11,92.38 398.06,366.61 400.02,358.46 401.97,129.83 403.92,294.79 405.87,266.94 407.82,138.38 409.78,172.89 411.73,363.92 413.68,373.52 415.63,228.02 417.58,370.83 419.54,82.48 421.49,94.53 423.44,371.13 425.39,96.30 427.34,103.50 429.29,151.31 431.25,305.07 433.20,125.47 435.15,372.44 437.10,360.22 439.05,335.87 441.01,285.43 442.96,374.55 444.91,96.80 446.86,314.71 448.81,124.18 450.77,366.71 452.72,362.73 454.67,372.96 456.62,90.03 458.57,294.81 460.53,86.13 462.48,199.89 464.43,371.54 466.38,88.16 468.33,170.09 470.28,363.16 472.24,374.09 474.19,124.09 476.14,371.25 478.09,89.36 480.04,149.50 482.00,92.57 483.95,338.01 485.90,331.17 487.85,374.55 489.80,371.13 491.76,86.18 493.71,216.07 495.66,282.20 497.61,373.44 499.56,83.74 501.52,134.92 503.47,81.93 505.42,374.55 507.37,350.19 509.32,374.55 511.27,163.00 513.23,117.45 515.18,296.75 517.13,198.40 519.08,370.39 521.03,88.20 522.99,112.79 524.94,153.01 526.89,161.91 528.84,304.09 530.79,129.50 532.75,252.80 534.70,99.76 536.65,214.11 538.60,248.56 540.55,143.56 542.51,339.87 544.46,252.30 546.41,271.23 548.36,228.37 550.31,374.55 552.26,323.37 554.22,272.62 556.17,114.61 558.12,238.11 560.07,259.30 562.02,330.92 563.98,374.07 565.93,90.21 567.88,374.55 569.83,366.33 571.78,216.29 573.74,264.58 575.69,167.06 577.64,352.67 579.59,124.61 581.54,373.07 583.49,81.51 585.45,88.23 587.40,279.82 589.35,355.86 591.30,212.56 593.25,203.61 595.21,331.93 597.16,372.19 599.11,356.07 601.06,82.74 603.01,335.86 604.97,311.23 606.92,82.43 608.87,83.59 610.82,82.67 612.77,362.29 614.73,335.64 616.68,359.45 618.63,91.83 620.58,371.84 622.53,137.27 624.48,149.99 626.44,86.32 628.39,224.97 630.34,366.65 632.29,243.14 634.24,83.17 636.20,115.94 638.15,85.69 640.10,162.85 642.05,289.71 644.00,242.50 645.96,199.66 647.91,373.59 649.86,142.24 651.81,106.75 653.76,327.54 655.72,310.88 657.67,369.73 659.62,104.81 661.57,100.67 663.52,170.51 665.47,374.52 667.43,147.31 669.38,82.25 671.33,292.52 673.28,128.04 675.23,357.86 677.19,112.78 679.14,158.77 681.09,211.52 683.04,87.09 684.99,116.57 686.95,127.17 688.90,370.42 690.85,300.84 692.80,172.26 694.75,374.34 696.71,167.21 698.66,350.50 700.61,372.30 702.56,83.15 704.51,205.55 706.46,284.19 708.42,374.55 710.37,214.45 712.32,258.65 714.27,82.76 716.22,258.13 718.18,81.45 720.13,155.33 722.08,166.81 724.03,336.32 725.98,191.16 727.94,110.54 729.89,245.94 731.84,174.65 733.79,366.04 735.74,242.27 737.70,248.63 739.65,189.07 741.60,181.02 743.55,331.38 745.50,351.44 747.45,87.26 749.41,82.37 751.36,128.88 753.31,348.10 755.26,363.17 757.21,355.19 759.17,82.32 761.12,104.03 763.07,91.59 765.02,323.48 766.97,269.02 768.93,112.38 770.88,240.54 772.83,82.88 774.78,100.88 776.73,148.58 778.69,347.11 780.64,98.02 782.59,81.99 784.54,98.41 786.49,314.32 788.44,325.15 790.40,348.48 792.35,337.29 794.30,284.14 796.25,373.82 798.20,97.74 800.16,305.34 802.11,263.64 804.06,115.75 806.01,229.16 807.96,366.04 809.92,275.51 811.87,143.95 813.82,88.51 815.77,216.10 817.72,82.79 819.68,169.59 821.63,360.98 823.58,350.97 825.53,82.06 827.48,262.23 829.43,109.07 831.39,281.17 833.34,366.88 835.29,309.04 837.24,369.89 839.19,246.64 841.15,132.33 843.10,286.04 845.05,368.23 847.00,83.97 848.95,112.32 850.91,159.03 852.86,210.19 854.81,94.93 856.76,297.56 858.71,234.13 860.67,260.79 862.62,102.63 864.57,308.56 866.52,84.64 868.47,206.67 870.42,176.78 872.38,327.55 874.33,324.38 876.28,322.18 878.23,237.29 880.18,161.46 882.14,223.91 884.09,321.72 886.04,222.98 887.99,352.17 889.94,245.77 891.90,154.34 893.85,132.34 895.80,244.53 897.75,194.19 899.70,305.25 901.66,88.79 903.61,154.68 905.56,147.79 907.51,86.84 909.46,81.45 911.41,352.42 913.37,176.49 915.32,358.39 917.27,229.76 919.22,363.01 921.17,374.31 923.13,86.81 925.08,270.56 927.03,246.54 928.98,131.01 930.93,287.14 932.89,368.93 934.84,161.78 936.79,121.60 938.74,371.59 940.69,85.03 942.65,368.97 944.60,185.79 946.55,82.01 948.50,343.48 950.45,213.68 952.40,83.86 954.36,87.62 956.31,85.07 958.26,96.88 960.21,292.38 962.16,187.96 964.12,202.90 966.07,349.79 968.02,82.99 969.97,209.54 971.92,181.82 973.88,306.49 975.83,260.61 977.78,103.28 979.73,137.66 981.68,104.01 983.64,115.42 985.59,81.45 987.54,306.00 989.49,83.85 991.44,245.42 993.39,185.71 995.35,82.41 997.30,372.02 999.25,101.63 1001.20,152.95 1003.15,112.70 1005.11,122.37 1007.06,372.40 1009.01,90.81 1010.96,358.58 1012.91,225.89 1014.87,349.74 1016.82,81.80 1018.77,315.03 1020.72,128.48 1022.67,359.30 1024.63,141.36 1026.58,119.20 1028.53,270.63 1030.48,219.46 1032.43,315.70 1034.38,231.01 1036.34,367.61 1038.29,86.26 1040.24,97.94 1042.19,234.82 1044.14,184.61 1046.10,253.61 1048.05,346.99 1050.00,87.95" fill="none" stroke="#222222" stroke-width="1.6"/>
<polyline points="76.00,199.91 77.95,81.45 79.90,165.49 81.86,308.59 83.81,374.55 85.76,340.43 87.71,263.33 89.66,232.34 91.62,353.47 93.57,99.71 95.52,134.87 97.47,230.68 99.42,301.19 101.37,131.20 103.33,168.51 105.28,362.61 107.23,353.45 109.18,297.98 111.13,221.38 113.09,250.37 115.04,126.33 116.99,320.95 118.94,233.18 120.89,358.12 122.85,176.36 124.80,360.17 126.75,167.56 128.70,361.34 130.65,310.78 132.61,335.29 134.56,356.42 136.51,122.26 138.46,366.33 140.41,349.19 142.36,370.80 144.32,98.38 146.27,81.65 148.22,366.11 150.17,297.66 152.12,82.11 154.08,359.17 156.03,138.26 157.98,200.34 159.93,81.75 161.88,124.62 163.84,372.78 165.79,239.71 167.74,292.51 169.69,323.11 171.64,97.90 173.60,232.97 175.55,332.25 177.50,370.95 179.45,82.62 181.40,230.26 183.35,365.37 185.31,330.84 187.26,374.55 189.21,209.55 191.16,157.84 193.11,210.05 195.07,118.95 197.02,317.66 198.97,102.07 200.92,139.38 202.87,159.82 204.83,91.76 206.78,366.48 208.73,140.59 210.68,128.46 212.63,329.77 214.59,348.06 216.54,107.59 218.49,373.86 220.44,209.51 222.39,186.17 224.34,82.17 226.30,225.39 228.25,356.75 230.20,258.14 232.15,89.14 234.10,89.76 236.06,317.68 238.01,83.28 239.96,83.91 241.91,81.45 243.86,85.87 245.82,133.65 247.77,84.69 249.72,116.06 251.67,243.36 253.62,91.46 255.58,370.46 257.53,258.68 259.48,90.04 261.43,360.60 263.38,327.48 265.33,346.94 267.29,278.95 269.24,325.35 271.19,341.55 273.14,81.45 275.09,312.66 277.05,350.98 279.00,83.77 280.95,367.83 282.90,278.02 284.85,322.16 286.81,85.62 288.76,87.98 290.71,161.51 292.66,276.33 294.61,318.33 296.57,87.70 298.52,302.14 300.47,142.68 302.42,96.96 304.37,290.55 306.32,220.54 308.28,343.79 310.23,117.86 312.18,320.99 314.13,199.70 316.08,372.78 318.04,125.14 319.99,370.63 321.94,82.60 323.89,159.87 325.84,99.14 327.80,203.46 329.75,298.16 331.70,236.42 333.65,310.83 335.60,338.90 337.56,254.42 339.51,345.02 341.46,119.12 343.41,284.14 345.36,367.70 347.31,238.94 349.27,131.72 351.22,267.28 353.17,156.78 355.12,92.58 357.07,371.67 359.03,164.69 360.98,316.45 362.93,162.34 364.88,319.67 366.83,202.85 368.79,309.98 370.74,85.13 372.69,216.76 374.64,257.36 376.59,81.45 378.55,107.66 380.50,81.45 382.45,208.44 384.40,140.85 386.35,111.12 388.30,202.69 390.26,91.57 392.21,317.61 394.16,160.23 396.11,255.36 398.06,371.36 400.02,83.68 401.97,287.78 403.92,351.44 405.87,111.28 407.82,164.28 409.78,311.17 411.73,370.48 413.68,83.00 415.63,331.97 417.58,374.40 419.54,236.34 421.49,198.11 423.44,83.27 425.39,194.12 427.34,267.04 429.29,153.56 431.25,101.47 433.20,169.38 435.15,373.60 437.10,84.97 439.05,92.29 441.01,350.55 442.96,81.45 444.91,261.39 446.86,98.62 448.81,284.07 450.77,369.76 452.72,84.84 454.67,373.52 456.62,252.20 458.57,103.30 460.53,248.90 462.48,137.23 464.43,82.98 466.38,207.40 468.33,147.48 470.28,370.95 472.24,81.45 474.19,172.45 476.14,373.35 478.09,206.01 480.04,298.74 482.00,199.58 483.95,365.89 485.90,364.44 487.85,374.55 489.80,373.98 491.76,209.85 493.71,130.89 495.66,348.76 497.61,81.45 499.56,217.62 501.52,290.43 503.47,228.59 505.42,374.55 507.37,367.33 509.32,81.45 511.27,304.42 513.23,280.75 515.18,356.11 517.13,134.74 519.08,82.14 521.03,207.83 522.99,276.36 524.94,301.57 526.89,149.91 528.84,100.35 530.79,168.37 532.75,341.18 534.70,267.22 536.65,129.09 538.60,339.13 540.55,295.13 542.51,89.11 544.46,337.71 546.41,108.82 548.36,126.49 550.31,373.36 552.26,360.34 554.22,346.10 556.17,277.94 558.12,335.36 560.07,341.16 562.02,94.64 563.98,374.11 565.93,199.85 567.88,82.95 569.83,373.34 571.78,329.02 573.74,345.53 575.69,148.44 577.64,85.01 579.59,172.04 581.54,372.77 583.49,220.61 585.45,204.18 587.40,106.69 589.35,85.93 591.30,128.63 593.25,322.49 595.21,92.79 597.16,374.14 599.11,369.44 601.06,232.70 603.01,364.30 604.97,359.78 606.92,236.95 608.87,214.03 610.82,230.28 612.77,372.60 614.73,363.54 616.68,371.09 618.63,253.93 620.58,81.45 622.53,292.00 624.48,158.66 626.44,209.50 628.39,125.31 630.34,372.44 632.29,117.92 634.24,217.48 636.20,278.18 638.15,246.79 640.10,151.48 642.05,105.25 644.00,334.82 645.96,321.45 647.91,81.45 649.86,294.71 651.81,269.90 653.76,93.55 655.72,357.07 657.67,82.81 659.62,185.60 661.57,189.67 663.52,147.18 665.47,81.45 667.43,297.61 669.38,233.94 671.33,353.75 673.28,286.43 675.23,369.34 677.19,275.76 679.14,302.11 681.09,131.08 683.04,210.88 684.99,175.65 686.95,282.88 688.90,374.55 690.85,100.60 692.80,145.85 694.75,81.45 696.71,305.68 698.66,86.69 700.61,83.90 702.56,219.33 704.51,324.45 706.46,106.05 708.42,81.45 710.37,328.65 712.32,340.31 714.27,231.47 716.22,340.65 718.18,233.02 720.13,301.80 722.08,149.60 724.03,92.92 725.98,318.64 727.94,181.95 729.89,118.58 731.84,309.70 733.79,84.02 735.74,335.73 737.70,339.49 739.65,140.18 741.60,142.53 743.55,92.15 745.50,369.48 747.45,207.31 749.41,219.00 751.36,287.52 753.31,367.38 755.26,84.03 757.21,85.83 759.17,217.77 761.12,267.79 763.07,200.69 765.02,360.43 766.97,344.40 768.93,179.63 770.88,335.24 772.83,238.36 774.78,264.84 776.73,158.33 778.69,89.81 780.64,263.36 782.59,241.54 784.54,260.39 786.49,96.93 788.44,94.43 790.40,367.23 792.35,88.14 794.30,349.89 796.25,81.98 798.20,195.33 800.16,101.92 802.11,112.29 804.06,178.95 806.01,333.26 807.96,372.56 809.92,109.11 811.87,296.09 813.82,250.01 815.77,128.33 817.72,236.30 819.68,308.79 821.63,369.79 823.58,87.04 825.53,231.64 827.48,343.19 829.43,183.30 831.39,106.13 833.34,84.42 835.29,98.30 837.24,82.31 839.19,118.24 841.15,168.20 843.10,351.84 845.05,83.06 847.00,240.02 848.95,276.07 850.91,149.77 852.86,130.01 854.81,191.20 856.76,102.64 858.71,120.09 860.67,342.74 862.62,186.82 864.57,100.23 866.52,221.04 868.47,325.25 870.42,142.11 872.38,93.72 874.33,360.60 876.28,361.15 878.23,333.57 880.18,303.93 882.14,123.85 884.09,359.74 886.04,327.80 887.99,368.64 889.94,117.23 891.90,302.00 893.85,164.45 895.80,337.65 897.75,321.62 899.70,98.44 901.66,204.18 903.61,301.17 905.56,156.93 907.51,206.98 909.46,231.51 911.41,369.94 913.37,144.11 915.32,86.08 917.27,125.47 919.22,373.56 921.17,81.45 923.13,249.87 925.08,109.88 927.03,119.03 928.98,166.75 930.93,350.38 932.89,371.89 934.84,151.06 936.79,282.52 938.74,374.55 940.69,214.25 942.65,83.58 944.60,139.04 946.55,222.66 948.50,366.92 950.45,326.32 952.40,214.30 954.36,251.39 956.31,245.38 958.26,193.41 960.21,105.11 962.16,316.40 964.12,133.25 966.07,87.46 968.02,219.81 969.97,324.63 971.92,144.65 973.88,100.18 975.83,115.06 977.78,190.59 979.73,165.73 981.68,187.20 983.64,177.99 985.59,223.58 987.54,357.95 989.49,211.50 991.44,119.05 993.39,317.60 995.35,230.39 997.30,373.85 999.25,189.14 1001.20,153.91 1003.15,179.98 1005.11,169.96 1007.06,373.44 1009.01,199.04 1010.96,370.80 1012.91,123.76 1014.87,368.98 1016.82,240.25 1018.77,96.73 1020.72,285.48 1022.67,370.59 1024.63,293.26 1026.58,281.57 1028.53,345.37 1030.48,128.53 1032.43,356.90 1034.38,122.91 1036.34,373.55 1038.29,213.95 1040.24,262.68 1042.19,121.35 1044.14,312.89 1046.10,115.76 1048.05,85.22 1050.00,246.54" fill="none" stroke="#6f7f8f" stroke-width="1.6"/>
<polyline points="76.00,227.93 77.95,227.93 79.90,227.93 81.86,227.93 83.81,227.93 85.76,227.93 87.71,227.93 89.66,227.93 91.62,227.93 93.57,227.93 95.52,227.93 97.47,227.93 99.42,227.93 101.37,227.93 103.33,227.93 105.28,227.93 107.23,227.93 109.18,227.93 111.13,227.93 113.09,227.93 115.04,227.93 116.99,227.93 118.94,227.93 120.89,227.93 122.85,227.93 124.80,227.93 126.75,227.93 128.70,227.93 130.65,227.93 132.61,227.93 134.56,227.93 136.51,227.93 138.46,227.93 140.41,227.93 142.36,227.93 144.32,227.93 146.27,227.93 148.22,227.93 150.17,227.93 152.12,227.93 154.08,227.93 156.03,227.93 157.98,227.93 159.93,227.93 161.88,227.93 163.84,227.93 165.79,227.93 167.74,227.93 169.69,227.93 171.64,227.93 173.60,227.93 175.55,227.93 177.50,227.93 179.45,227.93 181.40,227.93 183.35,227.93 185.31,227.93 187.26,227.93 189.21,227.93 191.16,227.93 193.11,227.93 195.07,227.93 197.02,227.93 198.97,227.93 200.92,227.93 202.87,227.93 204.83,227.93 206.78,227.93 208.73,227.93 210.68,227.93 212.63,227.93 214.59,227.93 216.54,227.93 218.49,227.93 220.44,227.93 222.39,227.93 224.34,227.93 226.30,227.93 228.25,227.93 230.20,227.93 232.15,227.93 234.10,227.93 236.06,227.93 238.01,227.93 239.96,227.93 241.91,227.93 243.86,227.93 245.82,227.93 247.77,227.93 249.72,227.93 251.67,227.93 253.62,227.93 255.58,227.93 257.53,227.93 259.48,227.93 261.43,227.93 263.38,227.93 265.33,227.93 267.29,227.93 269.24,227.93 271.19,227.93 273.14,227.93 275.09,227.93 277.05,227.93 279.00,227.93 280.95,227.93 282.90,227.93 284.85,227.93 286.81,227.93 288.76,227.93 290.71,227.93 292.66,227.93 294.61,227.93 296.57,227.93 298.52,227.93 300.47,227.93 302.42,227.93 304.37,227.93 306.32,227.93 308.28,227.93 310.23,227.93 312.18,227.93 314.13,227.93 316.08,227.93 318.04,227.93 319.99,227.93 321.94,227.93 323.89,227.93 325.84,227.93 327.80,227.93 329.75,227.93 331.70,227.93 333.65,227.93 335.60,227.93 337.56,227.93 339.51,227.93 341.46,227.93 343.41,227.93 345.36,227.93 347.31,227.93 349.27,227.93 351.22,227.93 353.17,227.93 355.12,227.93 357.07,227.93 359.03,227.93 360.98,227.93 362.93,227.93 364.88,227.93 366.83,227.93 368.79,227.93 370.74,227.93 372.69,227.93 374.64,227.93 376.59,227.93 378.55,227.93 380.50,227.93 382.45,227.93 384.40,227.93 386.35,227.93 388.30,227.93 390.26,227.93 392.21,227.93 394.16,227.93 396.11,227.93 398.06,227.93 400.02,227.93 401.97,227.93 403.92,227.93 405.87,227.93 407.82,227.93 409.78,227.93 411.73,227.93 413.68,227.93 415.63,227.93 417.58,227.93 419.54,227.93 421.49,227.93 423.44,227.93 425.39,227.93 427.34,227.93 429.29,227.93 431.25,227.93 433.20,227.93 435.15,227.93 437.10,227.93 439.05,227.93 441.01,227.93 442.96,227.93 444.91,227.93 446.86,227.93 448.81,227.93 450.77,227.93 452.72,227.93 454.67,227.93 456.62,227.93 458.57,227.93 460.53,227.93 462.48,227.93 464.43,227.93 466.38,227.93 468.33,227.93 470.28,227.93 472.24,227.93 474.19,227.93 476.14,227.93 478.09,227.93 480.04,227.93 482.00,227.93 483.95,227.93 485.90,227.93 487.85,227.93 489.80,227.93 491.76,227.93 493.71,227.93 495.66,227.93 497.61,227.93 499.56,227.93 501.52,227.93 503.47,227.93 505.42,227.93 507.37,227.93 509.32,227.93 511.27,227.93 513.23,227.93 515.18,227.93 517.13,227.93 519.08,227.93 521.03,227.93 522.99,227.93 524.94,227.93 526.89,227.93 528.84,227.93 530.79,227.93 532.75,227.93 534.70,227.93 536.65,227.93 538.60,227.93 540.55,227.93 542.51,227.93 544.46,227.93 546.41,227.93 548.36,227.93 550.31,227.93 552.26,227.93 554.22,227.93 556.17,227.93 558.12,227.93 560.07,227.93 562.02,227.93 563.98,227.93 565.93,227.93 567.88,227.93 569.83,227.93 571.78,227.93 573.74,227.93 575.69,227.93 577.64,227.93 579.59,227.93 581.54,227.93 583.49,227.93 585.45,227.93 587.40,227.93 589.35,227.93 591.30,227.93 593.25,227.93 595.21,227.93 597.16,227.93 599.11,227.93 601.06,227.93 603.01,227.93 604.97,227.93 606.92,227.93 608.87,227.93 610.82,227.93 612.77,227.93 614.73,227.93 616.68,227.93 618.63,227.93 620.58,227.93 622.53,227.93 624.48,227.93 626.44,227.93 628.39,227.93 630.34,227.93 632.29,227.93 634.24,227.93 636.20,227.93 638.15,227.93 640.10,227.93 642.05,227.93 644.00,227.93 645.96,227.93 647.91,227.93 649.86,227.93 651.81,227.93 653.76,227.93 655.72,227.93 657.67,227.93 659.62,227.93 661.57,227.93 663.52,227.93 665.47,227.93 667.43,227.93 669.38,227.93 671.33,227.93 673.28,227.93 675.23,227.93 677.19,227.93 679.14,227.93 681.09,227.93 683.04,227.93 684.99,227.93 686.95,227.93 688.90,227.93 690.85,227.93 692.80,227.93 694.75,227.93 696.71,227.93 698.66,227.93 700.61,227.93 702.56,227.93 704.51,227.93 706.46,227.93 708.42,227.93 710.37,227.93 712.32,227.93 714.27,227.93 716.22,227.93 718.18,227.93 720.13,227.93 722.08,227.93 724.03,227.93 725.98,227.93 727.94,227.93 729.89,227.93 731.84,227.93 733.79,227.93 735.74,227.93 737.70,227.93 739.65,227.93 741.60,227.93 743.55,227.93 745.50,227.93 747.45,227.93 749.41,227.93 751.36,227.93 753.31,227.93 755.26,227.93 757.21,227.93 759.17,227.93 761.12,227.93 763.07,227.93 765.02,227.93 766.97,227.93 768.93,227.93 770.88,227.93 772.83,227.93 774.78,227.93 776.73,227.93 778.69,227.93 780.64,227.93 782.59,227.93 784.54,227.93 786.49,227.93 788.44,227.93 790.40,227.93 792.35,227.93 794.30,227.93 796.25,227.93 798.20,227.93 800.16,227.93 802.11,227.93 804.06,227.93 806.01,227.93 807.96,227.93 809.92,227.93 811.87,227.93 813.82,227.93 815.77,227.93 817.72,227.93 819.68,227.93 821.63,227.93 823.58,227.93 825.53,227.93 827.48,227.93 829.43,227.93 831.39,227.93 833.34,227.93 835.29,227.93 837.24,227.93 839.19,227.93 841.15,227.93 843.10,227.93 845.05,227.93 847.00,227.93 848.95,227.93 850.91,227.93 852.86,227.93 854.81,227.93 856.76,227.93 858.71,227.93 860.67,227.93 862.62,227.93 864.57,227.93 866.52,227.93 868.47,227.93 870.42,227.93 872.38,227.93 874.33,227.93 876.28,227.93 878.23,227.93 880.18,227.93 882.14,227.93 884.09,227.93 886.04,227.93 887.99,227.93 889.94,227.93 891.90,227.93 893.85,227.93 895.80,227.93 897.75,227.93 899.70,227.93 901.66,227.93 903.61,227.93 905.56,227.93 907.51,227.93 909.46,227.93 911.41,227.93 913.37,227.93 915.32,227.93 917.27,227.93 919.22,227.93 921.17,227.93 923.13,227.93 925.08,227.93 927.03,227.93 928.98,227.93 930.93,227.93 932.89,227.93 934.84,227.93 936.79,227.93 938.74,227.93 940.69,227.93 942.65,227.93 944.60,227.93 946.55,227.93 948.50,227.93 950.45,227.93 952.40,227.93 954.36,227.93 956.31,227.93 958.26,227.93 960.21,227.93 962.16,227.93 964.12,227.93 966.07,227.93 968.02,227.93 969.97,227.93 971.92,227.93 973.88,227.93 975.83,227.93 977.78,227.93 979.73,227.93 981.68,227.93 983.64,227.93 985.59,227.93 987.54,227.93 989.49,227.93 991.44,227.93 993.39,227.93 995.35,227.93 997.30,227.93 999.25,227.93 1001.20,227.93 1003.15,227.93 1005.11,227.93 1007.06,227.93 1009.01,227.93 1010.96,227.93 1012.91,227.93 1014.87,227.93 1016.82,227.93 1018.77,227.93 1020.72,227.93 1022.67,227.93 1024.63,227.93 1026.58,227.93 1028.53,227.93 1030.48,227.93 1032.43,227.93 1034.38,227.93 1036.34,227.93 1038.29,227.93 1040.24,227.93 1042.19,227.93 1044.14,227.93 1046.10,227.93 1048.05,227.93 1050.00,227.93" fill="none" stroke="#2a6fbb" stroke-width="1.6"/>
<polyline points="76.00,95.98 77.95,361.05 79.90,153.36 81.86,173.11 83.81,320.10 85.76,330.33 87.71,100.32 89.66,84.64 91.62,330.41 93.57,299.66 95.52,236.02 97.47,92.56 99.42,163.31 101.37,192.87 103.33,124.64 105.28,315.50 107.23,298.41 109.18,170.12 111.13,110.44 113.09,95.68 115.04,221.63 116.99,259.94 118.94,86.29 120.89,288.56 122.85,101.39 124.80,267.85 126.75,175.83 128.70,317.33 130.65,208.86 132.61,249.69 134.56,281.90 136.51,245.08 138.46,328.78 140.41,248.66 142.36,316.54 144.32,284.25 146.27,329.21 148.22,319.31 150.17,155.31 152.12,314.88 154.08,247.05 156.03,214.48 157.98,100.65 159.93,263.09 161.88,257.43 163.84,329.36 165.79,107.82 167.74,242.88 169.69,313.68 171.64,317.90 173.60,91.61 175.55,292.80 177.50,344.31 179.45,333.09 181.40,112.77 183.35,330.82 185.31,298.23 187.26,289.52 189.21,92.37 191.16,208.26 193.11,93.47 195.07,258.63 197.02,237.90 198.97,316.43 200.92,234.77 202.87,161.21 204.83,338.08 206.78,343.96 208.73,238.49 210.68,257.89 212.63,234.85 214.59,237.72 216.54,285.87 218.49,335.42 220.44,103.53 222.39,134.30 224.34,315.14 226.30,96.46 228.25,368.16 230.20,116.85 232.15,310.11 234.10,355.83 236.06,229.48 238.01,309.01 239.96,303.70 241.91,349.03 243.86,305.58 245.82,177.05 247.77,287.17 249.72,265.60 251.67,109.33 253.62,301.12 255.58,330.70 257.53,100.66 259.48,325.58 261.43,275.01 263.38,273.81 265.33,281.58 267.29,95.47 269.24,242.88 271.19,290.82 273.14,311.81 275.09,247.81 277.05,286.15 279.00,315.15 280.95,335.64 282.90,118.55 284.85,140.46 286.81,330.48 288.76,322.32 290.71,164.56 292.66,141.76 294.61,261.65 296.57,305.21 298.52,135.09 300.47,244.25 302.42,304.44 304.37,144.00 306.32,105.60 308.28,225.64 310.23,264.82 312.18,278.88 314.13,112.75 316.08,287.55 318.04,241.29 319.99,311.79 321.94,342.84 323.89,157.17 325.84,339.03 327.80,124.72 329.75,183.71 331.70,129.14 333.65,174.68 335.60,260.08 337.56,126.93 339.51,256.81 341.46,286.87 343.41,113.30 345.36,342.76 347.31,83.27 349.27,249.95 351.22,124.42 353.17,187.87 355.12,298.08 357.07,352.05 359.03,195.35 360.98,203.68 362.93,189.40 364.88,242.82 366.83,94.37 368.79,172.30 370.74,329.70 372.69,85.01 374.64,116.75 376.59,318.88 378.55,285.34 380.50,314.66 382.45,114.24 384.40,232.40 386.35,257.33 388.30,97.76 390.26,321.20 392.21,199.22 394.16,145.24 396.11,133.81 398.06,336.67 400.02,325.03 401.97,159.72 403.92,307.45 405.87,230.12 407.82,156.62 409.78,198.82 411.73,338.68 413.68,306.53 415.63,292.93 417.58,300.13 419.54,92.26 421.49,82.65 423.44,277.77 425.39,95.37 427.34,90.86 429.29,184.33 431.25,281.16 433.20,153.09 435.15,346.53 437.10,333.63 439.05,249.84 441.01,257.96 442.96,309.70 444.91,91.22 446.86,352.99 448.81,169.91 450.77,354.12 452.72,308.24 454.67,315.97 456.62,100.38 458.57,283.41 460.53,110.87 462.48,270.70 464.43,314.65 466.38,124.01 468.33,205.30 470.28,329.84 472.24,324.75 474.19,161.25 476.14,322.55 478.09,103.75 480.04,172.49 482.00,111.66 483.95,338.29 485.90,314.24 487.85,328.66 489.80,341.05 491.76,121.38 493.71,212.90 495.66,290.69 497.61,332.93 499.56,95.30 501.52,155.34 503.47,100.29 505.42,284.00 507.37,311.24 509.32,331.64 511.27,153.91 513.23,141.86 515.18,271.97 517.13,291.81 519.08,362.21 521.03,118.13 522.99,110.80 524.94,183.62 526.89,159.74 528.84,296.23 530.79,179.90 532.75,286.63 534.70,91.21 536.65,238.40 538.60,280.42 540.55,190.16 542.51,335.65 544.46,325.65 546.41,307.31 548.36,295.21 550.31,351.68 552.26,324.70 554.22,308.26 556.17,148.88 558.12,295.72 560.07,339.02 562.02,307.03 563.98,306.33 565.93,115.38 567.88,332.99 569.83,344.49 571.78,268.80 573.74,274.19 575.69,192.18 577.64,339.60 579.59,142.76 581.54,358.52 583.49,91.79 585.45,119.29 587.40,300.70 589.35,344.07 591.30,273.47 593.25,257.30 595.21,296.10 597.16,291.24 599.11,333.19 601.06,91.25 603.01,299.67 604.97,304.18 606.92,90.75 608.87,106.89 610.82,85.17 612.77,335.64 614.73,284.82 616.68,340.86 618.63,121.40 620.58,320.64 622.53,160.67 624.48,139.50 626.44,111.25 628.39,280.25 630.34,359.63 632.29,267.83 634.24,92.78 636.20,107.17 638.15,94.17 640.10,103.74 642.05,255.78 644.00,258.38 645.96,182.48 647.91,336.84 649.86,143.00 651.81,127.66 653.76,337.34 655.72,283.88 657.67,329.39 659.62,97.98 661.57,147.84 663.52,252.33 665.47,324.44 667.43,126.94 669.38,119.53 671.33,276.06 673.28,201.50 675.23,336.23 677.19,113.71 679.14,160.90 681.09,327.51 683.04,88.85 684.99,130.48 686.95,149.43 688.90,338.37 690.85,298.74 692.80,224.15 694.75,336.21 696.71,225.75 698.66,289.70 700.61,269.83 702.56,92.75 704.51,272.82 706.46,344.90 708.42,286.72 710.37,237.05 712.32,314.82 714.27,107.18 716.22,298.66 718.18,85.15 720.13,174.51 722.08,264.21 724.03,325.40 725.98,261.62 727.94,177.11 729.89,203.84 731.84,223.51 733.79,337.17 735.74,262.52 737.70,290.71 739.65,261.71 741.60,181.41 743.55,349.85 745.50,342.77 747.45,102.95 749.41,91.18 751.36,173.65 753.31,326.61 755.26,327.01 757.21,302.66 759.17,100.98 761.12,92.35 763.07,90.36 765.02,278.61 766.97,253.34 768.93,111.77 770.88,253.38 772.83,102.97 774.78,119.04 776.73,157.19 778.69,299.59 780.64,98.84 782.59,99.80 784.54,115.75 786.49,271.77 788.44,286.25 790.40,323.23 792.35,320.86 794.30,319.22 796.25,279.97 798.20,127.56 800.16,336.76 802.11,271.13 804.06,123.13 806.01,221.10 807.96,340.65 809.92,284.26 811.87,208.59 813.82,94.96 815.77,255.82 817.72,82.34 819.68,153.71 821.63,356.21 823.58,307.77 825.53,89.88 827.48,290.13 829.43,101.29 831.39,324.02 833.34,218.04 835.29,285.43 837.24,299.03 839.19,283.37 841.15,164.14 843.10,243.65 845.05,299.93 847.00,95.52 848.95,101.62 850.91,186.30 852.86,204.76 854.81,140.47 856.76,249.71 858.71,272.60 860.67,214.84 862.62,125.82 864.57,327.32 866.52,99.20 868.47,229.90 870.42,246.18 872.38,317.47 874.33,312.42 876.28,324.42 878.23,248.32 880.18,327.78 882.14,209.46 884.09,330.63 886.04,228.59 887.99,300.82 889.94,273.26 891.90,178.33 893.85,171.64 895.80,305.93 897.75,230.72 899.70,322.45 901.66,86.82 903.61,142.68 905.56,184.04 907.51,130.15 909.46,93.10 911.41,330.29 913.37,192.04 915.32,310.10 917.27,285.34 919.22,252.06 921.17,314.36 923.13,95.36 925.08,275.66 927.03,278.95 928.98,154.36 930.93,283.16 932.89,355.55 934.84,202.80 936.79,160.46 938.74,334.76 940.69,95.24 942.65,321.62 944.60,221.57 946.55,92.43 948.50,341.74 950.45,205.08 952.40,98.51 954.36,96.22 956.31,104.82 958.26,104.44 960.21,269.36 962.16,200.03 964.12,225.85 966.07,322.16 968.02,93.81 969.97,203.43 971.92,138.20 973.88,290.05 975.83,316.49 977.78,105.09 979.73,198.78 981.68,103.62 983.64,162.11 985.59,109.20 987.54,271.08 989.49,91.67 991.44,258.92 993.39,190.99 995.35,92.19 997.30,325.74 999.25,123.01 1001.20,186.00 1003.15,158.81 1005.11,158.75 1007.06,340.55 1009.01,98.96 1010.96,313.21 1012.91,206.86 1014.87,329.71 1016.82,89.37 1018.77,271.26 1020.72,178.83 1022.67,317.30 1024.63,154.75 1026.58,117.93 1028.53,309.78 1030.48,236.82 1032.43,283.56 1034.38,253.35 1036.34,285.01 1038.29,95.35 1040.24,104.11 1042.19,266.65 1044.14,214.81 1046.10,289.60 1048.05,342.94 1050.00,101.48" fill="none" stroke="#b45f06" stroke-width="1.6"/>
<g><line x1="870.00" y1="28.00" x2="898.00" y2="28.00" stroke="#222222" stroke-width="2"/><text x="906.00" y="32.00" font-family="Arial, sans-serif" font-size="12">real</text></g>
<g><line x1="870.00" y1="46.00" x2="898.00" y2="46.00" stroke="#6f7f8f" stroke-width="2"/><text x="906.00" y="50.00" font-family="Arial, sans-serif" font-size="12">persistencia</text></g>
<g><line x1="870.00" y1="64.00" x2="898.00" y2="64.00" stroke="#2a6fbb" stroke-width="2"/><text x="906.00" y="68.00" font-family="Arial, sans-serif" font-size="12">AR(0) / media</text></g>
<g><line x1="870.00" y1="82.00" x2="898.00" y2="82.00" stroke="#b45f06" stroke-width="2"/><text x="906.00" y="86.00" font-family="Arial, sans-serif" font-size="12">kNN k=5</text></g>
<line x1="76.00" y1="398.00" x2="76.00" y2="403.00" stroke="#222222"/>
<text x="76.00" y="422" text-anchor="middle" font-family="Arial, sans-serif" font-size="10">8800</text>
<line x1="319.99" y1="398.00" x2="319.99" y2="403.00" stroke="#222222"/>
<text x="319.99" y="422" text-anchor="middle" font-family="Arial, sans-serif" font-size="10">9351</text>
<line x1="563.98" y1="398.00" x2="563.98" y2="403.00" stroke="#222222"/>
<text x="563.98" y="422" text-anchor="middle" font-family="Arial, sans-serif" font-size="10">9901</text>
<line x1="807.96" y1="398.00" x2="807.96" y2="403.00" stroke="#222222"/>
<text x="807.96" y="422" text-anchor="middle" font-family="Arial, sans-serif" font-size="10">10452</text>
<line x1="1050.00" y1="398.00" x2="1050.00" y2="403.00" stroke="#222222"/>
<text x="1050.00" y="422" text-anchor="middle" font-family="Arial, sans-serif" font-size="10">10998</text>
<text x="563.00" y="450" text-anchor="middle" font-family="Arial, sans-serif" font-size="13">t</text>
<text transform="translate(18,228.0) rotate(-90)" text-anchor="middle" font-family="Arial, sans-serif" font-size="13">x[t+1]</text>
</svg>