<svg xmlns="http://www.w3.org/2000/svg" width="1120" height="430" viewBox="0 0 1120 430">
<rect x="0" y="0" width="1120" height="430" fill="#ffffff"/>
<text x="560.0" y="26" text-anchor="middle" font-family="Arial, sans-serif" font-size="18" font-weight="700">PACF hasta 288 retardos - Retornos absolutos |r|</text>
<line x1="82" y1="372.00" x2="1090.00" y2="372.00" stroke="#e8e8e8" stroke-width="1"/>
<text x="74" y="376.00" text-anchor="end" font-family="Arial, sans-serif" font-size="11">-0.02</text>
<line x1="82" y1="293.50" x2="1090.00" y2="293.50" stroke="#e8e8e8" stroke-width="1"/>
<text x="74" y="297.50" text-anchor="end" font-family="Arial, sans-serif" font-size="11">0.255</text>
<line x1="82" y1="215.00" x2="1090.00" y2="215.00" stroke="#e8e8e8" stroke-width="1"/>
<text x="74" y="219.00" text-anchor="end" font-family="Arial, sans-serif" font-size="11">0.53</text>
<line x1="82" y1="136.50" x2="1090.00" y2="136.50" stroke="#e8e8e8" stroke-width="1"/>
<text x="74" y="140.50" text-anchor="end" font-family="Arial, sans-serif" font-size="11">0.805</text>
<line x1="82" y1="58.00" x2="1090.00" y2="58.00" stroke="#e8e8e8" stroke-width="1"/>
<text x="74" y="62.00" text-anchor="end" font-family="Arial, sans-serif" font-size="11">1.08</text>
<rect x="82" y="58" width="1008.00" height="314.00" fill="none" stroke="#222222" stroke-width="1"/>
<line x1="82" y1="366.29" x2="1090.00" y2="366.29" stroke="#222222" stroke-width="1"/>
<line x1="82" y1="365.16" x2="1090.00" y2="365.16" stroke="#a33" stroke-width="1" stroke-dasharray="5,4"/>
<line x1="82" y1="367.42" x2="1090.00" y2="367.42" stroke="#a33" stroke-width="1" stroke-dasharray="5,4"/>
<line x1="124.00" y1="58" x2="124.00" y2="372.00" stroke="#777777" stroke-width="1" stroke-dasharray="3,4"/>
<text x="124.00" y="50" text-anchor="middle" font-family="Arial, sans-serif" font-size="10" fill="#555555">12</text>
<line x1="1090.00" y1="58" x2="1090.00" y2="372.00" stroke="#777777" stroke-width="1" stroke-dasharray="3,4"/>
<text x="1090.00" y="50" text-anchor="middle" font-family="Arial, sans-serif" font-size="10" fill="#555555">288</text>
<rect x="80.50" y="80.84" width="3.00" height="285.45" fill="#b45f06" opacity="0.82"/>
<rect x="84.00" y="268.40" width="3.00" height="97.89" fill="#b45f06" opacity="0.82"/>
<rect x="87.50" y="304.81" width="3.00" height="61.48" fill="#b45f06" opacity="0.82"/>
<rect x="91.00" y="320.20" width="3.00" height="46.09" fill="#b45f06" opacity="0.82"/>
<rect x="94.50" y="334.70" width="3.00" height="31.59" fill="#b45f06" opacity="0.82"/>
<rect x="98.00" y="338.13" width="3.00" height="28.16" fill="#b45f06" opacity="0.82"/>
<rect x="101.50" y="338.32" width="3.00" height="27.98" fill="#b45f06" opacity="0.82"/>
<rect x="105.00" y="348.17" width="3.00" height="18.12" fill="#b45f06" opacity="0.82"/>
<rect x="108.50" y="350.64" width="3.00" height="15.65" fill="#b45f06" opacity="0.82"/>
<rect x="112.00" y="350.75" width="3.00" height="15.54" fill="#b45f06" opacity="0.82"/>
<rect x="115.50" y="353.37" width="3.00" height="12.92" fill="#b45f06" opacity="0.82"/>
<rect x="119.00" y="353.61" width="3.00" height="12.68" fill="#b45f06" opacity="0.82"/>
<rect x="122.50" y="352.61" width="3.00" height="13.68" fill="#b45f06" opacity="0.82"/>
<rect x="126.00" y="357.34" width="3.00" height="8.95" fill="#b45f06" opacity="0.82"/>
<rect x="129.50" y="357.83" width="3.00" height="8.46" fill="#b45f06" opacity="0.82"/>
<rect x="133.00" y="358.04" width="3.00" height="8.25" fill="#b45f06" opacity="0.82"/>
<rect x="136.50" y="359.78" width="3.00" height="6.51" fill="#b45f06" opacity="0.82"/>
<rect x="140.00" y="360.84" width="3.00" height="5.45" fill="#b45f06" opacity="0.82"/>
<rect x="143.50" y="358.56" width="3.00" height="7.73" fill="#b45f06" opacity="0.82"/>
<rect x="147.00" y="362.04" width="3.00" height="4.25" fill="#b45f06" opacity="0.82"/>
<rect x="150.50" y="362.64" width="3.00" height="3.65" fill="#b45f06" opacity="0.82"/>
<rect x="154.00" y="362.48" width="3.00" height="3.81" fill="#b45f06" opacity="0.82"/>
<rect x="157.50" y="362.12" width="3.00" height="4.17" fill="#b45f06" opacity="0.82"/>
<rect x="161.00" y="360.78" width="3.00" height="5.51" fill="#b45f06" opacity="0.82"/>
<rect x="164.50" y="361.25" width="3.00" height="5.04" fill="#b45f06" opacity="0.82"/>
<rect x="168.00" y="361.60" width="3.00" height="4.69" fill="#b45f06" opacity="0.82"/>
<rect x="171.50" y="362.41" width="3.00" height="3.88" fill="#b45f06" opacity="0.82"/>
<rect x="175.00" y="361.27" width="3.00" height="5.02" fill="#b45f06" opacity="0.82"/>
<rect x="178.50" y="364.21" width="3.00" height="2.08" fill="#b45f06" opacity="0.82"/>
<rect x="182.00" y="363.46" width="3.00" height="2.83" fill="#b45f06" opacity="0.82"/>
<rect x="185.50" y="360.83" width="3.00" height="5.47" fill="#b45f06" opacity="0.82"/>
<rect x="189.00" y="362.99" width="3.00" height="3.31" fill="#b45f06" opacity="0.82"/>
<rect x="192.50" y="363.90" width="3.00" height="2.40" fill="#b45f06" opacity="0.82"/>
<rect x="196.00" y="363.75" width="3.00" height="2.54" fill="#b45f06" opacity="0.82"/>
<rect x="199.50" y="363.98" width="3.00" height="2.31" fill="#b45f06" opacity="0.82"/>
<rect x="203.00" y="361.69" width="3.00" height="4.60" fill="#b45f06" opacity="0.82"/>
<rect x="206.50" y="362.86" width="3.00" height="3.43" fill="#b45f06" opacity="0.82"/>
<rect x="210.00" y="364.51" width="3.00" height="1.78" fill="#b45f06" opacity="0.82"/>
<rect x="213.50" y="364.68" width="3.00" height="1.61" fill="#b45f06" opacity="0.82"/>
<rect x="217.00" y="365.46" width="3.00" height="0.83" fill="#b45f06" opacity="0.82"/>
<rect x="220.50" y="363.83" width="3.00" height="2.46" fill="#b45f06" opacity="0.82"/>
<rect x="224.00" y="365.47" width="3.00" height="0.83" fill="#b45f06" opacity="0.82"/>
<rect x="227.50" y="362.35" width="3.00" height="3.95" fill="#b45f06" opacity="0.82"/>
<rect x="231.00" y="364.58" width="3.00" height="1.71" fill="#b45f06" opacity="0.82"/>
<rect x="234.50" y="363.95" width="3.00" height="2.34" fill="#b45f06" opacity="0.82"/>
<rect x="238.00" y="364.04" width="3.00" height="2.25" fill="#b45f06" opacity="0.82"/>
<rect x="241.50" y="365.51" width="3.00" height="0.80" fill="#b45f06" opacity="0.82"/>
<rect x="245.00" y="363.48" width="3.00" height="2.81" fill="#b45f06" opacity="0.82"/>
<rect x="248.50" y="362.14" width="3.00" height="4.15" fill="#b45f06" opacity="0.82"/>
<rect x="252.00" y="364.85" width="3.00" height="1.44" fill="#b45f06" opacity="0.82"/>
<rect x="255.50" y="363.78" width="3.00" height="2.51" fill="#b45f06" opacity="0.82"/>
<rect x="259.00" y="363.47" width="3.00" height="2.82" fill="#b45f06" opacity="0.82"/>
<rect x="262.50" y="364.23" width="3.00" height="2.06" fill="#b45f06" opacity="0.82"/>
<rect x="266.00" y="364.78" width="3.00" height="1.51" fill="#b45f06" opacity="0.82"/>
<rect x="269.50" y="363.27" width="3.00" height="3.02" fill="#b45f06" opacity="0.82"/>
<rect x="273.00" y="366.29" width="3.00" height="0.80" fill="#b45f06" opacity="0.82"/>
<rect x="276.50" y="365.13" width="3.00" height="1.16" fill="#b45f06" opacity="0.82"/>
<rect x="280.00" y="364.02" width="3.00" height="2.27" fill="#b45f06" opacity="0.82"/>
<rect x="283.50" y="365.22" width="3.00" height="1.07" fill="#b45f06" opacity="0.82"/>
<rect x="287.00" y="364.76" width="3.00" height="1.53" fill="#b45f06" opacity="0.82"/>
<rect x="290.50" y="363.95" width="3.00" height="2.34" fill="#b45f06" opacity="0.82"/>
<rect x="294.00" y="363.84" width="3.00" height="2.45" fill="#b45f06" opacity="0.82"/>
<rect x="297.50" y="365.16" width="3.00" height="1.13" fill="#b45f06" opacity="0.82"/>
<rect x="301.00" y="362.30" width="3.00" height="3.99" fill="#b45f06" opacity="0.82"/>
<rect x="304.50" y="365.69" width="3.00" height="0.80" fill="#b45f06" opacity="0.82"/>
<rect x="308.00" y="363.59" width="3.00" height="2.70" fill="#b45f06" opacity="0.82"/>
<rect x="311.50" y="363.62" width="3.00" height="2.67" fill="#b45f06" opacity="0.82"/>
<rect x="315.00" y="366.23" width="3.00" height="0.80" fill="#b45f06" opacity="0.82"/>
<rect x="318.50" y="364.72" width="3.00" height="1.57" fill="#b45f06" opacity="0.82"/>
<rect x="322.00" y="364.79" width="3.00" height="1.51" fill="#b45f06" opacity="0.82"/>
<rect x="325.50" y="364.67" width="3.00" height="1.62" fill="#b45f06" opacity="0.82"/>
<rect x="329.00" y="364.55" width="3.00" height="1.74" fill="#b45f06" opacity="0.82"/>
<rect x="332.50" y="364.63" width="3.00" height="1.66" fill="#b45f06" opacity="0.82"/>
<rect x="336.00" y="366.29" width="3.00" height="1.34" fill="#b45f06" opacity="0.82"/>
<rect x="339.50" y="364.67" width="3.00" height="1.62" fill="#b45f06" opacity="0.82"/>
<rect x="343.00" y="365.82" width="3.00" height="0.80" fill="#b45f06" opacity="0.82"/>
<rect x="346.50" y="365.77" width="3.00" height="0.80" fill="#b45f06" opacity="0.82"/>
<rect x="350.00" y="364.90" width="3.00" height="1.39" fill="#b45f06" opacity="0.82"/>
<rect x="353.50" y="365.30" width="3.00" height="1.00" fill="#b45f06" opacity="0.82"/>
<rect x="357.00" y="366.29" width="3.00" height="1.06" fill="#b45f06" opacity="0.82"/>
<rect x="360.50" y="366.03" width="3.00" height="0.80" fill="#b45f06" opacity="0.82"/>
<rect x="364.00" y="366.29" width="3.00" height="0.80" fill="#b45f06" opacity="0.82"/>
<rect x="367.50" y="366.29" width="3.00" height="0.80" fill="#b45f06" opacity="0.82"/>
<rect x="371.00" y="365.20" width="3.00" height="1.09" fill="#b45f06" opacity="0.82"/>
<rect x="374.50" y="362.96" width="3.00" height="3.33" fill="#b45f06" opacity="0.82"/>
<rect x="378.00" y="366.29" width="3.00" height="0.80" fill="#b45f06" opacity="0.82"/>
<rect x="381.50" y="364.30" width="3.00" height="1.99" fill="#b45f06" opacity="0.82"/>
<rect x="385.00" y="364.15" width="3.00" height="2.14" fill="#b45f06" opacity="0.82"/>
<rect x="388.50" y="364.84" width="3.00" height="1.45" fill="#b45f06" opacity="0.82"/>
<rect x="392.00" y="366.29" width="3.00" height="0.80" fill="#b45f06" opacity="0.82"/>
<rect x="395.50" y="365.28" width="3.00" height="1.01" fill="#b45f06" opacity="0.82"/>
<rect x="399.00" y="365.21" width="3.00" height="1.08" fill="#b45f06" opacity="0.82"/>
<rect x="402.50" y="366.29" width="3.00" height="0.80" fill="#b45f06" opacity="0.82"/>
<rect x="406.00" y="366.25" width="3.00" height="0.80" fill="#b45f06" opacity="0.82"/>
<rect x="409.50" y="366.29" width="3.00" height="0.80" fill="#b45f06" opacity="0.82"/>
<rect x="413.00" y="366.29" width="3.00" height="0.80" fill="#b45f06" opacity="0.82"/>
<rect x="416.50" y="365.81" width="3.00" height="0.80" fill="#b45f06" opacity="0.82"/>
<rect x="420.00" y="366.29" width="3.00" height="1.05" fill="#b45f06" opacity="0.82"/>
<rect x="423.50" y="366.29" width="3.00" height="1.05" fill="#b45f06" opacity="0.82"/>
<rect x="427.00" y="364.76" width="3.00" height="1.53" fill="#b45f06" opacity="0.82"/>
<rect x="430.50" y="366.29" width="3.00" height="2.30" fill="#b45f06" opacity="0.82"/>
<rect x="434.00" y="366.29" width="3.00" height="0.80" fill="#b45f06" opacity="0.82"/>
<rect x="437.50" y="365.87" width="3.00" height="0.80" fill="#b45f06" opacity="0.82"/>
<rect x="441.00" y="366.29" width="3.00" height="0.91" fill="#b45f06" opacity="0.82"/>
<rect x="444.50" y="365.53" width="3.00" height="0.80" fill="#b45f06" opacity="0.82"/>
<rect x="448.00" y="366.29" width="3.00" height="0.80" fill="#b45f06" opacity="0.82"/>
<rect x="451.50" y="366.29" width="3.00" height="0.96" fill="#b45f06" opacity="0.82"/>
<rect x="455.00" y="365.98" width="3.00" height="0.80" fill="#b45f06" opacity="0.82"/>
<rect x="458.50" y="364.97" width="3.00" height="1.32" fill="#b45f06" opacity="0.82"/>
<rect x="462.00" y="366.29" width="3.00" height="0.80" fill="#b45f06" opacity="0.82"/>
<rect x="465.50" y="365.52" width="3.00" height="0.80" fill="#b45f06" opacity="0.82"/>
<rect x="469.00" y="364.95" width="3.00" height="1.34" fill="#b45f06" opacity="0.82"/>
<rect x="472.50" y="366.00" width="3.00" height="0.80" fill="#b45f06" opacity="0.82"/>
<rect x="476.00" y="366.29" width="3.00" height="0.80" fill="#b45f06" opacity="0.82"/>
<rect x="479.50" y="365.41" width="3.00" height="0.88" fill="#b45f06" opacity="0.82"/>
<rect x="483.00" y="366.16" width="3.00" height="0.80" fill="#b45f06" opacity="0.82"/>
<rect x="486.50" y="366.06" width="3.00" height="0.80" fill="#b45f06" opacity="0.82"/>
<rect x="490.00" y="365.31" width="3.00" height="0.98" fill="#b45f06" opacity="0.82"/>
<rect x="493.50" y="366.29" width="3.00" height="0.80" fill="#b45f06" opacity="0.82"/>
<rect x="497.00" y="366.29" width="3.00" height="0.80" fill="#b45f06" opacity="0.82"/>
<rect x="500.50" y="364.13" width="3.00" height="2.17" fill="#b45f06" opacity="0.82"/>
<rect x="504.00" y="366.06" width="3.00" height="0.80" fill="#b45f06" opacity="0.82"/>
<rect x="507.50" y="365.76" width="3.00" height="0.80" fill="#b45f06" opacity="0.82"/>
<rect x="511.00" y="365.11" width="3.00" height="1.18" fill="#b45f06" opacity="0.82"/>
<rect x="514.50" y="365.89" width="3.00" height="0.80" fill="#b45f06" opacity="0.82"/>
<rect x="518.00" y="366.29" width="3.00" height="0.80" fill="#b45f06" opacity="0.82"/>
<rect x="521.50" y="364.44" width="3.00" height="1.85" fill="#b45f06" opacity="0.82"/>
<rect x="525.00" y="364.98" width="3.00" height="1.31" fill="#b45f06" opacity="0.82"/>
<rect x="528.50" y="366.29" width="3.00" height="0.80" fill="#b45f06" opacity="0.82"/>
<rect x="532.00" y="364.12" width="3.00" height="2.17" fill="#b45f06" opacity="0.82"/>
<rect x="535.50" y="365.03" width="3.00" height="1.26" fill="#b45f06" opacity="0.82"/>
<rect x="539.00" y="365.01" width="3.00" height="1.28" fill="#b45f06" opacity="0.82"/>
<rect x="542.50" y="365.12" width="3.00" height="1.17" fill="#b45f06" opacity="0.82"/>
<rect x="546.00" y="365.51" width="3.00" height="0.80" fill="#b45f06" opacity="0.82"/>
<rect x="549.50" y="365.77" width="3.00" height="0.80" fill="#b45f06" opacity="0.82"/>
<rect x="553.00" y="365.06" width="3.00" height="1.23" fill="#b45f06" opacity="0.82"/>
<rect x="556.50" y="366.29" width="3.00" height="1.16" fill="#b45f06" opacity="0.82"/>
<rect x="560.00" y="366.16" width="3.00" height="0.80" fill="#b45f06" opacity="0.82"/>
<rect x="563.50" y="363.52" width="3.00" height="2.77" fill="#b45f06" opacity="0.82"/>
<rect x="567.00" y="365.85" width="3.00" height="0.80" fill="#b45f06" opacity="0.82"/>
<rect x="570.50" y="366.11" width="3.00" height="0.80" fill="#b45f06" opacity="0.82"/>
<rect x="574.00" y="365.89" width="3.00" height="0.80" fill="#b45f06" opacity="0.82"/>
<rect x="577.50" y="365.85" width="3.00" height="0.80" fill="#b45f06" opacity="0.82"/>
<rect x="581.00" y="365.10" width="3.00" height="1.19" fill="#b45f06" opacity="0.82"/>
<rect x="584.50" y="364.40" width="3.00" height="1.89" fill="#b45f06" opacity="0.82"/>
<rect x="588.00" y="365.75" width="3.00" height="0.80" fill="#b45f06" opacity="0.82"/>
<rect x="591.50" y="365.78" width="3.00" height="0.80" fill="#b45f06" opacity="0.82"/>
<rect x="595.00" y="364.51" width="3.00" height="1.78" fill="#b45f06" opacity="0.82"/>
<rect x="598.50" y="365.17" width="3.00" height="1.12" fill="#b45f06" opacity="0.82"/>
<rect x="602.00" y="365.60" width="3.00" height="0.80" fill="#b45f06" opacity="0.82"/>
<rect x="605.50" y="364.44" width="3.00" height="1.85" fill="#b45f06" opacity="0.82"/>
<rect x="609.00" y="365.74" width="3.00" height="0.80" fill="#b45f06" opacity="0.82"/>
<rect x="612.50" y="366.29" width="3.00" height="0.80" fill="#b45f06" opacity="0.82"/>
<rect x="616.00" y="366.24" width="3.00" height="0.80" fill="#b45f06" opacity="0.82"/>
<rect x="619.50" y="365.64" width="3.00" height="0.80" fill="#b45f06" opacity="0.82"/>
<rect x="623.00" y="365.20" width="3.00" height="1.09" fill="#b45f06" opacity="0.82"/>
<rect x="626.50" y="363.16" width="3.00" height="3.13" fill="#b45f06" opacity="0.82"/>
<rect x="630.00" y="365.15" width="3.00" height="1.14" fill="#b45f06" opacity="0.82"/>
<rect x="633.50" y="366.29" width="3.00" height="0.80" fill="#b45f06" opacity="0.82"/>
<rect x="637.00" y="366.09" width="3.00" height="0.80" fill="#b45f06" opacity="0.82"/>
<rect x="640.50" y="366.29" width="3.00" height="1.08" fill="#b45f06" opacity="0.82"/>
<rect x="644.00" y="366.10" width="3.00" height="0.80" fill="#b45f06" opacity="0.82"/>
<rect x="647.50" y="365.04" width="3.00" height="1.25" fill="#b45f06" opacity="0.82"/>
<rect x="651.00" y="366.29" width="3.00" height="0.80" fill="#b45f06" opacity="0.82"/>
<rect x="654.50" y="366.29" width="3.00" height="0.80" fill="#b45f06" opacity="0.82"/>
<rect x="658.00" y="365.21" width="3.00" height="1.08" fill="#b45f06" opacity="0.82"/>
<rect x="661.50" y="365.24" width="3.00" height="1.05" fill="#b45f06" opacity="0.82"/>
<rect x="665.00" y="365.62" width="3.00" height="0.80" fill="#b45f06" opacity="0.82"/>
<rect x="668.50" y="365.69" width="3.00" height="0.80" fill="#b45f06" opacity="0.82"/>
<rect x="672.00" y="366.29" width="3.00" height="0.80" fill="#b45f06" opacity="0.82"/>
<rect x="675.50" y="366.29" width="3.00" height="0.80" fill="#b45f06" opacity="0.82"/>
<rect x="679.00" y="366.29" width="3.00" height="0.80" fill="#b45f06" opacity="0.82"/>
<rect x="682.50" y="366.29" width="3.00" height="0.80" fill="#b45f06" opacity="0.82"/>
<rect x="686.00" y="365.62" width="3.00" height="0.80" fill="#b45f06" opacity="0.82"/>
<rect x="689.50" y="364.78" width="3.00" height="1.51" fill="#b45f06" opacity="0.82"/>
<rect x="693.00" y="366.29" width="3.00" height="0.80" fill="#b45f06" opacity="0.82"/>
<rect x="696.50" y="366.29" width="3.00" height="0.80" fill="#b45f06" opacity="0.82"/>
<rect x="700.00" y="366.08" width="3.00" height="0.80" fill="#b45f06" opacity="0.82"/>
<rect x="703.50" y="366.29" width="3.00" height="0.80" fill="#b45f06" opacity="0.82"/>
<rect x="707.00" y="365.72" width="3.00" height="0.80" fill="#b45f06" opacity="0.82"/>
<rect x="710.50" y="364.16" width="3.00" height="2.13" fill="#b45f06" opacity="0.82"/>
<rect x="714.00" y="365.50" width="3.00" height="0.80" fill="#b45f06" opacity="0.82"/>
<rect x="717.50" y="366.19" width="3.00" height="0.80" fill="#b45f06" opacity="0.82"/>
<rect x="721.00" y="363.66" width="3.00" height="2.63" fill="#b45f06" opacity="0.82"/>
<rect x="724.50" y="366.29" width="3.00" height="0.80" fill="#b45f06" opacity="0.82"/>
<rect x="728.00" y="366.12" width="3.00" height="0.80" fill="#b45f06" opacity="0.82"/>
<rect x="731.50" y="363.41" width="3.00" height="2.88" fill="#b45f06" opacity="0.82"/>
<rect x="735.00" y="366.00" width="3.00" height="0.80" fill="#b45f06" opacity="0.82"/>
<rect x="738.50" y="364.87" width="3.00" height="1.42" fill="#b45f06" opacity="0.82"/>
<rect x="742.00" y="364.91" width="3.00" height="1.38" fill="#b45f06" opacity="0.82"/>
<rect x="745.50" y="365.21" width="3.00" height="1.08" fill="#b45f06" opacity="0.82"/>
<rect x="749.00" y="364.55" width="3.00" height="1.74" fill="#b45f06" opacity="0.82"/>
<rect x="752.50" y="364.46" width="3.00" height="1.83" fill="#b45f06" opacity="0.82"/>
<rect x="756.00" y="365.40" width="3.00" height="0.90" fill="#b45f06" opacity="0.82"/>
<rect x="759.50" y="365.50" width="3.00" height="0.80" fill="#b45f06" opacity="0.82"/>
<rect x="763.00" y="363.72" width="3.00" height="2.58" fill="#b45f06" opacity="0.82"/>
<rect x="766.50" y="366.01" width="3.00" height="0.80" fill="#b45f06" opacity="0.82"/>
<rect x="770.00" y="365.09" width="3.00" height="1.20" fill="#b45f06" opacity="0.82"/>
<rect x="773.50" y="365.58" width="3.00" height="0.80" fill="#b45f06" opacity="0.82"/>
<rect x="777.00" y="366.28" width="3.00" height="0.80" fill="#b45f06" opacity="0.82"/>
<rect x="780.50" y="365.63" width="3.00" height="0.80" fill="#b45f06" opacity="0.82"/>
<rect x="784.00" y="364.36" width="3.00" height="1.93" fill="#b45f06" opacity="0.82"/>
<rect x="787.50" y="365.18" width="3.00" height="1.11" fill="#b45f06" opacity="0.82"/>
<rect x="791.00" y="364.80" width="3.00" height="1.49" fill="#b45f06" opacity="0.82"/>
<rect x="794.50" y="362.80" width="3.00" height="3.49" fill="#b45f06" opacity="0.82"/>
<rect x="798.00" y="365.14" width="3.00" height="1.15" fill="#b45f06" opacity="0.82"/>
<rect x="801.50" y="365.67" width="3.00" height="0.80" fill="#b45f06" opacity="0.82"/>
<rect x="805.00" y="364.87" width="3.00" height="1.42" fill="#b45f06" opacity="0.82"/>
<rect x="808.50" y="366.29" width="3.00" height="0.80" fill="#b45f06" opacity="0.82"/>
<rect x="812.00" y="366.29" width="3.00" height="0.80" fill="#b45f06" opacity="0.82"/>
<rect x="815.50" y="362.71" width="3.00" height="3.58" fill="#b45f06" opacity="0.82"/>
<rect x="819.00" y="366.29" width="3.00" height="0.80" fill="#b45f06" opacity="0.82"/>
<rect x="822.50" y="365.38" width="3.00" height="0.91" fill="#b45f06" opacity="0.82"/>
<rect x="826.00" y="364.83" width="3.00" height="1.46" fill="#b45f06" opacity="0.82"/>
<rect x="829.50" y="366.22" width="3.00" height="0.80" fill="#b45f06" opacity="0.82"/>
<rect x="833.00" y="365.47" width="3.00" height="0.82" fill="#b45f06" opacity="0.82"/>
<rect x="836.50" y="362.90" width="3.00" height="3.39" fill="#b45f06" opacity="0.82"/>
<rect x="840.00" y="365.10" width="3.00" height="1.19" fill="#b45f06" opacity="0.82"/>
<rect x="843.50" y="364.98" width="3.00" height="1.31" fill="#b45f06" opacity="0.82"/>
<rect x="847.00" y="364.66" width="3.00" height="1.63" fill="#b45f06" opacity="0.82"/>
<rect x="850.50" y="365.20" width="3.00" height="1.09" fill="#b45f06" opacity="0.82"/>
<rect x="854.00" y="364.97" width="3.00" height="1.32" fill="#b45f06" opacity="0.82"/>
<rect x="857.50" y="363.68" width="3.00" height="2.61" fill="#b45f06" opacity="0.82"/>
<rect x="861.00" y="365.89" width="3.00" height="0.80" fill="#b45f06" opacity="0.82"/>
<rect x="864.50" y="365.61" width="3.00" height="0.80" fill="#b45f06" opacity="0.82"/>
<rect x="868.00" y="364.90" width="3.00" height="1.39" fill="#b45f06" opacity="0.82"/>
<rect x="871.50" y="365.21" width="3.00" height="1.08" fill="#b45f06" opacity="0.82"/>
<rect x="875.00" y="366.04" width="3.00" height="0.80" fill="#b45f06" opacity="0.82"/>
<rect x="878.50" y="364.63" width="3.00" height="1.66" fill="#b45f06" opacity="0.82"/>
<rect x="882.00" y="365.97" width="3.00" height="0.80" fill="#b45f06" opacity="0.82"/>
<rect x="885.50" y="366.14" width="3.00" height="0.80" fill="#b45f06" opacity="0.82"/>
<rect x="889.00" y="364.80" width="3.00" height="1.49" fill="#b45f06" opacity="0.82"/>
<rect x="892.50" y="365.71" width="3.00" height="0.80" fill="#b45f06" opacity="0.82"/>
<rect x="896.00" y="366.29" width="3.00" height="0.80" fill="#b45f06" opacity="0.82"/>
<rect x="899.50" y="365.49" width="3.00" height="0.80" fill="#b45f06" opacity="0.82"/>
<rect x="903.00" y="366.06" width="3.00" height="0.80" fill="#b45f06" opacity="0.82"/>
<rect x="906.50" y="364.49" width="3.00" height="1.80" fill="#b45f06" opacity="0.82"/>
<rect x="910.00" y="365.74" width="3.00" height="0.80" fill="#b45f06" opacity="0.82"/>
<rect x="913.50" y="366.26" width="3.00" height="0.80" fill="#b45f06" opacity="0.82"/>
<rect x="917.00" y="365.03" width="3.00" height="1.26" fill="#b45f06" opacity="0.82"/>
<rect x="920.50" y="364.32" width="3.00" height="1.97" fill="#b45f06" opacity="0.82"/>
<rect x="924.00" y="364.60" width="3.00" height="1.69" fill="#b45f06" opacity="0.82"/>
<rect x="927.50" y="365.85" width="3.00" height="0.80" fill="#b45f06" opacity="0.82"/>
<rect x="931.00" y="365.82" width="3.00" height="0.80" fill="#b45f06" opacity="0.82"/>
<rect x="934.50" y="365.25" width="3.00" height="1.04" fill="#b45f06" opacity="0.82"/>
<rect x="938.00" y="366.01" width="3.00" height="0.80" fill="#b45f06" opacity="0.82"/>
<rect x="941.50" y="363.36" width="3.00" height="2.93" fill="#b45f06" opacity="0.82"/>
<rect x="945.00" y="365.35" width="3.00" height="0.94" fill="#b45f06" opacity="0.82"/>
<rect x="948.50" y="365.16" width="3.00" height="1.14" fill="#b45f06" opacity="0.82"/>
<rect x="952.00" y="366.06" width="3.00" height="0.80" fill="#b45f06" opacity="0.82"/>
<rect x="955.50" y="365.22" width="3.00" height="1.07" fill="#b45f06" opacity="0.82"/>
<rect x="959.00" y="364.64" width="3.00" height="1.65" fill="#b45f06" opacity="0.82"/>
<rect x="962.50" y="364.89" width="3.00" height="1.40" fill="#b45f06" opacity="0.82"/>
<rect x="966.00" y="366.29" width="3.00" height="0.80" fill="#b45f06" opacity="0.82"/>
<rect x="969.50" y="365.25" width="3.00" height="1.04" fill="#b45f06" opacity="0.82"/>
<rect x="973.00" y="364.40" width="3.00" height="1.89" fill="#b45f06" opacity="0.82"/>
<rect x="976.50" y="364.98" width="3.00" height="1.31" fill="#b45f06" opacity="0.82"/>
<rect x="980.00" y="365.14" width="3.00" height="1.15" fill="#b45f06" opacity="0.82"/>
<rect x="983.50" y="364.10" width="3.00" height="2.19" fill="#b45f06" opacity="0.82"/>
<rect x="987.00" y="366.29" width="3.00" height="0.80" fill="#b45f06" opacity="0.82"/>
<rect x="990.50" y="364.09" width="3.00" height="2.20" fill="#b45f06" opacity="0.82"/>
<rect x="994.00" y="363.91" width="3.00" height="2.38" fill="#b45f06" opacity="0.82"/>
<rect x="997.50" y="364.20" width="3.00" height="2.09" fill="#b45f06" opacity="0.82"/>
<rect x="1001.00" y="364.94" width="3.00" height="1.35" fill="#b45f06" opacity="0.82"/>
<rect x="1004.50" y="364.23" width="3.00" height="2.06" fill="#b45f06" opacity="0.82"/>
<rect x="1008.00" y="364.56" width="3.00" height="1.73" fill="#b45f06" opacity="0.82"/>
<rect x="1011.50" y="365.35" width="3.00" height="0.94" fill="#b45f06" opacity="0.82"/>
<rect x="1015.00" y="364.67" width="3.00" height="1.62" fill="#b45f06" opacity="0.82"/>
<rect x="1018.50" y="364.64" width="3.00" height="1.65" fill="#b45f06" opacity="0.82"/>
<rect x="1022.00" y="364.78" width="3.00" height="1.51" fill="#b45f06" opacity="0.82"/>
<rect x="1025.50" y="362.16" width="3.00" height="4.13" fill="#b45f06" opacity="0.82"/>
<rect x="1029.00" y="365.66" width="3.00" height="0.80" fill="#b45f06" opacity="0.82"/>
<rect x="1032.50" y="365.01" width="3.00" height="1.28" fill="#b45f06" opacity="0.82"/>
<rect x="1036.00" y="364.08" width="3.00" height="2.21" fill="#b45f06" opacity="0.82"/>
<rect x="1039.50" y="362.36" width="3.00" height="3.93" fill="#b45f06" opacity="0.82"/>
<rect x="1043.00" y="363.56" width="3.00" height="2.73" fill="#b45f06" opacity="0.82"/>
<rect x="1046.50" y="363.17" width="3.00" height="3.12" fill="#b45f06" opacity="0.82"/>
<rect x="1050.00" y="365.02" width="3.00" height="1.27" fill="#b45f06" opacity="0.82"/>
<rect x="1053.50" y="364.40" width="3.00" height="1.89" fill="#b45f06" opacity="0.82"/>
<rect x="1057.00" y="365.54" width="3.00" height="0.80" fill="#b45f06" opacity="0.82"/>
<rect x="1060.50" y="365.51" width="3.00" height="0.80" fill="#b45f06" opacity="0.82"/>
<rect x="1064.00" y="364.91" width="3.00" height="1.38" fill="#b45f06" opacity="0.82"/>
<rect x="1067.50" y="364.69" width="3.00" height="1.60" fill="#b45f06" opacity="0.82"/>
<rect x="1071.00" y="364.73" width="3.00" height="1.56" fill="#b45f06" opacity="0.82"/>
<rect x="1074.50" y="365.04" width="3.00" height="1.25" fill="#b45f06" opacity="0.82"/>
<rect x="1078.00" y="362.85" width="3.00" height="3.44" fill="#b45f06" opacity="0.82"/>
<rect x="1081.50" y="364.42" width="3.00" height="1.87" fill="#b45f06" opacity="0.82"/>
<rect x="1085.00" y="362.62" width="3.00" height="3.67" fill="#b45f06" opacity="0.82"/>
<rect x="1088.50" y="361.64" width="3.00" height="4.65" fill="#b45f06" opacity="0.82"/>
<text x="82.00" y="402" text-anchor="middle" font-family="Arial, sans-serif" font-size="11">0</text>
<text x="124.00" y="402" text-anchor="middle" font-family="Arial, sans-serif" font-size="11">12</text>
<text x="250.00" y="402" text-anchor="middle" font-family="Arial, sans-serif" font-size="11">48</text>
<text x="418.00" y="402" text-anchor="middle" font-family="Arial, sans-serif" font-size="11">96</text>
<text x="586.00" y="402" text-anchor="middle" font-family="Arial, sans-serif" font-size="11">144</text>
<text x="838.00" y="402" text-anchor="middle" font-family="Arial, sans-serif" font-size="11">216</text>
<text x="1090.00" y="402" text-anchor="middle" font-family="Arial, sans-serif" font-size="11">288</text>
<text x="586.00" y="422" text-anchor="middle" font-family="Arial, sans-serif" font-size="13">Retardo</text>
<text transform="translate(18,215.0) rotate(-90)" text-anchor="middle" font-family="Arial, sans-serif" font-size="13">PACF</text>
<text x="90" y="418" font-family="Arial, sans-serif" font-size="11" fill="#8a2222">Bandas orientativas ±0.003962</text>
</svg>