<svg xmlns="http://www.w3.org/2000/svg" width="1180" height="520" viewBox="0 0 1180 520">
<rect x="0" y="0" width="1180" height="520" fill="#ffffff"/>
<text x="590.0" y="28" text-anchor="middle" font-family="Arial, sans-serif" font-size="18" font-weight="700">Fase 14: errores HAR en test</text>
<rect x="82" y="58" width="1066.00" height="390.00" fill="none" stroke="#222222"/>
<line x1="82" y1="448.00" x2="1148.00" y2="448.00" stroke="#e8e8e8"/>
<text x="74" y="452.00" text-anchor="end" font-family="Arial, sans-serif" font-size="11">-4.67</text>
<line x1="82" y1="350.50" x2="1148.00" y2="350.50" stroke="#e8e8e8"/>
<text x="74" y="354.50" text-anchor="end" font-family="Arial, sans-serif" font-size="11">-2.79</text>
<line x1="82" y1="253.00" x2="1148.00" y2="253.00" stroke="#e8e8e8"/>
<text x="74" y="257.00" text-anchor="end" font-family="Arial, sans-serif" font-size="11">-0.916</text>
<line x1="82" y1="155.50" x2="1148.00" y2="155.50" stroke="#e8e8e8"/>
<text x="74" y="159.50" text-anchor="end" font-family="Arial, sans-serif" font-size="11">0.961</text>
<line x1="82" y1="58.00" x2="1148.00" y2="58.00" stroke="#e8e8e8"/>
<text x="74" y="62.00" text-anchor="end" font-family="Arial, sans-serif" font-size="11">2.84</text>
<polyline points="82.00,176.14 82.89,176.31 83.78,137.84 84.67,293.04 85.56,121.29 86.45,155.82 87.33,176.68 88.22,262.71 89.11,216.82 90.00,207.02 90.89,225.23 91.78,258.44 92.67,198.66 93.56,216.22 94.45,287.10 95.34,184.26 96.23,316.47 97.11,199.18 98.00,178.40 98.89,209.65 99.78,176.23 100.67,138.73 101.56,155.29 102.45,218.73 103.34,169.75 104.23,237.01 105.12,161.06 106.01,165.66 106.89,155.74 107.78,211.11 108.67,349.38 109.56,188.56 110.45,167.19 111.34,222.26 112.23,158.98 113.12,200.60 114.01,189.94 114.90,122.82 115.78,172.52 116.67,270.92 117.56,269.01 118.45,184.43 119.34,163.99 120.23,133.77 121.12,200.29 122.01,169.42 122.90,318.53 123.79,202.87 124.68,200.85 125.56,176.87 126.45,235.05 127.34,169.31 128.23,164.85 129.12,214.61 130.01,152.01 130.90,175.56 131.79,283.82 132.68,249.54 133.57,203.73 134.46,191.68 135.34,234.24 136.23,174.26 137.12,183.07 138.01,129.68 138.90,138.36 139.79,169.54 140.68,282.02 141.57,182.51 142.46,177.49 143.35,238.45 144.24,151.65 145.12,204.09 146.01,206.08 146.90,157.07 147.79,223.50 148.68,203.10 149.57,312.09 150.46,210.91 151.35,228.35 152.24,222.37 153.13,152.23 154.02,119.46 154.90,195.48 155.79,258.61 156.68,141.93 157.57,166.79 158.46,262.40 159.35,204.38 160.24,160.99 161.13,175.81 162.02,178.28 162.91,223.88 163.79,187.16 164.68,195.51 165.57,173.18 166.46,155.99 167.35,149.40 168.24,143.30 169.13,127.47 170.02,224.58 170.91,211.31 171.80,190.81 172.69,172.25 173.57,184.81 174.46,178.05 175.35,282.06 176.24,273.75 177.13,197.76 178.02,219.93 178.91,251.35 179.80,210.95 180.69,212.63 181.58,154.99 182.47,232.12 183.35,165.09 184.24,170.78 185.13,311.46 186.02,262.31 186.91,170.97 187.80,198.21 188.69,196.62 189.58,202.66 190.47,287.74 191.36,131.70 192.25,207.48 193.13,159.84 194.02,263.49 194.91,182.67 195.80,207.60 196.69,352.46 197.58,148.18 198.47,185.73 199.36,200.62 200.25,208.30 201.14,207.88 202.03,171.74 202.91,311.62 203.80,220.08 204.69,186.49 205.58,154.88 206.47,195.46 207.36,199.82 208.25,167.50 209.14,176.52 210.03,222.20 210.92,193.17 211.80,286.34 212.69,138.06 213.58,200.03 214.47,176.86 215.36,161.56 216.25,188.90 217.14,192.13 218.03,177.95 218.92,166.79 219.81,159.07 220.70,304.63 221.58,135.76 222.47,178.51 223.36,143.14 224.25,93.28 225.14,189.30 226.03,169.42 226.92,136.80 227.81,145.52 228.70,162.26 229.59,208.77 230.48,169.22 231.36,167.94 232.25,241.87 233.14,222.26 234.03,213.32 234.92,189.84 235.81,218.71 236.70,284.54 237.59,139.21 238.48,228.37 239.37,228.97 240.26,185.20 241.14,186.24 242.03,280.47 242.92,133.26 243.81,149.61 244.70,160.31 245.59,163.10 246.48,216.59 247.37,224.86 248.26,247.07 249.15,144.50 250.04,186.69 250.92,228.71 251.81,162.51 252.70,317.53 253.59,157.98 254.48,146.46 255.37,228.43 256.26,334.80 257.15,198.13 258.04,221.03 258.93,155.52 259.81,183.73 260.70,163.49 261.59,163.24 262.48,240.11 263.37,196.66 264.26,262.22 265.15,266.39 266.04,315.20 266.93,276.32 267.82,142.99 268.71,151.15 269.59,218.93 270.48,164.29 271.37,147.75 272.26,163.28 273.15,189.70 274.04,281.70 274.93,169.98 275.82,219.55 276.71,203.66 277.60,122.96 278.49,199.07 279.37,199.15 280.26,139.33 281.15,184.78 282.04,167.83 282.93,353.38 283.82,249.68 284.71,242.57 285.60,160.37 286.49,164.87 287.38,179.93 288.27,133.87 289.15,167.98 290.04,107.86 290.93,170.12 291.82,78.89 292.71,174.50 293.60,146.51 294.49,206.34 295.38,210.69 296.27,194.19 297.16,179.92 298.05,131.10 298.93,164.59 299.82,260.21 300.71,184.09 301.60,222.89 302.49,256.25 303.38,235.66 304.27,228.62 305.16,207.01 306.05,171.52 306.94,244.30 307.82,181.16 308.71,222.26 309.60,290.31 310.49,199.31 311.38,187.18 312.27,208.11 313.16,186.01 314.05,162.56 314.94,189.94 315.83,191.63 316.72,175.37 317.60,178.44 318.49,271.44 319.38,268.49 320.27,210.39 321.16,127.86 322.05,198.56 322.94,207.49 323.83,177.45 324.72,164.74 325.61,250.36 326.50,272.85 327.38,243.72 328.27,190.78 329.16,222.76 330.05,169.56 330.94,202.44 331.83,257.53 332.72,197.08 333.61,185.09 334.50,146.26 335.39,197.19 336.28,337.07 337.16,213.57 338.05,201.73 338.94,197.20 339.83,184.36 340.72,181.24 341.61,197.21 342.50,206.41 343.39,204.01 344.28,283.49 345.17,253.23 346.06,214.07 346.94,182.01 347.83,196.08 348.72,165.72 349.61,184.74 350.50,181.05 351.39,191.94 352.28,213.09 353.17,240.13 354.06,299.75 354.95,295.63 355.83,214.84 356.72,189.31 357.61,194.61 358.50,198.21 359.39,166.22 360.28,227.01 361.17,193.01 362.06,213.87 362.95,286.82 363.84,184.68 364.73,194.26 365.61,215.04 366.50,196.93 367.39,151.00 368.28,168.05 369.17,137.47 370.06,198.61 370.95,210.22 371.84,285.00 372.73,207.54 373.62,158.31 374.51,199.49 375.39,239.42 376.28,257.14 377.17,223.02 378.06,182.43 378.95,201.24 379.84,203.00 380.73,312.56 381.62,197.40 382.51,277.42 383.40,196.99 384.29,194.89 385.17,177.05 386.06,110.14 386.95,210.29 387.84,120.06 388.73,181.42 389.62,297.62 390.51,262.02 391.40,209.77 392.29,291.80 393.18,198.76 394.07,226.72 394.95,239.48 395.84,248.82 396.73,160.47 397.62,247.50 398.51,267.29 399.40,241.54 400.29,213.43 401.18,231.42 402.07,294.31 402.96,182.70 403.84,189.20 404.73,166.55 405.62,202.11 406.51,210.69 407.40,248.39 408.29,193.76 409.18,171.72 410.07,171.74 410.96,194.57 411.85,186.78 412.74,236.46 413.62,309.15 414.51,201.48 415.40,319.43 416.29,217.32 417.18,189.36 418.07,163.79 418.96,200.25 419.85,189.68 420.74,200.45 421.63,160.10 422.52,163.92 423.40,165.30 424.29,169.50 425.18,200.14 426.07,233.28 426.96,152.73 427.85,177.82 428.74,206.89 429.63,166.86 430.52,168.01 431.41,163.50 432.30,192.48 433.18,140.10 434.07,284.70 434.96,234.31 435.85,152.44 436.74,243.43 437.63,220.47 438.52,201.87 439.41,192.30 440.30,229.70 441.19,183.68 442.08,274.00 442.96,307.40 443.85,166.77 444.74,202.14 445.63,192.44 446.52,215.69 447.41,229.04 448.30,247.43 449.19,171.53 450.08,233.81 450.97,227.56 451.85,288.60 452.74,196.33 453.63,187.29 454.52,213.45 455.41,202.80 456.30,220.39 457.19,266.24 458.08,179.06 458.97,196.80 459.86,177.70 460.75,285.04 461.63,238.33 462.52,197.18 463.41,198.16 464.30,202.50 465.19,168.56 466.08,212.36 466.97,231.77 467.86,201.95 468.75,225.93 469.64,275.06 470.53,218.06 471.41,193.83 472.30,189.12 473.19,216.25 474.08,151.57 474.97,177.88 475.86,126.29 476.75,190.86 477.64,187.86 478.53,194.91 479.42,222.21 480.31,168.35 481.19,238.03 482.08,190.33 482.97,193.68 483.86,163.67 484.75,272.16 485.64,170.22 486.53,191.56 487.42,147.19 488.31,173.13 489.20,226.95 490.09,197.72 490.97,201.67 491.86,186.17 492.75,239.12 493.64,190.92 494.53,235.01 495.42,231.29 496.31,182.42 497.20,155.73 498.09,186.21 498.98,227.52 499.86,235.91 500.75,266.50 501.64,219.00 502.53,158.67 503.42,208.94 504.31,223.33 505.20,280.08 506.09,237.49 506.98,208.58 507.87,198.60 508.76,180.40 509.64,190.92 510.53,186.38 511.42,159.36 512.31,200.17 513.20,145.36 514.09,247.86 514.98,148.08 515.87,273.61 516.76,195.33 517.65,216.88 518.54,198.98 519.42,176.74 520.31,142.45 521.20,258.41 522.09,251.20 522.98,276.00 523.87,211.35 524.76,172.41 525.65,140.06 526.54,201.82 527.43,179.18 528.32,175.53 529.20,151.43 530.09,240.85 530.98,255.14 531.87,193.60 532.76,238.57 533.65,193.64 534.54,159.88 535.43,143.22 536.32,135.06 537.21,143.56 538.10,157.90 538.98,253.76 539.87,198.42 540.76,261.69 541.65,195.64 542.54,188.49 543.43,219.79 544.32,157.61 545.21,231.84 546.10,92.75 546.99,178.18 547.87,183.51 548.76,242.22 549.65,229.43 550.54,162.09 551.43,170.80 552.32,203.76 553.21,193.80 554.10,219.89 554.99,185.86 555.88,239.86 556.77,254.00 557.65,176.69 558.54,213.69 559.43,248.82 560.32,203.29 561.21,184.06 562.10,199.58 562.99,155.06 563.88,258.32 564.77,228.48 565.66,158.80 566.55,184.32 567.43,249.45 568.32,233.26 569.21,188.14 570.10,261.12 570.99,174.02 571.88,141.14 572.77,143.06 573.66,180.13 574.55,140.71 575.44,234.96 576.33,290.72 577.21,219.55 578.10,190.28 578.99,243.49 579.88,223.80 580.77,226.67 581.66,192.87 582.55,151.74 583.44,232.69 584.33,186.42 585.22,254.36 586.11,233.16 586.99,262.60 587.88,200.72 588.77,177.28 589.66,227.27 590.55,232.40 591.44,206.23 592.33,231.69 593.22,265.39 594.11,212.69 595.00,254.99 595.88,209.16 596.77,177.87 597.66,127.31 598.55,139.83 599.44,197.88 600.33,289.00 601.22,248.41 602.11,170.82 603.00,326.88 603.89,201.80 604.78,232.70 605.66,229.61 606.55,164.58 607.44,300.61 608.33,156.85 609.22,192.05 610.11,259.76 611.00,183.86 611.89,318.63 612.78,283.98 613.67,157.24 614.56,164.33 615.44,160.47 616.33,196.04 617.22,184.32 618.11,229.06 619.00,184.24 619.89,191.25 620.78,294.67 621.67,234.00 622.56,146.68 623.45,183.99 624.34,216.21 625.22,215.83 626.11,166.72 627.00,197.55 627.89,239.21 628.78,235.83 629.67,227.80 630.56,282.58 631.45,191.92 632.34,206.07 633.23,172.71 634.12,199.06 635.00,138.68 635.89,220.21 636.78,189.70 637.67,199.45 638.56,269.79 639.45,188.47 640.34,216.26 641.23,210.57 642.12,222.53 643.01,192.15 643.89,228.77 644.78,183.03 645.67,158.72 646.56,203.46 647.45,199.80 648.34,233.61 649.23,177.37 650.12,213.17 651.01,235.28 651.90,185.37 652.79,227.26 653.67,229.15 654.56,237.91 655.45,261.74 656.34,338.83 657.23,231.90 658.12,176.35 659.01,188.83 659.90,187.37 660.79,174.45 661.68,216.15 662.57,254.46 663.45,204.23 664.34,263.14 665.23,206.92 666.12,139.99 667.01,221.28 667.90,157.43 668.79,213.93 669.68,219.65 670.57,253.56 671.46,191.19 672.35,236.40 673.23,247.10 674.12,165.16 675.01,213.60 675.90,232.33 676.79,227.37 677.68,204.94 678.57,190.52 679.46,146.02 680.35,150.29 681.24,215.45 682.13,239.39 683.01,253.68 683.90,211.53 684.79,237.76 685.68,194.45 686.57,124.22 687.46,214.80 688.35,180.24 689.24,245.97 690.13,206.17 691.02,170.60 691.90,344.08 692.79,208.25 693.68,180.66 694.57,226.09 695.46,175.82 696.35,159.86 697.24,228.58 698.13,184.77 699.02,200.31 699.91,210.49 700.80,299.18 701.68,170.55 702.57,185.01 703.46,202.40 704.35,178.32 705.24,203.52 706.13,166.80 707.02,163.13 707.91,177.55 708.80,208.45 709.69,261.56 710.58,248.85 711.46,171.02 712.35,198.05 713.24,165.66 714.13,173.37 715.02,132.58 715.91,211.72 716.80,170.44 717.69,176.26 718.58,215.79 719.47,218.53 720.36,187.99 721.24,209.15 722.13,165.50 723.02,161.89 723.91,151.68 724.80,232.49 725.69,181.65 726.58,114.22 727.47,197.22 728.36,183.17 729.25,138.34 730.14,217.22 731.02,234.02 731.91,257.25 732.80,200.35 733.69,193.88 734.58,255.16 735.47,209.78 736.36,237.52 737.25,193.48 738.14,213.93 739.03,211.96 739.91,221.94 740.80,206.76 741.69,196.85 742.58,139.02 743.47,212.73 744.36,149.98 745.25,287.64 746.14,184.91 747.03,220.83 747.92,228.65 748.81,222.94 749.69,196.88 750.58,203.84 751.47,198.24 752.36,221.61 753.25,174.32 754.14,274.88 755.03,211.02 755.92,197.27 756.81,169.60 757.70,165.97 758.59,209.07 759.47,141.37 760.36,204.31 761.25,154.98 762.14,323.44 763.03,218.47 763.92,173.09 764.81,248.16 765.70,135.59 766.59,183.33 767.48,172.26 768.37,205.53 769.25,211.14 770.14,212.73 771.03,153.04 771.92,255.94 772.81,175.64 773.70,182.45 774.59,201.05 775.48,243.75 776.37,172.86 777.26,229.33 778.15,206.08 779.03,212.14 779.92,249.08 780.81,304.33 781.70,183.20 782.59,184.05 783.48,238.24 784.37,136.17 785.26,159.87 786.15,185.05 787.04,169.03 787.92,174.49 788.81,141.58 789.70,252.05 790.59,163.05 791.48,154.68 792.37,209.72 793.26,411.06 794.15,152.36 795.04,158.62 795.93,200.66 796.82,178.60 797.70,239.86 798.59,197.29 799.48,106.54 800.37,256.30 801.26,289.29 802.15,185.39 803.04,200.20 803.93,166.99 804.82,272.44 805.71,169.66 806.60,427.11 807.48,198.86 808.37,249.03 809.26,151.69 810.15,131.09 811.04,201.36 811.93,251.36 812.82,185.36 813.71,219.62 814.60,178.83 815.49,244.39 816.38,272.85 817.26,216.54 818.15,202.42 819.04,176.66 819.93,206.98 820.82,175.38 821.71,194.97 822.60,183.01 823.49,225.56 824.38,234.22 825.27,187.01 826.16,238.98 827.04,220.88 827.93,193.50 828.82,182.39 829.71,208.93 830.60,160.31 831.49,186.63 832.38,181.39 833.27,218.71 834.16,275.58 835.05,191.32 835.93,167.02 836.82,149.62 837.71,188.19 838.60,154.61 839.49,257.04 840.38,155.94 841.27,296.61 842.16,153.90 843.05,245.63 843.94,209.29 844.83,214.01 845.71,189.52 846.60,210.66 847.49,196.06 848.38,235.92 849.27,176.20 850.16,173.51 851.05,122.13 851.94,282.84 852.83,123.80 853.72,125.98 854.61,202.99 855.49,248.39 856.38,198.13 857.27,136.16 858.16,215.65 859.05,168.28 859.94,240.97 860.83,184.42 861.72,247.32 862.61,154.82 863.50,135.06 864.39,228.72 865.27,122.61 866.16,125.20 867.05,162.69 867.94,152.73 868.83,227.39 869.72,271.91 870.61,157.93 871.50,166.55 872.39,197.05 873.28,220.87 874.17,290.78 875.05,168.44 875.94,183.94 876.83,254.45 877.72,245.32 878.61,232.00 879.50,182.00 880.39,102.74 881.28,193.15 882.17,178.90 883.06,195.06 883.94,141.18 884.83,235.37 885.72,212.74 886.61,160.46 887.50,227.15 888.39,191.34 889.28,181.16 890.17,175.96 891.06,158.07 891.95,268.06 892.84,169.27 893.72,216.88 894.61,213.99 895.50,206.04 896.39,273.89 897.28,162.55 898.17,179.00 899.06,206.10 899.95,173.10 900.84,257.58 901.73,135.38 902.62,144.08 903.50,199.83 904.39,158.70 905.28,196.00 906.17,142.97 907.06,146.53 907.95,171.22 908.84,142.32 909.73,224.30 910.62,172.90 911.51,198.68 912.40,255.90 913.28,222.24 914.17,248.19 915.06,171.20 915.95,175.11 916.84,123.04 917.73,187.28 918.62,191.91 919.51,200.91 920.40,286.31 921.29,170.77 922.18,144.63 923.06,235.14 923.95,136.75 924.84,176.99 925.73,273.68 926.62,264.79 927.51,183.28 928.40,216.39 929.29,280.98 930.18,267.74 931.07,186.49 931.95,258.17 932.84,179.22 933.73,177.78 934.62,178.95 935.51,246.91 936.40,219.83 937.29,153.07 938.18,183.07 939.07,261.15 939.96,203.48 940.85,254.39 941.73,204.22 942.62,178.84 943.51,246.33 944.40,296.60 945.29,163.17 946.18,168.65 947.07,222.77 947.96,154.20 948.85,190.56 949.74,323.89 950.63,126.23 951.51,236.81 952.40,170.76 953.29,214.40 954.18,270.40 955.07,163.66 955.96,162.21 956.85,297.83 957.74,186.38 958.63,192.52 959.52,311.51 960.41,209.53 961.29,185.18 962.18,211.05 963.07,229.59 963.96,142.56 964.85,196.00 965.74,192.65 966.63,219.42 967.52,241.81 968.41,148.25 969.30,215.04 970.19,245.10 971.07,148.65 971.96,233.35 972.85,223.64 973.74,175.07 974.63,132.50 975.52,138.38 976.41,240.84 977.30,166.42 978.19,276.68 979.08,215.95 979.96,265.79 980.85,364.86 981.74,136.61 982.63,106.58 983.52,212.86 984.41,211.88 985.30,198.49 986.19,195.69 987.08,212.38 987.97,283.11 988.86,163.67 989.74,118.21 990.63,107.80 991.52,170.92 992.41,230.48 993.30,178.47 994.19,299.79 995.08,192.99 995.97,211.62 996.86,155.40 997.75,193.55 998.64,131.61 999.52,135.86 1000.41,219.95 1001.30,228.70 1002.19,117.47 1003.08,308.82 1003.97,225.49 1004.86,237.83 1005.75,179.14 1006.64,122.18 1007.53,141.14 1008.42,131.19 1009.30,160.84 1010.19,182.00 1011.08,229.27 1011.97,255.77 1012.86,218.33 1013.75,179.18 1014.64,166.07 1015.53,238.52 1016.42,170.39 1017.31,122.54 1018.20,164.85 1019.08,158.85 1019.97,195.51 1020.86,373.91 1021.75,243.52 1022.64,193.75 1023.53,210.10 1024.42,166.34 1025.31,239.29 1026.20,194.11 1027.09,160.53 1027.97,299.56 1028.86,126.37 1029.75,267.07 1030.64,222.24 1031.53,172.40 1032.42,186.69 1033.31,240.84 1034.20,145.85 1035.09,222.20 1035.98,132.01 1036.87,294.29 1037.75,182.50 1038.64,192.47 1039.53,225.01 1040.42,240.53 1041.31,140.33 1042.20,144.02 1043.09,174.26 1043.98,178.45 1044.87,173.53 1045.76,148.28 1046.65,250.06 1047.53,270.91 1048.42,244.70 1049.31,241.74 1050.20,236.51 1051.09,149.80 1051.98,213.86 1052.87,161.10 1053.76,248.22 1054.65,202.21 1055.54,146.45 1056.43,227.66 1057.31,223.72 1058.20,211.16 1059.09,192.75 1059.98,207.10 1060.87,232.85 1061.76,219.63 1062.65,254.41 1063.54,240.58 1064.43,264.37 1065.32,189.96 1066.21,177.37 1067.09,123.91 1067.98,167.66 1068.87,184.60 1069.76,213.56 1070.65,157.44 1071.54,89.54 1072.43,153.48 1073.32,190.88 1074.21,216.86 1075.10,192.47 1075.98,158.01 1076.87,205.56 1077.76,243.45 1078.65,151.37 1079.54,153.82 1080.43,233.90 1081.32,257.15 1082.21,145.13 1083.10,259.66 1083.99,209.32 1084.88,211.87 1085.76,169.40 1086.65,124.50 1087.54,247.73 1088.43,247.90 1089.32,189.76 1090.21,240.40 1091.10,258.79 1091.99,249.09 1092.88,202.39 1093.77,199.02 1094.66,197.33 1095.54,240.16 1096.43,174.98 1097.32,177.92 1098.21,129.11 1099.10,199.19 1099.99,156.00 1100.88,159.28 1101.77,290.90 1102.66,158.01 1103.55,156.91 1104.44,211.08 1105.32,182.39 1106.21,244.48 1107.10,122.49 1107.99,200.40 1108.88,173.48 1109.77,192.37 1110.66,222.44 1111.55,208.73 1112.44,201.35 1113.33,240.82 1114.22,264.11 1115.10,134.85 1115.99,149.72 1116.88,184.84 1117.77,134.89 1118.66,244.59 1119.55,257.26 1120.44,142.80 1121.33,89.46 1122.22,199.78 1123.11,199.11 1123.99,115.78 1124.88,201.47 1125.77,172.63 1126.66,186.36 1127.55,247.06 1128.44,188.49 1129.33,156.41 1130.22,191.89 1131.11,186.44 1132.00,307.25 1132.89,274.63 1133.77,153.61 1134.66,219.09 1135.55,205.11 1136.44,237.62 1137.33,249.42 1138.22,334.86 1139.11,165.05 1140.00,220.12 1140.89,160.17 1141.78,138.68 1142.67,180.47 1143.55,130.83 1144.44,154.22 1145.33,250.30 1146.22,128.79 1147.11,213.78 1148.00,174.72" fill="none" stroke="#2a6fbb" stroke-width="1.6"/>
<text x="82.00" y="482" text-anchor="middle" font-family="Arial, sans-serif" font-size="10">2026-01-01 00:00</text>
<text x="348.72" y="482" text-anchor="middle" font-family="Arial, sans-serif" font-size="10">2026-01-30 23:35</text>
<text x="615.44" y="482" text-anchor="middle" font-family="Arial, sans-serif" font-size="10">2026-03-01 23:10</text>
<text x="882.17" y="482" text-anchor="middle" font-family="Arial, sans-serif" font-size="10">2026-03-31 22:45</text>
<text x="1148.00" y="482" text-anchor="middle" font-family="Arial, sans-serif" font-size="10">2026-04-30 19:55</text>
<g><line x1="830.00" y1="30.00" x2="858.00" y2="30.00" stroke="#2a6fbb" stroke-width="2"/><text x="866.00" y="34.00" font-family="Arial, sans-serif" font-size="12">error HAR</text></g>
<text x="615.00" y="510" text-anchor="middle" font-family="Arial, sans-serif" font-size="13">tiempo</text>
<text transform="translate(18,253.0) rotate(-90)" text-anchor="middle" font-family="Arial, sans-serif" font-size="13">error</text>
</svg>