<svg xmlns="http://www.w3.org/2000/svg" width="1080" height="460" viewBox="0 0 1080 460">
<rect x="0" y="0" width="1080" height="460" fill="#ffffff"/>
<text x="540.0" y="28" text-anchor="middle" font-family="Arial, sans-serif" font-size="18" font-weight="700">Prediccion test compacta logistic_noise_moderate</text>
<rect x="76" y="58" width="974.00" height="340.00" fill="none" stroke="#222222"/>
<line x1="76" y1="398.00" x2="1050.00" y2="398.00" stroke="#e8e8e8"/>
<text x="68" y="402.00" text-anchor="end" font-family="Arial, sans-serif" font-size="11">-0.08</text>
<line x1="76" y1="313.00" x2="1050.00" y2="313.00" stroke="#e8e8e8"/>
<text x="68" y="317.00" text-anchor="end" font-family="Arial, sans-serif" font-size="11">0.21</text>
<line x1="76" y1="228.00" x2="1050.00" y2="228.00" stroke="#e8e8e8"/>
<text x="68" y="232.00" text-anchor="end" font-family="Arial, sans-serif" font-size="11">0.5</text>
<line x1="76" y1="143.00" x2="1050.00" y2="143.00" stroke="#e8e8e8"/>
<text x="68" y="147.00" text-anchor="end" font-family="Arial, sans-serif" font-size="11">0.79</text>
<line x1="76" y1="58.00" x2="1050.00" y2="58.00" stroke="#e8e8e8"/>
<text x="68" y="62.00" text-anchor="end" font-family="Arial, sans-serif" font-size="11">1.08</text>
<polyline points="76.00,114.80 81.44,270.19 86.88,105.07 92.32,301.82 97.77,150.35 103.21,157.43 108.65,149.94 114.09,156.22 119.53,149.38 124.97,161.26 130.41,132.95 135.85,190.53 141.30,103.53 146.74,290.67 152.18,153.40 157.62,152.56 163.06,171.23 168.50,127.45 173.94,214.46 179.39,83.50 184.83,359.22 190.27,338.48 195.71,247.25 201.15,94.10 206.59,343.13 212.03,265.23 217.47,98.72 222.92,308.85 228.36,144.11 233.80,167.06 239.24,133.13 244.68,215.08 250.12,83.92 255.56,364.65 261.01,341.48 266.45,248.97 271.89,86.46 277.33,357.54 282.77,297.23 288.21,138.02 293.65,172.16 299.09,113.23 304.54,254.79 309.98,81.45 315.42,335.69 320.86,248.42 326.30,96.29 331.74,342.76 337.18,251.69 342.63,81.45 348.07,345.91 353.51,274.19 358.95,109.17 364.39,263.61 369.83,112.13 375.27,288.52 380.72,122.36 386.16,227.90 391.60,81.45 397.04,370.06 402.48,373.81 407.92,374.55 413.36,374.55 418.80,374.55 424.25,371.79 429.69,357.16 435.13,310.72 440.57,207.31 446.01,91.69 451.45,346.77 456.89,283.86 462.34,114.48 467.78,274.54 473.22,115.93 478.66,277.95 484.10,125.49 489.54,265.65 494.98,82.10 500.42,337.04 505.87,243.13 511.31,83.33 516.75,369.10 522.19,334.46 527.63,263.06 533.07,94.87 538.51,313.88 543.96,197.49 549.40,102.97 554.84,340.59 560.28,239.19 565.72,81.45 571.16,366.21 576.60,374.55 582.04,373.09 587.49,366.82 592.93,322.66 598.37,203.42 603.81,89.34 609.25,328.93 614.69,229.88 620.13,81.45 625.58,374.55 631.02,372.49 636.46,369.80 641.90,366.29 647.34,365.78 652.78,342.85 658.22,255.28 663.66,92.51 669.11,329.26 674.55,203.53 679.99,83.50 685.43,374.55 690.87,334.02 696.31,259.32 701.75,99.94 707.20,309.86 712.64,154.93 718.08,146.02 723.52,168.16 728.96,136.29 734.40,203.92 739.84,92.72 745.28,357.28 750.73,295.88 756.17,144.56 761.61,164.44 767.05,132.72 772.49,223.28 777.93,81.45 783.37,373.61 788.82,359.90 794.26,365.34 799.70,366.92 805.14,323.25 810.58,227.71 816.02,81.45 821.46,374.55 826.91,355.53 832.35,325.54 837.79,205.74 843.23,84.81 848.67,352.95 854.11,269.91 859.55,103.72 864.99,285.79 870.44,121.80 875.88,248.34 881.32,82.60 886.76,358.81 892.20,297.99 897.64,151.72 903.08,167.71 908.53,124.02 913.97,215.13 919.41,100.21 924.85,356.55 930.29,321.60 935.73,204.63 941.17,86.35 946.61,349.78 952.06,259.27 957.50,94.53 962.94,323.84 968.38,222.56 973.82,82.59 979.26,374.55 984.70,370.12 990.15,371.87 995.59,372.80 1001.03,374.55 1006.47,351.99 1011.91,312.33 1017.35,176.24 1022.79,114.73 1028.23,227.38 1033.68,85.07 1039.12,374.40 1044.56,374.31 1050.00,372.21" fill="none" stroke="#222222" stroke-width="1.6"/>
<polyline points="76.00,277.30 81.44,114.80 86.88,270.19 92.32,105.07 97.77,301.82 103.21,150.35 108.65,157.43 114.09,149.94 119.53,156.22 124.97,149.38 130.41,161.26 135.85,132.95 141.30,190.53 146.74,103.53 152.18,290.67 157.62,153.40 163.06,152.56 168.50,171.23 173.94,127.45 179.39,214.46 184.83,83.50 190.27,359.22 195.71,338.48 201.15,247.25 206.59,94.10 212.03,343.13 217.47,265.23 222.92,98.72 228.36,308.85 233.80,144.11 239.24,167.06 244.68,133.13 250.12,215.08 255.56,83.92 261.01,364.65 266.45,341.48 271.89,248.97 277.33,86.46 282.77,357.54 288.21,297.23 293.65,138.02 299.09,172.16 304.54,113.23 309.98,254.79 315.42,81.45 320.86,335.69 326.30,248.42 331.74,96.29 337.18,342.76 342.63,251.69 348.07,81.45 353.51,345.91 358.95,274.19 364.39,109.17 369.83,263.61 375.27,112.13 380.72,288.52 386.16,122.36 391.60,227.90 397.04,81.45 402.48,370.06 407.92,373.81 413.36,374.55 418.80,374.55 424.25,374.55 429.69,371.79 435.13,357.16 440.57,310.72 446.01,207.31 451.45,91.69 456.89,346.77 462.34,283.86 467.78,114.48 473.22,274.54 478.66,115.93 484.10,277.95 489.54,125.49 494.98,265.65 500.42,82.10 505.87,337.04 511.31,243.13 516.75,83.33 522.19,369.10 527.63,334.46 533.07,263.06 538.51,94.87 543.96,313.88 549.40,197.49 554.84,102.97 560.28,340.59 565.72,239.19 571.16,81.45 576.60,366.21 582.04,374.55 587.49,373.09 592.93,366.82 598.37,322.66 603.81,203.42 609.25,89.34 614.69,328.93 620.13,229.88 625.58,81.45 631.02,374.55 636.46,372.49 641.90,369.80 647.34,366.29 652.78,365.78 658.22,342.85 663.66,255.28 669.11,92.51 674.55,329.26 679.99,203.53 685.43,83.50 690.87,374.55 696.31,334.02 701.75,259.32 707.20,99.94 712.64,309.86 718.08,154.93 723.52,146.02 728.96,168.16 734.40,136.29 739.84,203.92 745.28,92.72 750.73,357.28 756.17,295.88 761.61,144.56 767.05,164.44 772.49,132.72 777.93,223.28 783.37,81.45 788.82,373.61 794.26,359.90 799.70,365.34 805.14,366.92 810.58,323.25 816.02,227.71 821.46,81.45 826.91,374.55 832.35,355.53 837.79,325.54 843.23,205.74 848.67,84.81 854.11,352.95 859.55,269.91 864.99,103.72 870.44,285.79 875.88,121.80 881.32,248.34 886.76,82.60 892.20,358.81 897.64,297.99 903.08,151.72 908.53,167.71 913.97,124.02 919.41,215.13 924.85,100.21 930.29,356.55 935.73,321.60 941.17,204.63 946.61,86.35 952.06,349.78 957.50,259.27 962.94,94.53 968.38,323.84 973.82,222.56 979.26,82.59 984.70,374.55 990.15,370.12 995.59,371.87 1001.03,372.80 1006.47,374.55 1011.91,351.99 1017.35,312.33 1022.79,176.24 1028.23,114.73 1033.68,227.38 1039.12,85.07 1044.56,374.40 1050.00,374.31" fill="none" stroke="#6f7f8f" stroke-width="1.6"/>
<polyline points="76.00,227.95 81.44,227.95 86.88,227.95 92.32,227.95 97.77,227.95 103.21,227.95 108.65,227.95 114.09,227.95 119.53,227.95 124.97,227.95 130.41,227.95 135.85,227.95 141.30,227.95 146.74,227.95 152.18,227.95 157.62,227.95 163.06,227.95 168.50,227.95 173.94,227.95 179.39,227.95 184.83,227.95 190.27,227.95 195.71,227.95 201.15,227.95 206.59,227.95 212.03,227.95 217.47,227.95 222.92,227.95 228.36,227.95 233.80,227.95 239.24,227.95 244.68,227.95 250.12,227.95 255.56,227.95 261.01,227.95 266.45,227.95 271.89,227.95 277.33,227.95 282.77,227.95 288.21,227.95 293.65,227.95 299.09,227.95 304.54,227.95 309.98,227.95 315.42,227.95 320.86,227.95 326.30,227.95 331.74,227.95 337.18,227.95 342.63,227.95 348.07,227.95 353.51,227.95 358.95,227.95 364.39,227.95 369.83,227.95 375.27,227.95 380.72,227.95 386.16,227.95 391.60,227.95 397.04,227.95 402.48,227.95 407.92,227.95 413.36,227.95 418.80,227.95 424.25,227.95 429.69,227.95 435.13,227.95 440.57,227.95 446.01,227.95 451.45,227.95 456.89,227.95 462.34,227.95 467.78,227.95 473.22,227.95 478.66,227.95 484.10,227.95 489.54,227.95 494.98,227.95 500.42,227.95 505.87,227.95 511.31,227.95 516.75,227.95 522.19,227.95 527.63,227.95 533.07,227.95 538.51,227.95 543.96,227.95 549.40,227.95 554.84,227.95 560.28,227.95 565.72,227.95 571.16,227.95 576.60,227.95 582.04,227.95 587.49,227.95 592.93,227.95 598.37,227.95 603.81,227.95 609.25,227.95 614.69,227.95 620.13,227.95 625.58,227.95 631.02,227.95 636.46,227.95 641.90,227.95 647.34,227.95 652.78,227.95 658.22,227.95 663.66,227.95 669.11,227.95 674.55,227.95 679.99,227.95 685.43,227.95 690.87,227.95 696.31,227.95 701.75,227.95 707.20,227.95 712.64,227.95 718.08,227.95 723.52,227.95 728.96,227.95 734.40,227.95 739.84,227.95 745.28,227.95 750.73,227.95 756.17,227.95 761.61,227.95 767.05,227.95 772.49,227.95 777.93,227.95 783.37,227.95 788.82,227.95 794.26,227.95 799.70,227.95 805.14,227.95 810.58,227.95 816.02,227.95 821.46,227.95 826.91,227.95 832.35,227.95 837.79,227.95 843.23,227.95 848.67,227.95 854.11,227.95 859.55,227.95 864.99,227.95 870.44,227.95 875.88,227.95 881.32,227.95 886.76,227.95 892.20,227.95 897.64,227.95 903.08,227.95 908.53,227.95 913.97,227.95 919.41,227.95 924.85,227.95 930.29,227.95 935.73,227.95 941.17,227.95 946.61,227.95 952.06,227.95 957.50,227.95 962.94,227.95 968.38,227.95 973.82,227.95 979.26,227.95 984.70,227.95 990.15,227.95 995.59,227.95 1001.03,227.95 1006.47,227.95 1011.91,227.95 1017.35,227.95 1022.79,227.95 1028.23,227.95 1033.68,227.95 1039.12,227.95 1044.56,227.95 1050.00,227.95" fill="none" stroke="#2a6fbb" stroke-width="1.6"/>
<polyline points="76.00,145.17 81.44,286.54 86.88,103.63 92.32,305.05 97.77,132.05 103.21,200.53 108.65,150.33 114.09,189.42 119.53,176.84 124.97,166.16 130.41,154.19 135.85,221.92 141.30,92.86 146.74,346.23 152.18,142.28 157.62,192.26 163.06,177.82 168.50,139.61 173.94,247.42 179.39,87.99 184.83,329.28 190.27,324.73 195.71,239.83 201.15,88.96 206.59,265.06 212.03,339.05 217.47,114.18 222.92,324.76 228.36,210.65 233.80,221.14 239.24,130.43 244.68,203.27 250.12,95.61 255.56,357.33 261.01,324.37 266.45,259.83 271.89,95.00 277.33,321.70 282.77,284.77 288.21,153.08 293.65,193.39 299.09,162.23 304.54,316.07 309.98,98.65 315.42,315.44 320.86,301.66 326.30,86.59 331.74,320.96 337.18,254.15 342.63,91.45 348.07,344.04 353.51,303.47 358.95,112.71 364.39,306.04 369.83,86.79 375.27,315.27 380.72,126.66 386.16,252.04 391.60,82.23 397.04,348.82 402.48,314.34 407.92,338.54 413.36,362.10 418.80,339.20 424.25,359.97 429.69,351.99 435.13,321.77 440.57,168.19 446.01,89.93 451.45,324.62 456.89,288.28 462.34,128.12 467.78,278.37 473.22,114.17 478.66,295.04 484.10,112.50 489.54,223.98 494.98,99.78 500.42,343.24 505.87,285.52 511.31,89.65 516.75,324.81 522.19,334.93 527.63,248.99 533.07,104.57 538.51,310.70 543.96,186.05 549.40,88.20 554.84,288.87 560.28,260.30 565.72,91.45 571.16,344.89 576.60,335.37 582.04,351.34 587.49,350.99 592.93,336.05 598.37,227.50 603.81,93.18 609.25,280.48 614.69,223.81 620.13,87.99 625.58,319.98 631.02,304.09 636.46,346.80 641.90,362.76 647.34,311.18 652.78,329.27 658.22,280.37 663.66,106.17 669.11,317.42 674.55,236.79 679.99,100.17 685.43,327.57 690.87,339.13 696.31,319.17 701.75,92.51 707.20,281.13 712.64,183.35 718.08,172.74 723.52,197.87 728.96,154.32 734.40,277.43 739.84,101.52 745.28,335.91 750.73,349.47 756.17,143.44 761.61,185.83 767.05,151.83 772.49,205.55 777.93,84.10 783.37,350.51 788.82,352.87 794.26,288.23 799.70,342.86 805.14,288.59 810.58,260.31 816.02,87.88 821.46,291.94 826.91,333.94 832.35,333.04 837.79,202.85 843.23,109.04 848.67,345.40 854.11,290.53 859.55,93.59 864.99,325.10 870.44,149.81 875.88,265.83 881.32,88.50 886.76,299.30 892.20,308.45 897.64,204.93 903.08,150.64 908.53,165.59 913.97,257.91 919.41,89.25 924.85,298.92 930.29,326.81 935.73,205.55 941.17,95.06 946.61,327.86 952.06,320.21 957.50,116.22 962.94,266.95 968.38,193.92 973.82,86.34 979.26,344.25 984.70,354.65 990.15,319.65 995.59,339.49 1001.03,313.94 1006.47,336.61 1011.91,314.22 1017.35,198.70 1022.79,142.69 1028.23,246.72 1033.68,87.22 1039.12,341.50 1044.56,344.92 1050.00,318.85" fill="none" stroke="#b45f06" stroke-width="1.6"/>
<g><line x1="870.00" y1="28.00" x2="898.00" y2="28.00" stroke="#222222" stroke-width="2"/><text x="906.00" y="32.00" font-family="Arial, sans-serif" font-size="12">real</text></g>
<g><line x1="870.00" y1="46.00" x2="898.00" y2="46.00" stroke="#6f7f8f" stroke-width="2"/><text x="906.00" y="50.00" font-family="Arial, sans-serif" font-size="12">persistencia</text></g>
<g><line x1="870.00" y1="64.00" x2="898.00" y2="64.00" stroke="#2a6fbb" stroke-width="2"/><text x="906.00" y="68.00" font-family="Arial, sans-serif" font-size="12">AR(0) / media</text></g>
<g><line x1="870.00" y1="82.00" x2="898.00" y2="82.00" stroke="#b45f06" stroke-width="2"/><text x="906.00" y="86.00" font-family="Arial, sans-serif" font-size="12">kNN k=5</text></g>
<line x1="76.00" y1="398.00" x2="76.00" y2="403.00" stroke="#222222"/>
<text x="76.00" y="422" text-anchor="middle" font-family="Arial, sans-serif" font-size="10">9809</text>
<line x1="320.86" y1="398.00" x2="320.86" y2="403.00" stroke="#222222"/>
<text x="320.86" y="422" text-anchor="middle" font-family="Arial, sans-serif" font-size="10">9854</text>
<line x1="565.72" y1="398.00" x2="565.72" y2="403.00" stroke="#222222"/>
<text x="565.72" y="422" text-anchor="middle" font-family="Arial, sans-serif" font-size="10">9899</text>
<line x1="810.58" y1="398.00" x2="810.58" y2="403.00" stroke="#222222"/>
<text x="810.58" y="422" text-anchor="middle" font-family="Arial, sans-serif" font-size="10">9944</text>
<line x1="1050.00" y1="398.00" x2="1050.00" y2="403.00" stroke="#222222"/>
<text x="1050.00" y="422" text-anchor="middle" font-family="Arial, sans-serif" font-size="10">9988</text>
<text x="563.00" y="450" text-anchor="middle" font-family="Arial, sans-serif" font-size="13">t</text>
<text transform="translate(18,228.0) rotate(-90)" text-anchor="middle" font-family="Arial, sans-serif" font-size="13">x[t+1]</text>
</svg>