<svg xmlns="http://www.w3.org/2000/svg" width="1100" height="430" viewBox="0 0 1100 430">
<rect x="0" y="0" width="1100" height="430" fill="#ffffff"/>
<text x="550.0" y="26" text-anchor="middle" font-family="Arial, sans-serif" font-size="18" font-weight="700">Residuos AR(49) sobre v_t estandarizada</text>
<line x1="88" y1="372.00" x2="1066.00" y2="372.00" stroke="#e6e6e6" stroke-width="1"/>
<text x="80" y="376.00" text-anchor="end" font-family="Arial, sans-serif" font-size="11" fill="#333333">-1.89</text>
<line x1="88" y1="293.50" x2="1066.00" y2="293.50" stroke="#e6e6e6" stroke-width="1"/>
<text x="80" y="297.50" text-anchor="end" font-family="Arial, sans-serif" font-size="11" fill="#333333">-0.312</text>
<line x1="88" y1="215.00" x2="1066.00" y2="215.00" stroke="#e6e6e6" stroke-width="1"/>
<text x="80" y="219.00" text-anchor="end" font-family="Arial, sans-serif" font-size="11" fill="#333333">1.26</text>
<line x1="88" y1="136.50" x2="1066.00" y2="136.50" stroke="#e6e6e6" stroke-width="1"/>
<text x="80" y="140.50" text-anchor="end" font-family="Arial, sans-serif" font-size="11" fill="#333333">2.84</text>
<line x1="88" y1="58.00" x2="1066.00" y2="58.00" stroke="#e6e6e6" stroke-width="1"/>
<text x="80" y="62.00" text-anchor="end" font-family="Arial, sans-serif" font-size="11" fill="#333333">4.42</text>
<rect x="88" y="58.00" width="978.00" height="314.00" fill="none" stroke="#222222" stroke-width="1"/>
<polyline points="88.00,301.24 88.22,239.40 88.44,250.46 88.65,295.23 88.87,295.56 89.09,259.56 89.31,200.56 89.53,311.48 89.74,246.07 89.96,330.66 90.18,292.44 90.40,251.93 90.61,247.49 90.83,300.84 91.05,300.33 91.27,172.70 91.49,299.61 91.70,227.27 91.92,298.59 92.14,221.51 92.36,298.34 92.58,251.31 92.79,294.87 93.01,247.14 93.23,289.46 93.45,237.01 93.66,236.56 93.88,320.16 94.10,300.60 94.32,240.65 94.54,221.52 94.75,294.74 94.97,188.26 95.19,299.43 95.41,242.93 95.63,309.86 95.84,205.68 96.06,304.82 96.28,163.86 96.50,306.29 96.71,124.03 96.93,320.23 97.15,333.24 97.37,247.33 97.59,295.11 97.80,221.33 98.02,304.08 98.24,227.61 98.46,296.63 98.68,240.44 98.89,254.66 99.11,308.19 99.33,251.29 99.55,299.15 99.76,254.09 99.98,310.39 100.20,187.75 100.42,313.93 100.64,301.58 100.85,252.94 101.07,230.43 101.29,316.61 101.51,292.14 101.73,246.67 101.94,291.52 102.16,245.79 102.38,306.47 102.60,241.86 102.81,302.81 103.03,242.65 103.25,309.43 103.47,251.27 103.69,314.51 103.90,249.15 104.12,250.06 104.34,295.71 104.56,228.19 104.78,300.73 104.99,300.42 105.21,244.22 105.43,231.08 105.65,307.33 105.87,243.76 106.08,313.63 106.30,259.45 106.52,297.70 106.74,291.92 106.95,239.61 107.17,251.03 107.39,305.34 107.61,302.14 107.83,238.42 108.04,257.21 108.26,305.46 108.48,318.69 108.70,254.05 108.92,294.45 109.13,255.24 109.35,264.52 109.57,301.00 109.79,355.84 110.00,199.55 110.22,244.44 110.44,301.94 110.66,232.46 110.88,304.06 111.09,236.12 111.31,299.65 111.53,296.32 111.75,258.88 111.97,263.05 112.18,300.84 112.40,295.22 112.62,254.43 112.84,234.29 113.05,308.08 113.27,246.37 113.49,294.94 113.71,251.56 113.93,304.08 114.14,244.40 114.36,311.75 114.58,295.97 114.80,239.43 115.02,249.49 115.23,307.08 115.45,291.12 115.67,254.62 115.89,235.28 116.10,304.87 116.32,256.06 116.54,303.88 116.76,248.99 116.98,297.26 117.19,309.88 117.41,242.18 117.63,232.43 117.85,303.57 118.07,292.13 118.28,250.06 118.50,319.58 118.72,235.95 118.94,293.69 119.15,241.40 119.37,311.72 119.59,250.88 119.81,217.02 120.03,305.91 120.24,294.57 120.46,202.04 120.68,316.53 120.90,233.15 121.12,229.30 121.33,297.39 121.55,211.41 121.77,308.80 121.99,226.77 122.20,323.02 122.42,254.78 122.64,297.14 122.86,227.03 123.08,295.23 123.29,242.57 123.51,308.18 123.73,299.84 123.95,199.61 124.17,237.00 124.38,305.38 124.60,228.82 124.82,311.06 125.04,239.99 125.26,302.40 125.47,245.52 125.69,311.04 125.91,301.74 126.13,199.38 126.34,228.27 126.56,325.09 126.78,228.05 127.00,314.70 127.22,221.37 127.43,305.44 127.65,225.30 127.87,296.93 128.09,244.31 128.31,295.75 128.52,227.63 128.74,319.94 128.96,263.09 129.18,299.14 129.39,312.03 129.61,194.45 129.83,306.62 130.05,233.06 130.27,298.66 130.48,261.17 130.70,297.41 130.92,250.90 131.14,260.98 131.36,298.50 131.57,292.85 131.79,226.10 132.01,231.54 132.23,305.93 132.44,309.86 132.66,256.41 132.88,298.74 133.10,247.32 133.32,303.00 133.53,249.79 133.75,295.98 133.97,260.89 134.19,298.03 134.41,247.96 134.62,305.26 134.84,242.39 135.06,219.32 135.28,298.24 135.49,241.40 135.71,296.99 135.93,297.42 136.15,245.85 136.37,296.12 136.58,249.15 136.80,244.24 137.02,296.44 137.24,295.55 137.46,236.31 137.67,295.93 137.89,204.95 138.11,195.67 138.33,293.27 138.54,236.59 138.76,300.30 138.98,234.47 139.20,289.79 139.42,252.54 139.63,300.62 139.85,298.48 140.07,247.47 140.29,257.54 140.51,293.50 140.72,300.03 140.94,250.89 141.16,251.05 141.38,288.12 141.60,310.23 141.81,199.14 142.03,305.38 142.25,250.57 142.47,295.77 142.68,225.58 142.90,192.68 143.12,300.63 143.34,301.02 143.56,231.13 143.77,250.51 143.99,298.46 144.21,303.51 144.43,238.21 144.65,301.09 144.86,225.26 145.08,309.03 145.30,245.85 145.52,245.52 145.73,292.39 145.95,302.16 146.17,249.83 146.39,307.13 146.61,238.42 146.82,306.59 147.04,240.68 147.26,211.37 147.48,309.99 147.70,233.70 147.91,303.40 148.13,245.72 148.35,314.36 148.57,299.96 148.78,255.19 149.00,301.13 149.22,233.25 149.44,295.09 149.66,232.69 149.87,306.28 150.09,256.64 150.31,301.06 150.53,244.98 150.75,300.03 150.96,206.88 151.18,309.05 151.40,220.32 151.62,301.05 151.83,234.54 152.05,220.64 152.27,321.74 152.49,296.75 152.71,247.44 152.92,245.93 153.14,318.61 153.36,299.61 153.58,249.26 153.80,297.12 154.01,202.85 154.23,240.63 154.45,289.63 154.67,293.14 154.88,260.61 155.10,253.98 155.32,292.67 155.54,257.51 155.76,315.22 155.97,297.25 156.19,247.67 156.41,214.51 156.63,313.77 156.85,327.42 157.06,245.80 157.28,249.60 157.50,295.51 157.72,251.12 157.93,308.57 158.15,299.62 158.37,234.55 158.59,224.10 158.81,302.91 159.02,173.44 159.24,332.03 159.46,228.11 159.68,294.21 159.90,291.55 160.11,263.21 160.33,221.11 160.55,297.01 160.77,325.03 160.99,251.43 161.20,299.81 161.42,252.48 161.64,254.95 161.86,301.46 162.07,244.65 162.29,294.65 162.51,299.42 162.73,241.03 162.95,305.98 163.16,241.81 163.38,260.57 163.60,306.34 163.82,232.38 164.04,314.89 164.25,227.46 164.47,301.58 164.69,239.56 164.91,316.71 165.12,322.79 165.34,252.43 165.56,318.94 165.78,235.38 166.00,301.12 166.21,237.76 166.43,303.21 166.65,246.28 166.87,293.85 167.09,246.52 167.30,322.07 167.52,246.01 167.74,231.44 167.96,307.79 168.17,233.21 168.39,297.06 168.61,251.30 168.83,295.28 169.05,234.95 169.26,309.50 169.48,246.03 169.70,301.15 169.92,295.35 170.14,230.02 170.35,297.13 170.57,258.76 170.79,244.95 171.01,293.87 171.22,300.22 171.44,241.41 171.66,314.10 171.88,235.81 172.10,232.60 172.31,303.43 172.53,214.55 172.75,299.30 172.97,258.43 173.19,310.93 173.40,298.77 173.62,247.31 173.84,239.19 174.06,303.52 174.27,291.99 174.49,234.22 174.71,248.30 174.93,293.26 175.15,297.00 175.36,248.27 175.58,301.39 175.80,230.51 176.02,250.37 176.24,300.52 176.45,287.71 176.67,242.96 176.89,301.23 177.11,251.86 177.33,291.21 177.54,253.23 177.76,313.33 177.98,241.70 178.20,301.10 178.41,254.29 178.63,298.66 178.85,255.55 179.07,293.20 179.29,254.86 179.50,312.45 179.72,236.78 179.94,304.10 180.16,214.01 180.38,249.66 180.59,293.62 180.81,254.41 181.03,305.84 181.25,302.15 181.46,221.98 181.68,238.24 181.90,305.53 182.12,249.39 182.34,309.20 182.55,211.45 182.77,292.20 182.99,299.13 183.21,234.91 183.43,298.55 183.64,249.19 183.86,244.98 184.08,294.78 184.30,236.29 184.51,303.98 184.73,304.82 184.95,230.64 185.17,314.94 185.39,214.25 185.60,292.95 185.82,259.94 186.04,297.83 186.26,196.53 186.48,301.61 186.69,242.86 186.91,210.57 187.13,304.92 187.35,243.71 187.56,291.46 187.78,308.82 188.00,258.05 188.22,312.03 188.44,243.51 188.65,236.79 188.87,313.90 189.09,306.17 189.31,243.53 189.53,301.56 189.74,227.32 189.96,305.43 190.18,258.90 190.40,241.63 190.61,303.87 190.83,314.81 191.05,181.37 191.27,337.59 191.49,177.94 191.70,309.76 191.92,215.78 192.14,294.56 192.36,253.05 192.58,189.13 192.79,346.91 193.01,307.87 193.23,258.14 193.45,245.16 193.66,300.38 193.88,296.84 194.10,228.28 194.32,298.15 194.54,216.58 194.75,252.04 194.97,297.92 195.19,235.59 195.41,304.57 195.63,300.27 195.84,240.17 196.06,215.43 196.28,310.56 196.50,305.47 196.72,233.35 196.93,260.23 197.15,301.76 197.37,262.08 197.59,291.30 197.80,229.76 198.02,311.73 198.24,245.59 198.46,294.34 198.68,292.26 198.89,248.89 199.11,241.24 199.33,313.58 199.55,242.80 199.77,315.72 199.98,298.32 200.20,257.30 200.42,298.23 200.64,246.06 200.85,214.91 201.07,298.76 201.29,246.60 201.51,297.58 201.73,262.46 201.94,299.05 202.16,312.62 202.38,173.43 202.60,310.48 202.82,243.54 203.03,251.36 203.25,304.73 203.47,334.67 203.69,202.23 203.90,318.84 204.12,241.97 204.34,301.88 204.56,219.92 204.78,207.38 204.99,305.49 205.21,254.83 205.43,296.23 205.65,228.86 205.87,288.90 206.08,205.84 206.30,302.54 206.52,240.87 206.74,305.49 206.95,172.48 207.17,308.93 207.39,200.18 207.61,308.47 207.83,304.16 208.04,243.58 208.26,259.49 208.48,299.83 208.70,312.10 208.92,239.58 209.13,207.77 209.35,302.36 209.57,301.02 209.79,244.40 210.00,198.40 210.22,299.04 210.44,226.02 210.66,292.80 210.88,299.68 211.09,239.32 211.31,317.16 211.53,252.05 211.75,304.67 211.97,225.63 212.18,235.43 212.40,302.30 212.62,245.85 212.84,294.70 213.06,205.94 213.27,310.54 213.49,297.71 213.71,240.59 213.93,306.95 214.14,227.05 214.36,317.05 214.58,238.77 214.80,289.15 215.02,235.58 215.23,330.56 215.45,243.11 215.67,323.62 215.89,237.61 216.11,295.34 216.32,237.61 216.54,307.91 216.76,228.14 216.98,293.84 217.19,259.66 217.41,304.86 217.63,252.19 217.85,302.77 218.07,240.50 218.28,301.47 218.50,230.69 218.72,302.49 218.94,254.12 219.16,300.10 219.37,235.67 219.59,296.73 219.81,245.97 220.03,307.21 220.24,254.95 220.46,305.13 220.68,237.84 220.90,303.29 221.12,248.22 221.33,234.90 221.55,306.95 221.77,215.28 221.99,302.59 222.21,292.83 222.42,246.08 222.64,306.30 222.86,227.20 223.08,219.07 223.29,303.38 223.51,223.36 223.73,330.20 223.95,302.39 224.17,236.45 224.38,239.49 224.60,320.46 224.82,314.65 225.04,237.90 225.26,301.65 225.47,246.29 225.69,239.23 225.91,302.34 226.13,202.28 226.34,294.51 226.56,236.40 226.78,318.72 227.00,313.01 227.22,246.31 227.43,298.38 227.65,254.37 227.87,242.25 228.09,305.08 228.31,320.12 228.52,238.86 228.74,174.23 228.96,312.51 229.18,238.02 229.39,318.61 229.61,230.63 229.83,311.19 230.05,301.96 230.27,192.12 230.48,305.28 230.70,238.20 230.92,324.63 231.14,203.52 231.36,309.28 231.57,223.99 231.79,193.79 232.01,306.88 232.23,242.39 232.45,305.37 232.66,319.32 232.88,206.73 233.10,233.24 233.32,301.44 233.53,310.16 233.75,244.85 233.97,219.76 234.19,307.51 234.41,297.74 234.62,233.51 234.84,226.03 235.06,311.30 235.28,294.57 235.50,240.85 235.71,304.74 235.93,234.63 236.15,254.83 236.37,294.31 236.58,225.68 236.80,308.19 237.02,308.32 237.24,257.05 237.46,245.03 237.67,295.95 237.89,246.28 238.11,299.93 238.33,249.96 238.55,300.48 238.76,210.58 238.98,301.62 239.20,241.22 239.42,308.49 239.63,208.78 239.85,302.39 240.07,223.42 240.29,303.42 240.51,250.02 240.72,305.03 240.94,306.27 241.16,220.13 241.38,220.13 241.60,313.27 241.81,313.07 242.03,209.42 242.25,299.14 242.47,150.36 242.68,254.40 242.90,299.89 243.12,302.72 243.34,248.97 243.56,300.20 243.77,243.11 243.99,302.06 244.21,231.55 244.43,243.40 244.65,302.05 244.86,234.09 245.08,311.13 245.30,296.14 245.52,240.83 245.73,304.21 245.95,219.72 246.17,208.39 246.39,306.63 246.61,298.52 246.82,241.44 247.04,238.77 247.26,297.95 247.48,242.16 247.70,309.17 247.91,196.65 248.13,311.30 248.35,299.36 248.57,216.97 248.79,319.79 249.00,233.13 249.22,289.01 249.44,250.03 249.66,309.99 249.87,213.06 250.09,307.15 250.31,256.35 250.53,302.48 250.75,236.88 250.96,237.17 251.18,293.44 251.40,293.52 251.62,251.26 251.84,300.51 252.05,226.34 252.27,304.48 252.49,252.15 252.71,306.36 252.92,244.56 253.14,316.24 253.36,231.56 253.58,307.23 253.80,256.62 254.01,310.56 254.23,234.38 254.45,301.59 254.67,217.42 254.89,181.97 255.10,306.31 255.32,217.01 255.54,302.82 255.76,299.57 255.97,160.33 256.19,307.69 256.41,228.51 256.63,185.41 256.85,305.77 257.06,197.55 257.28,297.77 257.50,246.86 257.72,303.01 257.94,213.91 258.15,326.84 258.37,247.19 258.59,299.29 258.81,248.48 259.02,296.85 259.24,301.09 259.46,201.16 259.68,296.69 259.90,226.86 260.11,236.44 260.33,308.35 260.55,313.56 260.77,227.82 260.99,305.78 261.20,217.30 261.42,224.41 261.64,314.36 261.86,305.01 262.07,243.28 262.29,247.37 262.51,305.60 262.73,297.84 262.95,250.99 263.16,193.23 263.38,292.36 263.60,236.40 263.82,299.34 264.04,303.74 264.25,262.18 264.47,225.01 264.69,299.15 264.91,316.49 265.12,236.97 265.34,245.40 265.56,294.64 265.78,302.03 266.00,226.95 266.21,295.41 266.43,257.49 266.65,241.60 266.87,302.77 267.09,237.61 267.30,307.92 267.52,251.50 267.74,302.39 267.96,249.48 268.18,313.03 268.39,248.14 268.61,297.21 268.83,201.94 269.05,318.95 269.26,235.33 269.48,307.95 269.70,264.83 269.92,300.40 270.14,258.06 270.35,304.85 270.57,307.81 270.79,239.16 271.01,301.94 271.23,249.69 271.44,200.94 271.66,311.16 271.88,232.55 272.10,306.54 272.31,298.50 272.53,243.55 272.75,255.87 272.97,296.83 273.19,194.95 273.40,328.09 273.62,298.64 273.84,225.55 274.06,257.51 274.28,307.66 274.49,291.71 274.71,123.22 274.93,201.96 275.15,316.74 275.36,305.30 275.58,248.51 275.80,306.14 276.02,238.10 276.24,304.42 276.45,240.36 276.67,316.33 276.89,231.42 277.11,214.89 277.33,299.37 277.54,244.20 277.76,346.56 277.98,296.31 278.20,242.72 278.41,204.06 278.63,311.51 278.85,244.60 279.07,299.49 279.29,301.76 279.50,207.50 279.72,216.55 279.94,305.17 280.16,241.87 280.38,304.98 280.59,241.81 280.81,319.87 281.03,303.32 281.25,224.34 281.46,299.20 281.68,245.09 281.90,297.87 282.12,255.47 282.34,254.20 282.55,292.59 282.77,255.00 282.99,340.56 283.21,301.16 283.43,242.91 283.64,311.20 283.86,202.67 284.08,243.87 284.30,297.85 284.52,308.62 284.73,230.79 284.95,239.29 285.17,297.08 285.39,251.84 285.60,298.45 285.82,314.71 286.04,260.99 286.26,320.94 286.48,239.86 286.69,233.88 286.91,315.32 287.13,310.71 287.35,158.67 287.57,318.35 287.78,174.54 288.00,335.62 288.22,236.36 288.44,208.02 288.65,317.12 288.87,242.72 289.09,296.52 289.31,227.94 289.53,303.90 289.74,186.02 289.96,317.08 290.18,245.25 290.40,309.59 290.62,246.44 290.83,329.07 291.05,236.60 291.27,297.83 291.49,306.43 291.70,256.74 291.92,293.60 292.14,246.20 292.36,305.76 292.58,252.52 292.79,241.62 293.01,305.17 293.23,310.41 293.45,198.27 293.67,311.13 293.88,230.90 294.10,307.86 294.32,245.15 294.54,241.05 294.75,315.00 294.97,310.62 295.19,225.41 295.41,302.94 295.63,213.09 295.84,190.21 296.06,308.33 296.28,304.30 296.50,218.39 296.72,220.40 296.93,296.75 297.15,225.48 297.37,313.59 297.59,243.06 297.80,301.09 298.02,261.46 298.24,296.97 298.46,220.83 298.68,316.09 298.89,318.92 299.11,238.82 299.33,322.30 299.55,227.43 299.77,299.80 299.98,238.06 300.20,243.52 300.42,311.70 300.64,194.30 300.85,298.41 301.07,296.39 301.29,237.10 301.51,257.46 301.73,302.05 301.94,235.02 302.16,305.16 302.38,303.62 302.60,214.30 302.82,318.60 303.03,247.20 303.25,253.09 303.47,310.43 303.69,296.99 303.91,223.61 304.12,246.63 304.34,316.81 304.56,308.71 304.78,186.81 304.99,295.43 305.21,231.23 305.43,304.64 305.65,241.90 305.87,211.56 306.08,301.38 306.30,299.15 306.52,244.60 306.74,299.43 306.96,188.59 307.17,253.14 307.39,293.38 307.61,224.08 307.83,330.25 308.04,229.84 308.26,299.22 308.48,308.69 308.70,249.43 308.92,307.57 309.13,245.60 309.35,248.90 309.57,301.66 309.79,304.90 310.01,235.13 310.22,248.76 310.44,305.93 310.66,310.97 310.88,175.12 311.09,234.13 311.31,316.81 311.53,226.49 311.75,303.36 311.97,352.27 312.18,223.11 312.40,209.16 312.62,314.02 312.84,293.52 313.06,240.86 313.27,229.44 313.49,311.35 313.71,309.80 313.93,234.11 314.14,299.15 314.36,246.02 314.58,253.67 314.80,297.21 315.02,302.59 315.23,252.10 315.45,306.33 315.67,161.02 315.89,295.49 316.11,255.75 316.32,297.18 316.54,260.44 316.76,251.95 316.98,316.73 317.19,292.02 317.41,214.45 317.63,220.98 317.85,323.04 318.07,254.37 318.28,294.31 318.50,230.76 318.72,305.23 318.94,203.12 319.16,315.22 319.37,205.59 319.59,299.37 319.81,233.40 320.03,288.27 320.25,311.97 320.46,250.27 320.68,309.24 320.90,238.41 321.12,291.99 321.33,261.48 321.55,255.28 321.77,301.41 321.99,248.14 322.21,299.39 322.42,308.16 322.64,244.86 322.86,230.17 323.08,304.65 323.30,300.22 323.51,231.94 323.73,156.27 323.95,317.48 324.17,252.35 324.38,304.57 324.60,244.24 324.82,312.33 325.04,307.48 325.26,258.36 325.47,302.54 325.69,233.16 325.91,317.04 326.13,241.72 326.35,302.83 326.56,228.53 326.78,245.31 327.00,324.04 327.22,231.40 327.43,311.69 327.65,240.46 327.87,299.04 328.09,300.58 328.31,157.88 328.52,304.51 328.74,240.27 328.96,256.52 329.18,311.97 329.40,239.18 329.61,296.63 329.83,292.35 330.05,236.04 330.27,251.11 330.48,296.22 330.70,243.32 330.92,301.95 331.14,253.56 331.36,296.14 331.57,244.33 331.79,313.41 332.01,253.02 332.23,298.12 332.45,254.11 332.66,298.46 332.88,259.69 333.10,304.97 333.32,297.31 333.53,251.16 333.75,300.43 333.97,240.24 334.19,239.77 334.41,302.23 334.62,243.49 334.84,323.53 335.06,237.54 335.28,303.67 335.50,312.90 335.71,240.79 335.93,218.88 336.15,311.12 336.37,293.51 336.58,236.34 336.80,302.25 337.02,227.33 337.24,302.13 337.46,242.72 337.67,297.85 337.89,242.76 338.11,235.11 338.33,291.69 338.55,246.65 338.76,302.65 338.98,242.01 339.20,300.53 339.42,304.73 339.64,243.76 339.85,195.02 340.07,306.89 340.29,176.93 340.51,311.09 340.72,157.65 340.94,300.87 341.16,313.36 341.38,222.92 341.60,251.91 341.81,298.50 342.03,252.79 342.25,297.78 342.47,261.44 342.69,303.35 342.90,298.72 343.12,217.09 343.34,238.97 343.56,299.52 343.77,240.26 343.99,304.33 344.21,249.76 344.43,302.59 344.65,293.63 344.86,244.68 345.08,240.27 345.30,303.84 345.52,236.36 345.74,294.79 345.95,255.75 346.17,299.03 346.39,302.00 346.61,239.36 346.82,252.21 347.04,302.50 347.26,311.01 347.48,240.59 347.70,300.31 347.91,189.80 348.13,312.48 348.35,224.14 348.57,220.62 348.79,299.31 349.00,248.10 349.22,308.85 349.44,299.30 349.66,222.02 349.87,253.18 350.09,302.59 350.31,313.41 350.53,248.83 350.75,252.69 350.96,297.27 351.18,295.18 351.40,242.20 351.62,252.31 351.84,302.86 352.05,236.97 352.27,326.44 352.49,241.37 352.71,300.05 352.92,303.89 353.14,167.20 353.36,226.85 353.58,297.96 353.80,305.08 354.01,206.23 354.23,227.26 354.45,297.03 354.67,263.01 354.89,317.37 355.10,313.95 355.32,237.93 355.54,219.12 355.76,298.46 355.98,228.49 356.19,306.81 356.41,226.66 356.63,328.11 356.85,310.47 357.06,225.27 357.28,219.47 357.50,307.50 357.72,218.73 357.94,341.96 358.15,229.26 358.37,311.15 358.59,300.36 358.81,249.17 359.03,225.01 359.24,311.83 359.46,319.58 359.68,223.76 359.90,253.36 360.11,299.79 360.33,240.04 360.55,313.61 360.77,261.02 360.99,309.03 361.20,247.70 361.42,303.73 361.64,237.01 361.86,311.33 362.08,245.42 362.29,295.72 362.51,223.29 362.73,310.21 362.95,299.79 363.16,260.45 363.38,225.51 363.60,306.25 363.82,236.47 364.04,305.11 364.25,318.15 364.47,242.44 364.69,297.43 364.91,250.20 365.13,229.37 365.34,302.13 365.56,291.41 365.78,239.07 366.00,298.56 366.21,245.38 366.43,302.78 366.65,251.15 366.87,301.75 367.09,214.72 367.30,300.83 367.52,198.22 367.74,316.32 367.96,226.45 368.18,230.88 368.39,302.94 368.61,247.90 368.83,296.84 369.05,242.02 369.26,300.60 369.48,196.89 369.70,308.69 369.92,251.99 370.14,304.47 370.35,297.77 370.57,244.27 370.79,192.02 371.01,329.02 371.23,295.65 371.44,246.32 371.66,307.23 371.88,248.92 372.10,309.28 372.31,158.29 372.53,335.55 372.75,216.07 372.97,258.34 373.19,296.79 373.40,342.53 373.62,232.07 373.84,224.30 374.06,309.78 374.28,325.75 374.49,253.57 374.71,189.33 374.93,295.60 375.15,245.37 375.37,304.66 375.58,221.89 375.80,302.93 376.02,248.59 376.24,307.88 376.45,295.33 376.67,221.19 376.89,305.66 377.11,240.44 377.33,255.43 377.54,293.77 377.76,226.48 377.98,308.84 378.20,214.49 378.42,294.49 378.63,219.13 378.85,306.34 379.07,214.46 379.29,295.90 379.50,252.81 379.72,295.68 379.94,298.43 380.16,236.00 380.38,304.46 380.59,236.66 380.81,230.59 381.03,298.28 381.25,296.33 381.47,246.25 381.68,294.59 381.90,244.80 382.12,301.39 382.34,246.97 382.55,252.84 382.77,300.58 382.99,299.22 383.21,176.98 383.43,298.68 383.64,243.96 383.86,326.79 384.08,220.15 384.30,298.99 384.52,222.08 384.73,205.57 384.95,296.19 385.17,221.07 385.39,304.76 385.60,250.06 385.82,306.64 386.04,299.99 386.26,229.28 386.48,238.02 386.69,299.63 386.91,313.80 387.13,232.75 387.35,306.59 387.57,237.58 387.78,240.34 388.00,294.39 388.22,252.00 388.44,311.36 388.65,308.24 388.87,237.93 389.09,308.41 389.31,247.51 389.53,300.32 389.74,229.93 389.96,247.70 390.18,306.01 390.40,246.72 390.62,313.44 390.83,248.64 391.05,299.63 391.27,311.73 391.49,241.95 391.71,243.81 391.92,310.11 392.14,213.96 392.36,296.15 392.58,233.80 392.79,296.60 393.01,257.64 393.23,309.48 393.45,244.55 393.67,299.41 393.88,229.78 394.10,301.92 394.32,296.09 394.54,239.95 394.76,247.80 394.97,298.60 395.19,229.42 395.41,300.49 395.63,248.26 395.84,301.66 396.06,243.52 396.28,302.89 396.50,231.21 396.72,299.03 396.93,243.14 397.15,308.37 397.37,300.24 397.59,243.09 397.81,243.98 398.02,325.63 398.24,245.29 398.46,301.26 398.68,252.33 398.89,293.82 399.11,239.46 399.33,298.26 399.55,325.62 399.77,226.09 399.98,212.77 400.20,292.32 400.42,310.45 400.64,248.65 400.86,226.51 401.07,304.76 401.29,230.75 401.51,300.60 401.73,302.44 401.94,253.77 402.16,299.03 402.38,262.90 402.60,294.31 402.82,244.84 403.03,311.17 403.25,252.55 403.47,304.34 403.69,237.86 403.91,235.13 404.12,295.51 404.34,248.53 404.56,300.26 404.78,310.28 404.99,247.82 405.21,306.43 405.43,254.07 405.65,253.52 405.87,304.72 406.08,229.79 406.30,311.55 406.52,303.11 406.74,253.91 406.96,254.55 407.17,319.58 407.39,245.20 407.61,302.34 407.83,227.01 408.04,313.72 408.26,306.48 408.48,231.44 408.70,228.97 408.92,302.11 409.13,251.17 409.35,335.30 409.57,242.73 409.79,303.28 410.01,241.67 410.22,308.29 410.44,304.78 410.66,240.09 410.88,301.86 411.10,257.97 411.31,233.62 411.53,292.92 411.75,289.50 411.97,256.91 412.18,303.98 412.40,216.98 412.62,252.12 412.84,304.65 413.06,215.12 413.27,301.09 413.49,236.98 413.71,295.67 413.93,244.24 414.15,295.68 414.36,224.68 414.58,309.50 414.80,310.79 415.02,259.07 415.23,243.69 415.45,301.32 415.67,246.08 415.89,300.48 416.11,312.48 416.32,249.51 416.54,302.78 416.76,249.43 416.98,246.59 417.20,300.96 417.41,220.84 417.63,302.31 417.85,241.39 418.07,298.56 418.28,309.19 418.50,239.97 418.72,247.82 418.94,290.43 419.16,244.44 419.37,305.88 419.59,260.27 419.81,295.09 420.03,176.67 420.25,300.04 420.46,302.89 420.68,241.64 420.90,292.85 421.12,233.69 421.33,298.99 421.55,252.19 421.77,300.59 421.99,249.90 422.21,251.51 422.42,314.07 422.64,295.52 422.86,224.52 423.08,310.81 423.30,231.59 423.51,250.60 423.73,299.10 423.95,221.24 424.17,309.43 424.38,231.41 424.60,304.11 424.82,309.43 425.04,171.49 425.26,219.72 425.47,317.04 425.69,233.59 425.91,302.33 426.13,248.49 426.35,314.52 426.56,247.22 426.78,304.64 427.00,300.84 427.22,257.86 427.44,302.26 427.65,223.06 427.87,302.30 428.09,247.77 428.31,300.77 428.52,212.69 428.74,233.48 428.96,298.38 429.18,303.77 429.40,231.67 429.61,241.68 429.83,304.02 430.05,226.76 430.27,293.46 430.49,328.98 430.70,215.80 430.92,253.30 431.14,296.89 431.36,239.87 431.57,319.04 431.79,309.40 432.01,246.33 432.23,297.97 432.45,229.14 432.66,229.92 432.88,319.78 433.10,315.62 433.32,241.08 433.54,247.64 433.75,293.00 433.97,250.46 434.19,304.53 434.41,235.36 434.62,317.98 434.84,311.05 435.06,206.72 435.28,303.39 435.50,251.42 435.71,305.71 435.93,257.29 436.15,225.13 436.37,300.70 436.59,243.21 436.80,307.42 437.02,310.74 437.24,222.15 437.46,293.66 437.67,247.29 437.89,307.06 438.11,240.03 438.33,234.37 438.55,309.44 438.76,254.16 438.98,301.48 439.20,306.68 439.42,245.94 439.64,308.42 439.85,222.51 440.07,246.75 440.29,308.50 440.51,226.83 440.72,298.92 440.94,301.64 441.16,250.22 441.38,249.35 441.60,295.95 441.81,230.37 442.03,302.50 442.25,223.60 442.47,313.65 442.69,299.11 442.90,183.23 443.12,247.64 443.34,298.64 443.56,229.39 443.78,296.07 443.99,248.50 444.21,301.61 444.43,241.56 444.65,309.31 444.86,308.02 445.08,235.15 445.30,248.18 445.52,294.06 445.74,240.38 445.95,302.68 446.17,223.39 446.39,330.10 446.61,255.05 446.83,298.93 447.04,300.27 447.26,248.96 447.48,297.35 447.70,255.32 447.91,230.91 448.13,306.92 448.35,187.66 448.57,307.56 448.79,303.78 449.00,220.01 449.22,303.87 449.44,248.35 449.66,325.20 449.88,250.97 450.09,238.32 450.31,299.06 450.53,311.18 450.75,235.40 450.96,255.95 451.18,294.50 451.40,258.06 451.62,292.77 451.84,327.98 452.05,228.81 452.27,252.33 452.49,291.98 452.71,307.75 452.93,251.92 453.14,305.89 453.36,216.64 453.58,295.67 453.80,249.36 454.01,299.75 454.23,248.90 454.45,213.78 454.67,295.64 454.89,245.84 455.10,298.26 455.32,216.51 455.54,298.12 455.76,293.58 455.98,249.35 456.19,317.24 456.41,234.70 456.63,253.35 456.85,301.10 457.06,250.13 457.28,294.82 457.50,223.05 457.72,315.79 457.94,241.45 458.15,298.30 458.37,301.66 458.59,254.06 458.81,295.40 459.03,225.23 459.24,298.82 459.46,245.66 459.68,295.84 459.90,245.44 460.11,297.09 460.33,242.15 460.55,248.52 460.77,305.59 460.99,235.17 461.20,298.80 461.42,247.92 461.64,300.42 461.86,302.36 462.08,255.51 462.29,299.66 462.51,238.20 462.73,297.03 462.95,257.19 463.17,295.48 463.38,261.93 463.60,302.38 463.82,240.99 464.04,300.08 464.25,228.50 464.47,301.49 464.69,235.45 464.91,317.59 465.13,202.05 465.34,297.29 465.56,256.84 465.78,303.50 466.00,234.96 466.22,258.55 466.43,291.34 466.65,302.60 466.87,246.22 467.09,296.34 467.30,250.77 467.52,244.28 467.74,298.79 467.96,296.74 468.18,256.60 468.39,209.95 468.61,298.02 468.83,298.41 469.05,257.07 469.27,239.22 469.48,313.63 469.70,299.78 469.92,234.64 470.14,306.81 470.35,237.45 470.57,298.32 470.79,237.15 471.01,294.66 471.23,255.05 471.44,319.58 471.66,217.29 471.88,297.09 472.10,254.69 472.32,301.03 472.53,240.95 472.75,305.88 472.97,242.26 473.19,290.27 473.40,251.85 473.62,296.63 473.84,225.03 474.06,231.38 474.28,307.64 474.49,257.91 474.71,307.31 474.93,217.44 475.15,294.95 475.37,305.02 475.58,253.74 475.80,227.65 476.02,315.42 476.24,294.37 476.45,238.91 476.67,289.35 476.89,233.25 477.11,247.76 477.33,304.79 477.54,307.54 477.76,245.42 477.98,118.95 478.20,306.86 478.42,304.09 478.63,252.76 478.85,211.73 479.07,317.88 479.29,304.04 479.51,255.19 479.72,301.85 479.94,247.68 480.16,295.20 480.38,230.81 480.59,296.01 480.81,257.77 481.03,296.44 481.25,241.88 481.47,252.97 481.68,304.79 481.90,308.44 482.12,236.96 482.34,227.72 482.56,319.26 482.77,243.02 482.99,289.39 483.21,247.64 483.43,299.49 483.64,302.59 483.86,242.19 484.08,315.18 484.30,230.84 484.52,297.86 484.73,234.62 484.95,199.02 485.17,307.97 485.39,291.45 485.61,231.63 485.82,294.05 486.04,241.08 486.26,302.75 486.48,240.45 486.69,242.29 486.91,300.17 487.13,181.45 487.35,300.23 487.57,253.51 487.78,291.72 488.00,309.02 488.22,256.85 488.44,215.54 488.66,305.87 488.87,254.41 489.09,298.20 489.31,230.47 489.53,296.04 489.74,252.09 489.96,292.65 490.18,295.79 490.40,220.45 490.62,299.94 490.83,260.02 491.05,242.06 491.27,295.34 491.49,305.30 491.71,246.90 491.92,238.82 492.14,306.68 492.36,244.31 492.58,293.92 492.79,300.21 493.01,251.57 493.23,254.24 493.45,301.61 493.67,248.90 493.88,295.05 494.10,302.88 494.32,253.37 494.54,203.96 494.76,294.61 494.97,257.92 495.19,295.74 495.41,243.03 495.63,292.55 495.84,245.78 496.06,292.23 496.28,292.05 496.50,230.53 496.72,260.14 496.93,296.85 497.15,300.55 497.37,239.41 497.59,252.83 497.81,309.25 498.02,308.75 498.24,247.11 498.46,249.90 498.68,301.00 498.90,247.56 499.11,295.37 499.33,296.60 499.55,252.39 499.77,297.28 499.98,260.25 500.20,230.66 500.42,312.49 500.64,291.71 500.86,257.40 501.07,308.68 501.29,249.10 501.51,298.38 501.73,251.75 501.95,298.66 502.16,246.88 502.38,223.51 502.60,318.25 502.82,303.46 503.03,243.60 503.25,233.44 503.47,307.57 503.69,290.43 503.91,239.19 504.12,301.44 504.34,257.05 504.56,250.11 504.78,300.93 505.00,231.74 505.21,334.21 505.43,294.81 505.65,212.23 505.87,304.54 506.08,253.32 506.30,307.34 506.52,241.89 506.74,234.74 506.96,298.85 507.17,308.61 507.39,193.97 507.61,247.33 507.83,291.82 508.05,304.62 508.26,219.56 508.48,299.29 508.70,248.44 508.92,295.42 509.13,228.32 509.35,224.61 509.57,295.72 509.79,211.41 510.01,300.27 510.22,316.44 510.44,253.25 510.66,310.17 510.88,241.51 511.10,234.34 511.31,295.50 511.53,239.48 511.75,347.23 511.97,232.58 512.18,306.70 512.40,311.69 512.62,250.86 512.84,186.68 513.06,314.87 513.27,179.53 513.49,301.22 513.71,210.21 513.93,293.36 514.15,305.46 514.36,231.85 514.58,306.56 514.80,261.51 515.02,306.18 515.24,243.51 515.45,292.53 515.67,208.15 515.89,256.47 516.11,300.90 516.32,295.76 516.54,216.94 516.76,229.56 516.98,293.48 517.20,322.41 517.41,154.74 517.63,240.53 517.85,308.43 518.07,224.64 518.29,296.30 518.50,295.31 518.72,255.47 518.94,147.08 519.16,299.50 519.37,324.39 519.59,234.63 519.81,250.87 520.03,295.66 520.25,302.20 520.46,252.71 520.68,303.19 520.90,256.29 521.12,205.93 521.34,303.74 521.55,208.57 521.77,329.50 521.99,235.39 522.21,302.23 522.42,192.59 522.64,296.68 522.86,296.46 523.08,243.73 523.30,305.26 523.51,167.62 523.73,251.58 523.95,309.46 524.17,309.01 524.39,249.42 524.60,310.24 524.82,192.39 525.04,232.37 525.26,316.03 525.47,307.04 525.69,207.59 525.91,243.26 526.13,297.00 526.35,235.76 526.56,316.67 526.78,292.92 527.00,252.77 527.22,303.17 527.44,240.28 527.65,308.08 527.87,208.60 528.09,248.85 528.31,300.46 528.52,253.34 528.74,294.22 528.96,311.53 529.18,244.82 529.40,317.35 529.61,245.56 529.83,301.04 530.05,227.12 530.27,306.82 530.49,220.94 530.70,306.64 530.92,227.42 531.14,310.97 531.36,234.77 531.57,302.58 531.79,216.04 532.01,232.71 532.23,300.17 532.45,312.61 532.66,249.45 532.88,313.04 533.10,246.34 533.32,309.05 533.54,234.43 533.75,188.50 533.97,311.34 534.19,242.92 534.41,295.04 534.63,239.00 534.84,298.56 535.06,297.79 535.28,226.27 535.50,304.89 535.71,245.98 535.93,254.91 536.15,295.35 536.37,246.57 536.59,303.13 536.80,330.33 537.02,255.32 537.24,231.16 537.46,307.82 537.68,292.36 537.89,242.14 538.11,296.36 538.33,244.92 538.55,250.04 538.76,293.08 538.98,293.24 539.20,246.22 539.42,297.51 539.64,254.92 539.85,236.88 540.07,304.36 540.29,236.58 540.51,303.08 540.73,304.50 540.94,239.85 541.16,295.28 541.38,242.56 541.60,293.98 541.81,253.18 542.03,222.02 542.25,293.70 542.47,257.22 542.69,293.82 542.90,289.59 543.12,252.16 543.34,296.08 543.56,254.28 543.78,303.69 543.99,239.29 544.21,304.36 544.43,244.30 544.65,318.18 544.86,247.68 545.08,293.69 545.30,258.23 545.52,251.33 545.74,296.00 545.95,251.25 546.17,298.75 546.39,313.72 546.61,226.31 546.83,313.28 547.04,252.84 547.26,235.88 547.48,301.96 547.70,248.21 547.91,304.14 548.13,298.14 548.35,241.91 548.57,299.56 548.79,244.75 549.00,294.26 549.22,218.80 549.44,252.67 549.66,310.87 549.88,231.71 550.09,297.73 550.31,298.68 550.53,184.66 550.75,239.30 550.97,309.47 551.18,221.82 551.40,309.25 551.62,301.01 551.84,257.75 552.05,297.95 552.27,240.84 552.49,299.84 552.71,253.29 552.93,310.10 553.14,251.79 553.36,291.58 553.58,231.24 553.80,320.76 554.02,211.17 554.23,316.15 554.45,217.79 554.67,243.13 554.89,293.74 555.10,301.97 555.32,244.60 555.54,313.32 555.76,250.21 555.98,259.89 556.19,296.52 556.41,263.85 556.63,289.76 556.85,172.62 557.07,299.12 557.28,236.98 557.50,312.76 557.72,298.98 557.94,248.54 558.15,250.72 558.37,296.71 558.59,228.03 558.81,357.73 559.03,299.15 559.24,201.44 559.46,196.63 559.68,308.27 559.90,296.42 560.12,265.00 560.33,239.48 560.55,293.06 560.77,220.91 560.99,302.18 561.20,251.75 561.42,292.10 561.64,300.64 561.86,254.03 562.08,244.41 562.29,326.25 562.51,297.30 562.73,241.67 562.95,308.99 563.17,251.84 563.38,303.35 563.60,240.64 563.82,300.01 564.04,227.43 564.25,241.99 564.47,321.49 564.69,179.66 564.91,316.18 565.13,314.81 565.34,248.04 565.56,295.67 565.78,255.20 566.00,306.53 566.22,242.75 566.43,252.19 566.65,295.26 566.87,173.21 567.09,319.22 567.30,232.22 567.52,318.66 567.74,255.02 567.96,299.47 568.18,306.31 568.39,254.93 568.61,302.35 568.83,228.77 569.05,294.07 569.27,240.95 569.48,299.62 569.70,232.43 569.92,328.50 570.14,237.82 570.36,297.44 570.57,258.37 570.79,294.42 571.01,222.98 571.23,244.78 571.44,307.08 571.66,301.12 571.88,243.51 572.10,255.74 572.32,298.89 572.53,303.74 572.75,254.81 572.97,292.79 573.19,234.95 573.41,308.84 573.62,252.68 573.84,300.45 574.06,236.10 574.28,244.18 574.49,295.26 574.71,213.25 574.93,313.28 575.15,293.85 575.37,253.05 575.58,301.53 575.80,211.11 576.02,230.07 576.24,341.55 576.46,258.62 576.67,296.45 576.89,291.29 577.11,258.17 577.33,301.70 577.54,238.14 577.76,206.84 577.98,296.30 578.20,307.73 578.42,249.18 578.63,222.05 578.85,298.10 579.07,300.35 579.29,235.54 579.51,236.89 579.72,306.81 579.94,206.61 580.16,292.20 580.38,319.24 580.59,237.98 580.81,226.93 581.03,304.19 581.25,260.08 581.47,297.70 581.68,189.75 581.90,297.65 582.12,250.14 582.34,303.31 582.56,184.92 582.77,312.56 582.99,305.57 583.21,244.71 583.43,249.76 583.64,289.38 583.86,227.38 584.08,307.52 584.30,297.25 584.52,251.52 584.73,222.93 584.95,310.62 585.17,298.04 585.39,253.11 585.61,232.47 585.82,294.64 586.04,235.49 586.26,295.87 586.48,293.90 586.70,227.46 586.91,311.79 587.13,227.82 587.35,251.54 587.57,307.08 587.78,248.79 588.00,289.87 588.22,295.77 588.44,244.88 588.66,302.97 588.87,250.87 589.09,239.46 589.31,292.00 589.53,293.30 589.75,253.18 589.96,290.88 590.18,260.31 590.40,294.07 590.62,258.61 590.83,299.67 591.05,246.51 591.27,230.91 591.49,297.49 591.71,246.99 591.92,313.18 592.14,250.35 592.36,292.13 592.58,245.79 592.80,299.71 593.01,308.14 593.23,224.02 593.45,296.16 593.67,194.75 593.88,299.37 594.10,161.85 594.32,295.83 594.54,251.94 594.76,300.83 594.97,232.29 595.19,299.48 595.41,253.22 595.63,308.55 595.85,242.44 596.06,239.31 596.28,302.69 596.50,227.98 596.72,306.79 596.93,289.42 597.15,244.04 597.37,291.50 597.59,234.53 597.81,252.80 598.02,293.52 598.24,232.44 598.46,312.58 598.68,290.84 598.90,251.87 599.11,249.66 599.33,294.45 599.55,246.11 599.77,295.10 599.98,249.70 600.20,307.37 600.42,242.49 600.64,294.20 600.86,312.95 601.07,231.64 601.29,311.66 601.51,257.77 601.73,295.09 601.95,169.17 602.16,244.40 602.38,300.43 602.60,299.69 602.82,242.57 603.03,295.05 603.25,239.01 603.47,296.50 603.69,253.77 603.91,297.91 604.12,242.42 604.34,246.35 604.56,311.83 604.78,303.62 605.00,252.01 605.21,225.51 605.43,298.16 605.65,237.14 605.87,298.62 606.09,295.43 606.30,241.39 606.52,292.44 606.74,213.47 606.96,297.22 607.17,240.46 607.39,235.66 607.61,305.36 607.83,298.75 608.05,238.37 608.26,308.63 608.48,223.41 608.70,229.47 608.92,298.89 609.14,231.63 609.35,296.22 609.57,312.34 609.79,224.58 610.01,293.52 610.22,222.50 610.44,260.37 610.66,291.63 610.88,237.72 611.10,307.20 611.31,252.81 611.53,310.00 611.75,260.96 611.97,289.01 612.19,245.81 612.40,302.75 612.62,243.12 612.84,296.45 613.06,294.73 613.27,235.64 613.49,214.81 613.71,313.87 613.93,248.85 614.15,307.51 614.36,250.78 614.58,319.36 614.80,237.40 615.02,301.74 615.24,294.96 615.45,172.30 615.67,256.18 615.89,296.25 616.11,257.33 616.32,303.06 616.54,251.37 616.76,302.70 616.98,324.39 617.20,208.51 617.41,313.21 617.63,240.55 617.85,299.96 618.07,255.42 618.29,296.80 618.50,251.56 618.72,238.88 618.94,296.65 619.16,234.87 619.37,301.12 619.59,255.38 619.81,297.96 620.03,301.34 620.25,252.64 620.46,246.55 620.68,299.64 620.90,301.76 621.12,235.00 621.34,210.42 621.55,303.40 621.77,308.26 621.99,229.45 622.21,233.66 622.43,293.99 622.64,247.29 622.86,297.13 623.08,294.92 623.30,245.84 623.51,303.51 623.73,229.90 623.95,230.57 624.17,299.13 624.39,225.87 624.60,297.23 624.82,235.02 625.04,293.96 625.26,250.06 625.48,290.03 625.69,241.35 625.91,308.13 626.13,202.78 626.35,310.46 626.56,289.85 626.78,239.47 627.00,313.71 627.22,249.90 627.44,316.61 627.65,236.66 627.87,246.80 628.09,298.90 628.31,345.11 628.53,236.34 628.74,298.53 628.96,197.31 629.18,241.67 629.40,299.83 629.61,252.53 629.83,308.69 630.05,263.81 630.27,299.89 630.49,239.65 630.70,299.74 630.92,298.71 631.14,252.54 631.36,297.08 631.58,257.63 631.79,265.31 632.01,305.43 632.23,227.69 632.45,291.39 632.66,315.64 632.88,257.30 633.10,243.88 633.32,315.41 633.54,225.33 633.75,295.43 633.97,292.02 634.19,257.66 634.41,304.10 634.63,187.74 634.84,295.82 635.06,225.11 635.28,313.05 635.50,243.40 635.71,299.72 635.93,234.86 636.15,296.69 636.37,246.04 636.59,175.31 636.80,339.91 637.02,246.36 637.24,322.49 637.46,230.23 637.68,302.15 637.89,249.29 638.11,293.41 638.33,297.30 638.55,265.50 638.76,248.40 638.98,301.74 639.20,244.00 639.42,300.96 639.64,300.92 639.85,245.77 640.07,298.43 640.29,238.97 640.51,292.68 640.73,262.25 640.94,258.23 641.16,310.00 641.38,245.42 641.60,298.53 641.82,258.44 642.03,290.88 642.25,299.05 642.47,243.27 642.69,253.69 642.90,297.60 643.12,222.47 643.34,293.06 643.56,236.42 643.78,303.09 643.99,299.13 644.21,245.16 644.43,257.31 644.65,304.12 644.87,243.80 645.08,297.80 645.30,294.33 645.52,244.28 645.74,304.24 645.95,251.16 646.17,244.27 646.39,306.07 646.61,302.93 646.83,229.00 647.04,293.58 647.26,251.02 647.48,238.48 647.70,304.91 647.92,230.54 648.13,306.52 648.35,251.72 648.57,304.25 648.79,251.36 649.00,307.35 649.22,237.49 649.44,303.21 649.66,299.11 649.88,221.07 650.09,296.75 650.31,251.69 650.53,163.85 650.75,310.98 650.97,293.67 651.18,226.76 651.40,294.61 651.62,219.62 651.84,254.63 652.05,300.94 652.27,300.39 652.49,247.65 652.71,294.02 652.93,201.58 653.14,254.82 653.36,309.23 653.58,297.68 653.80,236.70 654.02,309.81 654.23,206.34 654.45,300.88 654.67,255.89 654.89,236.46 655.10,302.92 655.32,304.93 655.54,253.43 655.76,233.21 655.98,317.57 656.19,309.08 656.41,237.46 656.63,240.62 656.85,301.75 657.07,301.45 657.28,251.03 657.50,297.80 657.72,214.04 657.94,305.05 658.16,246.35 658.37,313.82 658.59,203.54 658.81,291.01 659.03,148.52 659.24,309.53 659.46,240.01 659.68,209.93 659.90,306.22 660.12,262.97 660.33,293.86 660.55,253.20 660.77,307.05 660.99,250.05 661.21,300.86 661.42,295.12 661.64,224.71 661.86,262.14 662.08,292.95 662.29,298.56 662.51,253.80 662.73,301.33 662.95,238.45 663.17,253.10 663.38,288.44 663.60,300.20 663.82,255.50 664.04,253.19 664.26,305.10 664.47,297.93 664.69,243.41 664.91,294.09 665.13,226.07 665.34,212.13 665.56,309.85 665.78,303.44 666.00,214.36 666.22,174.89 666.43,320.13 666.65,298.78 666.87,228.33 667.09,295.37 667.31,251.59 667.52,251.13 667.74,299.05 667.96,236.31 668.18,305.11 668.39,309.08 668.61,242.81 668.83,305.17 669.05,251.17 669.27,199.90 669.48,306.50 669.70,237.00 669.92,300.06 670.14,314.66 670.36,251.44 670.57,220.19 670.79,301.41 671.01,298.18 671.23,251.48 671.44,294.48 671.66,263.17 671.88,224.05 672.10,296.59 672.32,299.21 672.53,247.42 672.75,302.77 672.97,232.23 673.19,253.32 673.41,303.33 673.62,245.81 673.84,319.44 674.06,254.89 674.28,296.67 674.49,296.30 674.71,237.25 674.93,305.75 675.15,247.34 675.37,302.98 675.58,223.34 675.80,223.03 676.02,303.08 676.24,247.55 676.46,312.59 676.67,215.16 676.89,319.95 677.11,239.58 677.33,322.74 677.55,302.02 677.76,244.45 677.98,293.45 678.20,253.49 678.42,329.56 678.63,255.57 678.85,321.69 679.07,234.07 679.29,251.83 679.51,301.01 679.72,296.79 679.94,243.57 680.16,243.08 680.38,295.64 680.60,300.17 680.81,240.38 681.03,240.83 681.25,305.13 681.47,332.81 681.68,238.43 681.90,247.68 682.12,297.25 682.34,214.72 682.56,310.53 682.77,316.21 682.99,258.04 683.21,249.50 683.43,300.59 683.65,309.15 683.86,254.68 684.08,233.87 684.30,309.58 684.52,301.17 684.73,215.92 684.95,300.23 685.17,248.98 685.39,293.39 685.61,234.00 685.82,241.60 686.04,307.38 686.26,258.85 686.48,303.92 686.70,306.59 686.91,251.88 687.13,291.37 687.35,224.18 687.57,307.48 687.78,250.40 688.00,296.12 688.22,240.22 688.44,219.33 688.66,310.08 688.87,299.26 689.09,216.84 689.31,212.49 689.53,313.46 689.75,341.71 689.96,248.61 690.18,320.46 690.40,240.26 690.62,305.89 690.83,225.37 691.05,229.55 691.27,308.14 691.49,232.53 691.71,308.91 691.92,196.71 692.14,304.26 692.36,308.50 692.58,237.47 692.80,227.98 693.01,294.32 693.23,253.04 693.45,296.89 693.67,297.21 693.89,228.82 694.10,305.81 694.32,252.96 694.54,243.77 694.76,304.80 694.97,315.88 695.19,261.03 695.41,300.42 695.63,213.92 695.85,252.97 696.06,304.86 696.28,215.05 696.50,327.43 696.72,313.69 696.94,252.35 697.15,307.23 697.37,240.18 697.59,253.28 697.81,307.03 698.02,298.34 698.24,212.20 698.46,297.97 698.68,249.08 698.90,236.09 699.11,318.43 699.33,233.94 699.55,307.70 699.77,213.96 699.99,334.77 700.20,215.06 700.42,313.48 700.64,302.43 700.86,226.24 701.07,305.11 701.29,248.95 701.51,298.06 701.73,247.79 701.95,294.21 702.16,252.52 702.38,307.29 702.60,241.55 702.82,304.80 703.04,243.83 703.25,302.18 703.47,244.90 703.69,304.42 703.91,225.60 704.12,235.71 704.34,298.98 704.56,250.62 704.78,296.30 705.00,317.22 705.21,227.18 705.43,237.40 705.65,303.87 705.87,182.03 706.09,304.95 706.30,312.13 706.52,234.86 706.74,296.30 706.96,231.37 707.17,215.37 707.39,305.52 707.61,298.97 707.83,222.80 708.05,310.04 708.26,235.90 708.48,295.90 708.70,245.48 708.92,313.80 709.14,251.27 709.35,258.75 709.57,297.45 709.79,291.38 710.01,242.74 710.22,314.48 710.44,255.97 710.66,220.43 710.88,308.30 711.10,295.38 711.31,250.01 711.53,239.41 711.75,325.59 711.97,309.13 712.19,251.00 712.40,238.34 712.62,317.78 712.84,299.22 713.06,252.21 713.28,245.63 713.49,306.76 713.71,310.83 713.93,205.80 714.15,349.77 714.36,230.84 714.58,306.82 714.80,219.92 715.02,306.45 715.24,234.36 715.45,191.64 715.67,304.81 715.89,306.81 716.11,230.66 716.33,298.13 716.54,227.54 716.76,294.36 716.98,251.85 717.20,297.68 717.41,262.20 717.63,307.80 717.85,234.91 718.07,223.23 718.29,308.75 718.50,318.82 718.72,247.26 718.94,313.00 719.16,206.09 719.38,307.56 719.59,241.65 719.81,320.81 720.03,251.80 720.25,295.49 720.46,248.51 720.68,300.34 720.90,245.81 721.12,226.61 721.34,329.07 721.55,304.48 721.77,251.09 721.99,315.53 722.21,244.83 722.43,185.58 722.64,311.95 722.86,320.28 723.08,220.31 723.30,300.11 723.51,256.17 723.73,248.11 723.95,313.61 724.17,303.83 724.39,248.48 724.60,246.98 724.82,309.75 725.04,219.87 725.26,324.20 725.48,302.64 725.69,196.22 725.91,309.58 726.13,233.68 726.35,308.07 726.56,238.72 726.78,303.49 727.00,247.86 727.22,198.67 727.44,304.98 727.65,72.27 727.87,301.92 728.09,299.07 728.31,230.29 728.53,250.07 728.74,303.29 728.96,315.39 729.18,250.16 729.40,212.45 729.62,303.65 729.83,300.61 730.05,240.42 730.27,300.82 730.49,251.82 730.70,214.56 730.92,313.32 731.14,295.60 731.36,184.82 731.58,311.04 731.79,187.16 732.01,214.65 732.23,291.81 732.45,244.24 732.67,294.18 732.88,240.06 733.10,302.07 733.32,291.51 733.54,261.90 733.75,306.46 733.97,234.91 734.19,251.31 734.41,298.19 734.63,248.26 734.84,303.43 735.06,304.92 735.28,219.50 735.50,302.32 735.72,255.34 735.93,305.87 736.15,261.52 736.37,219.82 736.59,296.32 736.80,234.85 737.02,305.06 737.24,242.97 737.46,298.03 737.68,244.29 737.89,300.13 738.11,210.34 738.33,299.46 738.55,319.82 738.77,235.26 738.98,236.40 739.20,298.59 739.42,302.67 739.64,248.46 739.85,290.12 740.07,257.20 740.29,300.27 740.51,262.76 740.73,250.80 740.94,304.23 741.16,308.88 741.38,209.54 741.60,238.31 741.82,298.36 742.03,292.23 742.25,247.41 742.47,303.67 742.69,245.59 742.90,257.91 743.12,300.95 743.34,316.11 743.56,250.04 743.78,295.16 743.99,252.24 744.21,311.99 744.43,233.10 744.65,244.97 744.87,297.08 745.08,302.15 745.30,241.85 745.52,243.25 745.74,307.03 745.96,299.92 746.17,244.55 746.39,253.36 746.61,334.07 746.83,240.50 747.04,303.41 747.26,253.22 747.48,313.10 747.70,321.04 747.92,218.89 748.13,298.08 748.35,237.68 748.57,315.94 748.79,230.67 749.01,245.10 749.22,311.57 749.44,318.34 749.66,221.80 749.88,301.69 750.09,252.71 750.31,300.83 750.53,233.61 750.75,338.48 750.97,256.38 751.18,303.48 751.40,225.30 751.62,303.11 751.84,254.45 752.06,294.33 752.27,225.54 752.49,314.26 752.71,250.70 752.93,254.35 753.14,295.71 753.36,311.28 753.58,252.07 753.80,321.70 754.02,236.12 754.23,247.39 754.45,317.74 754.67,300.19 754.89,242.11 755.11,305.65 755.32,254.70 755.54,261.00 755.76,296.98 755.98,236.71 756.19,294.59 756.41,302.58 756.63,250.59 756.85,246.80 757.07,300.48 757.28,216.54 757.50,309.25 757.72,309.19 757.94,215.20 758.16,312.41 758.37,222.56 758.59,307.40 758.81,259.66 759.03,307.99 759.24,233.66 759.46,220.46 759.68,304.02 759.90,196.73 760.12,328.83 760.33,302.05 760.55,249.57 760.77,309.43 760.99,249.63 761.21,300.08 761.42,242.56 761.64,300.71 761.86,233.87 762.08,319.54 762.29,224.22 762.51,234.96 762.73,301.74 762.95,302.39 763.17,257.81 763.38,223.23 763.60,316.71 763.82,298.10 764.04,236.56 764.26,302.69 764.47,237.51 764.69,319.45 764.91,234.98 765.13,235.08 765.35,321.67 765.56,247.50 765.78,295.41 766.00,248.81 766.22,298.10 766.43,295.95 766.65,214.74 766.87,306.59 767.09,235.94 767.31,308.34 767.52,142.15 767.74,255.15 767.96,305.70 768.18,300.22 768.40,240.77 768.61,232.68 768.83,309.91 769.05,241.69 769.27,301.37 769.48,241.07 769.70,302.58 769.92,290.65 770.14,254.61 770.36,296.70 770.57,196.81 770.79,300.19 771.01,250.48 771.23,317.02 771.45,221.14 771.66,236.55 771.88,297.42 772.10,252.72 772.32,299.76 772.53,298.78 772.75,241.50 772.97,301.76 773.19,252.84 773.41,255.27 773.62,297.44 773.84,244.08 774.06,300.55 774.28,290.23 774.50,250.08 774.71,227.33 774.93,294.82 775.15,245.83 775.37,316.97 775.58,237.45 775.80,303.24 776.02,308.87 776.24,253.65 776.46,308.30 776.67,247.49 776.89,189.27 777.11,303.84 777.33,256.56 777.55,300.22 777.76,300.09 777.98,246.39 778.20,233.38 778.42,331.35 778.63,245.00 778.85,298.90 779.07,242.47 779.29,301.87 779.51,172.76 779.72,329.23 779.94,304.58 780.16,258.36 780.38,251.80 780.60,298.63 780.81,298.09 781.03,237.06 781.25,323.51 781.47,241.89 781.69,250.42 781.90,295.27 782.12,232.56 782.34,296.48 782.56,309.49 782.77,256.23 782.99,300.52 783.21,217.12 783.43,297.09 783.65,245.16 783.86,261.44 784.08,312.24 784.30,304.43 784.52,251.61 784.74,301.12 784.95,234.55 785.17,221.17 785.39,301.16 785.61,256.70 785.82,311.58 786.04,239.86 786.26,301.47 786.48,232.88 786.70,299.10 786.91,302.02 787.13,251.29 787.35,305.01 787.57,248.94 787.79,236.22 788.00,297.33 788.22,310.98 788.44,251.27 788.66,295.90 788.87,191.20 789.09,305.70 789.31,262.76 789.53,227.22 789.75,298.62 789.96,244.79 790.18,298.74 790.40,215.67 790.62,296.96 790.84,317.80 791.05,252.07 791.27,327.15 791.49,250.40 791.71,340.42 791.92,233.53 792.14,313.98 792.36,204.97 792.58,242.20 792.80,302.21 793.01,306.82 793.23,235.59 793.45,236.64 793.67,302.85 793.89,207.40 794.10,297.99 794.32,306.87 794.54,254.66 794.76,249.41 794.97,312.35 795.19,238.72 795.41,309.92 795.63,312.89 795.85,245.87 796.06,299.51 796.28,248.10 796.50,313.84 796.72,244.63 796.94,231.67 797.15,305.49 797.37,242.18 797.59,303.27 797.81,295.56 798.02,198.89 798.24,245.99 798.46,296.75 798.68,193.34 798.90,315.32 799.11,298.60 799.33,246.86 799.55,304.76 799.77,210.90 799.99,309.96 800.20,179.97 800.42,239.19 800.64,298.37 800.86,233.89 801.08,293.65 801.29,304.73 801.51,247.42 801.73,325.11 801.95,254.28 802.16,243.42 802.38,306.36 802.60,221.33 802.82,324.71 803.04,306.05 803.25,254.95 803.47,295.49 803.69,232.36 803.91,297.98 804.13,231.47 804.34,231.15 804.56,302.68 804.78,251.22 805.00,308.55 805.21,247.36 805.43,297.70 805.65,309.50 805.87,217.67 806.09,299.51 806.30,254.59 806.52,298.40 806.74,247.02 806.96,222.00 807.18,301.09 807.39,304.86 807.61,244.23 807.83,234.39 808.05,290.98 808.26,227.84 808.48,313.82 808.70,243.64 808.92,304.28 809.14,260.33 809.35,313.41 809.57,242.26 809.79,306.95 810.01,310.54 810.23,253.98 810.44,300.09 810.66,246.99 810.88,307.44 811.10,240.75 811.31,231.43 811.53,306.62 811.75,235.24 811.97,301.28 812.19,187.65 812.40,327.31 812.62,254.02 812.84,298.39 813.06,315.24 813.28,257.35 813.49,298.49 813.71,248.51 813.93,253.24 814.15,299.19 814.36,229.21 814.58,305.19 814.80,247.95 815.02,292.14 815.24,297.46 815.45,252.74 815.67,305.57 815.89,236.28 816.11,294.89 816.33,231.96 816.54,310.88 816.76,244.47 816.98,245.45 817.20,307.03 817.42,301.34 817.63,242.08 817.85,304.48 818.07,256.60 818.29,235.96 818.50,301.60 818.72,316.41 818.94,231.58 819.16,214.26 819.38,332.68 819.59,300.98 819.81,187.77 820.03,302.89 820.25,243.18 820.47,192.40 820.68,297.56 820.90,236.87 821.12,307.45 821.34,252.92 821.55,299.12 821.77,307.37 821.99,257.47 822.21,247.86 822.43,317.78 822.64,221.07 822.86,318.09 823.08,303.20 823.30,234.27 823.52,303.66 823.73,259.56 823.95,294.78 824.17,251.16 824.39,299.58 824.60,263.28 824.82,254.66 825.04,308.98 825.26,300.20 825.48,256.86 825.69,307.75 825.91,257.06 826.13,310.80 826.35,221.97 826.57,305.42 826.78,251.91 827.00,160.60 827.22,303.77 827.44,240.14 827.65,317.12 827.87,170.27 828.09,308.43 828.31,298.96 828.53,222.76 828.74,256.45 828.96,294.45 829.18,246.74 829.40,298.01 829.62,302.43 829.83,219.37 830.05,256.06 830.27,310.70 830.49,310.08 830.70,248.82 830.92,229.40 831.14,303.20 831.36,249.42 831.58,306.22 831.79,303.92 832.01,241.84 832.23,298.91 832.45,254.68 832.67,293.11 832.88,252.05 833.10,313.99 833.32,240.05 833.54,189.21 833.75,319.13 833.97,298.30 834.19,239.89 834.41,298.57 834.63,223.03 834.84,301.30 835.06,228.18 835.28,292.74 835.50,223.64 835.72,342.70 835.93,238.51 836.15,295.14 836.37,238.76 836.59,310.05 836.81,220.71 837.02,307.27 837.24,248.97 837.46,258.84 837.68,308.75 837.89,234.90 838.11,321.96 838.33,298.21 838.55,251.40 838.77,237.33 838.98,301.13 839.20,250.03 839.42,298.39 839.64,316.50 839.86,192.04 840.07,326.15 840.29,241.41 840.51,312.49 840.73,246.45 840.94,241.85 841.16,303.56 841.38,294.28 841.60,255.03 841.82,234.48 842.03,301.22 842.25,242.59 842.47,312.33 842.69,235.62 842.91,299.86 843.12,309.50 843.34,197.60 843.56,314.21 843.78,207.34 843.99,307.64 844.21,211.78 844.43,323.90 844.65,251.47 844.87,239.69 845.08,299.12 845.30,255.82 845.52,302.38 845.74,298.79 845.96,220.52 846.17,246.91 846.39,303.68 846.61,298.18 846.83,194.83 847.04,239.53 847.26,315.06 847.48,246.74 847.70,305.39 847.92,186.69 848.13,306.34 848.35,234.77 848.57,306.37 848.79,245.67 849.01,304.20 849.22,237.49 849.44,297.37 849.66,238.91 849.88,303.75 850.09,237.01 850.31,308.92 850.53,251.32 850.75,307.09 850.97,251.79 851.18,292.64 851.40,304.22 851.62,168.83 851.84,176.11 852.06,340.67 852.27,304.99 852.49,251.23 852.71,233.73 852.93,293.39 853.15,252.20 853.36,293.86 853.58,304.02 853.80,254.03 854.02,313.08 854.23,222.70 854.45,247.49 854.67,307.96 854.89,289.66 855.11,248.50 855.32,169.88 855.54,304.03 855.76,233.46 855.98,312.44 856.20,300.84 856.41,234.81 856.63,308.62 856.85,245.40 857.07,299.85 857.28,226.02 857.50,309.85 857.72,227.87 857.94,322.01 858.16,239.25 858.37,303.48 858.59,218.56 858.81,245.15 859.03,306.51 859.25,228.53 859.46,299.51 859.68,299.58 859.90,235.24 860.12,319.21 860.33,173.05 860.55,233.32 860.77,298.93 860.99,224.14 861.21,319.50 861.42,319.75 861.64,238.64 861.86,295.37 862.08,235.14 862.30,300.10 862.51,250.01 862.73,245.50 862.95,302.38 863.17,262.00 863.38,299.45 863.60,299.75 863.82,254.56 864.04,304.70 864.26,242.21 864.47,258.19 864.69,300.81 864.91,244.01 865.13,313.75 865.35,221.54 865.56,294.64 865.78,300.76 866.00,253.02 866.22,299.83 866.43,237.10 866.65,247.79 866.87,306.55 867.09,311.17 867.31,222.07 867.52,295.47 867.74,230.65 867.96,207.72 868.18,305.55 868.40,259.32 868.61,293.20 868.83,240.04 869.05,297.40 869.27,198.23 869.48,293.57 869.70,252.43 869.92,306.97 870.14,230.87 870.36,303.08 870.57,296.32 870.79,247.40 871.01,294.22 871.23,204.61 871.45,303.16 871.66,248.42 871.88,291.23 872.10,200.20 872.32,336.13 872.54,232.04 872.75,300.59 872.97,257.40 873.19,192.91 873.41,297.41 873.62,298.27 873.84,245.14 874.06,294.30 874.28,238.53 874.50,312.94 874.71,248.28 874.93,308.69 875.15,230.29 875.37,310.84 875.59,255.57 875.80,305.75 876.02,210.13 876.24,233.57 876.46,301.31 876.67,293.31 876.89,239.00 877.11,245.63 877.33,301.93 877.55,241.40 877.76,320.34 877.98,244.44 878.20,302.80 878.42,298.26 878.64,238.16 878.85,256.44 879.07,301.98 879.29,255.40 879.51,307.13 879.72,311.68 879.94,250.30 880.16,312.04 880.38,247.18 880.60,289.29 880.81,264.58 881.03,296.74 881.25,125.50 881.47,230.85 881.69,300.11 881.90,256.69 882.12,291.52 882.34,300.54 882.56,227.56 882.77,301.60 882.99,246.75 883.21,232.21 883.43,300.36 883.65,254.22 883.86,304.00 884.08,299.71 884.30,240.43 884.52,317.27 884.74,241.90 884.95,217.39 885.17,301.17 885.39,299.84 885.61,255.66 885.82,304.21 886.04,256.60 886.26,233.99 886.48,306.16 886.70,237.56 886.91,293.26 887.13,300.20 887.35,227.97 887.57,230.52 887.79,293.47 888.00,226.26 888.22,294.48 888.44,306.13 888.66,223.01 888.88,296.25 889.09,242.28 889.31,216.15 889.53,308.75 889.75,223.98 889.96,303.68 890.18,226.45 890.40,300.66 890.62,317.49 890.84,222.86 891.05,251.72 891.27,297.84 891.49,329.51 891.71,240.85 891.93,308.15 892.14,240.18 892.36,231.22 892.58,298.28 892.80,304.69 893.01,234.98 893.23,252.65 893.45,295.36 893.67,222.40 893.89,315.52 894.10,248.92 894.32,301.73 894.54,302.79 894.76,250.03 894.98,310.36 895.19,246.87 895.41,137.24 895.63,298.32 895.85,304.57 896.06,233.17 896.28,312.40 896.50,212.24 896.72,242.36 896.94,306.77 897.15,299.57 897.37,247.28 897.59,198.78 897.81,301.17 898.03,302.15 898.24,249.77 898.46,316.53 898.68,226.12 898.90,312.13 899.11,211.26 899.33,299.34 899.55,235.57 899.77,291.38 899.99,223.43 900.20,327.18 900.42,245.52 900.64,254.06 900.86,306.74 901.08,229.52 901.29,313.80 901.51,293.77 901.73,215.77 901.95,301.50 902.16,245.34 902.38,299.44 902.60,226.89 902.82,254.11 903.04,300.66 903.25,221.23 903.47,310.78 903.69,319.17 903.91,239.41 904.13,261.27 904.34,298.17 904.56,307.50 904.78,223.96 905.00,230.42 905.21,313.06 905.43,247.33 905.65,305.84 905.87,246.97 906.09,295.65 906.30,198.48 906.52,329.88 906.74,239.77 906.96,302.26 907.18,304.52 907.39,252.58 907.61,318.41 907.83,210.72 908.05,229.65 908.27,299.89 908.48,241.21 908.70,311.00 908.92,307.95 909.14,244.35 909.35,253.13 909.57,295.69 909.79,233.79 910.01,305.87 910.23,344.36 910.44,209.71 910.66,299.56 910.88,227.75 911.10,236.68 911.32,319.95 911.53,148.27 911.75,301.00 911.97,243.37 912.19,307.00 912.40,320.10 912.62,242.78 912.84,217.23 913.06,301.36 913.28,237.17 913.49,304.50 913.71,302.16 913.93,199.47 914.15,300.79 914.37,249.59 914.58,296.64 914.80,228.97 915.02,224.49 915.24,319.88 915.45,247.31 915.67,300.70 915.89,224.38 916.11,306.08 916.33,306.67 916.54,226.05 916.76,299.00 916.98,245.86 917.20,249.41 917.42,310.40 917.63,304.63 917.85,245.47 918.07,211.93 918.29,311.76 918.50,233.75 918.72,303.22 918.94,246.50 919.16,309.10 919.38,299.21 919.59,213.64 919.81,244.83 920.03,328.93 920.25,220.50 920.47,316.51 920.68,237.59 920.90,305.95 921.12,319.48 921.34,163.25 921.55,310.95 921.77,252.52 921.99,243.88 922.21,308.68 922.43,312.33 922.64,205.13 922.86,310.53 923.08,247.70 923.30,309.56 923.52,162.94 923.73,300.39 923.95,247.93 924.17,252.18 924.39,314.77 924.61,298.47 924.82,229.54 925.04,302.72 925.26,173.05 925.48,244.84 925.69,305.49 925.91,306.29 926.13,224.24 926.35,310.76 926.57,232.75 926.78,299.25 927.00,226.89 927.22,249.91 927.44,305.52 927.66,248.72 927.87,299.24 928.09,321.21 928.31,240.15 928.53,320.94 928.74,228.60 928.96,233.86 929.18,295.07 929.40,300.27 929.62,247.92 929.83,245.87 930.05,297.10 930.27,246.10 930.49,295.53 930.71,301.13 930.92,254.02 931.14,231.83 931.36,303.12 931.58,196.28 931.79,305.68 932.01,239.67 932.23,293.88 932.45,295.23 932.67,241.86 932.88,244.46 933.10,310.12 933.32,244.99 933.54,297.97 933.76,255.05 933.97,299.87 934.19,297.17 934.41,247.19 934.63,309.82 934.84,196.31 935.06,247.15 935.28,300.02 935.50,235.72 935.72,302.99 935.93,322.84 936.15,254.64 936.37,308.75 936.59,235.55 936.81,238.73 937.02,299.50 937.24,304.89 937.46,214.02 937.68,301.18 937.89,227.95 938.11,247.96 938.33,304.92 938.55,303.39 938.77,238.75 938.98,305.57 939.20,247.53 939.42,311.28 939.64,252.10 939.86,324.64 940.07,249.79 940.29,301.76 940.51,236.62 940.73,252.68 940.94,310.07 941.16,303.91 941.38,240.07 941.60,237.06 941.82,310.61 942.03,306.96 942.25,235.37 942.47,247.23 942.69,304.39 942.91,171.72 943.12,316.91 943.34,302.19 943.56,240.85 943.78,234.75 944.00,293.96 944.21,250.49 944.43,303.58 944.65,293.12 944.87,245.84 945.08,232.99 945.30,327.43 945.52,252.62 945.74,330.00 945.96,226.49 946.17,299.92 946.39,257.55 946.61,312.12 946.83,251.40 947.05,308.64 947.26,239.85 947.48,322.25 947.70,238.50 947.92,299.07 948.13,205.26 948.35,311.88 948.57,305.57 948.79,166.79 949.01,312.24 949.22,241.39 949.44,300.22 949.66,245.80 949.88,254.01 950.10,293.29 950.31,220.40 950.53,322.37 950.75,243.20 950.97,298.50 951.18,134.17 951.40,320.52 951.62,314.34 951.84,254.80 952.06,216.43 952.27,300.16 952.49,303.11 952.71,245.95 952.93,307.70 953.15,226.93 953.36,303.83 953.58,235.90 953.80,231.31 954.02,293.82 954.23,190.75 954.45,336.96 954.67,300.85 954.89,229.47 955.11,91.92 955.32,335.78 955.54,297.62 955.76,257.25 955.98,317.96 956.20,218.62 956.41,327.10 956.63,246.78 956.85,259.70 957.07,299.28 957.28,315.86 957.50,254.37 957.72,243.06 957.94,303.10 958.16,301.76 958.37,254.72 958.59,288.77 958.81,251.52 959.03,241.07 959.25,331.42 959.46,294.17 959.68,240.48 959.90,230.99 960.12,321.21 960.34,239.78 960.55,307.10 960.77,229.56 960.99,305.95 961.21,254.48 961.42,304.56 961.64,204.45 961.86,302.05 962.08,204.74 962.30,291.47 962.51,257.36 962.73,301.36 962.95,308.32 963.17,226.45 963.39,217.03 963.60,302.38 963.82,293.74 964.04,238.95 964.26,249.68 964.47,303.93 964.69,288.88 964.91,225.08 965.13,210.78 965.35,323.61 965.56,297.62 965.78,247.81 966.00,295.41 966.22,252.14 966.44,300.60 966.65,227.43 966.87,248.94 967.09,306.12 967.31,257.40 967.52,311.01 967.74,294.01 967.96,229.03 968.18,234.79 968.40,294.96 968.61,312.79 968.83,232.16 969.05,242.04 969.27,292.87 969.49,299.99 969.70,243.69 969.92,237.18 970.14,293.35 970.36,252.71 970.57,298.58 970.79,226.08 971.01,316.10 971.23,229.74 971.45,302.25 971.66,296.38 971.88,250.50 972.10,218.83 972.32,299.71 972.54,316.50 972.75,233.63 972.97,247.12 973.19,304.31 973.41,323.55 973.62,231.73 973.84,244.10 974.06,302.36 974.28,295.56 974.50,234.04 974.71,224.14 974.93,321.16 975.15,297.11 975.37,243.87 975.59,246.05 975.80,299.67 976.02,206.34 976.24,291.72 976.46,316.02 976.67,243.32 976.89,295.18 977.11,256.47 977.33,297.90 977.55,246.42 977.76,260.33 977.98,289.20 978.20,234.70 978.42,305.25 978.64,304.64 978.85,254.24 979.07,194.33 979.29,301.86 979.51,312.23 979.73,248.56 979.94,202.57 980.16,305.54 980.38,238.17 980.60,326.18 980.81,306.40 981.03,211.51 981.25,301.54 981.47,245.43 981.69,210.30 981.90,329.39 982.12,220.79 982.34,304.98 982.56,220.51 982.78,304.35 982.99,219.42 983.21,294.07 983.43,302.32 983.65,249.32 983.86,298.83 984.08,187.74 984.30,216.87 984.52,301.62 984.74,298.46 984.95,242.57 985.17,309.07 985.39,253.45 985.61,301.91 985.83,223.89 986.04,172.06 986.26,334.73 986.48,239.11 986.70,298.30 986.91,219.16 987.13,318.76 987.35,306.55 987.57,216.59 987.79,308.38 988.00,244.83 988.22,253.08 988.44,329.29 988.66,223.99 988.88,317.61 989.09,226.70 989.31,300.62 989.53,230.13 989.75,296.91 989.96,254.09 990.18,296.33 990.40,234.19 990.62,321.73 990.84,304.25 991.05,250.13 991.27,306.71 991.49,171.76 991.71,241.89 991.93,304.03 992.14,238.96 992.36,291.58 992.58,312.18 992.80,252.88 993.01,291.24 993.23,254.73 993.45,302.55 993.67,244.68 993.89,303.57 994.10,241.21 994.32,248.33 994.54,320.38 994.76,313.41 994.98,200.58 995.19,164.14 995.41,296.79 995.63,207.85 995.85,293.90 996.07,231.36 996.28,302.37 996.50,313.13 996.72,157.85 996.94,212.93 997.15,336.22 997.37,301.09 997.59,247.47 997.81,198.67 998.03,297.50 998.24,298.06 998.46,259.99 998.68,251.66 998.90,303.65 999.12,243.85 999.33,293.71 999.55,246.82 999.77,317.45 999.99,302.41 1000.20,219.87 1000.42,304.70 1000.64,248.61 1000.86,243.52 1001.08,298.60 1001.29,236.69 1001.51,303.53 1001.73,306.84 1001.95,194.85 1002.17,311.13 1002.38,163.48 1002.60,302.48 1002.82,251.12 1003.04,303.47 1003.25,227.45 1003.47,232.96 1003.69,322.70 1003.91,322.20 1004.13,238.73 1004.34,334.79 1004.56,205.69 1004.78,237.68 1005.00,323.21 1005.22,176.97 1005.43,324.33 1005.65,297.23 1005.87,236.66 1006.09,238.66 1006.30,309.07 1006.52,219.64 1006.74,295.99 1006.96,331.47 1007.18,196.54 1007.39,228.85 1007.61,303.30 1007.83,251.84 1008.05,298.75 1008.27,237.91 1008.48,304.52 1008.70,250.61 1008.92,298.60 1009.14,219.15 1009.35,316.85 1009.57,301.81 1009.79,211.96 1010.01,318.48 1010.23,230.61 1010.44,299.74 1010.66,219.47 1010.88,316.22 1011.10,240.60 1011.32,229.06 1011.53,314.37 1011.75,303.73 1011.97,249.53 1012.19,222.15 1012.40,319.25 1012.62,307.82 1012.84,214.00 1013.06,167.83 1013.28,323.37 1013.49,182.52 1013.71,323.14 1013.93,232.11 1014.15,301.28 1014.37,316.25 1014.58,243.66 1014.80,305.34 1015.02,252.66 1015.24,245.93 1015.46,298.54 1015.67,241.85 1015.89,304.15 1016.11,240.87 1016.33,304.75 1016.54,232.76 1016.76,321.35 1016.98,205.80 1017.20,331.39 1017.42,295.73 1017.63,249.64 1017.85,299.45 1018.07,239.83 1018.29,326.42 1018.51,192.05 1018.72,234.97 1018.94,322.51 1019.16,306.96 1019.38,243.85 1019.59,227.94 1019.81,294.90 1020.03,302.77 1020.25,137.79 1020.47,305.87 1020.68,223.91 1020.90,300.93 1021.12,238.92 1021.34,246.69 1021.56,302.77 1021.77,87.37 1021.99,292.94 1022.21,303.37 1022.43,226.17 1022.64,305.23 1022.86,203.08 1023.08,292.12 1023.30,242.71 1023.52,223.01 1023.73,306.38 1023.95,254.05 1024.17,301.56 1024.39,310.65 1024.61,223.44 1024.82,297.29 1025.04,229.50 1025.26,179.91 1025.48,311.26 1025.69,192.70 1025.91,325.44 1026.13,296.60 1026.35,200.15 1026.57,183.51 1026.78,314.08 1027.00,250.66 1027.22,308.37 1027.44,334.56 1027.66,213.39 1027.87,228.45 1028.09,315.80 1028.31,220.56 1028.53,316.46 1028.74,204.15 1028.96,310.17 1029.18,329.67 1029.40,139.73 1029.62,227.06 1029.83,299.00 1030.05,298.19 1030.27,243.13 1030.49,321.19 1030.71,235.71 1030.92,298.53 1031.14,231.53 1031.36,239.16 1031.58,313.63 1031.80,318.44 1032.01,240.47 1032.23,241.05 1032.45,302.90 1032.67,312.62 1032.88,221.68 1033.10,298.96 1033.32,239.17 1033.54,252.84 1033.76,301.60 1033.97,207.71 1034.19,308.77 1034.41,304.19 1034.63,221.56 1034.85,317.24 1035.06,250.60 1035.28,297.06 1035.50,243.33 1035.72,307.92 1035.93,213.03 1036.15,332.03 1036.37,249.12 1036.59,214.42 1036.81,312.53 1037.02,139.70 1037.24,316.06 1037.46,243.28 1037.68,327.00 1037.90,316.72 1038.11,195.18 1038.33,315.83 1038.55,250.09 1038.77,316.13 1038.98,224.96 1039.20,239.00 1039.42,297.92 1039.64,324.45 1039.86,197.59 1040.07,308.37 1040.29,248.34 1040.51,216.84 1040.73,314.71 1040.95,299.83 1041.16,226.61 1041.38,299.38 1041.60,244.55 1041.82,225.59 1042.03,343.25 1042.25,304.95 1042.47,221.92 1042.69,244.65 1042.91,322.35 1043.12,253.16 1043.34,303.64 1043.56,310.19 1043.78,225.72 1044.00,303.24 1044.21,212.33 1044.43,308.84 1044.65,154.74 1044.87,298.16 1045.08,221.44 1045.30,316.24 1045.52,202.13 1045.74,246.23 1045.96,321.02 1046.17,232.17 1046.39,305.47 1046.61,210.89 1046.83,308.60 1047.05,209.82 1047.26,315.43 1047.48,245.83 1047.70,305.31 1047.92,219.15 1048.13,309.17 1048.35,242.15 1048.57,320.14 1048.79,239.01 1049.01,302.68 1049.22,234.84 1049.44,302.74 1049.66,297.14 1049.88,178.51 1050.10,299.25 1050.31,252.66 1050.53,207.66 1050.75,351.64 1050.97,307.89 1051.19,226.53 1051.40,205.71 1051.62,312.07 1051.84,236.73 1052.06,307.59 1052.27,299.74 1052.49,222.72 1052.71,297.78 1052.93,217.55 1053.15,307.30 1053.36,237.58 1053.58,212.76 1053.80,311.99 1054.02,232.65 1054.24,294.23 1054.45,256.86 1054.67,312.00 1054.89,303.81 1055.11,181.29 1055.32,236.90 1055.54,299.44 1055.76,308.60 1055.98,226.50 1056.20,228.87 1056.41,306.93 1056.63,244.71 1056.85,299.64 1057.07,224.98 1057.29,315.96 1057.50,310.20 1057.72,237.87 1057.94,313.91 1058.16,249.71 1058.37,239.38 1058.59,311.67 1058.81,314.20 1059.03,228.20 1059.25,244.97 1059.46,323.91 1059.68,207.90 1059.90,309.08 1060.12,207.07 1060.34,302.52 1060.55,203.48 1060.77,342.20 1060.99,306.69 1061.21,237.28 1061.42,303.96 1061.64,187.01 1061.86,323.07 1062.08,237.18 1062.30,243.41 1062.51,316.34 1062.73,325.55 1062.95,253.13 1063.17,293.06 1063.39,245.56 1063.60,238.36 1063.82,297.50 1064.04,224.66 1064.26,328.65 1064.47,190.02 1064.69,300.18 1064.91,205.93 1065.13,314.57 1065.35,307.71 1065.56,222.92 1065.78,300.81 1066.00,245.68" fill="none" stroke="#60758a" stroke-width="1.25" stroke-linejoin="round" stroke-linecap="round"/>
<text transform="translate(18,215.0) rotate(-90)" text-anchor="middle" font-family="Arial, sans-serif" font-size="13" fill="#222222">residuo</text>
<line x1="88.00" y1="372.00" x2="88.00" y2="377.00" stroke="#222222" stroke-width="1"/>
<text x="88.00" y="394.00" text-anchor="middle" font-family="Arial, sans-serif" font-size="11" fill="#333333">2024-01-02</text>
<line x1="577.11" y1="372.00" x2="577.11" y2="377.00" stroke="#222222" stroke-width="1"/>
<text x="577.11" y="394.00" text-anchor="middle" font-family="Arial, sans-serif" font-size="11" fill="#333333">2025-03-01</text>
<line x1="1066.00" y1="372.00" x2="1066.00" y2="377.00" stroke="#222222" stroke-width="1"/>
<text x="1066.00" y="394.00" text-anchor="middle" font-family="Arial, sans-serif" font-size="11" fill="#333333">2026-04-30</text>
<text x="577.00" y="415.00" text-anchor="middle" font-family="Arial, sans-serif" font-size="13" fill="#222222">Tiempo</text>
</svg>