<svg xmlns="http://www.w3.org/2000/svg" width="1120" height="430" viewBox="0 0 1120 430">
<rect x="0" y="0" width="1120" height="430" fill="#ffffff"/>
<text x="560.0" y="26" text-anchor="middle" font-family="Arial, sans-serif" font-size="18" font-weight="700">PACF hasta 288 retardos - Retornos logaritmicos r</text>
<line x1="82" y1="372.00" x2="1090.00" y2="372.00" stroke="#e8e8e8" stroke-width="1"/>
<text x="74" y="376.00" text-anchor="end" font-family="Arial, sans-serif" font-size="11">-0.02</text>
<line x1="82" y1="293.50" x2="1090.00" y2="293.50" stroke="#e8e8e8" stroke-width="1"/>
<text x="74" y="297.50" text-anchor="end" font-family="Arial, sans-serif" font-size="11">0.255</text>
<line x1="82" y1="215.00" x2="1090.00" y2="215.00" stroke="#e8e8e8" stroke-width="1"/>
<text x="74" y="219.00" text-anchor="end" font-family="Arial, sans-serif" font-size="11">0.53</text>
<line x1="82" y1="136.50" x2="1090.00" y2="136.50" stroke="#e8e8e8" stroke-width="1"/>
<text x="74" y="140.50" text-anchor="end" font-family="Arial, sans-serif" font-size="11">0.805</text>
<line x1="82" y1="58.00" x2="1090.00" y2="58.00" stroke="#e8e8e8" stroke-width="1"/>
<text x="74" y="62.00" text-anchor="end" font-family="Arial, sans-serif" font-size="11">1.08</text>
<rect x="82" y="58" width="1008.00" height="314.00" fill="none" stroke="#222222" stroke-width="1"/>
<line x1="82" y1="366.29" x2="1090.00" y2="366.29" stroke="#222222" stroke-width="1"/>
<line x1="82" y1="365.16" x2="1090.00" y2="365.16" stroke="#a33" stroke-width="1" stroke-dasharray="5,4"/>
<line x1="82" y1="367.42" x2="1090.00" y2="367.42" stroke="#a33" stroke-width="1" stroke-dasharray="5,4"/>
<line x1="124.00" y1="58" x2="124.00" y2="372.00" stroke="#777777" stroke-width="1" stroke-dasharray="3,4"/>
<text x="124.00" y="50" text-anchor="middle" font-family="Arial, sans-serif" font-size="10" fill="#555555">12</text>
<line x1="1090.00" y1="58" x2="1090.00" y2="372.00" stroke="#777777" stroke-width="1" stroke-dasharray="3,4"/>
<text x="1090.00" y="50" text-anchor="middle" font-family="Arial, sans-serif" font-size="10" fill="#555555">288</text>
<rect x="80.50" y="80.84" width="3.00" height="285.45" fill="#5f6b7a" opacity="0.82"/>
<rect x="84.00" y="366.29" width="3.00" height="2.93" fill="#5f6b7a" opacity="0.82"/>
<rect x="87.50" y="366.29" width="3.00" height="4.89" fill="#5f6b7a" opacity="0.82"/>
<rect x="91.00" y="366.21" width="3.00" height="0.80" fill="#5f6b7a" opacity="0.82"/>
<rect x="94.50" y="366.29" width="3.00" height="0.80" fill="#5f6b7a" opacity="0.82"/>
<rect x="98.00" y="365.53" width="3.00" height="0.80" fill="#5f6b7a" opacity="0.82"/>
<rect x="101.50" y="366.29" width="3.00" height="0.80" fill="#5f6b7a" opacity="0.82"/>
<rect x="105.00" y="366.29" width="3.00" height="0.80" fill="#5f6b7a" opacity="0.82"/>
<rect x="108.50" y="366.29" width="3.00" height="1.10" fill="#5f6b7a" opacity="0.82"/>
<rect x="112.00" y="365.84" width="3.00" height="0.80" fill="#5f6b7a" opacity="0.82"/>
<rect x="115.50" y="366.29" width="3.00" height="0.80" fill="#5f6b7a" opacity="0.82"/>
<rect x="119.00" y="366.29" width="3.00" height="2.99" fill="#5f6b7a" opacity="0.82"/>
<rect x="122.50" y="365.44" width="3.00" height="0.85" fill="#5f6b7a" opacity="0.82"/>
<rect x="126.00" y="365.88" width="3.00" height="0.80" fill="#5f6b7a" opacity="0.82"/>
<rect x="129.50" y="366.29" width="3.00" height="0.80" fill="#5f6b7a" opacity="0.82"/>
<rect x="133.00" y="366.29" width="3.00" height="0.80" fill="#5f6b7a" opacity="0.82"/>
<rect x="136.50" y="366.29" width="3.00" height="0.80" fill="#5f6b7a" opacity="0.82"/>
<rect x="140.00" y="366.29" width="3.00" height="0.80" fill="#5f6b7a" opacity="0.82"/>
<rect x="143.50" y="365.48" width="3.00" height="0.82" fill="#5f6b7a" opacity="0.82"/>
<rect x="147.00" y="366.29" width="3.00" height="0.80" fill="#5f6b7a" opacity="0.82"/>
<rect x="150.50" y="366.29" width="3.00" height="0.98" fill="#5f6b7a" opacity="0.82"/>
<rect x="154.00" y="366.21" width="3.00" height="0.80" fill="#5f6b7a" opacity="0.82"/>
<rect x="157.50" y="366.04" width="3.00" height="0.80" fill="#5f6b7a" opacity="0.82"/>
<rect x="161.00" y="366.29" width="3.00" height="0.99" fill="#5f6b7a" opacity="0.82"/>
<rect x="164.50" y="364.98" width="3.00" height="1.31" fill="#5f6b7a" opacity="0.82"/>
<rect x="168.00" y="364.05" width="3.00" height="2.24" fill="#5f6b7a" opacity="0.82"/>
<rect x="171.50" y="366.29" width="3.00" height="1.68" fill="#5f6b7a" opacity="0.82"/>
<rect x="175.00" y="366.29" width="3.00" height="0.80" fill="#5f6b7a" opacity="0.82"/>
<rect x="178.50" y="365.99" width="3.00" height="0.80" fill="#5f6b7a" opacity="0.82"/>
<rect x="182.00" y="365.41" width="3.00" height="0.88" fill="#5f6b7a" opacity="0.82"/>
<rect x="185.50" y="366.29" width="3.00" height="0.80" fill="#5f6b7a" opacity="0.82"/>
<rect x="189.00" y="365.70" width="3.00" height="0.80" fill="#5f6b7a" opacity="0.82"/>
<rect x="192.50" y="365.62" width="3.00" height="0.80" fill="#5f6b7a" opacity="0.82"/>
<rect x="196.00" y="366.29" width="3.00" height="1.26" fill="#5f6b7a" opacity="0.82"/>
<rect x="199.50" y="366.08" width="3.00" height="0.80" fill="#5f6b7a" opacity="0.82"/>
<rect x="203.00" y="366.29" width="3.00" height="0.80" fill="#5f6b7a" opacity="0.82"/>
<rect x="206.50" y="366.28" width="3.00" height="0.80" fill="#5f6b7a" opacity="0.82"/>
<rect x="210.00" y="365.59" width="3.00" height="0.80" fill="#5f6b7a" opacity="0.82"/>
<rect x="213.50" y="366.29" width="3.00" height="0.98" fill="#5f6b7a" opacity="0.82"/>
<rect x="217.00" y="365.85" width="3.00" height="0.80" fill="#5f6b7a" opacity="0.82"/>
<rect x="220.50" y="366.29" width="3.00" height="0.80" fill="#5f6b7a" opacity="0.82"/>
<rect x="224.00" y="366.29" width="3.00" height="0.80" fill="#5f6b7a" opacity="0.82"/>
<rect x="227.50" y="365.75" width="3.00" height="0.80" fill="#5f6b7a" opacity="0.82"/>
<rect x="231.00" y="366.29" width="3.00" height="0.80" fill="#5f6b7a" opacity="0.82"/>
<rect x="234.50" y="365.27" width="3.00" height="1.02" fill="#5f6b7a" opacity="0.82"/>
<rect x="238.00" y="366.29" width="3.00" height="0.80" fill="#5f6b7a" opacity="0.82"/>
<rect x="241.50" y="366.13" width="3.00" height="0.80" fill="#5f6b7a" opacity="0.82"/>
<rect x="245.00" y="366.29" width="3.00" height="0.80" fill="#5f6b7a" opacity="0.82"/>
<rect x="248.50" y="364.92" width="3.00" height="1.37" fill="#5f6b7a" opacity="0.82"/>
<rect x="252.00" y="366.29" width="3.00" height="0.97" fill="#5f6b7a" opacity="0.82"/>
<rect x="255.50" y="365.41" width="3.00" height="0.88" fill="#5f6b7a" opacity="0.82"/>
<rect x="259.00" y="366.29" width="3.00" height="0.80" fill="#5f6b7a" opacity="0.82"/>
<rect x="262.50" y="365.62" width="3.00" height="0.80" fill="#5f6b7a" opacity="0.82"/>
<rect x="266.00" y="364.78" width="3.00" height="1.51" fill="#5f6b7a" opacity="0.82"/>
<rect x="269.50" y="366.29" width="3.00" height="0.86" fill="#5f6b7a" opacity="0.82"/>
<rect x="273.00" y="366.23" width="3.00" height="0.80" fill="#5f6b7a" opacity="0.82"/>
<rect x="276.50" y="365.89" width="3.00" height="0.80" fill="#5f6b7a" opacity="0.82"/>
<rect x="280.00" y="365.79" width="3.00" height="0.80" fill="#5f6b7a" opacity="0.82"/>
<rect x="283.50" y="366.29" width="3.00" height="0.80" fill="#5f6b7a" opacity="0.82"/>
<rect x="287.00" y="366.29" width="3.00" height="1.68" fill="#5f6b7a" opacity="0.82"/>
<rect x="290.50" y="366.29" width="3.00" height="1.17" fill="#5f6b7a" opacity="0.82"/>
<rect x="294.00" y="366.29" width="3.00" height="0.80" fill="#5f6b7a" opacity="0.82"/>
<rect x="297.50" y="366.29" width="3.00" height="1.03" fill="#5f6b7a" opacity="0.82"/>
<rect x="301.00" y="365.05" width="3.00" height="1.24" fill="#5f6b7a" opacity="0.82"/>
<rect x="304.50" y="364.95" width="3.00" height="1.34" fill="#5f6b7a" opacity="0.82"/>
<rect x="308.00" y="366.29" width="3.00" height="1.99" fill="#5f6b7a" opacity="0.82"/>
<rect x="311.50" y="366.29" width="3.00" height="0.80" fill="#5f6b7a" opacity="0.82"/>
<rect x="315.00" y="366.29" width="3.00" height="0.80" fill="#5f6b7a" opacity="0.82"/>
<rect x="318.50" y="366.29" width="3.00" height="0.80" fill="#5f6b7a" opacity="0.82"/>
<rect x="322.00" y="364.89" width="3.00" height="1.40" fill="#5f6b7a" opacity="0.82"/>
<rect x="325.50" y="365.86" width="3.00" height="0.80" fill="#5f6b7a" opacity="0.82"/>
<rect x="329.00" y="366.29" width="3.00" height="0.80" fill="#5f6b7a" opacity="0.82"/>
<rect x="332.50" y="365.45" width="3.00" height="0.84" fill="#5f6b7a" opacity="0.82"/>
<rect x="336.00" y="366.29" width="3.00" height="0.80" fill="#5f6b7a" opacity="0.82"/>
<rect x="339.50" y="366.09" width="3.00" height="0.80" fill="#5f6b7a" opacity="0.82"/>
<rect x="343.00" y="366.29" width="3.00" height="1.05" fill="#5f6b7a" opacity="0.82"/>
<rect x="346.50" y="365.32" width="3.00" height="0.97" fill="#5f6b7a" opacity="0.82"/>
<rect x="350.00" y="365.14" width="3.00" height="1.15" fill="#5f6b7a" opacity="0.82"/>
<rect x="353.50" y="365.95" width="3.00" height="0.80" fill="#5f6b7a" opacity="0.82"/>
<rect x="357.00" y="365.99" width="3.00" height="0.80" fill="#5f6b7a" opacity="0.82"/>
<rect x="360.50" y="366.24" width="3.00" height="0.80" fill="#5f6b7a" opacity="0.82"/>
<rect x="364.00" y="366.29" width="3.00" height="0.80" fill="#5f6b7a" opacity="0.82"/>
<rect x="367.50" y="366.18" width="3.00" height="0.80" fill="#5f6b7a" opacity="0.82"/>
<rect x="371.00" y="366.29" width="3.00" height="0.80" fill="#5f6b7a" opacity="0.82"/>
<rect x="374.50" y="365.03" width="3.00" height="1.26" fill="#5f6b7a" opacity="0.82"/>
<rect x="378.00" y="366.29" width="3.00" height="0.99" fill="#5f6b7a" opacity="0.82"/>
<rect x="381.50" y="364.91" width="3.00" height="1.38" fill="#5f6b7a" opacity="0.82"/>
<rect x="385.00" y="366.29" width="3.00" height="0.80" fill="#5f6b7a" opacity="0.82"/>
<rect x="388.50" y="366.29" width="3.00" height="0.80" fill="#5f6b7a" opacity="0.82"/>
<rect x="392.00" y="366.29" width="3.00" height="0.96" fill="#5f6b7a" opacity="0.82"/>
<rect x="395.50" y="365.76" width="3.00" height="0.80" fill="#5f6b7a" opacity="0.82"/>
<rect x="399.00" y="366.29" width="3.00" height="1.21" fill="#5f6b7a" opacity="0.82"/>
<rect x="402.50" y="366.29" width="3.00" height="2.07" fill="#5f6b7a" opacity="0.82"/>
<rect x="406.00" y="365.75" width="3.00" height="0.80" fill="#5f6b7a" opacity="0.82"/>
<rect x="409.50" y="365.48" width="3.00" height="0.81" fill="#5f6b7a" opacity="0.82"/>
<rect x="413.00" y="366.29" width="3.00" height="0.92" fill="#5f6b7a" opacity="0.82"/>
<rect x="416.50" y="366.29" width="3.00" height="0.80" fill="#5f6b7a" opacity="0.82"/>
<rect x="420.00" y="365.25" width="3.00" height="1.04" fill="#5f6b7a" opacity="0.82"/>
<rect x="423.50" y="365.56" width="3.00" height="0.80" fill="#5f6b7a" opacity="0.82"/>
<rect x="427.00" y="365.55" width="3.00" height="0.80" fill="#5f6b7a" opacity="0.82"/>
<rect x="430.50" y="366.26" width="3.00" height="0.80" fill="#5f6b7a" opacity="0.82"/>
<rect x="434.00" y="365.32" width="3.00" height="0.97" fill="#5f6b7a" opacity="0.82"/>
<rect x="437.50" y="365.50" width="3.00" height="0.80" fill="#5f6b7a" opacity="0.82"/>
<rect x="441.00" y="366.03" width="3.00" height="0.80" fill="#5f6b7a" opacity="0.82"/>
<rect x="444.50" y="365.06" width="3.00" height="1.23" fill="#5f6b7a" opacity="0.82"/>
<rect x="448.00" y="366.29" width="3.00" height="0.80" fill="#5f6b7a" opacity="0.82"/>
<rect x="451.50" y="365.46" width="3.00" height="0.83" fill="#5f6b7a" opacity="0.82"/>
<rect x="455.00" y="366.29" width="3.00" height="0.80" fill="#5f6b7a" opacity="0.82"/>
<rect x="458.50" y="366.29" width="3.00" height="0.80" fill="#5f6b7a" opacity="0.82"/>
<rect x="462.00" y="366.29" width="3.00" height="0.80" fill="#5f6b7a" opacity="0.82"/>
<rect x="465.50" y="366.29" width="3.00" height="0.80" fill="#5f6b7a" opacity="0.82"/>
<rect x="469.00" y="366.27" width="3.00" height="0.80" fill="#5f6b7a" opacity="0.82"/>
<rect x="472.50" y="366.29" width="3.00" height="1.66" fill="#5f6b7a" opacity="0.82"/>
<rect x="476.00" y="364.90" width="3.00" height="1.39" fill="#5f6b7a" opacity="0.82"/>
<rect x="479.50" y="366.29" width="3.00" height="1.71" fill="#5f6b7a" opacity="0.82"/>
<rect x="483.00" y="366.29" width="3.00" height="1.07" fill="#5f6b7a" opacity="0.82"/>
<rect x="486.50" y="366.29" width="3.00" height="0.80" fill="#5f6b7a" opacity="0.82"/>
<rect x="490.00" y="366.29" width="3.00" height="0.80" fill="#5f6b7a" opacity="0.82"/>
<rect x="493.50" y="365.80" width="3.00" height="0.80" fill="#5f6b7a" opacity="0.82"/>
<rect x="497.00" y="364.87" width="3.00" height="1.42" fill="#5f6b7a" opacity="0.82"/>
<rect x="500.50" y="366.29" width="3.00" height="1.11" fill="#5f6b7a" opacity="0.82"/>
<rect x="504.00" y="365.74" width="3.00" height="0.80" fill="#5f6b7a" opacity="0.82"/>
<rect x="507.50" y="366.29" width="3.00" height="1.10" fill="#5f6b7a" opacity="0.82"/>
<rect x="511.00" y="366.29" width="3.00" height="0.80" fill="#5f6b7a" opacity="0.82"/>
<rect x="514.50" y="365.49" width="3.00" height="0.81" fill="#5f6b7a" opacity="0.82"/>
<rect x="518.00" y="365.63" width="3.00" height="0.80" fill="#5f6b7a" opacity="0.82"/>
<rect x="521.50" y="365.07" width="3.00" height="1.22" fill="#5f6b7a" opacity="0.82"/>
<rect x="525.00" y="366.29" width="3.00" height="0.80" fill="#5f6b7a" opacity="0.82"/>
<rect x="528.50" y="366.29" width="3.00" height="0.80" fill="#5f6b7a" opacity="0.82"/>
<rect x="532.00" y="365.82" width="3.00" height="0.80" fill="#5f6b7a" opacity="0.82"/>
<rect x="535.50" y="366.27" width="3.00" height="0.80" fill="#5f6b7a" opacity="0.82"/>
<rect x="539.00" y="366.29" width="3.00" height="0.90" fill="#5f6b7a" opacity="0.82"/>
<rect x="542.50" y="366.21" width="3.00" height="0.80" fill="#5f6b7a" opacity="0.82"/>
<rect x="546.00" y="366.29" width="3.00" height="1.11" fill="#5f6b7a" opacity="0.82"/>
<rect x="549.50" y="365.99" width="3.00" height="0.80" fill="#5f6b7a" opacity="0.82"/>
<rect x="553.00" y="365.65" width="3.00" height="0.80" fill="#5f6b7a" opacity="0.82"/>
<rect x="556.50" y="366.29" width="3.00" height="1.20" fill="#5f6b7a" opacity="0.82"/>
<rect x="560.00" y="366.29" width="3.00" height="0.80" fill="#5f6b7a" opacity="0.82"/>
<rect x="563.50" y="366.29" width="3.00" height="0.80" fill="#5f6b7a" opacity="0.82"/>
<rect x="567.00" y="366.29" width="3.00" height="0.80" fill="#5f6b7a" opacity="0.82"/>
<rect x="570.50" y="366.29" width="3.00" height="0.80" fill="#5f6b7a" opacity="0.82"/>
<rect x="574.00" y="365.66" width="3.00" height="0.80" fill="#5f6b7a" opacity="0.82"/>
<rect x="577.50" y="366.29" width="3.00" height="0.80" fill="#5f6b7a" opacity="0.82"/>
<rect x="581.00" y="365.29" width="3.00" height="1.00" fill="#5f6b7a" opacity="0.82"/>
<rect x="584.50" y="365.90" width="3.00" height="0.80" fill="#5f6b7a" opacity="0.82"/>
<rect x="588.00" y="366.29" width="3.00" height="0.80" fill="#5f6b7a" opacity="0.82"/>
<rect x="591.50" y="366.29" width="3.00" height="0.80" fill="#5f6b7a" opacity="0.82"/>
<rect x="595.00" y="364.74" width="3.00" height="1.55" fill="#5f6b7a" opacity="0.82"/>
<rect x="598.50" y="366.29" width="3.00" height="0.80" fill="#5f6b7a" opacity="0.82"/>
<rect x="602.00" y="366.29" width="3.00" height="1.12" fill="#5f6b7a" opacity="0.82"/>
<rect x="605.50" y="366.29" width="3.00" height="0.80" fill="#5f6b7a" opacity="0.82"/>
<rect x="609.00" y="366.29" width="3.00" height="1.09" fill="#5f6b7a" opacity="0.82"/>
<rect x="612.50" y="366.10" width="3.00" height="0.80" fill="#5f6b7a" opacity="0.82"/>
<rect x="616.00" y="365.11" width="3.00" height="1.18" fill="#5f6b7a" opacity="0.82"/>
<rect x="619.50" y="366.29" width="3.00" height="0.80" fill="#5f6b7a" opacity="0.82"/>
<rect x="623.00" y="366.29" width="3.00" height="1.10" fill="#5f6b7a" opacity="0.82"/>
<rect x="626.50" y="366.19" width="3.00" height="0.80" fill="#5f6b7a" opacity="0.82"/>
<rect x="630.00" y="366.29" width="3.00" height="0.80" fill="#5f6b7a" opacity="0.82"/>
<rect x="633.50" y="366.28" width="3.00" height="0.80" fill="#5f6b7a" opacity="0.82"/>
<rect x="637.00" y="365.10" width="3.00" height="1.19" fill="#5f6b7a" opacity="0.82"/>
<rect x="640.50" y="366.29" width="3.00" height="0.80" fill="#5f6b7a" opacity="0.82"/>
<rect x="644.00" y="366.29" width="3.00" height="0.80" fill="#5f6b7a" opacity="0.82"/>
<rect x="647.50" y="366.29" width="3.00" height="0.80" fill="#5f6b7a" opacity="0.82"/>
<rect x="651.00" y="364.98" width="3.00" height="1.31" fill="#5f6b7a" opacity="0.82"/>
<rect x="654.50" y="366.09" width="3.00" height="0.80" fill="#5f6b7a" opacity="0.82"/>
<rect x="658.00" y="366.29" width="3.00" height="0.84" fill="#5f6b7a" opacity="0.82"/>
<rect x="661.50" y="366.29" width="3.00" height="0.80" fill="#5f6b7a" opacity="0.82"/>
<rect x="665.00" y="366.29" width="3.00" height="0.80" fill="#5f6b7a" opacity="0.82"/>
<rect x="668.50" y="366.29" width="3.00" height="0.85" fill="#5f6b7a" opacity="0.82"/>
<rect x="672.00" y="366.29" width="3.00" height="0.84" fill="#5f6b7a" opacity="0.82"/>
<rect x="675.50" y="365.44" width="3.00" height="0.85" fill="#5f6b7a" opacity="0.82"/>
<rect x="679.00" y="365.13" width="3.00" height="1.16" fill="#5f6b7a" opacity="0.82"/>
<rect x="682.50" y="365.08" width="3.00" height="1.22" fill="#5f6b7a" opacity="0.82"/>
<rect x="686.00" y="366.29" width="3.00" height="1.92" fill="#5f6b7a" opacity="0.82"/>
<rect x="689.50" y="366.29" width="3.00" height="0.80" fill="#5f6b7a" opacity="0.82"/>
<rect x="693.00" y="366.23" width="3.00" height="0.80" fill="#5f6b7a" opacity="0.82"/>
<rect x="696.50" y="366.29" width="3.00" height="1.83" fill="#5f6b7a" opacity="0.82"/>
<rect x="700.00" y="366.29" width="3.00" height="0.80" fill="#5f6b7a" opacity="0.82"/>
<rect x="703.50" y="365.55" width="3.00" height="0.80" fill="#5f6b7a" opacity="0.82"/>
<rect x="707.00" y="365.83" width="3.00" height="0.80" fill="#5f6b7a" opacity="0.82"/>
<rect x="710.50" y="366.29" width="3.00" height="0.80" fill="#5f6b7a" opacity="0.82"/>
<rect x="714.00" y="366.29" width="3.00" height="1.35" fill="#5f6b7a" opacity="0.82"/>
<rect x="717.50" y="366.29" width="3.00" height="0.80" fill="#5f6b7a" opacity="0.82"/>
<rect x="721.00" y="366.29" width="3.00" height="1.15" fill="#5f6b7a" opacity="0.82"/>
<rect x="724.50" y="365.58" width="3.00" height="0.80" fill="#5f6b7a" opacity="0.82"/>
<rect x="728.00" y="365.19" width="3.00" height="1.10" fill="#5f6b7a" opacity="0.82"/>
<rect x="731.50" y="365.22" width="3.00" height="1.07" fill="#5f6b7a" opacity="0.82"/>
<rect x="735.00" y="365.83" width="3.00" height="0.80" fill="#5f6b7a" opacity="0.82"/>
<rect x="738.50" y="366.29" width="3.00" height="0.80" fill="#5f6b7a" opacity="0.82"/>
<rect x="742.00" y="364.87" width="3.00" height="1.42" fill="#5f6b7a" opacity="0.82"/>
<rect x="745.50" y="365.06" width="3.00" height="1.24" fill="#5f6b7a" opacity="0.82"/>
<rect x="749.00" y="366.29" width="3.00" height="0.80" fill="#5f6b7a" opacity="0.82"/>
<rect x="752.50" y="366.29" width="3.00" height="0.80" fill="#5f6b7a" opacity="0.82"/>
<rect x="756.00" y="366.29" width="3.00" height="0.90" fill="#5f6b7a" opacity="0.82"/>
<rect x="759.50" y="366.29" width="3.00" height="0.80" fill="#5f6b7a" opacity="0.82"/>
<rect x="763.00" y="366.29" width="3.00" height="0.80" fill="#5f6b7a" opacity="0.82"/>
<rect x="766.50" y="365.75" width="3.00" height="0.80" fill="#5f6b7a" opacity="0.82"/>
<rect x="770.00" y="366.29" width="3.00" height="0.80" fill="#5f6b7a" opacity="0.82"/>
<rect x="773.50" y="366.29" width="3.00" height="0.87" fill="#5f6b7a" opacity="0.82"/>
<rect x="777.00" y="366.29" width="3.00" height="0.80" fill="#5f6b7a" opacity="0.82"/>
<rect x="780.50" y="365.43" width="3.00" height="0.86" fill="#5f6b7a" opacity="0.82"/>
<rect x="784.00" y="365.96" width="3.00" height="0.80" fill="#5f6b7a" opacity="0.82"/>
<rect x="787.50" y="366.27" width="3.00" height="0.80" fill="#5f6b7a" opacity="0.82"/>
<rect x="791.00" y="365.61" width="3.00" height="0.80" fill="#5f6b7a" opacity="0.82"/>
<rect x="794.50" y="366.23" width="3.00" height="0.80" fill="#5f6b7a" opacity="0.82"/>
<rect x="798.00" y="366.29" width="3.00" height="0.80" fill="#5f6b7a" opacity="0.82"/>
<rect x="801.50" y="365.27" width="3.00" height="1.02" fill="#5f6b7a" opacity="0.82"/>
<rect x="805.00" y="365.11" width="3.00" height="1.18" fill="#5f6b7a" opacity="0.82"/>
<rect x="808.50" y="365.67" width="3.00" height="0.80" fill="#5f6b7a" opacity="0.82"/>
<rect x="812.00" y="365.46" width="3.00" height="0.83" fill="#5f6b7a" opacity="0.82"/>
<rect x="815.50" y="366.02" width="3.00" height="0.80" fill="#5f6b7a" opacity="0.82"/>
<rect x="819.00" y="366.23" width="3.00" height="0.80" fill="#5f6b7a" opacity="0.82"/>
<rect x="822.50" y="365.76" width="3.00" height="0.80" fill="#5f6b7a" opacity="0.82"/>
<rect x="826.00" y="366.13" width="3.00" height="0.80" fill="#5f6b7a" opacity="0.82"/>
<rect x="829.50" y="365.59" width="3.00" height="0.80" fill="#5f6b7a" opacity="0.82"/>
<rect x="833.00" y="366.29" width="3.00" height="0.80" fill="#5f6b7a" opacity="0.82"/>
<rect x="836.50" y="366.29" width="3.00" height="0.80" fill="#5f6b7a" opacity="0.82"/>
<rect x="840.00" y="366.29" width="3.00" height="0.82" fill="#5f6b7a" opacity="0.82"/>
<rect x="843.50" y="366.29" width="3.00" height="1.14" fill="#5f6b7a" opacity="0.82"/>
<rect x="847.00" y="366.29" width="3.00" height="0.80" fill="#5f6b7a" opacity="0.82"/>
<rect x="850.50" y="364.54" width="3.00" height="1.75" fill="#5f6b7a" opacity="0.82"/>
<rect x="854.00" y="364.90" width="3.00" height="1.39" fill="#5f6b7a" opacity="0.82"/>
<rect x="857.50" y="366.29" width="3.00" height="1.30" fill="#5f6b7a" opacity="0.82"/>
<rect x="861.00" y="366.29" width="3.00" height="0.80" fill="#5f6b7a" opacity="0.82"/>
<rect x="864.50" y="365.85" width="3.00" height="0.80" fill="#5f6b7a" opacity="0.82"/>
<rect x="868.00" y="366.19" width="3.00" height="0.80" fill="#5f6b7a" opacity="0.82"/>
<rect x="871.50" y="365.42" width="3.00" height="0.87" fill="#5f6b7a" opacity="0.82"/>
<rect x="875.00" y="366.29" width="3.00" height="0.80" fill="#5f6b7a" opacity="0.82"/>
<rect x="878.50" y="366.29" width="3.00" height="0.80" fill="#5f6b7a" opacity="0.82"/>
<rect x="882.00" y="365.84" width="3.00" height="0.80" fill="#5f6b7a" opacity="0.82"/>
<rect x="885.50" y="366.07" width="3.00" height="0.80" fill="#5f6b7a" opacity="0.82"/>
<rect x="889.00" y="366.29" width="3.00" height="1.83" fill="#5f6b7a" opacity="0.82"/>
<rect x="892.50" y="366.29" width="3.00" height="1.32" fill="#5f6b7a" opacity="0.82"/>
<rect x="896.00" y="365.96" width="3.00" height="0.80" fill="#5f6b7a" opacity="0.82"/>
<rect x="899.50" y="366.29" width="3.00" height="0.80" fill="#5f6b7a" opacity="0.82"/>
<rect x="903.00" y="366.29" width="3.00" height="0.80" fill="#5f6b7a" opacity="0.82"/>
<rect x="906.50" y="366.03" width="3.00" height="0.80" fill="#5f6b7a" opacity="0.82"/>
<rect x="910.00" y="366.29" width="3.00" height="1.04" fill="#5f6b7a" opacity="0.82"/>
<rect x="913.50" y="366.29" width="3.00" height="0.80" fill="#5f6b7a" opacity="0.82"/>
<rect x="917.00" y="365.93" width="3.00" height="0.80" fill="#5f6b7a" opacity="0.82"/>
<rect x="920.50" y="366.29" width="3.00" height="0.80" fill="#5f6b7a" opacity="0.82"/>
<rect x="924.00" y="366.29" width="3.00" height="0.80" fill="#5f6b7a" opacity="0.82"/>
<rect x="927.50" y="366.04" width="3.00" height="0.80" fill="#5f6b7a" opacity="0.82"/>
<rect x="931.00" y="365.90" width="3.00" height="0.80" fill="#5f6b7a" opacity="0.82"/>
<rect x="934.50" y="366.29" width="3.00" height="1.08" fill="#5f6b7a" opacity="0.82"/>
<rect x="938.00" y="366.22" width="3.00" height="0.80" fill="#5f6b7a" opacity="0.82"/>
<rect x="941.50" y="364.53" width="3.00" height="1.76" fill="#5f6b7a" opacity="0.82"/>
<rect x="945.00" y="366.29" width="3.00" height="0.80" fill="#5f6b7a" opacity="0.82"/>
<rect x="948.50" y="366.29" width="3.00" height="0.80" fill="#5f6b7a" opacity="0.82"/>
<rect x="952.00" y="366.29" width="3.00" height="0.80" fill="#5f6b7a" opacity="0.82"/>
<rect x="955.50" y="365.67" width="3.00" height="0.80" fill="#5f6b7a" opacity="0.82"/>
<rect x="959.00" y="366.29" width="3.00" height="0.80" fill="#5f6b7a" opacity="0.82"/>
<rect x="962.50" y="366.29" width="3.00" height="0.80" fill="#5f6b7a" opacity="0.82"/>
<rect x="966.00" y="366.29" width="3.00" height="0.80" fill="#5f6b7a" opacity="0.82"/>
<rect x="969.50" y="366.29" width="3.00" height="1.79" fill="#5f6b7a" opacity="0.82"/>
<rect x="973.00" y="366.29" width="3.00" height="0.80" fill="#5f6b7a" opacity="0.82"/>
<rect x="976.50" y="365.77" width="3.00" height="0.80" fill="#5f6b7a" opacity="0.82"/>
<rect x="980.00" y="366.12" width="3.00" height="0.80" fill="#5f6b7a" opacity="0.82"/>
<rect x="983.50" y="366.27" width="3.00" height="0.80" fill="#5f6b7a" opacity="0.82"/>
<rect x="987.00" y="365.40" width="3.00" height="0.90" fill="#5f6b7a" opacity="0.82"/>
<rect x="990.50" y="366.29" width="3.00" height="0.83" fill="#5f6b7a" opacity="0.82"/>
<rect x="994.00" y="366.29" width="3.00" height="0.80" fill="#5f6b7a" opacity="0.82"/>
<rect x="997.50" y="366.29" width="3.00" height="1.46" fill="#5f6b7a" opacity="0.82"/>
<rect x="1001.00" y="366.29" width="3.00" height="1.10" fill="#5f6b7a" opacity="0.82"/>
<rect x="1004.50" y="365.99" width="3.00" height="0.80" fill="#5f6b7a" opacity="0.82"/>
<rect x="1008.00" y="366.29" width="3.00" height="1.14" fill="#5f6b7a" opacity="0.82"/>
<rect x="1011.50" y="366.29" width="3.00" height="0.95" fill="#5f6b7a" opacity="0.82"/>
<rect x="1015.00" y="366.29" width="3.00" height="1.10" fill="#5f6b7a" opacity="0.82"/>
<rect x="1018.50" y="366.28" width="3.00" height="0.80" fill="#5f6b7a" opacity="0.82"/>
<rect x="1022.00" y="366.29" width="3.00" height="1.97" fill="#5f6b7a" opacity="0.82"/>
<rect x="1025.50" y="366.29" width="3.00" height="1.78" fill="#5f6b7a" opacity="0.82"/>
<rect x="1029.00" y="366.29" width="3.00" height="0.80" fill="#5f6b7a" opacity="0.82"/>
<rect x="1032.50" y="365.77" width="3.00" height="0.80" fill="#5f6b7a" opacity="0.82"/>
<rect x="1036.00" y="366.29" width="3.00" height="0.80" fill="#5f6b7a" opacity="0.82"/>
<rect x="1039.50" y="366.29" width="3.00" height="0.80" fill="#5f6b7a" opacity="0.82"/>
<rect x="1043.00" y="366.25" width="3.00" height="0.80" fill="#5f6b7a" opacity="0.82"/>
<rect x="1046.50" y="366.29" width="3.00" height="0.90" fill="#5f6b7a" opacity="0.82"/>
<rect x="1050.00" y="366.29" width="3.00" height="1.44" fill="#5f6b7a" opacity="0.82"/>
<rect x="1053.50" y="366.29" width="3.00" height="0.85" fill="#5f6b7a" opacity="0.82"/>
<rect x="1057.00" y="366.29" width="3.00" height="0.80" fill="#5f6b7a" opacity="0.82"/>
<rect x="1060.50" y="366.20" width="3.00" height="0.80" fill="#5f6b7a" opacity="0.82"/>
<rect x="1064.00" y="366.29" width="3.00" height="0.80" fill="#5f6b7a" opacity="0.82"/>
<rect x="1067.50" y="366.29" width="3.00" height="1.21" fill="#5f6b7a" opacity="0.82"/>
<rect x="1071.00" y="366.29" width="3.00" height="0.80" fill="#5f6b7a" opacity="0.82"/>
<rect x="1074.50" y="366.29" width="3.00" height="0.80" fill="#5f6b7a" opacity="0.82"/>
<rect x="1078.00" y="366.29" width="3.00" height="1.02" fill="#5f6b7a" opacity="0.82"/>
<rect x="1081.50" y="366.29" width="3.00" height="1.09" fill="#5f6b7a" opacity="0.82"/>
<rect x="1085.00" y="366.29" width="3.00" height="0.80" fill="#5f6b7a" opacity="0.82"/>
<rect x="1088.50" y="366.20" width="3.00" height="0.80" fill="#5f6b7a" opacity="0.82"/>
<text x="82.00" y="402" text-anchor="middle" font-family="Arial, sans-serif" font-size="11">0</text>
<text x="124.00" y="402" text-anchor="middle" font-family="Arial, sans-serif" font-size="11">12</text>
<text x="250.00" y="402" text-anchor="middle" font-family="Arial, sans-serif" font-size="11">48</text>
<text x="418.00" y="402" text-anchor="middle" font-family="Arial, sans-serif" font-size="11">96</text>
<text x="586.00" y="402" text-anchor="middle" font-family="Arial, sans-serif" font-size="11">144</text>
<text x="838.00" y="402" text-anchor="middle" font-family="Arial, sans-serif" font-size="11">216</text>
<text x="1090.00" y="402" text-anchor="middle" font-family="Arial, sans-serif" font-size="11">288</text>
<text x="586.00" y="422" text-anchor="middle" font-family="Arial, sans-serif" font-size="13">Retardo</text>
<text transform="translate(18,215.0) rotate(-90)" text-anchor="middle" font-family="Arial, sans-serif" font-size="13">PACF</text>
<text x="90" y="418" font-family="Arial, sans-serif" font-size="11" fill="#8a2222">Bandas orientativas ±0.003962</text>
</svg>