<svg xmlns="http://www.w3.org/2000/svg" width="1180" height="520" viewBox="0 0 1180 520">
<rect x="0" y="0" width="1180" height="520" fill="#ffffff"/>
<text x="590.0" y="28" text-anchor="middle" font-family="Arial, sans-serif" font-size="18" font-weight="700">Fase 14: real vs predicho</text>
<rect x="82" y="58" width="1066.00" height="390.00" fill="none" stroke="#222222"/>
<line x1="82" y1="448.00" x2="1148.00" y2="448.00" stroke="#e8e8e8"/>
<text x="74" y="452.00" text-anchor="end" font-family="Arial, sans-serif" font-size="11">-14.1</text>
<line x1="82" y1="350.50" x2="1148.00" y2="350.50" stroke="#e8e8e8"/>
<text x="74" y="354.50" text-anchor="end" font-family="Arial, sans-serif" font-size="11">-12.4</text>
<line x1="82" y1="253.00" x2="1148.00" y2="253.00" stroke="#e8e8e8"/>
<text x="74" y="257.00" text-anchor="end" font-family="Arial, sans-serif" font-size="11">-10.8</text>
<line x1="82" y1="155.50" x2="1148.00" y2="155.50" stroke="#e8e8e8"/>
<text x="74" y="159.50" text-anchor="end" font-family="Arial, sans-serif" font-size="11">-9.11</text>
<line x1="82" y1="58.00" x2="1148.00" y2="58.00" stroke="#e8e8e8"/>
<text x="74" y="62.00" text-anchor="end" font-family="Arial, sans-serif" font-size="11">-7.45</text>
<polyline points="82.00,345.25 83.48,344.87 84.97,346.93 86.45,367.17 87.93,362.44 89.41,287.04 90.90,286.85 92.38,289.39 93.86,282.93 95.34,282.86 96.83,282.67 98.31,283.66 99.79,286.44 101.27,287.46 102.76,288.01 104.24,288.11 105.72,287.76 107.20,364.07 108.69,366.36 110.17,366.90 111.65,427.11 113.13,414.66 114.62,415.71 116.10,397.37 117.58,407.56 119.07,375.57 120.55,374.32 122.03,374.07 123.51,380.97 125.00,376.02 126.48,377.10 127.96,376.12 129.44,373.49 130.93,380.19 132.41,378.58 133.89,388.34 135.37,387.74 136.86,417.00 138.34,397.94 139.82,394.91 141.30,395.04 142.79,398.04 144.27,397.62 145.75,397.45 147.24,385.70 148.72,348.16 150.20,346.68 151.68,336.27 153.17,336.39 154.65,340.17 156.13,344.18 157.61,345.93 159.10,345.32 160.58,336.77 162.06,317.07 163.54,316.24 165.03,321.22 166.51,341.28 167.99,343.72 169.47,353.50 170.96,338.61 172.44,338.60 173.92,340.49 175.40,326.40 176.89,326.62 178.37,334.71 179.85,358.99 181.34,332.50 182.82,332.56 184.30,326.21 185.78,314.76 187.27,316.71 188.75,314.58 190.23,303.50 191.71,303.72 193.20,307.23 194.68,306.07 196.16,305.07 197.64,306.09 199.13,319.33 200.61,307.28 202.09,307.45 203.57,317.46 205.06,315.98 206.54,326.24 208.02,342.17 209.50,333.55 210.99,324.26 212.47,326.28 213.95,283.30 215.44,274.14 216.92,275.45 218.40,274.83 219.88,274.28 221.37,199.17 222.85,181.56 224.33,106.63 225.81,106.33 227.30,99.52 228.78,99.74 230.26,99.73 231.74,98.72 233.23,98.65 234.71,95.69 236.19,87.06 237.67,85.39 239.16,91.79 240.64,94.15 242.12,142.89 243.61,143.45 245.09,158.84 246.57,155.55 248.05,149.40 249.54,152.58 251.02,151.68 252.50,159.05 253.98,196.88 255.47,209.63 256.95,209.26 258.43,212.40 259.91,219.72 261.40,219.47 262.88,213.03 264.36,222.98 265.84,248.25 267.33,263.50 268.81,266.19 270.29,260.11 271.77,257.80 273.26,257.90 274.74,257.75 276.22,268.78 277.71,272.52 279.19,268.21 280.67,283.84 282.15,264.68 283.64,264.31 285.12,264.36 286.60,271.55 288.08,282.80 289.57,290.13 291.05,280.15 292.53,282.10 294.01,278.54 295.50,269.87 296.98,261.35 298.46,265.67 299.94,279.47 301.43,279.97 302.91,277.17 304.39,280.57 305.87,282.09 307.36,282.00 308.84,294.50 310.32,290.17 311.81,290.45 313.29,297.38 314.77,283.97 316.25,282.53 317.74,285.02 319.22,279.79 320.70,272.70 322.18,243.39 323.67,239.25 325.15,231.07 326.63,223.85 328.11,224.58 329.60,223.77 331.08,223.04 332.56,234.32 334.04,235.31 335.53,235.88 337.01,237.49 338.49,239.06 339.97,248.19 341.46,253.18 342.94,265.45 344.42,280.79 345.91,282.32 347.39,268.36 348.87,267.33 350.35,257.56 351.84,252.55 353.32,246.85 354.80,247.15 356.28,251.16 357.77,271.12 359.25,271.14 360.73,271.59 362.21,271.67 363.70,266.06 365.18,267.79 366.66,274.29 368.14,288.14 369.63,289.74 371.11,305.65 372.59,296.78 374.08,229.35 375.56,223.38 377.04,223.38 378.52,222.81 380.01,215.75 381.49,217.18 382.97,221.70 384.45,216.42 385.94,216.16 387.42,211.88 388.90,211.96 390.38,212.29 391.87,251.87 393.35,262.55 394.83,258.32 396.31,258.25 397.80,270.71 399.28,271.15 400.76,273.35 402.24,282.46 403.73,283.33 405.21,299.01 406.69,282.48 408.18,289.37 409.66,291.26 411.14,281.30 412.62,285.24 414.11,286.78 415.59,290.27 417.07,291.58 418.55,295.24 420.04,303.61 421.52,303.26 423.00,312.30 424.48,328.02 425.97,326.69 427.45,280.28 428.93,231.80 430.41,220.30 431.90,219.42 433.38,219.51 434.86,218.61 436.34,218.59 437.83,216.65 439.31,213.07 440.79,213.10 442.28,214.92 443.76,214.10 445.24,226.24 446.72,276.75 448.21,277.14 449.69,279.63 451.17,269.77 452.65,260.21 454.14,258.36 455.62,260.79 457.10,270.07 458.58,262.33 460.07,258.38 461.55,260.22 463.03,246.58 464.51,241.98 466.00,260.61 467.48,240.16 468.96,210.20 470.45,215.13 471.93,207.02 473.41,204.66 474.89,201.73 476.38,203.75 477.86,203.61 479.34,199.45 480.82,205.38 482.31,207.66 483.79,207.39 485.27,218.18 486.75,246.61 488.24,246.84 489.72,230.83 491.20,235.58 492.68,224.35 494.17,202.00 495.65,200.91 497.13,190.32 498.61,186.19 500.10,184.49 501.58,184.64 503.06,178.62 504.55,183.04 506.03,182.80 507.51,195.52 508.99,194.91 510.48,185.53 511.96,182.27 513.44,183.94 514.92,190.40 516.41,194.85 517.89,187.23 519.37,185.13 520.85,191.79 522.34,191.26 523.82,170.86 525.30,171.13 526.78,171.47 528.27,185.48 529.75,201.87 531.23,189.94 532.71,195.98 534.20,189.80 535.68,197.03 537.16,190.12 538.65,189.00 540.13,188.12 541.61,214.23 543.09,214.26 544.58,206.59 546.06,205.06 547.54,208.75 549.02,218.36 550.51,219.29 551.99,222.41 553.47,213.77 554.95,226.68 556.44,228.12 557.92,227.64 559.40,231.46 560.88,228.80 562.37,224.36 563.85,208.06 565.33,209.23 566.82,214.28 568.30,212.64 569.78,199.60 571.26,209.81 572.75,210.77 574.23,211.45 575.71,209.09 577.19,208.20 578.68,201.25 580.16,206.48 581.64,222.11 583.12,222.59 584.61,223.58 586.09,225.68 587.57,258.42 589.05,256.68 590.54,250.10 592.02,247.48 593.50,247.61 594.98,250.49 596.47,245.96 597.95,240.84 599.43,243.98 600.92,242.65 602.40,243.40 603.88,243.24 605.36,243.62 606.85,244.69 608.33,246.96 609.81,248.40 611.29,244.90 612.78,244.59 614.26,269.81 615.74,279.24 617.22,279.52 618.71,281.90 620.19,283.69 621.67,283.70 623.15,284.50 624.64,271.96 626.12,267.96 627.60,269.77 629.08,288.69 630.57,281.80 632.05,281.29 633.53,297.84 635.02,274.76 636.50,269.39 637.98,262.74 639.46,262.49 640.95,262.09 642.43,270.93 643.91,282.91 645.39,280.05 646.88,282.20 648.36,289.64 649.84,266.48 651.32,249.95 652.81,216.82 654.29,154.93 655.77,132.50 657.25,129.51 658.74,129.09 660.22,119.44 661.70,117.06 663.18,117.13 664.67,116.94 666.15,116.54 667.63,116.95 669.12,117.99 670.60,123.24 672.08,150.87 673.56,185.31 675.05,190.77 676.53,190.97 678.01,228.57 679.49,236.18 680.98,236.40 682.46,235.53 683.94,238.76 685.42,218.76 686.91,220.09 688.39,222.30 689.87,219.34 691.35,216.76 692.84,221.11 694.32,222.89 695.80,228.26 697.29,237.22 698.77,230.61 700.25,230.31 701.73,229.98 703.22,262.58 704.70,241.25 706.18,207.29 707.66,212.37 709.15,188.95 710.63,188.19 712.11,187.20 713.59,181.54 715.08,181.50 716.56,184.53 718.04,184.75 719.52,182.38 721.01,184.16 722.49,189.31 723.97,215.68 725.45,198.67 726.94,158.21 728.42,157.11 729.90,155.56 731.39,159.10 732.87,159.09 734.35,159.08 735.83,158.90 737.32,160.45 738.80,155.18 740.28,145.18 741.76,144.56 743.25,150.13 744.73,207.09 746.21,209.80 747.69,212.07 749.18,210.70 750.66,210.86 752.14,210.04 753.62,203.84 755.11,203.86 756.59,208.92 758.07,193.94 759.55,195.37 761.04,193.46 762.52,193.37 764.00,194.03 765.49,196.06 766.97,197.14 768.45,193.25 769.93,193.08 771.42,199.20 772.90,195.96 774.38,200.96 775.86,272.96 777.35,272.51 778.83,274.18 780.31,242.20 781.79,242.16 783.28,240.10 784.76,240.15 786.24,249.13 787.72,250.82 789.21,250.73 790.69,260.05 792.17,260.43 793.66,258.56 795.14,257.99 796.62,257.29 798.10,305.93 799.59,306.68 801.07,311.19 802.55,309.42 804.03,296.27 805.52,297.27 807.00,291.93 808.48,290.60 809.96,290.60 811.45,300.43 812.93,301.16 814.41,323.12 815.89,324.27 817.38,323.97 818.86,328.54 820.34,321.43 821.82,340.90 823.31,340.03 824.79,311.31 826.27,310.80 827.76,317.09 829.24,295.50 830.72,296.67 832.20,298.54 833.69,295.35 835.17,295.54 836.65,295.47 838.13,283.89 839.62,282.30 841.10,282.40 842.58,307.04 844.06,308.49 845.55,297.96 847.03,312.84 848.51,306.59 849.99,305.51 851.48,305.33 852.96,302.53 854.44,298.45 855.92,278.19 857.41,280.35 858.89,271.00 860.37,269.70 861.86,263.40 863.34,269.37 864.82,269.97 866.30,270.89 867.79,268.83 869.27,262.80 870.75,264.15 872.23,233.61 873.72,217.53 875.20,217.54 876.68,221.21 878.16,221.12 879.65,221.85 881.13,217.22 882.61,213.54 884.09,213.90 885.58,212.07 887.06,211.92 888.54,211.09 890.03,217.78 891.51,198.23 892.99,191.54 894.47,178.79 895.96,178.02 897.44,171.78 898.92,173.43 900.40,173.39 901.89,172.90 903.37,168.28 904.85,167.72 906.33,167.88 907.82,173.40 909.30,196.97 910.78,204.33 912.26,219.16 913.75,221.22 915.23,231.98 916.71,195.11 918.19,195.76 919.68,196.51 921.16,206.68 922.64,205.70 924.13,204.91 925.61,193.35 927.09,188.18 928.57,186.36 930.06,184.87 931.54,184.91 933.02,165.31 934.50,185.17 935.99,181.53 937.47,181.74 938.95,176.96 940.43,180.02 941.92,177.68 943.40,186.37 944.88,194.80 946.36,192.55 947.85,197.75 949.33,197.47 950.81,238.82 952.29,238.55 953.78,254.69 955.26,226.96 956.74,210.48 958.23,209.63 959.71,215.21 961.19,213.63 962.67,215.31 964.16,222.03 965.64,218.33 967.12,218.81 968.60,223.43 970.09,221.19 971.57,220.95 973.05,215.63 974.53,247.17 976.02,243.96 977.50,241.67 978.98,241.94 980.46,241.02 981.95,239.52 983.43,245.88 984.91,244.73 986.39,244.94 987.88,248.63 989.36,241.80 990.84,291.48 992.33,290.44 993.81,298.25 995.29,304.16 996.77,309.98 998.26,312.49 999.74,317.50 1001.22,298.54 1002.70,298.94 1004.19,297.93 1005.67,226.69 1007.15,231.08 1008.63,233.65 1010.12,215.17 1011.60,215.19 1013.08,206.46 1014.56,206.61 1016.05,202.97 1017.53,203.01 1019.01,206.33 1020.50,206.81 1021.98,206.98 1023.46,234.49 1024.94,236.67 1026.43,236.07 1027.91,260.58 1029.39,262.66 1030.87,289.17 1032.36,289.59 1033.84,308.06 1035.32,304.41 1036.80,304.39 1038.29,295.86 1039.77,285.71 1041.25,301.74 1042.73,278.07 1044.22,247.31 1045.70,250.72 1047.18,250.52 1048.66,248.29 1050.15,248.04 1051.63,245.57 1053.11,242.52 1054.60,240.95 1056.08,242.61 1057.56,247.41 1059.04,255.66 1060.53,268.50 1062.01,309.81 1063.49,287.76 1064.97,288.09 1066.46,285.11 1067.94,278.49 1069.42,263.80 1070.90,265.05 1072.39,266.43 1073.87,265.64 1075.35,263.34 1076.83,259.68 1078.32,249.50 1079.80,87.62 1081.28,85.40 1082.76,84.45 1084.25,84.34 1085.73,84.44 1087.21,84.52 1088.70,80.88 1090.18,79.38 1091.66,78.89 1093.14,79.01 1094.63,79.11 1096.11,78.98 1097.59,173.70 1099.07,186.35 1100.56,191.39 1102.04,193.44 1103.52,188.64 1105.00,192.83 1106.49,225.66 1107.97,246.77 1109.45,258.32 1110.93,255.42 1112.42,256.59 1113.90,274.20 1115.38,293.24 1116.87,243.70 1118.35,244.67 1119.83,244.05 1121.31,258.56 1122.80,256.14 1124.28,256.20 1125.76,255.59 1127.24,255.73 1128.73,257.63 1130.21,252.00 1131.69,251.59 1133.17,245.13 1134.66,304.59 1136.14,294.20 1137.62,296.08 1139.10,298.99 1140.59,303.19 1142.07,302.91 1143.55,295.92 1145.03,286.43 1146.52,288.13 1148.00,299.12" fill="none" stroke="#222222" stroke-width="1.6"/>
<polyline points="82.00,285.13 83.48,286.38 84.97,286.20 86.45,286.19 87.93,291.60 89.41,292.19 90.90,328.91 92.38,321.12 93.86,315.22 95.34,313.66 96.83,316.31 98.31,319.95 99.79,311.20 101.27,310.82 102.76,312.36 104.24,325.57 105.72,322.07 107.20,266.43 108.69,289.28 110.17,292.37 111.65,286.81 113.13,288.06 114.62,290.37 116.10,293.60 117.58,291.97 119.07,292.88 120.55,294.20 122.03,301.37 123.51,300.82 125.00,330.08 126.48,336.77 127.96,333.37 129.44,371.34 130.93,356.83 132.41,354.59 133.89,341.06 135.37,347.70 136.86,324.05 138.34,324.17 139.82,328.61 141.30,333.11 142.79,341.49 144.27,345.47 145.75,343.59 147.24,360.69 148.72,359.91 150.20,358.03 151.68,358.28 153.17,360.23 154.65,369.40 156.13,352.80 157.61,352.09 159.10,354.33 160.58,361.12 162.06,362.18 163.54,361.11 165.03,359.39 166.51,332.24 167.99,334.11 169.47,329.53 170.96,331.83 172.44,340.77 173.92,337.99 175.40,338.37 176.89,339.06 178.37,336.68 179.85,323.70 181.34,325.26 182.82,331.89 184.30,335.38 185.78,336.25 187.27,340.11 188.75,330.48 190.23,335.05 191.71,334.76 193.20,325.53 194.68,327.00 196.16,334.33 197.64,345.49 199.13,325.08 200.61,328.35 202.09,325.69 203.57,319.43 205.06,323.55 206.54,318.69 208.02,313.64 209.50,315.36 210.99,313.93 212.47,314.64 213.95,315.94 215.44,322.32 216.92,322.99 218.40,313.92 219.88,313.22 221.37,317.38 222.85,318.29 224.33,321.96 225.81,330.52 227.30,322.88 228.78,314.97 230.26,316.50 231.74,286.75 233.23,286.54 234.71,290.61 236.19,287.89 237.67,287.16 239.16,236.04 240.64,230.63 242.12,185.26 243.61,198.71 245.09,198.25 246.57,200.14 248.05,204.63 249.54,193.16 251.02,194.70 252.50,196.95 253.98,191.67 255.47,195.63 256.95,178.89 258.43,179.01 259.91,193.05 261.40,195.26 262.88,203.04 264.36,199.12 265.84,196.25 267.33,192.35 268.81,193.14 270.29,198.45 271.77,222.72 273.26,228.77 274.74,216.76 276.22,215.40 277.71,224.73 279.19,224.33 280.67,221.87 282.15,227.25 283.64,242.59 285.12,247.57 286.60,244.27 288.08,239.50 289.57,247.33 291.05,249.41 292.53,242.49 294.01,248.74 295.50,253.50 296.98,247.57 298.46,256.03 299.94,241.39 301.43,247.29 302.91,249.74 304.39,253.72 305.87,258.45 307.36,266.02 308.84,258.41 310.32,255.46 311.81,255.12 313.29,251.01 314.77,243.12 316.25,252.17 317.74,256.34 319.22,258.74 320.70,258.35 322.18,262.70 323.67,265.84 325.15,269.37 326.63,274.99 328.11,271.29 329.60,271.97 331.08,276.90 332.56,262.94 334.04,266.46 335.53,270.70 337.01,268.59 338.49,263.82 339.97,245.81 341.46,247.96 342.94,246.88 344.42,246.48 345.91,247.36 347.39,248.67 348.87,250.74 350.35,253.25 351.84,255.10 353.32,257.95 354.80,258.67 356.28,258.12 357.77,256.34 359.25,259.47 360.73,266.05 362.21,275.27 363.70,274.35 365.18,263.44 366.66,263.57 368.14,257.48 369.63,255.96 371.11,253.46 372.59,254.51 374.08,257.22 375.56,270.45 377.04,270.25 378.52,272.44 380.01,276.42 381.49,272.32 382.97,268.24 384.45,272.84 385.94,279.41 387.42,277.52 388.90,286.82 390.38,278.69 391.87,230.26 393.35,236.72 394.83,240.75 396.31,243.17 397.80,241.27 399.28,241.61 400.76,243.91 402.24,242.44 403.73,245.82 405.21,243.40 406.69,249.24 408.18,247.23 409.66,253.79 411.14,260.98 412.62,256.45 414.11,256.22 415.59,264.02 417.07,263.16 418.55,264.66 420.04,269.66 421.52,271.33 423.00,279.51 424.48,268.24 425.97,271.59 427.45,274.90 428.93,271.21 430.41,272.09 431.90,273.65 433.38,279.62 434.86,279.34 436.34,281.45 437.83,289.47 439.31,288.31 440.79,297.85 442.28,303.03 443.76,301.49 445.24,268.20 446.72,234.22 448.21,232.38 449.69,236.05 451.17,240.22 452.65,241.32 454.14,244.61 455.62,247.44 457.10,245.74 458.58,252.31 460.07,257.45 461.55,257.74 463.03,252.21 464.51,271.81 466.00,266.05 467.48,266.24 468.96,260.05 470.45,253.88 471.93,254.49 473.41,258.27 474.89,263.95 476.38,260.33 477.86,259.30 479.34,261.57 480.82,250.28 482.31,256.87 483.79,268.86 485.27,254.01 486.75,231.37 488.24,234.70 489.72,230.67 491.20,232.31 492.68,234.03 494.17,235.47 495.65,236.23 497.13,234.84 498.61,233.65 500.10,238.18 501.58,243.87 503.06,245.13 504.55,252.81 506.03,251.14 507.51,235.59 508.99,239.54 510.48,232.33 511.96,217.22 513.44,219.27 514.92,212.11 516.41,209.68 517.89,212.11 519.37,216.27 520.85,213.29 522.34,221.98 523.82,222.27 525.30,224.39 526.78,225.42 528.27,215.41 529.75,205.91 531.23,208.35 532.71,210.08 534.20,212.26 535.68,208.37 537.16,209.48 538.65,213.00 540.13,215.81 541.61,200.98 543.09,203.89 544.58,205.58 546.06,211.14 547.54,217.89 549.02,208.23 550.51,212.57 551.99,208.99 553.47,211.71 554.95,206.27 556.44,207.19 557.92,208.84 559.40,221.06 560.88,219.94 562.37,214.04 563.85,214.96 565.33,220.89 566.82,222.80 568.30,224.56 569.78,224.15 571.26,218.09 572.75,224.39 574.23,225.00 575.71,224.68 577.19,232.34 578.68,229.82 580.16,223.09 581.64,212.16 583.12,216.77 584.61,222.18 586.09,221.75 587.57,212.21 589.05,217.89 590.54,221.58 592.02,222.09 593.50,219.45 594.98,222.94 596.47,217.54 597.95,219.03 599.43,224.89 600.92,226.32 602.40,228.79 603.88,230.31 605.36,249.01 606.85,247.18 608.33,242.25 609.81,240.04 611.29,239.12 612.78,242.28 614.26,235.63 615.74,232.27 617.22,238.09 618.71,237.86 620.19,239.31 621.67,239.51 623.15,248.43 624.64,248.87 626.12,248.17 627.60,248.09 629.08,244.61 630.57,246.48 632.05,261.70 633.53,264.86 635.02,264.84 636.50,264.85 637.98,266.12 639.46,264.74 640.95,268.74 642.43,259.33 643.91,257.26 645.39,258.67 646.88,270.53 648.36,264.44 649.84,270.28 651.32,283.63 652.81,266.08 654.29,263.06 655.77,259.74 657.25,260.38 658.74,263.09 660.22,265.81 661.70,272.51 663.18,270.19 664.67,276.61 666.15,278.73 667.63,264.06 669.12,260.43 670.60,231.51 672.08,189.64 673.56,179.32 675.05,184.30 676.53,190.39 678.01,187.53 679.49,192.13 680.98,194.15 682.46,199.69 683.94,202.49 685.42,198.92 686.91,199.92 688.39,191.57 689.87,192.38 691.35,209.80 692.84,211.53 694.32,210.80 695.80,235.25 697.29,238.94 698.77,236.11 700.25,235.85 701.73,237.98 703.22,220.30 704.70,222.39 706.18,219.26 707.66,216.07 709.15,221.68 710.63,225.63 712.11,225.56 713.59,240.08 715.08,247.47 716.56,239.95 718.04,239.67 719.52,240.56 721.01,254.68 722.49,236.84 723.97,210.10 725.45,214.00 726.94,200.64 728.42,203.47 729.90,203.71 731.39,207.01 732.87,212.00 734.35,211.86 735.83,211.56 737.32,210.54 738.80,219.27 740.28,215.61 741.76,221.84 743.25,209.31 744.73,174.47 746.21,178.41 747.69,180.49 749.18,186.88 750.66,190.10 752.14,190.99 753.62,191.79 755.11,192.92 756.59,194.06 758.07,186.00 759.55,191.45 761.04,192.58 762.52,217.21 764.00,216.69 765.49,215.46 766.97,215.15 768.45,216.19 769.93,215.26 771.42,210.03 772.90,210.62 774.38,215.16 775.86,199.22 777.35,202.97 778.83,201.38 780.31,212.18 781.79,212.10 783.28,212.93 784.76,213.45 786.24,210.37 787.72,209.34 789.21,211.70 790.69,209.06 792.17,214.86 793.66,258.92 795.14,253.77 796.62,249.70 798.10,229.04 799.59,230.38 801.07,229.96 802.55,229.38 804.03,233.51 805.52,234.27 807.00,233.71 808.48,238.15 809.96,238.55 811.45,257.61 812.93,255.82 814.41,253.56 815.89,279.65 817.38,276.22 818.86,275.97 820.34,272.77 821.82,264.77 823.31,265.36 824.79,261.44 826.27,262.52 827.76,262.99 829.24,278.26 830.72,276.76 832.20,290.99 833.69,302.17 835.17,298.97 836.65,301.59 838.13,294.70 839.62,304.25 841.10,302.03 842.58,278.34 844.06,279.46 845.55,284.94 847.03,277.48 848.51,279.26 849.99,288.25 851.48,291.83 852.96,291.52 854.44,293.39 855.92,281.71 857.41,286.43 858.89,287.15 860.37,294.72 861.86,294.66 863.34,288.84 864.82,296.97 866.30,292.08 867.79,295.65 869.27,296.98 870.75,295.31 872.23,293.88 873.72,274.40 875.20,280.51 876.68,275.30 878.16,278.82 879.65,276.07 881.13,278.66 882.61,281.76 884.09,280.87 885.58,280.90 887.06,279.01 888.54,280.48 890.03,258.68 891.51,240.79 892.99,246.72 894.47,248.91 895.96,251.44 897.44,251.26 898.92,249.99 900.40,249.73 901.89,250.07 903.37,250.62 904.85,249.36 906.33,250.02 907.82,245.46 909.30,222.63 910.78,221.51 912.26,214.72 913.75,217.95 915.23,214.86 916.71,217.02 918.19,217.73 919.68,218.86 921.16,215.41 922.64,215.50 924.13,217.26 925.61,219.56 927.09,225.59 928.57,228.02 930.06,233.36 931.54,234.29 933.02,238.79 934.50,210.81 935.99,213.58 937.47,215.45 938.95,221.62 940.43,219.74 941.92,219.36 943.40,211.23 944.88,210.97 946.36,211.42 947.85,213.52 949.33,213.98 950.81,202.77 952.29,206.19 953.78,203.60 955.26,204.31 956.74,203.56 958.23,205.71 959.71,203.92 961.19,206.80 962.67,212.17 964.16,209.94 965.64,214.08 967.12,213.83 968.60,237.51 970.09,234.65 971.57,242.47 973.05,219.73 974.53,208.16 976.02,210.18 977.50,214.03 978.98,214.05 980.46,218.40 981.95,221.69 983.43,220.49 984.91,220.23 986.39,234.83 987.88,232.14 989.36,235.98 990.84,222.42 992.33,239.38 993.81,234.95 995.29,233.29 996.77,233.11 998.26,234.34 999.74,234.77 1001.22,238.82 1002.70,236.81 1004.19,243.47 1005.67,244.26 1007.15,241.12 1008.63,269.75 1010.12,272.96 1011.60,274.20 1013.08,275.53 1014.56,277.76 1016.05,277.75 1017.53,279.77 1019.01,265.74 1020.50,266.02 1021.98,267.83 1023.46,218.30 1024.94,224.94 1026.43,243.92 1027.91,234.30 1029.39,237.32 1030.87,234.23 1032.36,237.50 1033.84,236.40 1035.32,239.19 1036.80,237.20 1038.29,237.95 1039.77,241.46 1041.25,237.96 1042.73,239.88 1044.22,246.93 1045.70,259.42 1047.18,260.73 1048.66,276.45 1050.15,274.74 1051.63,285.61 1053.11,281.70 1054.60,278.10 1056.08,271.65 1057.56,264.84 1059.04,274.08 1060.53,257.06 1062.01,239.02 1063.49,251.40 1064.97,253.79 1066.46,260.16 1067.94,260.41 1069.42,264.70 1070.90,261.68 1072.39,259.86 1073.87,258.95 1075.35,259.24 1076.83,269.50 1078.32,269.80 1079.80,290.06 1081.28,273.87 1082.76,273.09 1084.25,273.87 1085.73,269.34 1087.21,260.37 1088.70,261.13 1090.18,262.11 1091.66,260.64 1093.14,258.53 1094.63,261.28 1096.11,254.75 1097.59,148.72 1099.07,154.26 1100.56,163.92 1102.04,170.53 1103.52,171.93 1105.00,171.78 1106.49,172.02 1107.97,174.64 1109.45,175.33 1110.93,178.05 1112.42,183.28 1113.90,183.44 1115.38,202.80 1116.87,206.17 1118.35,207.54 1119.83,207.27 1121.31,202.94 1122.80,205.01 1124.28,227.01 1125.76,238.64 1127.24,243.78 1128.73,237.25 1130.21,237.70 1131.69,247.42 1133.17,266.23 1134.66,228.65 1136.14,230.86 1137.62,232.29 1139.10,240.80 1140.59,235.88 1142.07,244.52 1143.55,249.65 1145.03,251.34 1146.52,249.26 1148.00,244.91" fill="none" stroke="#6b8e23" stroke-width="1.6"/>
<polyline points="82.00,292.79 83.48,284.11 84.97,290.81 86.45,298.53 87.93,318.96 89.41,322.05 90.90,343.86 92.38,341.30 93.86,341.23 95.34,340.43 96.83,341.60 98.31,344.11 99.79,338.44 101.27,332.12 102.76,335.70 104.24,337.18 105.72,338.69 107.20,300.28 108.69,296.12 110.17,306.38 111.65,298.48 113.13,297.23 114.62,297.24 116.10,301.70 117.58,308.02 119.07,302.24 120.55,303.25 122.03,287.71 123.51,287.27 125.00,332.40 126.48,341.83 127.96,336.22 129.44,362.46 130.93,368.37 132.41,380.09 133.89,372.82 135.37,384.90 136.86,364.18 138.34,363.38 139.82,363.31 141.30,360.63 142.79,355.09 144.27,358.91 145.75,363.70 147.24,353.93 148.72,359.75 150.20,370.01 151.68,370.02 153.17,369.53 154.65,384.25 156.13,382.24 157.61,380.71 159.10,372.21 160.58,365.57 162.06,356.35 163.54,357.52 165.03,370.31 166.51,347.50 167.99,348.21 169.47,326.07 170.96,324.55 172.44,329.37 173.92,327.27 175.40,328.64 176.89,332.40 178.37,328.30 179.85,315.56 181.34,315.37 182.82,313.23 184.30,323.35 185.78,324.58 187.27,326.84 188.75,319.46 190.23,324.89 191.71,324.60 193.20,319.43 194.68,311.13 196.16,320.52 197.64,334.52 199.13,315.21 200.61,319.79 202.09,324.91 203.57,315.62 205.06,323.51 206.54,327.88 208.02,321.53 209.50,318.24 210.99,305.43 212.47,304.93 213.95,307.90 215.44,317.23 216.92,324.27 218.40,311.19 219.88,308.51 221.37,316.97 222.85,314.08 224.33,314.04 225.81,324.16 227.30,324.43 228.78,317.93 230.26,312.76 231.74,296.81 233.23,290.02 234.71,295.95 236.19,299.00 237.67,300.69 239.16,261.09 240.64,252.47 242.12,192.20 243.61,193.16 245.09,186.69 246.57,184.11 248.05,175.31 249.54,179.07 251.02,186.85 252.50,186.58 253.98,184.43 255.47,184.75 256.95,178.06 258.43,182.22 259.91,207.33 261.40,205.06 262.88,210.18 264.36,214.04 265.84,211.10 267.33,214.46 268.81,206.08 270.29,206.05 271.77,235.39 273.26,241.09 274.74,243.27 276.22,250.68 277.71,257.60 279.19,259.78 280.67,262.36 282.15,270.78 283.64,286.07 285.12,285.69 286.60,291.42 288.08,286.29 289.57,286.42 291.05,291.36 292.53,295.88 294.01,283.17 295.50,286.97 296.98,285.66 298.46,291.82 299.94,285.54 301.43,286.22 302.91,286.55 304.39,293.37 305.87,296.77 307.36,299.28 308.84,296.96 310.32,296.95 311.81,296.86 313.29,296.14 314.77,288.55 316.25,289.58 317.74,296.75 319.22,296.16 320.70,292.08 322.18,294.11 323.67,294.71 325.15,306.04 326.63,314.33 328.11,312.30 329.60,309.66 331.08,315.42 332.56,311.98 334.04,304.89 335.53,299.76 337.01,297.10 338.49,297.16 339.97,283.87 341.46,279.82 342.94,279.50 344.42,268.41 345.91,266.32 347.39,272.34 348.87,273.63 350.35,277.43 351.84,275.46 353.32,276.79 354.80,280.00 356.28,278.73 357.77,288.57 359.25,286.00 360.73,288.65 362.21,293.18 363.70,297.85 365.18,287.37 366.66,283.99 368.14,290.35 369.63,281.30 371.11,280.51 372.59,283.50 374.08,284.99 375.56,291.80 377.04,291.08 378.52,291.23 380.01,293.43 381.49,292.74 382.97,299.74 384.45,300.56 385.94,309.28 387.42,314.13 388.90,319.20 390.38,310.57 391.87,267.66 393.35,265.69 394.83,262.44 396.31,271.51 397.80,261.38 399.28,260.00 400.76,262.00 402.24,260.04 403.73,263.47 405.21,265.08 406.69,267.94 408.18,259.99 409.66,291.35 411.14,281.40 412.62,285.61 414.11,285.78 415.59,284.48 417.07,274.84 418.55,283.57 420.04,291.00 421.52,290.84 423.00,298.96 424.48,288.98 425.97,295.30 427.45,299.44 428.93,282.25 430.41,293.78 431.90,296.30 433.38,297.01 434.86,290.67 436.34,299.68 437.83,301.07 439.31,293.93 440.79,294.29 442.28,304.93 443.76,300.91 445.24,267.39 446.72,244.25 448.21,233.16 449.69,230.65 451.17,229.27 452.65,223.54 454.14,239.72 455.62,238.33 457.10,235.18 458.58,236.53 460.07,235.88 461.55,233.71 463.03,247.74 464.51,276.53 466.00,287.15 467.48,282.72 468.96,277.09 470.45,268.85 471.93,267.91 473.41,270.49 474.89,286.20 476.38,273.82 477.86,267.28 479.34,260.69 480.82,253.88 482.31,250.42 483.79,263.79 485.27,250.66 486.75,233.68 488.24,243.72 489.72,235.14 491.20,235.49 492.68,234.83 494.17,235.97 495.65,235.44 497.13,240.87 498.61,240.22 500.10,241.45 501.58,237.08 503.06,252.68 504.55,272.25 506.03,263.83 507.51,260.22 508.99,265.10 510.48,272.51 511.96,246.71 513.44,238.53 514.92,234.53 516.41,236.62 517.89,228.32 519.37,229.46 520.85,226.96 522.34,223.34 523.82,225.52 525.30,238.48 526.78,238.43 528.27,228.57 529.75,228.21 531.23,234.55 532.71,237.89 534.20,241.53 535.68,251.75 537.16,243.16 538.65,247.84 540.13,238.65 541.61,237.68 543.09,229.51 544.58,223.62 546.06,226.90 547.54,223.34 549.02,212.12 550.51,217.17 551.99,213.61 553.47,221.78 554.95,217.59 556.44,217.64 557.92,219.49 559.40,238.93 560.88,249.58 562.37,245.71 563.85,243.13 565.33,255.58 566.82,264.65 568.30,256.89 569.78,262.07 571.26,256.69 572.75,259.71 574.23,260.45 575.71,251.60 577.19,252.86 578.68,256.76 580.16,255.63 581.64,250.32 583.12,250.99 584.61,246.01 586.09,240.23 587.57,241.47 589.05,243.78 590.54,251.33 592.02,254.25 593.50,259.24 594.98,226.79 596.47,224.79 597.95,223.90 599.43,233.19 600.92,231.35 602.40,232.19 603.88,235.68 605.36,263.65 606.85,266.13 608.33,255.90 609.81,258.42 611.29,267.01 612.78,261.98 614.26,261.26 615.74,254.55 617.22,258.14 618.71,261.55 620.19,262.88 621.67,265.55 623.15,265.23 624.64,260.69 626.12,263.96 627.60,265.91 629.08,264.49 630.57,263.25 632.05,287.97 633.53,292.31 635.02,282.61 636.50,289.52 637.98,285.60 639.46,286.01 640.95,284.60 642.43,278.89 643.91,277.92 645.39,275.46 646.88,272.59 648.36,241.33 649.84,240.97 651.32,246.46 652.81,239.77 654.29,239.12 655.77,235.02 657.25,236.63 658.74,237.51 660.22,237.58 661.70,245.90 663.18,243.20 664.67,236.62 666.15,247.87 667.63,240.25 669.12,236.11 670.60,214.90 672.08,205.88 673.56,185.59 675.05,182.47 676.53,179.81 678.01,173.12 679.49,177.61 680.98,177.71 682.46,179.62 683.94,185.19 685.42,186.12 686.91,184.30 688.39,186.42 689.87,193.74 691.35,213.70 692.84,221.54 694.32,223.44 695.80,241.99 697.29,254.44 698.77,252.56 700.25,259.13 701.73,260.56 703.22,248.75 704.70,254.74 706.18,250.26 707.66,240.48 709.15,235.45 710.63,246.02 712.11,252.67 713.59,251.44 715.08,249.07 716.56,262.35 718.04,259.84 719.52,253.65 721.01,275.38 722.49,254.34 723.97,233.79 725.45,231.09 726.94,206.32 728.42,208.54 729.90,207.91 731.39,203.40 732.87,205.50 734.35,209.19 735.83,212.18 737.32,212.28 738.80,211.12 740.28,221.54 741.76,237.85 743.25,238.52 744.73,204.62 746.21,199.55 747.69,192.32 749.18,196.37 750.66,193.41 752.14,194.03 753.62,194.30 755.11,198.25 756.59,190.15 758.07,187.63 759.55,187.51 761.04,188.00 762.52,224.58 764.00,230.94 765.49,235.01 766.97,236.43 768.45,234.75 769.93,237.90 771.42,230.48 772.90,231.24 774.38,231.03 775.86,215.70 777.35,216.33 778.83,214.82 780.31,216.55 781.79,223.03 783.28,224.00 784.76,226.14 786.24,223.05 787.72,217.81 789.21,227.42 790.69,230.19 792.17,240.31 793.66,278.49 795.14,277.55 796.62,277.96 798.10,258.89 799.59,262.02 801.07,254.46 802.55,255.15 804.03,257.70 805.52,256.80 807.00,257.59 808.48,263.25 809.96,262.95 811.45,259.94 812.93,262.76 814.41,264.68 815.89,295.67 817.38,298.54 818.86,303.09 820.34,298.21 821.82,293.29 823.31,292.82 824.79,288.73 826.27,294.63 827.76,292.17 829.24,301.92 830.72,299.64 832.20,315.55 833.69,314.38 835.17,307.83 836.65,316.54 838.13,310.60 839.62,320.44 841.10,317.23 842.58,299.80 844.06,302.80 845.55,306.11 847.03,301.52 848.51,296.73 849.99,300.11 851.48,304.68 852.96,288.81 854.44,285.50 855.92,281.45 857.41,280.72 858.89,279.93 860.37,295.99 861.86,295.82 863.34,284.86 864.82,294.45 866.30,290.59 867.79,291.29 869.27,280.59 870.75,294.39 872.23,285.85 873.72,280.05 875.20,275.05 876.68,270.03 878.16,270.19 879.65,263.97 881.13,267.66 882.61,265.41 884.09,265.52 885.58,259.34 887.06,260.83 888.54,261.82 890.03,254.19 891.51,239.99 892.99,236.85 894.47,234.00 895.96,233.82 897.44,230.29 898.92,224.73 900.40,226.60 901.89,226.42 903.37,227.76 904.85,230.49 906.33,226.48 907.82,228.63 909.30,223.39 910.78,219.02 912.26,208.27 913.75,207.55 915.23,202.58 916.71,204.35 918.19,210.76 919.68,197.44 921.16,196.16 922.64,194.52 924.13,199.65 925.61,196.06 927.09,206.57 928.57,208.55 930.06,228.16 931.54,231.65 933.02,244.51 934.50,205.01 935.99,208.77 937.47,211.83 938.95,213.54 940.43,210.85 941.92,225.10 943.40,217.67 944.88,216.74 946.36,212.21 947.85,220.14 949.33,221.98 950.81,215.34 952.29,227.94 953.78,229.52 955.26,229.75 956.74,227.91 958.23,228.93 959.71,223.43 961.19,229.33 962.67,233.38 964.16,231.21 965.64,226.25 967.12,230.40 968.60,250.92 970.09,249.71 971.57,262.30 973.05,245.14 974.53,226.64 976.02,226.71 977.50,230.53 978.98,227.70 980.46,230.16 981.95,235.48 983.43,234.73 984.91,229.56 986.39,232.43 987.88,224.28 989.36,222.85 990.84,221.46 992.33,247.60 993.81,246.30 995.29,238.00 996.77,250.94 998.26,248.20 999.74,255.25 1001.22,251.55 1002.70,249.06 1004.19,246.62 1005.67,263.18 1007.15,257.26 1008.63,285.05 1010.12,287.13 1011.60,292.11 1013.08,296.74 1014.56,298.85 1016.05,299.38 1017.53,300.60 1019.01,286.12 1020.50,285.13 1021.98,281.68 1023.46,238.71 1024.94,241.52 1026.43,242.30 1027.91,238.44 1029.39,237.36 1030.87,233.97 1032.36,232.18 1033.84,227.19 1035.32,234.71 1036.80,238.22 1038.29,240.68 1039.77,241.37 1041.25,256.60 1042.73,260.49 1044.22,262.64 1045.70,264.73 1047.18,269.05 1048.66,287.54 1050.15,286.52 1051.63,282.16 1053.11,289.89 1054.60,273.70 1056.08,270.97 1057.56,270.47 1059.04,271.72 1060.53,268.92 1062.01,256.48 1063.49,256.71 1064.97,260.06 1066.46,262.64 1067.94,259.81 1069.42,258.14 1070.90,256.89 1072.39,257.72 1073.87,250.34 1075.35,247.38 1076.83,239.41 1078.32,242.26 1079.80,269.13 1081.28,253.13 1082.76,246.25 1084.25,254.87 1085.73,251.97 1087.21,243.36 1088.70,241.35 1090.18,245.15 1091.66,243.18 1093.14,244.88 1094.63,238.02 1096.11,244.91 1097.59,151.77 1099.07,152.94 1100.56,153.03 1102.04,162.09 1103.52,162.70 1105.00,163.28 1106.49,159.19 1107.97,159.79 1109.45,155.05 1110.93,155.80 1112.42,155.97 1113.90,148.95 1115.38,199.19 1116.87,211.27 1118.35,217.30 1119.83,228.02 1121.31,216.07 1122.80,219.80 1124.28,246.90 1125.76,251.91 1127.24,270.21 1128.73,258.22 1130.21,256.57 1131.69,271.88 1133.17,273.00 1134.66,253.35 1136.14,253.97 1137.62,252.03 1139.10,254.86 1140.59,252.83 1142.07,254.18 1143.55,257.61 1145.03,251.33 1146.52,254.57 1148.00,264.09" fill="none" stroke="#b45f06" stroke-width="1.6"/>
<polyline points="82.00,296.34 83.48,297.50 84.97,297.16 86.45,298.64 87.93,304.45 89.41,305.62 90.90,331.73 92.38,329.30 93.86,327.70 95.34,327.60 96.83,330.10 98.31,332.98 99.79,327.27 101.27,327.03 102.76,327.92 104.24,337.02 105.72,334.88 107.20,298.76 108.69,301.01 110.17,302.23 111.65,298.78 113.13,299.00 114.62,298.96 116.10,300.34 117.58,301.62 119.07,302.37 120.55,303.05 122.03,303.22 123.51,302.94 125.00,336.95 126.48,338.18 127.96,340.55 129.44,367.47 130.93,362.28 132.41,362.93 133.89,354.53 135.37,359.95 136.86,345.52 138.34,344.95 139.82,345.79 141.30,350.02 142.79,347.87 144.27,351.79 145.75,351.46 147.24,350.44 148.72,353.50 150.20,352.98 151.68,357.65 153.17,357.39 154.65,370.33 156.13,361.70 157.61,361.15 159.10,361.19 160.58,362.41 162.06,362.51 163.54,362.81 165.03,357.61 166.51,339.43 167.99,338.91 169.47,333.79 170.96,334.48 172.44,336.37 173.92,338.10 175.40,338.92 176.89,338.77 178.37,341.42 179.85,330.59 181.34,330.11 182.82,334.37 184.30,343.28 185.78,344.43 187.27,348.51 188.75,341.01 190.23,341.19 191.71,341.98 193.20,334.40 194.68,334.80 196.16,338.40 197.64,349.08 199.13,335.34 200.61,335.43 202.09,332.26 203.57,326.32 205.06,327.57 206.54,325.54 208.02,320.24 209.50,320.44 210.99,321.47 212.47,320.82 213.95,320.38 215.44,320.76 216.92,326.45 218.40,320.18 219.88,319.82 221.37,324.32 222.85,323.64 224.33,328.07 225.81,335.29 227.30,331.26 228.78,326.39 230.26,327.31 231.74,304.41 233.23,299.25 234.71,299.84 236.19,298.99 237.67,299.17 239.16,252.83 240.64,240.89 242.12,184.75 243.61,184.50 245.09,179.03 246.57,179.09 248.05,179.09 249.54,177.86 251.02,177.74 252.50,175.41 253.98,168.41 255.47,167.02 256.95,169.86 258.43,170.60 259.91,192.01 261.40,192.25 262.88,199.12 264.36,197.33 265.84,193.92 267.33,195.08 268.81,194.52 270.29,197.80 271.77,214.60 273.26,220.28 274.74,220.18 276.22,221.41 277.71,224.66 279.19,224.58 280.67,221.57 282.15,226.03 283.64,237.31 285.12,244.11 286.60,245.12 288.08,242.27 289.57,241.23 291.05,241.29 292.53,241.21 294.01,246.12 295.50,247.79 296.98,245.81 298.46,252.73 299.94,243.99 301.43,243.82 302.91,244.05 304.39,247.24 305.87,252.23 307.36,255.54 308.84,251.00 310.32,253.10 311.81,252.11 313.29,256.88 314.77,252.85 316.25,257.08 317.74,263.14 319.22,263.37 320.70,263.00 322.18,264.64 323.67,266.65 325.15,272.28 326.63,279.49 328.11,277.46 329.60,278.36 331.08,282.28 332.56,275.11 334.04,274.53 335.53,276.60 337.01,276.39 338.49,273.80 339.97,259.31 341.46,257.31 342.94,252.97 344.42,249.04 345.91,249.36 347.39,249.35 348.87,248.93 350.35,253.94 351.84,255.38 353.32,255.53 354.80,256.17 356.28,256.53 357.77,259.90 359.25,262.69 360.73,268.42 362.21,275.32 363.70,276.08 365.18,268.90 366.66,268.12 368.14,263.38 369.63,261.07 371.11,258.88 372.59,258.99 374.08,260.75 375.56,269.84 377.04,269.92 378.52,270.14 380.01,270.61 381.49,267.79 382.97,267.89 384.45,271.18 385.94,278.03 387.42,278.48 388.90,285.81 390.38,281.53 391.87,247.70 393.35,244.54 394.83,244.55 396.31,244.27 397.80,240.42 399.28,241.08 400.76,242.99 402.24,240.27 403.73,240.96 405.21,238.45 406.69,238.60 408.18,238.69 409.66,256.48 411.14,262.71 412.62,260.88 414.11,261.42 415.59,267.45 417.07,267.62 418.55,268.68 420.04,272.75 421.52,273.15 423.00,279.86 424.48,272.04 425.97,275.17 427.45,276.17 428.93,272.44 430.41,274.10 431.90,274.80 433.38,276.33 434.86,276.87 436.34,279.32 437.83,283.42 439.31,283.82 440.79,288.13 442.28,295.39 443.76,294.81 445.24,272.59 446.72,247.74 448.21,241.54 449.69,241.07 451.17,241.10 452.65,240.78 454.14,241.35 455.62,240.32 457.10,238.34 458.58,238.52 460.07,239.33 461.55,239.09 463.03,247.82 464.51,271.10 466.00,269.96 467.48,271.12 468.96,267.04 470.45,262.22 471.93,261.54 473.41,263.13 474.89,267.34 476.38,264.23 477.86,262.22 479.34,263.27 480.82,256.40 482.31,254.04 483.79,262.64 485.27,252.23 486.75,235.91 488.24,238.16 489.72,233.72 491.20,232.53 492.68,230.93 494.17,231.92 495.65,232.07 497.13,229.76 498.61,232.47 500.10,233.82 501.58,233.73 503.06,238.54 504.55,250.51 506.03,250.65 507.51,241.81 508.99,243.93 510.48,237.99 511.96,226.30 513.44,225.71 514.92,219.67 516.41,218.03 517.89,218.70 519.37,219.41 520.85,216.02 522.34,218.00 523.82,217.94 525.30,223.57 526.78,223.37 528.27,217.60 529.75,214.30 531.23,215.02 532.71,217.38 534.20,219.49 535.68,215.27 537.16,214.61 538.65,217.59 540.13,217.50 541.61,206.64 543.09,206.81 544.58,206.99 546.06,213.20 547.54,220.33 549.02,214.24 550.51,216.89 551.99,213.99 553.47,217.12 554.95,213.40 556.44,213.25 557.92,213.97 559.40,225.41 560.88,225.85 562.37,222.15 563.85,221.52 565.33,223.11 566.82,227.11 568.30,227.75 569.78,228.82 571.26,224.36 572.75,230.05 574.23,230.65 575.71,230.64 577.19,232.31 578.68,231.89 580.16,229.30 581.64,221.64 583.12,223.18 584.61,225.49 586.09,225.59 587.57,218.93 589.05,223.60 590.54,224.00 592.02,224.81 593.50,223.50 594.98,223.03 596.47,219.42 597.95,221.49 599.43,229.55 600.92,231.27 602.40,231.68 603.88,233.15 605.36,247.70 606.85,247.72 608.33,244.73 609.81,243.47 611.29,243.25 612.78,246.83 614.26,243.87 615.74,240.98 617.22,242.38 618.71,242.10 620.19,243.52 621.67,243.51 623.15,244.29 624.64,245.04 626.12,246.86 627.60,247.59 629.08,245.61 630.57,245.74 632.05,256.93 633.53,261.33 635.02,261.62 636.50,262.81 637.98,264.21 639.46,264.21 640.95,265.10 642.43,260.16 643.91,258.12 645.39,259.01 646.88,267.60 648.36,264.37 649.84,264.26 651.32,272.69 652.81,263.49 654.29,260.92 655.77,257.86 657.25,257.91 658.74,260.26 660.22,264.11 661.70,269.51 663.18,268.14 664.67,269.76 666.15,273.72 667.63,263.78 669.12,258.33 670.60,239.89 672.08,203.61 673.56,189.10 675.05,187.13 676.53,187.01 678.01,180.61 679.49,179.33 680.98,180.03 682.46,180.23 683.94,179.95 685.42,180.38 686.91,181.10 688.39,183.21 689.87,195.40 691.35,210.79 692.84,213.21 694.32,213.30 695.80,229.91 697.29,233.11 698.77,233.22 700.25,233.02 701.73,234.47 703.22,224.66 704.70,225.36 706.18,226.21 707.66,224.71 709.15,223.42 710.63,225.36 712.11,226.14 713.59,228.73 715.08,232.89 716.56,229.75 718.04,229.57 719.52,229.50 721.01,243.91 722.49,233.88 723.97,217.70 725.45,220.02 726.94,208.46 728.42,208.09 729.90,207.59 731.39,204.77 732.87,204.75 734.35,206.13 735.83,206.20 737.32,205.00 738.80,206.04 740.28,208.42 741.76,221.13 743.25,216.34 744.73,196.31 746.21,196.09 747.69,195.22 749.18,198.51 750.66,198.99 752.14,199.01 753.62,198.88 755.11,199.65 756.59,196.90 758.07,190.97 759.55,190.88 761.04,193.38 762.52,218.77 764.00,220.09 765.49,221.03 766.97,220.64 768.45,220.99 769.93,220.64 771.42,217.57 772.90,217.58 774.38,220.32 775.86,211.37 777.35,212.13 778.83,211.28 780.31,211.34 781.79,211.63 783.28,212.53 784.76,213.08 786.24,211.13 787.72,211.18 789.21,213.94 790.69,212.32 792.17,214.64 793.66,247.11 795.14,248.15 796.62,248.72 798.10,235.08 799.59,235.10 801.07,234.16 802.55,234.58 804.03,238.58 805.52,239.32 807.00,239.31 808.48,243.65 809.96,243.80 811.45,243.07 812.93,242.79 814.41,243.11 815.89,270.76 817.38,271.40 818.86,273.97 820.34,273.20 821.82,267.13 823.31,267.58 824.79,265.23 826.27,264.64 827.76,265.56 829.24,272.92 830.72,273.41 832.20,283.41 833.69,283.98 835.17,283.96 836.65,286.30 838.13,283.14 839.62,291.79 841.10,291.49 842.58,278.93 844.06,278.69 845.55,282.32 847.03,279.42 848.51,279.95 849.99,281.69 851.48,280.30 852.96,280.40 854.44,280.43 855.92,274.41 857.41,274.55 858.89,274.81 860.37,285.89 861.86,287.43 863.34,282.52 864.82,289.18 866.30,286.18 867.79,286.55 869.27,290.22 870.75,288.84 872.23,287.28 873.72,275.72 875.20,276.76 876.68,271.87 878.16,271.31 879.65,267.90 881.13,270.83 882.61,271.40 884.09,271.74 885.58,271.63 887.06,268.21 888.54,268.81 890.03,251.67 891.51,240.79 892.99,241.27 894.47,242.90 895.96,243.07 897.44,243.18 898.92,240.70 900.40,238.42 901.89,238.54 903.37,237.42 904.85,236.92 906.33,236.45 907.82,238.09 909.30,224.96 910.78,221.20 912.26,213.94 913.75,214.09 915.23,210.27 916.71,211.03 918.19,210.98 919.68,210.68 921.16,207.74 922.64,207.24 924.13,207.31 925.61,209.78 927.09,220.11 928.57,223.43 930.06,229.68 931.54,230.64 933.02,235.08 934.50,216.61 935.99,216.74 937.47,217.20 938.95,221.92 940.43,221.22 941.92,220.96 943.40,215.10 944.88,212.54 946.36,211.58 947.85,210.73 949.33,210.77 950.81,200.01 952.29,208.86 953.78,206.83 955.26,207.14 956.74,204.87 958.23,206.36 959.71,205.13 961.19,209.70 962.67,214.43 964.16,213.16 965.64,215.44 967.12,215.32 968.60,233.88 970.09,233.92 971.57,241.27 973.05,228.09 974.53,219.81 976.02,219.64 977.50,222.16 978.98,221.90 980.46,224.56 981.95,228.07 983.43,227.21 984.91,227.53 986.39,230.31 987.88,229.24 989.36,229.38 990.84,225.79 992.33,240.46 993.81,239.15 995.29,238.07 996.77,238.16 998.26,238.15 999.74,237.44 1001.22,240.55 1002.70,240.03 1004.19,240.41 1005.67,244.29 1007.15,241.23 1008.63,263.39 1010.12,262.90 1011.60,266.69 1013.08,269.42 1014.56,273.15 1016.05,275.27 1017.53,277.72 1019.01,269.54 1020.50,269.72 1021.98,273.04 1023.46,238.16 1024.94,240.85 1026.43,242.02 1027.91,233.05 1029.39,233.00 1030.87,228.76 1032.36,228.83 1033.84,226.97 1035.32,227.51 1036.80,229.05 1038.29,229.33 1039.77,229.75 1041.25,241.36 1042.73,242.45 1044.22,243.64 1045.70,256.60 1047.18,257.64 1048.66,269.45 1050.15,269.81 1051.63,278.04 1053.11,276.34 1054.60,276.76 1056.08,272.79 1057.56,267.97 1059.04,274.85 1060.53,263.73 1062.01,250.82 1063.49,252.32 1064.97,252.53 1066.46,251.54 1067.94,251.58 1069.42,250.41 1070.90,248.89 1072.39,248.08 1073.87,248.79 1075.35,250.95 1076.83,254.63 1078.32,260.78 1079.80,279.17 1081.28,268.77 1082.76,269.04 1084.25,267.49 1085.73,264.33 1087.21,257.07 1088.70,257.42 1090.18,258.37 1091.66,257.93 1093.14,256.84 1094.63,258.71 1096.11,253.66 1097.59,156.09 1099.07,155.40 1100.56,155.25 1102.04,155.40 1103.52,155.42 1105.00,155.68 1106.49,153.10 1107.97,152.02 1109.45,151.64 1110.93,151.71 1112.42,151.96 1113.90,151.72 1115.38,193.76 1116.87,199.39 1118.35,201.62 1119.83,202.55 1121.31,200.20 1122.80,202.09 1124.28,216.77 1125.76,226.15 1127.24,231.34 1128.73,230.07 1130.21,230.83 1131.69,238.82 1133.17,247.59 1134.66,224.96 1136.14,225.41 1137.62,225.14 1139.10,231.59 1140.59,230.51 1142.07,230.59 1143.55,230.35 1145.03,230.44 1146.52,231.28 1148.00,228.71" fill="none" stroke="#2a6fbb" stroke-width="1.6"/>
<text x="82.00" y="482" text-anchor="middle" font-family="Arial, sans-serif" font-size="10">2026-02-22 16:05</text>
<text x="348.87" y="482" text-anchor="middle" font-family="Arial, sans-serif" font-size="10">2026-02-23 07:05</text>
<text x="615.74" y="482" text-anchor="middle" font-family="Arial, sans-serif" font-size="10">2026-02-23 22:05</text>
<text x="882.61" y="482" text-anchor="middle" font-family="Arial, sans-serif" font-size="10">2026-02-24 13:05</text>
<text x="1148.00" y="482" text-anchor="middle" font-family="Arial, sans-serif" font-size="10">2026-02-25 04:00</text>
<g><line x1="830.00" y1="30.00" x2="858.00" y2="30.00" stroke="#222222" stroke-width="2"/><text x="866.00" y="34.00" font-family="Arial, sans-serif" font-size="12">real</text></g>
<g><line x1="830.00" y1="48.00" x2="858.00" y2="48.00" stroke="#6b8e23" stroke-width="2"/><text x="866.00" y="52.00" font-family="Arial, sans-serif" font-size="12">AR(49)</text></g>
<g><line x1="830.00" y1="66.00" x2="858.00" y2="66.00" stroke="#b45f06" stroke-width="2"/><text x="866.00" y="70.00" font-family="Arial, sans-serif" font-size="12">kNN k=200</text></g>
<g><line x1="830.00" y1="84.00" x2="858.00" y2="84.00" stroke="#2a6fbb" stroke-width="2"/><text x="866.00" y="88.00" font-family="Arial, sans-serif" font-size="12">HAR-logRV</text></g>
<text x="615.00" y="510" text-anchor="middle" font-family="Arial, sans-serif" font-size="13">tiempo</text>
<text transform="translate(18,253.0) rotate(-90)" text-anchor="middle" font-family="Arial, sans-serif" font-size="13">log_rv_future_12</text>
</svg>