<svg xmlns="http://www.w3.org/2000/svg" width="1080" height="460" viewBox="0 0 1080 460">
<rect x="0" y="0" width="1080" height="460" fill="#ffffff"/>
<text x="540.0" y="28" text-anchor="middle" font-family="Arial, sans-serif" font-size="18" font-weight="700">Prediccion test corta t=9215-9264 logistic_clean</text>
<rect x="76" y="58" width="974.00" height="340.00" fill="none" stroke="#222222"/>
<line x1="76" y1="398.00" x2="1050.00" y2="398.00" stroke="#e8e8e8"/>
<text x="68" y="402.00" text-anchor="end" font-family="Arial, sans-serif" font-size="11">-0.0799</text>
<line x1="76" y1="313.00" x2="1050.00" y2="313.00" stroke="#e8e8e8"/>
<text x="68" y="317.00" text-anchor="end" font-family="Arial, sans-serif" font-size="11">0.21</text>
<line x1="76" y1="228.00" x2="1050.00" y2="228.00" stroke="#e8e8e8"/>
<text x="68" y="232.00" text-anchor="end" font-family="Arial, sans-serif" font-size="11">0.5</text>
<line x1="76" y1="143.00" x2="1050.00" y2="143.00" stroke="#e8e8e8"/>
<text x="68" y="147.00" text-anchor="end" font-family="Arial, sans-serif" font-size="11">0.79</text>
<line x1="76" y1="58.00" x2="1050.00" y2="58.00" stroke="#e8e8e8"/>
<text x="68" y="62.00" text-anchor="end" font-family="Arial, sans-serif" font-size="11">1.08</text>
<polyline points="76.00,243.32 95.88,84.64 115.76,361.93 135.63,326.17 155.51,212.93 175.39,84.54 195.27,362.30 215.14,327.51 235.02,216.53 254.90,83.24 274.78,367.43 294.65,346.66 314.53,273.54 334.41,109.72 354.29,272.37 374.16,108.29 394.04,277.02 413.92,114.21 433.80,258.15 453.67,93.84 473.55,327.09 493.43,215.40 513.31,83.61 533.18,365.97 553.06,341.14 572.94,256.06 592.82,92.18 612.69,333.20 632.57,232.42 652.45,81.71 672.33,373.52 692.20,370.35 712.08,357.90 731.96,311.67 751.84,176.94 771.71,117.03 791.59,249.49 811.47,87.74 831.35,349.93 851.22,284.27 871.10,124.63 890.98,227.29 910.86,81.45 930.73,374.55 950.61,374.47 970.49,374.12 990.37,372.76 1010.24,367.34 1030.12,346.33 1050.00,272.48" fill="none" stroke="#222222" stroke-width="1.6"/>
<polyline points="76.00,336.93 95.88,243.32 115.76,84.64 135.63,361.93 155.51,326.17 175.39,212.93 195.27,84.54 215.14,362.30 235.02,327.51 254.90,216.53 274.78,83.24 294.65,367.43 314.53,346.66 334.41,273.54 354.29,109.72 374.16,272.37 394.04,108.29 413.92,277.02 433.80,114.21 453.67,258.15 473.55,93.84 493.43,327.09 513.31,215.40 533.18,83.61 553.06,365.97 572.94,341.14 592.82,256.06 612.69,92.18 632.57,333.20 652.45,232.42 672.33,81.71 692.20,373.52 712.08,370.35 731.96,357.90 751.84,311.67 771.71,176.94 791.59,117.03 811.47,249.49 831.35,87.74 851.22,349.93 871.10,284.27 890.98,124.63 910.86,227.29 930.73,81.45 950.61,374.55 970.49,374.47 990.37,374.12 1010.24,372.76 1030.12,367.34 1050.00,346.33" fill="none" stroke="#6f7f8f" stroke-width="1.6"/>
<polyline points="76.00,227.91 95.88,227.91 115.76,227.91 135.63,227.91 155.51,227.91 175.39,227.91 195.27,227.91 215.14,227.91 235.02,227.91 254.90,227.91 274.78,227.91 294.65,227.91 314.53,227.91 334.41,227.91 354.29,227.91 374.16,227.91 394.04,227.91 413.92,227.91 433.80,227.91 453.67,227.91 473.55,227.91 493.43,227.91 513.31,227.91 533.18,227.91 553.06,227.91 572.94,227.91 592.82,227.91 612.69,227.91 632.57,227.91 652.45,227.91 672.33,227.91 692.20,227.91 712.08,227.91 731.96,227.91 751.84,227.91 771.71,227.91 791.59,227.91 811.47,227.91 831.35,227.91 851.22,227.91 871.10,227.91 890.98,227.91 910.86,227.91 930.73,227.91 950.61,227.91 970.49,227.91 990.37,227.91 1010.24,227.91 1030.12,227.91 1050.00,227.91" fill="none" stroke="#2a6fbb" stroke-width="1.6"/>
<polyline points="76.00,231.08 95.88,91.32 115.76,297.61 135.63,320.64 155.51,193.82 175.39,83.20 195.27,332.60 215.14,315.07 235.02,166.13 254.90,88.00 274.78,333.40 294.65,356.15 314.53,281.09 334.41,106.25 354.29,281.21 374.16,100.36 394.04,306.78 413.92,95.50 433.80,333.22 453.67,94.92 473.55,341.49 493.43,201.42 513.31,90.09 533.18,352.52 553.06,321.14 572.94,295.10 592.82,108.94 612.69,334.19 632.57,253.77 652.45,93.30 672.33,360.78 692.20,357.16 712.08,338.83 731.96,333.43 751.84,175.47 771.71,116.54 791.59,221.14 811.47,109.09 831.35,316.12 851.22,296.33 871.10,125.45 890.98,236.68 910.86,85.73 930.73,336.30 950.61,320.17 970.49,330.22 990.37,316.99 1010.24,326.90 1030.12,348.96 1050.00,328.04" fill="none" stroke="#b45f06" stroke-width="1.6"/>
<g><line x1="870.00" y1="28.00" x2="898.00" y2="28.00" stroke="#222222" stroke-width="2"/><text x="906.00" y="32.00" font-family="Arial, sans-serif" font-size="12">real</text></g>
<g><line x1="870.00" y1="46.00" x2="898.00" y2="46.00" stroke="#6f7f8f" stroke-width="2"/><text x="906.00" y="50.00" font-family="Arial, sans-serif" font-size="12">persistencia</text></g>
<g><line x1="870.00" y1="64.00" x2="898.00" y2="64.00" stroke="#2a6fbb" stroke-width="2"/><text x="906.00" y="68.00" font-family="Arial, sans-serif" font-size="12">AR(0) / media</text></g>
<g><line x1="870.00" y1="82.00" x2="898.00" y2="82.00" stroke="#b45f06" stroke-width="2"/><text x="906.00" y="86.00" font-family="Arial, sans-serif" font-size="12">kNN k=5</text></g>
<line x1="76.00" y1="398.00" x2="76.00" y2="403.00" stroke="#222222"/>
<text x="76.00" y="422" text-anchor="middle" font-family="Arial, sans-serif" font-size="10">9215</text>
<line x1="314.53" y1="398.00" x2="314.53" y2="403.00" stroke="#222222"/>
<text x="314.53" y="422" text-anchor="middle" font-family="Arial, sans-serif" font-size="10">9227</text>
<line x1="572.94" y1="398.00" x2="572.94" y2="403.00" stroke="#222222"/>
<text x="572.94" y="422" text-anchor="middle" font-family="Arial, sans-serif" font-size="10">9240</text>
<line x1="811.47" y1="398.00" x2="811.47" y2="403.00" stroke="#222222"/>
<text x="811.47" y="422" text-anchor="middle" font-family="Arial, sans-serif" font-size="10">9252</text>
<line x1="1050.00" y1="398.00" x2="1050.00" y2="403.00" stroke="#222222"/>
<text x="1050.00" y="422" text-anchor="middle" font-family="Arial, sans-serif" font-size="10">9264</text>
<text x="563.00" y="450" text-anchor="middle" font-family="Arial, sans-serif" font-size="13">t</text>
<text transform="translate(18,228.0) rotate(-90)" text-anchor="middle" font-family="Arial, sans-serif" font-size="13">x[t+1]</text>
</svg>