<svg xmlns="http://www.w3.org/2000/svg" width="920" height="460" viewBox="0 0 920 460">
<rect x="0" y="0" width="920" height="460" fill="#ffffff"/>
<text x="460.0" y="28" text-anchor="middle" font-family="Arial, sans-serif" font-size="18" font-weight="700">Test: RMSE kNN por configuracion</text>
<rect x="76" y="58" width="810.00" height="310.00" fill="none" stroke="#222222" stroke-width="1"/>
<line x1="76" y1="368.00" x2="886.00" y2="368.00" stroke="#e8e8e8" stroke-width="1"/>
<text x="68" y="372.00" text-anchor="end" font-family="Arial, sans-serif" font-size="11">0</text>
<line x1="76" y1="290.50" x2="886.00" y2="290.50" stroke="#e8e8e8" stroke-width="1"/>
<text x="68" y="294.50" text-anchor="end" font-family="Arial, sans-serif" font-size="11">0.274</text>
<line x1="76" y1="213.00" x2="886.00" y2="213.00" stroke="#e8e8e8" stroke-width="1"/>
<text x="68" y="217.00" text-anchor="end" font-family="Arial, sans-serif" font-size="11">0.547</text>
<line x1="76" y1="135.50" x2="886.00" y2="135.50" stroke="#e8e8e8" stroke-width="1"/>
<text x="68" y="139.50" text-anchor="end" font-family="Arial, sans-serif" font-size="11">0.821</text>
<line x1="76" y1="58.00" x2="886.00" y2="58.00" stroke="#e8e8e8" stroke-width="1"/>
<text x="68" y="62.00" text-anchor="end" font-family="Arial, sans-serif" font-size="11">1.09</text>
<rect x="218.50" y="119.80" width="120.00" height="248.20" fill="#2a6fbb" opacity="0.78"/>
<text x="278.50" y="412" text-anchor="middle" font-family="Arial, sans-serif" font-size="12">tau137_m5</text>
<rect x="623.50" y="109.05" width="120.00" height="258.95" fill="#2a6fbb" opacity="0.78"/>
<text x="683.50" y="412" text-anchor="middle" font-family="Arial, sans-serif" font-size="12">tau137_m14</text>
<line x1="76" y1="91.21" x2="886.00" y2="91.21" stroke="#6f7f8f" stroke-width="2.2" stroke-dasharray="6,4"/>
<g><line x1="730.00" y1="28.00" x2="758.00" y2="28.00" stroke="#6f7f8f" stroke-width="2.2" stroke-dasharray="6,4"/><text x="766.00" y="32.00" font-family="Arial, sans-serif" font-size="12">persistencia</text></g>
<line x1="76" y1="123.33" x2="886.00" y2="123.33" stroke="#6b8e23" stroke-width="2.2" stroke-dasharray="6,4"/>
<g><line x1="730.00" y1="46.00" x2="758.00" y2="46.00" stroke="#6b8e23" stroke-width="2.2" stroke-dasharray="6,4"/><text x="766.00" y="50.00" font-family="Arial, sans-serif" font-size="12">AR(49)</text></g>
<text x="481.00" y="450" text-anchor="middle" font-family="Arial, sans-serif" font-size="13">configuracion</text>
<text transform="translate(18,213.0) rotate(-90)" text-anchor="middle" font-family="Arial, sans-serif" font-size="13">RMSE</text>
</svg>