<svg xmlns="http://www.w3.org/2000/svg" width="1120" height="430" viewBox="0 0 1120 430">
<rect x="0" y="0" width="1120" height="430" fill="#ffffff"/>
<text x="560.0" y="26" text-anchor="middle" font-family="Arial, sans-serif" font-size="18" font-weight="700">ACF hasta 288 retardos - Retornos absolutos |r|</text>
<line x1="82" y1="372.00" x2="1090.00" y2="372.00" stroke="#e8e8e8" stroke-width="1"/>
<text x="74" y="376.00" text-anchor="end" font-family="Arial, sans-serif" font-size="11">-0.02</text>
<line x1="82" y1="293.50" x2="1090.00" y2="293.50" stroke="#e8e8e8" stroke-width="1"/>
<text x="74" y="297.50" text-anchor="end" font-family="Arial, sans-serif" font-size="11">0.255</text>
<line x1="82" y1="215.00" x2="1090.00" y2="215.00" stroke="#e8e8e8" stroke-width="1"/>
<text x="74" y="219.00" text-anchor="end" font-family="Arial, sans-serif" font-size="11">0.53</text>
<line x1="82" y1="136.50" x2="1090.00" y2="136.50" stroke="#e8e8e8" stroke-width="1"/>
<text x="74" y="140.50" text-anchor="end" font-family="Arial, sans-serif" font-size="11">0.805</text>
<line x1="82" y1="58.00" x2="1090.00" y2="58.00" stroke="#e8e8e8" stroke-width="1"/>
<text x="74" y="62.00" text-anchor="end" font-family="Arial, sans-serif" font-size="11">1.08</text>
<rect x="82" y="58" width="1008.00" height="314.00" fill="none" stroke="#222222" stroke-width="1"/>
<line x1="82" y1="366.29" x2="1090.00" y2="366.29" stroke="#222222" stroke-width="1"/>
<line x1="82" y1="365.16" x2="1090.00" y2="365.16" stroke="#a33" stroke-width="1" stroke-dasharray="5,4"/>
<line x1="82" y1="367.42" x2="1090.00" y2="367.42" stroke="#a33" stroke-width="1" stroke-dasharray="5,4"/>
<line x1="124.00" y1="58" x2="124.00" y2="372.00" stroke="#777777" stroke-width="1" stroke-dasharray="3,4"/>
<text x="124.00" y="50" text-anchor="middle" font-family="Arial, sans-serif" font-size="10" fill="#555555">12</text>
<line x1="1090.00" y1="58" x2="1090.00" y2="372.00" stroke="#777777" stroke-width="1" stroke-dasharray="3,4"/>
<text x="1090.00" y="50" text-anchor="middle" font-family="Arial, sans-serif" font-size="10" fill="#555555">288</text>
<rect x="80.50" y="80.84" width="3.00" height="285.45" fill="#b45f06" opacity="0.82"/>
<rect x="84.00" y="268.40" width="3.00" height="97.89" fill="#b45f06" opacity="0.82"/>
<rect x="87.50" y="278.48" width="3.00" height="87.82" fill="#b45f06" opacity="0.82"/>
<rect x="91.00" y="282.79" width="3.00" height="83.50" fill="#b45f06" opacity="0.82"/>
<rect x="94.50" y="289.93" width="3.00" height="76.36" fill="#b45f06" opacity="0.82"/>
<rect x="98.00" y="291.47" width="3.00" height="74.83" fill="#b45f06" opacity="0.82"/>
<rect x="101.50" y="290.28" width="3.00" height="76.01" fill="#b45f06" opacity="0.82"/>
<rect x="105.00" y="296.13" width="3.00" height="70.16" fill="#b45f06" opacity="0.82"/>
<rect x="108.50" y="298.44" width="3.00" height="67.85" fill="#b45f06" opacity="0.82"/>
<rect x="112.00" y="298.93" width="3.00" height="67.36" fill="#b45f06" opacity="0.82"/>
<rect x="115.50" y="301.10" width="3.00" height="65.19" fill="#b45f06" opacity="0.82"/>
<rect x="119.00" y="301.62" width="3.00" height="64.67" fill="#b45f06" opacity="0.82"/>
<rect x="122.50" y="300.86" width="3.00" height="65.43" fill="#b45f06" opacity="0.82"/>
<rect x="126.00" y="304.27" width="3.00" height="62.02" fill="#b45f06" opacity="0.82"/>
<rect x="129.50" y="305.40" width="3.00" height="60.89" fill="#b45f06" opacity="0.82"/>
<rect x="133.00" y="306.09" width="3.00" height="60.20" fill="#b45f06" opacity="0.82"/>
<rect x="136.50" y="307.99" width="3.00" height="58.30" fill="#b45f06" opacity="0.82"/>
<rect x="140.00" y="309.51" width="3.00" height="56.78" fill="#b45f06" opacity="0.82"/>
<rect x="143.50" y="308.50" width="3.00" height="57.79" fill="#b45f06" opacity="0.82"/>
<rect x="147.00" y="311.41" width="3.00" height="54.88" fill="#b45f06" opacity="0.82"/>
<rect x="150.50" y="312.84" width="3.00" height="53.45" fill="#b45f06" opacity="0.82"/>
<rect x="154.00" y="313.58" width="3.00" height="52.71" fill="#b45f06" opacity="0.82"/>
<rect x="157.50" y="314.18" width="3.00" height="52.11" fill="#b45f06" opacity="0.82"/>
<rect x="161.00" y="313.71" width="3.00" height="52.58" fill="#b45f06" opacity="0.82"/>
<rect x="164.50" y="314.13" width="3.00" height="52.16" fill="#b45f06" opacity="0.82"/>
<rect x="168.00" y="314.78" width="3.00" height="51.52" fill="#b45f06" opacity="0.82"/>
<rect x="171.50" y="315.73" width="3.00" height="50.56" fill="#b45f06" opacity="0.82"/>
<rect x="175.00" y="315.31" width="3.00" height="50.98" fill="#b45f06" opacity="0.82"/>
<rect x="178.50" y="317.73" width="3.00" height="48.56" fill="#b45f06" opacity="0.82"/>
<rect x="182.00" y="317.98" width="3.00" height="48.32" fill="#b45f06" opacity="0.82"/>
<rect x="185.50" y="316.41" width="3.00" height="49.88" fill="#b45f06" opacity="0.82"/>
<rect x="189.00" y="317.99" width="3.00" height="48.30" fill="#b45f06" opacity="0.82"/>
<rect x="192.50" y="319.10" width="3.00" height="47.19" fill="#b45f06" opacity="0.82"/>
<rect x="196.00" y="319.49" width="3.00" height="46.80" fill="#b45f06" opacity="0.82"/>
<rect x="199.50" y="320.26" width="3.00" height="46.03" fill="#b45f06" opacity="0.82"/>
<rect x="203.00" y="318.94" width="3.00" height="47.35" fill="#b45f06" opacity="0.82"/>
<rect x="206.50" y="319.55" width="3.00" height="46.74" fill="#b45f06" opacity="0.82"/>
<rect x="210.00" y="321.09" width="3.00" height="45.20" fill="#b45f06" opacity="0.82"/>
<rect x="213.50" y="321.80" width="3.00" height="44.49" fill="#b45f06" opacity="0.82"/>
<rect x="217.00" y="322.95" width="3.00" height="43.34" fill="#b45f06" opacity="0.82"/>
<rect x="220.50" y="322.46" width="3.00" height="43.83" fill="#b45f06" opacity="0.82"/>
<rect x="224.00" y="323.83" width="3.00" height="42.46" fill="#b45f06" opacity="0.82"/>
<rect x="227.50" y="322.03" width="3.00" height="44.26" fill="#b45f06" opacity="0.82"/>
<rect x="231.00" y="323.62" width="3.00" height="42.68" fill="#b45f06" opacity="0.82"/>
<rect x="234.50" y="323.61" width="3.00" height="42.68" fill="#b45f06" opacity="0.82"/>
<rect x="238.00" y="323.84" width="3.00" height="42.46" fill="#b45f06" opacity="0.82"/>
<rect x="241.50" y="325.26" width="3.00" height="41.03" fill="#b45f06" opacity="0.82"/>
<rect x="245.00" y="324.26" width="3.00" height="42.04" fill="#b45f06" opacity="0.82"/>
<rect x="248.50" y="323.11" width="3.00" height="43.18" fill="#b45f06" opacity="0.82"/>
<rect x="252.00" y="324.99" width="3.00" height="41.30" fill="#b45f06" opacity="0.82"/>
<rect x="255.50" y="324.58" width="3.00" height="41.71" fill="#b45f06" opacity="0.82"/>
<rect x="259.00" y="324.44" width="3.00" height="41.85" fill="#b45f06" opacity="0.82"/>
<rect x="262.50" y="325.15" width="3.00" height="41.14" fill="#b45f06" opacity="0.82"/>
<rect x="266.00" y="325.67" width="3.00" height="40.63" fill="#b45f06" opacity="0.82"/>
<rect x="269.50" y="324.72" width="3.00" height="41.58" fill="#b45f06" opacity="0.82"/>
<rect x="273.00" y="327.54" width="3.00" height="38.75" fill="#b45f06" opacity="0.82"/>
<rect x="276.50" y="327.02" width="3.00" height="39.27" fill="#b45f06" opacity="0.82"/>
<rect x="280.00" y="326.38" width="3.00" height="39.91" fill="#b45f06" opacity="0.82"/>
<rect x="283.50" y="327.41" width="3.00" height="38.88" fill="#b45f06" opacity="0.82"/>
<rect x="287.00" y="327.33" width="3.00" height="38.96" fill="#b45f06" opacity="0.82"/>
<rect x="290.50" y="326.74" width="3.00" height="39.55" fill="#b45f06" opacity="0.82"/>
<rect x="294.00" y="326.82" width="3.00" height="39.47" fill="#b45f06" opacity="0.82"/>
<rect x="297.50" y="327.74" width="3.00" height="38.56" fill="#b45f06" opacity="0.82"/>
<rect x="301.00" y="325.78" width="3.00" height="40.51" fill="#b45f06" opacity="0.82"/>
<rect x="304.50" y="328.08" width="3.00" height="38.21" fill="#b45f06" opacity="0.82"/>
<rect x="308.00" y="326.88" width="3.00" height="39.41" fill="#b45f06" opacity="0.82"/>
<rect x="311.50" y="326.63" width="3.00" height="39.66" fill="#b45f06" opacity="0.82"/>
<rect x="315.00" y="328.71" width="3.00" height="37.58" fill="#b45f06" opacity="0.82"/>
<rect x="318.50" y="328.12" width="3.00" height="38.18" fill="#b45f06" opacity="0.82"/>
<rect x="322.00" y="328.18" width="3.00" height="38.11" fill="#b45f06" opacity="0.82"/>
<rect x="325.50" y="328.38" width="3.00" height="37.91" fill="#b45f06" opacity="0.82"/>
<rect x="329.00" y="328.29" width="3.00" height="38.00" fill="#b45f06" opacity="0.82"/>
<rect x="332.50" y="328.31" width="3.00" height="37.98" fill="#b45f06" opacity="0.82"/>
<rect x="336.00" y="330.88" width="3.00" height="35.41" fill="#b45f06" opacity="0.82"/>
<rect x="339.50" y="329.38" width="3.00" height="36.91" fill="#b45f06" opacity="0.82"/>
<rect x="343.00" y="330.15" width="3.00" height="36.15" fill="#b45f06" opacity="0.82"/>
<rect x="346.50" y="330.60" width="3.00" height="35.70" fill="#b45f06" opacity="0.82"/>
<rect x="350.00" y="330.04" width="3.00" height="36.25" fill="#b45f06" opacity="0.82"/>
<rect x="353.50" y="330.38" width="3.00" height="35.91" fill="#b45f06" opacity="0.82"/>
<rect x="357.00" y="332.31" width="3.00" height="33.98" fill="#b45f06" opacity="0.82"/>
<rect x="360.50" y="331.90" width="3.00" height="34.39" fill="#b45f06" opacity="0.82"/>
<rect x="364.00" y="332.75" width="3.00" height="33.54" fill="#b45f06" opacity="0.82"/>
<rect x="367.50" y="333.13" width="3.00" height="33.17" fill="#b45f06" opacity="0.82"/>
<rect x="371.00" y="332.38" width="3.00" height="33.91" fill="#b45f06" opacity="0.82"/>
<rect x="374.50" y="330.66" width="3.00" height="35.63" fill="#b45f06" opacity="0.82"/>
<rect x="378.00" y="333.14" width="3.00" height="33.15" fill="#b45f06" opacity="0.82"/>
<rect x="381.50" y="331.81" width="3.00" height="34.48" fill="#b45f06" opacity="0.82"/>
<rect x="385.00" y="331.54" width="3.00" height="34.75" fill="#b45f06" opacity="0.82"/>
<rect x="388.50" y="332.05" width="3.00" height="34.24" fill="#b45f06" opacity="0.82"/>
<rect x="392.00" y="333.33" width="3.00" height="32.96" fill="#b45f06" opacity="0.82"/>
<rect x="395.50" y="332.73" width="3.00" height="33.56" fill="#b45f06" opacity="0.82"/>
<rect x="399.00" y="333.03" width="3.00" height="33.26" fill="#b45f06" opacity="0.82"/>
<rect x="402.50" y="334.44" width="3.00" height="31.85" fill="#b45f06" opacity="0.82"/>
<rect x="406.00" y="334.30" width="3.00" height="31.99" fill="#b45f06" opacity="0.82"/>
<rect x="409.50" y="335.01" width="3.00" height="31.28" fill="#b45f06" opacity="0.82"/>
<rect x="413.00" y="335.52" width="3.00" height="30.77" fill="#b45f06" opacity="0.82"/>
<rect x="416.50" y="334.99" width="3.00" height="31.30" fill="#b45f06" opacity="0.82"/>
<rect x="420.00" y="336.47" width="3.00" height="29.82" fill="#b45f06" opacity="0.82"/>
<rect x="423.50" y="336.97" width="3.00" height="29.32" fill="#b45f06" opacity="0.82"/>
<rect x="427.00" y="335.41" width="3.00" height="30.88" fill="#b45f06" opacity="0.82"/>
<rect x="430.50" y="338.31" width="3.00" height="27.99" fill="#b45f06" opacity="0.82"/>
<rect x="434.00" y="337.87" width="3.00" height="28.43" fill="#b45f06" opacity="0.82"/>
<rect x="437.50" y="337.27" width="3.00" height="29.02" fill="#b45f06" opacity="0.82"/>
<rect x="441.00" y="338.64" width="3.00" height="27.65" fill="#b45f06" opacity="0.82"/>
<rect x="444.50" y="337.80" width="3.00" height="28.49" fill="#b45f06" opacity="0.82"/>
<rect x="448.00" y="338.39" width="3.00" height="27.90" fill="#b45f06" opacity="0.82"/>
<rect x="451.50" y="339.53" width="3.00" height="26.76" fill="#b45f06" opacity="0.82"/>
<rect x="455.00" y="338.95" width="3.00" height="27.35" fill="#b45f06" opacity="0.82"/>
<rect x="458.50" y="338.22" width="3.00" height="28.07" fill="#b45f06" opacity="0.82"/>
<rect x="462.00" y="339.66" width="3.00" height="26.63" fill="#b45f06" opacity="0.82"/>
<rect x="465.50" y="338.98" width="3.00" height="27.31" fill="#b45f06" opacity="0.82"/>
<rect x="469.00" y="338.49" width="3.00" height="27.80" fill="#b45f06" opacity="0.82"/>
<rect x="472.50" y="339.43" width="3.00" height="26.87" fill="#b45f06" opacity="0.82"/>
<rect x="476.00" y="340.13" width="3.00" height="26.16" fill="#b45f06" opacity="0.82"/>
<rect x="479.50" y="339.27" width="3.00" height="27.02" fill="#b45f06" opacity="0.82"/>
<rect x="483.00" y="340.09" width="3.00" height="26.20" fill="#b45f06" opacity="0.82"/>
<rect x="486.50" y="340.15" width="3.00" height="26.14" fill="#b45f06" opacity="0.82"/>
<rect x="490.00" y="339.59" width="3.00" height="26.70" fill="#b45f06" opacity="0.82"/>
<rect x="493.50" y="340.56" width="3.00" height="25.73" fill="#b45f06" opacity="0.82"/>
<rect x="497.00" y="340.76" width="3.00" height="25.53" fill="#b45f06" opacity="0.82"/>
<rect x="500.50" y="339.15" width="3.00" height="27.14" fill="#b45f06" opacity="0.82"/>
<rect x="504.00" y="340.46" width="3.00" height="25.83" fill="#b45f06" opacity="0.82"/>
<rect x="507.50" y="340.31" width="3.00" height="25.99" fill="#b45f06" opacity="0.82"/>
<rect x="511.00" y="339.87" width="3.00" height="26.42" fill="#b45f06" opacity="0.82"/>
<rect x="514.50" y="340.57" width="3.00" height="25.72" fill="#b45f06" opacity="0.82"/>
<rect x="518.00" y="341.28" width="3.00" height="25.01" fill="#b45f06" opacity="0.82"/>
<rect x="521.50" y="339.69" width="3.00" height="26.60" fill="#b45f06" opacity="0.82"/>
<rect x="525.00" y="340.12" width="3.00" height="26.17" fill="#b45f06" opacity="0.82"/>
<rect x="528.50" y="340.99" width="3.00" height="25.30" fill="#b45f06" opacity="0.82"/>
<rect x="532.00" y="339.45" width="3.00" height="26.84" fill="#b45f06" opacity="0.82"/>
<rect x="535.50" y="340.03" width="3.00" height="26.26" fill="#b45f06" opacity="0.82"/>
<rect x="539.00" y="339.90" width="3.00" height="26.39" fill="#b45f06" opacity="0.82"/>
<rect x="542.50" y="339.79" width="3.00" height="26.50" fill="#b45f06" opacity="0.82"/>
<rect x="546.00" y="340.23" width="3.00" height="26.06" fill="#b45f06" opacity="0.82"/>
<rect x="549.50" y="340.39" width="3.00" height="25.90" fill="#b45f06" opacity="0.82"/>
<rect x="553.00" y="339.84" width="3.00" height="26.45" fill="#b45f06" opacity="0.82"/>
<rect x="556.50" y="341.78" width="3.00" height="24.51" fill="#b45f06" opacity="0.82"/>
<rect x="560.00" y="341.26" width="3.00" height="25.03" fill="#b45f06" opacity="0.82"/>
<rect x="563.50" y="339.24" width="3.00" height="27.05" fill="#b45f06" opacity="0.82"/>
<rect x="567.00" y="340.69" width="3.00" height="25.60" fill="#b45f06" opacity="0.82"/>
<rect x="570.50" y="340.99" width="3.00" height="25.30" fill="#b45f06" opacity="0.82"/>
<rect x="574.00" y="340.87" width="3.00" height="25.42" fill="#b45f06" opacity="0.82"/>
<rect x="577.50" y="341.21" width="3.00" height="25.08" fill="#b45f06" opacity="0.82"/>
<rect x="581.00" y="340.67" width="3.00" height="25.62" fill="#b45f06" opacity="0.82"/>
<rect x="584.50" y="339.86" width="3.00" height="26.43" fill="#b45f06" opacity="0.82"/>
<rect x="588.00" y="340.83" width="3.00" height="25.46" fill="#b45f06" opacity="0.82"/>
<rect x="591.50" y="340.94" width="3.00" height="25.35" fill="#b45f06" opacity="0.82"/>
<rect x="595.00" y="339.94" width="3.00" height="26.35" fill="#b45f06" opacity="0.82"/>
<rect x="598.50" y="340.46" width="3.00" height="25.83" fill="#b45f06" opacity="0.82"/>
<rect x="602.00" y="340.64" width="3.00" height="25.65" fill="#b45f06" opacity="0.82"/>
<rect x="605.50" y="339.70" width="3.00" height="26.60" fill="#b45f06" opacity="0.82"/>
<rect x="609.00" y="340.68" width="3.00" height="25.61" fill="#b45f06" opacity="0.82"/>
<rect x="612.50" y="341.35" width="3.00" height="24.94" fill="#b45f06" opacity="0.82"/>
<rect x="616.00" y="341.28" width="3.00" height="25.01" fill="#b45f06" opacity="0.82"/>
<rect x="619.50" y="341.18" width="3.00" height="25.11" fill="#b45f06" opacity="0.82"/>
<rect x="623.00" y="340.81" width="3.00" height="25.48" fill="#b45f06" opacity="0.82"/>
<rect x="626.50" y="338.94" width="3.00" height="27.35" fill="#b45f06" opacity="0.82"/>
<rect x="630.00" y="340.10" width="3.00" height="26.19" fill="#b45f06" opacity="0.82"/>
<rect x="633.50" y="341.00" width="3.00" height="25.29" fill="#b45f06" opacity="0.82"/>
<rect x="637.00" y="341.02" width="3.00" height="25.27" fill="#b45f06" opacity="0.82"/>
<rect x="640.50" y="342.32" width="3.00" height="23.97" fill="#b45f06" opacity="0.82"/>
<rect x="644.00" y="341.75" width="3.00" height="24.54" fill="#b45f06" opacity="0.82"/>
<rect x="647.50" y="340.80" width="3.00" height="25.50" fill="#b45f06" opacity="0.82"/>
<rect x="651.00" y="342.44" width="3.00" height="23.85" fill="#b45f06" opacity="0.82"/>
<rect x="654.50" y="342.30" width="3.00" height="23.99" fill="#b45f06" opacity="0.82"/>
<rect x="658.00" y="341.49" width="3.00" height="24.80" fill="#b45f06" opacity="0.82"/>
<rect x="661.50" y="341.70" width="3.00" height="24.59" fill="#b45f06" opacity="0.82"/>
<rect x="665.00" y="341.79" width="3.00" height="24.50" fill="#b45f06" opacity="0.82"/>
<rect x="668.50" y="341.69" width="3.00" height="24.61" fill="#b45f06" opacity="0.82"/>
<rect x="672.00" y="342.76" width="3.00" height="23.53" fill="#b45f06" opacity="0.82"/>
<rect x="675.50" y="342.76" width="3.00" height="23.53" fill="#b45f06" opacity="0.82"/>
<rect x="679.00" y="342.86" width="3.00" height="23.43" fill="#b45f06" opacity="0.82"/>
<rect x="682.50" y="343.71" width="3.00" height="22.58" fill="#b45f06" opacity="0.82"/>
<rect x="686.00" y="342.82" width="3.00" height="23.47" fill="#b45f06" opacity="0.82"/>
<rect x="689.50" y="341.97" width="3.00" height="24.33" fill="#b45f06" opacity="0.82"/>
<rect x="693.00" y="343.33" width="3.00" height="22.96" fill="#b45f06" opacity="0.82"/>
<rect x="696.50" y="343.93" width="3.00" height="22.37" fill="#b45f06" opacity="0.82"/>
<rect x="700.00" y="343.46" width="3.00" height="22.83" fill="#b45f06" opacity="0.82"/>
<rect x="703.50" y="344.11" width="3.00" height="22.18" fill="#b45f06" opacity="0.82"/>
<rect x="707.00" y="343.52" width="3.00" height="22.77" fill="#b45f06" opacity="0.82"/>
<rect x="710.50" y="342.11" width="3.00" height="24.18" fill="#b45f06" opacity="0.82"/>
<rect x="714.00" y="342.96" width="3.00" height="23.33" fill="#b45f06" opacity="0.82"/>
<rect x="717.50" y="343.46" width="3.00" height="22.83" fill="#b45f06" opacity="0.82"/>
<rect x="721.00" y="341.58" width="3.00" height="24.72" fill="#b45f06" opacity="0.82"/>
<rect x="724.50" y="343.61" width="3.00" height="22.68" fill="#b45f06" opacity="0.82"/>
<rect x="728.00" y="343.42" width="3.00" height="22.87" fill="#b45f06" opacity="0.82"/>
<rect x="731.50" y="341.26" width="3.00" height="25.03" fill="#b45f06" opacity="0.82"/>
<rect x="735.00" y="342.97" width="3.00" height="23.32" fill="#b45f06" opacity="0.82"/>
<rect x="738.50" y="342.24" width="3.00" height="24.05" fill="#b45f06" opacity="0.82"/>
<rect x="742.00" y="341.93" width="3.00" height="24.36" fill="#b45f06" opacity="0.82"/>
<rect x="745.50" y="342.30" width="3.00" height="23.99" fill="#b45f06" opacity="0.82"/>
<rect x="749.00" y="341.58" width="3.00" height="24.71" fill="#b45f06" opacity="0.82"/>
<rect x="752.50" y="340.95" width="3.00" height="25.34" fill="#b45f06" opacity="0.82"/>
<rect x="756.00" y="341.79" width="3.00" height="24.50" fill="#b45f06" opacity="0.82"/>
<rect x="759.50" y="341.78" width="3.00" height="24.51" fill="#b45f06" opacity="0.82"/>
<rect x="763.00" y="340.28" width="3.00" height="26.01" fill="#b45f06" opacity="0.82"/>
<rect x="766.50" y="341.81" width="3.00" height="24.48" fill="#b45f06" opacity="0.82"/>
<rect x="770.00" y="341.15" width="3.00" height="25.14" fill="#b45f06" opacity="0.82"/>
<rect x="773.50" y="341.13" width="3.00" height="25.16" fill="#b45f06" opacity="0.82"/>
<rect x="777.00" y="342.04" width="3.00" height="24.25" fill="#b45f06" opacity="0.82"/>
<rect x="780.50" y="341.63" width="3.00" height="24.66" fill="#b45f06" opacity="0.82"/>
<rect x="784.00" y="340.45" width="3.00" height="25.84" fill="#b45f06" opacity="0.82"/>
<rect x="787.50" y="341.09" width="3.00" height="25.20" fill="#b45f06" opacity="0.82"/>
<rect x="791.00" y="340.56" width="3.00" height="25.73" fill="#b45f06" opacity="0.82"/>
<rect x="794.50" y="338.63" width="3.00" height="27.67" fill="#b45f06" opacity="0.82"/>
<rect x="798.00" y="340.06" width="3.00" height="26.23" fill="#b45f06" opacity="0.82"/>
<rect x="801.50" y="340.34" width="3.00" height="25.95" fill="#b45f06" opacity="0.82"/>
<rect x="805.00" y="339.65" width="3.00" height="26.64" fill="#b45f06" opacity="0.82"/>
<rect x="808.50" y="341.28" width="3.00" height="25.01" fill="#b45f06" opacity="0.82"/>
<rect x="812.00" y="341.24" width="3.00" height="25.05" fill="#b45f06" opacity="0.82"/>
<rect x="815.50" y="338.29" width="3.00" height="28.00" fill="#b45f06" opacity="0.82"/>
<rect x="819.00" y="340.77" width="3.00" height="25.52" fill="#b45f06" opacity="0.82"/>
<rect x="822.50" y="340.22" width="3.00" height="26.07" fill="#b45f06" opacity="0.82"/>
<rect x="826.00" y="339.45" width="3.00" height="26.84" fill="#b45f06" opacity="0.82"/>
<rect x="829.50" y="340.67" width="3.00" height="25.62" fill="#b45f06" opacity="0.82"/>
<rect x="833.00" y="340.08" width="3.00" height="26.21" fill="#b45f06" opacity="0.82"/>
<rect x="836.50" y="337.78" width="3.00" height="28.51" fill="#b45f06" opacity="0.82"/>
<rect x="840.00" y="339.10" width="3.00" height="27.19" fill="#b45f06" opacity="0.82"/>
<rect x="843.50" y="338.84" width="3.00" height="27.46" fill="#b45f06" opacity="0.82"/>
<rect x="847.00" y="338.31" width="3.00" height="27.98" fill="#b45f06" opacity="0.82"/>
<rect x="850.50" y="338.91" width="3.00" height="27.38" fill="#b45f06" opacity="0.82"/>
<rect x="854.00" y="338.53" width="3.00" height="27.76" fill="#b45f06" opacity="0.82"/>
<rect x="857.50" y="337.14" width="3.00" height="29.15" fill="#b45f06" opacity="0.82"/>
<rect x="861.00" y="338.80" width="3.00" height="27.49" fill="#b45f06" opacity="0.82"/>
<rect x="864.50" y="338.71" width="3.00" height="27.58" fill="#b45f06" opacity="0.82"/>
<rect x="868.00" y="338.00" width="3.00" height="28.29" fill="#b45f06" opacity="0.82"/>
<rect x="871.50" y="338.37" width="3.00" height="27.92" fill="#b45f06" opacity="0.82"/>
<rect x="875.00" y="338.84" width="3.00" height="27.45" fill="#b45f06" opacity="0.82"/>
<rect x="878.50" y="337.59" width="3.00" height="28.70" fill="#b45f06" opacity="0.82"/>
<rect x="882.00" y="338.81" width="3.00" height="27.48" fill="#b45f06" opacity="0.82"/>
<rect x="885.50" y="338.96" width="3.00" height="27.33" fill="#b45f06" opacity="0.82"/>
<rect x="889.00" y="337.85" width="3.00" height="28.44" fill="#b45f06" opacity="0.82"/>
<rect x="892.50" y="338.64" width="3.00" height="27.65" fill="#b45f06" opacity="0.82"/>
<rect x="896.00" y="339.42" width="3.00" height="26.87" fill="#b45f06" opacity="0.82"/>
<rect x="899.50" y="338.46" width="3.00" height="27.83" fill="#b45f06" opacity="0.82"/>
<rect x="903.00" y="339.21" width="3.00" height="27.08" fill="#b45f06" opacity="0.82"/>
<rect x="906.50" y="338.09" width="3.00" height="28.20" fill="#b45f06" opacity="0.82"/>
<rect x="910.00" y="338.49" width="3.00" height="27.80" fill="#b45f06" opacity="0.82"/>
<rect x="913.50" y="339.30" width="3.00" height="26.99" fill="#b45f06" opacity="0.82"/>
<rect x="917.00" y="338.42" width="3.00" height="27.87" fill="#b45f06" opacity="0.82"/>
<rect x="920.50" y="337.48" width="3.00" height="28.81" fill="#b45f06" opacity="0.82"/>
<rect x="924.00" y="337.70" width="3.00" height="28.59" fill="#b45f06" opacity="0.82"/>
<rect x="927.50" y="338.30" width="3.00" height="27.99" fill="#b45f06" opacity="0.82"/>
<rect x="931.00" y="338.28" width="3.00" height="28.01" fill="#b45f06" opacity="0.82"/>
<rect x="934.50" y="338.21" width="3.00" height="28.08" fill="#b45f06" opacity="0.82"/>
<rect x="938.00" y="338.61" width="3.00" height="27.68" fill="#b45f06" opacity="0.82"/>
<rect x="941.50" y="336.47" width="3.00" height="29.82" fill="#b45f06" opacity="0.82"/>
<rect x="945.00" y="337.71" width="3.00" height="28.58" fill="#b45f06" opacity="0.82"/>
<rect x="948.50" y="337.54" width="3.00" height="28.75" fill="#b45f06" opacity="0.82"/>
<rect x="952.00" y="337.97" width="3.00" height="28.32" fill="#b45f06" opacity="0.82"/>
<rect x="955.50" y="337.78" width="3.00" height="28.51" fill="#b45f06" opacity="0.82"/>
<rect x="959.00" y="337.09" width="3.00" height="29.20" fill="#b45f06" opacity="0.82"/>
<rect x="962.50" y="336.77" width="3.00" height="29.52" fill="#b45f06" opacity="0.82"/>
<rect x="966.00" y="338.11" width="3.00" height="28.18" fill="#b45f06" opacity="0.82"/>
<rect x="969.50" y="337.34" width="3.00" height="28.95" fill="#b45f06" opacity="0.82"/>
<rect x="973.00" y="336.48" width="3.00" height="29.81" fill="#b45f06" opacity="0.82"/>
<rect x="976.50" y="336.93" width="3.00" height="29.37" fill="#b45f06" opacity="0.82"/>
<rect x="980.00" y="336.76" width="3.00" height="29.54" fill="#b45f06" opacity="0.82"/>
<rect x="983.50" y="335.61" width="3.00" height="30.68" fill="#b45f06" opacity="0.82"/>
<rect x="987.00" y="337.54" width="3.00" height="28.76" fill="#b45f06" opacity="0.82"/>
<rect x="990.50" y="335.83" width="3.00" height="30.46" fill="#b45f06" opacity="0.82"/>
<rect x="994.00" y="335.17" width="3.00" height="31.12" fill="#b45f06" opacity="0.82"/>
<rect x="997.50" y="335.34" width="3.00" height="30.95" fill="#b45f06" opacity="0.82"/>
<rect x="1001.00" y="335.49" width="3.00" height="30.80" fill="#b45f06" opacity="0.82"/>
<rect x="1004.50" y="334.61" width="3.00" height="31.68" fill="#b45f06" opacity="0.82"/>
<rect x="1008.00" y="334.96" width="3.00" height="31.33" fill="#b45f06" opacity="0.82"/>
<rect x="1011.50" y="335.17" width="3.00" height="31.12" fill="#b45f06" opacity="0.82"/>
<rect x="1015.00" y="334.47" width="3.00" height="31.82" fill="#b45f06" opacity="0.82"/>
<rect x="1018.50" y="334.59" width="3.00" height="31.70" fill="#b45f06" opacity="0.82"/>
<rect x="1022.00" y="334.36" width="3.00" height="31.93" fill="#b45f06" opacity="0.82"/>
<rect x="1025.50" y="331.96" width="3.00" height="34.33" fill="#b45f06" opacity="0.82"/>
<rect x="1029.00" y="334.14" width="3.00" height="32.15" fill="#b45f06" opacity="0.82"/>
<rect x="1032.50" y="333.72" width="3.00" height="32.57" fill="#b45f06" opacity="0.82"/>
<rect x="1036.00" y="332.68" width="3.00" height="33.61" fill="#b45f06" opacity="0.82"/>
<rect x="1039.50" y="331.35" width="3.00" height="34.94" fill="#b45f06" opacity="0.82"/>
<rect x="1043.00" y="331.44" width="3.00" height="34.85" fill="#b45f06" opacity="0.82"/>
<rect x="1046.50" y="330.43" width="3.00" height="35.86" fill="#b45f06" opacity="0.82"/>
<rect x="1050.00" y="331.75" width="3.00" height="34.54" fill="#b45f06" opacity="0.82"/>
<rect x="1053.50" y="331.21" width="3.00" height="35.08" fill="#b45f06" opacity="0.82"/>
<rect x="1057.00" y="331.69" width="3.00" height="34.60" fill="#b45f06" opacity="0.82"/>
<rect x="1060.50" y="332.07" width="3.00" height="34.22" fill="#b45f06" opacity="0.82"/>
<rect x="1064.00" y="331.46" width="3.00" height="34.83" fill="#b45f06" opacity="0.82"/>
<rect x="1067.50" y="330.95" width="3.00" height="35.34" fill="#b45f06" opacity="0.82"/>
<rect x="1071.00" y="331.23" width="3.00" height="35.06" fill="#b45f06" opacity="0.82"/>
<rect x="1074.50" y="331.20" width="3.00" height="35.09" fill="#b45f06" opacity="0.82"/>
<rect x="1078.00" y="329.30" width="3.00" height="36.99" fill="#b45f06" opacity="0.82"/>
<rect x="1081.50" y="330.14" width="3.00" height="36.15" fill="#b45f06" opacity="0.82"/>
<rect x="1085.00" y="328.42" width="3.00" height="37.87" fill="#b45f06" opacity="0.82"/>
<rect x="1088.50" y="326.74" width="3.00" height="39.55" fill="#b45f06" opacity="0.82"/>
<text x="82.00" y="402" text-anchor="middle" font-family="Arial, sans-serif" font-size="11">0</text>
<text x="124.00" y="402" text-anchor="middle" font-family="Arial, sans-serif" font-size="11">12</text>
<text x="250.00" y="402" text-anchor="middle" font-family="Arial, sans-serif" font-size="11">48</text>
<text x="418.00" y="402" text-anchor="middle" font-family="Arial, sans-serif" font-size="11">96</text>
<text x="586.00" y="402" text-anchor="middle" font-family="Arial, sans-serif" font-size="11">144</text>
<text x="838.00" y="402" text-anchor="middle" font-family="Arial, sans-serif" font-size="11">216</text>
<text x="1090.00" y="402" text-anchor="middle" font-family="Arial, sans-serif" font-size="11">288</text>
<text x="586.00" y="422" text-anchor="middle" font-family="Arial, sans-serif" font-size="13">Retardo</text>
<text transform="translate(18,215.0) rotate(-90)" text-anchor="middle" font-family="Arial, sans-serif" font-size="13">ACF</text>
<text x="90" y="418" font-family="Arial, sans-serif" font-size="11" fill="#8a2222">Bandas orientativas ±0.003962</text>
</svg>