<svg xmlns="http://www.w3.org/2000/svg" width="1120" height="500" viewBox="0 0 1120 500">
<rect x="0" y="0" width="1120" height="500" fill="#ffffff"/>
<text x="560.0" y="26" text-anchor="middle" font-family="Arial, sans-serif" font-size="18" font-weight="700">Test: comparacion de MAE y RMSE</text>
<rect x="76" y="56" width="1016.00" height="316.00" fill="none" stroke="#222222" stroke-width="1"/>
<line x1="76" y1="372.00" x2="1092.00" y2="372.00" stroke="#e8e8e8" stroke-width="1"/>
<text x="68" y="376.00" text-anchor="end" font-family="Arial, sans-serif" font-size="11">0</text>
<line x1="76" y1="293.00" x2="1092.00" y2="293.00" stroke="#e8e8e8" stroke-width="1"/>
<text x="68" y="297.00" text-anchor="end" font-family="Arial, sans-serif" font-size="11">0.354</text>
<line x1="76" y1="214.00" x2="1092.00" y2="214.00" stroke="#e8e8e8" stroke-width="1"/>
<text x="68" y="218.00" text-anchor="end" font-family="Arial, sans-serif" font-size="11">0.709</text>
<line x1="76" y1="135.00" x2="1092.00" y2="135.00" stroke="#e8e8e8" stroke-width="1"/>
<text x="68" y="139.00" text-anchor="end" font-family="Arial, sans-serif" font-size="11">1.06</text>
<line x1="76" y1="56.00" x2="1092.00" y2="56.00" stroke="#e8e8e8" stroke-width="1"/>
<text x="68" y="60.00" text-anchor="end" font-family="Arial, sans-serif" font-size="11">1.42</text>
<rect x="114.61" y="149.82" width="52.83" height="222.18" fill="#2a6fbb" opacity="0.78"/>
<rect x="187.76" y="89.86" width="52.83" height="282.14" fill="#b45f06" opacity="0.78"/>
<text x="177.60" y="422" text-anchor="end" transform="rotate(-32 177.60,422)" font-family="Arial, sans-serif" font-size="11">historical_mean</text>
<rect x="317.81" y="201.89" width="52.83" height="170.11" fill="#2a6fbb" opacity="0.78"/>
<rect x="390.96" y="154.03" width="52.83" height="217.97" fill="#b45f06" opacity="0.78"/>
<text x="380.80" y="422" text-anchor="end" transform="rotate(-32 380.80,422)" font-family="Arial, sans-serif" font-size="11">persistence</text>
<rect x="521.01" y="222.38" width="52.83" height="149.62" fill="#2a6fbb" opacity="0.78"/>
<rect x="594.16" y="179.32" width="52.83" height="192.68" fill="#b45f06" opacity="0.78"/>
<text x="584.00" y="422" text-anchor="end" transform="rotate(-32 584.00,422)" font-family="Arial, sans-serif" font-size="11">ar49_horizon12</text>
<rect x="724.21" y="164.05" width="52.83" height="207.95" fill="#2a6fbb" opacity="0.78"/>
<rect x="797.36" y="105.84" width="52.83" height="266.16" fill="#b45f06" opacity="0.78"/>
<text x="787.20" y="422" text-anchor="end" transform="rotate(-32 787.20,422)" font-family="Arial, sans-serif" font-size="11">nearest_neighbor</text>
<rect x="927.41" y="217.35" width="52.83" height="154.65" fill="#2a6fbb" opacity="0.78"/>
<rect x="1000.56" y="172.65" width="52.83" height="199.35" fill="#b45f06" opacity="0.78"/>
<text x="990.40" y="422" text-anchor="end" transform="rotate(-32 990.40,422)" font-family="Arial, sans-serif" font-size="11">knn_mean_k50</text>
<g><circle cx="950.00" cy="28.00" r="4" fill="#2a6fbb"/><text x="960.00" y="32.00" font-family="Arial, sans-serif" font-size="12">MAE</text></g>
<g><circle cx="950.00" cy="46.00" r="4" fill="#b45f06"/><text x="960.00" y="50.00" font-family="Arial, sans-serif" font-size="12">RMSE</text></g>
<text x="584.00" y="490" text-anchor="middle" font-family="Arial, sans-serif" font-size="13">modelo</text>
<text transform="translate(18,214.0) rotate(-90)" text-anchor="middle" font-family="Arial, sans-serif" font-size="13">error</text>
</svg>