<svg xmlns="http://www.w3.org/2000/svg" width="1120" height="430" viewBox="0 0 1120 430">
<rect x="0" y="0" width="1120" height="430" fill="#ffffff"/>
<text x="560.0" y="26" text-anchor="middle" font-family="Arial, sans-serif" font-size="18" font-weight="700">PACF residuos AR(49) hasta 288 retardos</text>
<line x1="82" y1="372.00" x2="1090.00" y2="372.00" stroke="#e8e8e8" stroke-width="1"/>
<text x="74" y="376.00" text-anchor="end" font-family="Arial, sans-serif" font-size="11">-0.02</text>
<line x1="82" y1="293.50" x2="1090.00" y2="293.50" stroke="#e8e8e8" stroke-width="1"/>
<text x="74" y="297.50" text-anchor="end" font-family="Arial, sans-serif" font-size="11">-0.00904</text>
<line x1="82" y1="215.00" x2="1090.00" y2="215.00" stroke="#e8e8e8" stroke-width="1"/>
<text x="74" y="219.00" text-anchor="end" font-family="Arial, sans-serif" font-size="11">0.00191</text>
<line x1="82" y1="136.50" x2="1090.00" y2="136.50" stroke="#e8e8e8" stroke-width="1"/>
<text x="74" y="140.50" text-anchor="end" font-family="Arial, sans-serif" font-size="11">0.0129</text>
<line x1="82" y1="58.00" x2="1090.00" y2="58.00" stroke="#e8e8e8" stroke-width="1"/>
<text x="74" y="62.00" text-anchor="end" font-family="Arial, sans-serif" font-size="11">0.0238</text>
<rect x="82" y="58" width="1008.00" height="314.00" fill="none" stroke="#222222" stroke-width="1"/>
<line x1="82" y1="228.71" x2="1090.00" y2="228.71" stroke="#222222" stroke-width="1"/>
<line x1="82" y1="200.32" x2="1090.00" y2="200.32" stroke="#a33" stroke-width="1" stroke-dasharray="5,4"/>
<line x1="82" y1="257.10" x2="1090.00" y2="257.10" stroke="#a33" stroke-width="1" stroke-dasharray="5,4"/>
<line x1="120.63" y1="58" x2="120.63" y2="372.00" stroke="#777777" stroke-width="1" stroke-dasharray="3,4"/>
<text x="120.63" y="50" text-anchor="middle" font-family="Arial, sans-serif" font-size="10" fill="#555555">12</text>
<line x1="1090.00" y1="58" x2="1090.00" y2="372.00" stroke="#777777" stroke-width="1" stroke-dasharray="3,4"/>
<text x="1090.00" y="50" text-anchor="middle" font-family="Arial, sans-serif" font-size="10" fill="#555555">288</text>
<rect x="80.50" y="228.71" width="3.00" height="20.50" fill="#60758a" opacity="0.82"/>
<rect x="84.01" y="228.71" width="3.00" height="38.83" fill="#60758a" opacity="0.82"/>
<rect x="87.52" y="228.71" width="3.00" height="12.89" fill="#60758a" opacity="0.82"/>
<rect x="91.04" y="228.71" width="3.00" height="14.79" fill="#60758a" opacity="0.82"/>
<rect x="94.55" y="228.71" width="3.00" height="10.19" fill="#60758a" opacity="0.82"/>
<rect x="98.06" y="228.71" width="3.00" height="11.27" fill="#60758a" opacity="0.82"/>
<rect x="101.57" y="223.58" width="3.00" height="5.13" fill="#60758a" opacity="0.82"/>
<rect x="105.09" y="228.71" width="3.00" height="1.36" fill="#60758a" opacity="0.82"/>
<rect x="108.60" y="228.71" width="3.00" height="14.61" fill="#60758a" opacity="0.82"/>
<rect x="112.11" y="228.71" width="3.00" height="25.67" fill="#60758a" opacity="0.82"/>
<rect x="115.62" y="228.71" width="3.00" height="30.19" fill="#60758a" opacity="0.82"/>
<rect x="119.13" y="196.27" width="3.00" height="32.44" fill="#60758a" opacity="0.82"/>
<rect x="122.65" y="228.71" width="3.00" height="13.81" fill="#60758a" opacity="0.82"/>
<rect x="126.16" y="228.71" width="3.00" height="17.72" fill="#60758a" opacity="0.82"/>
<rect x="129.67" y="203.76" width="3.00" height="24.95" fill="#60758a" opacity="0.82"/>
<rect x="133.18" y="225.99" width="3.00" height="2.72" fill="#60758a" opacity="0.82"/>
<rect x="136.70" y="225.52" width="3.00" height="3.19" fill="#60758a" opacity="0.82"/>
<rect x="140.21" y="228.71" width="3.00" height="12.07" fill="#60758a" opacity="0.82"/>
<rect x="143.72" y="228.71" width="3.00" height="6.56" fill="#60758a" opacity="0.82"/>
<rect x="147.23" y="228.71" width="3.00" height="27.92" fill="#60758a" opacity="0.82"/>
<rect x="150.74" y="221.82" width="3.00" height="6.89" fill="#60758a" opacity="0.82"/>
<rect x="154.26" y="228.71" width="3.00" height="20.59" fill="#60758a" opacity="0.82"/>
<rect x="157.77" y="228.71" width="3.00" height="6.20" fill="#60758a" opacity="0.82"/>
<rect x="161.28" y="226.18" width="3.00" height="2.53" fill="#60758a" opacity="0.82"/>
<rect x="164.79" y="228.71" width="3.00" height="10.13" fill="#60758a" opacity="0.82"/>
<rect x="168.30" y="228.71" width="3.00" height="8.43" fill="#60758a" opacity="0.82"/>
<rect x="171.82" y="218.49" width="3.00" height="10.22" fill="#60758a" opacity="0.82"/>
<rect x="175.33" y="228.71" width="3.00" height="12.61" fill="#60758a" opacity="0.82"/>
<rect x="178.84" y="218.40" width="3.00" height="10.31" fill="#60758a" opacity="0.82"/>
<rect x="182.35" y="225.03" width="3.00" height="3.68" fill="#60758a" opacity="0.82"/>
<rect x="185.87" y="227.96" width="3.00" height="0.80" fill="#60758a" opacity="0.82"/>
<rect x="189.38" y="209.53" width="3.00" height="19.18" fill="#60758a" opacity="0.82"/>
<rect x="192.89" y="228.71" width="3.00" height="10.88" fill="#60758a" opacity="0.82"/>
<rect x="196.40" y="224.52" width="3.00" height="4.19" fill="#60758a" opacity="0.82"/>
<rect x="199.91" y="220.82" width="3.00" height="7.88" fill="#60758a" opacity="0.82"/>
<rect x="203.43" y="228.71" width="3.00" height="26.61" fill="#60758a" opacity="0.82"/>
<rect x="206.94" y="228.71" width="3.00" height="4.56" fill="#60758a" opacity="0.82"/>
<rect x="210.45" y="228.71" width="3.00" height="27.82" fill="#60758a" opacity="0.82"/>
<rect x="213.96" y="228.71" width="3.00" height="5.48" fill="#60758a" opacity="0.82"/>
<rect x="217.48" y="221.32" width="3.00" height="7.39" fill="#60758a" opacity="0.82"/>
<rect x="220.99" y="228.71" width="3.00" height="11.07" fill="#60758a" opacity="0.82"/>
<rect x="224.50" y="228.71" width="3.00" height="5.74" fill="#60758a" opacity="0.82"/>
<rect x="228.01" y="219.13" width="3.00" height="9.58" fill="#60758a" opacity="0.82"/>
<rect x="231.52" y="228.71" width="3.00" height="4.28" fill="#60758a" opacity="0.82"/>
<rect x="235.04" y="228.71" width="3.00" height="10.18" fill="#60758a" opacity="0.82"/>
<rect x="238.55" y="228.71" width="3.00" height="1.35" fill="#60758a" opacity="0.82"/>
<rect x="242.06" y="228.71" width="3.00" height="7.13" fill="#60758a" opacity="0.82"/>
<rect x="245.57" y="228.71" width="3.00" height="76.22" fill="#60758a" opacity="0.82"/>
<rect x="249.09" y="228.71" width="3.00" height="47.80" fill="#60758a" opacity="0.82"/>
<rect x="252.60" y="228.71" width="3.00" height="34.14" fill="#60758a" opacity="0.82"/>
<rect x="256.11" y="228.71" width="3.00" height="30.90" fill="#60758a" opacity="0.82"/>
<rect x="259.62" y="228.71" width="3.00" height="14.73" fill="#60758a" opacity="0.82"/>
<rect x="263.13" y="226.66" width="3.00" height="2.05" fill="#60758a" opacity="0.82"/>
<rect x="266.65" y="228.71" width="3.00" height="32.32" fill="#60758a" opacity="0.82"/>
<rect x="270.16" y="228.71" width="3.00" height="18.64" fill="#60758a" opacity="0.82"/>
<rect x="273.67" y="228.71" width="3.00" height="5.65" fill="#60758a" opacity="0.82"/>
<rect x="277.18" y="228.71" width="3.00" height="17.66" fill="#60758a" opacity="0.82"/>
<rect x="280.70" y="227.44" width="3.00" height="1.27" fill="#60758a" opacity="0.82"/>
<rect x="284.21" y="224.95" width="3.00" height="3.76" fill="#60758a" opacity="0.82"/>
<rect x="287.72" y="228.71" width="3.00" height="120.43" fill="#60758a" opacity="0.82"/>
<rect x="291.23" y="228.71" width="3.00" height="3.95" fill="#60758a" opacity="0.82"/>
<rect x="294.74" y="228.71" width="3.00" height="12.67" fill="#60758a" opacity="0.82"/>
<rect x="298.26" y="219.87" width="3.00" height="8.84" fill="#60758a" opacity="0.82"/>
<rect x="301.77" y="228.71" width="3.00" height="25.37" fill="#60758a" opacity="0.82"/>
<rect x="305.28" y="192.82" width="3.00" height="35.89" fill="#60758a" opacity="0.82"/>
<rect x="308.79" y="218.51" width="3.00" height="10.20" fill="#60758a" opacity="0.82"/>
<rect x="312.30" y="216.65" width="3.00" height="12.06" fill="#60758a" opacity="0.82"/>
<rect x="315.82" y="216.62" width="3.00" height="12.09" fill="#60758a" opacity="0.82"/>
<rect x="319.33" y="210.41" width="3.00" height="18.30" fill="#60758a" opacity="0.82"/>
<rect x="322.84" y="203.85" width="3.00" height="24.86" fill="#60758a" opacity="0.82"/>
<rect x="326.35" y="211.03" width="3.00" height="17.68" fill="#60758a" opacity="0.82"/>
<rect x="329.87" y="210.77" width="3.00" height="17.94" fill="#60758a" opacity="0.82"/>
<rect x="333.38" y="228.71" width="3.00" height="15.89" fill="#60758a" opacity="0.82"/>
<rect x="336.89" y="197.72" width="3.00" height="30.99" fill="#60758a" opacity="0.82"/>
<rect x="340.40" y="226.25" width="3.00" height="2.46" fill="#60758a" opacity="0.82"/>
<rect x="343.91" y="225.33" width="3.00" height="3.38" fill="#60758a" opacity="0.82"/>
<rect x="347.43" y="218.41" width="3.00" height="10.30" fill="#60758a" opacity="0.82"/>
<rect x="350.94" y="210.27" width="3.00" height="18.44" fill="#60758a" opacity="0.82"/>
<rect x="354.45" y="228.71" width="3.00" height="9.07" fill="#60758a" opacity="0.82"/>
<rect x="357.96" y="198.57" width="3.00" height="30.14" fill="#60758a" opacity="0.82"/>
<rect x="361.48" y="218.70" width="3.00" height="10.01" fill="#60758a" opacity="0.82"/>
<rect x="364.99" y="228.71" width="3.00" height="1.15" fill="#60758a" opacity="0.82"/>
<rect x="368.50" y="228.71" width="3.00" height="6.03" fill="#60758a" opacity="0.82"/>
<rect x="372.01" y="185.51" width="3.00" height="43.20" fill="#60758a" opacity="0.82"/>
<rect x="375.52" y="228.71" width="3.00" height="13.90" fill="#60758a" opacity="0.82"/>
<rect x="379.04" y="219.13" width="3.00" height="9.58" fill="#60758a" opacity="0.82"/>
<rect x="382.55" y="194.69" width="3.00" height="34.02" fill="#60758a" opacity="0.82"/>
<rect x="386.06" y="199.32" width="3.00" height="29.39" fill="#60758a" opacity="0.82"/>
<rect x="389.57" y="217.19" width="3.00" height="11.52" fill="#60758a" opacity="0.82"/>
<rect x="393.09" y="228.71" width="3.00" height="1.85" fill="#60758a" opacity="0.82"/>
<rect x="396.60" y="203.20" width="3.00" height="25.51" fill="#60758a" opacity="0.82"/>
<rect x="400.11" y="194.87" width="3.00" height="33.84" fill="#60758a" opacity="0.82"/>
<rect x="403.62" y="207.59" width="3.00" height="21.12" fill="#60758a" opacity="0.82"/>
<rect x="407.13" y="214.30" width="3.00" height="14.41" fill="#60758a" opacity="0.82"/>
<rect x="410.65" y="228.71" width="3.00" height="4.92" fill="#60758a" opacity="0.82"/>
<rect x="414.16" y="228.71" width="3.00" height="45.02" fill="#60758a" opacity="0.82"/>
<rect x="417.67" y="211.76" width="3.00" height="16.95" fill="#60758a" opacity="0.82"/>
<rect x="421.18" y="222.81" width="3.00" height="5.90" fill="#60758a" opacity="0.82"/>
<rect x="424.70" y="204.72" width="3.00" height="23.99" fill="#60758a" opacity="0.82"/>
<rect x="428.21" y="228.71" width="3.00" height="36.85" fill="#60758a" opacity="0.82"/>
<rect x="431.72" y="228.71" width="3.00" height="21.72" fill="#60758a" opacity="0.82"/>
<rect x="435.23" y="228.71" width="3.00" height="3.99" fill="#60758a" opacity="0.82"/>
<rect x="438.74" y="228.71" width="3.00" height="18.91" fill="#60758a" opacity="0.82"/>
<rect x="442.26" y="228.71" width="3.00" height="16.46" fill="#60758a" opacity="0.82"/>
<rect x="445.77" y="228.71" width="3.00" height="18.71" fill="#60758a" opacity="0.82"/>
<rect x="449.28" y="228.71" width="3.00" height="12.54" fill="#60758a" opacity="0.82"/>
<rect x="452.79" y="212.65" width="3.00" height="16.06" fill="#60758a" opacity="0.82"/>
<rect x="456.30" y="228.71" width="3.00" height="32.66" fill="#60758a" opacity="0.82"/>
<rect x="459.82" y="220.37" width="3.00" height="8.34" fill="#60758a" opacity="0.82"/>
<rect x="463.33" y="211.15" width="3.00" height="17.56" fill="#60758a" opacity="0.82"/>
<rect x="466.84" y="228.71" width="3.00" height="9.70" fill="#60758a" opacity="0.82"/>
<rect x="470.35" y="223.72" width="3.00" height="4.99" fill="#60758a" opacity="0.82"/>
<rect x="473.87" y="228.71" width="3.00" height="40.29" fill="#60758a" opacity="0.82"/>
<rect x="477.38" y="228.71" width="3.00" height="6.43" fill="#60758a" opacity="0.82"/>
<rect x="480.89" y="228.71" width="3.00" height="7.42" fill="#60758a" opacity="0.82"/>
<rect x="484.40" y="228.71" width="3.00" height="27.01" fill="#60758a" opacity="0.82"/>
<rect x="487.91" y="228.71" width="3.00" height="5.92" fill="#60758a" opacity="0.82"/>
<rect x="491.43" y="228.71" width="3.00" height="18.62" fill="#60758a" opacity="0.82"/>
<rect x="494.94" y="224.22" width="3.00" height="4.49" fill="#60758a" opacity="0.82"/>
<rect x="498.45" y="221.74" width="3.00" height="6.97" fill="#60758a" opacity="0.82"/>
<rect x="501.96" y="228.71" width="3.00" height="0.80" fill="#60758a" opacity="0.82"/>
<rect x="505.48" y="228.71" width="3.00" height="8.96" fill="#60758a" opacity="0.82"/>
<rect x="508.99" y="228.71" width="3.00" height="4.73" fill="#60758a" opacity="0.82"/>
<rect x="512.50" y="228.71" width="3.00" height="1.90" fill="#60758a" opacity="0.82"/>
<rect x="516.01" y="228.71" width="3.00" height="12.37" fill="#60758a" opacity="0.82"/>
<rect x="519.52" y="227.28" width="3.00" height="1.43" fill="#60758a" opacity="0.82"/>
<rect x="523.04" y="225.97" width="3.00" height="2.74" fill="#60758a" opacity="0.82"/>
<rect x="526.55" y="209.26" width="3.00" height="19.45" fill="#60758a" opacity="0.82"/>
<rect x="530.06" y="215.52" width="3.00" height="13.19" fill="#60758a" opacity="0.82"/>
<rect x="533.57" y="206.97" width="3.00" height="21.74" fill="#60758a" opacity="0.82"/>
<rect x="537.09" y="212.35" width="3.00" height="16.36" fill="#60758a" opacity="0.82"/>
<rect x="540.60" y="228.67" width="3.00" height="0.80" fill="#60758a" opacity="0.82"/>
<rect x="544.11" y="223.03" width="3.00" height="5.68" fill="#60758a" opacity="0.82"/>
<rect x="547.62" y="199.03" width="3.00" height="29.68" fill="#60758a" opacity="0.82"/>
<rect x="551.13" y="215.46" width="3.00" height="13.25" fill="#60758a" opacity="0.82"/>
<rect x="554.65" y="228.71" width="3.00" height="11.36" fill="#60758a" opacity="0.82"/>
<rect x="558.16" y="223.29" width="3.00" height="5.42" fill="#60758a" opacity="0.82"/>
<rect x="561.67" y="176.23" width="3.00" height="52.47" fill="#60758a" opacity="0.82"/>
<rect x="565.18" y="228.71" width="3.00" height="9.27" fill="#60758a" opacity="0.82"/>
<rect x="568.70" y="221.62" width="3.00" height="7.09" fill="#60758a" opacity="0.82"/>
<rect x="572.21" y="224.03" width="3.00" height="4.68" fill="#60758a" opacity="0.82"/>
<rect x="575.72" y="228.71" width="3.00" height="8.32" fill="#60758a" opacity="0.82"/>
<rect x="579.23" y="222.16" width="3.00" height="6.55" fill="#60758a" opacity="0.82"/>
<rect x="582.74" y="225.16" width="3.00" height="3.55" fill="#60758a" opacity="0.82"/>
<rect x="586.26" y="220.80" width="3.00" height="7.91" fill="#60758a" opacity="0.82"/>
<rect x="589.77" y="211.54" width="3.00" height="17.17" fill="#60758a" opacity="0.82"/>
<rect x="593.28" y="191.03" width="3.00" height="37.68" fill="#60758a" opacity="0.82"/>
<rect x="596.79" y="217.07" width="3.00" height="11.64" fill="#60758a" opacity="0.82"/>
<rect x="600.30" y="184.55" width="3.00" height="44.16" fill="#60758a" opacity="0.82"/>
<rect x="603.82" y="208.34" width="3.00" height="20.36" fill="#60758a" opacity="0.82"/>
<rect x="607.33" y="223.02" width="3.00" height="5.69" fill="#60758a" opacity="0.82"/>
<rect x="610.84" y="208.37" width="3.00" height="20.33" fill="#60758a" opacity="0.82"/>
<rect x="614.35" y="213.07" width="3.00" height="15.63" fill="#60758a" opacity="0.82"/>
<rect x="617.87" y="228.71" width="3.00" height="16.86" fill="#60758a" opacity="0.82"/>
<rect x="621.38" y="228.71" width="3.00" height="1.17" fill="#60758a" opacity="0.82"/>
<rect x="624.89" y="219.00" width="3.00" height="9.71" fill="#60758a" opacity="0.82"/>
<rect x="628.40" y="228.52" width="3.00" height="0.80" fill="#60758a" opacity="0.82"/>
<rect x="631.91" y="225.87" width="3.00" height="2.84" fill="#60758a" opacity="0.82"/>
<rect x="635.43" y="222.08" width="3.00" height="6.63" fill="#60758a" opacity="0.82"/>
<rect x="638.94" y="222.29" width="3.00" height="6.42" fill="#60758a" opacity="0.82"/>
<rect x="642.45" y="200.94" width="3.00" height="27.77" fill="#60758a" opacity="0.82"/>
<rect x="645.96" y="228.71" width="3.00" height="14.21" fill="#60758a" opacity="0.82"/>
<rect x="649.48" y="228.71" width="3.00" height="1.36" fill="#60758a" opacity="0.82"/>
<rect x="652.99" y="226.95" width="3.00" height="1.76" fill="#60758a" opacity="0.82"/>
<rect x="656.50" y="228.71" width="3.00" height="0.80" fill="#60758a" opacity="0.82"/>
<rect x="660.01" y="224.30" width="3.00" height="4.41" fill="#60758a" opacity="0.82"/>
<rect x="663.52" y="228.71" width="3.00" height="3.02" fill="#60758a" opacity="0.82"/>
<rect x="667.04" y="228.71" width="3.00" height="14.84" fill="#60758a" opacity="0.82"/>
<rect x="670.55" y="228.71" width="3.00" height="39.56" fill="#60758a" opacity="0.82"/>
<rect x="674.06" y="228.71" width="3.00" height="8.83" fill="#60758a" opacity="0.82"/>
<rect x="677.57" y="228.71" width="3.00" height="22.17" fill="#60758a" opacity="0.82"/>
<rect x="681.09" y="228.71" width="3.00" height="28.89" fill="#60758a" opacity="0.82"/>
<rect x="684.60" y="228.71" width="3.00" height="4.96" fill="#60758a" opacity="0.82"/>
<rect x="688.11" y="227.47" width="3.00" height="1.24" fill="#60758a" opacity="0.82"/>
<rect x="691.62" y="227.41" width="3.00" height="1.30" fill="#60758a" opacity="0.82"/>
<rect x="695.13" y="226.40" width="3.00" height="2.31" fill="#60758a" opacity="0.82"/>
<rect x="698.65" y="228.71" width="3.00" height="19.83" fill="#60758a" opacity="0.82"/>
<rect x="702.16" y="213.26" width="3.00" height="15.45" fill="#60758a" opacity="0.82"/>
<rect x="705.67" y="228.71" width="3.00" height="13.67" fill="#60758a" opacity="0.82"/>
<rect x="709.18" y="228.71" width="3.00" height="28.76" fill="#60758a" opacity="0.82"/>
<rect x="712.70" y="228.71" width="3.00" height="6.21" fill="#60758a" opacity="0.82"/>
<rect x="716.21" y="228.71" width="3.00" height="29.20" fill="#60758a" opacity="0.82"/>
<rect x="719.72" y="220.21" width="3.00" height="8.50" fill="#60758a" opacity="0.82"/>
<rect x="723.23" y="228.71" width="3.00" height="15.80" fill="#60758a" opacity="0.82"/>
<rect x="726.74" y="228.71" width="3.00" height="25.30" fill="#60758a" opacity="0.82"/>
<rect x="730.26" y="228.71" width="3.00" height="5.16" fill="#60758a" opacity="0.82"/>
<rect x="733.77" y="228.71" width="3.00" height="14.29" fill="#60758a" opacity="0.82"/>
<rect x="737.28" y="213.04" width="3.00" height="15.67" fill="#60758a" opacity="0.82"/>
<rect x="740.79" y="218.47" width="3.00" height="10.24" fill="#60758a" opacity="0.82"/>
<rect x="744.30" y="228.71" width="3.00" height="1.07" fill="#60758a" opacity="0.82"/>
<rect x="747.82" y="206.03" width="3.00" height="22.68" fill="#60758a" opacity="0.82"/>
<rect x="751.33" y="228.71" width="3.00" height="9.13" fill="#60758a" opacity="0.82"/>
<rect x="754.84" y="228.71" width="3.00" height="1.66" fill="#60758a" opacity="0.82"/>
<rect x="758.35" y="218.04" width="3.00" height="10.67" fill="#60758a" opacity="0.82"/>
<rect x="761.87" y="197.63" width="3.00" height="31.08" fill="#60758a" opacity="0.82"/>
<rect x="765.38" y="211.68" width="3.00" height="17.03" fill="#60758a" opacity="0.82"/>
<rect x="768.89" y="217.68" width="3.00" height="11.03" fill="#60758a" opacity="0.82"/>
<rect x="772.40" y="219.55" width="3.00" height="9.16" fill="#60758a" opacity="0.82"/>
<rect x="775.91" y="206.14" width="3.00" height="22.57" fill="#60758a" opacity="0.82"/>
<rect x="779.43" y="204.47" width="3.00" height="24.24" fill="#60758a" opacity="0.82"/>
<rect x="782.94" y="224.60" width="3.00" height="4.11" fill="#60758a" opacity="0.82"/>
<rect x="786.45" y="191.49" width="3.00" height="37.22" fill="#60758a" opacity="0.82"/>
<rect x="789.96" y="220.89" width="3.00" height="7.82" fill="#60758a" opacity="0.82"/>
<rect x="793.48" y="210.26" width="3.00" height="18.45" fill="#60758a" opacity="0.82"/>
<rect x="796.99" y="226.12" width="3.00" height="2.59" fill="#60758a" opacity="0.82"/>
<rect x="800.50" y="206.01" width="3.00" height="22.70" fill="#60758a" opacity="0.82"/>
<rect x="804.01" y="218.54" width="3.00" height="10.17" fill="#60758a" opacity="0.82"/>
<rect x="807.52" y="228.71" width="3.00" height="15.79" fill="#60758a" opacity="0.82"/>
<rect x="811.04" y="228.71" width="3.00" height="19.63" fill="#60758a" opacity="0.82"/>
<rect x="814.55" y="219.85" width="3.00" height="8.86" fill="#60758a" opacity="0.82"/>
<rect x="818.06" y="220.46" width="3.00" height="8.25" fill="#60758a" opacity="0.82"/>
<rect x="821.57" y="206.00" width="3.00" height="22.71" fill="#60758a" opacity="0.82"/>
<rect x="825.09" y="227.70" width="3.00" height="1.01" fill="#60758a" opacity="0.82"/>
<rect x="828.60" y="198.52" width="3.00" height="30.19" fill="#60758a" opacity="0.82"/>
<rect x="832.11" y="228.71" width="3.00" height="4.89" fill="#60758a" opacity="0.82"/>
<rect x="835.62" y="206.36" width="3.00" height="22.35" fill="#60758a" opacity="0.82"/>
<rect x="839.13" y="221.90" width="3.00" height="6.81" fill="#60758a" opacity="0.82"/>
<rect x="842.65" y="214.74" width="3.00" height="13.97" fill="#60758a" opacity="0.82"/>
<rect x="846.16" y="195.81" width="3.00" height="32.90" fill="#60758a" opacity="0.82"/>
<rect x="849.67" y="213.43" width="3.00" height="15.28" fill="#60758a" opacity="0.82"/>
<rect x="853.18" y="216.73" width="3.00" height="11.98" fill="#60758a" opacity="0.82"/>
<rect x="856.70" y="228.71" width="3.00" height="5.46" fill="#60758a" opacity="0.82"/>
<rect x="860.21" y="189.57" width="3.00" height="39.14" fill="#60758a" opacity="0.82"/>
<rect x="863.72" y="205.31" width="3.00" height="23.40" fill="#60758a" opacity="0.82"/>
<rect x="867.23" y="223.31" width="3.00" height="5.40" fill="#60758a" opacity="0.82"/>
<rect x="870.74" y="204.50" width="3.00" height="24.21" fill="#60758a" opacity="0.82"/>
<rect x="874.26" y="228.71" width="3.00" height="5.67" fill="#60758a" opacity="0.82"/>
<rect x="877.77" y="202.94" width="3.00" height="25.77" fill="#60758a" opacity="0.82"/>
<rect x="881.28" y="222.57" width="3.00" height="6.14" fill="#60758a" opacity="0.82"/>
<rect x="884.79" y="228.71" width="3.00" height="17.35" fill="#60758a" opacity="0.82"/>
<rect x="888.30" y="209.20" width="3.00" height="19.51" fill="#60758a" opacity="0.82"/>
<rect x="891.82" y="202.98" width="3.00" height="25.73" fill="#60758a" opacity="0.82"/>
<rect x="895.33" y="205.03" width="3.00" height="23.67" fill="#60758a" opacity="0.82"/>
<rect x="898.84" y="228.71" width="3.00" height="22.05" fill="#60758a" opacity="0.82"/>
<rect x="902.35" y="228.71" width="3.00" height="7.40" fill="#60758a" opacity="0.82"/>
<rect x="905.87" y="228.71" width="3.00" height="0.80" fill="#60758a" opacity="0.82"/>
<rect x="909.38" y="228.71" width="3.00" height="5.82" fill="#60758a" opacity="0.82"/>
<rect x="912.89" y="228.71" width="3.00" height="3.23" fill="#60758a" opacity="0.82"/>
<rect x="916.40" y="228.71" width="3.00" height="9.82" fill="#60758a" opacity="0.82"/>
<rect x="919.91" y="196.87" width="3.00" height="31.84" fill="#60758a" opacity="0.82"/>
<rect x="923.43" y="218.56" width="3.00" height="10.15" fill="#60758a" opacity="0.82"/>
<rect x="926.94" y="228.71" width="3.00" height="2.53" fill="#60758a" opacity="0.82"/>
<rect x="930.45" y="228.71" width="3.00" height="4.76" fill="#60758a" opacity="0.82"/>
<rect x="933.96" y="214.47" width="3.00" height="14.24" fill="#60758a" opacity="0.82"/>
<rect x="937.48" y="207.54" width="3.00" height="21.17" fill="#60758a" opacity="0.82"/>
<rect x="940.99" y="201.28" width="3.00" height="27.43" fill="#60758a" opacity="0.82"/>
<rect x="944.50" y="228.71" width="3.00" height="4.71" fill="#60758a" opacity="0.82"/>
<rect x="948.01" y="225.39" width="3.00" height="3.32" fill="#60758a" opacity="0.82"/>
<rect x="951.52" y="228.71" width="3.00" height="11.06" fill="#60758a" opacity="0.82"/>
<rect x="955.04" y="226.19" width="3.00" height="2.52" fill="#60758a" opacity="0.82"/>
<rect x="958.55" y="222.45" width="3.00" height="6.26" fill="#60758a" opacity="0.82"/>
<rect x="962.06" y="219.89" width="3.00" height="8.82" fill="#60758a" opacity="0.82"/>
<rect x="965.57" y="228.71" width="3.00" height="8.06" fill="#60758a" opacity="0.82"/>
<rect x="969.09" y="202.16" width="3.00" height="26.55" fill="#60758a" opacity="0.82"/>
<rect x="972.60" y="206.36" width="3.00" height="22.35" fill="#60758a" opacity="0.82"/>
<rect x="976.11" y="222.42" width="3.00" height="6.29" fill="#60758a" opacity="0.82"/>
<rect x="979.62" y="221.01" width="3.00" height="7.70" fill="#60758a" opacity="0.82"/>
<rect x="983.13" y="217.37" width="3.00" height="11.34" fill="#60758a" opacity="0.82"/>
<rect x="986.65" y="205.15" width="3.00" height="23.56" fill="#60758a" opacity="0.82"/>
<rect x="990.16" y="200.96" width="3.00" height="27.74" fill="#60758a" opacity="0.82"/>
<rect x="993.67" y="189.33" width="3.00" height="39.38" fill="#60758a" opacity="0.82"/>
<rect x="997.18" y="201.41" width="3.00" height="27.30" fill="#60758a" opacity="0.82"/>
<rect x="1000.70" y="202.14" width="3.00" height="26.57" fill="#60758a" opacity="0.82"/>
<rect x="1004.21" y="221.01" width="3.00" height="7.70" fill="#60758a" opacity="0.82"/>
<rect x="1007.72" y="218.09" width="3.00" height="10.62" fill="#60758a" opacity="0.82"/>
<rect x="1011.23" y="185.41" width="3.00" height="43.30" fill="#60758a" opacity="0.82"/>
<rect x="1014.74" y="213.65" width="3.00" height="15.06" fill="#60758a" opacity="0.82"/>
<rect x="1018.26" y="194.86" width="3.00" height="33.85" fill="#60758a" opacity="0.82"/>
<rect x="1021.77" y="175.45" width="3.00" height="53.26" fill="#60758a" opacity="0.82"/>
<rect x="1025.28" y="170.03" width="3.00" height="58.68" fill="#60758a" opacity="0.82"/>
<rect x="1028.79" y="195.13" width="3.00" height="33.58" fill="#60758a" opacity="0.82"/>
<rect x="1032.30" y="177.19" width="3.00" height="51.52" fill="#60758a" opacity="0.82"/>
<rect x="1035.82" y="189.20" width="3.00" height="39.51" fill="#60758a" opacity="0.82"/>
<rect x="1039.33" y="150.08" width="3.00" height="78.62" fill="#60758a" opacity="0.82"/>
<rect x="1042.84" y="178.28" width="3.00" height="50.43" fill="#60758a" opacity="0.82"/>
<rect x="1046.35" y="153.82" width="3.00" height="74.89" fill="#60758a" opacity="0.82"/>
<rect x="1049.87" y="156.90" width="3.00" height="71.81" fill="#60758a" opacity="0.82"/>
<rect x="1053.38" y="155.79" width="3.00" height="72.92" fill="#60758a" opacity="0.82"/>
<rect x="1056.89" y="173.09" width="3.00" height="55.62" fill="#60758a" opacity="0.82"/>
<rect x="1060.40" y="169.87" width="3.00" height="58.84" fill="#60758a" opacity="0.82"/>
<rect x="1063.91" y="141.01" width="3.00" height="87.70" fill="#60758a" opacity="0.82"/>
<rect x="1067.43" y="166.57" width="3.00" height="62.14" fill="#60758a" opacity="0.82"/>
<rect x="1070.94" y="151.74" width="3.00" height="76.97" fill="#60758a" opacity="0.82"/>
<rect x="1074.45" y="163.75" width="3.00" height="64.96" fill="#60758a" opacity="0.82"/>
<rect x="1077.96" y="138.40" width="3.00" height="90.31" fill="#60758a" opacity="0.82"/>
<rect x="1081.48" y="153.98" width="3.00" height="74.72" fill="#60758a" opacity="0.82"/>
<rect x="1084.99" y="101.22" width="3.00" height="127.49" fill="#60758a" opacity="0.82"/>
<rect x="1088.50" y="70.65" width="3.00" height="158.06" fill="#60758a" opacity="0.82"/>
<text x="82.00" y="402" text-anchor="middle" font-family="Arial, sans-serif" font-size="11">1</text>
<text x="120.63" y="402" text-anchor="middle" font-family="Arial, sans-serif" font-size="11">12</text>
<text x="247.07" y="402" text-anchor="middle" font-family="Arial, sans-serif" font-size="11">48</text>
<text x="415.66" y="402" text-anchor="middle" font-family="Arial, sans-serif" font-size="11">96</text>
<text x="584.24" y="402" text-anchor="middle" font-family="Arial, sans-serif" font-size="11">144</text>
<text x="837.12" y="402" text-anchor="middle" font-family="Arial, sans-serif" font-size="11">216</text>
<text x="1090.00" y="402" text-anchor="middle" font-family="Arial, sans-serif" font-size="11">288</text>
<text x="586.00" y="422" text-anchor="middle" font-family="Arial, sans-serif" font-size="13">Retardo</text>
<text transform="translate(18,215.0) rotate(-90)" text-anchor="middle" font-family="Arial, sans-serif" font-size="13">PACF</text>
<text x="90" y="418" font-family="Arial, sans-serif" font-size="11" fill="#8a2222">Bandas orientativas ±0.003962</text>
</svg>