<svg xmlns="http://www.w3.org/2000/svg" width="1040" height="430" viewBox="0 0 1040 430">
<rect x="0" y="0" width="1040" height="430" fill="#ffffff"/>
<text x="520.0" y="28" text-anchor="middle" font-family="Arial, sans-serif" font-size="18" font-weight="700">Falsos vecinos cercanos</text>
<rect x="78" y="58" width="924.00" height="314.00" fill="none" stroke="#222222" stroke-width="1"/>
<line x1="78" y1="372.00" x2="1002.00" y2="372.00" stroke="#e8e8e8" stroke-width="1"/>
<text x="70" y="376.00" text-anchor="end" font-family="Arial, sans-serif" font-size="11">0</text>
<line x1="78" y1="293.50" x2="1002.00" y2="293.50" stroke="#e8e8e8" stroke-width="1"/>
<text x="70" y="297.50" text-anchor="end" font-family="Arial, sans-serif" font-size="11">25</text>
<line x1="78" y1="215.00" x2="1002.00" y2="215.00" stroke="#e8e8e8" stroke-width="1"/>
<text x="70" y="219.00" text-anchor="end" font-family="Arial, sans-serif" font-size="11">50</text>
<line x1="78" y1="136.50" x2="1002.00" y2="136.50" stroke="#e8e8e8" stroke-width="1"/>
<text x="70" y="140.50" text-anchor="end" font-family="Arial, sans-serif" font-size="11">75</text>
<line x1="78" y1="58.00" x2="1002.00" y2="58.00" stroke="#e8e8e8" stroke-width="1"/>
<text x="70" y="62.00" text-anchor="end" font-family="Arial, sans-serif" font-size="11">100</text>
<line x1="78" y1="356.30" x2="1002.00" y2="356.30" stroke="#8a2222" stroke-width="1" stroke-dasharray="5,4"/>
<text x="998.00" y="351.30" text-anchor="end" font-family="Arial, sans-serif" font-size="11" fill="#8a2222">5%</text>
<line x1="342.00" y1="58" x2="342.00" y2="372.00" stroke="#8a2222" stroke-width="1" stroke-dasharray="5,4"/>
<text x="346.00" y="73" font-family="Arial, sans-serif" font-size="11" fill="#8a2222">m=5</text>
<polyline points="78.00,60.72 144.00,136.92 210.00,273.61 276.00,331.18 342.00,331.81 408.00,331.60 474.00,323.75 540.00,308.36 606.00,298.73 672.00,277.17 738.00,244.52 804.00,201.71 870.00,170.52 936.00,135.24 1002.00,101.12" fill="none" stroke="#8a4f9f" stroke-width="2" stroke-linejoin="round" stroke-linecap="round"/>
<circle cx="78.00" cy="60.72" r="2.2" fill="#8a4f9f" opacity="0.85"/>
<circle cx="144.00" cy="136.92" r="2.2" fill="#8a4f9f" opacity="0.85"/>
<circle cx="210.00" cy="273.61" r="2.2" fill="#8a4f9f" opacity="0.85"/>
<circle cx="276.00" cy="331.18" r="2.2" fill="#8a4f9f" opacity="0.85"/>
<circle cx="342.00" cy="331.81" r="2.2" fill="#8a4f9f" opacity="0.85"/>
<circle cx="408.00" cy="331.60" r="2.2" fill="#8a4f9f" opacity="0.85"/>
<circle cx="474.00" cy="323.75" r="2.2" fill="#8a4f9f" opacity="0.85"/>
<circle cx="540.00" cy="308.36" r="2.2" fill="#8a4f9f" opacity="0.85"/>
<circle cx="606.00" cy="298.73" r="2.2" fill="#8a4f9f" opacity="0.85"/>
<circle cx="672.00" cy="277.17" r="2.2" fill="#8a4f9f" opacity="0.85"/>
<circle cx="738.00" cy="244.52" r="2.2" fill="#8a4f9f" opacity="0.85"/>
<circle cx="804.00" cy="201.71" r="2.2" fill="#8a4f9f" opacity="0.85"/>
<circle cx="870.00" cy="170.52" r="2.2" fill="#8a4f9f" opacity="0.85"/>
<circle cx="936.00" cy="135.24" r="2.2" fill="#8a4f9f" opacity="0.85"/>
<circle cx="1002.00" cy="101.12" r="2.2" fill="#8a4f9f" opacity="0.85"/>
<text x="78.00" y="400" text-anchor="middle" font-family="Arial, sans-serif" font-size="11">1</text>
<text x="144.00" y="400" text-anchor="middle" font-family="Arial, sans-serif" font-size="11">2</text>
<text x="210.00" y="400" text-anchor="middle" font-family="Arial, sans-serif" font-size="11">3</text>
<text x="276.00" y="400" text-anchor="middle" font-family="Arial, sans-serif" font-size="11">4</text>
<text x="342.00" y="400" text-anchor="middle" font-family="Arial, sans-serif" font-size="11">5</text>
<text x="408.00" y="400" text-anchor="middle" font-family="Arial, sans-serif" font-size="11">6</text>
<text x="474.00" y="400" text-anchor="middle" font-family="Arial, sans-serif" font-size="11">7</text>
<text x="540.00" y="400" text-anchor="middle" font-family="Arial, sans-serif" font-size="11">8</text>
<text x="606.00" y="400" text-anchor="middle" font-family="Arial, sans-serif" font-size="11">9</text>
<text x="672.00" y="400" text-anchor="middle" font-family="Arial, sans-serif" font-size="11">10</text>
<text x="738.00" y="400" text-anchor="middle" font-family="Arial, sans-serif" font-size="11">11</text>
<text x="804.00" y="400" text-anchor="middle" font-family="Arial, sans-serif" font-size="11">12</text>
<text x="870.00" y="400" text-anchor="middle" font-family="Arial, sans-serif" font-size="11">13</text>
<text x="936.00" y="400" text-anchor="middle" font-family="Arial, sans-serif" font-size="11">14</text>
<text x="1002.00" y="400" text-anchor="middle" font-family="Arial, sans-serif" font-size="11">15</text>
<text x="540.00" y="420" text-anchor="middle" font-family="Arial, sans-serif" font-size="13">dimension m</text>
<text transform="translate(18,215.0) rotate(-90)" text-anchor="middle" font-family="Arial, sans-serif" font-size="13">porcentaje FNN</text>
<g><circle cx="855.00" cy="28.00" r="4" fill="#8a4f9f"/><text x="865.00" y="32.00" font-family="Arial, sans-serif" font-size="12">FNN %</text></g>
</svg>