<svg xmlns="http://www.w3.org/2000/svg" width="1120" height="430" viewBox="0 0 1120 430">
<rect x="0" y="0" width="1120" height="430" fill="#ffffff"/>
<text x="560.0" y="26" text-anchor="middle" font-family="Arial, sans-serif" font-size="18" font-weight="700">ACF de z_t^2 hasta 288 retardos</text>
<line x1="82" y1="372.00" x2="1090.00" y2="372.00" stroke="#e8e8e8" stroke-width="1"/>
<text x="74" y="376.00" text-anchor="end" font-family="Arial, sans-serif" font-size="11">-0.02</text>
<line x1="82" y1="293.50" x2="1090.00" y2="293.50" stroke="#e8e8e8" stroke-width="1"/>
<text x="74" y="297.50" text-anchor="end" font-family="Arial, sans-serif" font-size="11">0.245</text>
<line x1="82" y1="215.00" x2="1090.00" y2="215.00" stroke="#e8e8e8" stroke-width="1"/>
<text x="74" y="219.00" text-anchor="end" font-family="Arial, sans-serif" font-size="11">0.511</text>
<line x1="82" y1="136.50" x2="1090.00" y2="136.50" stroke="#e8e8e8" stroke-width="1"/>
<text x="74" y="140.50" text-anchor="end" font-family="Arial, sans-serif" font-size="11">0.776</text>
<line x1="82" y1="58.00" x2="1090.00" y2="58.00" stroke="#e8e8e8" stroke-width="1"/>
<text x="74" y="62.00" text-anchor="end" font-family="Arial, sans-serif" font-size="11">1.04</text>
<rect x="82" y="58" width="1008.00" height="314.00" fill="none" stroke="#222222" stroke-width="1"/>
<line x1="82" y1="366.08" x2="1090.00" y2="366.08" stroke="#222222" stroke-width="1"/>
<line x1="82" y1="364.91" x2="1090.00" y2="364.91" stroke="#a33" stroke-width="1" stroke-dasharray="5,4"/>
<line x1="82" y1="367.25" x2="1090.00" y2="367.25" stroke="#a33" stroke-width="1" stroke-dasharray="5,4"/>
<line x1="120.63" y1="58" x2="120.63" y2="372.00" stroke="#777777" stroke-width="1" stroke-dasharray="3,4"/>
<text x="120.63" y="50" text-anchor="middle" font-family="Arial, sans-serif" font-size="10" fill="#555555">12</text>
<line x1="1090.00" y1="58" x2="1090.00" y2="372.00" stroke="#777777" stroke-width="1" stroke-dasharray="3,4"/>
<text x="1090.00" y="50" text-anchor="middle" font-family="Arial, sans-serif" font-size="10" fill="#555555">288</text>
<rect x="80.50" y="80.82" width="3.00" height="285.26" fill="#8a4f9f" opacity="0.82"/>
<rect x="84.01" y="92.41" width="3.00" height="273.67" fill="#8a4f9f" opacity="0.82"/>
<rect x="87.52" y="104.56" width="3.00" height="261.52" fill="#8a4f9f" opacity="0.82"/>
<rect x="91.04" y="117.06" width="3.00" height="249.02" fill="#8a4f9f" opacity="0.82"/>
<rect x="94.55" y="129.62" width="3.00" height="236.46" fill="#8a4f9f" opacity="0.82"/>
<rect x="98.06" y="142.27" width="3.00" height="223.81" fill="#8a4f9f" opacity="0.82"/>
<rect x="101.57" y="154.92" width="3.00" height="211.16" fill="#8a4f9f" opacity="0.82"/>
<rect x="105.09" y="167.51" width="3.00" height="198.57" fill="#8a4f9f" opacity="0.82"/>
<rect x="108.60" y="180.00" width="3.00" height="186.08" fill="#8a4f9f" opacity="0.82"/>
<rect x="112.11" y="192.26" width="3.00" height="173.82" fill="#8a4f9f" opacity="0.82"/>
<rect x="115.62" y="204.25" width="3.00" height="161.83" fill="#8a4f9f" opacity="0.82"/>
<rect x="119.13" y="215.76" width="3.00" height="150.32" fill="#8a4f9f" opacity="0.82"/>
<rect x="122.65" y="220.71" width="3.00" height="145.37" fill="#8a4f9f" opacity="0.82"/>
<rect x="126.16" y="224.97" width="3.00" height="141.11" fill="#8a4f9f" opacity="0.82"/>
<rect x="129.67" y="228.73" width="3.00" height="137.35" fill="#8a4f9f" opacity="0.82"/>
<rect x="133.18" y="232.12" width="3.00" height="133.96" fill="#8a4f9f" opacity="0.82"/>
<rect x="136.70" y="235.37" width="3.00" height="130.72" fill="#8a4f9f" opacity="0.82"/>
<rect x="140.21" y="238.39" width="3.00" height="127.69" fill="#8a4f9f" opacity="0.82"/>
<rect x="143.72" y="241.17" width="3.00" height="124.91" fill="#8a4f9f" opacity="0.82"/>
<rect x="147.23" y="243.78" width="3.00" height="122.30" fill="#8a4f9f" opacity="0.82"/>
<rect x="150.74" y="246.31" width="3.00" height="119.77" fill="#8a4f9f" opacity="0.82"/>
<rect x="154.26" y="248.66" width="3.00" height="117.42" fill="#8a4f9f" opacity="0.82"/>
<rect x="157.77" y="250.80" width="3.00" height="115.28" fill="#8a4f9f" opacity="0.82"/>
<rect x="161.28" y="252.80" width="3.00" height="113.29" fill="#8a4f9f" opacity="0.82"/>
<rect x="164.79" y="254.43" width="3.00" height="111.66" fill="#8a4f9f" opacity="0.82"/>
<rect x="168.30" y="256.05" width="3.00" height="110.03" fill="#8a4f9f" opacity="0.82"/>
<rect x="171.82" y="257.60" width="3.00" height="108.48" fill="#8a4f9f" opacity="0.82"/>
<rect x="175.33" y="259.16" width="3.00" height="106.93" fill="#8a4f9f" opacity="0.82"/>
<rect x="178.84" y="260.57" width="3.00" height="105.52" fill="#8a4f9f" opacity="0.82"/>
<rect x="182.35" y="261.95" width="3.00" height="104.13" fill="#8a4f9f" opacity="0.82"/>
<rect x="185.87" y="263.30" width="3.00" height="102.78" fill="#8a4f9f" opacity="0.82"/>
<rect x="189.38" y="264.61" width="3.00" height="101.47" fill="#8a4f9f" opacity="0.82"/>
<rect x="192.89" y="265.83" width="3.00" height="100.26" fill="#8a4f9f" opacity="0.82"/>
<rect x="196.40" y="266.99" width="3.00" height="99.10" fill="#8a4f9f" opacity="0.82"/>
<rect x="199.91" y="268.08" width="3.00" height="98.00" fill="#8a4f9f" opacity="0.82"/>
<rect x="203.43" y="269.19" width="3.00" height="96.90" fill="#8a4f9f" opacity="0.82"/>
<rect x="206.94" y="270.33" width="3.00" height="95.75" fill="#8a4f9f" opacity="0.82"/>
<rect x="210.45" y="271.42" width="3.00" height="94.67" fill="#8a4f9f" opacity="0.82"/>
<rect x="213.96" y="272.49" width="3.00" height="93.59" fill="#8a4f9f" opacity="0.82"/>
<rect x="217.48" y="273.55" width="3.00" height="92.53" fill="#8a4f9f" opacity="0.82"/>
<rect x="220.99" y="274.54" width="3.00" height="91.55" fill="#8a4f9f" opacity="0.82"/>
<rect x="224.50" y="275.39" width="3.00" height="90.69" fill="#8a4f9f" opacity="0.82"/>
<rect x="228.01" y="276.22" width="3.00" height="89.87" fill="#8a4f9f" opacity="0.82"/>
<rect x="231.52" y="277.04" width="3.00" height="89.05" fill="#8a4f9f" opacity="0.82"/>
<rect x="235.04" y="277.94" width="3.00" height="88.14" fill="#8a4f9f" opacity="0.82"/>
<rect x="238.55" y="278.84" width="3.00" height="87.25" fill="#8a4f9f" opacity="0.82"/>
<rect x="242.06" y="279.59" width="3.00" height="86.49" fill="#8a4f9f" opacity="0.82"/>
<rect x="245.57" y="280.25" width="3.00" height="85.83" fill="#8a4f9f" opacity="0.82"/>
<rect x="249.09" y="280.88" width="3.00" height="85.20" fill="#8a4f9f" opacity="0.82"/>
<rect x="252.60" y="281.42" width="3.00" height="84.66" fill="#8a4f9f" opacity="0.82"/>
<rect x="256.11" y="281.84" width="3.00" height="84.25" fill="#8a4f9f" opacity="0.82"/>
<rect x="259.62" y="282.12" width="3.00" height="83.96" fill="#8a4f9f" opacity="0.82"/>
<rect x="263.13" y="282.44" width="3.00" height="83.64" fill="#8a4f9f" opacity="0.82"/>
<rect x="266.65" y="282.75" width="3.00" height="83.33" fill="#8a4f9f" opacity="0.82"/>
<rect x="270.16" y="283.01" width="3.00" height="83.08" fill="#8a4f9f" opacity="0.82"/>
<rect x="273.67" y="283.24" width="3.00" height="82.84" fill="#8a4f9f" opacity="0.82"/>
<rect x="277.18" y="283.40" width="3.00" height="82.68" fill="#8a4f9f" opacity="0.82"/>
<rect x="280.70" y="283.52" width="3.00" height="82.56" fill="#8a4f9f" opacity="0.82"/>
<rect x="284.21" y="283.73" width="3.00" height="82.35" fill="#8a4f9f" opacity="0.82"/>
<rect x="287.72" y="284.00" width="3.00" height="82.09" fill="#8a4f9f" opacity="0.82"/>
<rect x="291.23" y="284.27" width="3.00" height="81.81" fill="#8a4f9f" opacity="0.82"/>
<rect x="294.74" y="284.68" width="3.00" height="81.40" fill="#8a4f9f" opacity="0.82"/>
<rect x="298.26" y="285.08" width="3.00" height="81.00" fill="#8a4f9f" opacity="0.82"/>
<rect x="301.77" y="285.50" width="3.00" height="80.58" fill="#8a4f9f" opacity="0.82"/>
<rect x="305.28" y="285.85" width="3.00" height="80.23" fill="#8a4f9f" opacity="0.82"/>
<rect x="308.79" y="286.32" width="3.00" height="79.76" fill="#8a4f9f" opacity="0.82"/>
<rect x="312.30" y="286.81" width="3.00" height="79.27" fill="#8a4f9f" opacity="0.82"/>
<rect x="315.82" y="287.33" width="3.00" height="78.75" fill="#8a4f9f" opacity="0.82"/>
<rect x="319.33" y="287.89" width="3.00" height="78.19" fill="#8a4f9f" opacity="0.82"/>
<rect x="322.84" y="288.42" width="3.00" height="77.66" fill="#8a4f9f" opacity="0.82"/>
<rect x="326.35" y="288.98" width="3.00" height="77.10" fill="#8a4f9f" opacity="0.82"/>
<rect x="329.87" y="289.46" width="3.00" height="76.62" fill="#8a4f9f" opacity="0.82"/>
<rect x="333.38" y="289.96" width="3.00" height="76.12" fill="#8a4f9f" opacity="0.82"/>
<rect x="336.89" y="290.34" width="3.00" height="75.74" fill="#8a4f9f" opacity="0.82"/>
<rect x="340.40" y="290.74" width="3.00" height="75.35" fill="#8a4f9f" opacity="0.82"/>
<rect x="343.91" y="291.05" width="3.00" height="75.04" fill="#8a4f9f" opacity="0.82"/>
<rect x="347.43" y="291.35" width="3.00" height="74.73" fill="#8a4f9f" opacity="0.82"/>
<rect x="350.94" y="291.59" width="3.00" height="74.49" fill="#8a4f9f" opacity="0.82"/>
<rect x="354.45" y="291.79" width="3.00" height="74.29" fill="#8a4f9f" opacity="0.82"/>
<rect x="357.96" y="291.99" width="3.00" height="74.10" fill="#8a4f9f" opacity="0.82"/>
<rect x="361.48" y="292.15" width="3.00" height="73.94" fill="#8a4f9f" opacity="0.82"/>
<rect x="364.99" y="292.28" width="3.00" height="73.81" fill="#8a4f9f" opacity="0.82"/>
<rect x="368.50" y="292.40" width="3.00" height="73.68" fill="#8a4f9f" opacity="0.82"/>
<rect x="372.01" y="292.53" width="3.00" height="73.56" fill="#8a4f9f" opacity="0.82"/>
<rect x="375.52" y="292.61" width="3.00" height="73.47" fill="#8a4f9f" opacity="0.82"/>
<rect x="379.04" y="292.83" width="3.00" height="73.25" fill="#8a4f9f" opacity="0.82"/>
<rect x="382.55" y="293.14" width="3.00" height="72.94" fill="#8a4f9f" opacity="0.82"/>
<rect x="386.06" y="293.54" width="3.00" height="72.54" fill="#8a4f9f" opacity="0.82"/>
<rect x="389.57" y="293.96" width="3.00" height="72.12" fill="#8a4f9f" opacity="0.82"/>
<rect x="393.09" y="294.41" width="3.00" height="71.67" fill="#8a4f9f" opacity="0.82"/>
<rect x="396.60" y="294.93" width="3.00" height="71.15" fill="#8a4f9f" opacity="0.82"/>
<rect x="400.11" y="295.45" width="3.00" height="70.63" fill="#8a4f9f" opacity="0.82"/>
<rect x="403.62" y="296.01" width="3.00" height="70.07" fill="#8a4f9f" opacity="0.82"/>
<rect x="407.13" y="296.54" width="3.00" height="69.54" fill="#8a4f9f" opacity="0.82"/>
<rect x="410.65" y="297.15" width="3.00" height="68.93" fill="#8a4f9f" opacity="0.82"/>
<rect x="414.16" y="297.81" width="3.00" height="68.28" fill="#8a4f9f" opacity="0.82"/>
<rect x="417.67" y="298.37" width="3.00" height="67.72" fill="#8a4f9f" opacity="0.82"/>
<rect x="421.18" y="298.88" width="3.00" height="67.20" fill="#8a4f9f" opacity="0.82"/>
<rect x="424.70" y="299.31" width="3.00" height="66.77" fill="#8a4f9f" opacity="0.82"/>
<rect x="428.21" y="299.73" width="3.00" height="66.35" fill="#8a4f9f" opacity="0.82"/>
<rect x="431.72" y="300.22" width="3.00" height="65.86" fill="#8a4f9f" opacity="0.82"/>
<rect x="435.23" y="300.69" width="3.00" height="65.39" fill="#8a4f9f" opacity="0.82"/>
<rect x="438.74" y="301.20" width="3.00" height="64.88" fill="#8a4f9f" opacity="0.82"/>
<rect x="442.26" y="301.75" width="3.00" height="64.33" fill="#8a4f9f" opacity="0.82"/>
<rect x="445.77" y="302.34" width="3.00" height="63.74" fill="#8a4f9f" opacity="0.82"/>
<rect x="449.28" y="302.96" width="3.00" height="63.12" fill="#8a4f9f" opacity="0.82"/>
<rect x="452.79" y="303.51" width="3.00" height="62.57" fill="#8a4f9f" opacity="0.82"/>
<rect x="456.30" y="304.04" width="3.00" height="62.04" fill="#8a4f9f" opacity="0.82"/>
<rect x="459.82" y="304.51" width="3.00" height="61.57" fill="#8a4f9f" opacity="0.82"/>
<rect x="463.33" y="304.94" width="3.00" height="61.14" fill="#8a4f9f" opacity="0.82"/>
<rect x="466.84" y="305.39" width="3.00" height="60.69" fill="#8a4f9f" opacity="0.82"/>
<rect x="470.35" y="305.79" width="3.00" height="60.29" fill="#8a4f9f" opacity="0.82"/>
<rect x="473.87" y="306.13" width="3.00" height="59.95" fill="#8a4f9f" opacity="0.82"/>
<rect x="477.38" y="306.46" width="3.00" height="59.62" fill="#8a4f9f" opacity="0.82"/>
<rect x="480.89" y="306.71" width="3.00" height="59.37" fill="#8a4f9f" opacity="0.82"/>
<rect x="484.40" y="306.95" width="3.00" height="59.14" fill="#8a4f9f" opacity="0.82"/>
<rect x="487.91" y="307.16" width="3.00" height="58.92" fill="#8a4f9f" opacity="0.82"/>
<rect x="491.43" y="307.32" width="3.00" height="58.76" fill="#8a4f9f" opacity="0.82"/>
<rect x="494.94" y="307.42" width="3.00" height="58.67" fill="#8a4f9f" opacity="0.82"/>
<rect x="498.45" y="307.43" width="3.00" height="58.65" fill="#8a4f9f" opacity="0.82"/>
<rect x="501.96" y="307.57" width="3.00" height="58.51" fill="#8a4f9f" opacity="0.82"/>
<rect x="505.48" y="307.74" width="3.00" height="58.34" fill="#8a4f9f" opacity="0.82"/>
<rect x="508.99" y="307.92" width="3.00" height="58.16" fill="#8a4f9f" opacity="0.82"/>
<rect x="512.50" y="308.11" width="3.00" height="57.97" fill="#8a4f9f" opacity="0.82"/>
<rect x="516.01" y="308.39" width="3.00" height="57.69" fill="#8a4f9f" opacity="0.82"/>
<rect x="519.52" y="308.61" width="3.00" height="57.47" fill="#8a4f9f" opacity="0.82"/>
<rect x="523.04" y="308.88" width="3.00" height="57.20" fill="#8a4f9f" opacity="0.82"/>
<rect x="526.55" y="309.09" width="3.00" height="56.99" fill="#8a4f9f" opacity="0.82"/>
<rect x="530.06" y="309.21" width="3.00" height="56.87" fill="#8a4f9f" opacity="0.82"/>
<rect x="533.57" y="309.34" width="3.00" height="56.74" fill="#8a4f9f" opacity="0.82"/>
<rect x="537.09" y="309.55" width="3.00" height="56.53" fill="#8a4f9f" opacity="0.82"/>
<rect x="540.60" y="309.86" width="3.00" height="56.23" fill="#8a4f9f" opacity="0.82"/>
<rect x="544.11" y="310.16" width="3.00" height="55.92" fill="#8a4f9f" opacity="0.82"/>
<rect x="547.62" y="310.48" width="3.00" height="55.60" fill="#8a4f9f" opacity="0.82"/>
<rect x="551.13" y="310.87" width="3.00" height="55.21" fill="#8a4f9f" opacity="0.82"/>
<rect x="554.65" y="311.26" width="3.00" height="54.82" fill="#8a4f9f" opacity="0.82"/>
<rect x="558.16" y="311.59" width="3.00" height="54.49" fill="#8a4f9f" opacity="0.82"/>
<rect x="561.67" y="311.94" width="3.00" height="54.14" fill="#8a4f9f" opacity="0.82"/>
<rect x="565.18" y="312.29" width="3.00" height="53.79" fill="#8a4f9f" opacity="0.82"/>
<rect x="568.70" y="312.64" width="3.00" height="53.44" fill="#8a4f9f" opacity="0.82"/>
<rect x="572.21" y="312.97" width="3.00" height="53.12" fill="#8a4f9f" opacity="0.82"/>
<rect x="575.72" y="313.23" width="3.00" height="52.85" fill="#8a4f9f" opacity="0.82"/>
<rect x="579.23" y="313.45" width="3.00" height="52.63" fill="#8a4f9f" opacity="0.82"/>
<rect x="582.74" y="313.58" width="3.00" height="52.51" fill="#8a4f9f" opacity="0.82"/>
<rect x="586.26" y="313.61" width="3.00" height="52.47" fill="#8a4f9f" opacity="0.82"/>
<rect x="589.77" y="313.59" width="3.00" height="52.49" fill="#8a4f9f" opacity="0.82"/>
<rect x="593.28" y="313.47" width="3.00" height="52.61" fill="#8a4f9f" opacity="0.82"/>
<rect x="596.79" y="313.33" width="3.00" height="52.76" fill="#8a4f9f" opacity="0.82"/>
<rect x="600.30" y="313.14" width="3.00" height="52.94" fill="#8a4f9f" opacity="0.82"/>
<rect x="603.82" y="312.96" width="3.00" height="53.13" fill="#8a4f9f" opacity="0.82"/>
<rect x="607.33" y="312.74" width="3.00" height="53.34" fill="#8a4f9f" opacity="0.82"/>
<rect x="610.84" y="312.61" width="3.00" height="53.48" fill="#8a4f9f" opacity="0.82"/>
<rect x="614.35" y="312.43" width="3.00" height="53.65" fill="#8a4f9f" opacity="0.82"/>
<rect x="617.87" y="312.37" width="3.00" height="53.71" fill="#8a4f9f" opacity="0.82"/>
<rect x="621.38" y="312.27" width="3.00" height="53.81" fill="#8a4f9f" opacity="0.82"/>
<rect x="624.89" y="312.28" width="3.00" height="53.80" fill="#8a4f9f" opacity="0.82"/>
<rect x="628.40" y="312.29" width="3.00" height="53.79" fill="#8a4f9f" opacity="0.82"/>
<rect x="631.91" y="312.29" width="3.00" height="53.79" fill="#8a4f9f" opacity="0.82"/>
<rect x="635.43" y="312.38" width="3.00" height="53.70" fill="#8a4f9f" opacity="0.82"/>
<rect x="638.94" y="312.55" width="3.00" height="53.54" fill="#8a4f9f" opacity="0.82"/>
<rect x="642.45" y="312.82" width="3.00" height="53.26" fill="#8a4f9f" opacity="0.82"/>
<rect x="645.96" y="313.12" width="3.00" height="52.97" fill="#8a4f9f" opacity="0.82"/>
<rect x="649.48" y="313.43" width="3.00" height="52.65" fill="#8a4f9f" opacity="0.82"/>
<rect x="652.99" y="313.75" width="3.00" height="52.34" fill="#8a4f9f" opacity="0.82"/>
<rect x="656.50" y="314.13" width="3.00" height="51.96" fill="#8a4f9f" opacity="0.82"/>
<rect x="660.01" y="314.43" width="3.00" height="51.65" fill="#8a4f9f" opacity="0.82"/>
<rect x="663.52" y="314.79" width="3.00" height="51.30" fill="#8a4f9f" opacity="0.82"/>
<rect x="667.04" y="315.22" width="3.00" height="50.86" fill="#8a4f9f" opacity="0.82"/>
<rect x="670.55" y="315.65" width="3.00" height="50.43" fill="#8a4f9f" opacity="0.82"/>
<rect x="674.06" y="316.12" width="3.00" height="49.96" fill="#8a4f9f" opacity="0.82"/>
<rect x="677.57" y="316.57" width="3.00" height="49.52" fill="#8a4f9f" opacity="0.82"/>
<rect x="681.09" y="316.95" width="3.00" height="49.14" fill="#8a4f9f" opacity="0.82"/>
<rect x="684.60" y="317.31" width="3.00" height="48.78" fill="#8a4f9f" opacity="0.82"/>
<rect x="688.11" y="317.67" width="3.00" height="48.42" fill="#8a4f9f" opacity="0.82"/>
<rect x="691.62" y="318.03" width="3.00" height="48.05" fill="#8a4f9f" opacity="0.82"/>
<rect x="695.13" y="318.30" width="3.00" height="47.79" fill="#8a4f9f" opacity="0.82"/>
<rect x="698.65" y="318.55" width="3.00" height="47.53" fill="#8a4f9f" opacity="0.82"/>
<rect x="702.16" y="318.85" width="3.00" height="47.23" fill="#8a4f9f" opacity="0.82"/>
<rect x="705.67" y="319.17" width="3.00" height="46.91" fill="#8a4f9f" opacity="0.82"/>
<rect x="709.18" y="319.32" width="3.00" height="46.76" fill="#8a4f9f" opacity="0.82"/>
<rect x="712.70" y="319.41" width="3.00" height="46.68" fill="#8a4f9f" opacity="0.82"/>
<rect x="716.21" y="319.37" width="3.00" height="46.72" fill="#8a4f9f" opacity="0.82"/>
<rect x="719.72" y="319.27" width="3.00" height="46.81" fill="#8a4f9f" opacity="0.82"/>
<rect x="723.23" y="319.17" width="3.00" height="46.91" fill="#8a4f9f" opacity="0.82"/>
<rect x="726.74" y="319.02" width="3.00" height="47.06" fill="#8a4f9f" opacity="0.82"/>
<rect x="730.26" y="318.93" width="3.00" height="47.15" fill="#8a4f9f" opacity="0.82"/>
<rect x="733.77" y="318.87" width="3.00" height="47.22" fill="#8a4f9f" opacity="0.82"/>
<rect x="737.28" y="318.83" width="3.00" height="47.25" fill="#8a4f9f" opacity="0.82"/>
<rect x="740.79" y="318.82" width="3.00" height="47.27" fill="#8a4f9f" opacity="0.82"/>
<rect x="744.30" y="318.76" width="3.00" height="47.32" fill="#8a4f9f" opacity="0.82"/>
<rect x="747.82" y="318.66" width="3.00" height="47.42" fill="#8a4f9f" opacity="0.82"/>
<rect x="751.33" y="318.64" width="3.00" height="47.44" fill="#8a4f9f" opacity="0.82"/>
<rect x="754.84" y="318.72" width="3.00" height="47.36" fill="#8a4f9f" opacity="0.82"/>
<rect x="758.35" y="318.95" width="3.00" height="47.13" fill="#8a4f9f" opacity="0.82"/>
<rect x="761.87" y="319.24" width="3.00" height="46.85" fill="#8a4f9f" opacity="0.82"/>
<rect x="765.38" y="319.52" width="3.00" height="46.56" fill="#8a4f9f" opacity="0.82"/>
<rect x="768.89" y="319.81" width="3.00" height="46.27" fill="#8a4f9f" opacity="0.82"/>
<rect x="772.40" y="320.07" width="3.00" height="46.01" fill="#8a4f9f" opacity="0.82"/>
<rect x="775.91" y="320.23" width="3.00" height="45.85" fill="#8a4f9f" opacity="0.82"/>
<rect x="779.43" y="320.42" width="3.00" height="45.66" fill="#8a4f9f" opacity="0.82"/>
<rect x="782.94" y="320.56" width="3.00" height="45.52" fill="#8a4f9f" opacity="0.82"/>
<rect x="786.45" y="320.75" width="3.00" height="45.33" fill="#8a4f9f" opacity="0.82"/>
<rect x="789.96" y="320.92" width="3.00" height="45.16" fill="#8a4f9f" opacity="0.82"/>
<rect x="793.48" y="321.10" width="3.00" height="44.98" fill="#8a4f9f" opacity="0.82"/>
<rect x="796.99" y="321.23" width="3.00" height="44.86" fill="#8a4f9f" opacity="0.82"/>
<rect x="800.50" y="321.26" width="3.00" height="44.82" fill="#8a4f9f" opacity="0.82"/>
<rect x="804.01" y="321.27" width="3.00" height="44.81" fill="#8a4f9f" opacity="0.82"/>
<rect x="807.52" y="321.28" width="3.00" height="44.80" fill="#8a4f9f" opacity="0.82"/>
<rect x="811.04" y="321.25" width="3.00" height="44.83" fill="#8a4f9f" opacity="0.82"/>
<rect x="814.55" y="321.18" width="3.00" height="44.90" fill="#8a4f9f" opacity="0.82"/>
<rect x="818.06" y="321.18" width="3.00" height="44.91" fill="#8a4f9f" opacity="0.82"/>
<rect x="821.57" y="321.17" width="3.00" height="44.91" fill="#8a4f9f" opacity="0.82"/>
<rect x="825.09" y="321.20" width="3.00" height="44.88" fill="#8a4f9f" opacity="0.82"/>
<rect x="828.60" y="321.24" width="3.00" height="44.84" fill="#8a4f9f" opacity="0.82"/>
<rect x="832.11" y="321.32" width="3.00" height="44.76" fill="#8a4f9f" opacity="0.82"/>
<rect x="835.62" y="321.34" width="3.00" height="44.74" fill="#8a4f9f" opacity="0.82"/>
<rect x="839.13" y="321.36" width="3.00" height="44.72" fill="#8a4f9f" opacity="0.82"/>
<rect x="842.65" y="321.41" width="3.00" height="44.67" fill="#8a4f9f" opacity="0.82"/>
<rect x="846.16" y="321.50" width="3.00" height="44.58" fill="#8a4f9f" opacity="0.82"/>
<rect x="849.67" y="321.66" width="3.00" height="44.42" fill="#8a4f9f" opacity="0.82"/>
<rect x="853.18" y="321.76" width="3.00" height="44.32" fill="#8a4f9f" opacity="0.82"/>
<rect x="856.70" y="321.89" width="3.00" height="44.20" fill="#8a4f9f" opacity="0.82"/>
<rect x="860.21" y="322.04" width="3.00" height="44.04" fill="#8a4f9f" opacity="0.82"/>
<rect x="863.72" y="322.25" width="3.00" height="43.83" fill="#8a4f9f" opacity="0.82"/>
<rect x="867.23" y="322.50" width="3.00" height="43.58" fill="#8a4f9f" opacity="0.82"/>
<rect x="870.74" y="322.69" width="3.00" height="43.39" fill="#8a4f9f" opacity="0.82"/>
<rect x="874.26" y="322.85" width="3.00" height="43.24" fill="#8a4f9f" opacity="0.82"/>
<rect x="877.77" y="322.97" width="3.00" height="43.11" fill="#8a4f9f" opacity="0.82"/>
<rect x="881.28" y="323.12" width="3.00" height="42.96" fill="#8a4f9f" opacity="0.82"/>
<rect x="884.79" y="323.32" width="3.00" height="42.77" fill="#8a4f9f" opacity="0.82"/>
<rect x="888.30" y="323.48" width="3.00" height="42.60" fill="#8a4f9f" opacity="0.82"/>
<rect x="891.82" y="323.65" width="3.00" height="42.43" fill="#8a4f9f" opacity="0.82"/>
<rect x="895.33" y="323.87" width="3.00" height="42.21" fill="#8a4f9f" opacity="0.82"/>
<rect x="898.84" y="324.07" width="3.00" height="42.01" fill="#8a4f9f" opacity="0.82"/>
<rect x="902.35" y="324.16" width="3.00" height="41.93" fill="#8a4f9f" opacity="0.82"/>
<rect x="905.87" y="324.24" width="3.00" height="41.85" fill="#8a4f9f" opacity="0.82"/>
<rect x="909.38" y="324.31" width="3.00" height="41.78" fill="#8a4f9f" opacity="0.82"/>
<rect x="912.89" y="324.43" width="3.00" height="41.65" fill="#8a4f9f" opacity="0.82"/>
<rect x="916.40" y="324.57" width="3.00" height="41.51" fill="#8a4f9f" opacity="0.82"/>
<rect x="919.91" y="324.70" width="3.00" height="41.38" fill="#8a4f9f" opacity="0.82"/>
<rect x="923.43" y="324.86" width="3.00" height="41.23" fill="#8a4f9f" opacity="0.82"/>
<rect x="926.94" y="325.00" width="3.00" height="41.08" fill="#8a4f9f" opacity="0.82"/>
<rect x="930.45" y="325.13" width="3.00" height="40.96" fill="#8a4f9f" opacity="0.82"/>
<rect x="933.96" y="325.19" width="3.00" height="40.89" fill="#8a4f9f" opacity="0.82"/>
<rect x="937.48" y="325.24" width="3.00" height="40.85" fill="#8a4f9f" opacity="0.82"/>
<rect x="940.99" y="325.30" width="3.00" height="40.79" fill="#8a4f9f" opacity="0.82"/>
<rect x="944.50" y="325.47" width="3.00" height="40.61" fill="#8a4f9f" opacity="0.82"/>
<rect x="948.01" y="325.67" width="3.00" height="40.41" fill="#8a4f9f" opacity="0.82"/>
<rect x="951.52" y="325.83" width="3.00" height="40.25" fill="#8a4f9f" opacity="0.82"/>
<rect x="955.04" y="325.93" width="3.00" height="40.15" fill="#8a4f9f" opacity="0.82"/>
<rect x="958.55" y="326.00" width="3.00" height="40.08" fill="#8a4f9f" opacity="0.82"/>
<rect x="962.06" y="326.19" width="3.00" height="39.89" fill="#8a4f9f" opacity="0.82"/>
<rect x="965.57" y="326.40" width="3.00" height="39.68" fill="#8a4f9f" opacity="0.82"/>
<rect x="969.09" y="326.59" width="3.00" height="39.50" fill="#8a4f9f" opacity="0.82"/>
<rect x="972.60" y="326.83" width="3.00" height="39.25" fill="#8a4f9f" opacity="0.82"/>
<rect x="976.11" y="327.10" width="3.00" height="38.98" fill="#8a4f9f" opacity="0.82"/>
<rect x="979.62" y="327.30" width="3.00" height="38.79" fill="#8a4f9f" opacity="0.82"/>
<rect x="983.13" y="327.49" width="3.00" height="38.59" fill="#8a4f9f" opacity="0.82"/>
<rect x="986.65" y="327.59" width="3.00" height="38.49" fill="#8a4f9f" opacity="0.82"/>
<rect x="990.16" y="327.60" width="3.00" height="38.49" fill="#8a4f9f" opacity="0.82"/>
<rect x="993.67" y="327.61" width="3.00" height="38.47" fill="#8a4f9f" opacity="0.82"/>
<rect x="997.18" y="327.67" width="3.00" height="38.41" fill="#8a4f9f" opacity="0.82"/>
<rect x="1000.70" y="327.68" width="3.00" height="38.40" fill="#8a4f9f" opacity="0.82"/>
<rect x="1004.21" y="327.54" width="3.00" height="38.54" fill="#8a4f9f" opacity="0.82"/>
<rect x="1007.72" y="327.30" width="3.00" height="38.78" fill="#8a4f9f" opacity="0.82"/>
<rect x="1011.23" y="327.04" width="3.00" height="39.04" fill="#8a4f9f" opacity="0.82"/>
<rect x="1014.74" y="326.64" width="3.00" height="39.44" fill="#8a4f9f" opacity="0.82"/>
<rect x="1018.26" y="326.18" width="3.00" height="39.90" fill="#8a4f9f" opacity="0.82"/>
<rect x="1021.77" y="325.73" width="3.00" height="40.35" fill="#8a4f9f" opacity="0.82"/>
<rect x="1025.28" y="325.29" width="3.00" height="40.79" fill="#8a4f9f" opacity="0.82"/>
<rect x="1028.79" y="324.89" width="3.00" height="41.19" fill="#8a4f9f" opacity="0.82"/>
<rect x="1032.30" y="324.51" width="3.00" height="41.58" fill="#8a4f9f" opacity="0.82"/>
<rect x="1035.82" y="324.10" width="3.00" height="41.98" fill="#8a4f9f" opacity="0.82"/>
<rect x="1039.33" y="323.67" width="3.00" height="42.41" fill="#8a4f9f" opacity="0.82"/>
<rect x="1042.84" y="323.31" width="3.00" height="42.77" fill="#8a4f9f" opacity="0.82"/>
<rect x="1046.35" y="323.00" width="3.00" height="43.08" fill="#8a4f9f" opacity="0.82"/>
<rect x="1049.87" y="322.69" width="3.00" height="43.39" fill="#8a4f9f" opacity="0.82"/>
<rect x="1053.38" y="322.39" width="3.00" height="43.69" fill="#8a4f9f" opacity="0.82"/>
<rect x="1056.89" y="322.13" width="3.00" height="43.95" fill="#8a4f9f" opacity="0.82"/>
<rect x="1060.40" y="321.91" width="3.00" height="44.17" fill="#8a4f9f" opacity="0.82"/>
<rect x="1063.91" y="321.74" width="3.00" height="44.34" fill="#8a4f9f" opacity="0.82"/>
<rect x="1067.43" y="321.52" width="3.00" height="44.56" fill="#8a4f9f" opacity="0.82"/>
<rect x="1070.94" y="321.36" width="3.00" height="44.73" fill="#8a4f9f" opacity="0.82"/>
<rect x="1074.45" y="321.27" width="3.00" height="44.81" fill="#8a4f9f" opacity="0.82"/>
<rect x="1077.96" y="321.23" width="3.00" height="44.85" fill="#8a4f9f" opacity="0.82"/>
<rect x="1081.48" y="321.23" width="3.00" height="44.85" fill="#8a4f9f" opacity="0.82"/>
<rect x="1084.99" y="321.31" width="3.00" height="44.77" fill="#8a4f9f" opacity="0.82"/>
<rect x="1088.50" y="321.46" width="3.00" height="44.62" fill="#8a4f9f" opacity="0.82"/>
<text x="82.00" y="402" text-anchor="middle" font-family="Arial, sans-serif" font-size="11">1</text>
<text x="120.63" y="402" text-anchor="middle" font-family="Arial, sans-serif" font-size="11">12</text>
<text x="247.07" y="402" text-anchor="middle" font-family="Arial, sans-serif" font-size="11">48</text>
<text x="415.66" y="402" text-anchor="middle" font-family="Arial, sans-serif" font-size="11">96</text>
<text x="584.24" y="402" text-anchor="middle" font-family="Arial, sans-serif" font-size="11">144</text>
<text x="837.12" y="402" text-anchor="middle" font-family="Arial, sans-serif" font-size="11">216</text>
<text x="1090.00" y="402" text-anchor="middle" font-family="Arial, sans-serif" font-size="11">288</text>
<text x="586.00" y="422" text-anchor="middle" font-family="Arial, sans-serif" font-size="13">Retardo</text>
<text transform="translate(18,215.0) rotate(-90)" text-anchor="middle" font-family="Arial, sans-serif" font-size="13">ACF</text>
<text x="90" y="418" font-family="Arial, sans-serif" font-size="11" fill="#8a2222">Bandas orientativas ±0.003962</text>
</svg>