<svg xmlns="http://www.w3.org/2000/svg" width="1120" height="460" viewBox="0 0 1120 460">
<rect x="0" y="0" width="1120" height="460" fill="#ffffff"/>
<text x="560.0" y="26" text-anchor="middle" font-family="Arial, sans-serif" font-size="18" font-weight="700">Periodograma - v_t = log_rv_past_12</text>
<line x1="82" y1="396.00" x2="1086.00" y2="396.00" stroke="#e8e8e8" stroke-width="1"/>
<text x="74" y="400.00" text-anchor="end" font-family="Arial, sans-serif" font-size="11">-2.62</text>
<line x1="82" y1="311.50" x2="1086.00" y2="311.50" stroke="#e8e8e8" stroke-width="1"/>
<text x="74" y="315.50" text-anchor="end" font-family="Arial, sans-serif" font-size="11">-0.83</text>
<line x1="82" y1="227.00" x2="1086.00" y2="227.00" stroke="#e8e8e8" stroke-width="1"/>
<text x="74" y="231.00" text-anchor="end" font-family="Arial, sans-serif" font-size="11">0.96</text>
<line x1="82" y1="142.50" x2="1086.00" y2="142.50" stroke="#e8e8e8" stroke-width="1"/>
<text x="74" y="146.50" text-anchor="end" font-family="Arial, sans-serif" font-size="11">2.76</text>
<line x1="82" y1="58.00" x2="1086.00" y2="58.00" stroke="#e8e8e8" stroke-width="1"/>
<text x="74" y="62.00" text-anchor="end" font-family="Arial, sans-serif" font-size="11">4.55</text>
<rect x="82" y="58" width="1004.00" height="338.00" fill="none" stroke="#222222" stroke-width="1"/>
<polyline points="82.00,378.02 82.02,360.05 82.04,362.77 82.07,369.05 82.09,361.03 82.12,350.63 82.14,354.12 82.15,362.24 82.19,362.92 82.21,365.17 82.23,364.10 82.26,358.74 82.26,367.59 82.29,356.04 82.31,373.26 82.34,366.92 82.36,360.86 82.38,369.68 82.40,360.54 82.43,367.50 82.45,366.63 82.47,380.64 82.49,364.14 82.51,369.31 82.55,367.36 82.57,369.50 82.58,360.37 82.61,358.11 82.63,363.09 82.65,372.71 82.67,350.96 82.69,364.11 82.72,366.52 82.73,366.27 82.76,359.77 82.79,361.67 82.81,363.39 82.82,358.47 82.84,352.78 82.87,359.53 82.91,358.56 82.93,360.96 82.94,356.96 82.96,367.85 82.98,369.81 83.01,363.98 83.03,364.85 83.06,369.80 83.08,373.09 83.10,358.19 83.13,363.68 83.13,366.15 83.17,360.45 83.19,359.50 83.20,348.15 83.24,366.17 83.25,366.75 83.29,361.09 83.30,369.04 83.32,364.94 83.35,361.38 83.37,362.00 83.38,363.42 83.41,361.48 83.43,368.63 83.46,368.92 83.49,352.26 83.50,361.07 83.53,367.42 83.56,347.35 83.58,362.45 83.59,360.51 83.62,352.21 83.64,348.71 83.66,362.99 83.68,359.49 83.70,375.88 83.73,352.45 83.75,361.74 83.77,359.34 83.79,355.11 83.81,350.86 83.83,355.30 83.87,366.81 83.89,363.21 83.91,359.24 83.92,358.50 83.96,357.33 83.98,365.73 84.01,351.79 84.02,361.02 84.03,365.22 84.07,351.42 84.09,348.61 84.10,356.65 84.13,339.73 84.15,350.35 84.17,346.12 84.20,349.15 84.22,360.99 84.24,367.88 84.27,350.57 84.28,349.13 84.32,360.99 84.34,354.64 84.36,343.82 84.38,351.40 84.41,339.82 84.42,349.87 84.44,357.83 84.46,353.80 84.49,358.34 84.50,361.19 84.54,361.41 84.55,353.38 84.59,370.11 84.60,351.29 84.62,366.41 84.65,348.93 84.66,340.40 84.69,342.14 84.73,352.65 84.74,346.36 84.76,350.49 84.78,347.84 84.81,353.06 84.83,358.43 84.85,359.34 84.88,345.27 84.89,344.53 84.93,349.27 84.94,341.07 84.96,356.53 84.99,335.26 85.01,351.47 85.04,353.62 85.06,356.24 85.08,351.63 85.10,357.30 85.13,362.31 85.16,335.46 85.18,354.26 85.19,353.42 85.21,352.07 85.24,344.68 85.27,343.19 85.28,352.25 85.31,354.14 85.34,347.60 85.35,347.79 85.37,334.94 85.40,339.26 85.42,352.66 85.44,353.50 85.48,349.67 85.49,354.98 85.51,336.92 85.55,354.28 85.55,350.94 85.57,347.66 85.61,346.04 85.62,342.01 85.65,345.69 85.66,355.24 85.68,348.10 85.73,352.30 85.73,347.68 85.75,338.63 85.79,355.43 85.80,347.03 85.84,323.77 85.85,336.17 85.88,349.39 85.90,346.93 85.91,333.51 85.95,337.86 85.97,334.79 86.00,346.37 86.02,350.84 86.05,344.49 86.06,345.07 86.08,350.79 86.10,341.69 86.12,338.25 86.15,347.11 86.18,344.74 86.20,335.80 86.23,348.91 86.24,333.13 86.26,344.92 86.29,329.10 86.31,327.08 86.34,330.78 86.37,345.70 86.38,344.64 86.41,342.13 86.43,348.64 86.44,344.92 86.48,334.52 86.49,354.11 86.52,339.85 86.54,343.70 86.56,336.59 86.58,342.57 86.60,353.93 86.63,346.39 86.65,347.23 86.69,338.13 86.71,338.57 86.72,324.41 86.75,349.88 86.77,342.84 86.79,347.87 86.81,337.02 86.83,339.03 86.86,335.31 86.90,345.18 86.92,340.54 86.94,328.01 86.96,354.22 86.97,344.65 87.00,340.25 87.02,338.40 87.05,326.31 87.06,340.82 87.08,339.67 87.12,327.24 87.14,337.50 87.16,342.91 87.19,325.94 87.21,353.23 87.23,335.49 87.26,333.35 87.27,339.70 87.30,345.74 87.32,344.77 87.34,345.99 87.36,347.37 87.41,334.69 87.41,342.44 87.45,332.64 87.46,325.24 87.50,349.91 87.50,341.20 87.54,323.99 87.56,335.20 87.58,323.52 87.61,330.29 87.63,340.14 87.64,337.54 87.67,328.15 87.71,340.32 87.72,342.05 87.73,336.22 87.77,337.72 87.79,341.04 87.80,338.85 87.83,340.81 87.85,343.59 87.88,331.77 87.91,346.00 87.94,338.40 87.96,335.95 87.98,342.57 87.99,334.63 88.01,325.71 88.03,339.41 88.07,331.26 88.09,321.89 88.12,342.77 88.14,325.17 88.17,337.49 88.19,345.59 88.21,329.30 88.23,336.89 88.25,327.50 88.27,330.48 88.29,339.83 88.33,330.97 88.34,332.19 88.36,330.45 88.40,333.88 88.42,339.16 88.45,329.56 88.47,321.23 88.48,334.23 88.51,324.25 88.54,335.31 88.56,331.19 88.57,326.60 88.59,324.26 88.63,336.33 88.66,330.44 88.67,319.56 88.68,328.82 88.73,339.62 88.73,340.52 88.76,345.74 88.79,324.84 88.81,323.90 88.83,343.47 88.87,343.48 88.88,332.70 88.91,328.89 88.93,318.45 88.96,333.38 88.97,319.10 88.99,332.70 89.03,326.38 89.04,346.21 89.07,340.05 89.10,330.23 89.12,323.01 89.14,328.76 89.17,333.23 89.19,316.28 89.20,323.80 89.23,340.10 89.26,336.71 89.27,316.01 89.31,321.91 89.32,321.63 89.36,338.56 89.38,341.77 89.39,332.60 89.43,322.77 89.44,328.75 89.47,327.35 89.48,324.27 89.52,336.41 89.55,316.96 89.55,341.35 89.58,330.52 89.61,333.73 89.64,330.61 89.66,326.08 89.68,317.87 89.71,330.50 89.74,327.64 89.75,331.36 89.77,340.24 89.80,319.84 89.81,331.91 89.85,337.58 89.87,324.51 89.90,338.22 89.91,329.54 89.94,324.07 89.97,327.31 89.98,326.37 90.01,327.03 90.04,322.67 90.05,331.74 90.09,328.65 90.11,329.79 90.12,320.12 90.15,322.63 90.18,339.68 90.21,323.44 90.23,330.47 90.26,326.80 90.26,316.53 90.30,323.90 90.32,332.60 90.33,314.74 90.36,340.59 90.39,334.38 90.41,339.34 90.44,334.61 90.45,324.11 90.48,334.55 90.50,332.59 90.54,316.80 90.55,316.87 90.58,328.85 90.60,324.06 90.63,335.31 90.65,324.37 90.67,330.64 90.70,326.99 90.73,335.28 90.74,338.16 90.77,335.29 90.78,332.02 90.82,325.61 90.83,329.75 90.86,331.49 90.89,319.83 90.90,331.21 90.94,330.19 90.96,333.35 90.98,332.48 90.99,326.14 91.04,321.65 91.04,319.62 91.07,316.23 91.09,323.51 91.13,328.04 91.16,320.95 91.16,327.46 91.20,335.25 91.21,314.84 91.24,327.20 91.25,333.97 91.29,326.46 91.31,330.08 91.33,332.50 91.37,318.66 91.38,325.17 91.42,330.10 91.43,318.91 91.46,331.61 91.48,325.92 91.49,326.23 91.54,334.77 91.56,326.73 91.57,326.18 91.61,327.71 91.63,325.98 91.64,323.73 91.66,323.97 91.69,327.36 91.72,321.47 91.74,326.81 91.76,323.43 91.78,325.01 91.82,334.34 91.85,331.63 91.86,319.51 91.89,315.68 91.90,319.92 91.94,320.93 91.95,336.07 91.97,320.95 91.99,314.37 92.03,322.73 92.06,325.42 92.08,314.46 92.10,325.60 92.13,329.11 92.15,312.67 92.18,313.42 92.19,338.00 92.22,328.63 92.24,315.20 92.27,335.66 92.29,323.24 92.31,328.43 92.33,309.31 92.36,325.48 92.39,322.74 92.40,325.05 92.44,328.66 92.45,331.48 92.49,327.02 92.50,332.21 92.54,331.49 92.56,329.66 92.57,327.03 92.61,315.01 92.62,324.99 92.66,325.38 92.67,337.82 92.70,323.25 92.72,316.56 92.75,315.27 92.77,329.18 92.79,314.30 92.82,319.26 92.84,320.94 92.87,321.15 92.90,329.63 92.92,327.79 92.94,315.27 92.97,329.04 92.99,335.05 93.00,327.57 93.04,329.76 93.07,328.45 93.09,322.39 93.10,326.65 93.13,318.47 93.15,320.09 93.19,331.67 93.21,321.56 93.22,326.95 93.25,333.83 93.27,332.40 93.29,331.03 93.33,332.94 93.36,318.09 93.38,328.52 93.41,332.22 93.42,323.93 93.45,324.30 93.49,322.68 93.49,316.21 93.52,333.44 93.55,324.39 93.57,322.36 93.59,323.29 93.62,323.80 93.65,321.56 93.67,327.68 93.68,329.92 93.71,311.93 93.75,330.16 93.76,323.77 93.80,320.15 93.82,319.68 93.84,331.22 93.85,330.72 93.88,309.67 93.90,319.27 93.93,320.14 93.95,331.97 93.98,327.30 94.01,316.41 94.03,313.31 94.06,319.23 94.08,325.17 94.12,308.00 94.14,325.51 94.16,319.17 94.17,318.00 94.21,311.70 94.22,336.96 94.26,326.99 94.27,336.43 94.30,310.48 94.32,320.87 94.34,320.10 94.37,332.92 94.39,324.10 94.43,320.87 94.45,322.52 94.48,317.69 94.49,312.85 94.51,319.79 94.53,321.11 94.57,317.85 94.60,321.74 94.62,329.88 94.64,340.24 94.66,343.22 94.68,331.48 94.71,334.28 94.73,325.60 94.77,323.35 94.79,321.56 94.80,340.64 94.84,328.27 94.86,318.29 94.87,319.03 94.92,315.60 94.94,322.71 94.96,322.50 94.99,330.04 95.01,305.15 95.03,331.45 95.06,311.63 95.08,327.55 95.11,328.95 95.14,325.90 95.15,330.13 95.19,320.56 95.21,329.14 95.23,317.24 95.25,323.98 95.28,327.63 95.30,338.49 95.32,319.52 95.34,325.20 95.38,332.78 95.41,319.05 95.42,334.82 95.46,332.60 95.47,320.26 95.51,317.27 95.52,313.38 95.55,327.07 95.57,327.61 95.59,321.48 95.63,320.35 95.65,317.89 95.67,331.96 95.71,326.26 95.71,326.28 95.75,314.33 95.78,327.91 95.79,324.83 95.81,332.14 95.84,332.08 95.88,321.23 95.90,325.71 95.92,307.93 95.95,325.88 95.97,319.84 95.99,327.37 96.02,341.11 96.05,315.82 96.05,328.75 96.10,320.96 96.11,326.94 96.14,328.57 96.16,327.34 96.18,317.04 96.21,326.50 96.23,329.55 96.25,322.71 96.30,317.95 96.31,330.71 96.34,332.37 96.35,329.47 96.39,319.65 96.41,330.96 96.43,324.31 96.45,331.30 96.49,324.52 96.50,316.10 96.53,321.74 96.57,327.97 96.59,323.14 96.61,317.81 96.63,316.85 96.65,330.73 96.69,331.05 96.72,309.72 96.73,324.96 96.75,311.76 96.79,314.23 96.80,320.79 96.82,330.04 96.87,330.84 96.88,313.46 96.89,325.09 96.93,329.59 96.96,325.92 96.97,337.56 97.02,335.47 97.04,318.98 97.06,319.59 97.08,331.58 97.11,331.94 97.13,329.16 97.16,327.15 97.17,329.40 97.20,329.51 97.24,330.97 97.25,322.80 97.28,323.71 97.30,328.49 97.33,325.36 97.35,322.61 97.38,331.94 97.41,324.82 97.43,327.35 97.45,328.26 97.49,337.33 97.50,326.26 97.53,321.28 97.56,344.79 97.59,335.43 97.59,316.98 97.62,328.63 97.66,329.00 97.67,327.60 97.69,324.64 97.72,322.60 97.75,327.11 97.79,324.55 97.81,328.70 97.82,329.13 97.85,333.95 97.87,320.40 97.91,327.59 97.92,336.85 97.96,338.77 97.98,330.28 98.01,317.46 98.02,320.68 98.05,326.95 98.08,334.37 98.11,339.94 98.13,338.18 98.15,331.11 98.17,319.27 98.20,323.90 98.24,331.05 98.26,331.61 98.28,329.24 98.31,332.10 98.32,334.94 98.34,332.45 98.38,316.70 98.41,336.15 98.42,325.49 98.47,324.35 98.48,329.88 98.50,325.43 98.52,330.39 98.56,330.68 98.59,337.27 98.62,334.13 98.64,324.90 98.65,341.03 98.67,331.32 98.71,329.85 98.72,334.90 98.77,327.93 98.78,331.98 98.80,329.04 98.83,338.31 98.85,336.08 98.88,338.74 98.92,345.71 98.94,335.72 98.97,332.13 98.99,334.11 99.01,328.24 99.04,325.48 99.06,337.19 99.10,333.97 99.11,341.70 99.14,341.62 99.16,339.53 99.19,328.62 99.22,322.17 99.22,340.94 99.26,331.19 99.30,326.51 99.30,337.92 99.33,332.86 99.36,335.16 99.38,346.38 99.41,333.24 99.44,331.70 99.47,338.70 99.50,339.23 99.52,337.23 99.54,334.01 99.56,342.48 99.60,326.43 99.62,334.34 99.63,330.90 99.66,329.01 99.70,327.01 99.73,332.04 99.75,345.08 99.76,320.93 99.81,331.48 99.82,326.31 99.84,333.65 99.88,333.52 99.88,339.07 99.92,355.27 99.96,327.13 99.96,324.61 100.01,322.40 100.02,334.47 100.05,343.36 100.06,341.20 100.10,329.73 100.13,339.61 100.16,327.33 100.18,342.36 100.21,336.61 100.23,339.23 100.25,333.70 100.27,335.98 100.30,336.81 100.33,347.76 100.35,339.64 100.37,329.99 100.42,344.91 100.44,351.94 100.47,339.68 100.48,325.74 100.51,338.77 100.53,332.50 100.56,336.14 100.59,331.95 100.61,352.68 100.63,330.66 100.66,335.30 100.67,328.53 100.71,335.22 100.75,345.38 100.75,350.09 100.80,346.39 100.82,342.73 100.83,337.82 100.87,331.14 100.90,349.32 100.92,337.85 100.93,348.33 100.98,341.45 101.00,343.39 101.03,340.82 101.04,333.47 101.06,344.33 101.09,344.06 101.11,340.17 101.15,347.52 101.17,337.85 101.20,345.97 101.23,333.08 101.24,334.76 101.29,345.50 101.30,349.42 101.34,344.34 101.35,338.59 101.39,345.32 101.41,341.46 101.44,351.47 101.45,343.23 101.49,340.76 101.52,343.01 101.54,341.85 101.56,350.49 101.58,350.08 101.60,340.48 101.63,340.46 101.65,338.89 101.69,352.17 101.72,346.27 101.75,343.24 101.76,351.43 101.79,332.62 101.82,345.67 101.84,335.29 101.87,345.49 101.89,337.82 101.91,345.17 101.95,337.36 101.97,342.27 102.01,345.31 102.02,347.11 102.04,341.75 102.08,342.68 102.09,331.27 102.12,355.44 102.16,341.23 102.19,348.00 102.19,346.13 102.23,349.91 102.25,348.76 102.28,350.35 102.30,350.04 102.34,342.74 102.36,344.67 102.40,353.64 102.40,347.87 102.44,346.65 102.47,350.11 102.49,357.68 102.52,342.28 102.54,342.74 102.56,350.38 102.58,348.85 102.61,340.24 102.63,356.02 102.68,347.40 102.70,347.69 102.73,347.26 102.76,353.01 102.76,355.21 102.80,345.01 102.82,364.34 102.84,361.43 102.88,351.06 102.90,351.01 102.94,342.91 102.96,336.48 102.99,342.35 103.02,354.81 103.04,351.13 103.06,351.39 103.08,350.70 103.12,352.46 103.14,355.44 103.16,355.38 103.19,351.62 103.22,347.32 103.24,355.11 103.27,365.32 103.30,367.67 103.31,366.08 103.35,351.55 103.36,363.36 103.39,358.46 103.43,349.09 103.46,349.34 103.47,356.42 103.49,355.55 103.54,350.35 103.55,362.46 103.59,356.93 103.62,352.49 103.63,370.10 103.67,348.09 103.69,358.27 103.72,348.61 103.73,355.26 103.77,365.20 103.79,349.22 103.81,358.24 103.84,362.42 103.87,363.27 103.90,345.76 103.93,355.03 103.95,359.77 103.96,361.20 103.99,358.47 104.02,360.50 104.05,348.85 104.08,366.78 104.10,357.25 104.13,368.73 104.16,361.49 104.17,365.35 104.22,364.50 104.23,364.88 104.26,348.48 104.30,369.38 104.31,361.61 104.33,364.62 104.38,366.32 104.39,362.93 104.42,342.18 104.46,357.12 104.46,343.96 104.50,373.95 104.52,361.70 104.55,368.94 104.57,351.07 104.60,366.35 104.62,365.70 104.65,364.92 104.69,357.81 104.72,365.00 104.74,348.60 104.75,364.07 104.79,349.58 104.82,356.14 104.85,351.99 104.88,348.60 104.88,356.23 104.91,370.71 104.96,358.44 104.98,346.51 105.01,354.36 105.03,363.44 105.04,357.39 105.09,368.30 105.10,343.75 105.14,363.62 105.15,367.86 105.17,368.00 105.20,361.48 105.24,364.02 105.27,366.03 105.29,357.88 105.31,365.54 105.33,371.58 105.37,373.75 105.40,375.27 105.42,370.43 105.45,379.48 105.47,368.98 105.50,356.66 105.53,359.42 105.56,357.56 105.59,368.92 105.61,363.87 105.62,368.00 105.65,371.24 105.68,369.46 105.72,363.13 105.75,363.54 105.77,364.27 105.80,366.09 105.83,353.01 105.86,358.79 105.86,368.28 105.91,368.20 105.92,372.12 105.96,358.93 105.98,364.63 106.02,367.91 106.03,370.59 106.06,371.27 106.08,365.14 106.12,368.70 106.14,359.81 106.17,359.44 106.18,364.52 106.23,355.00 106.25,373.09 106.27,373.12 106.30,362.95 106.33,367.07 106.34,348.91 106.37,369.44 106.40,363.13 106.43,360.98 106.47,364.56 106.50,371.37 106.51,366.63 106.53,364.07 106.58,362.63 106.60,355.39 106.61,350.70 106.65,367.56 106.67,354.99 106.69,365.18 106.72,361.33 106.75,362.60 106.77,353.92 106.81,371.17 106.83,355.22 106.87,362.96 106.88,355.59 106.93,361.35 106.95,362.18 106.95,343.46 106.99,357.39 107.02,362.26 107.05,350.03 107.06,367.71 107.11,359.75 107.12,364.47 107.15,358.36 107.17,370.48 107.21,348.04 107.24,368.44 107.26,339.46 107.30,354.92 107.32,356.88 107.33,376.98 107.37,360.86 107.39,353.48 107.41,351.75 107.46,375.94 107.48,360.86 107.49,364.51 107.54,354.07 107.57,353.70 107.60,341.57 107.61,352.55 107.64,356.90 107.67,359.61 107.69,355.03 107.73,351.21 107.76,359.49 107.77,359.35 107.80,355.63 107.83,356.50 107.85,359.93 107.89,359.23 107.91,360.96 107.94,353.33 107.98,350.87 107.99,358.58 108.01,354.86 108.03,358.56 108.06,370.00 108.09,357.29 108.11,359.76 108.15,362.50 108.17,358.65 108.21,361.35 108.23,357.03 108.26,350.25 108.28,367.93 108.32,348.77 108.34,355.29 108.37,369.61 108.39,354.78 108.42,347.69 108.46,354.84 108.48,357.71 108.50,345.08 108.54,358.05 108.56,360.63 108.59,356.96 108.61,359.35 108.65,350.99 108.67,345.50 108.70,366.28 108.72,348.88 108.76,349.26 108.77,355.29 108.82,350.05 108.83,361.24 108.87,364.01 108.89,355.15 108.91,350.78 108.94,351.62 108.97,362.53 109.00,355.06 109.02,353.64 109.06,355.33 109.06,349.93 109.09,366.80 109.12,356.69 109.16,346.66 109.18,349.29 109.21,353.82 109.24,343.95 109.26,362.67 109.31,352.84 109.32,357.90 109.35,340.51 109.36,346.32 109.40,342.75 109.42,337.89 109.46,353.17 109.49,347.98 109.50,352.07 109.54,349.94 109.58,352.13 109.60,342.10 109.62,348.07 109.65,341.26 109.68,355.76 109.70,353.54 109.74,332.35 109.75,348.92 109.79,353.68 109.80,342.42 109.83,345.56 109.87,338.53 109.90,354.63 109.91,353.67 109.95,345.86 109.98,361.16 110.00,341.71 110.03,351.79 110.06,349.02 110.08,342.95 110.12,339.23 110.14,347.17 110.16,345.25 110.19,344.17 110.22,329.04 110.26,348.34 110.29,343.13 110.32,340.19 110.33,336.33 110.35,334.60 110.40,362.13 110.41,328.48 110.44,329.16 110.48,345.53 110.50,343.22 110.52,347.82 110.55,334.32 110.59,337.50 110.60,343.10 110.64,338.75 110.65,354.62 110.68,340.52 110.72,353.49 110.76,342.29 110.78,352.29 110.80,329.17 110.84,342.17 110.85,342.11 110.89,343.49 110.91,346.48 110.95,338.02 110.95,337.13 111.00,342.15 111.04,335.24 111.05,354.61 111.07,337.11 111.11,334.87 111.14,333.63 111.15,338.24 111.18,337.39 111.21,345.21 111.25,349.33 111.27,331.49 111.30,351.70 111.33,342.25 111.37,329.91 111.37,344.90 111.42,340.04 111.44,335.07 111.46,339.21 111.50,337.29 111.52,343.37 111.55,339.61 111.59,345.22 111.61,341.63 111.64,346.52 111.65,338.14 111.70,343.03 111.72,319.48 111.74,336.88 111.76,335.46 111.80,348.45 111.82,331.38 111.85,351.36 111.87,327.81 111.92,330.83 111.95,340.19 111.97,341.95 112.00,327.25 112.01,340.30 112.05,343.84 112.09,334.37 112.09,343.07 112.14,339.22 112.17,333.22 112.18,335.69 112.23,338.31 112.25,325.36 112.27,338.93 112.30,345.74 112.32,333.44 112.36,341.07 112.40,339.43 112.41,338.86 112.45,330.53 112.47,345.02 112.51,334.72 112.52,329.30 112.55,345.41 112.57,338.63 112.62,331.38 112.64,328.61 112.67,341.64 112.69,332.56 112.72,331.57 112.74,331.27 112.77,346.33 112.81,342.03 112.84,337.32 112.87,326.96 112.88,338.26 112.91,342.47 112.96,324.32 112.97,337.35 112.99,334.16 113.04,326.43 113.05,337.10 113.10,325.84 113.11,331.09 113.13,344.20 113.16,329.23 113.19,336.82 113.24,323.74 113.26,332.92 113.28,325.24 113.30,337.41 113.34,343.39 113.35,336.22 113.38,330.05 113.42,332.44 113.44,330.70 113.47,328.52 113.51,336.67 113.55,340.95 113.55,334.70 113.58,330.85 113.61,328.32 113.64,326.27 113.69,328.66 113.70,322.77 113.73,323.26 113.76,329.25 113.79,325.99 113.81,327.41 113.85,336.41 113.88,325.71 113.91,318.03 113.94,330.91 113.95,336.37 114.00,338.96 114.01,328.59 114.04,318.57 114.07,328.61 114.10,330.47 114.14,316.29 114.16,339.76 114.18,331.15 114.21,326.64 114.23,329.66 114.27,335.77 114.29,320.45 114.33,340.97 114.36,332.61 114.37,329.11 114.41,334.13 114.45,340.06 114.47,321.19 114.48,321.31 114.52,325.20 114.55,320.23 114.58,334.61 114.60,343.18 114.63,317.04 114.66,323.58 114.70,308.72 114.72,330.74 114.75,321.34 114.78,347.10 114.80,329.42 114.85,335.15 114.88,330.39 114.91,330.85 114.93,330.92 114.96,338.33 114.97,333.97 115.00,319.92 115.03,336.62 115.07,329.78 115.09,335.87 115.13,328.54 115.16,333.77 115.17,330.51 115.20,325.62 115.24,327.86 115.26,339.99 115.29,332.00 115.33,320.24 115.36,321.06 115.39,334.43 115.42,334.57 115.42,334.91 115.45,342.93 115.49,338.46 115.52,319.64 115.55,314.34 115.57,330.53 115.62,315.95 115.62,329.29 115.67,334.47 115.70,326.04 115.71,314.11 115.74,342.35 115.78,327.43 115.81,332.22 115.85,332.98 115.87,328.06 115.89,328.69 115.93,324.66 115.94,322.26 115.99,333.84 116.01,322.12 116.05,325.10 116.08,336.77 116.09,338.74 116.11,329.78 116.16,330.65 116.17,327.77 116.21,311.30 116.25,315.58 116.26,320.51 116.29,331.78 116.33,320.75 116.35,312.86 116.38,325.21 116.40,318.82 116.44,325.97 116.46,328.84 116.51,330.22 116.52,324.70 116.56,328.58 116.58,320.70 116.60,321.60 116.64,333.35 116.66,317.52 116.70,326.88 116.72,308.55 116.76,319.41 116.78,314.29 116.80,323.64 116.85,331.51 116.88,332.30 116.91,326.19 116.93,330.56 116.95,339.20 116.99,323.72 117.02,322.26 117.05,328.19 117.07,320.16 117.10,327.73 117.13,328.45 117.16,317.97 117.18,330.67 117.21,316.48 117.25,322.02 117.27,335.57 117.30,317.35 117.34,328.64 117.36,308.47 117.40,323.08 117.44,322.68 117.46,321.49 117.49,321.85 117.51,309.87 117.54,316.81 117.57,317.02 117.59,317.38 117.64,316.50 117.67,335.26 117.68,315.22 117.72,317.84 117.75,332.16 117.77,328.01 117.80,317.73 117.84,327.40 117.86,324.97 117.89,318.09 117.92,306.33 117.95,318.11 117.97,333.01 117.99,319.38 118.04,326.52 118.06,309.26 118.09,320.37 118.13,322.02 118.14,323.10 118.18,326.43 118.22,320.61 118.23,334.72 118.27,319.91 118.30,315.93 118.32,316.30 118.34,331.06 118.39,331.55 118.43,321.32 118.45,309.77 118.48,316.03 118.51,320.43 118.54,333.87 118.57,309.76 118.60,325.07 118.62,318.55 118.63,329.71 118.67,319.00 118.70,324.26 118.73,337.63 118.78,334.52 118.79,322.40 118.82,315.65 118.84,308.20 118.89,317.41 118.90,315.64 118.94,318.96 118.98,318.76 118.99,323.62 119.03,329.35 119.05,328.13 119.09,324.54 119.13,321.73 119.15,331.79 119.17,327.02 119.20,323.73 119.24,329.17 119.27,310.85 119.29,317.82 119.33,321.19 119.36,326.52 119.38,331.34 119.42,313.21 119.44,321.37 119.48,323.29 119.50,302.25 119.53,322.12 119.56,299.26 119.58,321.18 119.60,321.62 119.65,322.73 119.67,314.51 119.72,316.87 119.74,321.33 119.78,324.79 119.78,324.20 119.82,321.43 119.84,310.73 119.88,325.29 119.90,315.16 119.93,325.31 119.96,324.26 120.01,328.01 120.02,311.22 120.06,315.87 120.10,324.84 120.11,315.31 120.16,320.14 120.18,323.10 120.19,319.18 120.24,318.72 120.26,321.07 120.30,327.48 120.31,320.97 120.36,323.65 120.39,325.36 120.42,315.12 120.45,325.90 120.48,334.87 120.51,322.30 120.53,328.40 120.57,317.66 120.59,322.97 120.64,327.39 120.65,325.73 120.68,331.74 120.72,318.53 120.75,307.26 120.79,322.97 120.81,330.65 120.84,322.77 120.85,314.72 120.89,306.92 120.91,324.51 120.94,324.77 120.98,323.04 121.02,319.59 121.03,321.85 121.07,328.55 121.10,310.89 121.14,325.79 121.15,320.69 121.18,324.11 121.22,328.06 121.25,314.34 121.28,326.23 121.31,322.67 121.35,312.47 121.37,328.27 121.39,320.38 121.42,319.68 121.46,324.15 121.50,327.48 121.51,326.04 121.55,318.15 121.58,313.14 121.61,316.73 121.64,325.84 121.65,309.70 121.70,315.73 121.72,321.93 121.76,340.76 121.78,316.98 121.83,321.92 121.84,314.45 121.87,320.93 121.92,330.62 121.93,330.86 121.98,343.52 122.00,308.59 122.02,319.58 122.06,326.17 122.08,328.96 122.13,319.42 122.16,310.10 122.19,318.20 122.21,312.89 122.25,314.37 122.28,321.71 122.31,324.34 122.34,318.74 122.36,315.25 122.39,326.22 122.40,323.77 122.46,315.27 122.47,323.87 122.50,305.05 122.53,322.81 122.56,319.08 122.60,323.69 122.63,327.24 122.65,322.72 122.69,320.98 122.73,336.22 122.74,311.89 122.79,325.93 122.82,318.50 122.83,316.94 122.87,320.61 122.90,320.67 122.94,330.43 122.96,330.63 122.99,321.66 123.02,320.49 123.04,329.67 123.07,316.12 123.13,314.43 123.13,325.36 123.18,328.15 123.21,332.43 123.23,325.34 123.25,321.79 123.31,332.72 123.32,323.37 123.36,326.99 123.38,315.85 123.43,330.55 123.46,315.70 123.47,337.89 123.51,301.86 123.55,322.55 123.56,321.91 123.59,320.29 123.62,314.02 123.67,328.71 123.69,318.10 123.72,319.08 123.75,304.43 123.77,307.61 123.82,315.08 123.86,321.88 123.88,330.72 123.89,335.87 123.92,329.56 123.98,330.49 124.00,328.50 124.02,320.57 124.05,315.29 124.10,320.09 124.11,330.49 124.14,320.55 124.16,342.92 124.22,322.11 124.23,326.65 124.28,328.03 124.30,312.09 124.34,323.20 124.36,334.62 124.39,335.94 124.43,325.66 124.46,315.25 124.48,324.51 124.51,332.04 124.53,322.81 124.59,330.57 124.61,329.87 124.63,317.10 124.67,333.09 124.70,316.36 124.72,313.42 124.75,330.95 124.80,326.56 124.81,327.21 124.84,332.07 124.88,322.57 124.92,322.31 124.93,319.21 124.99,314.79 125.02,326.22 125.02,310.28 125.08,331.78 125.10,325.76 125.12,323.79 125.17,328.61 125.19,332.13 125.21,328.58 125.24,324.93 125.30,329.20 125.30,325.39 125.34,325.85 125.37,319.02 125.40,312.47 125.42,329.03 125.46,337.27 125.51,331.17 125.52,321.24 125.55,329.43 125.60,334.26 125.61,327.49 125.66,306.28 125.68,326.65 125.71,336.12 125.74,324.79 125.78,329.49 125.80,329.25 125.85,322.65 125.88,335.14 125.89,325.94 125.93,320.80 125.95,322.92 126.00,321.44 126.04,321.19 126.05,328.95 126.08,339.10 126.11,327.21 126.14,323.78 126.18,320.62 126.20,326.76 126.24,322.83 126.28,319.13 126.29,313.46 126.32,334.64 126.37,324.81 126.41,322.91 126.44,340.33 126.44,324.34 126.50,330.80 126.52,335.29 126.55,328.96 126.57,328.57 126.62,326.10 126.66,323.65 126.69,326.83 126.70,327.05 126.73,329.10 126.76,327.35 126.79,327.19 126.82,319.07 126.85,323.66 126.89,342.66 126.91,330.43 126.95,345.91 126.99,326.34 127.00,339.33 127.04,332.61 127.09,331.31 127.13,330.77 127.15,326.60 127.18,337.53 127.21,337.12 127.23,331.74 127.27,322.04 127.30,333.11 127.34,321.48 127.36,342.82 127.40,333.59 127.41,330.17 127.46,325.10 127.48,327.00 127.53,325.00 127.55,329.91 127.57,331.37 127.63,329.69 127.64,318.17 127.67,319.74 127.71,341.37 127.75,332.02 127.77,327.28 127.79,328.30 127.82,331.96 127.86,333.37 127.90,325.82 127.93,342.46 127.97,334.88 127.97,324.02 128.02,338.88 128.04,329.97 128.08,322.25 128.11,338.65 128.14,350.22 128.18,330.07 128.21,340.17 128.25,334.76 128.28,343.06 128.32,337.55 128.32,340.26 128.36,329.50 128.39,329.01 128.42,337.97 128.47,333.96 128.48,336.96 128.53,328.90 128.54,338.37 128.58,329.21 128.60,345.12 128.64,326.71 128.67,338.42 128.70,337.32 128.76,339.49 128.76,328.15 128.80,337.31 128.84,332.63 128.88,339.52 128.89,326.08 128.92,323.43 128.96,333.29 129.00,337.92 129.04,334.11 129.07,335.90 129.09,336.50 129.13,344.64 129.14,336.57 129.18,325.57 129.23,338.99 129.26,333.11 129.27,338.32 129.32,332.32 129.35,342.16 129.39,336.70 129.41,347.46 129.43,329.38 129.48,326.47 129.50,334.20 129.54,344.29 129.57,332.22 129.61,343.68 129.63,333.89 129.65,334.57 129.71,340.15 129.72,342.16 129.77,347.27 129.78,335.51 129.82,328.02 129.85,345.05 129.90,338.35 129.93,334.97 129.96,336.76 129.98,336.90 130.03,345.41 130.04,335.58 130.08,336.04 130.11,345.86 130.14,350.47 130.17,335.72 130.20,332.75 130.24,333.16 130.27,340.52 130.29,347.71 130.33,341.47 130.36,343.77 130.39,337.05 130.44,328.17 130.46,335.50 130.50,343.73 130.54,339.56 130.55,336.79 130.59,345.07 130.62,348.19 130.67,344.99 130.69,339.40 130.72,354.68 130.75,349.68 130.78,354.05 130.80,352.96 130.86,335.38 130.88,335.71 130.92,339.73 130.94,341.28 130.98,343.46 131.02,354.89 131.04,339.76 131.09,350.57 131.11,345.54 131.14,344.80 131.16,356.24 131.19,340.93 131.25,353.09 131.27,334.51 131.31,355.45 131.34,345.64 131.35,353.98 131.38,346.41 131.43,342.73 131.46,355.59 131.48,345.07 131.53,344.44 131.57,343.18 131.60,358.84 131.61,349.65 131.65,345.10 131.69,356.00 131.72,347.17 131.76,353.90 131.79,350.25 131.81,352.13 131.85,346.11 131.89,354.95 131.93,351.58 131.96,346.97 131.98,339.53 132.00,345.12 132.04,356.60 132.08,345.13 132.12,346.17 132.12,350.64 132.16,347.28 132.19,362.54 132.25,343.94 132.27,345.09 132.30,344.36 132.35,356.18 132.36,361.49 132.41,355.29 132.44,351.76 132.45,349.78 132.51,339.98 132.53,361.40 132.56,351.51 132.58,353.14 132.64,349.88 132.64,355.95 132.69,344.86 132.72,354.39 132.76,353.06 132.79,351.47 132.81,349.61 132.87,340.93 132.87,355.40 132.93,359.45 132.94,354.79 132.97,346.68 133.03,367.80 133.03,359.09 133.07,349.50 133.10,358.52 133.14,347.94 133.17,356.59 133.20,345.27 133.24,356.20 133.27,342.76 133.31,352.67 133.34,355.79 133.39,362.14 133.41,358.40 133.45,361.85 133.48,363.22 133.51,357.16 133.54,353.34 133.59,362.47 133.59,348.82 133.63,357.36 133.68,345.06 133.69,359.84 133.74,353.21 133.78,350.77 133.79,351.64 133.84,361.06 133.88,356.71 133.90,360.51 133.92,348.64 133.97,364.79 134.00,354.19 134.04,349.85 134.07,357.21 134.11,370.19 134.13,360.18 134.15,364.18 134.20,352.95 134.23,345.61 134.26,346.08 134.30,361.23 134.32,351.08 134.36,348.34 134.40,353.25 134.43,349.94 134.47,362.41 134.49,367.48 134.52,361.64 134.55,369.59 134.61,356.11 134.61,349.13 134.64,365.36 134.70,361.83 134.73,361.45 134.75,359.67 134.78,366.56 134.83,356.70 134.84,353.49 134.88,355.61 134.92,356.39 134.95,356.92 134.97,359.99 135.03,342.70 135.05,370.27 135.08,354.10 135.12,372.26 135.17,362.97 135.19,353.58 135.23,357.50 135.25,353.19 135.28,354.29 135.34,363.58 135.35,336.57 135.38,367.34 135.41,353.45 135.46,357.23 135.48,364.93 135.53,364.18 135.56,361.94 135.58,342.95 135.62,354.69 135.67,367.48 135.67,359.78 135.71,362.58 135.75,364.36 135.80,360.17 135.82,347.74 135.86,362.13 135.87,364.64 135.92,357.97 135.96,370.34 135.98,359.82 136.03,346.73 136.06,368.80 136.09,356.35 136.11,355.51 136.14,368.46 136.20,357.44 136.21,339.95 136.25,360.21 136.29,361.47 136.33,360.42 136.36,360.71 136.37,356.80 136.42,350.84 136.44,363.88 136.50,372.43 136.52,362.20 136.54,354.44 136.59,359.97 136.64,362.55 136.67,357.92 136.68,360.84 136.73,365.94 136.76,351.69 136.77,351.61 136.82,360.00 136.87,358.96 136.89,370.51 136.92,373.64 136.94,373.42 136.99,356.90 137.02,362.35 137.06,357.88 137.10,351.04 137.12,351.18 137.17,361.45 137.20,352.88 137.22,368.24 137.26,355.27 137.29,370.57 137.32,361.81 137.35,354.81 137.41,357.20 137.42,356.92 137.46,353.18 137.51,355.38 137.52,360.24 137.58,345.84 137.60,357.26 137.64,368.38 137.68,358.50 137.69,345.11 137.74,353.38 137.76,347.16 137.79,359.37 137.85,354.99 137.87,358.06 137.92,338.63 137.92,341.77 137.98,353.43 138.01,351.75 138.05,358.88 138.07,360.50 138.10,337.93 138.14,357.64 138.17,354.23 138.22,347.91 138.26,347.75 138.28,363.13 138.31,351.21 138.35,365.99 138.39,340.72 138.41,344.49 138.45,363.19 138.50,351.42 138.51,351.48 138.55,345.44 138.57,357.48 138.63,351.52 138.65,351.68 138.67,361.52 138.71,339.61 138.77,350.35 138.77,344.98 138.82,351.71 138.87,358.29 138.90,350.60 138.92,338.30 138.96,350.06 139.00,356.36 139.01,350.32 139.07,349.51 139.09,356.49 139.14,350.56 139.16,348.63 139.21,344.33 139.22,346.90 139.26,345.59 139.31,350.97 139.32,332.80 139.36,353.01 139.42,357.77 139.44,349.57 139.48,350.17 139.52,349.89 139.55,355.46 139.56,343.53 139.62,337.06 139.65,358.94 139.66,343.51 139.73,346.25 139.74,350.26 139.78,345.44 139.80,337.29 139.86,343.30 139.89,329.88 139.91,339.83 139.95,347.61 139.99,345.27 140.00,345.20 140.06,337.63 140.09,335.59 140.11,345.33 140.14,343.66 140.20,346.26 140.22,330.81 140.27,351.39 140.28,348.50 140.33,348.77 140.35,341.64 140.41,346.68 140.45,331.91 140.47,336.96 140.49,330.99 140.54,347.36 140.58,342.24 140.61,333.32 140.63,335.85 140.66,340.86 140.72,340.72 140.74,334.58 140.76,336.51 140.80,335.34 140.84,347.74 140.90,344.08 140.90,342.32 140.97,327.35 141.00,338.02 141.03,335.76 141.07,328.51 141.09,346.89 141.13,349.34 141.17,335.33 141.21,329.21 141.22,339.27 141.26,338.55 141.32,334.34 141.33,350.20 141.36,325.34 141.42,338.69 141.43,334.15 141.47,339.05 141.50,335.28 141.53,342.46 141.59,314.72 141.62,333.65 141.65,338.88 141.69,338.38 141.72,339.28 141.75,351.95 141.77,340.18 141.84,326.56 141.84,339.30 141.90,352.15 141.94,338.86 141.95,333.90 142.00,327.23 142.02,340.23 142.07,329.22 142.12,341.42 142.15,345.67 142.19,320.52 142.20,334.21 142.26,342.31 142.26,344.79 142.30,337.56 142.35,322.34 142.39,331.99 142.42,343.09 142.44,342.06 142.48,337.02 142.54,337.51 142.56,341.83 142.60,344.33 142.64,327.13 142.65,325.54 142.71,328.91 142.73,331.89 142.76,327.80 142.80,330.27 142.84,330.73 142.88,333.95 142.91,328.80 142.94,331.49 142.97,344.13 143.01,325.49 143.05,335.70 143.08,323.44 143.13,334.42 143.16,330.42 143.20,330.08 143.23,320.68 143.28,327.58 143.28,330.22 143.32,329.48 143.35,334.40 143.40,330.91 143.45,329.50 143.46,327.96 143.50,329.07 143.55,330.80 143.57,323.45 143.61,324.72 143.66,332.95 143.68,328.06 143.71,323.34 143.74,333.63 143.77,341.42 143.83,326.91 143.86,330.47 143.90,325.51 143.92,320.38 143.97,323.80 144.01,321.20 144.02,328.83 144.09,335.33 144.11,331.25 144.16,335.10 144.17,328.32 144.21,315.83 144.27,326.26 144.28,308.13 144.33,317.66 144.34,323.80 144.38,320.10 144.44,329.35 144.47,326.35 144.50,331.56 144.54,334.10 144.58,321.47 144.60,326.92 144.64,319.03 144.69,321.31 144.72,332.63 144.74,330.76 144.78,332.86 144.82,325.24 144.86,328.02 144.89,305.90 144.92,331.33 144.97,337.63 145.02,323.71 145.04,316.54 145.08,327.05 145.11,312.67 145.16,317.27 145.19,329.25 145.22,326.76 145.26,322.19 145.28,319.89 145.31,331.53 145.37,320.50 145.39,314.89 145.41,317.60 145.46,335.92 145.52,319.06 145.53,326.62 145.58,335.37 145.62,320.96 145.66,330.75 145.67,322.10 145.73,307.63 145.76,317.03 145.78,327.49 145.82,329.33 145.87,322.87 145.90,330.11 145.93,324.71 145.98,323.88 146.01,328.79 146.04,324.21 146.08,322.11 146.12,316.81 146.16,327.87 146.17,315.70 146.23,317.86 146.27,334.42 146.29,323.95 146.34,321.66 146.38,315.91 146.41,324.95 146.42,313.13 146.46,318.66 146.50,318.12 146.56,317.48 146.57,333.45 146.63,321.16 146.66,319.28 146.70,329.37 146.72,309.24 146.77,320.55 146.80,324.66 146.84,307.82 146.88,318.68 146.91,308.85 146.94,321.45 146.98,324.66 147.03,310.67 147.04,315.68 147.10,317.60 147.14,327.57 147.18,302.58 147.19,312.68 147.23,314.25 147.27,320.60 147.31,326.83 147.34,321.88 147.40,316.46 147.43,321.71 147.46,335.25 147.48,328.00 147.51,308.09 147.57,321.71 147.59,327.46 147.62,330.78 147.68,315.42 147.71,327.83 147.74,321.98 147.78,319.29 147.83,315.26 147.87,319.99 147.90,327.94 147.93,314.67 147.95,318.43 148.01,325.08 148.02,325.50 148.07,312.83 148.10,329.26 148.14,310.33 148.19,326.54 148.21,320.06 148.25,323.56 148.28,320.53 148.33,315.27 148.36,315.80 148.42,317.52 148.45,313.46 148.49,336.52 148.52,322.63 148.53,329.16 148.60,314.65 148.62,316.19 148.67,324.76 148.70,311.91 148.73,321.46 148.77,327.44 148.82,326.21 148.83,315.91 148.90,316.21 148.93,315.74 148.97,319.48 148.98,313.55 149.04,317.88 149.07,324.69 149.10,325.57 149.15,332.98 149.18,323.17 149.21,333.40 149.25,321.57 149.28,312.10 149.31,323.32 149.36,331.43 149.41,319.07 149.42,319.44 149.48,314.01 149.49,306.24 149.54,308.95 149.58,325.31 149.63,321.26 149.64,318.75 149.70,311.81 149.73,323.80 149.76,309.33 149.80,319.57 149.86,322.83 149.87,319.89 149.92,319.69 149.95,307.27 150.01,326.82 150.03,324.38 150.06,318.33 150.12,319.99 150.14,310.42 150.16,318.52 150.23,319.38 150.26,319.58 150.29,315.35 150.32,315.52 150.36,305.53 150.40,320.57 150.44,316.88 150.46,314.25 150.50,317.83 150.54,318.53 150.60,314.15 150.63,309.93 150.65,315.17 150.68,320.63 150.73,312.46 150.76,337.64 150.82,312.87 150.86,315.53 150.89,320.86 150.93,314.40 150.95,322.22 150.99,323.38 151.02,309.89 151.06,319.10 151.11,306.40 151.15,313.56 151.19,328.01 151.22,304.67 151.26,306.34 151.28,313.15 151.35,316.72 151.37,321.95 151.39,314.51 151.45,326.42 151.49,312.55 151.52,321.14 151.55,314.32 151.60,317.51 151.62,311.06 151.69,326.57 151.71,316.75 151.75,310.96 151.79,317.80 151.83,313.90 151.86,317.78 151.89,316.68 151.92,315.38 151.98,311.53 151.99,318.60 152.04,321.44 152.08,317.21 152.13,303.86 152.17,310.81 152.21,318.19 152.22,311.18 152.26,318.41 152.29,321.68 152.36,315.78 152.38,322.68 152.42,327.62 152.47,314.15 152.49,310.24 152.54,320.06 152.58,315.85 152.60,317.55 152.65,310.51 152.69,331.36 152.72,307.41 152.77,309.54 152.81,318.38 152.84,329.61 152.89,313.66 152.91,322.75 152.96,308.32 152.99,320.23 153.04,305.94 153.06,312.37 153.11,303.63 153.16,311.50 153.17,319.79 153.20,305.03 153.25,318.56 153.30,313.46 153.33,290.89 153.36,319.99 153.41,320.40 153.45,324.10 153.49,308.08 153.54,310.10 153.56,312.77 153.61,311.26 153.63,317.60 153.67,325.54 153.71,318.96 153.74,306.32 153.80,309.92 153.84,314.00 153.88,316.92 153.89,309.05 153.95,308.08 153.99,315.95 154.03,312.71 154.06,315.37 154.12,307.94 154.15,311.16 154.18,315.46 154.22,311.66 154.26,322.11 154.27,314.01 154.34,317.53 154.37,321.32 154.40,317.75 154.42,320.35 154.50,317.45 154.52,320.76 154.55,313.44 154.58,310.39 154.64,319.43 154.69,323.31 154.73,330.47 154.76,318.28 154.78,310.96 154.83,316.72 154.87,306.38 154.90,323.21 154.95,309.59 155.00,322.24 155.02,307.06 155.06,305.84 155.08,314.73 155.13,305.36 155.17,303.52 155.21,305.70 155.24,330.44 155.29,323.77 155.31,299.18 155.38,322.40 155.40,320.82 155.45,324.70 155.49,314.52 155.54,307.00 155.57,316.84 155.58,311.55 155.65,305.69 155.68,313.21 155.70,311.71 155.76,312.01 155.81,305.83 155.81,316.63 155.86,316.34 155.92,315.68 155.97,309.35 156.00,309.87 156.03,311.51 156.06,312.99 156.10,322.27 156.13,321.84 156.19,302.20 156.21,317.42 156.26,325.51 156.30,313.81 156.32,315.47 156.38,321.62 156.42,315.84 156.45,313.14 156.47,311.39 156.54,308.36 156.55,315.12 156.63,308.09 156.65,305.01 156.70,311.15 156.71,316.13 156.77,315.62 156.80,322.10 156.83,307.57 156.90,320.73 156.94,326.24 156.97,302.24 157.01,319.04 157.03,321.61 157.07,317.87 157.11,318.26 157.17,308.37 157.20,304.94 157.23,320.74 157.29,312.33 157.32,315.78 157.35,310.06 157.39,323.20 157.43,318.33 157.48,321.27 157.52,314.17 157.54,317.96 157.58,309.55 157.62,312.70 157.68,326.02 157.72,305.34 157.77,315.88 157.78,311.32 157.84,319.39 157.86,317.76 157.90,320.63 157.96,322.84 157.98,318.88 158.01,305.50 158.06,310.80 158.11,321.97 158.15,321.39 158.19,317.69 158.22,309.65 158.27,318.02 158.31,320.56 158.35,310.66 158.38,313.30 158.41,313.34 158.47,326.24 158.49,324.57 158.52,324.48 158.58,296.69 158.62,304.65 158.65,328.92 158.71,326.28 158.75,317.55 158.78,327.16 158.83,325.16 158.86,328.07 158.90,322.48 158.95,320.85 158.97,316.40 159.03,318.43 159.05,314.58 159.08,324.82 159.13,329.26 159.16,317.07 159.19,317.15 159.24,316.74 159.30,325.82 159.34,311.33 159.39,316.82 159.40,309.32 159.47,333.21 159.50,320.89 159.53,320.39 159.56,329.12 159.60,320.32 159.64,308.80 159.71,325.07 159.71,324.11 159.78,314.64 159.83,318.66 159.85,310.28 159.89,306.76 159.91,309.21 159.95,323.41 159.99,306.08 160.05,325.78 160.08,315.03 160.12,316.23 160.18,319.96 160.21,319.26 160.26,325.83 160.27,318.64 160.33,306.97 160.38,319.73 160.40,307.84 160.46,311.77 160.50,325.42 160.52,334.90 160.57,327.87 160.59,306.02 160.64,314.64 160.71,317.31 160.74,324.19 160.77,311.44 160.83,322.08 160.84,322.64 160.91,311.34 160.92,318.45 160.99,315.70 161.00,322.45 161.06,321.87 161.10,317.97 161.15,321.36 161.17,322.43 161.20,326.16 161.24,321.81 161.30,305.66 161.33,314.91 161.37,323.76 161.44,310.12 161.46,311.88 161.49,317.05 161.54,325.32 161.59,311.90 161.63,318.36 161.65,320.09 161.71,306.47 161.75,316.99 161.78,323.85 161.84,324.26 161.88,323.23 161.92,325.61 161.95,320.86 161.98,334.86 162.04,317.24 162.08,328.19 162.12,328.89 162.14,318.90 162.20,325.04 162.24,323.62 162.25,319.64 162.33,308.96 162.35,317.95 162.38,317.58 162.44,318.58 162.46,331.71 162.51,323.13 162.54,336.86 162.61,319.51 162.65,320.72 162.66,320.93 162.70,319.72 162.78,322.57 162.82,319.07 162.84,326.34 162.89,326.10 162.94,332.85 162.95,310.90 163.00,320.00 163.06,328.22 163.08,334.83 163.12,318.14 163.17,318.24 163.20,316.08 163.27,323.65 163.30,317.58 163.35,318.88 163.38,314.77 163.42,323.35 163.47,332.57 163.48,328.68 163.54,326.23 163.59,320.07 163.63,318.14 163.68,330.48 163.70,337.53 163.76,316.43 163.77,336.48 163.83,329.41 163.88,331.56 163.92,329.22 163.95,327.72 163.97,328.49 164.03,336.40 164.06,324.31 164.10,314.66 164.16,334.21 164.19,331.45 164.25,323.47 164.28,329.44 164.32,328.52 164.34,320.25 164.43,325.59 164.45,333.76 164.48,328.70 164.55,331.11 164.58,331.63 164.61,335.35 164.65,333.60 164.71,330.54 164.75,318.36 164.78,333.20 164.83,320.09 164.85,323.47 164.91,333.27 164.93,328.59 164.97,335.04 165.03,338.23 165.06,331.86 165.11,324.28 165.17,322.28 165.18,321.53 165.23,324.79 165.30,349.76 165.30,326.88 165.37,330.01 165.41,326.00 165.45,330.14 165.47,329.47 165.54,326.35 165.58,331.16 165.62,331.63 165.64,340.88 165.68,331.57 165.74,343.42 165.76,330.39 165.83,335.53 165.86,328.71 165.89,334.66 165.94,331.02 165.99,328.93 166.02,324.56 166.05,320.33 166.09,332.27 166.15,321.76 166.21,326.56 166.24,326.43 166.30,334.48 166.31,321.24 166.37,332.07 166.40,324.89 166.45,326.56 166.49,321.11 166.52,334.54 166.59,325.24 166.62,323.52 166.67,341.27 166.72,328.97 166.73,324.85 166.77,343.63 166.83,338.19 166.88,333.38 166.90,335.50 166.97,338.31 167.02,337.50 167.04,329.83 167.10,321.44 167.14,345.31 167.16,321.20 167.20,340.41 167.26,330.20 167.28,337.86 167.32,344.16 167.37,335.81 167.42,344.20 167.48,338.79 167.51,321.73 167.55,334.81 167.61,326.65 167.64,328.78 167.67,337.47 167.73,328.43 167.77,341.03 167.82,345.82 167.83,328.24 167.88,334.84 167.93,322.35 167.97,336.64 168.02,332.78 168.06,339.25 168.09,332.33 168.13,336.02 168.18,332.54 168.21,342.67 168.29,330.80 168.29,341.96 168.36,327.28 168.38,333.99 168.45,344.55 168.50,350.17 168.54,346.04 168.57,355.64 168.60,332.98 168.64,337.17 168.71,341.88 168.75,339.04 168.77,344.93 168.84,330.03 168.86,343.82 168.93,348.00 168.95,337.95 168.99,343.46 169.05,342.48 169.09,346.39 169.13,346.82 169.15,339.10 169.23,344.16 169.26,345.44 169.28,326.26 169.33,338.57 169.36,350.56 169.43,345.80 169.46,341.74 169.52,342.42 169.56,338.57 169.60,343.40 169.64,346.87 169.68,341.63 169.74,344.96 169.77,345.91 169.80,348.57 169.84,351.40 169.91,350.56 169.94,352.86 169.97,336.84 170.01,346.25 170.07,332.98 170.11,346.60 170.15,348.64 170.20,345.19 170.23,330.23 170.30,355.18 170.32,351.18 170.38,348.82 170.40,354.08 170.44,354.44 170.49,340.88 170.55,328.49 170.60,354.22 170.64,341.72 170.69,345.68 170.74,338.56 170.77,347.46 170.81,338.36 170.87,339.78 170.88,347.67 170.92,346.97 170.97,341.21 171.01,344.19 171.09,351.28 171.10,348.48 171.15,356.71 171.18,347.39 171.24,338.38 171.31,349.44 171.35,347.17 171.35,350.96 171.40,356.03 171.47,363.56 171.50,345.13 171.54,342.20 171.61,344.14 171.62,345.05 171.69,339.03 171.74,354.40 171.75,333.57 171.82,344.54 171.87,348.84 171.92,350.19 171.96,347.17 171.97,342.79 172.02,345.03 172.07,352.96 172.11,349.35 172.17,355.86 172.20,339.72 172.23,363.19 172.27,356.48 172.32,355.23 172.39,352.67 172.40,348.62 172.48,342.50 172.51,333.58 172.54,341.97 172.58,353.74 172.65,355.09 172.67,354.93 172.75,350.87 172.78,354.43 172.80,347.16 172.88,354.75 172.92,347.24 172.96,348.72 172.98,348.57 173.04,346.01 173.09,358.39 173.15,353.66 173.17,348.81 173.21,357.87 173.26,348.50 173.30,345.04 173.36,353.74 173.40,353.66 173.44,348.27 173.48,349.52 173.53,354.83 173.58,331.56 173.64,345.95 173.68,346.78 173.72,345.32 173.73,355.84 173.81,353.65 173.85,347.27 173.88,344.08 173.94,347.76 173.97,357.83 174.01,363.96 174.08,352.68 174.09,353.28 174.16,356.87 174.17,360.73 174.25,357.25 174.27,347.26 174.33,343.66 174.38,353.18 174.41,361.66 174.47,351.15 174.49,348.63 174.56,351.94 174.58,347.31 174.63,348.46 174.68,357.28 174.74,331.17 174.80,345.00 174.80,353.11 174.85,350.89 174.92,343.82 174.94,346.50 175.00,359.47 175.03,352.16 175.09,363.54 175.12,349.84 175.17,349.13 175.23,342.32 175.27,354.96 175.30,350.70 175.34,352.36 175.40,343.91 175.47,347.29 175.49,347.27 175.56,345.75 175.59,337.74 175.65,354.43 175.68,348.55 175.72,343.43 175.75,337.64 175.81,341.24 175.83,349.51 175.92,354.08 175.94,349.89 175.98,336.13 176.06,346.31 176.06,349.59 176.11,353.25 176.18,342.09 176.23,349.95 176.27,336.21 176.32,346.06 176.36,339.38 176.42,350.97 176.46,351.63 176.49,345.06 176.53,339.87 176.58,338.35 176.64,354.45 176.68,351.10 176.74,351.61 176.77,355.57 176.79,332.06 176.84,336.02 176.91,335.53 176.93,343.61 176.97,353.51 177.05,347.00 177.06,342.87 177.12,349.34 177.18,329.62 177.24,350.04 177.25,352.14 177.30,347.73 177.36,334.19 177.40,347.73 177.45,344.15 177.50,348.37 177.56,336.23 177.57,345.63 177.63,326.68 177.67,346.26 177.74,357.26 177.77,336.41 177.80,347.24 177.88,328.42 177.92,348.45 177.95,342.71 178.01,338.95 178.05,334.27 178.08,336.46 178.12,338.93 178.17,335.31 178.24,330.14 178.26,340.64 178.31,336.32 178.35,347.80 178.42,350.94 178.45,346.74 178.48,345.36 178.57,334.99 178.59,339.94 178.63,344.44 178.69,337.10 178.72,340.17 178.79,336.91 178.81,338.10 178.85,341.13 178.91,333.46 178.97,333.46 178.99,331.96 179.05,335.62 179.10,335.65 179.15,335.91 179.19,342.79 179.25,343.16 179.31,333.56 179.32,335.86 179.36,336.95 179.43,340.44 179.46,334.89 179.49,340.32 179.54,329.80 179.61,333.74 179.65,334.67 179.71,348.31 179.77,338.92 179.77,344.23 179.82,331.18 179.88,338.06 179.95,339.41 180.00,326.74 180.02,334.74 180.06,334.90 180.12,333.09 180.19,335.58 180.22,331.79 180.27,332.25 180.29,337.23 180.33,342.11 180.42,330.99 180.45,327.86 180.51,340.96 180.52,325.67 180.59,326.32 180.63,334.14 180.70,322.53 180.71,329.75 180.80,332.66 180.83,324.74 180.88,323.33 180.90,324.98 180.96,327.67 181.03,336.00 181.07,330.47 181.10,328.36 181.14,332.85 181.19,319.89 181.23,329.81 181.28,341.62 181.35,333.05 181.38,338.98 181.45,333.37 181.49,329.90 181.52,328.40 181.58,346.13 181.61,330.05 181.68,328.07 181.72,333.10 181.79,332.23 181.82,334.77 181.84,338.66 181.90,330.99 181.96,327.30 182.00,332.98 182.05,310.95 182.10,326.51 182.12,330.96 182.18,335.52 182.22,334.12 182.26,337.28 182.33,317.27 182.37,324.46 182.42,336.65 182.45,337.71 182.50,320.32 182.56,332.16 182.63,333.75 182.64,318.69 182.69,319.73 182.75,332.88 182.78,311.75 182.83,314.59 182.89,316.37 182.93,315.74 182.98,315.97 183.06,327.36 183.11,330.79 183.16,324.73 183.18,329.97 183.23,324.09 183.30,328.75 183.32,317.59 183.40,334.27 183.41,328.04 183.45,334.47 183.51,319.98 183.55,318.87 183.60,327.58 183.67,326.94 183.71,325.13 183.75,322.16 183.81,333.48 183.85,316.46 183.92,321.83 183.97,327.70 183.99,303.58 184.06,318.18 184.10,325.73 184.13,324.17 184.20,324.04 184.26,304.72 184.29,318.57 184.33,329.43 184.39,316.08 184.43,318.27 184.48,308.84 184.53,323.37 184.59,331.53 184.63,318.76 184.66,314.98 184.72,329.57 184.75,324.26 184.81,335.77 184.87,315.94 184.93,317.61 184.96,312.51 185.01,318.03 185.05,321.98 185.11,317.36 185.15,306.49 185.20,315.18 185.25,318.81 185.29,311.00 185.34,318.86 185.38,321.27 185.45,318.86 185.52,326.38 185.54,322.73 185.57,321.81 185.63,314.70 185.67,322.68 185.76,315.88 185.79,310.75 185.86,313.05 185.87,304.02 185.92,324.59 185.99,314.81 186.02,306.72 186.09,326.79 186.14,312.72 186.16,323.46 186.23,328.32 186.29,329.72 186.32,312.43 186.39,331.02 186.44,313.33 186.47,303.11 186.52,311.49 186.59,325.54 186.60,310.29 186.67,320.56 186.73,309.35 186.78,309.36 186.83,309.86 186.85,314.10 186.93,308.22 186.95,326.71 187.01,315.07 187.05,312.45 187.11,322.43 187.18,318.04 187.20,323.70 187.23,324.07 187.31,316.48 187.34,312.60 187.40,308.18 187.45,311.77 187.52,312.53 187.55,317.49 187.62,300.18 187.66,318.14 187.71,312.94 187.74,316.33 187.81,321.37 187.86,314.07 187.92,305.92 187.95,316.88 188.00,312.45 188.04,308.85 188.09,318.33 188.14,303.33 188.17,309.62 188.26,310.82 188.28,314.68 188.34,308.15 188.38,322.06 188.43,325.18 188.49,307.65 188.54,313.54 188.57,303.65 188.64,309.64 188.71,307.97 188.73,313.09 188.79,300.07 188.83,316.34 188.90,313.42 188.92,315.17 188.99,318.07 189.06,307.99 189.09,315.26 189.13,301.98 189.20,310.31 189.25,311.72 189.29,315.35 189.35,316.80 189.40,304.74 189.41,318.13 189.47,301.87 189.52,323.22 189.59,306.63 189.64,314.46 189.71,328.59 189.71,297.74 189.78,304.53 189.85,313.53 189.89,310.47 189.95,314.03 189.97,316.98 190.06,311.68 190.08,322.78 190.16,312.31 190.19,301.33 190.23,317.35 190.28,316.86 190.35,314.42 190.39,314.02 190.45,314.72 190.49,304.81 190.55,312.93 190.58,308.50 190.65,316.13 190.69,305.25 190.72,301.88 190.78,309.84 190.84,305.22 190.92,317.13 190.97,316.54 191.02,303.00 191.02,307.47 191.09,312.28 191.16,307.98 191.21,312.23 191.25,308.90 191.30,300.06 191.37,303.71 191.39,301.18 191.48,313.45 191.49,314.35 191.54,319.30 191.63,310.02 191.68,313.43 191.70,296.98 191.78,300.85 191.81,313.20 191.86,309.36 191.90,313.31 191.98,302.95 192.04,299.36 192.07,298.05 192.10,314.41 192.19,315.21 192.20,303.13 192.28,320.80 192.30,312.72 192.37,312.68 192.44,308.98 192.48,300.65 192.54,314.54 192.57,300.09 192.61,305.98 192.69,303.82 192.72,306.50 192.78,306.01 192.82,295.62 192.90,302.68 192.93,305.28 192.97,305.86 193.02,299.15 193.11,305.32 193.12,307.31 193.20,298.86 193.24,307.20 193.27,299.91 193.36,314.01 193.38,304.39 193.46,310.70 193.50,314.15 193.53,309.71 193.58,303.95 193.63,309.67 193.71,296.39 193.76,304.52 193.79,304.77 193.86,306.69 193.91,305.81 193.99,309.42 194.04,303.03 194.05,314.02 194.14,309.67 194.19,300.32 194.23,297.98 194.27,305.86 194.33,310.64 194.41,307.66 194.46,299.19 194.46,311.52 194.55,308.32 194.58,291.31 194.64,307.00 194.69,305.51 194.77,305.87 194.78,313.77 194.87,304.45 194.88,307.06 194.96,314.52 194.99,305.30 195.05,307.03 195.13,303.95 195.17,297.53 195.20,301.83 195.26,307.09 195.32,301.71 195.35,311.39 195.43,306.44 195.48,302.92 195.55,304.31 195.56,315.19 195.61,300.81 195.71,317.41 195.74,304.52 195.79,303.39 195.86,303.32 195.90,297.41 195.93,314.41 196.00,306.98 196.07,306.88 196.10,296.31 196.15,299.85 196.23,300.15 196.28,306.54 196.32,312.51 196.39,296.37 196.40,299.23 196.50,300.70 196.52,313.50 196.59,308.91 196.63,302.48 196.68,307.39 196.74,309.33 196.79,309.75 196.87,293.34 196.89,307.42 196.94,307.83 196.98,300.37 197.03,304.42 197.13,293.32 197.19,305.90 197.23,297.50 197.24,312.16 197.32,301.49 197.39,318.74 197.41,311.40 197.49,302.88 197.51,311.96 197.59,303.93 197.63,300.40 197.70,314.01 197.75,302.02 197.82,318.83 197.87,305.66 197.89,304.15 197.98,302.98 198.00,290.08 198.06,302.71 198.14,304.24 198.18,320.74 198.24,296.45 198.26,299.15 198.33,305.62 198.41,300.72 198.44,286.68 198.51,307.07 198.55,288.56 198.58,298.16 198.68,299.48 198.71,305.87 198.79,293.70 198.83,331.45 198.87,303.49 198.92,310.15 198.97,314.35 199.05,297.93 199.11,309.17 199.12,297.63 199.19,316.03 199.27,298.74 199.31,305.39 199.35,305.90 199.41,299.17 199.46,307.20 199.54,293.39 199.55,307.12 199.60,298.69 199.67,309.49 199.75,307.81 199.79,306.14 199.82,306.33 199.92,299.19 199.96,302.73 199.99,300.57 200.04,311.25 200.12,300.52 200.14,288.13 200.22,297.52 200.28,301.81 200.32,307.84 200.38,304.50 200.41,294.91 200.50,306.02 200.52,311.42 200.60,302.45 200.66,304.76 200.71,300.20 200.75,300.35 200.80,297.31 200.86,301.66 200.92,295.36 201.01,306.65 201.01,299.15 201.09,301.15 201.16,301.78 201.22,301.12 201.24,293.05 201.33,301.77 201.39,291.56 201.40,313.18 201.47,314.65 201.54,306.29 201.57,303.91 201.66,298.52 201.70,302.83 201.77,312.30 201.78,289.97 201.86,303.73 201.92,312.22 201.98,304.01 202.03,294.21 202.07,292.30 202.12,312.02 202.16,303.67 202.26,302.51 202.30,291.24 202.37,295.32 202.40,307.28 202.44,305.06 202.51,311.99 202.56,306.56 202.61,295.65 202.67,301.85 202.72,302.92 202.80,301.00 202.84,311.03 202.88,309.82 202.93,309.98 203.00,306.00 203.08,302.71 203.12,296.62 203.17,313.83 203.22,289.13 203.32,305.38 203.35,316.35 203.38,298.45 203.45,290.48 203.50,303.89 203.58,312.01 203.64,306.16 203.70,294.81 203.74,307.74 203.81,312.80 203.82,303.37 203.89,298.45 203.99,304.73 204.02,302.05 204.07,299.39 204.10,304.29 204.17,301.50 204.25,304.70 204.28,313.28 204.36,308.75 204.38,306.13 204.48,314.13 204.53,296.41 204.59,295.76 204.63,304.91 204.71,309.73 204.77,306.86 204.80,317.16 204.84,303.23 204.93,305.29 204.97,301.61 205.03,297.02 205.06,308.66 205.12,314.23 205.17,304.73 205.25,292.13 205.29,306.91 205.36,314.76 205.41,309.87 205.47,301.58 205.51,314.81 205.57,302.98 205.64,300.78 205.70,302.16 205.75,295.55 205.82,308.79 205.87,311.76 205.93,296.20 205.99,293.51 206.02,304.41 206.10,302.97 206.17,285.89 206.20,307.56 206.26,315.50 206.33,297.91 206.38,306.09 206.42,304.15 206.49,311.89 206.58,301.89 206.63,296.16 206.64,299.00 206.72,310.24 206.79,310.13 206.86,285.47 206.89,303.27 206.97,305.84 206.98,303.46 207.05,311.67 207.12,311.72 207.16,303.80 207.26,300.99 207.29,303.73 207.33,307.61 207.40,298.60 207.46,301.47 207.55,311.08 207.61,301.95 207.66,305.07 207.67,310.61 207.76,307.33 207.79,305.83 207.88,305.94 207.93,303.08 208.01,304.54 208.02,301.50 208.13,313.54 208.14,309.13 208.23,302.88 208.27,310.28 208.33,306.71 208.41,307.14 208.45,310.84 208.53,310.32 208.58,305.96 208.60,308.56 208.68,302.11 208.76,300.31 208.77,314.40 208.86,300.17 208.92,306.21 208.97,306.21 209.02,304.09 209.06,311.62 209.16,306.81 209.17,304.08 209.25,304.22 209.34,305.36 209.35,313.44 209.42,312.55 209.51,309.90 209.58,310.81 209.63,316.36 209.68,315.89 209.70,310.79 209.76,305.52 209.82,300.42 209.88,319.73 209.98,296.73 210.00,303.09 210.08,318.22 210.12,310.18 210.19,311.85 210.25,307.40 210.31,316.64 210.36,310.74 210.43,309.86 210.47,309.60 210.57,309.90 210.58,311.17 210.66,314.49 210.70,310.66 210.77,309.29 210.82,305.72 210.91,305.42 210.98,313.12 211.02,314.25 211.08,307.94 211.13,315.74 211.19,308.22 211.26,307.37 211.31,296.82 211.38,317.56 211.45,300.03 211.51,302.14 211.56,312.16 211.61,303.36 211.68,305.68 211.73,296.96 211.79,303.01 211.85,311.00 211.89,305.71 211.97,313.02 212.03,311.70 212.05,308.53 212.12,300.27 212.21,309.01 212.27,308.76 212.32,318.03 212.39,304.70 212.46,314.85 212.48,316.46 212.54,316.45 212.61,305.62 212.68,311.67 212.73,311.37 212.79,307.22 212.87,301.72 212.89,318.45 212.96,309.46 213.03,315.79 213.09,301.12 213.16,320.09 213.23,308.93 213.26,305.34 213.31,315.90 213.41,306.19 213.45,309.87 213.51,307.67 213.56,309.62 213.63,319.14 213.70,324.39 213.77,309.76 213.81,301.70 213.89,306.28 213.96,312.10 213.99,313.95 214.05,302.48 214.13,305.57 214.14,300.73 214.25,312.27 214.32,313.41 214.38,313.53 214.42,309.79 214.46,317.91 214.54,312.54 214.61,319.60 214.68,319.75 214.74,326.32 214.76,310.37 214.87,307.42 214.90,310.36 214.98,308.97 215.04,336.96 215.08,322.44 215.16,309.33 215.21,319.16 215.27,311.44 215.34,320.73 215.37,320.63 215.43,320.03 215.48,312.86 215.54,325.87 215.62,308.95 215.67,314.69 215.74,324.03 215.81,328.57 215.88,324.56 215.95,322.83 215.98,316.22 216.08,309.79 216.11,323.67 216.18,329.45 216.22,303.33 216.29,327.13 216.36,316.34 216.39,304.03 216.46,319.42 216.55,321.81 216.62,324.09 216.66,303.81 216.70,319.22 216.78,315.82 216.85,325.64 216.93,319.86 216.95,315.05 217.02,317.33 217.08,319.48 217.16,313.79 217.25,329.65 217.28,318.01 217.34,320.02 217.38,334.15 217.47,311.85 217.53,327.28 217.61,324.99 217.65,317.97 217.72,310.29 217.76,311.31 217.86,319.70 217.90,312.87 217.94,323.10 218.00,323.73 218.09,330.42 218.14,327.29 218.22,319.23 218.25,328.89 218.34,314.33 218.38,322.07 218.44,318.47 218.53,330.88 218.61,336.75 218.63,318.80 218.72,326.56 218.75,329.29 218.85,320.13 218.88,335.28 218.96,321.79 219.04,324.27 219.09,333.36 219.13,332.97 219.24,323.60 219.26,339.18 219.31,332.59 219.42,315.29 219.44,333.36 219.53,327.34 219.60,332.65 219.68,339.07 219.71,316.72 219.78,312.23 219.86,327.27 219.89,329.22 219.99,334.94 220.05,326.66 220.08,331.72 220.17,318.23 220.19,318.95 220.26,328.78 220.32,327.97 220.38,329.00 220.47,330.20 220.55,326.23 220.57,321.95 220.67,324.96 220.69,316.66 220.78,327.53 220.82,319.69 220.94,328.75 221.00,329.42 221.01,322.36 221.13,324.81 221.18,326.85 221.22,325.32 221.27,328.00 221.38,326.75 221.41,334.04 221.46,333.12 221.54,315.80 221.63,332.10 221.69,327.28 221.77,326.51 221.82,312.05 221.85,308.99 221.91,325.94 221.98,330.67 222.07,326.30 222.15,330.32 222.19,330.09 222.28,325.70 222.32,342.04 222.40,340.75 222.45,330.66 222.53,327.01 222.61,322.26 222.66,318.74 222.71,335.77 222.74,344.19 222.82,333.26 222.89,330.32 222.99,323.86 223.01,331.70 223.12,332.51 223.14,329.71 223.20,326.77 223.27,328.64 223.32,338.57 223.43,333.80 223.51,319.86 223.53,329.58 223.64,322.06 223.64,333.84 223.75,336.08 223.77,340.24 223.84,330.24 223.92,329.12 224.02,328.25 224.09,338.58 224.11,337.74 224.19,329.97 224.28,336.31 224.33,327.79 224.38,329.45 224.44,324.85 224.52,310.74 224.60,342.24 224.64,337.68 224.73,326.40 224.81,329.73 224.86,341.48 224.93,334.81 224.96,330.70 225.02,335.10 225.12,331.29 225.19,332.84 225.26,325.82 225.30,339.45 225.38,328.55 225.41,337.37 225.47,331.04 225.60,341.41 225.64,336.06 225.70,322.78 225.74,335.08 225.84,339.57 225.91,333.22 225.95,340.69 226.04,329.89 226.07,333.46 226.19,345.78 226.24,334.94 226.31,343.27 226.37,332.32 226.44,322.59 226.49,332.53 226.55,335.76 226.62,342.32 226.69,340.42 226.77,340.29 226.85,331.36 226.89,338.61 226.98,345.46 227.00,328.44 227.07,335.57 227.13,342.37 227.24,321.83 227.27,329.18 227.32,348.25 227.40,336.94 227.51,342.81 227.55,332.22 227.61,334.01 227.67,341.36 227.74,335.87 227.82,339.66 227.90,338.03 227.94,347.76 228.03,326.86 228.11,329.77 228.12,315.20 228.23,336.28 228.29,333.37 228.36,339.38 228.44,344.13 228.48,352.43 228.55,338.40 228.62,333.47 228.72,330.47 228.74,340.47 228.80,328.25 228.90,339.71 228.97,332.05 229.01,332.03 229.12,335.55 229.14,327.80 229.22,340.51 229.29,326.80 229.34,333.44 229.40,337.80 229.48,337.39 229.58,337.58 229.65,328.12 229.71,329.07 229.75,330.34 229.84,324.59 229.88,333.02 229.98,344.87 230.03,314.11 230.12,337.07 230.18,330.39 230.22,328.96 230.28,320.88 230.35,341.20 230.48,335.54 230.49,326.56 230.61,332.26 230.64,337.27 230.71,326.43 230.77,340.80 230.84,330.54 230.92,348.08 231.00,335.67 231.08,337.15 231.17,330.90 231.23,331.53 231.30,327.79 231.36,329.87 231.43,318.34 231.48,335.31 231.55,329.24 231.62,343.64 231.67,332.77 231.75,321.10 231.80,325.01 231.87,328.09 231.93,323.61 232.06,308.12 232.08,331.32 232.19,334.78 232.22,326.69 232.33,334.98 232.38,334.73 232.45,341.43 232.54,320.27 232.56,340.89 232.63,329.39 232.75,333.31 232.80,329.18 232.88,328.75 232.94,319.20 233.03,340.44 233.09,329.86 233.15,318.58 233.22,330.08 233.30,328.62 233.38,321.44 233.42,326.45 233.52,322.49 233.53,331.80 233.66,322.55 233.68,324.41 233.79,327.04 233.81,330.54 233.90,330.17 233.99,331.81 234.07,324.35 234.15,322.86 234.16,328.07 234.28,319.65 234.36,323.99 234.41,333.10 234.45,321.85 234.56,329.12 234.60,326.40 234.67,333.33 234.73,316.06 234.79,324.22 234.93,335.49 234.94,322.83 235.06,325.21 235.07,318.13 235.21,327.03 235.28,324.31 235.29,324.21 235.40,318.87 235.44,327.01 235.54,320.35 235.63,333.99 235.65,314.59 235.77,327.44 235.78,311.48 235.92,315.34 235.97,321.18 236.05,311.42 236.08,335.72 236.18,315.29 236.26,327.54 236.34,318.91 236.41,322.73 236.45,315.39 236.55,332.78 236.62,327.89 236.66,315.47 236.73,324.22 236.79,317.49 236.91,320.26 236.93,318.77 237.06,318.44 237.12,321.89 237.20,329.00 237.23,317.43 237.34,317.23 237.36,319.46 237.43,317.81 237.54,313.08 237.62,325.91 237.66,309.89 237.71,321.81 237.85,310.98 237.88,307.51 237.94,311.21 238.01,316.22 238.07,320.80 238.16,332.08 238.26,328.48 238.32,318.12 238.38,317.54 238.45,313.05 238.55,306.09 238.58,314.24 238.71,322.19 238.77,312.80 238.85,307.86 238.94,310.49 239.00,312.21 239.06,323.45 239.13,325.68 239.16,301.56 239.28,312.51 239.31,320.95 239.39,309.50 239.50,317.68 239.55,312.42 239.63,312.64 239.73,308.36 239.76,312.89 239.87,312.57 239.92,313.30 239.99,305.84 240.08,310.83 240.11,314.12 240.20,302.18 240.26,305.59 240.37,305.37 240.47,307.56 240.52,310.73 240.57,285.48 240.65,306.37 240.73,311.54 240.78,307.36 240.86,302.32 240.97,319.73 241.06,304.77 241.13,315.09 241.15,306.05 241.23,304.20 241.31,300.74 241.41,299.99 241.46,306.74 241.55,318.96 241.64,303.43 241.68,319.11 241.79,307.43 241.86,306.47 241.90,313.06 241.96,313.43 242.07,312.30 242.12,303.26 242.24,300.92 242.30,305.40 242.35,292.07 242.43,300.95 242.49,308.76 242.58,312.74 242.63,307.01 242.72,300.16 242.85,314.93 242.89,311.31 242.96,312.54 243.04,316.77 243.13,315.14 243.21,321.85 243.29,315.88 243.31,312.78 243.43,304.72 243.46,298.47 243.59,309.50 243.62,292.83 243.70,306.98 243.80,311.41 243.88,303.43 243.93,293.71 244.03,303.74 244.11,307.76 244.14,307.35 244.25,311.10 244.29,289.44 244.38,319.22 244.49,297.48 244.52,300.91 244.59,303.04 244.72,309.17 244.76,303.90 244.81,309.46 244.95,301.38 245.03,305.39 245.12,291.34 245.16,296.59 245.25,306.95 245.33,298.69 245.40,301.07 245.45,308.58 245.57,296.56 245.65,302.41 245.72,295.97 245.79,304.65 245.84,303.77 245.88,284.22 245.97,308.39 246.05,302.95 246.13,310.99 246.22,307.31 246.28,310.11 246.36,298.28 246.49,312.29 246.50,299.99 246.59,314.50 246.71,297.96 246.76,312.31 246.81,299.73 246.94,292.38 246.97,296.41 247.04,290.01 247.17,299.26 247.23,314.03 247.29,304.24 247.35,291.04 247.43,301.48 247.52,304.99 247.64,290.13 247.67,300.46 247.77,296.12 247.83,280.60 247.93,298.61 248.01,307.01 248.08,297.11 248.18,292.05 248.25,304.52 248.33,290.85 248.41,288.06 248.44,291.76 248.54,294.17 248.63,289.49 248.72,296.33 248.79,302.53 248.84,295.00 248.98,288.78 249.02,291.55 249.09,293.96 249.20,298.89 249.30,288.70 249.32,292.96 249.44,287.07 249.47,295.98 249.54,297.69 249.66,294.77 249.70,294.86 249.79,296.85 249.88,290.06 249.94,304.50 250.02,300.25 250.11,290.87 250.17,313.71 250.32,301.72 250.39,280.40 250.44,310.07 250.50,300.67 250.61,290.00 250.69,308.49 250.80,286.28 250.82,297.69 250.91,304.01 251.02,295.65 251.06,287.13 251.14,294.34 251.22,292.64 251.28,297.19 251.36,293.84 251.51,301.66 251.53,275.12 251.62,294.23 251.69,287.60 251.83,289.64 251.88,290.40 251.99,288.60 252.03,285.98 252.10,290.47 252.21,291.87 252.26,290.88 252.38,288.06 252.42,301.41 252.49,287.81 252.56,288.32 252.67,289.11 252.73,280.58 252.81,286.59 252.89,298.22 252.99,291.54 253.11,291.07 253.18,293.11 253.22,284.97 253.30,301.16 253.44,291.52 253.51,301.12 253.56,290.09 253.62,306.16 253.73,289.48 253.79,288.58 253.93,284.01 253.98,291.07 254.10,278.51 254.12,285.14 254.22,287.56 254.34,291.99 254.37,275.57 254.49,299.89 254.53,294.70 254.62,299.30 254.69,294.13 254.83,292.71 254.86,293.36 254.95,282.81 255.08,290.03 255.09,291.90 255.20,287.11 255.30,286.78 255.39,275.84 255.45,283.30 255.57,287.83 255.65,286.18 255.70,282.50 255.78,292.42 255.85,295.79 255.95,295.00 256.07,294.63 256.14,269.73 256.19,288.38 256.26,278.24 256.35,288.97 256.42,288.48 256.52,299.76 256.62,295.16 256.69,284.90 256.82,293.41 256.84,290.42 256.93,294.00 257.07,288.53 257.08,288.57 257.22,302.85 257.30,283.43 257.39,280.59 257.49,300.23 257.55,274.11 257.59,293.46 257.67,287.29 257.76,285.76 257.87,277.62 257.95,281.43 258.03,278.73 258.14,272.70 258.22,279.98 258.26,288.64 258.40,285.44 258.43,301.46 258.54,279.57 258.66,280.85 258.72,286.01 258.82,290.32 258.88,296.76 258.97,267.00 259.03,278.06 259.12,292.42 259.23,284.03 259.31,290.94 259.39,289.33 259.45,291.13 259.53,276.92 259.64,291.74 259.73,282.72 259.81,296.62 259.88,281.74 259.95,293.45 260.08,288.11 260.19,285.96 260.25,287.99 260.30,288.12 260.42,289.63 260.47,273.41 260.60,284.33 260.65,287.32 260.75,276.07 260.82,286.97 260.93,292.00 261.04,277.87 261.08,287.99 261.16,301.20 261.27,293.05 261.38,282.61 261.45,283.65 261.53,273.31 261.62,287.97 261.71,278.20 261.82,290.78 261.83,285.26 261.93,284.47 262.02,287.71 262.11,268.68 262.18,287.13 262.29,280.34 262.40,283.78 262.46,286.60 262.56,282.54 262.61,283.38 262.73,287.86 262.87,279.28 262.92,281.48 262.98,292.32 263.13,281.12 263.15,284.51 263.25,287.21 263.32,284.62 263.42,288.34 263.53,292.48 263.61,298.86 263.72,285.39 263.82,288.52 263.85,285.17 264.00,273.73 264.02,292.76 264.16,283.68 264.21,285.68 264.31,283.89 264.38,274.99 264.49,292.76 264.62,282.23 264.63,288.19 264.74,285.03 264.82,282.52 264.95,282.81 264.99,279.84 265.15,288.30 265.21,290.20 265.30,287.96 265.40,272.91 265.48,297.36 265.57,281.11 265.67,273.07 265.75,290.65 265.85,268.36 265.95,286.92 266.04,281.51 266.10,286.70 266.20,283.69 266.31,300.53 266.39,292.75 266.41,292.18 266.57,293.14 266.64,287.14 266.72,288.15 266.82,278.04 266.92,281.23 266.97,271.85 267.08,265.13 267.16,283.64 267.22,272.42 267.35,280.67 267.43,294.54 267.51,283.02 267.62,282.13 267.73,290.90 267.76,292.89 267.90,282.36 268.02,284.67 268.10,286.68 268.20,277.15 268.23,289.20 268.34,279.50 268.43,292.24 268.55,272.56 268.60,281.13 268.71,281.95 268.80,277.59 268.93,273.62 268.98,283.98 269.10,275.53 269.16,290.39 269.29,281.42 269.34,279.69 269.46,280.65 269.52,274.78 269.60,287.09 269.71,278.28 269.79,280.49 269.93,288.87 269.96,262.27 270.04,288.10 270.20,277.89 270.23,291.03 270.31,288.10 270.45,274.12 270.51,276.21 270.62,274.50 270.72,288.44 270.79,279.47 270.90,270.66 271.01,287.06 271.13,289.33 271.21,280.27 271.29,285.49 271.42,281.11 271.51,274.06 271.58,291.54 271.69,272.04 271.74,281.02 271.84,285.61 271.96,274.82 272.02,282.58 272.12,280.10 272.26,296.65 272.33,279.84 272.44,276.75 272.52,282.66 272.63,289.67 272.73,279.75 272.80,281.65 272.91,274.62 272.94,284.52 273.04,281.46 273.13,284.37 273.22,282.58 273.31,272.45 273.47,281.82 273.49,281.95 273.65,278.77 273.75,277.52 273.84,283.56 273.92,274.42 274.04,274.72 274.11,280.93 274.18,274.29 274.24,291.13 274.40,283.70 274.50,286.71 274.54,295.39 274.68,288.20 274.73,272.30 274.90,284.13 274.94,281.24 275.04,278.36 275.19,267.06 275.20,279.96 275.31,284.67 275.39,287.47 275.55,275.22 275.62,281.08 275.76,281.68 275.82,285.20 275.95,266.99 275.99,265.07 276.09,277.05 276.20,273.11 276.28,279.71 276.40,285.77 276.46,277.79 276.57,284.04 276.70,276.45 276.82,277.44 276.90,272.62 276.98,273.86 277.05,284.87 277.17,275.44 277.31,277.63 277.35,293.42 277.44,274.66 277.58,270.88 277.69,292.17 277.80,285.84 277.87,270.70 277.91,289.92 278.02,276.38 278.19,272.60 278.29,285.41 278.30,289.42 278.47,287.60 278.58,284.94 278.67,282.26 278.71,280.85 278.80,282.55 278.95,289.89 279.06,287.32 279.10,279.16 279.27,286.88 279.36,275.37 279.43,269.46 279.53,275.63 279.64,277.42 279.73,275.51 279.80,284.31 279.89,276.61 279.97,285.51 280.08,290.95 280.19,276.49 280.34,282.50 280.37,281.82 280.53,288.32 280.66,277.41 280.74,284.53 280.83,291.28 280.93,284.87 280.99,280.98 281.12,289.76 281.21,285.88 281.30,280.32 281.46,280.06 281.56,279.18 281.63,269.65 281.68,286.79 281.86,279.95 281.89,287.27 282.05,269.64 282.15,283.10 282.24,288.00 282.32,283.91 282.42,285.84 282.49,280.54 282.59,286.59 282.68,283.63 282.79,289.32 282.96,291.04 283.03,279.73 283.17,293.27 283.28,277.35 283.34,285.25 283.39,276.68 283.50,290.75 283.61,302.19 283.77,291.04 283.80,285.42 283.95,281.77 284.07,279.79 284.14,278.06 284.27,277.33 284.39,270.26 284.51,276.24 284.61,286.81 284.63,289.62 284.76,288.76 284.84,281.14 285.02,277.90 285.05,273.90 285.14,284.93 285.26,287.45 285.43,293.07 285.49,276.75 285.58,291.09 285.74,284.99 285.78,282.65 285.92,291.98 286.02,292.30 286.07,285.30 286.23,286.74 286.31,280.12 286.45,282.87 286.57,291.01 286.61,282.78 286.71,284.61 286.85,285.76 286.90,289.04 287.05,302.20 287.20,292.90 287.27,289.35 287.40,292.71 287.49,286.73 287.54,282.34 287.70,290.06 287.83,282.54 287.84,288.92 288.01,280.85 288.15,291.38 288.21,277.36 288.31,282.89 288.39,298.21 288.48,291.76 288.60,279.66 288.74,292.52 288.88,290.07 288.94,285.81 289.02,287.15 289.14,290.43 289.27,291.45 289.37,273.84 289.46,288.62 289.57,292.62 289.70,291.24 289.80,291.02 289.89,291.00 290.01,288.27 290.17,282.05 290.18,292.75 290.37,281.00 290.47,270.95 290.58,288.19 290.66,296.50 290.72,280.94 290.90,288.76 290.95,298.43 291.05,299.46 291.19,274.71 291.31,281.35 291.46,287.17 291.52,296.28 291.65,291.09 291.77,291.65 291.83,292.20 291.99,294.55 292.08,281.61 292.20,296.23 292.26,290.53 292.36,287.46 292.49,285.92 292.61,274.98 292.73,287.82 292.85,289.79 292.95,296.40 293.09,295.87 293.11,290.10 293.31,290.25 293.32,272.94 293.44,287.29 293.60,284.34 293.67,274.66 293.86,282.70 293.91,277.93 293.99,282.00 294.19,296.16 294.28,295.09 294.37,286.91 294.44,287.63 294.62,293.73 294.70,290.19 294.82,276.30 294.97,295.22 295.03,288.49 295.12,295.02 295.20,297.03 295.33,293.92 295.52,286.94 295.60,292.64 295.72,297.40 295.80,275.95 295.89,279.72 296.04,285.05 296.19,299.74 296.29,305.00 296.34,277.91 296.49,284.87 296.60,295.89 296.68,291.13 296.87,290.93 296.97,297.86 297.02,281.01 297.13,296.79 297.31,292.26 297.38,287.35 297.53,296.86 297.61,297.16 297.76,298.54 297.83,286.86 297.94,288.52 298.12,294.84 298.18,282.03 298.34,305.52 298.36,300.05 298.58,281.18 298.58,287.96 298.74,296.00 298.92,293.69 298.96,298.21 299.09,301.36 299.24,300.92 299.37,297.21 299.42,303.35 299.57,301.42 299.68,302.85 299.80,298.65 299.93,292.62 300.03,299.15 300.13,296.43 300.23,293.95 300.37,289.72 300.43,274.06 300.55,309.12 300.66,283.88 300.85,295.23 300.93,303.26 301.07,305.93 301.22,300.02 301.31,295.34 301.37,296.01 301.47,296.73 301.67,297.23 301.71,305.45 301.84,287.43 301.99,284.04 302.10,297.72 302.23,292.61 302.29,289.59 302.48,297.72 302.60,292.31 302.70,302.38 302.78,300.07 302.91,310.25 303.04,290.82 303.20,291.49 303.32,278.52 303.41,295.93 303.47,299.69 303.64,290.01 303.81,299.73 303.87,306.82 303.96,310.04 304.06,285.60 304.24,290.90 304.36,317.81 304.48,293.05 304.55,308.24 304.71,290.02 304.88,293.29 304.92,308.26 305.12,301.75 305.22,296.75 305.26,308.63 305.47,286.54 305.51,306.29 305.71,307.63 305.81,303.59 305.93,294.69 306.05,304.24 306.10,305.45 306.30,293.89 306.39,278.37 306.55,303.05 306.64,307.52 306.79,293.87 306.84,304.48 306.95,302.19 307.13,303.46 307.31,289.39 307.32,303.18 307.46,298.41 307.58,301.59 307.69,305.62 307.84,306.51 308.01,306.97 308.14,315.33 308.24,294.78 308.31,284.03 308.47,293.64 308.66,305.73 308.77,303.40 308.89,308.32 308.91,305.19 309.08,292.84 309.17,295.78 309.40,293.96 309.42,303.48 309.58,299.21 309.67,298.70 309.84,309.02 310.01,296.44 310.02,301.65 310.22,303.39 310.32,299.82 310.43,293.19 310.57,297.53 310.70,310.09 310.78,303.28 310.96,297.05 311.13,308.03 311.27,308.44 311.34,307.59 311.46,307.53 311.59,315.88 311.76,301.15 311.87,311.55 312.00,304.02 312.07,295.39 312.26,307.47 312.34,302.97 312.48,304.40 312.66,304.09 312.74,306.00 312.86,318.49 312.93,295.43 313.15,308.42 313.21,308.40 313.31,308.46 313.49,295.26 313.65,310.67 313.78,310.60 313.87,287.67 314.06,312.69 314.18,303.27 314.23,303.85 314.37,309.12 314.50,305.21 314.68,297.50 314.78,296.14 314.95,310.20 315.02,309.75 315.12,309.11 315.26,298.04 315.47,291.72 315.54,300.63 315.71,303.24 315.86,310.66 315.89,306.09 316.03,314.13 316.20,310.56 316.38,307.83 316.52,301.37 316.66,305.73 316.75,311.09 316.88,301.79 316.97,306.67 317.07,315.35 317.27,297.30 317.42,317.95 317.53,307.03 317.61,310.78 317.80,312.78 317.94,295.36 318.10,308.66 318.24,309.83 318.27,304.01 318.38,320.44 318.57,303.60 318.67,314.94 318.89,277.05 319.01,310.77 319.07,313.17 319.18,306.74 319.34,312.99 319.50,309.08 319.58,303.24 319.79,315.62 319.95,307.56 320.11,303.32 320.17,317.89 320.31,303.99 320.47,299.67 320.64,300.53 320.66,316.95 320.82,295.51 321.05,306.71 321.07,297.26 321.31,310.01 321.42,310.56 321.56,313.35 321.71,303.27 321.82,302.74 321.99,303.35 322.11,294.70 322.24,313.60 322.28,315.39 322.53,316.93 322.59,309.21 322.73,309.04 322.92,305.05 322.98,309.92 323.19,315.55 323.28,310.26 323.51,302.02 323.57,312.96 323.65,298.66 323.80,305.32 323.99,290.74 324.14,312.78 324.24,290.25 324.48,311.19 324.52,271.76 324.62,306.36 324.85,294.07 324.96,308.37 325.13,301.10 325.18,305.22 325.34,296.03 325.49,302.87 325.66,306.11 325.87,306.48 325.93,301.97 326.10,306.41 326.22,301.46 326.34,314.02 326.44,299.25 326.61,313.01 326.74,298.42 326.95,295.02 327.10,302.38 327.16,304.45 327.32,308.46 327.56,302.33 327.71,294.01 327.76,282.78 327.96,308.07 328.08,310.00 328.19,297.98 328.36,306.92 328.50,307.29 328.61,306.88 328.80,291.52 328.95,299.43 329.06,311.94 329.21,291.10 329.31,302.61 329.52,282.48 329.69,300.15 329.82,296.96 329.95,305.75 330.15,298.58 330.25,300.10 330.39,249.69 330.59,297.35 330.66,301.59 330.75,298.04 330.91,296.75 331.11,299.22 331.25,288.95 331.35,293.62 331.53,300.65 331.76,298.05 331.83,304.27 332.04,304.35 332.19,298.47 332.21,299.59 332.46,302.12 332.57,296.61 332.65,300.56 332.90,290.02 333.08,296.21 333.11,282.01 333.28,294.57 333.50,290.17 333.58,283.29 333.76,293.71 333.90,291.63 334.04,297.01 334.18,290.37 334.35,291.44 334.43,291.69 334.69,290.14 334.78,289.86 334.93,289.75 335.16,283.85 335.29,296.09 335.42,289.40 335.53,295.47 335.65,291.45 335.93,288.27 336.03,288.05 336.11,279.01 336.27,290.62 336.45,281.89 336.55,300.23 336.73,283.41 336.89,295.38 337.06,286.58 337.26,290.28 337.33,285.14 337.52,289.93 337.67,287.60 337.83,282.06 337.94,301.89 338.20,295.58 338.34,285.48 338.39,289.78 338.57,297.60 338.74,270.97 338.97,288.76 339.07,287.86 339.29,282.31 339.33,285.32 339.51,282.73 339.65,276.89 339.92,293.44 339.98,297.31 340.15,289.98 340.40,267.21 340.41,283.44 340.69,271.08 340.76,297.87 340.96,286.44 341.09,282.80 341.24,277.77 341.39,272.04 341.59,278.64 341.67,283.94 341.95,276.11 342.12,286.40 342.27,281.80 342.32,284.76 342.57,282.18 342.75,278.67 342.82,278.05 342.99,260.59 343.13,277.07 343.40,283.07 343.43,284.49 343.65,282.45 343.75,280.42 343.93,270.55 344.16,281.16 344.37,288.16 344.49,272.51 344.62,272.15 344.84,278.44 344.93,268.59 345.05,281.87 345.30,266.53 345.45,277.01 345.62,280.29 345.73,278.44 345.96,272.17 346.13,278.90 346.31,282.21 346.34,275.18 346.59,283.58 346.77,260.45 346.95,287.98 347.00,285.27 347.28,275.42 347.36,264.77 347.52,265.32 347.68,286.94 347.86,284.07 348.08,270.85 348.17,270.22 348.41,277.38 348.52,271.93 348.66,268.62 348.95,274.40 349.07,276.45 349.21,274.15 349.45,285.10 349.55,275.91 349.78,257.38 349.92,267.21 350.02,277.15 350.32,264.62 350.49,269.05 350.51,265.62 350.77,256.64 350.93,273.28 351.08,274.51 351.32,271.94 351.47,279.18 351.52,272.25 351.71,270.03 351.92,265.96 352.12,271.84 352.28,266.80 352.42,283.24 352.54,268.07 352.82,270.47 353.04,271.01 353.20,279.12 353.29,271.11 353.56,264.75 353.67,271.95 353.89,269.37 354.07,270.06 354.26,266.44 354.44,267.95 354.52,284.28 354.75,269.06 354.88,271.12 355.10,276.21 355.30,256.55 355.41,263.34 355.56,270.83 355.67,269.42 355.86,265.95 356.13,260.39 356.34,259.18 356.50,279.26 356.67,247.23 356.90,259.40 356.92,222.78 357.17,276.99 357.34,273.28 357.59,258.02 357.76,277.84 357.94,276.40 357.99,264.05 358.20,267.20 358.47,259.70 358.60,258.52 358.78,252.73 358.90,267.71 359.09,262.80 359.29,260.06 359.49,260.10 359.70,268.55 359.78,262.75 360.13,261.15 360.24,252.97 360.37,257.33 360.51,259.14 360.85,267.28 361.01,277.86 361.19,255.79 361.33,263.77 361.48,253.71 361.70,269.86 361.88,261.35 362.07,274.89 362.22,259.18 362.39,269.88 362.67,259.46 362.89,267.11 362.99,261.73 363.09,268.55 363.45,261.91 363.53,270.67 363.76,265.37 363.86,256.13 364.04,263.62 364.37,264.85 364.50,250.49 364.75,259.73 364.82,276.11 365.04,267.21 365.26,249.28 365.34,254.09 365.60,262.20 365.76,246.30 365.91,263.51 366.12,255.49 366.30,258.08 366.65,262.25 366.67,253.42 366.98,255.51 367.08,241.95 367.41,255.21 367.49,251.60 367.79,273.95 367.87,257.83 368.11,269.39 368.24,255.17 368.42,241.69 368.62,250.66 368.96,262.55 369.12,258.28 369.20,263.85 369.52,254.79 369.74,259.31 369.87,240.42 370.13,259.71 370.26,250.08 370.38,268.38 370.69,255.88 370.90,266.70 370.99,248.49 371.32,241.45 371.46,250.65 371.54,267.57 371.82,266.54 371.98,256.48 372.22,251.11 372.49,233.76 372.54,247.98 372.76,252.59 373.03,253.63 373.27,250.22 373.34,248.19 373.55,251.18 373.92,251.49 374.03,243.24 374.15,249.21 374.34,252.68 374.62,253.41 374.79,262.07 375.02,255.87 375.32,258.97 375.48,251.52 375.61,247.51 375.76,243.81 376.00,261.51 376.19,238.36 376.56,251.99 376.66,242.73 376.88,250.02 377.04,258.59 377.38,236.02 377.41,252.66 377.64,236.02 377.94,248.83 378.13,254.74 378.26,252.55 378.56,254.81 378.79,253.17 379.00,251.98 379.10,247.90 379.36,243.87 379.64,247.07 379.90,247.11 380.12,250.23 380.15,248.97 380.44,261.81 380.67,254.77 380.91,256.36 381.05,231.32 381.20,237.50 381.58,254.92 381.67,241.95 381.84,251.31 382.15,240.52 382.29,251.38 382.62,248.38 382.76,257.82 383.07,246.14 383.22,244.23 383.48,253.88 383.74,241.08 383.86,256.91 384.06,252.52 384.30,259.81 384.55,249.60 384.75,247.90 384.89,244.79 385.10,250.65 385.34,241.30 385.74,253.87 385.82,255.79 386.15,257.53 386.22,253.56 386.63,235.40 386.82,238.38 386.86,236.75 387.27,253.54 387.32,244.05 387.56,255.39 387.83,254.03 388.16,254.10 388.37,242.72 388.53,240.18 388.76,240.65 389.06,235.79 389.14,244.75 389.44,239.31 389.58,245.49 389.86,257.09 390.14,249.05 390.39,246.57 390.50,241.74 390.88,246.79 391.06,236.56 391.34,239.08 391.61,238.90 391.69,245.39 392.01,238.53 392.14,253.02 392.38,235.74 392.72,245.00 392.83,237.39 393.03,245.92 393.39,238.87 393.51,242.31 393.82,251.50 394.06,239.01 394.21,243.66 394.53,248.18 394.84,255.92 394.98,237.71 395.14,241.38 395.41,249.94 395.81,244.47 396.03,244.33 396.16,227.02 396.43,243.30 396.72,240.52 397.01,241.55 397.27,241.06 397.37,246.19 397.57,243.55 397.78,246.62 398.02,257.05 398.35,238.48 398.68,244.66 398.89,240.02 398.98,239.00 399.23,247.60 399.50,229.16 399.88,228.24 400.00,241.97 400.25,234.25 400.69,230.17 400.86,237.97 401.02,237.56 401.22,241.98 401.45,235.81 401.76,236.64 402.13,236.48 402.29,252.97 402.52,254.66 402.74,235.09 403.01,243.83 403.40,242.29 403.68,238.94 403.91,235.96 403.96,236.13 404.38,237.09 404.51,240.32 404.93,240.37 405.05,237.82 405.38,248.95 405.69,236.33 405.87,241.30 406.15,231.98 406.25,238.67 406.73,249.75 406.89,232.35 407.22,235.96 407.35,222.11 407.56,234.24 407.81,239.20 408.21,244.10 408.40,230.37 408.75,246.59 409.11,241.40 409.18,236.56 409.42,235.99 409.72,238.92 410.06,239.28 410.39,234.23 410.56,220.51 410.88,244.08 411.22,234.90 411.50,234.43 411.72,233.68 411.95,237.39 412.12,232.89 412.38,234.12 412.75,250.83 413.11,239.24 413.39,224.72 413.63,236.35 413.86,232.62 414.13,239.62 414.40,229.53 414.62,232.53 414.98,227.99 415.12,239.66 415.48,238.38 415.84,235.73 416.08,244.67 416.39,225.06 416.46,230.65 416.87,236.13 417.17,230.96 417.49,238.03 417.61,221.80 417.91,236.51 418.30,240.59 418.47,241.49 418.72,226.73 419.05,237.41 419.34,249.41 419.70,230.88 419.81,234.43 420.23,232.39 420.62,237.70 420.90,237.33 421.08,225.88 421.30,237.73 421.55,229.28 422.03,222.37 422.40,221.22 422.66,226.99 422.70,223.91 423.04,240.47 423.35,225.08 423.65,235.89 424.10,221.43 424.36,222.78 424.64,234.68 424.99,232.58 425.26,228.27 425.40,231.28 425.91,236.27 426.20,231.85 426.27,237.14 426.60,233.81 427.02,238.62 427.35,233.19 427.57,239.33 427.93,224.38 428.36,238.67 428.63,231.90 428.91,230.11 429.12,222.76 429.39,234.83 429.85,230.22 430.07,230.34 430.46,224.72 430.77,241.10 430.86,239.57 431.31,224.12 431.60,232.16 431.82,228.53 432.26,222.28 432.48,229.84 432.91,223.24 433.14,229.71 433.63,226.07 433.93,225.41 434.06,221.25 434.58,234.24 434.64,206.15 434.97,236.09 435.35,236.60 435.73,231.38 436.14,225.84 436.25,237.69 436.59,239.93 436.95,219.85 437.31,228.38 437.52,229.32 437.87,237.70 438.26,227.20 438.73,234.11 438.97,230.74 439.18,222.09 439.58,234.71 439.99,224.19 440.35,229.11 440.60,235.56 441.11,226.48 441.21,223.51 441.60,224.33 441.97,222.30 442.42,229.54 442.51,218.06 443.10,225.60 443.44,218.99 443.80,233.93 443.92,230.85 444.47,230.79 444.72,211.27 444.98,216.48 445.42,223.39 445.90,222.79 445.98,230.28 446.37,225.61 446.91,219.24 447.30,233.56 447.59,227.12 447.78,224.33 448.12,220.07 448.57,194.14 449.10,216.19 449.16,216.85 449.64,225.12 449.90,234.75 450.42,214.82 450.68,209.30 451.19,226.19 451.31,232.48 451.67,227.54 452.17,217.95 452.41,229.46 452.83,226.00 453.33,215.07 453.57,230.98 454.15,225.72 454.27,222.30 454.68,230.10 455.29,224.08 455.66,228.97 455.87,229.40 456.17,225.96 456.72,229.71 457.06,234.33 457.24,228.07 457.89,228.99 458.33,231.02 458.61,225.13 458.80,215.35 459.11,221.80 459.60,212.97 460.20,227.57 460.62,225.85 460.80,233.09 461.26,229.08 461.74,226.17 461.97,212.63 462.37,219.42 462.94,221.54 463.39,228.63 463.48,225.31 464.10,200.59 464.26,211.02 464.90,220.73 465.23,209.93 465.47,222.32 465.93,230.35 466.52,222.32 466.66,224.48 467.07,229.90 467.76,202.93 468.15,219.70 468.42,220.40 468.81,222.89 469.32,213.79 469.58,207.46 470.06,237.37 470.69,216.92 470.86,218.13 471.43,214.39 471.85,224.73 472.12,226.71 472.72,230.95 473.27,208.52 473.33,222.16 473.91,225.64 474.26,221.81 474.81,215.03 475.13,235.01 475.62,216.02 476.06,221.59 476.56,217.03 476.90,224.29 477.56,227.13 477.72,209.85 478.10,215.67 478.77,227.98 479.11,219.64 479.48,228.51 480.05,221.91 480.52,208.15 481.18,219.15 481.39,226.54 481.81,187.12 482.37,217.98 482.70,219.95 483.37,229.05 483.58,209.46 484.02,208.89 484.51,225.25 485.32,216.14 485.42,218.71 485.98,219.37 486.49,211.97 486.84,228.26 487.70,213.81 487.77,219.51 488.44,215.52 488.75,218.53 489.47,220.31 489.78,217.87 490.56,230.81 490.69,214.61 491.36,220.70 491.89,211.21 492.61,213.39 492.84,219.71 493.15,221.86 493.86,222.45 494.17,213.52 494.65,201.64 495.39,225.79 495.87,209.47 496.52,216.80 496.75,223.78 497.31,219.38 497.68,216.70 498.62,220.96 498.74,217.90 499.33,205.06 500.12,208.97 500.55,217.01 500.93,210.92 501.67,225.79 502.18,163.61 502.52,213.32 503.15,212.19 503.77,207.86 504.40,222.29 505.05,214.81 505.49,222.19 505.86,203.61 506.46,211.41 507.17,217.05 507.47,212.70 508.30,223.57 508.48,212.74 509.47,223.60 509.81,207.34 510.24,219.07 510.89,214.57 511.67,222.67 512.34,215.65 512.53,200.61 513.13,214.40 514.05,220.51 514.40,220.95 514.85,207.58 515.81,226.64 516.41,222.15 516.62,223.76 517.49,216.25 518.12,217.35 518.64,217.84 519.43,213.00 519.49,216.46 520.54,214.74 521.07,216.79 521.49,202.96 522.47,216.33 522.56,196.67 523.41,213.25 524.29,214.22 524.52,207.09 525.18,216.19 526.14,195.17 526.46,217.28 527.30,216.39 528.18,213.93 528.66,211.15 529.16,213.39 530.11,190.41 530.65,215.23 530.98,213.86 531.92,195.23 532.80,210.77 533.05,227.31 533.97,200.92 534.83,221.29 535.14,222.86 536.05,211.13 536.67,219.93 537.49,225.62 537.97,204.37 538.35,212.25 539.21,203.67 540.37,218.49 540.86,211.93 541.47,214.28 542.46,200.21 542.88,209.26 543.58,204.94 544.54,212.95 545.08,208.08 545.54,214.77 546.29,211.42 547.44,190.78 548.19,211.37 549.09,213.51 549.95,216.38 550.20,200.91 551.14,177.51 552.05,196.95 553.12,218.26 553.55,201.89 554.48,210.31 554.73,204.16 555.78,122.25 556.58,219.66 557.46,203.25 558.72,228.33 559.53,208.63 559.68,205.82 560.58,171.65 561.49,213.70 562.29,216.83 563.48,195.86 564.21,214.26 565.30,211.31 565.57,180.68 566.79,225.40 567.19,205.92 568.18,206.37 569.22,207.17 570.03,207.75 571.37,205.50 572.23,208.11 572.81,209.76 573.97,205.89 575.06,216.48 576.15,194.41 576.87,205.59 577.39,215.70 578.55,199.63 579.59,209.99 580.68,199.35 581.78,186.42 582.40,204.02 583.24,214.49 584.68,216.71 585.14,203.34 586.69,206.94 587.65,180.88 588.07,208.14 589.61,212.46 590.55,205.55 591.69,204.84 592.93,193.30 593.80,133.68 594.48,204.94 595.26,202.28 596.39,196.47 597.88,201.22 598.98,199.52 600.20,190.99 601.37,198.93 602.30,199.57 603.54,200.12 604.28,195.19 606.39,214.39 607.40,198.01 607.73,216.81 609.46,207.32 610.28,201.43 611.32,200.85 613.16,207.53 614.17,189.67 614.91,208.97 616.17,203.47 618.30,194.76 619.77,205.88 620.54,193.34 621.73,184.02 623.35,200.76 624.32,206.18 626.10,212.03 627.60,197.94 629.17,200.76 629.80,201.62 631.85,198.15 633.28,203.85 634.07,209.18 635.72,205.75 637.05,211.32 638.27,202.41 639.97,199.43 641.91,206.23 642.89,194.69 645.65,197.40 647.24,177.32 647.46,117.72 650.02,206.05 650.84,195.37 653.17,201.09 654.70,206.50 657.18,178.91 657.26,154.60 660.58,210.43 661.15,199.02 663.59,198.64 665.65,200.72 667.84,163.02 668.77,203.36 670.49,189.40 673.64,207.20 675.60,197.85 676.51,209.20 679.25,199.05 679.90,184.87 683.19,216.18 685.11,195.55 686.17,209.58 688.43,206.39 690.83,191.37 694.72,196.48 694.93,203.97 697.45,198.83 701.76,207.12 703.74,185.66 705.87,160.40 708.04,195.64 710.82,198.55 714.15,186.18 715.36,186.71 718.18,185.29 721.45,131.26 724.66,190.03 728.36,184.03 728.63,189.67 733.00,188.91 736.80,176.93 739.10,82.24 740.86,176.51 745.04,172.24 750.47,189.62 751.91,202.94 754.49,188.90 759.48,135.66 762.39,190.56 769.15,188.78 771.36,199.24 776.65,186.52 780.97,181.35 783.59,145.57 789.83,178.92 795.05,196.82 796.39,184.25 803.76,183.35 811.32,182.09 813.09,171.71 817.75,188.50 827.59,178.92 834.28,190.78 837.91,162.94 845.81,168.07 851.12,117.69 865.05,185.40 873.61,168.55 876.87,170.03 892.13,176.16 904.22,143.40 904.73,86.11 916.42,164.82 942.09,155.78 951.16,161.72 973.12,148.06 996.38,73.36 1008.06,150.01 1047.96,139.40 1086.00,139.91" fill="none" stroke="#8a4f9f" stroke-width="1.1" stroke-linejoin="round" stroke-linecap="round"/>
<line x1="318.89" y1="58" x2="318.89" y2="396.00" stroke="#777777" stroke-width="1" stroke-dasharray="4,4"/>
<text x="318.89" y="50" text-anchor="middle" font-family="Arial, sans-serif" font-size="11" fill="#555555">1h</text>
<line x1="739.07" y1="58" x2="739.07" y2="396.00" stroke="#777777" stroke-width="1" stroke-dasharray="4,4"/>
<text x="739.07" y="50" text-anchor="middle" font-family="Arial, sans-serif" font-size="11" fill="#555555">1d</text>
<line x1="996.34" y1="58" x2="996.34" y2="396.00" stroke="#777777" stroke-width="1" stroke-dasharray="4,4"/>
<text x="996.34" y="50" text-anchor="middle" font-family="Arial, sans-serif" font-size="11" fill="#555555">1w</text>
<text x="81.99" y="428" text-anchor="middle" font-family="Arial, sans-serif" font-size="11">2</text>
<text x="227.24" y="428" text-anchor="middle" font-family="Arial, sans-serif" font-size="11">6</text>
<text x="318.89" y="428" text-anchor="middle" font-family="Arial, sans-serif" font-size="11">12</text>
<text x="502.17" y="428" text-anchor="middle" font-family="Arial, sans-serif" font-size="11">48</text>
<text x="739.07" y="428" text-anchor="middle" font-family="Arial, sans-serif" font-size="11">288</text>
<text x="996.34" y="428" text-anchor="middle" font-family="Arial, sans-serif" font-size="11">2016</text>
<text x="1087.99" y="428" text-anchor="middle" font-family="Arial, sans-serif" font-size="11">4032</text>
<text x="584.00" y="450" text-anchor="middle" font-family="Arial, sans-serif" font-size="13">Periodo equivalente en retardos de 5 minutos (escala log)</text>
<text transform="translate(18,227.0) rotate(-90)" text-anchor="middle" font-family="Arial, sans-serif" font-size="13">log10 potencia</text>
</svg>