<svg xmlns="http://www.w3.org/2000/svg" width="1080" height="460" viewBox="0 0 1080 460">
<rect x="0" y="0" width="1080" height="460" fill="#ffffff"/>
<text x="540.0" y="28" text-anchor="middle" font-family="Arial, sans-serif" font-size="18" font-weight="700">Prediccion test corta t=10533-10582 logistic_noise_small</text>
<rect x="76" y="58" width="974.00" height="340.00" fill="none" stroke="#222222"/>
<line x1="76" y1="398.00" x2="1050.00" y2="398.00" stroke="#e8e8e8"/>
<text x="68" y="402.00" text-anchor="end" font-family="Arial, sans-serif" font-size="11">-0.0667</text>
<line x1="76" y1="313.00" x2="1050.00" y2="313.00" stroke="#e8e8e8"/>
<text x="68" y="317.00" text-anchor="end" font-family="Arial, sans-serif" font-size="11">0.22</text>
<line x1="76" y1="228.00" x2="1050.00" y2="228.00" stroke="#e8e8e8"/>
<text x="68" y="232.00" text-anchor="end" font-family="Arial, sans-serif" font-size="11">0.506</text>
<line x1="76" y1="143.00" x2="1050.00" y2="143.00" stroke="#e8e8e8"/>
<text x="68" y="147.00" text-anchor="end" font-family="Arial, sans-serif" font-size="11">0.793</text>
<line x1="76" y1="58.00" x2="1050.00" y2="58.00" stroke="#e8e8e8"/>
<text x="68" y="62.00" text-anchor="end" font-family="Arial, sans-serif" font-size="11">1.08</text>
<polyline points="76.00,218.46 95.88,83.08 115.76,371.82 135.63,351.73 155.51,283.85 175.39,121.62 195.27,242.00 215.14,84.00 235.02,371.47 254.90,351.54 274.78,278.51 294.65,112.70 314.53,270.44 334.41,102.53 354.29,301.18 374.16,150.62 394.04,160.00 413.92,151.88 433.80,169.11 453.67,130.62 473.55,211.81 493.43,87.16 513.31,365.53 533.18,324.52 553.06,192.58 572.94,95.10 592.82,320.69 612.69,191.75 632.57,102.91 652.45,300.26 672.33,147.18 692.20,174.18 712.08,120.57 731.96,236.04 751.84,81.45 771.71,374.55 791.59,368.95 811.47,346.01 831.35,263.03 851.22,99.33 871.10,320.14 890.98,188.14 910.86,102.89 930.73,294.79 950.61,138.14 970.49,193.76 990.37,100.46 1010.24,311.40 1030.12,172.00 1050.00,126.83" fill="none" stroke="#222222" stroke-width="1.6"/>
<polyline points="76.00,128.97 95.88,218.46 115.76,83.08 135.63,371.82 155.51,351.73 175.39,283.85 195.27,121.62 215.14,242.00 235.02,84.00 254.90,371.47 274.78,351.54 294.65,278.51 314.53,112.70 334.41,270.44 354.29,102.53 374.16,301.18 394.04,150.62 413.92,160.00 433.80,151.88 453.67,169.11 473.55,130.62 493.43,211.81 513.31,87.16 533.18,365.53 553.06,324.52 572.94,192.58 592.82,95.10 612.69,320.69 632.57,191.75 652.45,102.91 672.33,300.26 692.20,147.18 712.08,174.18 731.96,120.57 751.84,236.04 771.71,81.45 791.59,374.55 811.47,368.95 831.35,346.01 851.22,263.03 871.10,99.33 890.98,320.14 910.86,188.14 930.73,102.89 950.61,294.79 970.49,138.14 990.37,193.76 1010.24,100.46 1030.12,311.40 1050.00,172.00" fill="none" stroke="#6f7f8f" stroke-width="1.6"/>
<polyline points="76.00,229.76 95.88,229.76 115.76,229.76 135.63,229.76 155.51,229.76 175.39,229.76 195.27,229.76 215.14,229.76 235.02,229.76 254.90,229.76 274.78,229.76 294.65,229.76 314.53,229.76 334.41,229.76 354.29,229.76 374.16,229.76 394.04,229.76 413.92,229.76 433.80,229.76 453.67,229.76 473.55,229.76 493.43,229.76 513.31,229.76 533.18,229.76 553.06,229.76 572.94,229.76 592.82,229.76 612.69,229.76 632.57,229.76 652.45,229.76 672.33,229.76 692.20,229.76 712.08,229.76 731.96,229.76 751.84,229.76 771.71,229.76 791.59,229.76 811.47,229.76 831.35,229.76 851.22,229.76 871.10,229.76 890.98,229.76 910.86,229.76 930.73,229.76 950.61,229.76 970.49,229.76 990.37,229.76 1010.24,229.76 1030.12,229.76 1050.00,229.76" fill="none" stroke="#2a6fbb" stroke-width="1.6"/>
<polyline points="76.00,240.92 95.88,95.83 115.76,302.66 135.63,310.21 155.51,309.80 175.39,139.20 195.27,257.04 215.14,95.69 235.02,321.58 254.90,308.42 274.78,244.31 294.65,101.87 314.53,302.09 334.41,97.89 354.29,276.57 374.16,148.00 394.04,187.61 413.92,130.18 433.80,174.67 453.67,133.83 473.55,206.31 493.43,93.15 513.31,307.32 533.18,314.62 553.06,156.18 572.94,141.20 592.82,318.05 612.69,200.07 632.57,119.62 652.45,251.81 672.33,147.19 692.20,220.59 712.08,120.62 731.96,274.99 751.84,99.37 771.71,290.50 791.59,340.81 811.47,364.05 831.35,216.51 851.22,112.97 871.10,301.70 890.98,284.45 910.86,126.38 930.73,334.97 950.61,142.65 970.49,301.85 990.37,130.84 1010.24,330.40 1030.12,221.59 1050.00,136.59" fill="none" stroke="#b45f06" stroke-width="1.6"/>
<g><line x1="870.00" y1="28.00" x2="898.00" y2="28.00" stroke="#222222" stroke-width="2"/><text x="906.00" y="32.00" font-family="Arial, sans-serif" font-size="12">real</text></g>
<g><line x1="870.00" y1="46.00" x2="898.00" y2="46.00" stroke="#6f7f8f" stroke-width="2"/><text x="906.00" y="50.00" font-family="Arial, sans-serif" font-size="12">persistencia</text></g>
<g><line x1="870.00" y1="64.00" x2="898.00" y2="64.00" stroke="#2a6fbb" stroke-width="2"/><text x="906.00" y="68.00" font-family="Arial, sans-serif" font-size="12">AR(0) / media</text></g>
<g><line x1="870.00" y1="82.00" x2="898.00" y2="82.00" stroke="#b45f06" stroke-width="2"/><text x="906.00" y="86.00" font-family="Arial, sans-serif" font-size="12">kNN k=5</text></g>
<line x1="76.00" y1="398.00" x2="76.00" y2="403.00" stroke="#222222"/>
<text x="76.00" y="422" text-anchor="middle" font-family="Arial, sans-serif" font-size="10">10533</text>
<line x1="314.53" y1="398.00" x2="314.53" y2="403.00" stroke="#222222"/>
<text x="314.53" y="422" text-anchor="middle" font-family="Arial, sans-serif" font-size="10">10545</text>
<line x1="572.94" y1="398.00" x2="572.94" y2="403.00" stroke="#222222"/>
<text x="572.94" y="422" text-anchor="middle" font-family="Arial, sans-serif" font-size="10">10558</text>
<line x1="811.47" y1="398.00" x2="811.47" y2="403.00" stroke="#222222"/>
<text x="811.47" y="422" text-anchor="middle" font-family="Arial, sans-serif" font-size="10">10570</text>
<line x1="1050.00" y1="398.00" x2="1050.00" y2="403.00" stroke="#222222"/>
<text x="1050.00" y="422" text-anchor="middle" font-family="Arial, sans-serif" font-size="10">10582</text>
<text x="563.00" y="450" text-anchor="middle" font-family="Arial, sans-serif" font-size="13">t</text>
<text transform="translate(18,228.0) rotate(-90)" text-anchor="middle" font-family="Arial, sans-serif" font-size="13">x[t+1]</text>
</svg>