<svg xmlns="http://www.w3.org/2000/svg" width="1180" height="520" viewBox="0 0 1180 520">
<rect x="0" y="0" width="1180" height="520" fill="#ffffff"/>
<text x="590.0" y="28" text-anchor="middle" font-family="Arial, sans-serif" font-size="18" font-weight="700">Test: real vs kNN por configuracion</text>
<rect x="76" y="58" width="1072.00" height="394.00" fill="none" stroke="#222222" stroke-width="1"/>
<line x1="76" y1="452.00" x2="1148.00" y2="452.00" stroke="#e8e8e8" stroke-width="1"/>
<text x="68" y="456.00" text-anchor="end" font-family="Arial, sans-serif" font-size="11">-16</text>
<line x1="76" y1="353.50" x2="1148.00" y2="353.50" stroke="#e8e8e8" stroke-width="1"/>
<text x="68" y="357.50" text-anchor="end" font-family="Arial, sans-serif" font-size="11">-13.5</text>
<line x1="76" y1="255.00" x2="1148.00" y2="255.00" stroke="#e8e8e8" stroke-width="1"/>
<text x="68" y="259.00" text-anchor="end" font-family="Arial, sans-serif" font-size="11">-11</text>
<line x1="76" y1="156.50" x2="1148.00" y2="156.50" stroke="#e8e8e8" stroke-width="1"/>
<text x="68" y="160.50" text-anchor="end" font-family="Arial, sans-serif" font-size="11">-8.48</text>
<line x1="76" y1="58.00" x2="1148.00" y2="58.00" stroke="#e8e8e8" stroke-width="1"/>
<text x="68" y="62.00" text-anchor="end" font-family="Arial, sans-serif" font-size="11">-5.96</text>
<polyline points="76.00,348.58 77.49,342.48 78.98,323.30 80.47,351.64 81.96,283.00 83.45,336.49 84.95,278.41 86.44,304.27 87.93,290.93 89.42,245.21 90.91,180.32 92.40,265.67 93.89,309.16 95.38,302.48 96.87,270.99 98.36,285.94 99.86,323.87 101.35,309.06 102.84,225.58 104.33,285.03 105.82,290.90 107.31,295.71 108.80,338.66 110.29,335.62 111.78,258.97 113.27,305.92 114.76,297.06 116.26,292.54 117.75,301.13 119.24,261.92 120.73,281.39 122.22,322.11 123.71,283.90 125.20,325.43 126.69,220.25 128.18,173.47 129.67,247.26 131.17,296.98 132.66,244.88 134.15,315.57 135.64,268.47 137.13,263.15 138.62,260.91 140.11,282.94 141.60,280.66 143.09,279.10 144.58,236.08 146.08,247.24 147.57,223.57 149.06,307.98 150.55,341.41 152.04,306.31 153.53,162.31 155.02,284.00 156.51,334.29 158.00,334.25 159.49,355.62 160.98,367.92 162.48,355.46 163.97,373.71 165.46,339.47 166.95,402.18 168.44,376.83 169.93,356.65 171.42,290.84 172.91,318.52 174.40,212.19 175.89,270.64 177.39,277.94 178.88,275.90 180.37,271.94 181.86,253.46 183.35,284.58 184.84,284.58 186.33,275.27 187.82,302.61 189.31,249.65 190.80,278.47 192.29,249.85 193.79,272.67 195.28,284.51 196.77,248.05 198.26,239.24 199.75,225.42 201.24,244.67 202.73,268.83 204.22,286.74 205.71,293.61 207.20,162.26 208.70,306.70 210.19,306.33 211.68,350.18 213.17,318.04 214.66,319.85 216.15,263.52 217.64,259.73 219.13,322.68 220.62,363.00 222.11,362.91 223.61,337.90 225.10,274.45 226.59,386.53 228.08,308.02 229.57,361.88 231.06,302.07 232.55,338.80 234.04,366.78 235.53,361.45 237.02,180.74 238.51,281.33 240.01,284.01 241.50,287.53 242.99,317.58 244.48,316.93 245.97,277.11 247.46,221.15 248.95,267.13 250.44,240.76 251.93,212.14 253.42,234.42 254.92,314.47 256.41,291.87 257.90,270.14 259.39,261.35 260.88,220.99 262.37,258.71 263.86,299.71 265.35,252.54 266.84,326.04 268.33,299.24 269.82,248.42 271.32,273.90 272.81,277.49 274.30,292.85 275.79,303.33 277.28,322.48 278.77,222.69 280.26,223.03 281.75,346.39 283.24,335.39 284.73,417.22 286.23,430.89 287.72,337.74 289.21,360.45 290.70,340.50 292.19,303.03 293.68,278.36 295.17,288.70 296.66,285.68 298.15,229.01 299.64,235.77 301.13,281.50 302.63,238.65 304.12,279.31 305.61,206.68 307.10,269.08 308.59,272.91 310.08,326.47 311.57,308.47 313.06,318.24 314.55,229.02 316.04,296.46 317.54,278.08 319.03,282.88 320.52,300.55 322.01,241.61 323.50,190.76 324.99,230.82 326.48,298.34 327.97,295.81 329.46,230.67 330.95,297.95 332.45,225.27 333.94,225.18 335.43,151.69 336.92,238.96 338.41,251.48 339.90,257.56 341.39,188.76 342.88,217.77 344.37,304.21 345.86,311.30 347.35,246.24 348.85,250.93 350.34,148.85 351.83,197.08 353.32,181.41 354.81,274.35 356.30,246.35 357.79,268.94 359.28,185.85 360.77,236.68 362.26,160.97 363.76,125.39 365.25,212.98 366.74,236.49 368.23,194.12 369.72,233.10 371.21,238.16 372.70,199.39 374.19,197.18 375.68,257.33 377.17,183.45 378.66,170.14 380.16,201.96 381.65,295.32 383.14,235.55 384.63,202.70 386.12,168.87 387.61,183.76 389.10,157.90 390.59,212.12 392.08,231.80 393.57,169.01 395.07,125.73 396.56,91.70 398.05,80.38 399.54,141.62 401.03,196.63 402.52,219.43 404.01,175.65 405.50,205.04 406.99,179.66 408.48,166.25 409.97,168.28 411.47,227.98 412.96,216.17 414.45,263.70 415.94,234.64 417.43,255.67 418.92,245.80 420.41,214.42 421.90,212.71 423.39,252.76 424.88,192.32 426.38,209.66 427.87,196.47 429.36,233.82 430.85,191.52 432.34,216.73 433.83,265.10 435.32,264.82 436.81,277.64 438.30,227.53 439.79,176.19 441.29,229.23 442.78,255.97 444.27,207.47 445.76,250.38 447.25,236.36 448.74,156.64 450.23,198.21 451.72,242.40 453.21,243.23 454.70,267.00 456.19,262.40 457.69,187.03 459.18,222.59 460.67,224.88 462.16,264.35 463.65,238.26 465.14,224.28 466.63,201.50 468.12,244.30 469.61,296.19 471.10,342.68 472.60,281.30 474.09,223.62 475.58,240.79 477.07,240.83 478.56,290.36 480.05,288.64 481.54,222.98 483.03,304.19 484.52,189.10 486.01,253.76 487.50,213.08 489.00,237.47 490.49,277.23 491.98,169.68 493.47,229.76 494.96,263.62 496.45,252.00 497.94,264.04 499.43,287.52 500.92,246.53 502.41,192.09 503.91,250.86 505.40,299.17 506.89,263.04 508.38,260.47 509.87,183.95 511.36,245.14 512.85,274.00 514.34,289.35 515.83,271.36 517.32,332.77 518.82,227.93 520.31,207.03 521.80,241.55 523.29,276.26 524.78,261.20 526.27,325.44 527.76,226.10 529.25,168.30 530.74,283.66 532.23,307.16 533.72,332.50 535.22,324.16 536.71,320.26 538.20,321.85 539.69,296.03 541.18,298.83 542.67,370.32 544.16,346.87 545.65,260.88 547.14,308.77 548.63,328.36 550.13,144.14 551.62,254.08 553.11,221.92 554.60,223.37 556.09,242.04 557.58,248.75 559.07,252.62 560.56,177.73 562.05,250.00 563.54,276.26 565.03,209.47 566.53,285.95 568.02,205.23 569.51,276.66 571.00,268.55 572.49,204.95 573.98,218.95 575.47,219.60 576.96,215.50 578.45,239.74 579.94,231.06 581.44,248.66 582.93,177.25 584.42,238.63 585.91,281.15 587.40,307.13 588.89,256.69 590.38,204.73 591.87,218.59 593.36,269.64 594.85,281.33 596.34,299.90 597.84,175.78 599.33,187.42 600.82,220.92 602.31,179.00 603.80,214.75 605.29,222.95 606.78,252.17 608.27,251.28 609.76,269.41 611.25,266.05 612.75,229.38 614.24,236.72 615.73,227.14 617.22,243.36 618.71,199.88 620.20,217.97 621.69,236.13 623.18,267.31 624.67,265.71 626.16,216.02 627.66,143.20 629.15,215.10 630.64,216.90 632.13,197.47 633.62,207.07 635.11,237.69 636.60,169.22 638.09,238.28 639.58,218.59 641.07,237.23 642.56,239.32 644.06,223.08 645.55,193.55 647.04,251.26 648.53,196.21 650.02,241.30 651.51,240.65 653.00,281.09 654.49,192.04 655.98,236.15 657.47,288.63 658.97,251.33 660.46,300.45 661.95,293.59 663.44,281.68 664.93,308.22 666.42,296.43 667.91,277.96 669.40,279.13 670.89,248.84 672.38,245.62 673.87,223.03 675.37,226.83 676.86,229.10 678.35,245.80 679.84,162.01 681.33,219.60 682.82,187.42 684.31,223.17 685.80,221.30 687.29,234.90 688.78,287.24 690.28,163.19 691.77,266.24 693.26,248.71 694.75,241.47 696.24,269.21 697.73,289.61 699.22,201.09 700.71,283.59 702.20,254.66 703.69,307.87 705.18,264.61 706.68,219.30 708.17,191.18 709.66,311.42 711.15,189.33 712.64,225.07 714.13,270.97 715.62,221.03 717.11,198.72 718.60,259.41 720.09,306.77 721.59,280.84 723.08,294.11 724.57,339.15 726.06,318.57 727.55,345.62 729.04,267.98 730.53,297.30 732.02,291.56 733.51,240.40 735.00,297.93 736.50,225.87 737.99,247.75 739.48,159.86 740.97,294.90 742.46,281.73 743.95,234.16 745.44,245.99 746.93,201.18 748.42,236.80 749.91,240.80 751.40,288.65 752.90,283.85 754.39,248.95 755.88,259.32 757.37,315.19 758.86,273.81 760.35,231.92 761.84,259.83 763.33,260.65 764.82,260.69 766.31,209.11 767.81,245.22 769.30,249.61 770.79,210.63 772.28,259.96 773.77,226.31 775.26,286.23 776.75,233.05 778.24,228.27 779.73,263.29 781.22,230.10 782.71,318.46 784.21,331.12 785.70,309.00 787.19,317.49 788.68,283.93 790.17,370.32 791.66,219.35 793.15,279.60 794.64,277.75 796.13,251.92 797.62,277.39 799.12,200.45 800.61,253.18 802.10,249.62 803.59,240.77 805.08,79.11 806.57,222.69 808.06,278.91 809.55,225.59 811.04,254.24 812.53,259.17 814.03,219.30 815.52,241.33 817.01,237.43 818.50,275.21 819.99,283.55 821.48,284.26 822.97,215.93 824.46,211.22 825.95,271.08 827.44,280.07 828.93,225.27 830.43,285.99 831.92,265.84 833.41,267.36 834.90,179.91 836.39,303.69 837.88,237.74 839.37,241.91 840.86,219.37 842.35,235.55 843.84,313.41 845.34,303.74 846.83,327.63 848.32,334.59 849.81,297.00 851.30,308.71 852.79,309.40 854.28,290.28 855.77,301.56 857.26,329.27 858.75,271.06 860.24,268.90 861.74,289.08 863.23,255.64 864.72,258.79 866.21,276.77 867.70,285.30 869.19,235.12 870.68,233.87 872.17,222.63 873.66,253.62 875.15,245.63 876.65,226.03 878.14,217.88 879.63,251.05 881.12,270.47 882.61,253.00 884.10,268.95 885.59,289.46 887.08,217.04 888.57,253.11 890.06,183.43 891.55,270.13 893.05,278.40 894.54,238.52 896.03,268.84 897.52,292.98 899.01,261.68 900.50,295.51 901.99,291.87 903.48,255.54 904.97,320.13 906.46,351.57 907.96,335.68 909.45,346.98 910.94,332.43 912.43,319.78 913.92,292.67 915.41,309.93 916.90,348.72 918.39,335.68 919.88,319.11 921.37,271.27 922.87,202.73 924.36,248.96 925.85,251.63 927.34,307.59 928.83,212.17 930.32,329.09 931.81,251.62 933.30,289.18 934.79,266.51 936.28,310.14 937.77,286.04 939.27,256.24 940.76,286.43 942.25,194.03 943.74,249.06 945.23,282.84 946.72,267.40 948.21,193.22 949.70,288.93 951.19,270.51 952.68,294.95 954.18,292.92 955.67,253.75 957.16,278.03 958.65,205.52 960.14,259.05 961.63,281.30 963.12,266.39 964.61,261.18 966.10,293.66 967.59,279.63 969.08,279.21 970.58,281.96 972.07,296.56 973.56,327.86 975.05,254.39 976.54,329.66 978.03,302.54 979.52,277.60 981.01,285.62 982.50,307.58 983.99,327.46 985.49,312.56 986.98,265.15 988.47,245.37 989.96,298.08 991.45,302.06 992.94,305.76 994.43,251.45 995.92,202.59 997.41,305.96 998.90,323.99 1000.39,230.73 1001.89,256.64 1003.38,212.56 1004.87,256.12 1006.36,213.79 1007.85,316.99 1009.34,291.63 1010.83,295.57 1012.32,275.68 1013.81,275.22 1015.30,285.69 1016.80,244.99 1018.29,275.24 1019.78,146.44 1021.27,227.01 1022.76,271.40 1024.25,257.32 1025.74,289.90 1027.23,309.25 1028.72,192.13 1030.21,229.19 1031.71,298.56 1033.20,264.75 1034.69,362.09 1036.18,260.04 1037.67,237.59 1039.16,321.91 1040.65,324.72 1042.14,320.79 1043.63,293.61 1045.12,285.90 1046.61,278.56 1048.11,241.81 1049.60,253.20 1051.09,244.59 1052.58,328.48 1054.07,203.50 1055.56,260.94 1057.05,216.04 1058.54,270.97 1060.03,282.89 1061.52,285.89 1063.02,245.52 1064.51,268.96 1066.00,203.94 1067.49,233.91 1068.98,240.16 1070.47,214.44 1071.96,280.03 1073.45,235.72 1074.94,257.27 1076.43,295.13 1077.92,269.92 1079.42,288.02 1080.91,316.77 1082.40,270.75 1083.89,225.91 1085.38,289.41 1086.87,280.32 1088.36,226.74 1089.85,253.98 1091.34,293.73 1092.83,259.98 1094.33,305.04 1095.82,370.22 1097.31,312.55 1098.80,340.61 1100.29,349.92 1101.78,305.83 1103.27,326.98 1104.76,350.03 1106.25,347.16 1107.74,333.77 1109.24,319.00 1110.73,299.95 1112.22,202.58 1113.71,246.04 1115.20,312.62 1116.69,291.10 1118.18,315.05 1119.67,288.82 1121.16,347.25 1122.65,292.22 1124.14,282.41 1125.64,269.31 1127.13,264.35 1128.62,271.25 1130.11,290.83 1131.60,251.51 1133.09,280.87 1134.58,329.76 1136.07,274.54 1137.56,239.07 1139.05,289.60 1140.55,252.47 1142.04,290.00 1143.53,305.55 1145.02,277.10 1146.51,298.22 1148.00,328.43" fill="none" stroke="#222222" stroke-width="1.6"/>
<polyline points="76.00,311.24 77.49,306.87 78.98,294.93 80.47,320.75 81.96,322.30 83.45,297.86 84.95,289.41 86.44,309.47 87.93,301.87 89.42,288.29 90.91,248.29 92.40,285.10 93.89,309.73 95.38,300.72 96.87,325.38 98.36,312.00 99.86,299.23 101.35,286.77 102.84,282.86 104.33,318.30 105.82,273.02 107.31,296.71 108.80,299.21 110.29,291.26 111.78,271.21 113.27,298.07 114.76,285.23 116.26,294.01 117.75,270.96 119.24,282.43 120.73,274.92 122.22,280.21 123.71,290.53 125.20,306.34 126.69,272.72 128.18,276.83 129.67,288.90 131.17,289.75 132.66,318.51 134.15,324.25 135.64,273.98 137.13,280.26 138.62,271.56 140.11,292.47 141.60,275.36 143.09,269.96 144.58,244.49 146.08,244.09 147.57,301.63 149.06,290.58 150.55,309.23 152.04,299.74 153.53,236.67 155.02,273.46 156.51,314.72 158.00,307.57 159.49,303.26 160.98,332.10 162.48,319.60 163.97,354.48 165.46,312.71 166.95,349.63 168.44,348.39 169.93,315.79 171.42,304.31 172.91,334.95 174.40,268.47 175.89,283.01 177.39,286.71 178.88,273.56 180.37,233.12 181.86,264.52 183.35,276.40 184.84,270.67 186.33,276.71 187.82,293.05 189.31,230.15 190.80,257.64 192.29,255.37 193.79,284.44 195.28,282.58 196.77,263.78 198.26,235.28 199.75,238.40 201.24,284.19 202.73,264.26 204.22,294.09 205.71,279.05 207.20,230.30 208.70,276.66 210.19,289.08 211.68,277.26 213.17,287.73 214.66,290.98 216.15,234.77 217.64,281.50 219.13,313.93 220.62,309.91 222.11,315.74 223.61,321.39 225.10,302.15 226.59,355.23 228.08,326.65 229.57,320.45 231.06,350.11 232.55,322.89 234.04,292.86 235.53,310.12 237.02,253.04 238.51,258.32 240.01,277.60 241.50,275.57 242.99,286.46 244.48,290.15 245.97,277.48 247.46,301.47 248.95,262.17 250.44,276.96 251.93,251.04 253.42,282.79 254.92,259.59 256.41,286.61 257.90,272.08 259.39,263.10 260.88,245.29 262.37,243.49 263.86,261.82 265.35,270.33 266.84,291.09 268.33,272.78 269.82,256.59 271.32,253.16 272.81,259.69 274.30,300.17 275.79,292.52 277.28,271.09 278.77,240.19 280.26,252.60 281.75,322.59 283.24,295.77 284.73,333.60 286.23,327.34 287.72,334.79 289.21,354.30 290.70,337.16 292.19,336.78 293.68,336.63 295.17,304.40 296.66,271.58 298.15,274.21 299.64,269.16 301.13,278.30 302.63,284.87 304.12,261.89 305.61,217.74 307.10,251.00 308.59,267.87 310.08,270.39 311.57,285.60 313.06,284.25 314.55,219.86 316.04,248.87 317.54,281.21 319.03,273.96 320.52,292.72 322.01,298.16 323.50,247.50 324.99,248.25 326.48,276.23 327.97,291.84 329.46,296.12 330.95,265.28 332.45,225.44 333.94,249.64 335.43,288.28 336.92,280.96 338.41,279.19 339.90,254.71 341.39,248.45 342.88,247.14 344.37,279.34 345.86,297.22 347.35,287.57 348.85,265.18 350.34,207.67 351.83,219.99 353.32,262.64 354.81,264.17 356.30,264.90 357.79,233.03 359.28,196.79 360.77,224.61 362.26,229.43 363.76,225.02 365.25,237.62 366.74,238.27 368.23,191.84 369.72,243.75 371.21,255.65 372.70,239.88 374.19,240.83 375.68,252.55 377.17,227.09 378.66,207.54 380.16,241.21 381.65,228.41 383.14,246.62 384.63,227.39 386.12,193.02 387.61,210.18 389.10,222.65 390.59,209.13 392.08,239.35 393.57,216.30 395.07,192.20 396.56,189.42 398.05,202.85 399.54,225.87 401.03,221.08 402.52,224.33 404.01,208.46 405.50,190.53 406.99,222.52 408.48,217.73 409.97,205.63 411.47,202.89 412.96,215.55 414.45,219.64 415.94,226.70 417.43,239.47 418.92,225.99 420.41,215.43 421.90,229.04 423.39,221.86 424.88,201.18 426.38,246.91 427.87,239.64 429.36,220.10 430.85,222.96 432.34,248.58 433.83,207.97 435.32,240.79 436.81,236.28 438.30,244.60 439.79,222.93 441.29,228.70 442.78,237.15 444.27,227.11 445.76,239.16 447.25,236.02 448.74,208.23 450.23,237.37 451.72,236.07 453.21,243.10 454.70,239.40 456.19,236.59 457.69,215.78 459.18,239.74 460.67,245.80 462.16,237.65 463.65,251.59 465.14,241.65 466.63,200.12 468.12,232.04 469.61,265.76 471.10,276.91 472.60,266.69 474.09,237.84 475.58,259.45 477.07,265.79 478.56,279.45 480.05,260.71 481.54,245.02 483.03,263.03 484.52,250.72 486.01,239.92 487.50,264.93 489.00,264.68 490.49,266.24 491.98,206.47 493.47,217.55 494.96,263.11 496.45,259.37 497.94,254.69 499.43,264.85 500.92,253.83 502.41,212.21 503.91,265.08 505.40,265.78 506.89,280.06 508.38,260.15 509.87,263.49 511.36,227.82 512.85,244.09 514.34,257.48 515.83,277.72 517.32,277.55 518.82,249.93 520.31,230.14 521.80,228.12 523.29,272.51 524.78,301.09 526.27,235.39 527.76,244.65 529.25,250.83 530.74,273.25 532.23,294.60 533.72,295.80 535.22,317.52 536.71,302.06 538.20,264.23 539.69,314.25 541.18,318.87 542.67,295.14 544.16,294.80 545.65,276.87 547.14,268.37 548.63,288.91 550.13,267.32 551.62,256.86 553.11,272.45 554.60,262.64 556.09,218.27 557.58,245.01 559.07,281.41 560.56,251.50 562.05,262.00 563.54,281.24 565.03,213.61 566.53,238.15 568.02,213.86 569.51,262.08 571.00,269.09 572.49,231.93 573.98,226.46 575.47,227.28 576.96,225.37 578.45,246.05 579.94,276.98 581.44,253.70 582.93,221.93 584.42,234.01 585.91,244.11 587.40,252.21 588.89,244.01 590.38,255.67 591.87,238.97 593.36,238.87 594.85,254.75 596.34,307.19 597.84,214.05 599.33,260.16 600.82,241.90 602.31,214.44 603.80,267.67 605.29,245.65 606.78,214.11 608.27,254.45 609.76,203.14 611.25,225.86 612.75,228.88 614.24,242.58 615.73,221.37 617.22,249.49 618.71,196.99 620.20,243.29 621.69,240.42 623.18,245.27 624.67,236.49 626.16,227.96 627.66,212.32 629.15,240.82 630.64,241.16 632.13,254.34 633.62,203.90 635.11,237.29 636.60,194.13 638.09,233.31 639.58,250.84 641.07,234.95 642.56,220.74 644.06,224.42 645.55,219.85 647.04,254.96 648.53,272.42 650.02,255.50 651.51,242.85 653.00,231.47 654.49,218.34 655.98,244.51 657.47,245.12 658.97,270.89 660.46,270.83 661.95,245.56 663.44,245.35 664.93,271.63 666.42,271.31 667.91,256.92 669.40,275.42 670.89,263.84 672.38,268.89 673.87,269.38 675.37,237.90 676.86,228.81 678.35,273.74 679.84,223.44 681.33,244.09 682.82,252.15 684.31,258.67 685.80,220.16 687.29,232.47 688.78,258.89 690.28,219.40 691.77,234.86 693.26,271.08 694.75,258.25 696.24,270.50 697.73,268.01 699.22,218.32 700.71,248.77 702.20,251.98 703.69,249.21 705.18,278.92 706.68,234.37 708.17,222.28 709.66,251.17 711.15,230.97 712.64,263.05 714.13,242.74 715.62,246.45 717.11,206.68 718.60,262.24 720.09,265.46 721.59,264.64 723.08,260.48 724.57,300.62 726.06,268.88 727.55,303.99 729.04,293.97 730.53,276.05 732.02,315.23 733.51,277.28 735.00,281.27 736.50,247.53 737.99,246.15 739.48,278.69 740.97,257.53 742.46,250.38 743.95,219.81 745.44,251.62 746.93,256.88 748.42,238.70 749.91,269.82 751.40,262.76 752.90,244.52 754.39,263.04 755.88,240.68 757.37,256.75 758.86,270.57 760.35,225.61 761.84,232.23 763.33,254.63 764.82,264.55 766.31,269.13 767.81,267.49 769.30,261.73 770.79,222.64 772.28,249.56 773.77,264.00 775.26,263.91 776.75,253.08 778.24,275.07 779.73,251.34 781.22,257.40 782.71,273.02 784.21,285.88 785.70,275.55 787.19,280.41 788.68,261.30 790.17,296.80 791.66,227.69 793.15,267.02 794.64,272.71 796.13,260.85 797.62,270.00 799.12,262.69 800.61,244.83 802.10,273.09 803.59,223.87 805.08,250.84 806.57,230.79 808.06,256.43 809.55,275.88 811.04,285.68 812.53,271.86 814.03,245.79 815.52,217.18 817.01,236.34 818.50,259.34 819.99,288.23 821.48,232.14 822.97,254.58 824.46,243.80 825.95,259.81 827.44,258.66 828.93,277.68 830.43,249.59 831.92,265.44 833.41,271.81 834.90,266.94 836.39,275.59 837.88,280.07 839.37,276.87 840.86,247.99 842.35,251.59 843.84,271.47 845.34,281.22 846.83,287.16 848.32,288.02 849.81,316.64 851.30,290.35 852.79,296.07 854.28,288.92 855.77,291.14 857.26,292.80 858.75,283.69 860.24,273.61 861.74,287.23 863.23,198.96 864.72,273.82 866.21,290.62 867.70,257.65 869.19,227.50 870.68,269.53 872.17,254.10 873.66,259.13 875.15,258.25 876.65,252.69 878.14,236.78 879.63,261.86 881.12,276.37 882.61,292.41 884.10,269.05 885.59,258.87 887.08,253.38 888.57,257.36 890.06,238.02 891.55,265.82 893.05,270.10 894.54,235.44 896.03,222.19 897.52,251.57 899.01,275.84 900.50,258.60 901.99,269.58 903.48,279.58 904.97,260.17 906.46,313.10 907.96,306.67 909.45,308.73 910.94,324.00 912.43,321.98 913.92,310.06 915.41,316.64 916.90,318.82 918.39,324.82 919.88,278.92 921.37,292.35 922.87,315.35 924.36,275.44 925.85,256.55 927.34,258.54 928.83,272.92 930.32,263.14 931.81,254.06 933.30,280.13 934.79,240.25 936.28,278.32 937.77,292.57 939.27,257.10 940.76,252.81 942.25,285.55 943.74,265.13 945.23,272.62 946.72,282.29 948.21,240.06 949.70,227.88 951.19,256.22 952.68,271.68 954.18,271.61 955.67,287.86 957.16,285.07 958.65,242.40 960.14,254.04 961.63,256.98 963.12,303.87 964.61,306.09 966.10,302.20 967.59,230.34 969.08,300.14 970.58,303.61 972.07,313.53 973.56,314.52 975.05,318.53 976.54,303.87 978.03,280.02 979.52,280.98 981.01,263.49 982.50,295.18 983.99,280.03 985.49,297.69 986.98,314.96 988.47,261.75 989.96,302.62 991.45,294.07 992.94,303.41 994.43,266.91 995.92,274.68 997.41,264.48 998.90,271.95 1000.39,282.10 1001.89,257.63 1003.38,225.62 1004.87,259.54 1006.36,275.26 1007.85,280.87 1009.34,277.30 1010.83,259.11 1012.32,246.42 1013.81,260.20 1015.30,220.67 1016.80,286.84 1018.29,296.60 1019.78,259.61 1021.27,223.00 1022.76,241.22 1024.25,286.27 1025.74,298.36 1027.23,298.17 1028.72,263.71 1030.21,232.43 1031.71,262.55 1033.20,277.80 1034.69,295.75 1036.18,251.80 1037.67,283.56 1039.16,274.59 1040.65,282.52 1042.14,287.13 1043.63,312.90 1045.12,259.57 1046.61,268.77 1048.11,270.48 1049.60,278.60 1051.09,261.54 1052.58,289.03 1054.07,255.67 1055.56,249.04 1057.05,229.74 1058.54,260.49 1060.03,283.90 1061.52,283.39 1063.02,270.35 1064.51,245.69 1066.00,254.82 1067.49,247.86 1068.98,271.33 1070.47,277.83 1071.96,266.85 1073.45,251.07 1074.94,258.02 1076.43,255.27 1077.92,252.00 1079.42,273.80 1080.91,265.22 1082.40,271.68 1083.89,240.79 1085.38,285.69 1086.87,292.82 1088.36,273.49 1089.85,271.24 1091.34,292.25 1092.83,260.35 1094.33,317.15 1095.82,290.43 1097.31,317.13 1098.80,330.60 1100.29,304.37 1101.78,297.04 1103.27,342.82 1104.76,315.21 1106.25,311.06 1107.74,325.25 1109.24,313.54 1110.73,288.44 1112.22,303.06 1113.71,261.53 1115.20,273.50 1116.69,276.83 1118.18,280.50 1119.67,270.15 1121.16,267.81 1122.65,285.66 1124.14,268.17 1125.64,268.30 1127.13,270.52 1128.62,278.79 1130.11,288.35 1131.60,316.20 1133.09,276.83 1134.58,290.83 1136.07,283.14 1137.56,267.39 1139.05,286.67 1140.55,290.78 1142.04,247.59 1143.53,299.00 1145.02,286.54 1146.51,270.12 1148.00,302.38" fill="none" stroke="#b45f06" stroke-width="1.6"/>
<polyline points="76.00,325.20 77.49,319.63 78.98,301.96 80.47,339.81 81.96,318.04 83.45,304.20 84.95,300.39 86.44,290.02 87.93,283.41 89.42,288.24 90.91,240.38 92.40,276.23 93.89,276.87 95.38,291.55 96.87,265.42 98.36,330.00 99.86,302.33 101.35,319.08 102.84,328.81 104.33,290.87 105.82,286.39 107.31,284.73 108.80,304.98 110.29,306.97 111.78,260.53 113.27,316.62 114.76,326.41 116.26,278.85 117.75,245.32 119.24,272.21 120.73,275.15 122.22,283.87 123.71,270.58 125.20,305.38 126.69,244.18 128.18,282.48 129.67,281.48 131.17,297.82 132.66,311.25 134.15,312.89 135.64,231.34 137.13,267.01 138.62,267.32 140.11,285.48 141.60,280.28 143.09,281.18 144.58,245.42 146.08,259.06 147.57,291.57 149.06,294.36 150.55,266.03 152.04,301.63 153.53,204.08 155.02,267.36 156.51,338.49 158.00,310.42 159.49,315.67 160.98,330.31 162.48,357.11 163.97,341.77 165.46,323.14 166.95,363.39 168.44,353.49 169.93,335.84 171.42,303.46 172.91,325.98 174.40,270.79 175.89,284.20 177.39,271.99 178.88,275.81 180.37,262.09 181.86,269.90 183.35,279.64 184.84,286.42 186.33,288.45 187.82,296.72 189.31,240.16 190.80,282.55 192.29,257.73 193.79,293.89 195.28,276.31 196.77,286.13 198.26,231.26 199.75,253.46 201.24,282.73 202.73,259.64 204.22,286.11 205.71,293.75 207.20,200.56 208.70,249.54 210.19,294.44 211.68,310.60 213.17,292.88 214.66,299.37 216.15,241.14 217.64,271.90 219.13,312.81 220.62,319.16 222.11,315.75 223.61,332.53 225.10,296.58 226.59,345.64 228.08,350.42 229.57,310.04 231.06,354.60 232.55,334.56 234.04,331.85 235.53,334.18 237.02,241.80 238.51,290.05 240.01,303.43 241.50,281.13 242.99,290.29 244.48,299.99 245.97,269.01 247.46,298.41 248.95,297.56 250.44,307.75 251.93,229.84 253.42,270.14 254.92,239.28 256.41,277.78 257.90,247.78 259.39,265.04 260.88,229.45 262.37,205.26 263.86,247.28 265.35,277.21 266.84,296.53 268.33,272.87 269.82,224.83 271.32,249.18 272.81,300.77 274.30,285.55 275.79,306.88 277.28,313.16 278.77,223.34 280.26,261.54 281.75,324.89 283.24,297.14 284.73,311.41 286.23,343.41 287.72,341.88 289.21,352.89 290.70,340.40 292.19,309.50 293.68,338.66 295.17,319.92 296.66,272.00 298.15,260.51 299.64,266.27 301.13,270.72 302.63,266.41 304.12,275.36 305.61,213.35 307.10,265.61 308.59,269.59 310.08,284.14 311.57,312.90 313.06,302.29 314.55,255.97 316.04,264.68 317.54,291.48 319.03,296.11 320.52,301.04 322.01,263.32 323.50,230.67 324.99,234.98 326.48,290.82 327.97,293.37 329.46,296.07 330.95,285.09 332.45,202.41 333.94,235.35 335.43,285.58 336.92,269.89 338.41,243.11 339.90,233.87 341.39,213.39 342.88,247.29 344.37,253.50 345.86,303.18 347.35,275.91 348.85,284.71 350.34,247.52 351.83,210.59 353.32,222.92 354.81,262.84 356.30,249.78 357.79,248.55 359.28,201.71 360.77,237.11 362.26,186.46 363.76,177.81 365.25,242.58 366.74,241.92 368.23,209.48 369.72,232.37 371.21,233.09 372.70,242.10 374.19,242.36 375.68,268.97 377.17,190.62 378.66,188.64 380.16,225.55 381.65,215.09 383.14,237.66 384.63,234.77 386.12,180.51 387.61,199.39 389.10,220.09 390.59,232.67 392.08,221.06 393.57,198.92 395.07,175.99 396.56,205.16 398.05,180.82 399.54,204.71 401.03,206.29 402.52,217.09 404.01,184.62 405.50,195.73 406.99,216.54 408.48,232.03 409.97,182.28 411.47,229.27 412.96,205.11 414.45,232.49 415.94,217.49 417.43,237.88 418.92,250.52 420.41,220.61 421.90,226.95 423.39,245.43 424.88,181.11 426.38,246.15 427.87,235.61 429.36,232.98 430.85,207.79 432.34,251.73 433.83,243.01 435.32,244.29 436.81,244.20 438.30,230.72 439.79,201.00 441.29,233.22 442.78,259.01 444.27,221.94 445.76,247.33 447.25,250.60 448.74,178.39 450.23,227.04 451.72,233.59 453.21,261.90 454.70,263.46 456.19,249.45 457.69,206.98 459.18,213.07 460.67,255.45 462.16,253.67 463.65,248.27 465.14,239.96 466.63,198.75 468.12,247.24 469.61,270.62 471.10,283.19 472.60,267.20 474.09,236.72 475.58,236.72 477.07,305.23 478.56,287.50 480.05,239.49 481.54,238.21 483.03,293.34 484.52,246.41 486.01,232.43 487.50,258.14 489.00,277.11 490.49,274.87 491.98,226.44 493.47,208.04 494.96,272.57 496.45,250.91 497.94,270.76 499.43,260.53 500.92,239.21 502.41,216.74 503.91,236.22 505.40,272.95 506.89,274.80 508.38,271.97 509.87,214.23 511.36,210.63 512.85,240.42 514.34,269.65 515.83,267.52 517.32,303.44 518.82,258.07 520.31,221.16 521.80,242.07 523.29,297.03 524.78,276.44 526.27,283.11 527.76,247.77 529.25,215.12 530.74,263.91 532.23,291.02 533.72,260.82 535.22,304.09 536.71,298.32 538.20,266.92 539.69,317.58 541.18,284.08 542.67,264.64 544.16,330.17 545.65,302.79 547.14,267.04 548.63,324.29 550.13,287.01 551.62,266.40 553.11,269.21 554.60,278.33 556.09,254.36 557.58,248.04 559.07,237.48 560.56,233.49 562.05,262.66 563.54,271.82 565.03,216.67 566.53,247.79 568.02,249.44 569.51,249.36 571.00,253.78 572.49,273.81 573.98,218.79 575.47,230.48 576.96,222.34 578.45,241.12 579.94,273.12 581.44,254.14 582.93,204.24 584.42,220.79 585.91,267.55 587.40,251.55 588.89,243.57 590.38,216.44 591.87,231.75 593.36,255.79 594.85,268.10 596.34,260.23 597.84,203.14 599.33,257.49 600.82,232.66 602.31,206.07 603.80,248.26 605.29,249.23 606.78,249.13 608.27,267.88 609.76,234.75 611.25,243.07 612.75,230.10 614.24,251.06 615.73,221.30 617.22,253.41 618.71,185.62 620.20,243.08 621.69,230.59 623.18,253.16 624.67,265.14 626.16,213.91 627.66,196.01 629.15,224.27 630.64,243.17 632.13,223.25 633.62,211.17 635.11,239.33 636.60,181.10 638.09,229.59 639.58,234.57 641.07,268.93 642.56,205.94 644.06,231.25 645.55,206.96 647.04,244.22 648.53,242.30 650.02,258.83 651.51,241.55 653.00,233.30 654.49,207.64 655.98,258.69 657.47,264.48 658.97,261.31 660.46,256.51 661.95,241.08 663.44,257.13 664.93,263.49 666.42,284.73 667.91,293.45 669.40,286.74 670.89,256.50 672.38,302.66 673.87,276.01 675.37,241.56 676.86,220.67 678.35,239.29 679.84,234.50 681.33,240.20 682.82,216.35 684.31,277.38 685.80,236.23 687.29,232.63 688.78,270.95 690.28,229.16 691.77,239.21 693.26,287.55 694.75,261.53 696.24,236.40 697.73,275.24 699.22,218.54 700.71,278.51 702.20,256.56 703.69,255.13 705.18,268.89 706.68,252.23 708.17,215.04 709.66,258.51 711.15,273.21 712.64,251.76 714.13,275.68 715.62,245.37 717.11,219.63 718.60,270.15 720.09,262.40 721.59,284.91 723.08,253.88 724.57,297.50 726.06,286.12 727.55,325.33 729.04,279.04 730.53,303.44 732.02,293.63 733.51,294.24 735.00,292.92 736.50,297.98 737.99,250.93 739.48,214.08 740.97,248.41 742.46,262.96 743.95,272.99 745.44,275.55 746.93,240.30 748.42,227.79 749.91,252.02 751.40,286.16 752.90,231.39 754.39,264.87 755.88,264.25 757.37,248.78 758.86,268.39 760.35,213.90 761.84,245.17 763.33,255.52 764.82,262.07 766.31,244.51 767.81,223.98 769.30,263.95 770.79,225.31 772.28,220.28 773.77,246.23 775.26,274.02 776.75,230.56 778.24,228.13 779.73,235.80 781.22,248.88 782.71,299.41 784.21,302.11 785.70,280.63 787.19,322.02 788.68,264.00 790.17,317.94 791.66,240.61 793.15,285.95 794.64,291.25 796.13,265.89 797.62,278.46 799.12,257.57 800.61,253.20 802.10,270.20 803.59,235.33 805.08,158.01 806.57,229.58 808.06,263.73 809.55,247.98 811.04,282.12 812.53,260.30 814.03,244.34 815.52,231.02 817.01,259.30 818.50,258.44 819.99,274.58 821.48,258.67 822.97,246.60 824.46,221.23 825.95,233.13 827.44,267.60 828.93,262.03 830.43,256.89 831.92,256.66 833.41,236.39 834.90,263.04 836.39,278.86 837.88,258.08 839.37,250.26 840.86,263.67 842.35,241.79 843.84,268.83 845.34,270.84 846.83,286.15 848.32,295.58 849.81,327.49 851.30,232.25 852.79,299.84 854.28,271.54 855.77,266.19 857.26,292.30 858.75,261.72 860.24,292.62 861.74,305.60 863.23,273.46 864.72,273.66 866.21,270.22 867.70,248.38 869.19,243.83 870.68,273.53 872.17,253.81 873.66,262.89 875.15,263.45 876.65,266.65 878.14,232.19 879.63,264.80 881.12,262.94 882.61,257.28 884.10,254.95 885.59,278.04 887.08,247.20 888.57,250.66 890.06,265.96 891.55,258.42 893.05,268.07 894.54,254.29 896.03,246.03 897.52,277.53 899.01,268.15 900.50,272.10 901.99,263.29 903.48,297.02 904.97,323.39 906.46,323.01 907.96,302.93 909.45,330.58 910.94,359.59 912.43,297.53 913.92,302.36 915.41,310.09 916.90,330.01 918.39,345.50 919.88,301.18 921.37,337.40 922.87,247.34 924.36,290.09 925.85,247.93 927.34,292.60 928.83,263.08 930.32,282.11 931.81,284.00 933.30,287.23 934.79,272.35 936.28,293.14 937.77,289.75 939.27,252.08 940.76,248.12 942.25,230.71 943.74,207.67 945.23,270.82 946.72,265.02 948.21,267.66 949.70,246.20 951.19,274.76 952.68,260.62 954.18,286.68 955.67,308.64 957.16,282.90 958.65,207.75 960.14,255.74 961.63,272.21 963.12,299.75 964.61,263.13 966.10,271.54 967.59,232.65 969.08,271.61 970.58,281.30 972.07,293.19 973.56,298.86 975.05,329.77 976.54,289.62 978.03,268.24 979.52,265.53 981.01,293.67 982.50,314.26 983.99,279.00 985.49,290.12 986.98,337.72 988.47,261.05 989.96,289.63 991.45,289.64 992.94,289.03 994.43,262.47 995.92,234.43 997.41,256.07 998.90,289.71 1000.39,277.67 1001.89,273.13 1003.38,244.67 1004.87,238.92 1006.36,285.25 1007.85,300.52 1009.34,260.01 1010.83,269.93 1012.32,234.79 1013.81,249.60 1015.30,273.25 1016.80,298.77 1018.29,277.98 1019.78,275.49 1021.27,233.35 1022.76,267.19 1024.25,264.61 1025.74,291.16 1027.23,301.01 1028.72,270.00 1030.21,245.73 1031.71,269.81 1033.20,254.54 1034.69,290.64 1036.18,260.63 1037.67,248.74 1039.16,288.58 1040.65,275.28 1042.14,297.75 1043.63,303.23 1045.12,264.37 1046.61,272.99 1048.11,261.19 1049.60,291.78 1051.09,284.24 1052.58,288.01 1054.07,246.10 1055.56,292.88 1057.05,229.83 1058.54,276.40 1060.03,289.20 1061.52,276.46 1063.02,264.34 1064.51,258.06 1066.00,252.38 1067.49,215.80 1068.98,257.22 1070.47,259.06 1071.96,267.28 1073.45,258.28 1074.94,265.47 1076.43,250.36 1077.92,260.08 1079.42,276.95 1080.91,304.06 1082.40,274.92 1083.89,237.48 1085.38,277.76 1086.87,296.71 1088.36,259.82 1089.85,288.98 1091.34,257.60 1092.83,254.04 1094.33,316.88 1095.82,332.41 1097.31,306.58 1098.80,332.76 1100.29,320.21 1101.78,341.34 1103.27,334.54 1104.76,350.43 1106.25,318.04 1107.74,347.31 1109.24,331.00 1110.73,298.72 1112.22,275.03 1113.71,271.41 1115.20,315.30 1116.69,287.71 1118.18,308.66 1119.67,242.20 1121.16,274.94 1122.65,276.04 1124.14,291.77 1125.64,279.17 1127.13,283.73 1128.62,280.37 1130.11,302.78 1131.60,322.32 1133.09,257.68 1134.58,302.88 1136.07,296.56 1137.56,259.85 1139.05,264.65 1140.55,284.81 1142.04,292.66 1143.53,283.04 1145.02,274.37 1146.51,280.52 1148.00,306.67" fill="none" stroke="#2a6fbb" stroke-width="1.6"/>
<text x="76.00" y="485" text-anchor="middle" font-family="Arial, sans-serif" font-size="10">2026-01-01 00:00</text>
<text x="344.37" y="485" text-anchor="middle" font-family="Arial, sans-serif" font-size="10">2026-01-30 23:40</text>
<text x="612.75" y="485" text-anchor="middle" font-family="Arial, sans-serif" font-size="10">2026-03-01 23:25</text>
<text x="881.12" y="485" text-anchor="middle" font-family="Arial, sans-serif" font-size="10">2026-03-31 23:05</text>
<text x="1148.00" y="485" text-anchor="middle" font-family="Arial, sans-serif" font-size="10">2026-04-30 19:55</text>
<g><line x1="960.00" y1="30.00" x2="988.00" y2="30.00" stroke="#222222" stroke-width="2.2" stroke-dasharray="6,4"/><text x="996.00" y="34.00" font-family="Arial, sans-serif" font-size="12">real</text></g>
<g><line x1="960.00" y1="48.00" x2="988.00" y2="48.00" stroke="#b45f06" stroke-width="2.2" stroke-dasharray="6,4"/><text x="996.00" y="52.00" font-family="Arial, sans-serif" font-size="12">tau137_m14 k=200</text></g>
<g><line x1="960.00" y1="66.00" x2="988.00" y2="66.00" stroke="#2a6fbb" stroke-width="2.2" stroke-dasharray="6,4"/><text x="996.00" y="70.00" font-family="Arial, sans-serif" font-size="12">tau137_m5 k=200</text></g>
<text x="612.00" y="510" text-anchor="middle" font-family="Arial, sans-serif" font-size="13">tiempo</text>
<text transform="translate(18,255.0) rotate(-90)" text-anchor="middle" font-family="Arial, sans-serif" font-size="13">log RV futura</text>
</svg>