<svg xmlns="http://www.w3.org/2000/svg" width="1080" height="460" viewBox="0 0 1080 460">
<rect x="0" y="0" width="1080" height="460" fill="#ffffff"/>
<text x="540.0" y="28" text-anchor="middle" font-family="Arial, sans-serif" font-size="18" font-weight="700">Prediccion test corta t=9874-9923 logistic_noise_moderate</text>
<rect x="76" y="58" width="974.00" height="340.00" fill="none" stroke="#222222"/>
<line x1="76" y1="398.00" x2="1050.00" y2="398.00" stroke="#e8e8e8"/>
<text x="68" y="402.00" text-anchor="end" font-family="Arial, sans-serif" font-size="11">-0.08</text>
<line x1="76" y1="313.00" x2="1050.00" y2="313.00" stroke="#e8e8e8"/>
<text x="68" y="317.00" text-anchor="end" font-family="Arial, sans-serif" font-size="11">0.21</text>
<line x1="76" y1="228.00" x2="1050.00" y2="228.00" stroke="#e8e8e8"/>
<text x="68" y="232.00" text-anchor="end" font-family="Arial, sans-serif" font-size="11">0.5</text>
<line x1="76" y1="143.00" x2="1050.00" y2="143.00" stroke="#e8e8e8"/>
<text x="68" y="147.00" text-anchor="end" font-family="Arial, sans-serif" font-size="11">0.79</text>
<line x1="76" y1="58.00" x2="1050.00" y2="58.00" stroke="#e8e8e8"/>
<text x="68" y="62.00" text-anchor="end" font-family="Arial, sans-serif" font-size="11">1.08</text>
<polyline points="76.00,357.16 95.88,310.72 115.76,207.31 135.63,91.69 155.51,346.77 175.39,283.86 195.27,114.48 215.14,274.54 235.02,115.93 254.90,277.95 274.78,125.49 294.65,265.65 314.53,82.10 334.41,337.04 354.29,243.13 374.16,83.33 394.04,369.10 413.92,334.46 433.80,263.06 453.67,94.87 473.55,313.88 493.43,197.49 513.31,102.97 533.18,340.59 553.06,239.19 572.94,81.45 592.82,366.21 612.69,374.55 632.57,373.09 652.45,366.82 672.33,322.66 692.20,203.42 712.08,89.34 731.96,328.93 751.84,229.88 771.71,81.45 791.59,374.55 811.47,372.49 831.35,369.80 851.22,366.29 871.10,365.78 890.98,342.85 910.86,255.28 930.73,92.51 950.61,329.26 970.49,203.53 990.37,83.50 1010.24,374.55 1030.12,334.02 1050.00,259.32" fill="none" stroke="#222222" stroke-width="1.6"/>
<polyline points="76.00,371.79 95.88,357.16 115.76,310.72 135.63,207.31 155.51,91.69 175.39,346.77 195.27,283.86 215.14,114.48 235.02,274.54 254.90,115.93 274.78,277.95 294.65,125.49 314.53,265.65 334.41,82.10 354.29,337.04 374.16,243.13 394.04,83.33 413.92,369.10 433.80,334.46 453.67,263.06 473.55,94.87 493.43,313.88 513.31,197.49 533.18,102.97 553.06,340.59 572.94,239.19 592.82,81.45 612.69,366.21 632.57,374.55 652.45,373.09 672.33,366.82 692.20,322.66 712.08,203.42 731.96,89.34 751.84,328.93 771.71,229.88 791.59,81.45 811.47,374.55 831.35,372.49 851.22,369.80 871.10,366.29 890.98,365.78 910.86,342.85 930.73,255.28 950.61,92.51 970.49,329.26 990.37,203.53 1010.24,83.50 1030.12,374.55 1050.00,334.02" fill="none" stroke="#6f7f8f" stroke-width="1.6"/>
<polyline points="76.00,227.95 95.88,227.95 115.76,227.95 135.63,227.95 155.51,227.95 175.39,227.95 195.27,227.95 215.14,227.95 235.02,227.95 254.90,227.95 274.78,227.95 294.65,227.95 314.53,227.95 334.41,227.95 354.29,227.95 374.16,227.95 394.04,227.95 413.92,227.95 433.80,227.95 453.67,227.95 473.55,227.95 493.43,227.95 513.31,227.95 533.18,227.95 553.06,227.95 572.94,227.95 592.82,227.95 612.69,227.95 632.57,227.95 652.45,227.95 672.33,227.95 692.20,227.95 712.08,227.95 731.96,227.95 751.84,227.95 771.71,227.95 791.59,227.95 811.47,227.95 831.35,227.95 851.22,227.95 871.10,227.95 890.98,227.95 910.86,227.95 930.73,227.95 950.61,227.95 970.49,227.95 990.37,227.95 1010.24,227.95 1030.12,227.95 1050.00,227.95" fill="none" stroke="#2a6fbb" stroke-width="1.6"/>
<polyline points="76.00,351.99 95.88,321.77 115.76,168.19 135.63,89.93 155.51,324.62 175.39,288.28 195.27,128.12 215.14,278.37 235.02,114.17 254.90,295.04 274.78,112.50 294.65,223.98 314.53,99.78 334.41,343.24 354.29,285.52 374.16,89.65 394.04,324.81 413.92,334.93 433.80,248.99 453.67,104.57 473.55,310.70 493.43,186.05 513.31,88.20 533.18,288.87 553.06,260.30 572.94,91.45 592.82,344.89 612.69,335.37 632.57,351.34 652.45,350.99 672.33,336.05 692.20,227.50 712.08,93.18 731.96,280.48 751.84,223.81 771.71,87.99 791.59,319.98 811.47,304.09 831.35,346.80 851.22,362.76 871.10,311.18 890.98,329.27 910.86,280.37 930.73,106.17 950.61,317.42 970.49,236.79 990.37,100.17 1010.24,327.57 1030.12,339.13 1050.00,319.17" fill="none" stroke="#b45f06" stroke-width="1.6"/>
<g><line x1="870.00" y1="28.00" x2="898.00" y2="28.00" stroke="#222222" stroke-width="2"/><text x="906.00" y="32.00" font-family="Arial, sans-serif" font-size="12">real</text></g>
<g><line x1="870.00" y1="46.00" x2="898.00" y2="46.00" stroke="#6f7f8f" stroke-width="2"/><text x="906.00" y="50.00" font-family="Arial, sans-serif" font-size="12">persistencia</text></g>
<g><line x1="870.00" y1="64.00" x2="898.00" y2="64.00" stroke="#2a6fbb" stroke-width="2"/><text x="906.00" y="68.00" font-family="Arial, sans-serif" font-size="12">AR(0) / media</text></g>
<g><line x1="870.00" y1="82.00" x2="898.00" y2="82.00" stroke="#b45f06" stroke-width="2"/><text x="906.00" y="86.00" font-family="Arial, sans-serif" font-size="12">kNN k=5</text></g>
<line x1="76.00" y1="398.00" x2="76.00" y2="403.00" stroke="#222222"/>
<text x="76.00" y="422" text-anchor="middle" font-family="Arial, sans-serif" font-size="10">9874</text>
<line x1="314.53" y1="398.00" x2="314.53" y2="403.00" stroke="#222222"/>
<text x="314.53" y="422" text-anchor="middle" font-family="Arial, sans-serif" font-size="10">9886</text>
<line x1="572.94" y1="398.00" x2="572.94" y2="403.00" stroke="#222222"/>
<text x="572.94" y="422" text-anchor="middle" font-family="Arial, sans-serif" font-size="10">9899</text>
<line x1="811.47" y1="398.00" x2="811.47" y2="403.00" stroke="#222222"/>
<text x="811.47" y="422" text-anchor="middle" font-family="Arial, sans-serif" font-size="10">9911</text>
<line x1="1050.00" y1="398.00" x2="1050.00" y2="403.00" stroke="#222222"/>
<text x="1050.00" y="422" text-anchor="middle" font-family="Arial, sans-serif" font-size="10">9923</text>
<text x="563.00" y="450" text-anchor="middle" font-family="Arial, sans-serif" font-size="13">t</text>
<text transform="translate(18,228.0) rotate(-90)" text-anchor="middle" font-family="Arial, sans-serif" font-size="13">x[t+1]</text>
</svg>