<svg xmlns="http://www.w3.org/2000/svg" width="1080" height="460" viewBox="0 0 1080 460">
<rect x="0" y="0" width="1080" height="460" fill="#ffffff"/>
<text x="540.0" y="28" text-anchor="middle" font-family="Arial, sans-serif" font-size="18" font-weight="700">Prediccion test corta t=9215-9264 logistic_noise_moderate</text>
<rect x="76" y="58" width="974.00" height="340.00" fill="none" stroke="#222222"/>
<line x1="76" y1="398.00" x2="1050.00" y2="398.00" stroke="#e8e8e8"/>
<text x="68" y="402.00" text-anchor="end" font-family="Arial, sans-serif" font-size="11">-0.0799</text>
<line x1="76" y1="313.00" x2="1050.00" y2="313.00" stroke="#e8e8e8"/>
<text x="68" y="317.00" text-anchor="end" font-family="Arial, sans-serif" font-size="11">0.21</text>
<line x1="76" y1="228.00" x2="1050.00" y2="228.00" stroke="#e8e8e8"/>
<text x="68" y="232.00" text-anchor="end" font-family="Arial, sans-serif" font-size="11">0.5</text>
<line x1="76" y1="143.00" x2="1050.00" y2="143.00" stroke="#e8e8e8"/>
<text x="68" y="147.00" text-anchor="end" font-family="Arial, sans-serif" font-size="11">0.789</text>
<line x1="76" y1="58.00" x2="1050.00" y2="58.00" stroke="#e8e8e8"/>
<text x="68" y="62.00" text-anchor="end" font-family="Arial, sans-serif" font-size="11">1.08</text>
<polyline points="76.00,228.73 95.88,82.97 115.76,367.90 135.63,319.17 155.51,219.99 175.39,86.51 195.27,367.28 215.14,328.94 235.02,212.72 254.90,81.45 274.78,368.26 294.65,342.57 314.53,273.02 334.41,108.92 354.29,272.42 374.16,105.27 394.04,278.01 413.92,111.95 433.80,262.72 453.67,97.21 473.55,323.88 493.43,220.56 513.31,85.08 533.18,370.54 553.06,343.85 572.94,260.04 592.82,84.20 612.69,337.15 632.57,233.81 652.45,95.22 672.33,369.10 692.20,374.55 712.08,359.44 731.96,312.65 751.84,179.42 771.71,113.85 791.59,249.17 811.47,85.58 831.35,356.58 851.22,289.52 871.10,136.04 890.98,220.65 910.86,82.43 930.73,372.33 950.61,374.55 970.49,374.55 990.37,374.16 1010.24,366.43 1030.12,355.56 1050.00,262.38" fill="none" stroke="#222222" stroke-width="1.6"/>
<polyline points="76.00,332.16 95.88,228.73 115.76,82.97 135.63,367.90 155.51,319.17 175.39,219.99 195.27,86.51 215.14,367.28 235.02,328.94 254.90,212.72 274.78,81.45 294.65,368.26 314.53,342.57 334.41,273.02 354.29,108.92 374.16,272.42 394.04,105.27 413.92,278.01 433.80,111.95 453.67,262.72 473.55,97.21 493.43,323.88 513.31,220.56 533.18,85.08 553.06,370.54 572.94,343.85 592.82,260.04 612.69,84.20 632.57,337.15 652.45,233.81 672.33,95.22 692.20,369.10 712.08,374.55 731.96,359.44 751.84,312.65 771.71,179.42 791.59,113.85 811.47,249.17 831.35,85.58 851.22,356.58 871.10,289.52 890.98,136.04 910.86,220.65 930.73,82.43 950.61,372.33 970.49,374.55 990.37,374.55 1010.24,374.16 1030.12,366.43 1050.00,355.56" fill="none" stroke="#6f7f8f" stroke-width="1.6"/>
<polyline points="76.00,227.82 95.88,227.82 115.76,227.82 135.63,227.82 155.51,227.82 175.39,227.82 195.27,227.82 215.14,227.82 235.02,227.82 254.90,227.82 274.78,227.82 294.65,227.82 314.53,227.82 334.41,227.82 354.29,227.82 374.16,227.82 394.04,227.82 413.92,227.82 433.80,227.82 453.67,227.82 473.55,227.82 493.43,227.82 513.31,227.82 533.18,227.82 553.06,227.82 572.94,227.82 592.82,227.82 612.69,227.82 632.57,227.82 652.45,227.82 672.33,227.82 692.20,227.82 712.08,227.82 731.96,227.82 751.84,227.82 771.71,227.82 791.59,227.82 811.47,227.82 831.35,227.82 851.22,227.82 871.10,227.82 890.98,227.82 910.86,227.82 930.73,227.82 950.61,227.82 970.49,227.82 990.37,227.82 1010.24,227.82 1030.12,227.82 1050.00,227.82" fill="none" stroke="#2a6fbb" stroke-width="1.6"/>
<polyline points="76.00,234.29 95.88,85.50 115.76,368.67 135.63,304.95 155.51,185.12 175.39,89.84 195.27,350.05 215.14,315.37 235.02,227.59 254.90,84.35 274.78,316.19 294.65,337.12 314.53,323.06 334.41,120.30 354.29,262.99 374.16,95.79 394.04,295.23 413.92,116.08 433.80,244.02 453.67,123.46 473.55,291.48 493.43,193.12 513.31,85.24 533.18,357.37 553.06,328.30 572.94,261.20 592.82,97.27 612.69,352.67 632.57,288.42 652.45,84.96 672.33,335.91 692.20,331.83 712.08,317.83 731.96,301.26 751.84,195.75 771.71,114.83 791.59,327.61 811.47,95.30 831.35,314.11 851.22,315.07 871.10,140.12 890.98,158.03 910.86,99.80 930.73,314.09 950.61,327.78 970.49,337.28 990.37,320.08 1010.24,306.52 1030.12,351.19 1050.00,351.13" fill="none" stroke="#b45f06" stroke-width="1.6"/>
<g><line x1="870.00" y1="28.00" x2="898.00" y2="28.00" stroke="#222222" stroke-width="2"/><text x="906.00" y="32.00" font-family="Arial, sans-serif" font-size="12">real</text></g>
<g><line x1="870.00" y1="46.00" x2="898.00" y2="46.00" stroke="#6f7f8f" stroke-width="2"/><text x="906.00" y="50.00" font-family="Arial, sans-serif" font-size="12">persistencia</text></g>
<g><line x1="870.00" y1="64.00" x2="898.00" y2="64.00" stroke="#2a6fbb" stroke-width="2"/><text x="906.00" y="68.00" font-family="Arial, sans-serif" font-size="12">AR(0) / media</text></g>
<g><line x1="870.00" y1="82.00" x2="898.00" y2="82.00" stroke="#b45f06" stroke-width="2"/><text x="906.00" y="86.00" font-family="Arial, sans-serif" font-size="12">kNN k=5</text></g>
<line x1="76.00" y1="398.00" x2="76.00" y2="403.00" stroke="#222222"/>
<text x="76.00" y="422" text-anchor="middle" font-family="Arial, sans-serif" font-size="10">9215</text>
<line x1="314.53" y1="398.00" x2="314.53" y2="403.00" stroke="#222222"/>
<text x="314.53" y="422" text-anchor="middle" font-family="Arial, sans-serif" font-size="10">9227</text>
<line x1="572.94" y1="398.00" x2="572.94" y2="403.00" stroke="#222222"/>
<text x="572.94" y="422" text-anchor="middle" font-family="Arial, sans-serif" font-size="10">9240</text>
<line x1="811.47" y1="398.00" x2="811.47" y2="403.00" stroke="#222222"/>
<text x="811.47" y="422" text-anchor="middle" font-family="Arial, sans-serif" font-size="10">9252</text>
<line x1="1050.00" y1="398.00" x2="1050.00" y2="403.00" stroke="#222222"/>
<text x="1050.00" y="422" text-anchor="middle" font-family="Arial, sans-serif" font-size="10">9264</text>
<text x="563.00" y="450" text-anchor="middle" font-family="Arial, sans-serif" font-size="13">t</text>
<text transform="translate(18,228.0) rotate(-90)" text-anchor="middle" font-family="Arial, sans-serif" font-size="13">x[t+1]</text>
</svg>