<svg xmlns="http://www.w3.org/2000/svg" width="1080" height="460" viewBox="0 0 1080 460">
<rect x="0" y="0" width="1080" height="460" fill="#ffffff"/>
<text x="540.0" y="28" text-anchor="middle" font-family="Arial, sans-serif" font-size="18" font-weight="700">Prediccion test corta t=9215-9264 logistic_noise_small</text>
<rect x="76" y="58" width="974.00" height="340.00" fill="none" stroke="#222222"/>
<line x1="76" y1="398.00" x2="1050.00" y2="398.00" stroke="#e8e8e8"/>
<text x="68" y="402.00" text-anchor="end" font-family="Arial, sans-serif" font-size="11">-0.0791</text>
<line x1="76" y1="313.00" x2="1050.00" y2="313.00" stroke="#e8e8e8"/>
<text x="68" y="317.00" text-anchor="end" font-family="Arial, sans-serif" font-size="11">0.211</text>
<line x1="76" y1="228.00" x2="1050.00" y2="228.00" stroke="#e8e8e8"/>
<text x="68" y="232.00" text-anchor="end" font-family="Arial, sans-serif" font-size="11">0.5</text>
<line x1="76" y1="143.00" x2="1050.00" y2="143.00" stroke="#e8e8e8"/>
<text x="68" y="147.00" text-anchor="end" font-family="Arial, sans-serif" font-size="11">0.79</text>
<line x1="76" y1="58.00" x2="1050.00" y2="58.00" stroke="#e8e8e8"/>
<text x="68" y="62.00" text-anchor="end" font-family="Arial, sans-serif" font-size="11">1.08</text>
<polyline points="76.00,244.42 95.88,84.99 115.76,360.82 135.63,326.78 155.51,213.09 175.39,83.10 195.27,363.10 215.14,327.68 235.02,216.71 254.90,81.45 274.78,368.74 294.65,347.16 314.53,274.80 334.41,110.34 354.29,272.01 374.16,108.87 394.04,279.11 413.92,114.08 433.80,257.65 453.67,94.32 473.55,325.55 493.43,215.80 513.31,82.69 533.18,365.44 553.06,341.76 572.94,256.45 592.82,92.19 612.69,334.87 632.57,234.53 652.45,81.45 672.33,373.78 692.20,368.48 712.08,358.54 731.96,312.85 751.84,177.17 771.71,118.89 791.59,248.66 811.47,86.96 831.35,351.19 851.22,283.09 871.10,124.48 890.98,228.72 910.86,83.77 930.73,374.55 950.61,373.02 970.49,374.05 990.37,373.21 1010.24,368.06 1030.12,346.76 1050.00,272.21" fill="none" stroke="#222222" stroke-width="1.6"/>
<polyline points="76.00,337.16 95.88,244.42 115.76,84.99 135.63,360.82 155.51,326.78 175.39,213.09 195.27,83.10 215.14,363.10 235.02,327.68 254.90,216.71 274.78,81.45 294.65,368.74 314.53,347.16 334.41,274.80 354.29,110.34 374.16,272.01 394.04,108.87 413.92,279.11 433.80,114.08 453.67,257.65 473.55,94.32 493.43,325.55 513.31,215.80 533.18,82.69 553.06,365.44 572.94,341.76 592.82,256.45 612.69,92.19 632.57,334.87 652.45,234.53 672.33,81.45 692.20,373.78 712.08,368.48 731.96,358.54 751.84,312.85 771.71,177.17 791.59,118.89 811.47,248.66 831.35,86.96 851.22,351.19 871.10,283.09 890.98,124.48 910.86,228.72 930.73,83.77 950.61,374.55 970.49,373.02 990.37,374.05 1010.24,373.21 1030.12,368.06 1050.00,346.76" fill="none" stroke="#6f7f8f" stroke-width="1.6"/>
<polyline points="76.00,228.05 95.88,228.05 115.76,228.05 135.63,228.05 155.51,228.05 175.39,228.05 195.27,228.05 215.14,228.05 235.02,228.05 254.90,228.05 274.78,228.05 294.65,228.05 314.53,228.05 334.41,228.05 354.29,228.05 374.16,228.05 394.04,228.05 413.92,228.05 433.80,228.05 453.67,228.05 473.55,228.05 493.43,228.05 513.31,228.05 533.18,228.05 553.06,228.05 572.94,228.05 592.82,228.05 612.69,228.05 632.57,228.05 652.45,228.05 672.33,228.05 692.20,228.05 712.08,228.05 731.96,228.05 751.84,228.05 771.71,228.05 791.59,228.05 811.47,228.05 831.35,228.05 851.22,228.05 871.10,228.05 890.98,228.05 910.86,228.05 930.73,228.05 950.61,228.05 970.49,228.05 990.37,228.05 1010.24,228.05 1030.12,228.05 1050.00,228.05" fill="none" stroke="#2a6fbb" stroke-width="1.6"/>
<polyline points="76.00,279.75 95.88,89.77 115.76,332.20 135.63,275.16 155.51,243.64 175.39,96.52 195.27,319.69 215.14,294.47 235.02,273.97 254.90,84.32 274.78,317.26 294.65,292.56 314.53,281.74 334.41,122.70 354.29,241.03 374.16,106.94 394.04,305.79 413.92,95.48 433.80,293.97 453.67,119.53 473.55,325.36 493.43,243.01 513.31,106.66 533.18,311.68 553.06,341.43 572.94,290.99 592.82,92.83 612.69,330.50 632.57,285.52 652.45,108.83 672.33,312.00 692.20,350.03 712.08,347.52 731.96,302.16 751.84,247.95 771.71,144.10 791.59,197.93 811.47,106.88 831.35,331.08 851.22,286.32 871.10,109.40 890.98,306.60 910.86,87.76 930.73,315.34 950.61,287.62 970.49,312.25 990.37,297.04 1010.24,298.30 1030.12,335.85 1050.00,293.33" fill="none" stroke="#b45f06" stroke-width="1.6"/>
<g><line x1="870.00" y1="28.00" x2="898.00" y2="28.00" stroke="#222222" stroke-width="2"/><text x="906.00" y="32.00" font-family="Arial, sans-serif" font-size="12">real</text></g>
<g><line x1="870.00" y1="46.00" x2="898.00" y2="46.00" stroke="#6f7f8f" stroke-width="2"/><text x="906.00" y="50.00" font-family="Arial, sans-serif" font-size="12">persistencia</text></g>
<g><line x1="870.00" y1="64.00" x2="898.00" y2="64.00" stroke="#2a6fbb" stroke-width="2"/><text x="906.00" y="68.00" font-family="Arial, sans-serif" font-size="12">AR(0) / media</text></g>
<g><line x1="870.00" y1="82.00" x2="898.00" y2="82.00" stroke="#b45f06" stroke-width="2"/><text x="906.00" y="86.00" font-family="Arial, sans-serif" font-size="12">kNN k=5</text></g>
<line x1="76.00" y1="398.00" x2="76.00" y2="403.00" stroke="#222222"/>
<text x="76.00" y="422" text-anchor="middle" font-family="Arial, sans-serif" font-size="10">9215</text>
<line x1="314.53" y1="398.00" x2="314.53" y2="403.00" stroke="#222222"/>
<text x="314.53" y="422" text-anchor="middle" font-family="Arial, sans-serif" font-size="10">9227</text>
<line x1="572.94" y1="398.00" x2="572.94" y2="403.00" stroke="#222222"/>
<text x="572.94" y="422" text-anchor="middle" font-family="Arial, sans-serif" font-size="10">9240</text>
<line x1="811.47" y1="398.00" x2="811.47" y2="403.00" stroke="#222222"/>
<text x="811.47" y="422" text-anchor="middle" font-family="Arial, sans-serif" font-size="10">9252</text>
<line x1="1050.00" y1="398.00" x2="1050.00" y2="403.00" stroke="#222222"/>
<text x="1050.00" y="422" text-anchor="middle" font-family="Arial, sans-serif" font-size="10">9264</text>
<text x="563.00" y="450" text-anchor="middle" font-family="Arial, sans-serif" font-size="13">t</text>
<text transform="translate(18,228.0) rotate(-90)" text-anchor="middle" font-family="Arial, sans-serif" font-size="13">x[t+1]</text>
</svg>