<svg xmlns="http://www.w3.org/2000/svg" width="1180" height="560" viewBox="0 0 1180 560">
<rect x="0" y="0" width="1180" height="560" fill="#ffffff"/>
<text x="590.0" y="28" text-anchor="middle" font-family="Arial, sans-serif" font-size="18" font-weight="700">Resumen de subrogadas por estadistico</text>
<rect x="76" y="58" width="1076.00" height="364.00" fill="none" stroke="#222222" stroke-width="1"/>
<line x1="76" y1="422.00" x2="1152.00" y2="422.00" stroke="#e8e8e8" stroke-width="1"/>
<text x="68" y="426.00" text-anchor="end" font-family="Arial, sans-serif" font-size="11">-0.345</text>
<line x1="76" y1="331.00" x2="1152.00" y2="331.00" stroke="#e8e8e8" stroke-width="1"/>
<text x="68" y="335.00" text-anchor="end" font-family="Arial, sans-serif" font-size="11">0.864</text>
<line x1="76" y1="240.00" x2="1152.00" y2="240.00" stroke="#e8e8e8" stroke-width="1"/>
<text x="68" y="244.00" text-anchor="end" font-family="Arial, sans-serif" font-size="11">2.07</text>
<line x1="76" y1="149.00" x2="1152.00" y2="149.00" stroke="#e8e8e8" stroke-width="1"/>
<text x="68" y="153.00" text-anchor="end" font-family="Arial, sans-serif" font-size="11">3.28</text>
<line x1="76" y1="58.00" x2="1152.00" y2="58.00" stroke="#e8e8e8" stroke-width="1"/>
<text x="68" y="62.00" text-anchor="end" font-family="Arial, sans-serif" font-size="11">4.49</text>
<rect x="123.52" y="83.10" width="30.49" height="13.68" fill="#6f7f8f" opacity="0.42"/>
<line x1="120.83" y1="89.11" x2="156.70" y2="89.11" stroke="#6f7f8f" stroke-width="2"/>
<rect x="168.36" y="91.44" width="30.49" height="13.48" fill="#b45f06" opacity="0.42"/>
<line x1="165.67" y1="98.02" x2="201.53" y2="98.02" stroke="#b45f06" stroke-width="2"/>
<rect x="213.19" y="88.49" width="30.49" height="15.65" fill="#6b8e23" opacity="0.42"/>
<line x1="210.50" y1="97.39" x2="246.37" y2="97.39" stroke="#6b8e23" stroke-width="2"/>
<line x1="105.14" y1="100.31" x2="262.06" y2="100.31" stroke="#8a2222" stroke-width="2.2" stroke-dasharray="4,3"/>
<text x="183.60" y="484" text-anchor="end" transform="rotate(-35 183.60,484)" font-family="Arial, sans-serif" font-size="10">d2</text>
<rect x="338.72" y="395.96" width="30.49" height="1.00" fill="#6f7f8f" opacity="0.42"/>
<line x1="336.03" y1="396.02" x2="371.90" y2="396.02" stroke="#6f7f8f" stroke-width="2"/>
<rect x="383.56" y="393.37" width="30.49" height="1.03" fill="#b45f06" opacity="0.42"/>
<line x1="380.87" y1="393.89" x2="416.73" y2="393.89" stroke="#b45f06" stroke-width="2"/>
<rect x="428.39" y="393.42" width="30.49" height="1.00" fill="#6b8e23" opacity="0.42"/>
<line x1="425.70" y1="393.76" x2="461.57" y2="393.76" stroke="#6b8e23" stroke-width="2"/>
<line x1="320.34" y1="393.92" x2="477.26" y2="393.92" stroke="#8a2222" stroke-width="2.2" stroke-dasharray="4,3"/>
<text x="398.80" y="484" text-anchor="end" transform="rotate(-35 398.80,484)" font-family="Arial, sans-serif" font-size="10">lyapunov_slope_per_step</text>
<rect x="553.92" y="395.37" width="30.49" height="1.52" fill="#6f7f8f" opacity="0.42"/>
<line x1="551.23" y1="396.10" x2="587.10" y2="396.10" stroke="#6f7f8f" stroke-width="2"/>
<rect x="598.76" y="364.33" width="30.49" height="12.32" fill="#b45f06" opacity="0.42"/>
<line x1="596.07" y1="370.63" x2="631.93" y2="370.63" stroke="#b45f06" stroke-width="2"/>
<rect x="643.59" y="364.98" width="30.49" height="10.17" fill="#6b8e23" opacity="0.42"/>
<line x1="640.90" y1="369.00" x2="676.77" y2="369.00" stroke="#6b8e23" stroke-width="2"/>
<line x1="535.54" y1="370.89" x2="692.46" y2="370.89" stroke="#8a2222" stroke-width="2.2" stroke-dasharray="4,3"/>
<text x="614.00" y="484" text-anchor="end" transform="rotate(-35 614.00,484)" font-family="Arial, sans-serif" font-size="10">lyapunov_slope_per_hour</text>
<rect x="769.12" y="320.85" width="30.49" height="1.00" fill="#6f7f8f" opacity="0.42"/>
<line x1="766.43" y1="320.89" x2="802.30" y2="320.89" stroke="#6f7f8f" stroke-width="2"/>
<rect x="813.96" y="328.71" width="30.49" height="1.00" fill="#b45f06" opacity="0.42"/>
<line x1="811.27" y1="328.96" x2="847.13" y2="328.96" stroke="#b45f06" stroke-width="2"/>
<rect x="858.79" y="328.37" width="30.49" height="1.00" fill="#6b8e23" opacity="0.42"/>
<line x1="856.10" y1="328.69" x2="891.97" y2="328.69" stroke="#6b8e23" stroke-width="2"/>
<line x1="750.74" y1="329.15" x2="907.66" y2="329.15" stroke="#8a2222" stroke-width="2.2" stroke-dasharray="4,3"/>
<text x="829.20" y="484" text-anchor="end" transform="rotate(-35 829.20,484)" font-family="Arial, sans-serif" font-size="10">permutation_entropy_delay_1</text>
<rect x="984.32" y="320.86" width="30.49" height="1.00" fill="#6f7f8f" opacity="0.42"/>
<line x1="981.63" y1="320.89" x2="1017.50" y2="320.89" stroke="#6f7f8f" stroke-width="2"/>
<rect x="1029.16" y="322.32" width="30.49" height="1.00" fill="#b45f06" opacity="0.42"/>
<line x1="1026.47" y1="322.50" x2="1062.33" y2="322.50" stroke="#b45f06" stroke-width="2"/>
<rect x="1073.99" y="322.29" width="30.49" height="1.00" fill="#6b8e23" opacity="0.42"/>
<line x1="1071.30" y1="322.59" x2="1107.17" y2="322.59" stroke="#6b8e23" stroke-width="2"/>
<line x1="965.94" y1="323.13" x2="1122.86" y2="323.13" stroke="#8a2222" stroke-width="2.2" stroke-dasharray="4,3"/>
<text x="1044.40" y="484" text-anchor="end" transform="rotate(-35 1044.40,484)" font-family="Arial, sans-serif" font-size="10">permutation_entropy_delay_tau</text>
<g><circle cx="935.00" cy="28.00" r="4" fill="#6f7f8f"/><text x="945.00" y="32.00" font-family="Arial, sans-serif" font-size="12">barajadas p05-p95</text></g>
<g><circle cx="935.00" cy="46.00" r="4" fill="#b45f06"/><text x="945.00" y="50.00" font-family="Arial, sans-serif" font-size="12">phase randomized</text></g>
<g><circle cx="935.00" cy="64.00" r="4" fill="#6b8e23"/><text x="945.00" y="68.00" font-family="Arial, sans-serif" font-size="12">AAFT</text></g>
<line x1="935.00" y1="82" x2="962.00" y2="82" stroke="#8a2222" stroke-width="2.2" stroke-dasharray="4,3"/>
<text x="971.00" y="86" font-family="Arial, sans-serif" font-size="12">original</text>
</svg>