<svg xmlns="http://www.w3.org/2000/svg" width="1220" height="520" viewBox="0 0 1220 520">
<rect x="0" y="0" width="1220" height="520" fill="#ffffff"/>
<text x="610.0" y="28" text-anchor="middle" font-family="Arial, sans-serif" font-size="18" font-weight="700">Autocorrelacion de cuadrados: original vs barajadas</text>
<rect x="76" y="60" width="1110.00" height="332.00" fill="none" stroke="#222222" stroke-width="1"/>
<line x1="76" y1="392.00" x2="1186.00" y2="392.00" stroke="#e8e8e8" stroke-width="1"/>
<text x="68" y="396.00" text-anchor="end" font-family="Arial, sans-serif" font-size="11">-0.133</text>
<line x1="76" y1="325.60" x2="1186.00" y2="325.60" stroke="#e8e8e8" stroke-width="1"/>
<text x="68" y="329.60" text-anchor="end" font-family="Arial, sans-serif" font-size="11">0.105</text>
<line x1="76" y1="259.20" x2="1186.00" y2="259.20" stroke="#e8e8e8" stroke-width="1"/>
<text x="68" y="263.20" text-anchor="end" font-family="Arial, sans-serif" font-size="11">0.343</text>
<line x1="76" y1="192.80" x2="1186.00" y2="192.80" stroke="#e8e8e8" stroke-width="1"/>
<text x="68" y="196.80" text-anchor="end" font-family="Arial, sans-serif" font-size="11">0.58</text>
<line x1="76" y1="126.40" x2="1186.00" y2="126.40" stroke="#e8e8e8" stroke-width="1"/>
<text x="68" y="130.40" text-anchor="end" font-family="Arial, sans-serif" font-size="11">0.818</text>
<line x1="76" y1="60.00" x2="1186.00" y2="60.00" stroke="#e8e8e8" stroke-width="1"/>
<text x="68" y="64.00" text-anchor="end" font-family="Arial, sans-serif" font-size="11">1.06</text>
<line x1="99.12" y1="366.14" x2="99.12" y2="342.46" stroke="#777777" stroke-width="1.1"/>
<circle cx="99.12" cy="354.30" r="3" fill="#777777" opacity="0.75"/>
<circle cx="99.12" cy="88.21" r="4" fill="#b45f06" opacity="0.9"/>
<text x="99.12" y="452" text-anchor="end" transform="rotate(-55 99.12,452)" font-family="Arial, sans-serif" font-size="9.5">z/middle/L1</text>
<line x1="145.38" y1="366.75" x2="145.38" y2="342.14" stroke="#777777" stroke-width="1.1"/>
<circle cx="145.38" cy="354.44" r="3" fill="#777777" opacity="0.75"/>
<circle cx="145.38" cy="268.03" r="4" fill="#b45f06" opacity="0.9"/>
<line x1="191.62" y1="363.33" x2="191.62" y2="344.09" stroke="#777777" stroke-width="1.1"/>
<circle cx="191.62" cy="353.71" r="3" fill="#777777" opacity="0.75"/>
<circle cx="191.62" cy="365.90" r="4" fill="#b45f06" opacity="0.9"/>
<text x="191.62" y="452" text-anchor="end" transform="rotate(-55 191.62,452)" font-family="Arial, sans-serif" font-size="9.5">z/middle/L288</text>
<line x1="237.88" y1="365.09" x2="237.88" y2="345.80" stroke="#777777" stroke-width="1.1"/>
<circle cx="237.88" cy="355.44" r="3" fill="#777777" opacity="0.75"/>
<circle cx="237.88" cy="95.56" r="4" fill="#b45f06" opacity="0.9"/>
<line x1="284.12" y1="363.62" x2="284.12" y2="343.97" stroke="#777777" stroke-width="1.1"/>
<circle cx="284.12" cy="353.80" r="3" fill="#777777" opacity="0.75"/>
<circle cx="284.12" cy="305.42" r="4" fill="#b45f06" opacity="0.9"/>
<text x="284.12" y="452" text-anchor="end" transform="rotate(-55 284.12,452)" font-family="Arial, sans-serif" font-size="9.5">z/recent/L12</text>
<line x1="330.38" y1="365.97" x2="330.38" y2="346.10" stroke="#777777" stroke-width="1.1"/>
<circle cx="330.38" cy="356.04" r="3" fill="#777777" opacity="0.75"/>
<circle cx="330.38" cy="346.48" r="4" fill="#b45f06" opacity="0.9"/>
<line x1="376.62" y1="364.05" x2="376.62" y2="345.93" stroke="#777777" stroke-width="1.1"/>
<circle cx="376.62" cy="354.99" r="3" fill="#777777" opacity="0.75"/>
<circle cx="376.62" cy="82.90" r="4" fill="#b45f06" opacity="0.9"/>
<text x="376.62" y="452" text-anchor="end" transform="rotate(-55 376.62,452)" font-family="Arial, sans-serif" font-size="9.5">z/high_volatility/L1</text>
<line x1="422.88" y1="365.69" x2="422.88" y2="343.98" stroke="#777777" stroke-width="1.1"/>
<circle cx="422.88" cy="354.84" r="3" fill="#777777" opacity="0.75"/>
<circle cx="422.88" cy="256.96" r="4" fill="#b45f06" opacity="0.9"/>
<line x1="469.12" y1="363.42" x2="469.12" y2="347.96" stroke="#777777" stroke-width="1.1"/>
<circle cx="469.12" cy="355.69" r="3" fill="#777777" opacity="0.75"/>
<circle cx="469.12" cy="352.24" r="4" fill="#b45f06" opacity="0.9"/>
<text x="469.12" y="452" text-anchor="end" transform="rotate(-55 469.12,452)" font-family="Arial, sans-serif" font-size="9.5">z/high_volatility/L288</text>
<line x1="515.38" y1="366.14" x2="515.38" y2="345.93" stroke="#777777" stroke-width="1.1"/>
<circle cx="515.38" cy="356.03" r="3" fill="#777777" opacity="0.75"/>
<circle cx="515.38" cy="94.78" r="4" fill="#b45f06" opacity="0.9"/>
<line x1="561.62" y1="364.66" x2="561.62" y2="345.31" stroke="#777777" stroke-width="1.1"/>
<circle cx="561.62" cy="354.99" r="3" fill="#777777" opacity="0.75"/>
<circle cx="561.62" cy="301.44" r="4" fill="#b45f06" opacity="0.9"/>
<text x="561.62" y="452" text-anchor="end" transform="rotate(-55 561.62,452)" font-family="Arial, sans-serif" font-size="9.5">z/quiet/L12</text>
<line x1="607.88" y1="365.94" x2="607.88" y2="343.09" stroke="#777777" stroke-width="1.1"/>
<circle cx="607.88" cy="354.51" r="3" fill="#777777" opacity="0.75"/>
<circle cx="607.88" cy="351.52" r="4" fill="#b45f06" opacity="0.9"/>
<line x1="654.12" y1="363.35" x2="654.12" y2="347.52" stroke="#777777" stroke-width="1.1"/>
<circle cx="654.12" cy="355.44" r="3" fill="#777777" opacity="0.75"/>
<circle cx="654.12" cy="337.94" r="4" fill="#b45f06" opacity="0.9"/>
<text x="654.12" y="452" text-anchor="end" transform="rotate(-55 654.12,452)" font-family="Arial, sans-serif" font-size="9.5">e/middle/L1</text>
<line x1="700.38" y1="361.80" x2="700.38" y2="348.64" stroke="#777777" stroke-width="1.1"/>
<circle cx="700.38" cy="355.22" r="3" fill="#777777" opacity="0.75"/>
<circle cx="700.38" cy="334.47" r="4" fill="#b45f06" opacity="0.9"/>
<line x1="746.62" y1="363.16" x2="746.62" y2="346.62" stroke="#777777" stroke-width="1.1"/>
<circle cx="746.62" cy="354.89" r="3" fill="#777777" opacity="0.75"/>
<circle cx="746.62" cy="342.50" r="4" fill="#b45f06" opacity="0.9"/>
<text x="746.62" y="452" text-anchor="end" transform="rotate(-55 746.62,452)" font-family="Arial, sans-serif" font-size="9.5">e/middle/L288</text>
<line x1="792.88" y1="365.37" x2="792.88" y2="344.71" stroke="#777777" stroke-width="1.1"/>
<circle cx="792.88" cy="355.04" r="3" fill="#777777" opacity="0.75"/>
<circle cx="792.88" cy="353.23" r="4" fill="#b45f06" opacity="0.9"/>
<line x1="839.12" y1="367.71" x2="839.12" y2="342.88" stroke="#777777" stroke-width="1.1"/>
<circle cx="839.12" cy="355.29" r="3" fill="#777777" opacity="0.75"/>
<circle cx="839.12" cy="335.47" r="4" fill="#b45f06" opacity="0.9"/>
<text x="839.12" y="452" text-anchor="end" transform="rotate(-55 839.12,452)" font-family="Arial, sans-serif" font-size="9.5">e/recent/L12</text>
<line x1="885.38" y1="364.57" x2="885.38" y2="344.99" stroke="#777777" stroke-width="1.1"/>
<circle cx="885.38" cy="354.78" r="3" fill="#777777" opacity="0.75"/>
<circle cx="885.38" cy="355.86" r="4" fill="#b45f06" opacity="0.9"/>
<line x1="931.62" y1="361.50" x2="931.62" y2="348.59" stroke="#777777" stroke-width="1.1"/>
<circle cx="931.62" cy="355.05" r="3" fill="#777777" opacity="0.75"/>
<circle cx="931.62" cy="332.67" r="4" fill="#b45f06" opacity="0.9"/>
<text x="931.62" y="452" text-anchor="end" transform="rotate(-55 931.62,452)" font-family="Arial, sans-serif" font-size="9.5">e/high_volatility/L1</text>
<line x1="977.88" y1="361.93" x2="977.88" y2="348.33" stroke="#777777" stroke-width="1.1"/>
<circle cx="977.88" cy="355.13" r="3" fill="#777777" opacity="0.75"/>
<circle cx="977.88" cy="331.10" r="4" fill="#b45f06" opacity="0.9"/>
<line x1="1024.12" y1="362.71" x2="1024.12" y2="349.15" stroke="#777777" stroke-width="1.1"/>
<circle cx="1024.12" cy="355.93" r="3" fill="#777777" opacity="0.75"/>
<circle cx="1024.12" cy="354.25" r="4" fill="#b45f06" opacity="0.9"/>
<text x="1024.12" y="452" text-anchor="end" transform="rotate(-55 1024.12,452)" font-family="Arial, sans-serif" font-size="9.5">e/high_volatility/L288</text>
<line x1="1070.38" y1="368.66" x2="1070.38" y2="340.18" stroke="#777777" stroke-width="1.1"/>
<circle cx="1070.38" cy="354.42" r="3" fill="#777777" opacity="0.75"/>
<circle cx="1070.38" cy="354.73" r="4" fill="#b45f06" opacity="0.9"/>
<line x1="1116.62" y1="369.10" x2="1116.62" y2="337.70" stroke="#777777" stroke-width="1.1"/>
<circle cx="1116.62" cy="353.40" r="3" fill="#777777" opacity="0.75"/>
<circle cx="1116.62" cy="321.15" r="4" fill="#b45f06" opacity="0.9"/>
<text x="1116.62" y="452" text-anchor="end" transform="rotate(-55 1116.62,452)" font-family="Arial, sans-serif" font-size="9.5">e/quiet/L12</text>
<line x1="1162.88" y1="361.61" x2="1162.88" y2="351.58" stroke="#777777" stroke-width="1.1"/>
<circle cx="1162.88" cy="356.60" r="3" fill="#777777" opacity="0.75"/>
<circle cx="1162.88" cy="356.99" r="4" fill="#b45f06" opacity="0.9"/>
<g><circle cx="835.00" cy="30.00" r="4" fill="#b45f06"/><text x="845.00" y="34.00" font-family="Arial, sans-serif" font-size="12">original</text></g>
<g><circle cx="940.00" cy="30.00" r="4" fill="#777777"/><text x="950.00" y="34.00" font-family="Arial, sans-serif" font-size="12">media barajada +/- 2 sd</text></g>
<text x="631.00" y="510" text-anchor="middle" font-family="Arial, sans-serif" font-size="13">Grupos: serie / ventana / retardo</text>
<text transform="translate(18,226.0) rotate(-90)" text-anchor="middle" font-family="Arial, sans-serif" font-size="13">ACF de cuadrados</text>
</svg>