<svg xmlns="http://www.w3.org/2000/svg" width="1120" height="460" viewBox="0 0 1120 460">
<rect x="0" y="0" width="1120" height="460" fill="#ffffff"/>
<text x="560.0" y="26" text-anchor="middle" font-family="Arial, sans-serif" font-size="18" font-weight="700">Periodograma - Retornos logaritmicos r</text>
<line x1="82" y1="396.00" x2="1086.00" y2="396.00" stroke="#e8e8e8" stroke-width="1"/>
<text x="74" y="400.00" text-anchor="end" font-family="Arial, sans-serif" font-size="11">-5.72</text>
<line x1="82" y1="311.50" x2="1086.00" y2="311.50" stroke="#e8e8e8" stroke-width="1"/>
<text x="74" y="315.50" text-anchor="end" font-family="Arial, sans-serif" font-size="11">-5.40</text>
<line x1="82" y1="227.00" x2="1086.00" y2="227.00" stroke="#e8e8e8" stroke-width="1"/>
<text x="74" y="231.00" text-anchor="end" font-family="Arial, sans-serif" font-size="11">-5.09</text>
<line x1="82" y1="142.50" x2="1086.00" y2="142.50" stroke="#e8e8e8" stroke-width="1"/>
<text x="74" y="146.50" text-anchor="end" font-family="Arial, sans-serif" font-size="11">-4.77</text>
<line x1="82" y1="58.00" x2="1086.00" y2="58.00" stroke="#e8e8e8" stroke-width="1"/>
<text x="74" y="62.00" text-anchor="end" font-family="Arial, sans-serif" font-size="11">-4.46</text>
<rect x="82" y="58" width="1004.00" height="338.00" fill="none" stroke="#222222" stroke-width="1"/>
<polyline points="82.00,160.82 82.04,162.56 82.05,182.42 82.08,194.33 82.10,225.82 82.12,272.06 82.15,233.27 82.16,187.29 82.19,232.99 82.22,221.05 82.24,226.05 82.24,214.26 82.28,156.32 82.30,237.36 82.32,197.96 82.35,202.28 82.37,174.47 82.39,121.77 82.41,203.77 82.43,234.73 82.46,193.30 82.48,261.69 82.51,290.05 82.52,169.87 82.54,196.42 82.56,234.23 82.59,268.28 82.61,242.80 82.63,246.70 82.66,230.33 82.68,203.40 82.70,259.60 82.73,202.16 82.75,235.60 82.76,171.19 82.79,206.67 82.82,179.85 82.83,223.73 82.86,147.36 82.88,176.13 82.90,271.50 82.93,237.95 82.94,241.43 82.96,247.33 82.99,187.69 83.01,227.67 83.04,179.74 83.07,188.77 83.09,194.62 83.10,328.00 83.12,165.12 83.15,273.32 83.18,215.25 83.20,265.21 83.22,281.22 83.25,204.91 83.27,253.52 83.28,197.97 83.31,278.01 83.32,245.49 83.35,269.94 83.37,214.48 83.40,113.65 83.41,236.29 83.43,182.78 83.47,162.74 83.49,228.32 83.52,256.75 83.54,216.25 83.55,228.71 83.58,202.11 83.59,163.06 83.63,258.64 83.64,231.15 83.67,186.42 83.68,245.74 83.71,180.51 83.74,237.27 83.75,233.50 83.78,300.26 83.79,267.42 83.83,245.09 83.85,232.24 83.86,197.01 83.89,233.67 83.91,180.58 83.94,193.55 83.95,293.69 83.98,294.89 84.01,214.71 84.03,243.93 84.06,251.70 84.07,231.71 84.09,206.05 84.11,266.45 84.14,197.57 84.17,193.14 84.18,236.30 84.20,213.85 84.23,244.32 84.26,224.84 84.27,252.73 84.31,254.01 84.31,239.53 84.34,276.26 84.37,253.57 84.38,219.14 84.42,236.59 84.42,255.97 84.45,150.10 84.47,194.27 84.49,298.19 84.52,185.00 84.54,221.01 84.58,259.79 84.58,265.32 84.62,251.33 84.64,219.51 84.65,273.49 84.68,225.67 84.70,139.05 84.74,277.96 84.76,205.93 84.78,263.67 84.79,224.49 84.82,195.90 84.84,248.25 84.85,273.71 84.88,234.39 84.91,180.25 84.94,242.84 84.95,178.48 84.97,191.70 85.01,231.47 85.03,193.27 85.05,227.41 85.06,161.72 85.08,206.45 85.11,223.59 85.14,241.55 85.15,198.89 85.18,217.17 85.20,170.16 85.23,219.11 85.24,302.20 85.27,247.08 85.30,201.02 85.31,218.41 85.33,164.23 85.36,227.90 85.39,219.55 85.42,224.45 85.43,242.62 85.45,235.93 85.48,204.24 85.50,231.36 85.53,292.85 85.54,239.94 85.57,230.07 85.59,229.18 85.63,226.72 85.63,225.32 85.66,270.04 85.69,234.32 85.70,182.55 85.73,206.38 85.76,201.42 85.78,209.94 85.79,216.51 85.83,275.21 85.85,261.42 85.87,239.84 85.89,212.46 85.90,249.45 85.95,218.62 85.96,209.02 85.98,202.82 86.02,284.76 86.02,206.37 86.06,237.90 86.06,176.71 86.11,156.35 86.12,172.70 86.14,209.54 86.17,183.74 86.19,264.42 86.22,183.61 86.22,252.07 86.25,225.89 86.27,265.07 86.31,267.81 86.33,251.20 86.36,269.78 86.38,286.48 86.40,196.18 86.43,221.37 86.43,299.76 86.47,309.05 86.49,198.75 86.50,170.73 86.52,235.69 86.55,226.19 86.58,193.52 86.60,215.04 86.62,193.44 86.64,252.03 86.68,175.39 86.69,262.23 86.73,238.82 86.75,303.14 86.77,211.22 86.78,255.98 86.82,233.92 86.83,193.78 86.86,178.52 86.87,207.69 86.91,256.58 86.94,163.43 86.96,186.93 86.97,240.08 87.00,253.35 87.03,238.78 87.03,226.36 87.07,196.87 87.08,232.55 87.11,226.73 87.14,203.87 87.16,203.66 87.17,230.06 87.19,108.54 87.23,217.11 87.25,207.59 87.27,275.83 87.29,267.68 87.32,199.79 87.35,231.99 87.36,281.70 87.39,231.36 87.42,197.82 87.44,234.36 87.45,254.32 87.48,264.01 87.51,212.30 87.52,281.29 87.56,180.32 87.58,245.92 87.61,215.07 87.63,178.57 87.63,213.97 87.67,238.57 87.70,220.46 87.72,172.68 87.72,216.66 87.75,211.30 87.77,291.51 87.81,192.54 87.83,240.80 87.85,170.33 87.88,267.72 87.89,258.74 87.92,233.18 87.94,138.32 87.97,231.34 88.00,208.01 88.02,202.51 88.04,170.66 88.05,223.52 88.08,198.22 88.11,239.71 88.12,282.82 88.15,206.81 88.18,189.14 88.21,199.48 88.22,221.76 88.26,236.77 88.27,258.27 88.29,317.70 88.32,255.67 88.33,246.23 88.36,181.95 88.38,293.99 88.40,244.01 88.43,206.72 88.46,244.71 88.48,135.17 88.51,256.80 88.52,130.57 88.55,228.85 88.56,257.93 88.59,257.16 88.61,207.81 88.65,284.91 88.67,257.58 88.69,187.78 88.72,190.29 88.75,216.07 88.76,230.15 88.79,265.90 88.81,197.08 88.84,222.03 88.85,195.88 88.88,268.29 88.90,276.32 88.93,286.80 88.94,245.84 88.97,240.95 88.98,269.99 89.01,231.31 89.04,161.14 89.07,176.66 89.09,177.54 89.12,277.07 89.13,207.82 89.15,260.81 89.18,189.21 89.21,293.59 89.22,225.82 89.25,224.25 89.27,295.65 89.31,260.05 89.33,252.59 89.35,229.21 89.37,189.48 89.40,236.68 89.41,199.02 89.45,249.41 89.46,230.80 89.49,235.53 89.51,255.88 89.54,264.61 89.57,234.93 89.57,270.13 89.60,259.40 89.63,196.16 89.66,225.63 89.68,258.78 89.71,268.47 89.73,236.32 89.74,250.80 89.77,193.99 89.78,241.71 89.81,242.74 89.85,207.43 89.87,265.34 89.89,278.34 89.92,171.88 89.95,158.50 89.95,253.33 89.98,198.82 90.00,277.80 90.04,210.76 90.04,210.06 90.09,191.06 90.11,223.33 90.13,247.12 90.15,212.67 90.17,189.29 90.19,212.98 90.22,186.41 90.23,253.23 90.27,256.07 90.29,297.01 90.32,266.64 90.33,161.89 90.36,263.08 90.39,206.13 90.42,271.24 90.43,239.47 90.46,212.18 90.49,138.04 90.49,175.13 90.53,142.80 90.55,161.54 90.58,234.07 90.60,260.18 90.62,256.95 90.64,153.19 90.68,233.98 90.70,248.47 90.71,233.87 90.73,253.03 90.77,210.77 90.80,272.06 90.80,248.41 90.84,367.96 90.85,286.39 90.88,171.69 90.91,235.93 90.92,175.25 90.95,195.62 90.97,270.15 91.00,249.14 91.03,246.60 91.04,217.25 91.07,248.70 91.09,226.73 91.13,269.02 91.15,302.12 91.17,180.20 91.18,241.12 91.23,176.80 91.25,214.85 91.25,244.74 91.29,232.43 91.31,272.00 91.34,245.07 91.35,279.10 91.38,218.20 91.41,242.44 91.42,180.04 91.46,276.57 91.47,328.84 91.51,238.60 91.52,228.61 91.56,227.88 91.58,283.66 91.59,201.28 91.61,213.76 91.65,248.74 91.66,250.50 91.69,248.76 91.71,155.70 91.74,278.09 91.76,156.39 91.80,253.26 91.80,309.12 91.83,242.09 91.87,266.60 91.89,214.71 91.92,219.20 91.94,216.05 91.97,258.56 91.99,297.81 92.00,272.71 92.02,250.93 92.06,178.05 92.08,219.67 92.09,233.26 92.13,200.73 92.16,249.10 92.17,236.25 92.20,295.15 92.23,243.36 92.24,165.87 92.26,158.27 92.29,226.26 92.31,203.55 92.35,168.26 92.36,260.01 92.38,281.55 92.41,255.71 92.44,356.00 92.45,301.66 92.50,272.11 92.52,192.89 92.55,215.72 92.55,254.10 92.59,235.38 92.59,194.23 92.63,262.81 92.66,182.75 92.69,226.62 92.69,236.72 92.72,239.24 92.76,260.29 92.77,233.61 92.79,231.09 92.81,213.68 92.85,229.88 92.87,217.24 92.89,179.30 92.93,182.77 92.94,138.07 92.98,245.50 93.00,139.22 93.01,213.04 93.04,237.60 93.06,250.02 93.08,247.93 93.10,239.31 93.15,196.85 93.16,196.77 93.18,209.59 93.22,254.33 93.23,248.81 93.26,202.80 93.28,287.43 93.31,169.26 93.33,228.42 93.36,249.09 93.39,212.97 93.40,228.06 93.44,227.08 93.45,276.05 93.48,254.06 93.50,273.73 93.54,195.27 93.54,238.23 93.57,208.80 93.59,220.82 93.63,224.23 93.64,250.13 93.67,300.24 93.70,270.11 93.73,312.09 93.75,221.09 93.76,220.65 93.80,177.46 93.81,196.44 93.84,238.85 93.87,203.46 93.88,236.70 93.92,257.48 93.93,251.31 93.96,200.14 93.98,208.81 94.02,299.39 94.03,219.40 94.06,213.28 94.09,308.27 94.10,207.56 94.13,189.28 94.15,222.89 94.18,195.55 94.20,234.05 94.23,280.73 94.25,212.27 94.29,214.56 94.31,228.54 94.33,208.77 94.35,226.80 94.39,284.82 94.40,201.63 94.42,274.98 94.44,219.20 94.48,157.92 94.50,278.59 94.52,292.27 94.56,226.36 94.56,214.10 94.59,197.03 94.61,197.83 94.64,227.03 94.67,198.98 94.69,214.52 94.73,246.48 94.74,174.24 94.77,268.09 94.80,240.37 94.83,205.26 94.83,269.90 94.87,253.66 94.90,207.20 94.91,221.09 94.94,278.58 94.97,261.88 95.00,169.62 95.02,237.08 95.03,154.63 95.07,230.79 95.07,211.08 95.10,228.58 95.13,239.84 95.15,198.72 95.19,153.76 95.21,245.43 95.23,234.75 95.27,284.46 95.29,248.10 95.30,297.39 95.34,193.56 95.36,175.98 95.39,221.16 95.41,238.14 95.43,240.91 95.44,215.06 95.49,248.70 95.50,236.67 95.52,261.39 95.55,201.45 95.57,281.85 95.61,286.39 95.62,206.45 95.65,213.47 95.68,199.81 95.70,211.26 95.73,193.74 95.75,227.82 95.78,209.32 95.80,214.05 95.83,252.18 95.85,207.66 95.86,317.61 95.90,244.74 95.94,228.60 95.94,164.99 95.97,309.39 96.00,279.78 96.03,278.33 96.04,254.15 96.06,296.41 96.09,167.81 96.13,241.78 96.15,250.66 96.17,207.02 96.18,260.98 96.22,182.10 96.26,308.02 96.28,193.90 96.31,243.71 96.33,244.46 96.34,232.16 96.36,224.33 96.39,275.10 96.42,187.33 96.44,221.42 96.46,269.25 96.48,213.98 96.52,217.26 96.53,223.20 96.56,282.17 96.59,207.01 96.61,261.35 96.63,274.37 96.66,176.88 96.68,226.41 96.72,250.03 96.73,278.54 96.77,141.94 96.79,215.97 96.81,223.57 96.85,237.59 96.86,252.19 96.90,264.86 96.92,124.91 96.93,250.13 96.97,292.81 96.99,216.42 97.03,278.52 97.05,174.57 97.07,231.37 97.09,208.86 97.13,287.07 97.15,228.35 97.16,219.72 97.20,259.18 97.20,272.58 97.25,238.03 97.26,202.59 97.29,307.98 97.31,194.64 97.35,268.11 97.36,227.31 97.40,189.64 97.40,301.44 97.45,232.17 97.47,246.75 97.48,268.83 97.52,281.00 97.54,263.69 97.55,264.89 97.60,136.42 97.60,233.06 97.65,212.91 97.66,209.06 97.70,211.12 97.70,234.18 97.75,260.11 97.75,166.29 97.78,251.84 97.80,271.06 97.84,162.86 97.86,268.19 97.89,244.82 97.91,242.96 97.94,226.39 97.97,180.00 97.99,238.34 98.01,197.41 98.03,300.86 98.05,169.27 98.08,230.17 98.11,175.94 98.14,198.77 98.17,207.72 98.20,260.97 98.22,204.34 98.24,200.06 98.27,302.02 98.29,189.59 98.33,221.14 98.34,217.10 98.37,201.00 98.39,260.50 98.41,189.09 98.43,210.36 98.46,261.07 98.49,283.98 98.52,251.92 98.53,181.75 98.57,239.49 98.59,163.87 98.62,234.37 98.63,111.59 98.67,204.60 98.69,188.51 98.73,164.69 98.74,259.91 98.77,237.35 98.79,179.44 98.82,230.55 98.85,193.68 98.88,232.62 98.89,253.96 98.92,217.84 98.94,252.37 98.97,137.08 99.00,177.51 99.02,177.14 99.06,146.31 99.08,262.93 99.10,258.27 99.12,181.47 99.14,250.51 99.18,225.98 99.21,260.85 99.22,237.72 99.25,184.00 99.27,262.47 99.30,189.62 99.33,152.48 99.36,226.99 99.39,230.76 99.39,253.20 99.42,269.13 99.45,149.85 99.48,248.32 99.51,258.04 99.54,159.74 99.57,234.47 99.57,224.76 99.60,180.29 99.63,262.91 99.66,275.77 99.67,175.82 99.71,258.12 99.72,203.65 99.75,221.48 99.79,220.20 99.80,258.84 99.84,230.57 99.86,217.82 99.89,208.70 99.91,225.00 99.95,215.12 99.95,213.45 99.98,263.27 100.02,236.49 100.04,192.95 100.06,215.46 100.09,283.16 100.11,323.73 100.15,225.16 100.16,222.09 100.19,245.63 100.21,222.49 100.25,237.44 100.27,180.53 100.29,135.16 100.32,164.06 100.35,212.47 100.37,202.72 100.40,174.97 100.42,237.31 100.45,259.10 100.47,248.37 100.51,158.07 100.51,172.54 100.56,201.44 100.57,175.77 100.61,231.17 100.63,192.12 100.65,178.61 100.69,169.40 100.71,217.10 100.73,160.19 100.75,274.47 100.77,211.29 100.80,188.58 100.84,244.75 100.85,220.37 100.89,218.54 100.91,265.08 100.94,193.52 100.95,150.30 100.99,246.50 101.01,168.66 101.04,246.69 101.06,270.58 101.10,267.67 101.11,155.45 101.13,222.05 101.17,252.41 101.19,224.18 101.21,251.92 101.24,198.32 101.27,239.66 101.29,220.78 101.31,172.00 101.35,255.30 101.37,325.86 101.40,163.47 101.42,199.40 101.44,199.13 101.48,174.12 101.51,230.69 101.53,259.85 101.54,227.83 101.57,121.00 101.60,225.92 101.62,223.44 101.64,220.73 101.69,235.79 101.70,258.88 101.72,242.29 101.76,158.58 101.79,196.86 101.80,278.57 101.84,180.73 101.85,221.43 101.89,228.70 101.91,270.76 101.93,253.59 101.96,218.44 101.99,229.52 102.00,236.55 102.04,238.00 102.07,277.94 102.10,183.41 102.11,247.49 102.15,295.68 102.18,157.47 102.20,276.32 102.22,206.60 102.25,232.51 102.29,207.44 102.29,185.81 102.33,251.14 102.35,279.79 102.38,174.64 102.40,176.50 102.44,127.33 102.46,261.83 102.47,200.56 102.50,193.30 102.52,277.15 102.56,225.32 102.60,286.83 102.60,236.45 102.64,221.04 102.67,234.16 102.69,222.89 102.72,248.48 102.74,250.56 102.77,266.63 102.80,260.45 102.82,226.84 102.84,314.99 102.88,191.56 102.89,250.26 102.92,251.30 102.96,263.77 102.97,244.36 103.01,227.26 103.03,316.07 103.04,234.73 103.07,215.23 103.10,233.46 103.13,247.33 103.16,245.61 103.17,246.08 103.21,278.93 103.25,240.57 103.25,233.73 103.28,208.76 103.31,182.62 103.33,273.14 103.37,243.21 103.39,257.25 103.41,287.24 103.44,185.44 103.48,236.56 103.50,236.56 103.53,193.56 103.56,304.10 103.58,242.71 103.60,201.87 103.61,218.85 103.65,228.14 103.68,300.14 103.71,222.75 103.73,173.59 103.75,251.32 103.78,282.49 103.81,237.25 103.85,228.14 103.87,244.34 103.89,220.60 103.91,241.17 103.94,233.94 103.97,208.85 104.00,259.51 104.02,291.75 104.05,178.30 104.07,271.93 104.11,246.34 104.14,283.40 104.15,187.84 104.17,268.33 104.20,192.51 104.22,217.30 104.27,237.69 104.29,305.01 104.30,211.29 104.34,253.24 104.37,248.22 104.38,215.71 104.41,216.05 104.43,149.93 104.46,249.14 104.49,212.24 104.52,203.11 104.56,239.34 104.59,246.65 104.61,303.81 104.63,175.25 104.66,250.84 104.69,233.89 104.71,162.51 104.72,302.12 104.75,273.19 104.79,197.07 104.80,198.48 104.85,167.47 104.86,208.75 104.90,272.49 104.92,176.47 104.94,253.06 104.96,250.24 104.99,291.46 105.03,266.20 105.05,275.70 105.07,229.64 105.10,212.41 105.12,256.07 105.16,232.64 105.17,226.92 105.21,212.40 105.25,218.01 105.27,276.29 105.28,216.62 105.32,203.97 105.34,232.78 105.38,274.60 105.40,210.73 105.42,273.28 105.44,226.12 105.47,290.73 105.50,260.09 105.53,200.19 105.55,192.87 105.58,214.54 105.60,208.56 105.62,267.45 105.66,225.47 105.70,262.68 105.70,227.37 105.73,212.17 105.75,232.79 105.79,244.56 105.81,209.36 105.83,246.82 105.86,191.43 105.89,222.81 105.92,232.03 105.94,213.18 105.97,200.13 106.01,245.92 106.04,181.64 106.05,210.24 106.08,181.66 106.11,224.34 106.13,142.28 106.17,131.28 106.19,220.21 106.21,157.15 106.25,255.72 106.28,260.78 106.30,239.38 106.34,218.57 106.34,224.37 106.39,196.41 106.40,200.94 106.43,232.69 106.47,220.69 106.49,250.08 106.50,244.77 106.54,197.27 106.55,199.91 106.59,245.79 106.62,155.60 106.63,204.83 106.66,232.16 106.71,183.31 106.72,241.32 106.76,256.09 106.77,241.22 106.81,227.13 106.84,150.49 106.86,170.47 106.87,232.42 106.90,240.47 106.94,234.28 106.98,247.82 106.99,166.08 107.03,264.47 107.05,230.90 107.09,227.72 107.11,150.61 107.14,237.97 107.17,247.58 107.18,235.42 107.22,200.35 107.24,182.17 107.27,211.59 107.29,215.47 107.31,210.76 107.34,187.82 107.36,199.51 107.39,249.48 107.42,268.07 107.44,229.92 107.49,217.99 107.50,173.71 107.55,164.28 107.56,208.61 107.58,278.37 107.62,234.82 107.63,272.64 107.68,214.37 107.69,233.02 107.73,167.80 107.76,269.18 107.77,209.13 107.81,304.35 107.84,222.13 107.86,265.95 107.89,204.95 107.92,234.64 107.95,149.17 107.96,132.59 108.00,174.26 108.03,201.70 108.06,174.10 108.08,242.72 108.09,268.04 108.13,212.25 108.16,275.37 108.19,206.28 108.20,258.75 108.24,194.54 108.25,274.07 108.30,223.05 108.32,205.11 108.35,185.99 108.36,223.35 108.39,219.23 108.42,131.63 108.47,252.92 108.48,228.04 108.49,215.35 108.54,251.43 108.57,283.49 108.58,255.66 108.63,245.81 108.65,240.62 108.66,166.63 108.71,197.54 108.73,277.00 108.76,253.00 108.78,150.92 108.80,252.70 108.82,268.39 108.87,231.25 108.88,258.48 108.91,180.03 108.96,272.27 108.98,195.99 109.00,121.09 109.03,232.27 109.06,198.50 109.07,251.71 109.11,209.06 109.13,248.63 109.17,152.53 109.20,187.53 109.21,175.71 109.24,180.25 109.28,271.87 109.31,181.19 109.32,167.22 109.34,278.59 109.37,263.35 109.40,254.72 109.44,238.68 109.46,179.97 109.48,244.36 109.52,166.39 109.54,213.41 109.56,186.45 109.61,159.13 109.63,242.24 109.64,219.73 109.68,128.71 109.71,167.59 109.72,209.89 109.77,224.12 109.79,234.25 109.83,258.22 109.84,275.41 109.87,221.24 109.89,218.06 109.93,279.57 109.97,203.42 109.98,213.48 110.01,230.25 110.03,184.10 110.05,254.78 110.09,176.11 110.13,204.27 110.16,226.43 110.17,214.60 110.21,151.99 110.23,153.32 110.24,220.61 110.28,184.00 110.31,210.30 110.35,222.71 110.36,259.34 110.38,217.14 110.41,259.84 110.44,209.11 110.47,175.26 110.52,303.32 110.54,250.90 110.57,154.88 110.59,190.44 110.62,190.83 110.65,209.31 110.68,207.21 110.70,198.50 110.71,270.41 110.75,204.55 110.77,160.43 110.82,184.73 110.83,161.32 110.86,205.57 110.89,209.16 110.91,234.70 110.94,185.67 110.97,180.96 111.01,223.91 111.04,200.23 111.05,309.93 111.10,172.74 111.10,223.60 111.13,207.84 111.18,305.06 111.19,206.78 111.22,236.54 111.24,216.18 111.28,266.79 111.30,267.44 111.34,215.88 111.36,269.41 111.40,164.47 111.41,218.68 111.43,255.12 111.48,189.48 111.49,252.17 111.52,226.74 111.56,268.95 111.59,319.34 111.62,234.47 111.65,191.73 111.67,263.10 111.70,216.80 111.71,307.80 111.76,252.52 111.79,186.24 111.79,334.88 111.83,224.39 111.86,273.92 111.88,252.74 111.91,207.87 111.96,229.40 111.97,218.24 111.99,148.45 112.02,198.18 112.06,236.40 112.10,203.97 112.12,262.56 112.15,268.55 112.17,239.55 112.19,225.40 112.23,168.52 112.25,173.22 112.28,195.55 112.32,189.96 112.34,188.24 112.37,181.06 112.39,291.36 112.43,174.65 112.44,235.34 112.49,250.81 112.51,223.00 112.53,189.47 112.55,220.96 112.59,230.56 112.62,188.66 112.65,207.44 112.68,248.98 112.70,244.48 112.74,231.61 112.74,204.78 112.79,162.77 112.83,270.18 112.84,219.68 112.88,237.15 112.90,230.66 112.92,172.54 112.96,235.38 112.97,224.64 113.00,246.47 113.04,171.55 113.05,163.94 113.08,136.89 113.13,247.82 113.15,242.83 113.18,227.77 113.21,182.09 113.22,199.93 113.28,206.67 113.30,221.25 113.31,287.49 113.34,223.75 113.37,239.20 113.40,274.47 113.44,228.24 113.47,213.51 113.48,236.68 113.51,225.36 113.55,196.87 113.56,256.17 113.60,216.77 113.62,184.77 113.66,270.31 113.68,261.92 113.71,231.06 113.74,150.54 113.78,202.13 113.79,249.91 113.84,269.38 113.86,250.57 113.89,302.51 113.92,239.97 113.95,268.57 113.97,260.94 114.00,271.65 114.02,242.70 114.06,209.10 114.09,239.34 114.11,206.51 114.15,251.89 114.17,187.94 114.19,179.17 114.21,168.31 114.25,246.11 114.28,225.89 114.30,179.53 114.34,340.11 114.35,234.76 114.40,223.97 114.42,281.99 114.44,131.42 114.48,176.18 114.51,291.53 114.53,251.82 114.56,197.78 114.59,259.44 114.63,287.94 114.64,214.83 114.66,187.70 114.70,233.24 114.75,268.49 114.76,204.01 114.80,243.49 114.83,237.49 114.86,205.36 114.87,274.96 114.92,228.19 114.94,216.78 114.98,228.32 114.98,186.34 115.02,247.88 115.05,216.20 115.09,228.80 115.10,279.95 115.14,237.13 115.15,229.99 115.20,212.65 115.23,278.09 115.25,227.30 115.29,240.60 115.31,285.45 115.32,204.82 115.37,236.94 115.39,188.80 115.41,237.92 115.46,217.37 115.48,243.47 115.50,179.90 115.53,250.83 115.55,218.18 115.58,189.24 115.63,244.08 115.65,211.48 115.67,292.76 115.71,186.10 115.73,270.90 115.75,297.76 115.79,233.71 115.83,244.37 115.84,208.40 115.88,249.75 115.89,190.43 115.94,161.06 115.97,241.79 115.98,224.27 116.03,217.98 116.06,274.68 116.09,214.67 116.11,228.19 116.13,193.10 116.18,214.11 116.20,184.19 116.23,222.75 116.25,244.02 116.27,265.52 116.30,236.36 116.34,178.50 116.35,219.07 116.40,216.48 116.44,293.69 116.45,205.65 116.47,125.41 116.52,317.77 116.53,236.90 116.58,173.12 116.59,234.03 116.64,144.73 116.67,261.07 116.68,256.49 116.72,303.85 116.75,267.00 116.77,180.46 116.79,187.88 116.84,255.37 116.85,246.20 116.89,201.09 116.90,186.91 116.94,218.01 116.99,184.88 116.99,231.02 117.02,266.63 117.07,249.02 117.09,229.32 117.13,223.55 117.16,260.07 117.17,191.83 117.21,226.36 117.23,212.26 117.26,195.70 117.29,189.78 117.32,225.30 117.34,155.89 117.39,281.38 117.42,167.91 117.43,263.85 117.48,255.05 117.50,234.31 117.52,232.39 117.57,299.47 117.59,260.83 117.62,223.15 117.65,260.82 117.68,233.09 117.70,226.37 117.72,228.34 117.76,227.60 117.79,173.11 117.82,181.57 117.83,302.33 117.88,326.51 117.89,284.01 117.92,217.19 117.96,187.74 118.00,166.04 118.01,280.93 118.05,254.29 118.08,168.28 118.12,206.94 118.13,187.55 118.18,174.47 118.20,154.20 118.23,234.93 118.26,257.14 118.28,191.32 118.32,190.23 118.35,193.98 118.38,201.23 118.41,270.88 118.42,257.34 118.45,246.99 118.50,237.45 118.51,199.88 118.54,186.50 118.57,143.51 118.60,172.13 118.63,144.34 118.68,233.24 118.71,266.46 118.72,251.43 118.76,260.58 118.79,178.05 118.80,209.63 118.83,212.57 118.87,228.80 118.91,220.99 118.92,273.00 118.97,187.92 118.98,245.53 119.01,166.12 119.05,316.84 119.06,166.79 119.10,217.70 119.12,254.48 119.18,213.08 119.19,201.39 119.23,206.43 119.26,198.16 119.27,205.12 119.30,269.79 119.35,234.16 119.37,213.69 119.40,248.33 119.42,215.30 119.45,202.20 119.48,245.83 119.53,191.82 119.53,190.40 119.57,152.67 119.62,189.70 119.62,205.06 119.67,211.66 119.69,282.30 119.72,243.52 119.74,294.02 119.79,214.56 119.81,199.55 119.84,213.84 119.86,204.80 119.89,200.83 119.94,209.44 119.97,221.68 120.00,264.67 120.03,241.48 120.06,220.41 120.07,228.12 120.10,201.68 120.15,205.82 120.15,190.23 120.20,272.13 120.24,233.31 120.25,224.70 120.27,194.02 120.33,216.77 120.36,120.26 120.38,216.80 120.39,212.69 120.43,248.85 120.46,228.19 120.51,217.51 120.52,223.34 120.55,236.14 120.60,164.93 120.61,250.74 120.63,186.08 120.68,289.81 120.71,252.51 120.74,269.41 120.76,291.56 120.79,226.09 120.81,263.50 120.85,227.89 120.87,195.41 120.91,218.98 120.95,163.26 120.98,286.92 121.01,282.61 121.04,196.97 121.06,197.58 121.08,206.45 121.13,232.26 121.16,253.22 121.17,224.85 121.20,170.90 121.23,211.86 121.26,207.19 121.30,235.43 121.32,251.35 121.35,271.05 121.38,193.87 121.43,241.99 121.44,262.22 121.49,279.11 121.51,258.90 121.54,203.53 121.58,257.30 121.61,236.02 121.63,235.12 121.66,160.62 121.69,201.94 121.73,190.31 121.74,174.17 121.79,269.90 121.80,254.31 121.84,238.13 121.88,292.57 121.89,223.58 121.93,259.52 121.95,321.14 121.98,243.49 122.01,217.16 122.05,202.03 122.08,189.33 122.11,243.56 122.14,266.39 122.16,250.36 122.19,205.39 122.24,228.71 122.25,306.15 122.28,228.19 122.32,162.29 122.34,258.04 122.39,198.71 122.43,231.03 122.45,287.78 122.46,238.91 122.52,240.51 122.53,268.53 122.55,292.81 122.59,165.95 122.62,332.21 122.66,256.33 122.69,267.23 122.72,242.63 122.74,230.22 122.77,270.32 122.81,223.96 122.84,263.87 122.87,169.24 122.89,238.19 122.92,190.65 122.95,154.38 122.99,174.93 123.00,258.51 123.06,300.62 123.07,233.86 123.10,222.52 123.13,256.18 123.18,220.22 123.21,199.64 123.22,329.36 123.25,285.04 123.30,219.60 123.31,262.99 123.34,202.40 123.39,211.38 123.41,205.78 123.44,256.81 123.47,207.74 123.52,244.41 123.54,203.27 123.55,231.87 123.61,292.45 123.63,264.90 123.67,275.47 123.69,252.30 123.73,135.39 123.75,224.64 123.79,234.25 123.80,160.68 123.83,159.69 123.88,232.88 123.89,253.36 123.93,203.90 123.97,237.38 124.00,198.16 124.03,139.00 124.04,195.77 124.09,254.90 124.10,201.58 124.14,266.23 124.17,195.56 124.20,241.38 124.23,194.90 124.25,234.01 124.31,222.07 124.32,265.19 124.36,266.68 124.38,217.41 124.41,248.44 124.43,175.86 124.47,222.00 124.50,294.63 124.53,223.02 124.57,210.97 124.60,220.45 124.64,208.07 124.67,225.76 124.69,228.09 124.71,218.53 124.75,230.90 124.79,202.90 124.83,262.60 124.85,185.21 124.89,274.64 124.92,142.66 124.95,181.73 124.97,149.30 125.00,155.00 125.04,187.56 125.07,268.72 125.08,200.97 125.13,180.36 125.17,225.19 125.18,223.77 125.21,283.18 125.24,222.24 125.29,212.69 125.31,194.43 125.34,233.28 125.37,200.93 125.39,181.67 125.43,255.78 125.47,221.24 125.49,273.21 125.52,249.12 125.56,204.83 125.58,156.01 125.61,236.34 125.64,242.26 125.68,225.98 125.71,188.83 125.73,246.06 125.76,226.79 125.82,230.02 125.82,216.90 125.86,219.10 125.89,267.73 125.92,236.19 125.95,188.06 125.98,219.59 126.02,262.07 126.04,256.34 126.09,280.91 126.11,285.34 126.16,243.47 126.18,238.93 126.22,215.70 126.22,202.56 126.25,299.38 126.30,223.92 126.34,207.61 126.36,232.69 126.39,231.13 126.41,147.84 126.45,174.72 126.47,190.81 126.52,259.16 126.55,271.67 126.59,235.74 126.60,239.54 126.64,216.42 126.69,211.92 126.70,271.80 126.75,231.66 126.78,195.28 126.79,218.36 126.84,233.98 126.86,223.72 126.88,239.25 126.94,237.53 126.96,192.02 126.98,204.12 127.02,210.15 127.03,245.57 127.09,135.82 127.10,236.65 127.15,186.85 127.17,268.91 127.19,255.19 127.24,265.72 127.27,211.41 127.30,225.59 127.34,218.29 127.37,176.39 127.39,219.57 127.42,203.50 127.45,238.45 127.49,232.45 127.51,182.67 127.55,228.83 127.59,259.20 127.63,282.69 127.63,253.21 127.67,135.78 127.72,191.00 127.74,241.62 127.76,205.31 127.80,204.36 127.82,235.54 127.86,225.13 127.89,165.50 127.93,262.20 127.97,289.57 128.00,202.00 128.01,179.28 128.05,189.86 128.08,288.32 128.10,249.05 128.15,236.99 128.17,218.31 128.22,211.11 128.25,201.19 128.27,205.48 128.31,232.76 128.34,283.37 128.38,202.39 128.40,104.81 128.42,232.72 128.48,247.58 128.50,246.11 128.51,204.35 128.56,245.27 128.59,251.91 128.61,275.58 128.64,229.91 128.69,242.75 128.71,248.84 128.74,222.21 128.78,215.25 128.81,210.54 128.84,238.19 128.89,333.10 128.91,254.79 128.94,282.91 128.98,219.93 129.01,236.56 129.02,218.15 129.06,232.40 129.11,194.58 129.11,263.00 129.16,234.26 129.19,205.55 129.23,283.08 129.27,258.24 129.29,270.03 129.32,231.59 129.34,247.21 129.37,238.18 129.41,171.63 129.45,180.01 129.48,218.80 129.50,232.05 129.54,220.40 129.57,228.24 129.60,213.43 129.62,254.29 129.67,190.48 129.71,228.97 129.74,237.68 129.76,316.13 129.80,261.76 129.82,213.46 129.87,216.26 129.90,231.80 129.93,297.77 129.96,254.49 129.97,253.56 130.03,261.27 130.05,202.26 130.08,216.76 130.11,214.00 130.13,160.32 130.17,199.29 130.22,231.54 130.25,167.09 130.29,208.72 130.30,215.62 130.33,234.06 130.37,233.88 130.40,253.56 130.42,271.05 130.45,179.18 130.50,230.34 130.51,199.40 130.55,264.39 130.59,193.09 130.62,191.42 130.67,179.57 130.69,182.99 130.72,213.50 130.76,170.40 130.78,170.71 130.81,253.52 130.85,251.79 130.90,248.00 130.92,203.86 130.94,177.32 130.97,220.02 131.02,167.53 131.06,290.64 131.06,214.73 131.12,256.67 131.14,206.83 131.18,274.02 131.21,204.40 131.25,230.16 131.27,188.45 131.29,184.75 131.33,176.41 131.37,219.30 131.41,248.11 131.42,222.04 131.45,242.60 131.50,273.48 131.54,167.23 131.56,202.80 131.60,187.34 131.64,220.33 131.67,244.95 131.68,220.46 131.72,236.88 131.76,150.15 131.79,260.54 131.83,257.24 131.86,194.12 131.88,178.54 131.92,237.38 131.94,278.75 131.99,243.19 132.01,276.92 132.04,200.59 132.08,195.40 132.11,233.85 132.14,250.81 132.18,262.61 132.21,213.44 132.23,230.51 132.26,232.15 132.30,264.30 132.34,241.19 132.38,240.85 132.42,177.27 132.42,223.28 132.46,269.40 132.50,273.28 132.55,250.94 132.55,178.55 132.59,269.00 132.64,282.02 132.66,199.31 132.68,197.03 132.73,186.27 132.77,234.25 132.79,172.29 132.82,289.09 132.86,259.16 132.89,216.93 132.94,238.76 132.96,155.76 132.98,259.10 133.02,223.44 133.04,206.26 133.10,271.71 133.13,193.25 133.17,219.77 133.17,190.34 133.21,285.52 133.26,231.67 133.28,220.86 133.33,223.70 133.34,222.79 133.39,267.83 133.42,207.42 133.45,263.45 133.48,211.09 133.51,214.24 133.56,206.25 133.59,197.06 133.61,236.43 133.63,221.58 133.68,198.58 133.71,257.09 133.73,280.43 133.77,229.59 133.82,262.06 133.83,240.52 133.86,238.37 133.92,284.27 133.95,215.88 133.96,223.41 134.02,196.38 134.03,218.55 134.07,193.09 134.10,225.41 134.15,238.94 134.17,237.61 134.20,275.65 134.23,183.77 134.26,190.65 134.31,268.65 134.33,249.33 134.38,208.65 134.39,196.68 134.42,174.75 134.47,248.94 134.49,148.25 134.54,245.23 134.58,199.84 134.60,146.45 134.64,233.45 134.65,259.63 134.69,196.70 134.74,237.85 134.76,214.84 134.80,223.66 134.82,244.36 134.88,276.58 134.91,235.36 134.93,207.26 134.98,180.65 135.01,205.67 135.02,222.95 135.05,133.36 135.10,183.52 135.14,146.04 135.17,179.17 135.21,242.54 135.23,215.03 135.28,252.75 135.29,243.24 135.33,224.65 135.37,207.91 135.41,239.07 135.42,194.82 135.48,182.74 135.51,198.64 135.52,247.36 135.58,248.06 135.59,196.95 135.63,205.00 135.67,255.87 135.71,147.48 135.71,184.06 135.77,190.04 135.78,199.46 135.84,253.02 135.88,145.18 135.90,171.78 135.91,195.83 135.96,245.60 135.98,154.87 136.03,205.42 136.08,222.14 136.10,214.49 136.12,245.30 136.18,181.48 136.20,275.97 136.24,229.59 136.25,253.94 136.29,159.01 136.34,255.37 136.37,231.38 136.39,196.46 136.44,200.98 136.46,186.32 136.50,257.50 136.55,173.68 136.57,220.09 136.59,166.55 136.62,191.63 136.66,260.01 136.72,229.01 136.74,192.97 136.77,163.89 136.79,195.08 136.83,216.15 136.88,273.93 136.91,243.19 136.94,231.33 136.99,246.20 137.01,231.59 137.04,239.03 137.08,283.34 137.12,203.48 137.14,264.85 137.18,218.26 137.20,182.47 137.24,224.31 137.26,257.30 137.31,187.38 137.35,129.55 137.36,249.68 137.42,154.47 137.45,219.37 137.48,194.22 137.50,185.43 137.53,229.32 137.59,222.10 137.60,153.98 137.66,252.31 137.69,258.93 137.72,253.65 137.74,228.06 137.78,212.88 137.80,216.73 137.86,237.57 137.90,231.53 137.92,223.89 137.96,179.31 137.98,244.03 138.01,204.82 138.07,209.34 138.10,172.04 138.11,217.01 138.17,164.39 138.19,223.43 138.21,111.33 138.26,188.70 138.28,296.19 138.34,208.35 138.37,273.48 138.41,220.84 138.41,102.16 138.47,209.00 138.48,191.04 138.52,211.40 138.55,268.83 138.59,213.27 138.63,186.28 138.68,244.32 138.71,227.71 138.73,230.46 138.75,205.60 138.82,219.15 138.83,252.98 138.86,220.54 138.91,231.62 138.93,224.64 138.98,163.89 139.02,295.37 139.04,194.95 139.09,222.14 139.10,191.51 139.14,223.52 139.17,224.93 139.21,250.65 139.25,187.20 139.27,237.57 139.30,198.16 139.36,168.52 139.39,192.21 139.42,165.01 139.45,251.56 139.47,241.01 139.53,160.97 139.54,209.55 139.60,319.61 139.63,235.95 139.67,235.86 139.68,223.55 139.71,191.98 139.77,285.34 139.79,199.67 139.83,194.00 139.86,279.95 139.89,243.08 139.94,268.37 139.98,147.51 140.02,161.22 140.04,177.10 140.06,170.32 140.10,206.96 140.14,158.36 140.16,243.00 140.20,256.22 140.26,172.09 140.28,182.75 140.30,167.19 140.34,150.93 140.40,286.72 140.41,250.67 140.44,166.37 140.48,176.27 140.50,242.19 140.55,256.41 140.58,215.30 140.63,191.13 140.66,205.84 140.69,274.05 140.73,249.06 140.76,242.76 140.80,185.05 140.84,119.96 140.85,168.53 140.88,220.62 140.95,244.46 140.98,212.13 141.01,241.50 141.03,143.94 141.07,242.01 141.09,152.63 141.15,254.89 141.18,213.96 141.20,238.69 141.26,266.91 141.30,137.99 141.33,247.96 141.36,149.25 141.40,229.44 141.42,212.30 141.44,187.45 141.48,160.15 141.52,209.10 141.56,260.23 141.58,241.78 141.62,191.07 141.66,185.02 141.68,294.14 141.75,277.72 141.75,265.83 141.81,121.31 141.84,199.64 141.87,255.35 141.91,225.89 141.96,213.25 141.97,191.96 142.02,268.45 142.05,178.39 142.07,202.62 142.11,219.14 142.16,179.82 142.17,340.44 142.24,222.29 142.24,210.19 142.31,218.06 142.33,255.01 142.37,258.52 142.39,181.87 142.44,210.27 142.47,236.42 142.49,185.56 142.53,246.47 142.59,302.90 142.62,263.26 142.65,111.71 142.69,236.65 142.72,253.37 142.74,239.58 142.80,175.60 142.83,196.80 142.86,243.15 142.88,244.63 142.93,220.47 142.96,246.73 143.00,200.61 143.04,288.00 143.06,232.31 143.09,257.78 143.15,240.88 143.18,221.65 143.21,243.25 143.25,272.18 143.30,171.21 143.33,167.37 143.34,212.93 143.39,210.92 143.43,229.13 143.46,253.48 143.48,174.07 143.54,184.00 143.57,257.85 143.60,161.00 143.62,181.69 143.68,222.02 143.70,181.20 143.73,200.24 143.79,170.34 143.80,199.74 143.85,281.72 143.87,181.22 143.91,213.43 143.95,137.85 144.00,184.95 144.04,190.11 144.05,220.46 144.08,227.26 144.15,200.12 144.18,253.59 144.22,185.51 144.24,265.70 144.29,184.47 144.32,155.33 144.35,155.15 144.37,169.98 144.42,223.68 144.45,253.49 144.48,193.80 144.51,202.82 144.54,245.51 144.60,260.17 144.64,200.64 144.66,206.98 144.69,241.37 144.72,265.28 144.76,256.05 144.82,157.57 144.85,256.62 144.87,197.88 144.90,265.80 144.95,276.61 144.98,202.78 145.01,238.77 145.06,237.94 145.09,259.31 145.11,233.74 145.18,242.77 145.22,245.79 145.24,158.01 145.26,223.69 145.33,224.05 145.33,194.03 145.38,236.86 145.43,248.92 145.45,158.24 145.49,159.96 145.51,179.10 145.56,159.82 145.59,240.50 145.64,166.41 145.66,217.06 145.72,219.22 145.74,242.36 145.79,236.03 145.80,218.34 145.86,202.44 145.87,248.98 145.92,229.04 145.97,212.13 145.99,277.39 146.02,331.07 146.05,232.13 146.10,181.19 146.14,169.39 146.18,259.26 146.22,220.90 146.23,276.70 146.28,235.60 146.32,216.46 146.35,272.27 146.39,215.86 146.41,248.16 146.46,188.24 146.49,185.85 146.52,166.30 146.57,240.91 146.62,243.99 146.63,257.70 146.69,264.27 146.72,176.28 146.76,322.98 146.79,292.19 146.83,282.07 146.87,267.49 146.91,167.04 146.93,208.38 146.97,234.65 147.01,260.99 147.05,252.41 147.06,211.84 147.10,267.19 147.16,238.47 147.20,203.28 147.23,224.17 147.25,298.90 147.29,236.69 147.32,203.52 147.37,226.57 147.42,201.64 147.45,228.07 147.49,192.35 147.50,214.68 147.53,229.57 147.58,182.39 147.64,252.29 147.66,287.80 147.69,253.02 147.74,237.48 147.77,154.10 147.82,218.01 147.85,325.80 147.87,235.07 147.93,201.59 147.95,229.51 147.98,268.57 148.04,221.29 148.06,218.91 148.09,206.89 148.12,302.28 148.17,247.59 148.22,246.34 148.23,262.12 148.28,242.70 148.31,285.40 148.35,269.28 148.41,306.31 148.42,247.73 148.46,194.30 148.51,132.01 148.52,260.71 148.57,193.54 148.63,202.67 148.65,257.97 148.69,164.57 148.74,286.48 148.77,269.79 148.81,273.14 148.85,241.30 148.86,190.71 148.89,247.14 148.94,266.16 148.99,199.98 149.01,207.18 149.06,199.36 149.08,253.44 149.13,206.33 149.18,221.93 149.22,244.44 149.23,192.88 149.26,197.70 149.29,222.65 149.37,249.04 149.40,230.12 149.41,202.25 149.46,206.71 149.50,183.48 149.54,200.36 149.58,235.78 149.62,163.30 149.66,142.83 149.67,236.42 149.70,262.02 149.76,154.87 149.79,168.88 149.82,239.63 149.88,223.27 149.90,152.84 149.95,188.40 149.96,276.00 150.03,252.62 150.04,162.22 150.10,222.49 150.11,252.93 150.17,270.79 150.19,202.51 150.25,258.37 150.27,202.84 150.33,202.09 150.34,251.49 150.38,187.79 150.42,280.61 150.45,246.24 150.49,210.64 150.55,185.12 150.58,248.77 150.61,291.03 150.65,203.24 150.70,225.39 150.73,192.23 150.75,218.36 150.79,174.27 150.85,214.20 150.88,250.88 150.92,250.95 150.96,264.72 150.99,229.77 151.03,188.16 151.08,257.01 151.09,193.54 151.15,244.98 151.18,233.06 151.22,233.01 151.25,210.65 151.28,123.73 151.32,252.63 151.36,226.04 151.42,260.35 151.45,281.56 151.47,174.10 151.51,298.39 151.56,242.98 151.59,203.38 151.61,299.62 151.67,249.73 151.70,267.69 151.75,195.07 151.76,241.91 151.80,205.40 151.85,215.87 151.89,198.26 151.91,224.68 151.96,217.95 151.99,183.63 152.02,215.45 152.08,251.32 152.12,244.27 152.15,245.90 152.17,190.53 152.22,204.98 152.27,237.48 152.31,216.32 152.34,282.03 152.38,273.78 152.40,306.71 152.44,223.47 152.50,250.84 152.52,220.50 152.57,182.87 152.61,229.65 152.63,232.20 152.69,290.75 152.70,244.65 152.75,238.35 152.81,198.36 152.84,225.89 152.87,264.93 152.91,234.33 152.94,209.05 152.99,217.97 153.01,155.90 153.08,261.81 153.12,297.48 153.15,228.36 153.19,239.80 153.20,225.09 153.24,236.66 153.30,194.00 153.34,174.79 153.36,195.87 153.41,207.93 153.44,194.48 153.49,211.73 153.52,175.99 153.54,213.32 153.60,233.04 153.62,246.21 153.66,236.48 153.73,272.15 153.74,176.40 153.80,208.19 153.83,126.29 153.84,187.12 153.89,207.81 153.94,255.88 153.98,207.03 154.01,158.85 154.05,227.86 154.09,233.93 154.12,252.70 154.15,218.39 154.20,251.38 154.25,211.27 154.28,223.34 154.30,191.41 154.37,251.40 154.39,217.34 154.42,212.56 154.48,218.08 154.52,296.27 154.54,216.61 154.59,216.39 154.62,256.63 154.68,240.02 154.69,197.02 154.75,109.15 154.78,232.28 154.81,198.66 154.87,225.22 154.89,175.35 154.94,238.55 154.97,157.44 155.01,247.80 155.05,177.05 155.10,237.92 155.14,213.80 155.18,222.20 155.20,212.24 155.26,208.29 155.27,239.70 155.32,259.96 155.37,224.20 155.40,229.09 155.43,134.41 155.47,216.88 155.53,213.05 155.57,213.58 155.58,171.54 155.61,192.36 155.68,213.69 155.73,249.10 155.73,236.12 155.78,171.00 155.81,154.48 155.87,170.49 155.90,238.42 155.93,205.53 155.97,118.69 156.03,219.16 156.06,287.91 156.10,210.84 156.13,180.27 156.18,199.48 156.23,164.44 156.24,250.31 156.29,191.80 156.34,233.22 156.38,195.57 156.40,206.00 156.44,291.69 156.49,256.04 156.53,240.69 156.58,213.86 156.62,190.22 156.66,295.08 156.70,192.60 156.72,136.23 156.74,258.87 156.81,285.47 156.85,245.84 156.88,221.85 156.92,154.00 156.95,221.89 157.01,226.46 157.02,214.97 157.09,210.38 157.12,219.95 157.17,229.22 157.21,263.41 157.22,232.57 157.28,267.97 157.31,197.51 157.36,196.95 157.39,258.94 157.43,184.89 157.45,258.61 157.53,260.26 157.53,170.87 157.60,280.13 157.63,245.23 157.67,271.20 157.72,232.66 157.74,266.77 157.77,250.92 157.82,238.47 157.84,240.28 157.91,249.47 157.93,209.75 157.98,219.41 158.03,163.14 158.07,253.94 158.10,170.11 158.13,248.64 158.17,168.73 158.20,218.17 158.27,215.14 158.29,176.86 158.35,258.23 158.36,212.92 158.41,185.85 158.45,212.83 158.50,200.93 158.52,223.73 158.57,177.89 158.61,261.96 158.64,192.36 158.70,222.70 158.75,214.44 158.78,182.68 158.79,214.43 158.87,231.59 158.87,244.45 158.91,177.73 158.97,265.23 159.00,262.56 159.05,207.22 159.11,232.66 159.12,216.18 159.16,236.88 159.22,218.51 159.26,245.80 159.30,178.84 159.35,261.63 159.36,183.64 159.41,156.28 159.44,209.18 159.50,282.11 159.53,258.87 159.55,225.74 159.62,273.93 159.65,170.85 159.68,173.55 159.74,194.58 159.75,220.66 159.80,151.83 159.84,298.23 159.89,235.27 159.92,184.80 159.98,220.46 159.99,240.71 160.05,257.72 160.10,208.08 160.14,200.13 160.16,176.93 160.23,256.92 160.23,198.39 160.29,202.54 160.35,245.24 160.36,217.35 160.39,264.27 160.44,275.82 160.51,230.16 160.51,270.32 160.56,157.50 160.60,228.54 160.63,182.68 160.67,251.41 160.72,157.55 160.78,190.26 160.79,197.53 160.86,227.69 160.91,229.85 160.91,260.71 160.97,255.32 161.02,184.90 161.06,261.61 161.10,270.12 161.12,222.88 161.16,311.94 161.22,264.05 161.27,192.85 161.31,213.25 161.33,241.37 161.37,304.14 161.43,276.46 161.46,183.57 161.49,158.81 161.55,242.98 161.57,260.42 161.64,284.22 161.65,142.15 161.69,277.92 161.74,280.71 161.78,254.39 161.82,178.96 161.87,281.54 161.91,244.34 161.95,235.54 161.97,237.62 162.03,254.51 162.05,224.97 162.09,241.17 162.14,238.12 162.19,289.55 162.23,262.78 162.27,258.73 162.30,214.93 162.36,173.87 162.40,213.52 162.44,236.05 162.49,271.75 162.53,261.35 162.54,256.97 162.59,226.95 162.66,304.13 162.67,237.43 162.72,246.25 162.76,182.34 162.81,243.59 162.85,195.73 162.90,292.17 162.93,218.89 162.98,239.22 163.02,229.14 163.06,254.21 163.10,243.56 163.12,190.88 163.15,183.77 163.21,283.88 163.23,276.44 163.30,219.27 163.32,183.54 163.36,220.67 163.42,232.77 163.47,204.33 163.51,249.28 163.53,255.40 163.59,257.30 163.63,264.82 163.68,253.93 163.69,268.87 163.74,276.12 163.79,235.50 163.84,200.17 163.85,211.76 163.91,178.63 163.95,261.76 164.01,218.34 164.02,188.81 164.06,226.92 164.12,240.53 164.16,252.59 164.19,193.65 164.23,237.56 164.27,191.13 164.33,235.39 164.38,200.93 164.39,208.50 164.46,276.15 164.48,256.94 164.55,176.71 164.58,217.85 164.62,203.50 164.65,190.08 164.68,233.24 164.74,161.60 164.77,214.81 164.81,213.85 164.87,218.62 164.92,267.28 164.96,247.88 164.98,292.04 165.01,255.39 165.07,250.96 165.13,247.86 165.13,209.99 165.21,255.37 165.24,258.73 165.29,243.96 165.31,302.98 165.38,192.85 165.41,280.61 165.43,303.50 165.47,212.07 165.54,193.34 165.57,255.99 165.62,211.21 165.67,251.77 165.69,260.13 165.72,182.87 165.80,286.21 165.82,274.98 165.88,199.87 165.92,187.72 165.96,209.44 165.98,224.80 166.05,254.48 166.07,222.46 166.11,252.27 166.18,233.41 166.18,208.07 166.25,201.06 166.28,279.53 166.34,219.63 166.36,256.03 166.41,204.65 166.45,153.82 166.48,275.30 166.54,258.92 166.59,166.54 166.61,287.47 166.66,177.96 166.72,222.45 166.75,165.69 166.80,213.90 166.83,212.43 166.86,331.01 166.90,240.64 166.96,184.88 167.00,212.62 167.05,252.02 167.10,282.25 167.14,195.83 167.15,217.37 167.20,232.16 167.25,262.18 167.30,292.13 167.34,137.76 167.40,214.97 167.42,248.05 167.46,204.24 167.51,217.70 167.55,243.81 167.59,271.21 167.62,299.54 167.67,241.70 167.73,185.96 167.74,225.33 167.82,268.44 167.86,230.90 167.88,229.54 167.93,186.91 167.96,223.17 168.02,269.21 168.04,253.86 168.09,208.56 168.14,279.43 168.18,266.27 168.24,214.65 168.28,289.59 168.32,238.15 168.38,237.82 168.39,220.92 168.44,219.24 168.51,222.93 168.52,229.61 168.56,200.39 168.62,224.54 168.65,249.11 168.68,236.20 168.75,268.23 168.78,190.40 168.81,215.82 168.86,290.79 168.91,223.15 168.97,292.58 169.00,184.00 169.04,217.32 169.07,207.17 169.15,265.06 169.18,218.95 169.21,212.35 169.27,300.08 169.32,299.50 169.36,224.37 169.38,281.94 169.42,202.86 169.47,243.37 169.53,213.62 169.58,184.37 169.62,240.46 169.63,219.87 169.69,261.86 169.74,251.75 169.78,222.84 169.80,222.05 169.87,230.28 169.92,221.10 169.97,250.18 169.97,200.70 170.04,159.49 170.07,271.38 170.12,228.81 170.18,193.71 170.19,210.49 170.26,206.49 170.30,277.25 170.32,274.54 170.37,179.68 170.41,153.05 170.49,259.07 170.53,222.25 170.56,254.54 170.60,200.38 170.66,198.75 170.69,162.91 170.71,243.97 170.76,216.56 170.82,198.96 170.87,213.20 170.91,205.50 170.94,186.67 170.97,264.03 171.05,184.15 171.08,181.06 171.14,230.77 171.17,187.13 171.18,213.29 171.26,246.88 171.29,215.05 171.32,260.97 171.38,201.05 171.42,191.62 171.46,258.62 171.50,279.77 171.54,186.41 171.62,206.03 171.63,272.61 171.67,186.16 171.73,224.90 171.76,132.10 171.82,249.62 171.88,251.92 171.89,229.64 171.96,218.82 171.98,185.78 172.05,208.48 172.06,207.27 172.11,232.39 172.18,190.99 172.19,240.88 172.26,311.38 172.30,224.93 172.33,282.48 172.41,180.02 172.44,207.15 172.47,214.93 172.54,249.91 172.56,292.23 172.61,252.17 172.63,165.59 172.71,233.58 172.75,207.61 172.79,152.66 172.84,207.41 172.87,174.10 172.90,236.45 172.94,233.92 173.00,138.96 173.04,266.86 173.09,249.91 173.14,236.46 173.19,248.96 173.21,171.68 173.27,231.15 173.33,323.77 173.35,307.62 173.42,215.59 173.46,218.14 173.50,173.06 173.55,282.98 173.56,249.36 173.63,201.16 173.66,193.41 173.71,205.24 173.74,214.97 173.80,165.89 173.87,173.62 173.90,202.47 173.93,176.57 173.98,256.92 174.04,187.00 174.09,231.77 174.11,275.57 174.18,310.98 174.18,221.68 174.23,262.83 174.31,288.41 174.35,254.89 174.40,227.42 174.42,137.99 174.48,294.34 174.51,217.71 174.57,261.83 174.60,280.84 174.66,201.96 174.71,178.24 174.74,310.95 174.79,200.04 174.84,209.48 174.88,211.06 174.92,214.15 174.95,202.70 174.99,284.97 175.03,232.95 175.10,172.57 175.14,226.68 175.19,202.01 175.23,201.08 175.27,238.44 175.34,201.98 175.38,173.11 175.43,183.30 175.44,273.24 175.52,167.82 175.55,231.25 175.58,149.98 175.63,211.32 175.68,182.72 175.72,280.93 175.77,237.45 175.81,270.14 175.87,224.35 175.89,223.20 175.97,238.08 176.02,220.42 176.06,225.58 176.07,207.69 176.12,163.39 176.20,194.14 176.22,143.50 176.27,189.32 176.31,219.96 176.35,231.04 176.39,177.97 176.47,192.46 176.52,241.21 176.56,209.05 176.57,198.51 176.62,253.66 176.67,223.46 176.73,234.05 176.77,195.26 176.84,175.76 176.85,264.71 176.91,238.63 176.94,228.18 176.99,194.18 177.06,244.51 177.08,267.94 177.13,265.71 177.19,259.36 177.25,223.46 177.28,185.67 177.30,209.94 177.38,201.95 177.40,213.19 177.46,192.80 177.50,180.91 177.57,204.15 177.58,234.07 177.65,166.42 177.69,232.32 177.72,192.25 177.77,244.96 177.83,234.02 177.87,233.24 177.90,249.04 177.94,202.47 178.02,215.99 178.03,269.22 178.08,165.33 178.14,239.38 178.19,237.87 178.24,266.29 178.28,207.46 178.32,267.43 178.39,312.36 178.41,259.34 178.47,176.00 178.50,218.82 178.54,230.75 178.59,325.65 178.63,198.42 178.70,221.02 178.72,245.86 178.80,270.93 178.84,237.79 178.87,243.47 178.93,267.74 178.99,246.62 179.00,237.76 179.06,168.70 179.11,231.99 179.15,278.70 179.19,216.48 179.25,278.19 179.29,196.10 179.35,183.00 179.37,199.68 179.41,186.84 179.50,116.38 179.53,319.38 179.56,182.10 179.62,212.68 179.69,154.73 179.73,201.12 179.75,167.56 179.80,191.74 179.85,188.57 179.88,193.68 179.93,236.62 180.00,168.96 180.04,228.52 180.10,243.98 180.12,239.04 180.19,206.43 180.21,291.18 180.30,242.62 180.34,225.91 180.34,262.60 180.41,277.66 180.46,174.41 180.48,153.88 180.56,299.85 180.61,225.09 180.64,276.71 180.70,149.23 180.76,217.52 180.81,209.29 180.84,149.97 180.87,219.68 180.93,228.04 180.98,321.86 181.03,171.94 181.07,152.46 181.14,207.95 181.14,151.72 181.23,251.98 181.28,217.99 181.32,242.88 181.36,73.36 181.39,193.12 181.44,163.64 181.49,162.03 181.54,244.00 181.59,218.74 181.62,218.11 181.66,194.60 181.74,274.63 181.80,202.41 181.80,190.48 181.87,181.31 181.91,232.29 181.96,190.84 182.03,239.71 182.04,174.39 182.11,200.02 182.14,235.47 182.18,211.15 182.23,234.33 182.28,236.89 182.33,224.98 182.39,232.40 182.42,269.40 182.47,282.22 182.53,220.65 182.57,241.54 182.64,255.48 182.66,218.58 182.70,219.76 182.77,276.27 182.81,249.14 182.86,258.02 182.92,242.73 182.97,245.76 182.99,238.05 183.07,245.32 183.10,216.53 183.16,170.83 183.20,201.03 183.27,271.51 183.29,203.11 183.32,216.31 183.41,205.42 183.44,232.95 183.46,226.51 183.53,230.32 183.57,224.53 183.64,172.75 183.70,211.24 183.74,213.60 183.77,175.92 183.81,218.84 183.85,220.83 183.92,188.81 183.95,285.78 184.01,164.96 184.08,194.69 184.09,217.84 184.17,145.03 184.19,173.63 184.24,218.59 184.31,223.91 184.34,230.74 184.38,259.15 184.46,203.28 184.50,290.43 184.56,242.78 184.59,163.44 184.64,200.06 184.69,228.34 184.72,212.00 184.79,197.56 184.86,338.58 184.88,209.19 184.93,222.71 184.99,270.40 185.05,217.95 185.05,223.12 185.13,231.55 185.16,221.87 185.24,231.74 185.28,241.68 185.33,265.41 185.36,187.56 185.43,153.12 185.45,221.73 185.53,243.12 185.55,187.63 185.59,222.36 185.66,252.83 185.72,227.33 185.73,226.75 185.78,270.36 185.86,223.57 185.90,207.83 185.93,267.83 186.02,238.54 186.05,240.46 186.11,174.73 186.17,178.56 186.18,224.78 186.26,145.04 186.29,306.14 186.33,224.28 186.41,184.44 186.44,162.79 186.49,177.38 186.54,227.33 186.60,205.54 186.64,225.72 186.68,266.67 186.72,245.54 186.79,241.09 186.84,175.09 186.88,227.95 186.93,237.03 186.97,283.46 187.04,283.81 187.08,286.95 187.15,266.96 187.18,194.46 187.20,202.98 187.26,236.62 187.32,185.35 187.37,176.30 187.43,196.82 187.46,229.63 187.51,283.96 187.55,250.77 187.62,239.77 187.69,283.29 187.71,193.41 187.79,261.26 187.81,127.05 187.84,240.79 187.93,172.88 187.94,190.10 187.99,317.78 188.06,308.85 188.10,284.50 188.16,190.67 188.20,228.98 188.24,206.47 188.32,171.12 188.36,197.01 188.40,218.15 188.48,146.76 188.53,243.82 188.57,207.42 188.59,149.50 188.65,199.11 188.69,231.08 188.77,215.51 188.80,243.08 188.87,180.79 188.92,216.36 188.94,153.50 189.02,173.95 189.07,233.08 189.12,177.90 189.14,171.11 189.18,233.81 189.27,245.91 189.28,208.43 189.35,249.17 189.41,200.28 189.44,163.07 189.48,193.10 189.57,268.52 189.62,259.86 189.66,221.42 189.72,210.49 189.77,216.89 189.82,171.78 189.88,153.01 189.93,215.43 189.94,200.18 190.00,203.90 190.05,246.15 190.08,214.84 190.18,136.43 190.21,309.06 190.26,228.02 190.30,254.83 190.34,248.12 190.42,269.82 190.45,199.67 190.49,240.57 190.55,204.32 190.59,202.36 190.68,251.71 190.70,255.44 190.78,172.00 190.81,177.74 190.88,208.54 190.89,198.59 190.96,224.25 191.01,259.88 191.06,261.73 191.14,202.47 191.16,225.47 191.21,213.03 191.29,277.75 191.31,253.41 191.37,255.01 191.40,218.11 191.48,232.52 191.54,228.15 191.59,218.54 191.62,203.35 191.68,266.55 191.71,238.45 191.77,169.04 191.84,168.89 191.89,256.70 191.94,173.88 192.00,269.29 192.05,242.39 192.10,197.19 192.11,237.84 192.18,180.12 192.23,212.02 192.31,167.11 192.36,240.48 192.37,217.97 192.42,235.75 192.47,308.90 192.53,227.21 192.57,161.85 192.62,264.15 192.71,238.83 192.77,257.27 192.81,149.47 192.87,248.20 192.92,206.15 192.95,120.30 193.01,182.33 193.08,206.45 193.10,215.03 193.14,287.99 193.21,182.72 193.25,226.85 193.32,199.34 193.36,187.92 193.42,205.52 193.47,268.51 193.54,207.18 193.59,200.29 193.61,251.28 193.65,255.10 193.73,165.46 193.79,224.79 193.85,239.24 193.88,222.92 193.96,155.71 194.01,180.07 194.02,203.53 194.07,159.09 194.14,256.37 194.21,253.26 194.25,183.03 194.28,268.04 194.33,206.14 194.42,242.31 194.45,226.80 194.49,263.31 194.55,280.05 194.63,231.07 194.67,230.16 194.74,167.43 194.75,157.32 194.80,221.95 194.86,212.83 194.90,248.35 194.96,267.73 195.04,198.60 195.09,222.06 195.15,216.38 195.18,231.85 195.25,287.24 195.26,235.21 195.36,100.97 195.38,158.87 195.45,191.00 195.52,274.59 195.52,197.53 195.60,234.33 195.64,236.32 195.69,197.30 195.76,313.80 195.82,220.71 195.87,267.82 195.93,208.49 195.94,318.07 196.01,198.02 196.06,166.51 196.10,205.15 196.18,217.00 196.21,230.72 196.27,279.58 196.36,252.10 196.39,192.23 196.44,218.45 196.51,182.77 196.55,215.79 196.59,208.46 196.64,142.67 196.68,163.72 196.77,228.06 196.80,232.06 196.88,189.67 196.94,221.53 196.98,147.53 197.04,191.94 197.05,250.74 197.14,188.24 197.19,226.93 197.21,224.36 197.27,223.18 197.35,163.95 197.39,224.32 197.46,192.15 197.51,217.62 197.54,130.60 197.62,168.19 197.67,194.93 197.73,194.96 197.78,192.57 197.83,202.93 197.89,146.09 197.91,235.88 198.00,173.57 198.05,227.05 198.08,180.45 198.17,219.24 198.20,265.04 198.26,176.71 198.29,184.21 198.37,179.80 198.43,217.40 198.47,233.32 198.51,188.68 198.55,205.97 198.61,252.36 198.66,282.39 198.74,261.77 198.78,221.09 198.84,258.21 198.90,210.39 198.94,258.43 199.01,193.85 199.07,231.18 199.09,229.84 199.14,243.81 199.19,256.41 199.26,189.35 199.30,189.97 199.39,297.92 199.44,198.55 199.46,205.41 199.56,271.34 199.57,156.06 199.62,231.28 199.70,196.39 199.73,219.55 199.82,168.29 199.84,166.04 199.92,239.87 199.99,172.45 200.02,186.22 200.06,197.38 200.14,214.16 200.17,228.35 200.26,171.50 200.29,293.96 200.33,241.19 200.40,222.43 200.43,198.84 200.50,264.72 200.59,282.66 200.62,246.71 200.70,237.85 200.73,197.48 200.77,211.47 200.83,183.18 200.87,201.96 200.93,230.10 201.01,237.83 201.04,209.17 201.13,250.49 201.14,253.00 201.20,255.69 201.26,129.34 201.33,218.68 201.38,166.94 201.44,223.58 201.51,283.53 201.52,160.56 201.60,198.92 201.68,136.00 201.72,258.02 201.78,277.97 201.81,215.95 201.91,219.41 201.94,230.75 201.97,221.51 202.03,188.69 202.11,230.45 202.13,291.34 202.19,213.59 202.29,225.41 202.30,170.78 202.36,215.60 202.44,276.39 202.50,280.22 202.55,222.22 202.60,315.82 202.66,265.60 202.73,172.42 202.77,236.23 202.84,238.78 202.87,160.97 202.95,196.75 202.99,258.87 203.06,188.68 203.07,240.40 203.13,252.08 203.21,233.81 203.27,211.09 203.29,243.01 203.38,211.41 203.43,217.83 203.49,208.75 203.55,254.22 203.59,230.65 203.68,203.97 203.72,238.43 203.78,262.94 203.84,308.13 203.86,221.25 203.95,192.02 203.99,250.51 204.03,191.49 204.11,235.95 204.15,187.96 204.20,225.17 204.27,231.66 204.34,294.40 204.36,296.65 204.41,183.40 204.51,269.97 204.56,240.18 204.60,296.06 204.64,283.61 204.71,274.31 204.79,177.48 204.83,245.84 204.87,234.03 204.92,229.48 204.99,257.98 205.05,269.13 205.12,249.00 205.14,263.42 205.20,278.77 205.25,197.54 205.35,260.04 205.37,233.09 205.45,210.95 205.50,199.35 205.55,165.94 205.61,247.05 205.67,276.00 205.73,244.81 205.77,286.76 205.85,286.50 205.87,259.55 205.98,264.51 206.01,234.95 206.04,197.75 206.12,205.67 206.15,198.18 206.26,247.79 206.27,201.98 206.34,136.68 206.43,228.08 206.48,229.62 206.51,111.86 206.56,169.10 206.64,150.12 206.71,236.15 206.75,220.08 206.80,173.14 206.86,274.94 206.94,226.61 206.95,236.71 207.06,184.04 207.06,162.02 207.17,265.71 207.20,278.64 207.28,214.17 207.34,208.78 207.39,195.88 207.44,93.98 207.48,224.46 207.56,176.67 207.61,245.23 207.67,263.61 207.71,272.87 207.79,338.12 207.81,211.42 207.92,229.22 207.95,170.86 208.03,279.52 208.08,253.67 208.15,217.61 208.18,300.47 208.21,148.05 208.27,275.13 208.38,222.09 208.39,226.67 208.49,209.24 208.51,236.86 208.61,187.76 208.62,231.26 208.73,300.54 208.77,196.85 208.81,224.21 208.86,234.51 208.93,192.60 209.01,257.55 209.06,143.51 209.10,272.34 209.17,216.78 209.23,284.19 209.27,226.28 209.37,248.92 209.42,230.63 209.44,188.53 209.54,214.80 209.55,189.27 209.65,242.89 209.71,211.35 209.77,171.44 209.81,181.83 209.88,208.18 209.94,229.88 210.00,187.58 210.03,189.07 210.12,205.82 210.13,236.62 210.22,236.80 210.28,235.77 210.33,168.25 210.38,295.59 210.46,284.54 210.51,258.80 210.56,264.91 210.62,322.58 210.69,192.59 210.76,224.91 210.79,238.78 210.83,175.91 210.95,225.40 210.97,247.12 211.02,206.64 211.09,269.79 211.15,234.38 211.21,241.82 211.25,222.84 211.33,248.34 211.40,263.37 211.42,240.72 211.48,290.75 211.54,269.54 211.60,232.80 211.71,243.19 211.72,230.26 211.83,280.22 211.86,267.46 211.95,266.73 212.01,239.73 212.03,222.63 212.13,201.01 212.19,227.21 212.21,233.13 212.31,220.29 212.37,224.73 212.39,279.74 212.45,319.09 212.52,210.55 212.56,196.00 212.63,225.94 212.72,178.71 212.74,214.05 212.83,222.64 212.90,247.87 212.95,197.15 212.98,222.94 213.04,240.19 213.12,195.40 213.17,302.73 213.23,164.93 213.27,291.94 213.37,278.61 213.44,252.95 213.46,238.16 213.56,205.38 213.60,223.42 213.67,210.60 213.70,317.14 213.78,236.45 213.82,205.71 213.88,197.43 213.93,243.23 213.99,237.85 214.08,253.71 214.15,194.21 214.21,286.92 214.27,255.35 214.33,215.48 214.40,183.77 214.46,203.80 214.48,208.69 214.57,263.66 214.59,251.79 214.69,196.48 214.76,240.16 214.78,229.53 214.86,165.66 214.94,229.82 214.98,252.93 215.03,232.78 215.09,189.61 215.18,250.83 215.25,240.06 215.26,227.72 215.38,236.39 215.43,236.26 215.45,204.78 215.51,221.17 215.62,264.65 215.62,236.36 215.72,275.87 215.78,222.22 215.84,241.42 215.92,289.00 215.94,231.86 216.01,243.01 216.10,246.34 216.14,211.65 216.17,238.01 216.24,244.85 216.31,289.48 216.39,263.55 216.47,237.06 216.53,172.01 216.59,226.29 216.65,282.72 216.70,246.87 216.74,237.82 216.79,270.72 216.86,217.25 216.93,305.64 217.02,229.29 217.06,239.61 217.12,186.99 217.21,268.15 217.27,275.91 217.29,224.79 217.37,219.67 217.40,255.18 217.47,239.33 217.53,161.64 217.64,239.84 217.65,324.17 217.73,285.78 217.78,161.06 217.85,186.21 217.94,198.24 217.97,164.43 218.08,226.41 218.13,309.41 218.19,248.31 218.21,210.77 218.32,256.73 218.39,264.78 218.41,292.26 218.52,242.47 218.53,268.87 218.59,209.76 218.66,222.12 218.71,210.85 218.79,219.68 218.89,270.77 218.91,165.53 219.00,192.09 219.06,257.42 219.12,148.30 219.15,196.38 219.21,204.49 219.32,142.08 219.36,180.24 219.45,199.72 219.49,252.32 219.55,237.35 219.61,304.24 219.65,218.53 219.71,272.98 219.80,275.05 219.85,198.46 219.92,240.12 220.02,225.62 220.03,264.26 220.10,209.63 220.20,234.24 220.23,251.82 220.30,274.66 220.39,117.41 220.44,307.98 220.47,266.70 220.54,145.28 220.64,234.20 220.68,208.86 220.76,268.22 220.79,228.22 220.85,198.81 220.96,222.16 220.99,250.80 221.07,228.09 221.12,269.20 221.22,260.07 221.23,267.99 221.30,191.74 221.37,231.31 221.42,208.19 221.53,193.99 221.60,215.46 221.66,235.21 221.72,235.52 221.77,208.67 221.82,146.44 221.88,220.65 221.98,193.63 222.05,247.74 222.08,228.32 222.16,212.10 222.22,277.50 222.27,260.85 222.33,237.63 222.40,238.51 222.50,334.30 222.55,237.66 222.59,214.42 222.64,211.08 222.76,151.77 222.80,240.05 222.84,225.39 222.93,251.27 222.99,228.17 223.06,253.62 223.09,246.14 223.20,258.79 223.22,218.55 223.28,155.85 223.40,253.02 223.47,148.75 223.49,194.39 223.57,233.08 223.66,275.39 223.72,204.67 223.79,257.66 223.84,191.84 223.90,186.83 223.94,242.41 224.05,233.01 224.08,267.82 224.14,219.90 224.22,260.93 224.31,235.98 224.32,183.09 224.42,221.97 224.47,329.96 224.55,229.02 224.61,190.11 224.70,195.93 224.76,186.01 224.77,242.07 224.86,168.07 224.95,193.90 225.03,129.24 225.06,290.44 225.16,232.84 225.19,212.38 225.24,242.37 225.31,216.54 225.42,216.49 225.43,189.09 225.51,212.56 225.59,157.79 225.67,157.72 225.70,209.84 225.77,109.82 225.83,242.40 225.93,200.05 226.01,234.54 226.06,202.54 226.12,208.76 226.20,300.75 226.28,180.03 226.33,179.22 226.36,266.23 226.46,216.51 226.49,166.12 226.55,278.18 226.64,228.29 226.72,207.46 226.79,268.37 226.87,257.13 226.89,264.22 226.95,242.57 227.07,238.99 227.10,228.28 227.21,227.13 227.26,245.02 227.29,251.47 227.35,262.98 227.45,219.72 227.54,233.20 227.57,158.36 227.66,205.77 227.68,196.58 227.80,225.52 227.81,273.51 227.91,162.92 227.99,295.32 228.08,177.24 228.14,246.43 228.16,250.71 228.26,260.62 228.34,218.80 228.39,122.38 228.43,295.54 228.54,270.21 228.59,249.15 228.62,193.05 228.73,212.04 228.78,201.99 228.85,273.10 228.93,223.33 228.96,215.70 229.05,250.91 229.13,250.80 229.21,209.31 229.24,312.98 229.33,269.59 229.38,264.98 229.45,290.04 229.51,215.93 229.61,236.19 229.64,168.03 229.76,251.10 229.81,242.29 229.86,150.91 229.93,229.99 229.99,155.51 230.05,165.24 230.14,150.20 230.23,217.69 230.25,195.30 230.32,135.25 230.38,218.27 230.50,229.17 230.58,185.83 230.62,171.37 230.66,188.50 230.75,199.59 230.81,223.14 230.88,129.09 230.99,242.77 230.99,198.15 231.09,203.63 231.18,259.21 231.24,277.99 231.31,243.64 231.34,202.15 231.46,293.99 231.53,168.96 231.57,198.11 231.66,212.79 231.74,190.01 231.80,263.31 231.87,212.83 231.89,322.77 232.00,232.87 232.09,312.21 232.14,233.80 232.19,173.59 232.29,189.05 232.34,237.53 232.43,156.29 232.45,261.38 232.52,253.56 232.59,195.03 232.70,266.08 232.78,207.57 232.80,238.20 232.87,257.99 232.97,264.74 233.00,179.18 233.11,188.44 233.14,229.98 233.20,222.56 233.31,259.54 233.36,245.67 233.44,146.03 233.53,164.92 233.57,215.02 233.62,219.92 233.73,183.66 233.83,181.29 233.84,240.55 233.90,233.59 233.97,159.28 234.10,127.20 234.17,245.57 234.24,172.07 234.29,280.66 234.33,278.20 234.43,248.09 234.52,265.47 234.54,229.20 234.64,198.88 234.71,225.74 234.78,241.04 234.84,132.94 234.95,138.24 234.98,228.03 235.04,172.51 235.14,133.85 235.17,158.49 235.30,252.45 235.34,204.20 235.38,208.34 235.49,151.91 235.54,141.28 235.62,196.01 235.69,257.59 235.76,318.43 235.87,237.79 235.90,132.14 235.98,267.25 236.06,208.04 236.11,253.74 236.18,244.64 236.28,310.73 236.30,257.33 236.38,236.82 236.47,229.74 236.56,230.15 236.60,207.03 236.69,263.25 236.77,268.15 236.83,251.99 236.92,209.36 236.99,184.73 237.06,241.07 237.14,204.24 237.20,210.44 237.29,170.66 237.33,178.69 237.40,251.74 237.51,230.45 237.54,273.31 237.65,194.70 237.67,231.86 237.76,279.40 237.86,238.08 237.94,266.64 238.01,253.76 238.04,200.98 238.14,232.09 238.17,244.46 238.29,234.16 238.33,267.42 238.42,155.30 238.49,133.51 238.56,187.06 238.61,243.11 238.73,203.77 238.79,223.10 238.87,170.70 238.92,223.36 239.02,254.03 239.04,251.90 239.13,239.43 239.19,242.29 239.26,268.38 239.38,249.78 239.44,242.21 239.49,237.55 239.60,191.86 239.64,228.64 239.75,225.47 239.83,296.17 239.91,272.90 239.93,224.01 240.00,253.01 240.11,220.16 240.20,256.30 240.24,184.85 240.32,223.03 240.40,217.10 240.46,278.95 240.51,228.42 240.57,212.18 240.67,191.23 240.78,239.82 240.86,278.14 240.92,243.17 240.97,211.77 241.06,138.98 241.11,182.95 241.17,232.48 241.25,257.61 241.34,243.69 241.39,243.30 241.52,169.62 241.54,162.45 241.63,189.27 241.75,195.95 241.80,251.90 241.86,290.06 241.94,247.59 242.05,185.03 242.10,203.68 242.20,185.17 242.26,286.83 242.34,253.92 242.40,274.23 242.48,227.88 242.50,241.95 242.64,278.63 242.68,227.46 242.74,243.58 242.86,278.43 242.93,235.33 243.00,267.83 243.09,226.67 243.15,280.57 243.20,274.05 243.31,242.23 243.39,250.34 243.42,215.98 243.53,260.56 243.62,249.96 243.65,262.43 243.77,153.91 243.83,286.64 243.90,234.65 243.95,257.38 244.03,209.57 244.15,258.60 244.18,244.32 244.28,227.11 244.32,184.32 244.44,215.50 244.46,256.94 244.54,230.20 244.64,281.66 244.69,196.21 244.82,284.71 244.88,259.39 244.98,224.39 245.00,260.53 245.10,236.54 245.14,186.83 245.28,225.55 245.34,222.65 245.39,204.93 245.49,227.34 245.56,194.28 245.63,230.58 245.72,186.12 245.79,248.60 245.90,236.97 245.97,277.46 246.04,197.33 246.08,205.59 246.21,183.77 246.22,192.42 246.36,230.18 246.44,170.91 246.49,222.07 246.54,234.40 246.66,268.95 246.75,179.67 246.81,241.56 246.86,235.72 246.94,215.10 247.00,204.78 247.09,194.36 247.20,232.64 247.28,176.81 247.37,216.18 247.44,266.65 247.45,223.45 247.60,259.63 247.60,179.51 247.68,260.73 247.76,184.24 247.87,224.38 247.94,150.71 247.99,248.18 248.12,216.54 248.20,242.09 248.26,217.47 248.34,166.42 248.43,203.79 248.53,270.79 248.58,225.77 248.63,219.41 248.75,229.26 248.84,168.28 248.87,237.50 248.96,183.87 249.01,213.10 249.14,264.26 249.18,172.73 249.25,256.01 249.32,177.11 249.42,212.72 249.48,267.76 249.60,294.78 249.67,208.51 249.72,185.13 249.80,234.28 249.94,232.72 250.03,255.18 250.10,267.78 250.14,174.77 250.20,201.32 250.32,216.38 250.40,176.30 250.47,244.28 250.53,198.51 250.63,230.41 250.67,241.21 250.77,155.98 250.89,160.27 250.95,197.70 251.03,225.80 251.10,246.17 251.21,206.35 251.24,227.07 251.32,268.81 251.41,206.64 251.53,192.56 251.58,250.66 251.68,176.93 251.73,245.39 251.82,288.95 251.93,258.35 252.00,296.52 252.03,224.31 252.17,226.65 252.21,329.17 252.27,277.95 252.38,288.00 252.47,223.63 252.57,209.71 252.60,234.93 252.73,228.37 252.80,251.14 252.90,292.25 252.94,223.81 253.04,160.96 253.08,277.01 253.21,254.11 253.29,264.60 253.34,241.34 253.43,246.48 253.50,248.21 253.63,174.60 253.70,177.12 253.73,201.99 253.87,227.07 253.95,232.31 253.99,263.48 254.10,144.71 254.17,213.69 254.25,167.67 254.35,220.95 254.41,211.12 254.52,187.05 254.58,232.74 254.67,176.25 254.75,181.79 254.84,220.17 254.88,197.08 255.01,238.67 255.09,224.48 255.16,217.00 255.21,225.49 255.31,240.67 255.42,223.07 255.45,199.34 255.57,254.49 255.64,196.64 255.75,230.27 255.84,244.71 255.91,245.73 255.96,234.67 256.05,243.00 256.14,290.92 256.22,227.43 256.32,207.59 256.41,271.18 256.48,224.95 256.54,141.46 256.66,215.76 256.68,260.98 256.77,283.34 256.92,260.24 256.93,213.83 257.05,219.81 257.14,151.04 257.24,239.70 257.29,252.60 257.39,220.69 257.48,153.40 257.52,249.28 257.60,193.82 257.73,229.68 257.79,222.37 257.89,268.04 257.95,268.01 258.04,221.65 258.11,228.20 258.21,207.91 258.30,264.77 258.40,172.39 258.47,145.20 258.59,260.02 258.65,185.63 258.76,227.15 258.84,286.01 258.88,243.90 258.97,187.94 259.08,123.58 259.17,213.31 259.21,156.14 259.31,219.27 259.37,182.73 259.52,155.48 259.60,248.84 259.66,219.84 259.73,242.86 259.80,179.33 259.93,231.95 260.04,222.63 260.05,230.40 260.17,230.65 260.29,207.49 260.38,313.36 260.46,241.98 260.50,202.88 260.56,228.80 260.70,192.52 260.73,285.73 260.81,190.83 260.91,200.90 260.99,188.94 261.09,181.93 261.21,174.12 261.32,206.38 261.37,199.55 261.43,308.72 261.53,203.27 261.59,209.80 261.71,243.67 261.84,220.28 261.90,246.97 262.01,222.49 262.09,279.74 262.11,221.96 262.25,170.95 262.31,202.45 262.39,215.81 262.48,179.82 262.58,173.87 262.64,157.87 262.74,149.49 262.82,195.59 262.93,198.87 263.01,213.99 263.10,213.78 263.16,214.61 263.26,182.40 263.34,216.28 263.45,221.06 263.57,228.14 263.63,151.17 263.75,214.72 263.79,206.32 263.92,165.62 263.96,252.96 264.06,252.29 264.19,178.15 264.23,226.18 264.32,210.38 264.42,196.79 264.54,195.71 264.62,251.02 264.67,242.37 264.74,153.02 264.87,180.73 264.94,148.14 265.02,184.44 265.15,242.08 265.21,282.96 265.30,239.43 265.36,189.21 265.46,264.45 265.54,232.33 265.70,250.10 265.77,210.45 265.82,221.53 265.94,246.24 266.00,245.66 266.13,225.54 266.23,220.95 266.25,158.60 266.36,248.53 266.47,190.38 266.51,189.46 266.61,188.75 266.69,233.58 266.86,220.40 266.93,221.21 267.04,154.30 267.06,194.52 267.14,249.51 267.26,220.94 267.34,241.93 267.45,306.82 267.53,272.32 267.67,340.70 267.68,246.96 267.80,230.61 267.92,192.33 268.02,330.92 268.07,329.98 268.14,261.92 268.24,254.94 268.31,197.71 268.48,274.36 268.50,209.30 268.61,268.00 268.73,216.10 268.84,227.82 268.87,194.78 268.96,291.46 269.09,226.34 269.14,214.54 269.23,228.88 269.38,199.69 269.41,201.42 269.52,235.49 269.59,257.74 269.71,211.09 269.86,153.03 269.92,326.91 269.98,321.36 270.11,233.22 270.18,272.02 270.30,227.75 270.34,243.76 270.46,283.04 270.54,234.42 270.64,270.86 270.77,222.46 270.85,275.48 270.90,139.40 271.05,303.58 271.07,231.89 271.20,242.46 271.32,200.39 271.42,199.49 271.45,212.88 271.56,238.84 271.69,281.25 271.74,186.38 271.82,245.74 271.93,262.61 272.02,257.12 272.12,170.00 272.19,238.61 272.32,205.46 272.36,285.88 272.47,243.83 272.58,235.62 272.66,203.31 272.76,246.25 272.84,195.81 273.00,302.34 273.06,131.83 273.17,225.57 273.25,230.85 273.32,269.71 273.41,230.25 273.58,215.39 273.60,260.39 273.73,224.44 273.83,196.19 273.92,200.37 273.96,248.59 274.15,209.76 274.16,200.65 274.30,232.56 274.40,155.31 274.48,172.90 274.59,226.73 274.65,215.22 274.80,188.94 274.84,259.81 275.00,176.63 275.08,215.23 275.14,238.62 275.29,193.81 275.34,148.39 275.46,218.01 275.51,230.06 275.61,219.22 275.77,222.74 275.86,208.00 275.96,270.15 276.05,243.44 276.06,228.81 276.24,171.22 276.28,275.89 276.40,208.28 276.50,237.84 276.60,212.97 276.73,302.06 276.77,195.08 276.91,255.93 277.01,264.83 277.10,225.60 277.18,233.36 277.31,293.35 277.38,229.82 277.42,297.70 277.54,235.85 277.68,206.77 277.80,240.69 277.90,216.80 277.93,185.74 278.06,238.26 278.10,165.87 278.27,305.00 278.36,200.42 278.43,264.44 278.56,236.77 278.63,258.23 278.72,209.17 278.84,330.56 278.91,199.64 279.01,239.04 279.14,280.91 279.20,242.65 279.36,226.49 279.39,221.50 279.55,241.59 279.59,163.76 279.70,225.80 279.80,146.70 279.89,211.97 280.02,231.28 280.15,265.08 280.17,249.50 280.28,187.32 280.37,202.26 280.53,217.12 280.60,186.04 280.73,259.99 280.80,261.10 280.89,213.13 280.98,246.66 281.16,130.08 281.23,165.84 281.28,259.02 281.41,239.19 281.54,222.16 281.59,244.67 281.69,224.81 281.85,248.08 281.92,193.01 282.04,197.03 282.12,208.49 282.26,97.63 282.30,265.35 282.43,253.96 282.52,165.15 282.60,272.73 282.77,226.94 282.77,261.91 282.91,262.47 282.99,291.36 283.14,207.50 283.25,285.33 283.36,290.93 283.42,218.04 283.50,238.24 283.68,246.27 283.69,191.86 283.85,198.37 283.92,275.14 284.03,193.19 284.14,253.11 284.26,230.53 284.32,158.31 284.46,241.37 284.59,256.07 284.65,202.84 284.72,210.31 284.87,275.42 284.93,191.94 285.08,197.93 285.22,289.04 285.25,193.02 285.33,189.27 285.53,273.33 285.59,215.93 285.70,289.07 285.76,158.71 285.93,287.97 286.00,180.98 286.11,237.91 286.19,276.68 286.26,231.21 286.38,222.75 286.49,198.58 286.61,258.47 286.70,229.13 286.81,249.46 286.90,226.10 287.07,192.86 287.13,274.61 287.23,214.56 287.35,212.96 287.45,221.87 287.60,181.11 287.70,192.91 287.80,243.48 287.87,234.66 288.02,228.43 288.05,208.83 288.15,232.26 288.32,213.30 288.44,99.94 288.56,226.90 288.60,218.76 288.69,251.83 288.88,254.97 288.96,208.24 288.99,249.15 289.11,225.33 289.21,236.95 289.32,248.72 289.44,196.90 289.53,221.42 289.71,215.93 289.79,292.40 289.93,242.40 290.00,288.43 290.10,258.24 290.22,236.90 290.27,192.00 290.43,284.60 290.49,289.50 290.63,216.69 290.71,293.39 290.88,283.46 290.99,252.65 291.06,202.17 291.13,170.89 291.25,251.04 291.40,183.25 291.48,243.16 291.65,191.24 291.74,249.99 291.85,144.29 291.99,253.69 292.03,301.41 292.18,245.59 292.23,261.66 292.33,275.59 292.48,247.38 292.64,289.66 292.65,227.27 292.80,212.40 292.89,241.60 293.00,189.82 293.09,205.08 293.25,260.60 293.31,210.29 293.42,258.75 293.59,242.26 293.63,201.40 293.76,225.33 293.87,295.22 293.97,150.80 294.10,247.29 294.28,201.99 294.35,166.49 294.46,252.81 294.56,271.86 294.69,193.20 294.82,260.51 294.89,205.59 294.97,268.23 295.10,247.64 295.22,184.45 295.30,248.26 295.42,217.24 295.58,249.82 295.65,173.63 295.80,314.83 295.94,234.98 295.99,214.98 296.18,284.54 296.23,281.46 296.40,207.11 296.51,168.82 296.58,156.63 296.73,203.79 296.76,148.19 296.90,260.56 296.97,235.56 297.17,300.44 297.29,253.08 297.32,263.69 297.43,257.07 297.62,224.81 297.76,247.58 297.80,163.45 297.97,225.43 298.01,281.79 298.13,170.64 298.25,279.98 298.36,203.39 298.53,235.33 298.60,211.17 298.76,211.73 298.86,264.67 298.99,257.71 299.04,268.03 299.24,287.79 299.32,248.04 299.37,247.63 299.50,241.50 299.67,200.76 299.70,207.87 299.88,229.19 299.97,246.04 300.09,279.03 300.19,215.67 300.32,208.94 300.42,218.50 300.58,278.30 300.67,192.38 300.77,192.74 300.90,256.32 301.06,226.20 301.17,202.51 301.24,284.59 301.35,274.06 301.47,206.20 301.65,196.36 301.67,179.37 301.86,221.10 301.93,212.60 302.09,264.95 302.15,245.02 302.33,158.98 302.46,234.90 302.59,267.54 302.64,189.48 302.74,168.03 302.94,169.98 303.03,272.00 303.09,205.28 303.25,294.20 303.35,178.37 303.51,188.47 303.64,117.04 303.70,280.24 303.90,279.66 304.02,241.45 304.08,178.24 304.18,167.33 304.36,218.94 304.43,223.12 304.50,247.80 304.66,226.44 304.83,260.87 304.90,253.54 305.00,266.22 305.14,235.12 305.22,178.78 305.38,275.88 305.52,196.43 305.60,197.05 305.75,224.83 305.94,212.01 305.95,149.50 306.07,193.52 306.21,179.14 306.38,245.51 306.48,218.45 306.61,309.66 306.67,211.89 306.83,226.23 306.96,248.34 307.04,195.46 307.18,196.39 307.32,223.58 307.46,274.30 307.56,181.97 307.66,272.78 307.76,223.28 307.95,215.56 308.12,220.21 308.22,271.20 308.28,192.07 308.41,212.94 308.53,302.36 308.66,216.88 308.75,264.77 308.93,260.83 309.03,199.80 309.19,227.35 309.35,218.93 309.41,204.31 309.54,210.78 309.67,260.77 309.74,257.60 309.96,215.35 310.09,207.98 310.13,201.88 310.35,184.16 310.39,232.13 310.50,206.95 310.63,236.30 310.83,264.22 310.86,208.89 311.00,180.06 311.21,212.68 311.34,213.24 311.38,241.86 311.52,211.41 311.73,159.52 311.85,300.40 311.96,197.75 312.04,291.17 312.22,209.67 312.27,257.98 312.48,226.76 312.56,233.84 312.72,253.95 312.75,255.31 312.92,252.30 313.10,207.83 313.17,211.55 313.38,275.38 313.50,201.11 313.55,333.26 313.76,236.64 313.83,224.46 313.90,224.93 314.04,293.28 314.25,274.38 314.38,279.25 314.46,278.47 314.65,280.26 314.70,250.94 314.80,218.86 314.93,208.23 315.13,237.37 315.21,277.34 315.39,258.86 315.45,189.00 315.60,255.73 315.70,234.35 315.86,246.51 315.96,232.39 316.12,217.72 316.27,185.00 316.35,215.90 316.58,244.12 316.64,170.17 316.86,295.14 316.91,242.34 317.02,146.81 317.24,232.99 317.36,269.85 317.45,267.68 317.58,205.15 317.74,248.70 317.85,197.93 317.94,239.57 318.15,214.82 318.30,268.58 318.43,321.52 318.52,232.15 318.68,135.65 318.84,232.23 318.89,233.48 319.00,225.25 319.18,170.53 319.31,202.85 319.39,312.09 319.57,230.84 319.76,244.99 319.90,300.93 320.01,179.71 320.18,264.26 320.29,276.84 320.41,246.31 320.55,136.92 320.70,202.77 320.77,270.48 320.86,160.85 321.00,122.19 321.13,158.31 321.28,178.98 321.46,226.61 321.57,207.42 321.68,321.46 321.87,258.78 322.01,234.71 322.17,310.00 322.33,245.53 322.46,169.74 322.49,188.92 322.73,193.56 322.88,199.81 323.02,243.77 323.05,188.26 323.30,182.35 323.42,179.68 323.51,208.06 323.63,198.83 323.82,170.03 323.93,237.72 324.10,119.43 324.23,231.24 324.32,263.67 324.51,228.49 324.60,301.32 324.73,264.10 324.93,247.82 324.98,214.21 325.23,239.26 325.29,233.82 325.47,264.65 325.65,197.18 325.73,237.94 325.84,255.45 326.06,187.70 326.11,233.87 326.32,199.00 326.46,223.96 326.58,240.73 326.75,275.25 326.81,217.72 326.99,226.22 327.14,244.93 327.27,270.34 327.47,286.42 327.63,240.85 327.76,255.65 327.90,300.56 328.01,237.81 328.11,263.51 328.34,191.15 328.44,161.06 328.59,252.35 328.66,252.83 328.85,164.96 328.96,177.70 329.08,194.11 329.26,170.25 329.41,204.80 329.63,207.71 329.71,164.71 329.92,225.81 329.99,237.94 330.09,195.13 330.33,243.25 330.48,261.09 330.51,178.32 330.69,269.74 330.85,270.62 331.09,295.41 331.17,205.31 331.32,242.16 331.46,240.86 331.54,209.39 331.68,179.83 331.87,286.85 332.03,265.52 332.25,164.77 332.39,197.11 332.54,270.79 332.58,129.14 332.85,251.98 332.99,143.27 333.03,218.23 333.20,259.45 333.36,194.22 333.53,201.26 333.72,242.23 333.84,168.75 333.93,221.79 334.14,249.78 334.20,309.00 334.42,258.80 334.62,225.31 334.69,217.54 334.84,260.73 335.01,272.69 335.12,240.38 335.27,262.01 335.40,275.76 335.57,195.49 335.80,221.63 335.93,254.48 335.99,218.68 336.20,196.52 336.38,215.19 336.57,216.47 336.66,232.89 336.89,254.14 336.92,202.12 337.06,260.45 337.29,281.37 337.50,235.97 337.64,210.93 337.76,210.55 337.82,177.06 338.04,241.56 338.24,266.44 338.29,179.18 338.50,108.50 338.67,217.05 338.89,298.45 339.03,301.07 339.07,239.07 339.24,242.40 339.40,284.63 339.59,264.59 339.67,228.66 339.83,240.05 340.05,237.68 340.25,215.94 340.45,286.36 340.52,210.03 340.74,252.92 340.83,251.14 341.02,189.33 341.14,226.26 341.29,252.51 341.40,257.92 341.60,205.68 341.79,232.27 341.93,185.32 342.03,188.60 342.30,99.02 342.42,198.45 342.58,210.12 342.68,196.32 342.97,195.45 343.00,281.48 343.24,184.55 343.43,235.58 343.47,189.34 343.71,206.86 343.85,214.34 343.94,280.19 344.10,173.37 344.31,255.92 344.47,261.33 344.67,207.14 344.75,266.84 345.06,273.28 345.14,236.91 345.39,199.63 345.42,233.37 345.67,225.23 345.76,209.39 345.96,163.30 346.10,173.11 346.22,238.83 346.50,239.02 346.68,228.57 346.86,170.52 346.93,153.39 347.18,246.20 347.19,262.81 347.39,240.09 347.65,275.16 347.78,189.90 347.92,221.87 348.12,283.97 348.27,257.11 348.45,197.93 348.61,221.60 348.79,291.43 349.00,211.26 349.17,256.68 349.20,290.70 349.39,261.05 349.59,209.90 349.74,153.12 350.00,217.16 350.18,246.29 350.25,226.57 350.50,260.46 350.64,257.65 350.79,267.45 351.02,190.62 351.19,187.66 351.29,189.25 351.45,195.88 351.62,284.08 351.88,209.16 352.01,302.20 352.22,271.39 352.27,214.44 352.47,221.18 352.58,257.12 352.85,241.72 352.94,271.25 353.11,283.77 353.31,232.87 353.44,229.56 353.68,243.18 353.83,212.71 353.97,192.39 354.18,151.45 354.30,290.71 354.56,231.38 354.77,166.18 354.93,171.57 354.99,279.49 355.29,299.43 355.40,232.10 355.65,258.49 355.78,265.68 355.98,224.95 356.19,245.66 356.33,253.20 356.55,278.57 356.67,196.28 356.83,147.52 356.95,221.91 357.15,183.13 357.33,199.50 357.52,218.83 357.78,232.10 357.89,251.39 358.01,136.50 358.31,233.88 358.48,249.87 358.62,214.44 358.80,303.91 359.04,240.63 359.14,268.84 359.30,213.88 359.47,178.37 359.73,225.71 359.82,182.76 360.12,249.52 360.15,276.83 360.43,236.81 360.54,249.53 360.83,233.79 361.04,301.08 361.19,178.33 361.28,201.46 361.55,237.45 361.75,232.65 361.84,207.21 362.11,141.72 362.21,203.87 362.41,242.58 362.53,266.30 362.74,216.02 362.90,181.78 363.15,279.57 363.40,211.30 363.53,247.71 363.67,211.62 363.83,226.26 364.17,213.84 364.35,208.47 364.55,180.20 364.72,258.12 364.77,291.70 365.14,238.57 365.14,278.39 365.39,186.99 365.63,257.96 365.77,142.82 365.90,156.48 366.10,221.63 366.29,158.00 366.48,250.44 366.83,276.35 366.95,249.96 367.12,225.87 367.37,237.77 367.43,122.36 367.79,231.37 367.99,204.46 368.00,215.36 368.33,220.06 368.53,199.90 368.75,242.29 368.78,198.65 368.99,230.27 369.34,169.55 369.37,172.32 369.60,232.39 369.77,97.19 369.95,225.89 370.17,249.83 370.39,191.34 370.68,235.55 370.87,255.49 371.11,279.64 371.20,249.99 371.36,235.88 371.69,225.67 371.73,288.69 371.93,249.91 372.13,268.24 372.31,258.70 372.51,272.77 372.87,213.54 372.93,285.26 373.21,205.06 373.44,273.77 373.60,225.10 373.89,256.71 373.98,320.54 374.14,243.33 374.34,240.79 374.61,243.11 374.79,143.97 375.06,257.45 375.28,227.83 375.36,208.44 375.57,227.97 375.79,207.48 376.08,193.14 376.16,210.52 376.41,297.91 376.63,161.16 376.88,188.28 377.14,270.27 377.28,261.97 377.52,226.20 377.62,188.36 377.97,231.70 378.09,245.03 378.33,201.02 378.56,273.29 378.65,227.94 378.91,241.62 379.13,229.48 379.30,231.06 379.56,226.67 379.83,166.28 380.07,242.71 380.30,212.55 380.43,241.18 380.70,270.76 380.77,265.56 381.10,186.51 381.35,249.86 381.57,149.55 381.74,208.59 381.83,239.66 382.13,205.87 382.34,296.19 382.48,239.55 382.67,249.46 382.87,201.09 383.28,335.49 383.44,253.17 383.51,188.83 383.78,265.72 384.07,230.26 384.35,218.94 384.42,249.15 384.71,209.79 384.84,203.30 385.20,247.21 385.40,218.56 385.54,169.48 385.71,240.49 386.13,238.92 386.14,258.01 386.51,167.66 386.77,201.64 387.01,224.41 387.21,240.38 387.28,251.28 387.60,206.28 387.73,293.96 388.13,237.44 388.23,235.25 388.52,120.39 388.59,175.62 388.88,241.87 389.05,279.08 389.40,242.39 389.61,266.78 389.72,261.78 390.01,255.03 390.35,145.28 390.56,241.75 390.71,250.82 390.94,249.38 391.31,142.73 391.50,193.46 391.60,241.71 391.92,234.28 392.01,219.72 392.45,160.78 392.63,229.24 392.82,214.88 392.94,224.14 393.28,217.37 393.52,245.07 393.65,222.76 393.87,201.67 394.17,195.77 394.54,247.23 394.69,256.71 394.97,232.26 395.16,189.38 395.46,199.49 395.52,217.42 395.87,225.77 396.07,234.64 396.43,268.32 396.58,254.91 396.88,323.58 397.07,125.19 397.37,259.08 397.61,234.88 397.78,222.46 398.11,233.60 398.21,254.18 398.58,257.31 398.85,285.98 398.88,188.68 399.21,220.94 399.43,252.30 399.69,282.58 399.86,270.64 400.29,286.90 400.41,225.31 400.82,336.31 401.06,163.49 401.23,195.25 401.47,205.40 401.73,284.53 401.85,216.51 402.12,239.71 402.45,216.07 402.80,184.64 402.94,204.49 403.09,246.92 403.46,270.92 403.78,261.46 404.02,263.40 404.19,208.29 404.41,176.07 404.84,255.38 405.09,251.83 405.10,192.28 405.47,292.70 405.85,259.54 405.92,320.44 406.20,172.57 406.55,237.20 406.64,177.10 406.90,217.43 407.40,199.78 407.66,155.10 407.73,255.51 408.04,215.59 408.24,126.52 408.58,246.03 408.73,255.95 409.14,235.51 409.46,196.14 409.73,236.19 409.78,245.41 410.03,246.69 410.34,230.58 410.61,240.07 411.01,217.06 411.33,203.00 411.50,176.78 411.86,188.53 412.11,209.65 412.42,290.01 412.44,290.77 412.83,274.55 413.24,193.56 413.30,190.73 413.56,206.36 414.01,196.09 414.26,238.14 414.55,239.10 414.71,221.68 414.95,169.14 415.32,266.16 415.48,177.85 415.90,188.46 416.24,149.41 416.36,208.71 416.81,201.68 416.91,133.67 417.30,179.74 417.59,251.55 417.92,238.54 418.06,259.74 418.24,170.02 418.63,225.35 418.97,216.47 419.32,260.07 419.52,234.79 419.85,171.82 419.99,167.67 420.28,207.93 420.67,239.62 421.02,300.76 421.18,182.86 421.62,177.56 421.89,178.61 422.18,262.98 422.45,217.47 422.65,180.04 422.82,272.65 423.29,180.62 423.61,208.33 423.70,193.08 423.97,256.16 424.28,262.84 424.57,232.42 424.97,196.56 425.42,215.73 425.53,177.92 426.03,235.46 426.31,232.75 426.34,262.19 426.79,213.50 427.17,218.22 427.39,240.69 427.75,211.10 428.08,268.79 428.20,312.33 428.45,238.12 428.85,152.33 429.07,225.97 429.66,198.28 429.92,220.61 430.04,256.07 430.53,212.72 430.68,212.97 431.19,225.49 431.51,250.26 431.74,231.64 431.98,263.31 432.38,207.98 432.52,282.62 433.03,241.31 433.31,274.27 433.58,270.93 433.97,277.55 434.25,240.66 434.62,256.60 434.88,218.86 435.14,243.73 435.49,262.14 435.81,215.10 435.98,193.11 436.39,280.50 436.64,265.71 437.06,210.69 437.25,298.71 437.82,205.33 438.08,267.43 438.37,210.15 438.63,228.98 439.12,240.07 439.27,230.86 439.65,183.40 439.89,311.16 440.48,245.83 440.82,243.71 440.87,198.87 441.25,289.77 441.62,195.53 442.20,243.87 442.30,270.50 442.80,264.51 442.95,238.20 443.54,175.22 443.65,273.17 444.24,183.48 444.34,217.66 444.69,262.13 444.97,195.40 445.42,229.66 445.83,277.63 446.26,197.55 446.59,231.24 446.77,241.50 447.34,212.17 447.37,239.31 447.91,284.95 448.12,240.60 448.75,288.62 449.05,258.65 449.46,157.24 449.62,256.17 450.16,244.28 450.38,263.50 450.78,257.55 451.27,236.78 451.56,253.77 451.83,270.11 452.07,231.79 452.42,180.53 452.97,163.83 453.10,188.49 453.72,252.79 454.00,258.17 454.37,198.13 454.68,188.42 455.27,230.52 455.37,176.39 455.84,279.04 456.34,280.81 456.54,292.29 456.94,221.41 457.26,260.04 457.86,248.37 458.11,202.31 458.43,190.26 458.85,267.58 459.23,135.46 459.83,269.83 460.18,221.57 460.60,142.09 460.71,241.38 461.25,195.09 461.43,252.65 461.95,181.09 462.46,262.76 462.95,237.20 463.32,232.65 463.43,216.22 463.77,242.39 464.26,240.51 464.66,232.59 465.31,223.38 465.72,224.16 466.08,217.90 466.43,236.34 466.93,272.30 467.17,173.89 467.65,244.11 467.91,250.62 468.40,120.64 468.81,199.33 469.43,229.83 469.75,264.91 470.18,183.31 470.49,296.33 470.93,251.59 471.42,330.22 471.57,263.45 472.21,221.92 472.50,231.37 473.06,215.17 473.48,279.20 473.68,276.65 474.36,173.06 474.53,273.61 475.02,280.75 475.58,258.25 476.09,271.91 476.56,285.36 477.04,239.21 477.14,253.77 477.60,183.48 478.20,268.07 478.79,262.44 479.29,276.00 479.54,154.79 479.88,249.57 480.48,281.93 480.80,219.91 481.26,223.33 481.79,145.31 482.29,206.87 482.91,295.78 482.98,209.37 483.54,220.30 484.02,229.93 484.72,167.39 484.82,229.79 485.54,197.45 486.12,252.77 486.48,220.94 486.89,264.48 487.17,177.66 488.01,190.54 488.51,294.04 488.84,230.09 489.21,209.64 489.67,270.98 490.06,235.83 490.97,249.05 491.12,173.73 491.61,229.93 491.97,261.02 492.71,257.80 493.38,228.84 493.65,249.09 494.24,170.66 494.74,247.06 495.11,262.10 495.89,282.23 496.14,259.49 496.83,207.32 497.46,211.95 497.83,205.79 498.23,221.41 498.51,260.90 499.36,232.13 499.95,243.28 500.45,249.03 500.61,280.67 501.45,224.30 501.98,311.54 502.56,247.01 502.92,221.41 503.53,182.48 503.97,233.35 504.31,218.24 504.95,242.08 505.86,270.45 506.14,174.03 506.66,259.54 507.26,255.56 507.66,189.85 508.26,211.44 508.79,241.55 509.51,207.72 509.89,222.48 510.55,296.21 511.10,222.16 511.84,173.45 512.47,233.30 512.96,160.01 513.73,225.76 514.17,285.45 514.83,229.98 515.31,268.58 516.11,185.40 516.14,237.74 517.19,214.15 517.68,241.61 518.19,283.56 518.66,235.62 519.70,241.69 519.94,207.07 520.86,229.94 520.94,242.85 521.89,222.92 522.34,226.42 523.18,225.69 523.95,241.24 524.43,251.55 525.06,258.94 525.32,242.55 526.24,242.29 526.64,187.20 527.22,272.52 528.13,293.15 528.66,267.45 529.34,240.78 530.02,290.79 530.92,236.12 531.31,247.90 532.18,189.65 532.94,175.86 533.18,168.84 533.85,239.87 534.50,234.12 535.21,223.80 535.98,241.28 536.89,180.63 537.39,262.45 537.93,272.19 538.69,264.03 539.39,193.64 540.15,237.90 540.93,177.84 542.06,218.44 542.32,177.34 543.08,249.56 543.77,273.59 544.79,226.68 545.09,256.99 546.33,276.34 547.04,245.07 547.62,156.78 547.99,271.33 549.12,259.86 550.19,283.92 550.54,277.02 551.20,286.30 552.35,190.25 552.85,241.51 553.45,239.24 554.55,210.64 555.27,256.57 556.28,120.85 556.65,270.36 557.56,279.52 558.55,220.31 559.18,198.37 560.37,201.85 560.82,203.14 561.50,284.47 562.56,231.12 563.36,259.65 564.55,238.30 565.44,174.59 565.95,235.30 566.93,258.40 567.83,244.82 568.15,223.46 569.63,285.70 570.03,171.34 571.04,152.67 571.69,259.55 572.67,218.37 573.62,275.17 574.49,201.73 576.08,240.49 576.37,256.76 578.07,287.29 578.29,201.66 579.79,288.71 580.05,260.17 581.19,233.91 582.51,278.07 582.99,266.17 584.64,255.93 585.77,272.37 586.27,205.74 587.60,264.05 588.47,230.86 588.94,278.19 590.10,275.26 591.75,263.24 592.08,280.56 593.04,266.72 594.09,245.41 595.79,203.23 596.23,164.18 597.66,293.48 599.26,176.38 600.37,205.11 600.87,197.96 602.10,300.87 603.70,221.81 604.42,202.10 605.79,213.42 607.11,200.02 607.54,190.36 609.64,170.03 610.89,208.85 611.82,213.94 613.04,178.70 613.77,308.16 615.12,285.44 616.03,189.64 618.09,203.03 619.14,237.88 620.84,343.55 621.43,204.44 622.80,192.93 624.37,250.55 625.95,181.85 626.69,281.13 628.99,182.73 629.25,281.55 631.47,211.22 632.11,365.37 634.05,261.76 635.82,275.19 636.75,255.85 638.02,193.06 639.24,256.69 641.50,231.95 642.46,321.84 644.14,266.58 645.49,314.55 647.57,256.81 648.65,269.48 650.27,236.28 652.65,240.26 653.32,242.40 656.61,272.85 656.92,220.12 659.26,207.93 660.77,235.50 662.78,165.88 664.82,239.93 666.40,230.32 667.65,264.17 669.77,218.46 671.14,238.54 673.05,189.70 675.62,219.50 677.96,263.30 678.96,268.07 681.37,145.71 684.19,143.21 686.69,198.69 687.47,194.80 690.33,202.13 692.75,277.24 693.77,251.92 697.09,214.69 698.46,245.52 702.77,277.31 704.31,167.93 707.34,251.89 708.02,217.72 710.79,229.05 715.29,191.10 716.13,205.07 720.94,260.57 721.57,217.98 724.00,235.97 727.25,264.18 732.49,139.40 734.57,234.00 737.38,225.42 739.25,380.64 744.25,300.87 748.20,244.72 750.85,287.33 754.20,218.83 757.64,230.27 761.00,284.07 766.38,199.46 767.09,266.53 774.22,246.35 777.84,197.12 782.76,202.08 784.78,285.25 788.91,269.15 796.47,267.13 798.49,273.12 806.63,204.28 811.02,194.35 817.11,190.35 824.05,186.69 825.98,240.53 831.36,190.48 844.10,245.81 847.33,133.52 855.74,257.68 861.43,264.40 869.66,237.44 878.03,273.31 890.99,259.16 900.88,197.77 911.56,210.15 920.32,260.51 943.80,199.33 956.56,295.84 978.35,210.82 982.81,201.68 1019.12,239.22 1041.14,305.45 1086.00,210.96" fill="none" stroke="#5f6b7a" stroke-width="1.1" stroke-linejoin="round" stroke-linecap="round"/>
<line x1="319.36" y1="58" x2="319.36" y2="396.00" stroke="#777777" stroke-width="1" stroke-dasharray="4,4"/>
<text x="319.36" y="50" text-anchor="middle" font-family="Arial, sans-serif" font-size="11" fill="#555555">1h</text>
<line x1="740.37" y1="58" x2="740.37" y2="396.00" stroke="#777777" stroke-width="1" stroke-dasharray="4,4"/>
<text x="740.37" y="50" text-anchor="middle" font-family="Arial, sans-serif" font-size="11" fill="#555555">1d</text>
<line x1="998.16" y1="58" x2="998.16" y2="396.00" stroke="#777777" stroke-width="1" stroke-dasharray="4,4"/>
<text x="998.16" y="50" text-anchor="middle" font-family="Arial, sans-serif" font-size="11" fill="#555555">1w</text>
<text x="82.00" y="428" text-anchor="middle" font-family="Arial, sans-serif" font-size="11">2</text>
<text x="227.54" y="428" text-anchor="middle" font-family="Arial, sans-serif" font-size="11">6</text>
<text x="319.36" y="428" text-anchor="middle" font-family="Arial, sans-serif" font-size="11">12</text>
<text x="503.01" y="428" text-anchor="middle" font-family="Arial, sans-serif" font-size="11">48</text>
<text x="740.37" y="428" text-anchor="middle" font-family="Arial, sans-serif" font-size="11">288</text>
<text x="998.16" y="428" text-anchor="middle" font-family="Arial, sans-serif" font-size="11">2016</text>
<text x="1089.98" y="428" text-anchor="middle" font-family="Arial, sans-serif" font-size="11">4032</text>
<text x="584.00" y="450" text-anchor="middle" font-family="Arial, sans-serif" font-size="13">Periodo equivalente en retardos de 5 minutos (escala log)</text>
<text transform="translate(18,227.0) rotate(-90)" text-anchor="middle" font-family="Arial, sans-serif" font-size="13">log10 potencia</text>
</svg>