<svg xmlns="http://www.w3.org/2000/svg" width="1120" height="430" viewBox="0 0 1120 430">
<rect x="0" y="0" width="1120" height="430" fill="#ffffff"/>
<text x="560.0" y="26" text-anchor="middle" font-family="Arial, sans-serif" font-size="18" font-weight="700">PACF hasta 288 retardos - v_t = log_rv_past_12</text>
<line x1="82" y1="372.00" x2="1090.00" y2="372.00" stroke="#e8e8e8" stroke-width="1"/>
<text x="74" y="376.00" text-anchor="end" font-family="Arial, sans-serif" font-size="11">-0.0766</text>
<line x1="82" y1="293.50" x2="1090.00" y2="293.50" stroke="#e8e8e8" stroke-width="1"/>
<text x="74" y="297.50" text-anchor="end" font-family="Arial, sans-serif" font-size="11">0.213</text>
<line x1="82" y1="215.00" x2="1090.00" y2="215.00" stroke="#e8e8e8" stroke-width="1"/>
<text x="74" y="219.00" text-anchor="end" font-family="Arial, sans-serif" font-size="11">0.502</text>
<line x1="82" y1="136.50" x2="1090.00" y2="136.50" stroke="#e8e8e8" stroke-width="1"/>
<text x="74" y="140.50" text-anchor="end" font-family="Arial, sans-serif" font-size="11">0.791</text>
<line x1="82" y1="58.00" x2="1090.00" y2="58.00" stroke="#e8e8e8" stroke-width="1"/>
<text x="74" y="62.00" text-anchor="end" font-family="Arial, sans-serif" font-size="11">1.08</text>
<rect x="82" y="58" width="1008.00" height="314.00" fill="none" stroke="#222222" stroke-width="1"/>
<line x1="82" y1="351.20" x2="1090.00" y2="351.20" stroke="#222222" stroke-width="1"/>
<line x1="82" y1="350.12" x2="1090.00" y2="350.12" stroke="#a33" stroke-width="1" stroke-dasharray="5,4"/>
<line x1="82" y1="352.27" x2="1090.00" y2="352.27" stroke="#a33" stroke-width="1" stroke-dasharray="5,4"/>
<line x1="124.00" y1="58" x2="124.00" y2="372.00" stroke="#777777" stroke-width="1" stroke-dasharray="3,4"/>
<text x="124.00" y="50" text-anchor="middle" font-family="Arial, sans-serif" font-size="10" fill="#555555">12</text>
<line x1="1090.00" y1="58" x2="1090.00" y2="372.00" stroke="#777777" stroke-width="1" stroke-dasharray="3,4"/>
<text x="1090.00" y="50" text-anchor="middle" font-family="Arial, sans-serif" font-size="10" fill="#555555">288</text>
<rect x="80.50" y="79.72" width="3.00" height="271.48" fill="#8a4f9f" opacity="0.82"/>
<rect x="84.00" y="84.77" width="3.00" height="266.43" fill="#8a4f9f" opacity="0.82"/>
<rect x="87.50" y="351.20" width="3.00" height="19.26" fill="#8a4f9f" opacity="0.82"/>
<rect x="91.00" y="351.20" width="3.00" height="13.81" fill="#8a4f9f" opacity="0.82"/>
<rect x="94.50" y="351.20" width="3.00" height="9.11" fill="#8a4f9f" opacity="0.82"/>
<rect x="98.00" y="351.20" width="3.00" height="6.73" fill="#8a4f9f" opacity="0.82"/>
<rect x="101.50" y="351.20" width="3.00" height="6.70" fill="#8a4f9f" opacity="0.82"/>
<rect x="105.00" y="351.20" width="3.00" height="5.60" fill="#8a4f9f" opacity="0.82"/>
<rect x="108.50" y="351.20" width="3.00" height="5.27" fill="#8a4f9f" opacity="0.82"/>
<rect x="112.00" y="351.20" width="3.00" height="4.27" fill="#8a4f9f" opacity="0.82"/>
<rect x="115.50" y="351.20" width="3.00" height="3.83" fill="#8a4f9f" opacity="0.82"/>
<rect x="119.00" y="351.20" width="3.00" height="2.68" fill="#8a4f9f" opacity="0.82"/>
<rect x="122.50" y="351.20" width="3.00" height="1.61" fill="#8a4f9f" opacity="0.82"/>
<rect x="126.00" y="251.34" width="3.00" height="99.85" fill="#8a4f9f" opacity="0.82"/>
<rect x="129.50" y="351.20" width="3.00" height="4.91" fill="#8a4f9f" opacity="0.82"/>
<rect x="133.00" y="351.20" width="3.00" height="3.94" fill="#8a4f9f" opacity="0.82"/>
<rect x="136.50" y="351.20" width="3.00" height="3.74" fill="#8a4f9f" opacity="0.82"/>
<rect x="140.00" y="351.20" width="3.00" height="4.19" fill="#8a4f9f" opacity="0.82"/>
<rect x="143.50" y="351.20" width="3.00" height="2.79" fill="#8a4f9f" opacity="0.82"/>
<rect x="147.00" y="351.20" width="3.00" height="1.66" fill="#8a4f9f" opacity="0.82"/>
<rect x="150.50" y="351.20" width="3.00" height="1.47" fill="#8a4f9f" opacity="0.82"/>
<rect x="154.00" y="351.20" width="3.00" height="1.16" fill="#8a4f9f" opacity="0.82"/>
<rect x="157.50" y="351.20" width="3.00" height="0.80" fill="#8a4f9f" opacity="0.82"/>
<rect x="161.00" y="351.20" width="3.00" height="1.65" fill="#8a4f9f" opacity="0.82"/>
<rect x="164.50" y="351.20" width="3.00" height="0.80" fill="#8a4f9f" opacity="0.82"/>
<rect x="168.00" y="305.74" width="3.00" height="45.45" fill="#8a4f9f" opacity="0.82"/>
<rect x="171.50" y="351.20" width="3.00" height="1.00" fill="#8a4f9f" opacity="0.82"/>
<rect x="175.00" y="351.20" width="3.00" height="0.80" fill="#8a4f9f" opacity="0.82"/>
<rect x="178.50" y="351.20" width="3.00" height="2.25" fill="#8a4f9f" opacity="0.82"/>
<rect x="182.00" y="351.20" width="3.00" height="1.15" fill="#8a4f9f" opacity="0.82"/>
<rect x="185.50" y="351.20" width="3.00" height="0.80" fill="#8a4f9f" opacity="0.82"/>
<rect x="189.00" y="351.20" width="3.00" height="0.80" fill="#8a4f9f" opacity="0.82"/>
<rect x="192.50" y="351.20" width="3.00" height="0.80" fill="#8a4f9f" opacity="0.82"/>
<rect x="196.00" y="351.20" width="3.00" height="0.80" fill="#8a4f9f" opacity="0.82"/>
<rect x="199.50" y="350.55" width="3.00" height="0.80" fill="#8a4f9f" opacity="0.82"/>
<rect x="203.00" y="351.20" width="3.00" height="1.07" fill="#8a4f9f" opacity="0.82"/>
<rect x="206.50" y="351.20" width="3.00" height="0.80" fill="#8a4f9f" opacity="0.82"/>
<rect x="210.00" y="329.37" width="3.00" height="21.82" fill="#8a4f9f" opacity="0.82"/>
<rect x="213.50" y="350.71" width="3.00" height="0.80" fill="#8a4f9f" opacity="0.82"/>
<rect x="217.00" y="350.25" width="3.00" height="0.95" fill="#8a4f9f" opacity="0.82"/>
<rect x="220.50" y="350.49" width="3.00" height="0.80" fill="#8a4f9f" opacity="0.82"/>
<rect x="224.00" y="350.02" width="3.00" height="1.18" fill="#8a4f9f" opacity="0.82"/>
<rect x="227.50" y="351.12" width="3.00" height="0.80" fill="#8a4f9f" opacity="0.82"/>
<rect x="231.00" y="351.20" width="3.00" height="0.80" fill="#8a4f9f" opacity="0.82"/>
<rect x="234.50" y="350.50" width="3.00" height="0.80" fill="#8a4f9f" opacity="0.82"/>
<rect x="238.00" y="351.18" width="3.00" height="0.80" fill="#8a4f9f" opacity="0.82"/>
<rect x="241.50" y="351.15" width="3.00" height="0.80" fill="#8a4f9f" opacity="0.82"/>
<rect x="245.00" y="350.28" width="3.00" height="0.91" fill="#8a4f9f" opacity="0.82"/>
<rect x="248.50" y="350.45" width="3.00" height="0.80" fill="#8a4f9f" opacity="0.82"/>
<rect x="252.00" y="340.53" width="3.00" height="10.67" fill="#8a4f9f" opacity="0.82"/>
<rect x="255.50" y="349.26" width="3.00" height="1.94" fill="#8a4f9f" opacity="0.82"/>
<rect x="259.00" y="349.54" width="3.00" height="1.65" fill="#8a4f9f" opacity="0.82"/>
<rect x="262.50" y="349.96" width="3.00" height="1.23" fill="#8a4f9f" opacity="0.82"/>
<rect x="266.00" y="350.90" width="3.00" height="0.80" fill="#8a4f9f" opacity="0.82"/>
<rect x="269.50" y="350.15" width="3.00" height="1.04" fill="#8a4f9f" opacity="0.82"/>
<rect x="273.00" y="349.65" width="3.00" height="1.55" fill="#8a4f9f" opacity="0.82"/>
<rect x="276.50" y="350.28" width="3.00" height="0.91" fill="#8a4f9f" opacity="0.82"/>
<rect x="280.00" y="350.47" width="3.00" height="0.80" fill="#8a4f9f" opacity="0.82"/>
<rect x="283.50" y="349.77" width="3.00" height="1.42" fill="#8a4f9f" opacity="0.82"/>
<rect x="287.00" y="350.30" width="3.00" height="0.90" fill="#8a4f9f" opacity="0.82"/>
<rect x="290.50" y="350.41" width="3.00" height="0.80" fill="#8a4f9f" opacity="0.82"/>
<rect x="294.00" y="345.85" width="3.00" height="5.34" fill="#8a4f9f" opacity="0.82"/>
<rect x="297.50" y="350.54" width="3.00" height="0.80" fill="#8a4f9f" opacity="0.82"/>
<rect x="301.00" y="349.42" width="3.00" height="1.78" fill="#8a4f9f" opacity="0.82"/>
<rect x="304.50" y="350.81" width="3.00" height="0.80" fill="#8a4f9f" opacity="0.82"/>
<rect x="308.00" y="349.97" width="3.00" height="1.23" fill="#8a4f9f" opacity="0.82"/>
<rect x="311.50" y="351.20" width="3.00" height="0.80" fill="#8a4f9f" opacity="0.82"/>
<rect x="315.00" y="350.35" width="3.00" height="0.84" fill="#8a4f9f" opacity="0.82"/>
<rect x="318.50" y="351.15" width="3.00" height="0.80" fill="#8a4f9f" opacity="0.82"/>
<rect x="322.00" y="350.57" width="3.00" height="0.80" fill="#8a4f9f" opacity="0.82"/>
<rect x="325.50" y="350.89" width="3.00" height="0.80" fill="#8a4f9f" opacity="0.82"/>
<rect x="329.00" y="351.20" width="3.00" height="0.80" fill="#8a4f9f" opacity="0.82"/>
<rect x="332.50" y="351.20" width="3.00" height="0.80" fill="#8a4f9f" opacity="0.82"/>
<rect x="336.00" y="348.19" width="3.00" height="3.01" fill="#8a4f9f" opacity="0.82"/>
<rect x="339.50" y="350.18" width="3.00" height="1.02" fill="#8a4f9f" opacity="0.82"/>
<rect x="343.00" y="350.98" width="3.00" height="0.80" fill="#8a4f9f" opacity="0.82"/>
<rect x="346.50" y="350.06" width="3.00" height="1.13" fill="#8a4f9f" opacity="0.82"/>
<rect x="350.00" y="349.97" width="3.00" height="1.23" fill="#8a4f9f" opacity="0.82"/>
<rect x="353.50" y="351.20" width="3.00" height="0.80" fill="#8a4f9f" opacity="0.82"/>
<rect x="357.00" y="351.20" width="3.00" height="0.80" fill="#8a4f9f" opacity="0.82"/>
<rect x="360.50" y="350.11" width="3.00" height="1.08" fill="#8a4f9f" opacity="0.82"/>
<rect x="364.00" y="351.20" width="3.00" height="0.80" fill="#8a4f9f" opacity="0.82"/>
<rect x="367.50" y="350.77" width="3.00" height="0.80" fill="#8a4f9f" opacity="0.82"/>
<rect x="371.00" y="350.96" width="3.00" height="0.80" fill="#8a4f9f" opacity="0.82"/>
<rect x="374.50" y="351.06" width="3.00" height="0.80" fill="#8a4f9f" opacity="0.82"/>
<rect x="378.00" y="351.20" width="3.00" height="0.80" fill="#8a4f9f" opacity="0.82"/>
<rect x="381.50" y="349.56" width="3.00" height="1.64" fill="#8a4f9f" opacity="0.82"/>
<rect x="385.00" y="351.19" width="3.00" height="0.80" fill="#8a4f9f" opacity="0.82"/>
<rect x="388.50" y="351.20" width="3.00" height="0.80" fill="#8a4f9f" opacity="0.82"/>
<rect x="392.00" y="351.20" width="3.00" height="0.93" fill="#8a4f9f" opacity="0.82"/>
<rect x="395.50" y="351.20" width="3.00" height="0.80" fill="#8a4f9f" opacity="0.82"/>
<rect x="399.00" y="350.96" width="3.00" height="0.80" fill="#8a4f9f" opacity="0.82"/>
<rect x="402.50" y="351.20" width="3.00" height="0.80" fill="#8a4f9f" opacity="0.82"/>
<rect x="406.00" y="351.20" width="3.00" height="1.19" fill="#8a4f9f" opacity="0.82"/>
<rect x="409.50" y="351.20" width="3.00" height="0.80" fill="#8a4f9f" opacity="0.82"/>
<rect x="413.00" y="351.20" width="3.00" height="0.80" fill="#8a4f9f" opacity="0.82"/>
<rect x="416.50" y="350.16" width="3.00" height="1.03" fill="#8a4f9f" opacity="0.82"/>
<rect x="420.00" y="350.14" width="3.00" height="1.06" fill="#8a4f9f" opacity="0.82"/>
<rect x="423.50" y="350.67" width="3.00" height="0.80" fill="#8a4f9f" opacity="0.82"/>
<rect x="427.00" y="350.83" width="3.00" height="0.80" fill="#8a4f9f" opacity="0.82"/>
<rect x="430.50" y="351.20" width="3.00" height="0.80" fill="#8a4f9f" opacity="0.82"/>
<rect x="434.00" y="349.79" width="3.00" height="1.40" fill="#8a4f9f" opacity="0.82"/>
<rect x="437.50" y="351.13" width="3.00" height="0.80" fill="#8a4f9f" opacity="0.82"/>
<rect x="441.00" y="350.74" width="3.00" height="0.80" fill="#8a4f9f" opacity="0.82"/>
<rect x="444.50" y="350.50" width="3.00" height="0.80" fill="#8a4f9f" opacity="0.82"/>
<rect x="448.00" y="351.20" width="3.00" height="0.80" fill="#8a4f9f" opacity="0.82"/>
<rect x="451.50" y="350.62" width="3.00" height="0.80" fill="#8a4f9f" opacity="0.82"/>
<rect x="455.00" y="350.80" width="3.00" height="0.80" fill="#8a4f9f" opacity="0.82"/>
<rect x="458.50" y="350.98" width="3.00" height="0.80" fill="#8a4f9f" opacity="0.82"/>
<rect x="462.00" y="349.13" width="3.00" height="2.06" fill="#8a4f9f" opacity="0.82"/>
<rect x="465.50" y="351.05" width="3.00" height="0.80" fill="#8a4f9f" opacity="0.82"/>
<rect x="469.00" y="351.20" width="3.00" height="0.80" fill="#8a4f9f" opacity="0.82"/>
<rect x="472.50" y="350.91" width="3.00" height="0.80" fill="#8a4f9f" opacity="0.82"/>
<rect x="476.00" y="350.36" width="3.00" height="0.84" fill="#8a4f9f" opacity="0.82"/>
<rect x="479.50" y="349.46" width="3.00" height="1.74" fill="#8a4f9f" opacity="0.82"/>
<rect x="483.00" y="350.37" width="3.00" height="0.83" fill="#8a4f9f" opacity="0.82"/>
<rect x="486.50" y="350.14" width="3.00" height="1.06" fill="#8a4f9f" opacity="0.82"/>
<rect x="490.00" y="349.54" width="3.00" height="1.66" fill="#8a4f9f" opacity="0.82"/>
<rect x="493.50" y="350.15" width="3.00" height="1.04" fill="#8a4f9f" opacity="0.82"/>
<rect x="497.00" y="349.70" width="3.00" height="1.50" fill="#8a4f9f" opacity="0.82"/>
<rect x="500.50" y="350.70" width="3.00" height="0.80" fill="#8a4f9f" opacity="0.82"/>
<rect x="504.00" y="350.24" width="3.00" height="0.96" fill="#8a4f9f" opacity="0.82"/>
<rect x="507.50" y="350.56" width="3.00" height="0.80" fill="#8a4f9f" opacity="0.82"/>
<rect x="511.00" y="350.10" width="3.00" height="1.09" fill="#8a4f9f" opacity="0.82"/>
<rect x="514.50" y="350.37" width="3.00" height="0.83" fill="#8a4f9f" opacity="0.82"/>
<rect x="518.00" y="350.63" width="3.00" height="0.80" fill="#8a4f9f" opacity="0.82"/>
<rect x="521.50" y="349.42" width="3.00" height="1.78" fill="#8a4f9f" opacity="0.82"/>
<rect x="525.00" y="349.63" width="3.00" height="1.57" fill="#8a4f9f" opacity="0.82"/>
<rect x="528.50" y="350.79" width="3.00" height="0.80" fill="#8a4f9f" opacity="0.82"/>
<rect x="532.00" y="350.72" width="3.00" height="0.80" fill="#8a4f9f" opacity="0.82"/>
<rect x="535.50" y="350.72" width="3.00" height="0.80" fill="#8a4f9f" opacity="0.82"/>
<rect x="539.00" y="350.99" width="3.00" height="0.80" fill="#8a4f9f" opacity="0.82"/>
<rect x="542.50" y="350.95" width="3.00" height="0.80" fill="#8a4f9f" opacity="0.82"/>
<rect x="546.00" y="350.13" width="3.00" height="1.06" fill="#8a4f9f" opacity="0.82"/>
<rect x="549.50" y="350.53" width="3.00" height="0.80" fill="#8a4f9f" opacity="0.82"/>
<rect x="553.00" y="350.96" width="3.00" height="0.80" fill="#8a4f9f" opacity="0.82"/>
<rect x="556.50" y="350.08" width="3.00" height="1.11" fill="#8a4f9f" opacity="0.82"/>
<rect x="560.00" y="349.87" width="3.00" height="1.32" fill="#8a4f9f" opacity="0.82"/>
<rect x="563.50" y="349.46" width="3.00" height="1.74" fill="#8a4f9f" opacity="0.82"/>
<rect x="567.00" y="351.20" width="3.00" height="0.80" fill="#8a4f9f" opacity="0.82"/>
<rect x="570.50" y="350.10" width="3.00" height="1.10" fill="#8a4f9f" opacity="0.82"/>
<rect x="574.00" y="350.44" width="3.00" height="0.80" fill="#8a4f9f" opacity="0.82"/>
<rect x="577.50" y="350.51" width="3.00" height="0.80" fill="#8a4f9f" opacity="0.82"/>
<rect x="581.00" y="350.73" width="3.00" height="0.80" fill="#8a4f9f" opacity="0.82"/>
<rect x="584.50" y="350.98" width="3.00" height="0.80" fill="#8a4f9f" opacity="0.82"/>
<rect x="588.00" y="350.27" width="3.00" height="0.92" fill="#8a4f9f" opacity="0.82"/>
<rect x="591.50" y="350.90" width="3.00" height="0.80" fill="#8a4f9f" opacity="0.82"/>
<rect x="595.00" y="351.20" width="3.00" height="0.80" fill="#8a4f9f" opacity="0.82"/>
<rect x="598.50" y="351.20" width="3.00" height="0.80" fill="#8a4f9f" opacity="0.82"/>
<rect x="602.00" y="350.49" width="3.00" height="0.80" fill="#8a4f9f" opacity="0.82"/>
<rect x="605.50" y="351.09" width="3.00" height="0.80" fill="#8a4f9f" opacity="0.82"/>
<rect x="609.00" y="351.20" width="3.00" height="0.80" fill="#8a4f9f" opacity="0.82"/>
<rect x="612.50" y="350.43" width="3.00" height="0.80" fill="#8a4f9f" opacity="0.82"/>
<rect x="616.00" y="351.08" width="3.00" height="0.80" fill="#8a4f9f" opacity="0.82"/>
<rect x="619.50" y="350.94" width="3.00" height="0.80" fill="#8a4f9f" opacity="0.82"/>
<rect x="623.00" y="349.81" width="3.00" height="1.38" fill="#8a4f9f" opacity="0.82"/>
<rect x="626.50" y="350.77" width="3.00" height="0.80" fill="#8a4f9f" opacity="0.82"/>
<rect x="630.00" y="351.08" width="3.00" height="0.80" fill="#8a4f9f" opacity="0.82"/>
<rect x="633.50" y="351.20" width="3.00" height="0.80" fill="#8a4f9f" opacity="0.82"/>
<rect x="637.00" y="351.11" width="3.00" height="0.80" fill="#8a4f9f" opacity="0.82"/>
<rect x="640.50" y="351.20" width="3.00" height="0.80" fill="#8a4f9f" opacity="0.82"/>
<rect x="644.00" y="351.12" width="3.00" height="0.80" fill="#8a4f9f" opacity="0.82"/>
<rect x="647.50" y="351.20" width="3.00" height="0.80" fill="#8a4f9f" opacity="0.82"/>
<rect x="651.00" y="350.41" width="3.00" height="0.80" fill="#8a4f9f" opacity="0.82"/>
<rect x="654.50" y="350.34" width="3.00" height="0.85" fill="#8a4f9f" opacity="0.82"/>
<rect x="658.00" y="350.78" width="3.00" height="0.80" fill="#8a4f9f" opacity="0.82"/>
<rect x="661.50" y="350.96" width="3.00" height="0.80" fill="#8a4f9f" opacity="0.82"/>
<rect x="665.00" y="349.97" width="3.00" height="1.22" fill="#8a4f9f" opacity="0.82"/>
<rect x="668.50" y="350.58" width="3.00" height="0.80" fill="#8a4f9f" opacity="0.82"/>
<rect x="672.00" y="350.55" width="3.00" height="0.80" fill="#8a4f9f" opacity="0.82"/>
<rect x="675.50" y="349.37" width="3.00" height="1.83" fill="#8a4f9f" opacity="0.82"/>
<rect x="679.00" y="350.86" width="3.00" height="0.80" fill="#8a4f9f" opacity="0.82"/>
<rect x="682.50" y="349.96" width="3.00" height="1.23" fill="#8a4f9f" opacity="0.82"/>
<rect x="686.00" y="349.95" width="3.00" height="1.24" fill="#8a4f9f" opacity="0.82"/>
<rect x="689.50" y="351.20" width="3.00" height="0.80" fill="#8a4f9f" opacity="0.82"/>
<rect x="693.00" y="350.51" width="3.00" height="0.80" fill="#8a4f9f" opacity="0.82"/>
<rect x="696.50" y="350.57" width="3.00" height="0.80" fill="#8a4f9f" opacity="0.82"/>
<rect x="700.00" y="350.24" width="3.00" height="0.96" fill="#8a4f9f" opacity="0.82"/>
<rect x="703.50" y="349.64" width="3.00" height="1.56" fill="#8a4f9f" opacity="0.82"/>
<rect x="707.00" y="350.68" width="3.00" height="0.80" fill="#8a4f9f" opacity="0.82"/>
<rect x="710.50" y="349.37" width="3.00" height="1.83" fill="#8a4f9f" opacity="0.82"/>
<rect x="714.00" y="349.43" width="3.00" height="1.77" fill="#8a4f9f" opacity="0.82"/>
<rect x="717.50" y="349.58" width="3.00" height="1.62" fill="#8a4f9f" opacity="0.82"/>
<rect x="721.00" y="349.17" width="3.00" height="2.03" fill="#8a4f9f" opacity="0.82"/>
<rect x="724.50" y="349.84" width="3.00" height="1.36" fill="#8a4f9f" opacity="0.82"/>
<rect x="728.00" y="349.17" width="3.00" height="2.02" fill="#8a4f9f" opacity="0.82"/>
<rect x="731.50" y="349.64" width="3.00" height="1.56" fill="#8a4f9f" opacity="0.82"/>
<rect x="735.00" y="350.07" width="3.00" height="1.13" fill="#8a4f9f" opacity="0.82"/>
<rect x="738.50" y="349.52" width="3.00" height="1.67" fill="#8a4f9f" opacity="0.82"/>
<rect x="742.00" y="350.46" width="3.00" height="0.80" fill="#8a4f9f" opacity="0.82"/>
<rect x="745.50" y="350.23" width="3.00" height="0.97" fill="#8a4f9f" opacity="0.82"/>
<rect x="749.00" y="349.70" width="3.00" height="1.49" fill="#8a4f9f" opacity="0.82"/>
<rect x="752.50" y="350.52" width="3.00" height="0.80" fill="#8a4f9f" opacity="0.82"/>
<rect x="756.00" y="349.15" width="3.00" height="2.04" fill="#8a4f9f" opacity="0.82"/>
<rect x="759.50" y="349.80" width="3.00" height="1.39" fill="#8a4f9f" opacity="0.82"/>
<rect x="763.00" y="349.71" width="3.00" height="1.48" fill="#8a4f9f" opacity="0.82"/>
<rect x="766.50" y="351.03" width="3.00" height="0.80" fill="#8a4f9f" opacity="0.82"/>
<rect x="770.00" y="350.55" width="3.00" height="0.80" fill="#8a4f9f" opacity="0.82"/>
<rect x="773.50" y="350.45" width="3.00" height="0.80" fill="#8a4f9f" opacity="0.82"/>
<rect x="777.00" y="350.01" width="3.00" height="1.18" fill="#8a4f9f" opacity="0.82"/>
<rect x="780.50" y="350.38" width="3.00" height="0.82" fill="#8a4f9f" opacity="0.82"/>
<rect x="784.00" y="350.58" width="3.00" height="0.80" fill="#8a4f9f" opacity="0.82"/>
<rect x="787.50" y="350.12" width="3.00" height="1.08" fill="#8a4f9f" opacity="0.82"/>
<rect x="791.00" y="350.61" width="3.00" height="0.80" fill="#8a4f9f" opacity="0.82"/>
<rect x="794.50" y="350.46" width="3.00" height="0.80" fill="#8a4f9f" opacity="0.82"/>
<rect x="798.00" y="349.72" width="3.00" height="1.48" fill="#8a4f9f" opacity="0.82"/>
<rect x="801.50" y="349.63" width="3.00" height="1.56" fill="#8a4f9f" opacity="0.82"/>
<rect x="805.00" y="350.22" width="3.00" height="0.98" fill="#8a4f9f" opacity="0.82"/>
<rect x="808.50" y="350.01" width="3.00" height="1.19" fill="#8a4f9f" opacity="0.82"/>
<rect x="812.00" y="349.22" width="3.00" height="1.97" fill="#8a4f9f" opacity="0.82"/>
<rect x="815.50" y="349.19" width="3.00" height="2.00" fill="#8a4f9f" opacity="0.82"/>
<rect x="819.00" y="350.46" width="3.00" height="0.80" fill="#8a4f9f" opacity="0.82"/>
<rect x="822.50" y="349.74" width="3.00" height="1.46" fill="#8a4f9f" opacity="0.82"/>
<rect x="826.00" y="350.69" width="3.00" height="0.80" fill="#8a4f9f" opacity="0.82"/>
<rect x="829.50" y="349.97" width="3.00" height="1.23" fill="#8a4f9f" opacity="0.82"/>
<rect x="833.00" y="351.00" width="3.00" height="0.80" fill="#8a4f9f" opacity="0.82"/>
<rect x="836.50" y="350.08" width="3.00" height="1.11" fill="#8a4f9f" opacity="0.82"/>
<rect x="840.00" y="350.24" width="3.00" height="0.96" fill="#8a4f9f" opacity="0.82"/>
<rect x="843.50" y="350.02" width="3.00" height="1.17" fill="#8a4f9f" opacity="0.82"/>
<rect x="847.00" y="350.94" width="3.00" height="0.80" fill="#8a4f9f" opacity="0.82"/>
<rect x="850.50" y="350.80" width="3.00" height="0.80" fill="#8a4f9f" opacity="0.82"/>
<rect x="854.00" y="349.69" width="3.00" height="1.50" fill="#8a4f9f" opacity="0.82"/>
<rect x="857.50" y="349.64" width="3.00" height="1.55" fill="#8a4f9f" opacity="0.82"/>
<rect x="861.00" y="350.47" width="3.00" height="0.80" fill="#8a4f9f" opacity="0.82"/>
<rect x="864.50" y="351.20" width="3.00" height="0.80" fill="#8a4f9f" opacity="0.82"/>
<rect x="868.00" y="351.09" width="3.00" height="0.80" fill="#8a4f9f" opacity="0.82"/>
<rect x="871.50" y="350.19" width="3.00" height="1.01" fill="#8a4f9f" opacity="0.82"/>
<rect x="875.00" y="351.20" width="3.00" height="0.80" fill="#8a4f9f" opacity="0.82"/>
<rect x="878.50" y="349.87" width="3.00" height="1.33" fill="#8a4f9f" opacity="0.82"/>
<rect x="882.00" y="350.44" width="3.00" height="0.80" fill="#8a4f9f" opacity="0.82"/>
<rect x="885.50" y="350.03" width="3.00" height="1.17" fill="#8a4f9f" opacity="0.82"/>
<rect x="889.00" y="349.82" width="3.00" height="1.38" fill="#8a4f9f" opacity="0.82"/>
<rect x="892.50" y="351.19" width="3.00" height="0.80" fill="#8a4f9f" opacity="0.82"/>
<rect x="896.00" y="350.47" width="3.00" height="0.80" fill="#8a4f9f" opacity="0.82"/>
<rect x="899.50" y="350.19" width="3.00" height="1.00" fill="#8a4f9f" opacity="0.82"/>
<rect x="903.00" y="348.76" width="3.00" height="2.43" fill="#8a4f9f" opacity="0.82"/>
<rect x="906.50" y="350.49" width="3.00" height="0.80" fill="#8a4f9f" opacity="0.82"/>
<rect x="910.00" y="350.44" width="3.00" height="0.80" fill="#8a4f9f" opacity="0.82"/>
<rect x="913.50" y="350.04" width="3.00" height="1.16" fill="#8a4f9f" opacity="0.82"/>
<rect x="917.00" y="350.39" width="3.00" height="0.81" fill="#8a4f9f" opacity="0.82"/>
<rect x="920.50" y="349.48" width="3.00" height="1.71" fill="#8a4f9f" opacity="0.82"/>
<rect x="924.00" y="351.20" width="3.00" height="0.80" fill="#8a4f9f" opacity="0.82"/>
<rect x="927.50" y="350.32" width="3.00" height="0.88" fill="#8a4f9f" opacity="0.82"/>
<rect x="931.00" y="349.12" width="3.00" height="2.07" fill="#8a4f9f" opacity="0.82"/>
<rect x="934.50" y="349.87" width="3.00" height="1.32" fill="#8a4f9f" opacity="0.82"/>
<rect x="938.00" y="350.59" width="3.00" height="0.80" fill="#8a4f9f" opacity="0.82"/>
<rect x="941.50" y="350.57" width="3.00" height="0.80" fill="#8a4f9f" opacity="0.82"/>
<rect x="945.00" y="349.90" width="3.00" height="1.29" fill="#8a4f9f" opacity="0.82"/>
<rect x="948.50" y="349.23" width="3.00" height="1.97" fill="#8a4f9f" opacity="0.82"/>
<rect x="952.00" y="349.42" width="3.00" height="1.78" fill="#8a4f9f" opacity="0.82"/>
<rect x="955.50" y="348.61" width="3.00" height="2.58" fill="#8a4f9f" opacity="0.82"/>
<rect x="959.00" y="349.58" width="3.00" height="1.62" fill="#8a4f9f" opacity="0.82"/>
<rect x="962.50" y="349.25" width="3.00" height="1.95" fill="#8a4f9f" opacity="0.82"/>
<rect x="966.00" y="350.50" width="3.00" height="0.80" fill="#8a4f9f" opacity="0.82"/>
<rect x="969.50" y="349.34" width="3.00" height="1.85" fill="#8a4f9f" opacity="0.82"/>
<rect x="973.00" y="349.53" width="3.00" height="1.66" fill="#8a4f9f" opacity="0.82"/>
<rect x="976.50" y="350.03" width="3.00" height="1.16" fill="#8a4f9f" opacity="0.82"/>
<rect x="980.00" y="349.39" width="3.00" height="1.80" fill="#8a4f9f" opacity="0.82"/>
<rect x="983.50" y="349.19" width="3.00" height="2.01" fill="#8a4f9f" opacity="0.82"/>
<rect x="987.00" y="349.04" width="3.00" height="2.15" fill="#8a4f9f" opacity="0.82"/>
<rect x="990.50" y="349.61" width="3.00" height="1.58" fill="#8a4f9f" opacity="0.82"/>
<rect x="994.00" y="349.42" width="3.00" height="1.78" fill="#8a4f9f" opacity="0.82"/>
<rect x="997.50" y="349.62" width="3.00" height="1.58" fill="#8a4f9f" opacity="0.82"/>
<rect x="1001.00" y="348.84" width="3.00" height="2.36" fill="#8a4f9f" opacity="0.82"/>
<rect x="1004.50" y="349.21" width="3.00" height="1.99" fill="#8a4f9f" opacity="0.82"/>
<rect x="1008.00" y="348.65" width="3.00" height="2.54" fill="#8a4f9f" opacity="0.82"/>
<rect x="1011.50" y="348.43" width="3.00" height="2.76" fill="#8a4f9f" opacity="0.82"/>
<rect x="1015.00" y="349.74" width="3.00" height="1.46" fill="#8a4f9f" opacity="0.82"/>
<rect x="1018.50" y="349.19" width="3.00" height="2.01" fill="#8a4f9f" opacity="0.82"/>
<rect x="1022.00" y="349.59" width="3.00" height="1.61" fill="#8a4f9f" opacity="0.82"/>
<rect x="1025.50" y="349.72" width="3.00" height="1.48" fill="#8a4f9f" opacity="0.82"/>
<rect x="1029.00" y="350.19" width="3.00" height="1.01" fill="#8a4f9f" opacity="0.82"/>
<rect x="1032.50" y="349.24" width="3.00" height="1.96" fill="#8a4f9f" opacity="0.82"/>
<rect x="1036.00" y="350.08" width="3.00" height="1.11" fill="#8a4f9f" opacity="0.82"/>
<rect x="1039.50" y="349.27" width="3.00" height="1.92" fill="#8a4f9f" opacity="0.82"/>
<rect x="1043.00" y="350.60" width="3.00" height="0.80" fill="#8a4f9f" opacity="0.82"/>
<rect x="1046.50" y="348.85" width="3.00" height="2.34" fill="#8a4f9f" opacity="0.82"/>
<rect x="1050.00" y="349.13" width="3.00" height="2.07" fill="#8a4f9f" opacity="0.82"/>
<rect x="1053.50" y="350.18" width="3.00" height="1.02" fill="#8a4f9f" opacity="0.82"/>
<rect x="1057.00" y="350.80" width="3.00" height="0.80" fill="#8a4f9f" opacity="0.82"/>
<rect x="1060.50" y="349.73" width="3.00" height="1.47" fill="#8a4f9f" opacity="0.82"/>
<rect x="1064.00" y="350.54" width="3.00" height="0.80" fill="#8a4f9f" opacity="0.82"/>
<rect x="1067.50" y="351.20" width="3.00" height="0.80" fill="#8a4f9f" opacity="0.82"/>
<rect x="1071.00" y="351.20" width="3.00" height="0.80" fill="#8a4f9f" opacity="0.82"/>
<rect x="1074.50" y="351.15" width="3.00" height="0.80" fill="#8a4f9f" opacity="0.82"/>
<rect x="1078.00" y="351.06" width="3.00" height="0.80" fill="#8a4f9f" opacity="0.82"/>
<rect x="1081.50" y="351.20" width="3.00" height="0.80" fill="#8a4f9f" opacity="0.82"/>
<rect x="1085.00" y="351.20" width="3.00" height="0.89" fill="#8a4f9f" opacity="0.82"/>
<rect x="1088.50" y="351.20" width="3.00" height="1.79" fill="#8a4f9f" opacity="0.82"/>
<text x="82.00" y="402" text-anchor="middle" font-family="Arial, sans-serif" font-size="11">0</text>
<text x="124.00" y="402" text-anchor="middle" font-family="Arial, sans-serif" font-size="11">12</text>
<text x="250.00" y="402" text-anchor="middle" font-family="Arial, sans-serif" font-size="11">48</text>
<text x="418.00" y="402" text-anchor="middle" font-family="Arial, sans-serif" font-size="11">96</text>
<text x="586.00" y="402" text-anchor="middle" font-family="Arial, sans-serif" font-size="11">144</text>
<text x="838.00" y="402" text-anchor="middle" font-family="Arial, sans-serif" font-size="11">216</text>
<text x="1090.00" y="402" text-anchor="middle" font-family="Arial, sans-serif" font-size="11">288</text>
<text x="586.00" y="422" text-anchor="middle" font-family="Arial, sans-serif" font-size="13">Retardo</text>
<text transform="translate(18,215.0) rotate(-90)" text-anchor="middle" font-family="Arial, sans-serif" font-size="13">PACF</text>
<text x="90" y="418" font-family="Arial, sans-serif" font-size="11" fill="#8a2222">Bandas orientativas ±0.003962</text>
</svg>