<svg xmlns="http://www.w3.org/2000/svg" width="1100" height="430" viewBox="0 0 1100 430">
<rect x="0" y="0" width="1100" height="430" fill="#ffffff"/>
<text x="550.0" y="26" text-anchor="middle" font-family="Arial, sans-serif" font-size="18" font-weight="700">Volatilidad realizada futura de 1 hora</text>
<line x1="88" y1="372.00" x2="1066.00" y2="372.00" stroke="#e6e6e6" stroke-width="1"/>
<text x="80" y="376.00" text-anchor="end" font-family="Arial, sans-serif" font-size="11" fill="#333333">-17.59</text>
<line x1="88" y1="293.50" x2="1066.00" y2="293.50" stroke="#e6e6e6" stroke-width="1"/>
<text x="80" y="297.50" text-anchor="end" font-family="Arial, sans-serif" font-size="11" fill="#333333">-14.21</text>
<line x1="88" y1="215.00" x2="1066.00" y2="215.00" stroke="#e6e6e6" stroke-width="1"/>
<text x="80" y="219.00" text-anchor="end" font-family="Arial, sans-serif" font-size="11" fill="#333333">-10.83</text>
<line x1="88" y1="136.50" x2="1066.00" y2="136.50" stroke="#e6e6e6" stroke-width="1"/>
<text x="80" y="140.50" text-anchor="end" font-family="Arial, sans-serif" font-size="11" fill="#333333">-7.45</text>
<line x1="88" y1="58.00" x2="1066.00" y2="58.00" stroke="#e6e6e6" stroke-width="1"/>
<text x="80" y="62.00" text-anchor="end" font-family="Arial, sans-serif" font-size="11" fill="#333333">-4.06</text>
<rect x="88" y="58.00" width="978.00" height="314.00" fill="none" stroke="#222222" stroke-width="1"/>
<polyline points="88.00,168.19 88.22,242.07 88.44,237.61 88.65,164.90 88.87,192.10 89.09,247.64 89.31,257.72 89.52,94.07 89.74,147.50 89.96,240.73 90.18,196.65 90.40,235.28 90.61,238.74 90.83,171.38 91.05,172.43 91.27,238.57 91.48,146.54 91.70,244.09 91.92,233.15 92.14,177.84 92.36,177.64 92.57,260.87 92.79,209.47 93.01,264.57 93.23,258.43 93.44,216.81 93.66,208.42 93.88,273.90 94.10,267.04 94.32,206.39 94.53,257.40 94.75,187.40 94.97,176.77 95.19,252.97 95.40,218.63 95.62,153.78 95.84,235.27 96.06,161.10 96.28,250.96 96.49,149.21 96.71,231.18 96.93,110.54 97.15,196.89 97.36,277.59 97.58,232.11 97.80,168.51 98.02,139.95 98.24,229.10 98.45,247.02 98.67,188.34 98.89,209.60 99.11,142.47 99.32,182.44 99.54,228.33 99.76,231.68 99.98,171.02 100.20,206.77 100.41,130.50 100.63,190.82 100.85,239.43 101.07,191.36 101.28,239.57 101.50,214.22 101.72,251.24 101.94,261.73 102.15,216.82 102.37,261.28 102.59,186.11 102.81,178.19 103.03,243.94 103.24,249.56 103.46,194.37 103.68,242.25 103.90,180.54 104.11,261.87 104.33,199.89 104.55,253.45 104.77,149.32 104.99,204.17 105.20,269.06 105.42,255.91 105.64,214.41 105.86,174.43 106.07,251.58 106.29,204.53 106.51,272.74 106.73,260.40 106.95,203.75 107.16,171.36 107.38,242.68 107.60,196.86 107.82,257.38 108.03,245.68 108.25,174.14 108.47,182.21 108.69,277.63 108.91,280.39 109.12,231.55 109.34,265.65 109.56,231.24 109.78,242.29 109.99,328.78 110.21,283.05 110.43,228.10 110.65,281.69 110.87,192.92 111.08,248.94 111.30,175.62 111.52,229.79 111.74,163.68 111.95,178.84 112.17,248.63 112.39,254.93 112.61,172.97 112.83,169.06 113.04,235.18 113.26,201.20 113.48,240.79 113.70,191.39 113.91,238.23 114.13,184.18 114.35,254.76 114.57,267.61 114.79,232.70 115.00,201.86 115.22,239.60 115.44,213.80 115.66,270.13 115.87,261.37 116.09,180.11 116.31,190.38 116.53,254.96 116.75,268.66 116.96,207.50 117.18,209.59 117.40,290.79 117.62,223.67 117.83,285.57 118.05,282.72 118.27,197.23 118.49,211.53 118.71,256.23 118.92,199.26 119.14,262.78 119.36,253.17 119.58,182.48 119.79,170.50 120.01,251.65 120.23,200.25 120.45,269.99 120.67,264.04 120.88,174.12 121.10,183.30 121.32,248.93 121.54,203.40 121.75,264.07 121.97,251.10 122.19,175.63 122.41,192.85 122.63,260.24 122.84,261.07 123.06,195.37 123.28,201.68 123.50,253.16 123.71,274.85 123.93,230.56 124.15,249.63 124.37,191.09 124.59,231.84 124.80,290.80 125.02,250.79 125.24,287.50 125.46,289.88 125.67,223.03 125.89,233.17 126.11,328.83 126.33,293.17 126.55,225.51 126.76,268.91 126.98,192.00 127.20,214.89 127.42,261.98 127.63,253.45 127.85,192.59 128.07,194.34 128.29,264.08 128.51,272.74 128.72,204.83 128.94,208.06 129.16,258.14 129.38,230.87 129.59,280.97 129.81,289.36 130.03,184.80 130.25,182.34 130.46,249.15 130.68,270.94 130.90,223.51 131.12,240.69 131.34,193.01 131.55,260.00 131.77,185.99 131.99,251.61 132.21,157.92 132.42,179.54 132.64,236.95 132.86,228.62 133.08,281.76 133.30,220.62 133.51,279.93 133.73,252.00 133.95,186.56 134.17,202.90 134.38,262.01 134.60,207.53 134.82,251.83 135.04,192.50 135.26,267.31 135.47,260.79 135.69,164.25 135.91,164.62 136.13,234.76 136.34,202.82 136.56,259.65 136.78,245.39 137.00,153.54 137.22,200.56 137.43,253.90 137.65,250.94 137.87,159.38 138.09,188.49 138.30,229.56 138.52,184.80 138.74,240.01 138.96,255.69 139.18,175.11 139.39,193.54 139.61,260.94 139.83,252.06 140.05,204.00 140.26,244.97 140.48,181.99 140.70,218.31 140.92,277.06 141.14,299.56 141.35,203.53 141.57,267.47 141.79,185.01 142.01,213.01 142.22,266.71 142.44,268.17 142.66,220.55 142.88,258.24 143.10,190.35 143.31,262.20 143.53,212.64 143.75,256.05 143.97,196.30 144.18,191.33 144.40,267.32 144.62,272.31 144.84,165.03 145.06,172.69 145.27,242.23 145.49,283.95 145.71,219.17 145.93,195.46 146.14,227.61 146.36,198.79 146.58,241.90 146.80,244.53 147.02,213.71 147.23,250.45 147.45,188.93 147.67,180.18 147.89,273.81 148.10,259.01 148.32,191.87 148.54,200.26 148.76,268.68 148.98,226.90 149.19,290.76 149.41,285.13 149.63,213.47 149.85,272.76 150.06,211.78 150.28,243.57 150.50,279.56 150.72,281.29 150.94,221.66 151.15,224.06 151.37,290.84 151.59,267.08 151.81,164.43 152.02,164.08 152.24,254.84 152.46,146.17 152.68,239.65 152.90,166.87 153.11,227.98 153.33,188.37 153.55,270.91 153.77,249.05 153.98,172.29 154.20,123.31 154.42,199.41 154.64,160.79 154.86,211.70 155.07,218.73 155.29,175.17 155.51,164.40 155.73,212.05 155.94,191.21 156.16,236.46 156.38,232.19 156.60,184.59 156.81,172.20 157.03,259.34 157.25,250.49 157.47,211.38 157.69,203.39 157.90,254.25 158.12,284.63 158.34,206.62 158.56,251.62 158.77,196.52 158.99,244.32 159.21,123.65 159.43,233.66 159.65,166.89 159.86,229.28 160.08,161.85 160.30,199.69 160.52,150.05 160.73,216.11 160.95,146.94 161.17,122.60 161.39,180.60 161.61,209.00 161.82,152.65 162.04,201.09 162.26,145.75 162.48,173.74 162.69,219.42 162.91,190.65 163.13,225.31 163.35,232.33 163.57,163.02 163.78,198.81 164.00,253.21 164.22,247.11 164.44,144.24 164.65,128.95 164.87,225.21 165.09,216.48 165.31,264.96 165.53,223.19 165.74,278.53 165.96,280.34 166.18,192.29 166.40,262.21 166.61,197.32 166.83,188.91 167.05,254.00 167.27,249.37 167.49,166.63 167.70,152.55 167.92,234.45 168.14,187.33 168.36,242.51 168.57,248.31 168.79,192.29 169.01,234.92 169.23,153.37 169.45,188.71 169.66,244.20 169.88,258.03 170.10,189.81 170.32,181.98 170.53,231.99 170.75,246.95 170.97,205.64 171.19,250.04 171.41,152.85 171.62,153.44 171.84,222.46 172.06,221.38 172.28,129.69 172.49,230.95 172.71,148.67 172.93,146.67 173.15,227.32 173.37,244.06 173.58,192.81 173.80,233.81 174.02,149.45 174.24,142.40 174.45,232.51 174.67,179.09 174.89,216.11 175.11,230.70 175.33,166.04 175.54,181.82 175.76,231.69 175.98,156.08 176.20,224.37 176.41,237.52 176.63,159.93 176.85,155.33 177.07,190.24 177.29,202.38 177.50,164.67 177.72,156.32 177.94,203.63 178.16,221.26 178.37,144.41 178.59,148.59 178.81,232.75 179.03,172.14 179.25,217.44 179.46,220.71 179.68,153.67 179.90,177.29 180.12,241.10 180.33,234.28 180.55,165.83 180.77,164.24 180.99,208.17 181.21,182.39 181.42,246.55 181.64,177.53 181.86,234.55 182.08,247.07 182.29,191.25 182.51,246.77 182.73,187.50 182.95,219.02 183.16,177.10 183.38,223.49 183.60,185.46 183.82,229.56 184.04,166.31 184.25,182.08 184.47,226.85 184.69,248.19 184.91,175.98 185.12,166.35 185.34,247.10 185.56,194.63 185.78,244.72 186.00,239.34 186.21,157.50 186.43,155.37 186.65,237.45 186.87,193.95 187.08,239.95 187.30,234.90 187.52,183.55 187.74,210.56 187.96,256.77 188.17,262.24 188.39,199.58 188.61,195.59 188.83,256.39 189.04,277.27 189.26,220.20 189.48,215.33 189.70,267.93 189.92,220.37 190.13,273.87 190.35,264.43 190.57,216.13 190.79,226.45 191.00,268.11 191.22,273.91 191.44,184.50 191.66,269.09 191.88,175.68 192.09,248.85 192.31,183.01 192.53,243.43 192.75,131.27 192.96,226.94 193.18,174.88 193.40,164.19 193.62,231.33 193.84,176.19 194.05,242.64 194.27,245.09 194.49,171.70 194.71,200.27 194.92,243.72 195.14,247.48 195.36,206.01 195.58,236.22 195.80,169.17 196.01,231.00 196.23,172.04 196.45,240.94 196.67,172.71 196.88,187.32 197.10,238.75 197.32,213.09 197.54,251.31 197.76,266.44 197.97,205.52 198.19,262.33 198.41,180.44 198.63,217.70 198.84,255.69 199.06,185.81 199.28,255.37 199.50,201.68 199.72,249.88 199.93,169.62 200.15,232.02 200.37,203.81 200.59,250.69 200.80,246.22 201.02,183.29 201.24,163.42 201.46,240.06 201.68,250.53 201.89,178.59 202.11,254.70 202.33,156.73 202.55,163.31 202.76,231.84 202.98,247.01 203.20,190.23 203.42,229.50 203.64,164.12 203.85,196.29 204.07,275.25 204.29,260.82 204.51,218.96 204.72,253.62 204.94,144.48 205.16,230.86 205.38,183.90 205.60,193.86 205.81,235.90 206.03,220.35 206.25,103.16 206.47,155.50 206.68,209.42 206.90,224.78 207.12,142.06 207.34,140.91 207.56,229.37 207.77,180.34 207.99,242.33 208.21,232.61 208.43,161.26 208.64,171.00 208.86,217.66 209.08,222.86 209.30,155.52 209.52,171.37 209.73,240.03 209.95,235.02 210.17,182.16 210.39,244.34 210.60,145.45 210.82,167.32 211.04,223.68 211.26,231.50 211.47,180.20 211.69,156.93 211.91,230.72 212.13,226.33 212.35,140.17 212.56,139.69 212.78,216.02 213.00,241.15 213.22,161.60 213.43,174.09 213.65,252.97 213.87,238.28 214.09,187.05 214.31,263.99 214.52,192.64 214.74,204.54 214.96,260.69 215.18,192.13 215.39,253.27 215.61,245.10 215.83,162.78 216.05,256.44 216.27,197.30 216.48,257.44 216.70,191.70 216.92,208.98 217.14,254.77 217.35,185.02 217.57,264.75 217.79,219.34 218.01,255.21 218.23,253.21 218.44,201.99 218.66,171.50 218.88,244.08 219.10,194.68 219.31,248.41 219.53,232.02 219.75,186.46 219.97,188.43 220.19,245.45 220.40,202.33 220.62,261.49 220.84,248.37 221.06,178.76 221.27,257.69 221.49,173.06 221.71,272.41 221.93,213.34 222.15,187.69 222.36,271.60 222.58,197.26 222.80,269.58 223.02,259.19 223.23,217.96 223.45,276.04 223.67,200.74 223.89,189.57 224.11,255.66 224.32,255.99 224.54,182.23 224.76,242.96 224.98,176.67 225.19,271.48 225.41,175.99 225.63,224.57 225.85,158.83 226.07,242.96 226.28,148.84 226.50,209.85 226.72,155.57 226.94,138.61 227.15,230.50 227.37,243.92 227.59,179.04 227.81,235.85 228.03,178.90 228.24,176.70 228.46,259.46 228.68,246.78 228.90,146.96 229.11,235.33 229.33,177.61 229.55,169.07 229.77,245.32 229.99,179.76 230.20,241.82 230.42,258.90 230.64,185.62 230.86,274.17 231.07,203.85 231.29,184.05 231.51,260.07 231.73,275.99 231.95,213.87 232.16,237.35 232.38,178.51 232.60,198.63 232.82,253.36 233.03,180.12 233.25,246.35 233.47,180.27 233.69,254.00 233.91,256.98 234.12,186.88 234.34,243.53 234.56,191.80 234.78,181.78 234.99,249.65 235.21,199.43 235.43,267.09 235.65,237.74 235.87,181.32 236.08,244.43 236.30,201.01 236.52,256.54 236.74,194.95 236.95,254.47 237.17,166.38 237.39,208.82 237.61,261.32 237.82,269.59 238.04,229.46 238.26,194.83 238.48,279.93 238.70,281.76 238.91,216.81 239.13,277.71 239.35,201.62 239.57,267.58 239.78,202.77 240.00,247.13 240.22,167.58 240.44,190.31 240.66,260.50 240.87,255.49 241.09,175.76 241.31,247.28 241.53,162.48 241.74,201.87 241.96,278.29 242.18,209.20 242.40,270.30 242.62,236.69 242.83,146.29 243.05,169.68 243.27,245.09 243.49,265.23 243.70,192.97 243.92,188.14 244.14,238.49 244.36,250.82 244.58,203.94 244.79,249.76 245.01,176.67 245.23,191.62 245.45,270.61 245.66,286.11 245.88,210.07 246.10,204.36 246.32,276.49 246.54,292.60 246.75,226.58 246.97,275.45 247.19,191.19 247.41,204.09 247.62,259.79 247.84,264.28 248.06,191.82 248.28,253.37 248.50,174.84 248.71,248.86 248.93,164.12 249.15,202.85 249.37,248.46 249.58,188.12 249.80,242.17 250.02,191.05 250.24,264.54 250.46,201.45 250.67,266.13 250.89,195.10 251.11,236.09 251.33,222.25 251.54,264.95 251.76,253.62 251.98,161.68 252.20,163.17 252.42,250.63 252.63,195.67 252.85,258.80 253.07,254.47 253.29,185.28 253.50,222.09 253.72,282.82 253.94,273.14 254.16,220.08 254.38,288.03 254.59,243.17 254.81,294.49 255.03,214.50 255.25,288.24 255.46,200.68 255.68,280.04 255.90,201.66 256.12,289.19 256.34,207.68 256.55,255.47 256.77,176.19 256.99,266.67 257.21,175.61 257.42,245.75 257.64,189.85 257.86,177.28 258.08,277.44 258.30,266.68 258.51,196.52 258.73,253.79 258.95,182.33 259.17,210.16 259.38,268.17 259.60,284.45 259.82,193.78 260.04,182.92 260.26,241.82 260.47,222.96 260.69,291.20 260.91,271.75 261.13,177.50 261.34,191.87 261.56,264.65 261.78,245.52 262.00,299.24 262.22,299.65 262.43,244.06 262.65,246.72 262.87,305.40 263.09,297.71 263.30,192.75 263.52,200.87 263.74,274.19 263.96,265.36 264.18,203.33 264.39,245.08 264.61,173.38 264.83,190.98 265.05,264.73 265.26,257.14 265.48,222.35 265.70,259.60 265.92,181.61 266.13,195.57 266.35,262.14 266.57,265.97 266.79,203.55 267.01,187.95 267.22,269.49 267.44,211.88 267.66,275.98 267.88,272.03 268.09,199.28 268.31,209.33 268.53,272.67 268.75,229.55 268.97,275.11 269.18,240.51 269.40,150.58 269.62,228.97 269.84,303.76 270.05,292.79 270.27,242.34 270.49,257.46 270.71,318.33 270.93,300.12 271.14,267.08 271.36,331.93 271.58,222.99 271.80,245.32 272.01,283.72 272.23,290.05 272.45,244.14 272.67,249.51 272.89,213.46 273.10,267.02 273.32,170.74 273.54,249.31 273.76,190.78 273.97,174.72 274.19,256.12 274.41,208.59 274.63,264.55 274.85,257.23 275.06,145.09 275.28,164.57 275.50,256.27 275.72,188.48 275.93,267.74 276.15,179.64 276.37,240.57 276.59,264.67 276.81,217.71 277.02,274.24 277.24,179.60 277.46,170.86 277.68,265.96 277.89,282.75 278.11,239.52 278.33,236.92 278.55,291.28 278.77,223.51 278.98,300.52 279.20,294.50 279.42,225.47 279.64,296.19 279.85,200.47 280.07,200.32 280.29,270.25 280.51,251.50 280.73,173.88 280.94,251.40 281.16,157.12 281.38,153.41 281.60,257.06 281.81,238.62 282.03,171.05 282.25,197.40 282.47,253.85 282.69,196.68 282.90,271.20 283.12,223.53 283.34,260.47 283.56,267.47 283.77,200.50 283.99,256.55 284.21,191.87 284.43,208.78 284.65,280.82 284.86,265.49 285.08,185.99 285.30,233.20 285.52,188.27 285.73,212.60 285.95,285.94 286.17,247.79 286.39,301.59 286.61,262.38 286.82,330.30 287.04,230.75 287.26,334.44 287.48,327.91 287.69,224.06 287.91,292.63 288.13,198.45 288.35,244.71 288.57,154.34 288.78,223.36 289.00,169.90 289.22,182.28 289.44,240.72 289.65,245.95 289.87,172.09 290.09,185.87 290.31,245.44 290.53,206.87 290.74,259.59 290.96,241.54 291.18,190.99 291.40,198.00 291.61,265.30 291.83,270.37 292.05,195.15 292.27,188.47 292.48,285.33 292.70,282.56 292.92,190.78 293.14,260.69 293.36,188.50 293.57,189.05 293.79,297.41 294.01,214.93 294.23,290.52 294.44,232.49 294.66,283.40 294.88,238.98 295.10,285.70 295.32,282.15 295.53,186.51 295.75,287.74 295.97,174.34 296.19,173.77 296.40,266.26 296.62,263.59 296.84,201.77 297.06,196.09 297.28,267.91 297.49,270.89 297.71,213.61 297.93,190.04 298.15,260.09 298.36,265.64 298.58,183.71 298.80,256.32 299.02,191.77 299.24,193.80 299.45,261.65 299.67,257.70 299.89,159.73 300.11,171.40 300.32,243.07 300.54,241.01 300.76,163.04 300.98,201.05 301.20,132.36 301.41,164.30 301.63,231.81 301.85,186.34 302.07,240.61 302.28,268.04 302.50,197.29 302.72,196.61 302.94,258.30 303.16,250.87 303.37,196.06 303.59,245.27 303.81,202.58 304.03,244.63 304.24,160.45 304.46,163.10 304.68,221.18 304.90,133.86 305.12,230.08 305.33,251.49 305.55,182.68 305.77,240.93 305.99,159.06 306.20,195.22 306.42,245.34 306.64,240.86 306.86,171.37 307.08,247.91 307.29,179.64 307.51,247.82 307.73,177.43 307.95,256.40 308.16,161.08 308.38,160.75 308.60,240.02 308.82,181.28 309.04,254.49 309.25,242.57 309.47,188.18 309.69,190.35 309.91,273.66 310.12,281.93 310.34,201.05 310.56,199.35 310.78,268.98 311.00,294.94 311.21,169.23 311.43,182.78 311.65,258.78 311.87,299.51 312.08,168.82 312.30,168.71 312.52,235.31 312.74,234.89 312.96,192.32 313.17,175.99 313.39,227.50 313.61,250.76 313.83,175.51 314.04,230.44 314.26,166.95 314.48,188.11 314.70,231.82 314.92,226.47 315.13,185.79 315.35,179.66 315.57,260.60 315.79,187.98 316.00,253.56 316.22,248.41 316.44,187.05 316.66,196.26 316.88,253.60 317.09,250.99 317.31,200.33 317.53,240.84 317.75,169.43 317.96,260.37 318.18,202.88 318.40,278.66 318.62,236.81 318.84,194.19 319.05,267.44 319.27,274.23 319.49,211.52 319.71,264.14 319.92,168.13 320.14,163.89 320.36,249.14 320.58,254.84 320.79,210.38 321.01,187.67 321.23,240.32 321.45,245.16 321.67,197.69 321.88,235.75 322.10,179.93 322.32,185.84 322.54,254.63 322.75,251.69 322.97,206.47 323.19,254.89 323.41,186.67 323.63,244.62 323.84,156.05 324.06,200.92 324.28,257.92 324.50,171.68 324.71,225.78 324.93,190.58 325.15,254.35 325.37,270.85 325.59,180.82 325.80,197.44 326.02,277.47 326.24,277.12 326.46,219.30 326.67,264.94 326.89,180.07 327.11,128.99 327.33,259.97 327.55,197.72 327.76,262.65 327.98,250.09 328.20,215.30 328.42,179.13 328.63,258.27 328.85,255.45 329.07,175.86 329.29,176.47 329.51,256.85 329.72,195.59 329.94,265.95 330.16,255.04 330.38,183.04 330.59,182.07 330.81,247.01 331.03,264.53 331.25,191.42 331.47,250.39 331.68,183.81 331.90,245.05 332.12,191.92 332.34,256.49 332.55,180.32 332.77,169.49 332.99,228.15 333.21,180.22 333.43,236.97 333.64,227.67 333.86,156.46 334.08,169.19 334.30,244.72 334.51,213.07 334.73,265.91 334.95,165.45 335.17,230.51 335.39,199.86 335.60,269.44 335.82,251.59 336.04,149.21 336.26,204.27 336.47,121.00 336.69,104.01 336.91,188.88 337.13,99.52 337.35,171.54 337.56,157.04 337.78,217.93 338.00,209.67 338.22,143.91 338.43,206.44 338.65,166.87 338.87,171.27 339.09,220.66 339.31,218.21 339.52,156.45 339.74,217.42 339.96,125.51 340.18,245.45 340.39,140.18 340.61,139.66 340.83,229.39 341.05,147.12 341.27,243.92 341.48,223.91 341.70,146.84 341.92,220.31 342.14,172.94 342.35,201.44 342.57,262.31 342.79,270.59 343.01,202.41 343.23,262.83 343.44,219.68 343.66,256.19 343.88,193.26 344.10,247.02 344.31,174.24 344.53,239.98 344.75,176.00 344.97,211.99 345.19,142.79 345.40,215.37 345.62,175.73 345.84,186.65 346.06,240.54 346.27,235.79 346.49,169.75 346.71,195.59 346.93,243.23 347.14,264.50 347.36,169.27 347.58,168.96 347.80,242.06 348.02,169.76 348.23,250.17 348.45,249.93 348.67,177.57 348.89,155.41 349.10,236.80 349.32,177.25 349.54,249.70 349.76,156.45 349.98,225.14 350.19,212.36 350.41,274.24 350.63,286.12 350.85,223.52 351.06,224.58 351.28,267.08 351.50,266.38 351.72,192.04 351.94,250.66 352.15,206.95 352.37,283.47 352.59,186.00 352.81,263.33 353.02,188.34 353.24,242.27 353.46,176.62 353.68,162.81 353.90,246.64 354.11,258.69 354.33,172.77 354.55,184.92 354.77,259.16 354.98,278.22 355.20,196.06 355.42,250.11 355.64,153.07 355.86,178.02 356.07,258.01 356.29,265.56 356.51,191.72 356.73,191.17 356.94,248.28 357.16,202.64 357.38,273.15 357.60,248.50 357.82,143.87 358.03,165.90 358.25,234.31 358.47,223.39 358.69,274.51 358.90,258.73 359.12,199.64 359.34,194.85 359.56,276.38 359.78,293.93 359.99,221.33 360.21,280.23 360.43,215.79 360.65,191.22 360.86,254.26 361.08,249.97 361.30,184.90 361.52,190.23 361.74,241.67 361.95,273.29 362.17,207.50 362.39,249.48 362.61,197.13 362.82,238.70 363.04,126.17 363.26,240.88 363.48,176.19 363.70,152.72 363.91,234.55 364.13,196.34 364.35,268.21 364.57,241.26 364.78,189.80 365.00,166.08 365.22,256.00 365.44,206.84 365.66,250.11 365.87,231.37 366.09,173.14 366.31,215.27 366.53,301.24 366.74,286.72 366.96,230.26 367.18,229.50 367.40,299.23 367.62,270.44 367.83,195.47 368.05,246.41 368.27,171.11 368.49,247.39 368.70,173.44 368.92,255.61 369.14,198.20 369.36,251.10 369.58,176.55 369.79,200.31 370.01,273.80 370.23,255.85 370.45,177.08 370.66,248.66 370.88,128.05 371.10,127.32 371.32,251.26 371.54,246.41 371.75,168.12 371.97,259.24 372.19,190.06 372.41,170.43 372.62,255.72 372.84,162.95 373.06,229.97 373.28,253.34 373.49,167.56 373.71,240.62 373.93,151.03 374.15,164.11 374.37,240.41 374.58,282.11 374.80,198.11 375.02,252.80 375.24,217.47 375.45,207.56 375.67,261.94 375.89,262.84 376.11,207.43 376.33,252.83 376.54,165.62 376.76,176.92 376.98,239.05 377.20,239.53 377.41,175.25 377.63,176.00 377.85,235.21 378.07,266.32 378.29,208.53 378.50,233.68 378.72,174.41 378.94,236.62 379.16,163.30 379.37,251.00 379.59,165.74 379.81,178.76 380.03,257.87 380.25,259.10 380.46,177.52 380.68,260.67 380.90,167.31 381.12,203.38 381.33,271.35 381.55,278.01 381.77,220.28 381.99,168.46 382.21,239.16 382.42,210.05 382.64,268.57 382.86,226.01 383.08,277.52 383.29,200.72 383.51,286.38 383.73,238.91 383.95,325.91 384.17,283.73 384.38,205.23 384.60,241.22 384.82,182.24 385.04,249.30 385.25,211.19 385.47,236.60 385.69,175.91 385.91,269.48 386.13,201.70 386.34,247.17 386.56,163.59 386.78,170.25 387.00,241.19 387.21,192.55 387.43,261.99 387.65,248.79 387.87,153.77 388.09,154.15 388.30,229.23 388.52,254.29 388.74,196.41 388.96,183.48 389.17,247.52 389.39,262.66 389.61,195.85 389.83,251.77 390.05,176.16 390.26,205.74 390.48,262.89 390.70,224.01 390.92,291.40 391.13,297.47 391.35,234.19 391.57,295.57 391.79,209.35 392.01,284.35 392.22,221.23 392.44,252.53 392.66,174.96 392.88,183.17 393.09,249.80 393.31,253.51 393.53,179.99 393.75,244.38 393.97,190.95 394.18,217.85 394.40,261.32 394.62,245.86 394.84,180.78 395.05,181.72 395.27,247.30 395.49,263.20 395.71,207.30 395.93,255.72 396.14,205.77 396.36,192.13 396.58,272.20 396.80,244.58 397.01,175.27 397.23,209.04 397.45,245.17 397.67,272.60 397.89,216.44 398.10,194.34 398.32,264.61 398.54,237.75 398.76,280.67 398.97,269.10 399.19,233.41 399.41,299.37 399.63,227.11 399.85,226.91 400.06,285.66 400.28,236.97 400.50,282.92 400.72,292.62 400.93,197.50 401.15,252.12 401.37,190.41 401.59,247.94 401.80,198.41 402.02,192.11 402.24,258.34 402.46,267.08 402.68,175.19 402.89,172.24 403.11,227.74 403.33,247.52 403.55,206.25 403.76,220.81 403.98,162.72 404.20,169.82 404.42,256.43 404.64,256.12 404.85,190.04 405.07,171.44 405.29,246.32 405.51,202.55 405.72,270.76 405.94,250.02 406.16,181.06 406.38,204.92 406.60,262.74 406.81,242.94 407.03,291.86 407.25,248.49 407.47,289.66 407.68,236.60 407.90,288.17 408.12,292.92 408.34,232.74 408.56,260.48 408.77,216.77 408.99,183.36 409.21,261.83 409.43,245.35 409.64,174.81 409.86,242.27 410.08,175.78 410.30,209.45 410.52,265.93 410.73,270.73 410.95,182.03 411.17,215.45 411.39,266.47 411.60,273.27 411.82,207.59 412.04,181.69 412.26,249.33 412.48,223.43 412.69,277.07 412.91,247.98 413.13,170.45 413.35,168.40 413.56,260.53 413.78,271.68 414.00,212.34 414.22,192.06 414.44,254.02 414.65,205.78 414.87,284.46 415.09,285.46 415.31,212.35 415.52,209.72 415.74,281.57 415.96,216.58 416.18,287.58 416.40,275.10 416.61,205.51 416.83,260.83 417.05,179.56 417.27,177.97 417.48,245.38 417.70,174.33 417.92,243.70 418.14,196.71 418.36,257.72 418.57,251.10 418.79,148.38 419.01,174.95 419.23,232.89 419.44,196.62 419.66,258.48 419.88,235.66 420.10,166.23 420.32,261.55 420.53,204.78 420.75,253.48 420.97,199.10 421.19,192.39 421.40,251.59 421.62,257.42 421.84,201.19 422.06,263.81 422.28,173.89 422.49,206.51 422.71,257.81 422.93,229.82 423.15,300.00 423.36,248.17 423.58,301.67 423.80,257.18 424.02,293.68 424.24,302.13 424.45,223.45 424.67,286.68 424.89,193.62 425.11,210.01 425.32,264.94 425.54,253.98 425.76,176.51 425.98,255.06 426.20,186.03 426.41,257.75 426.63,211.78 426.85,180.85 427.07,249.29 427.28,265.11 427.50,228.65 427.72,263.49 427.94,202.18 428.15,185.88 428.37,248.94 428.59,188.71 428.81,274.15 429.03,257.12 429.24,193.65 429.46,209.67 429.68,252.65 429.90,258.14 430.11,209.74 430.33,234.90 430.55,148.13 430.77,155.15 430.99,262.44 431.20,223.20 431.42,275.54 431.64,242.14 431.86,283.54 432.07,238.39 432.29,320.07 432.51,295.25 432.73,222.20 432.95,273.69 433.16,215.65 433.38,268.46 433.60,205.02 433.82,190.17 434.03,231.99 434.25,174.23 434.47,255.40 434.69,274.14 434.91,177.80 435.12,177.22 435.34,237.99 435.56,209.05 435.78,267.22 435.99,181.08 436.21,248.51 436.43,169.66 436.65,266.39 436.87,273.09 437.08,203.71 437.30,175.65 437.52,229.10 437.74,183.65 437.95,266.18 438.17,249.27 438.39,154.97 438.61,174.05 438.83,265.31 439.04,272.57 439.26,236.45 439.48,282.74 439.70,214.51 439.91,282.82 440.13,190.90 440.35,256.41 440.57,211.37 440.79,186.98 441.00,248.27 441.22,204.47 441.44,247.37 441.66,235.23 441.87,188.91 442.09,172.89 442.31,245.23 442.53,258.90 442.75,222.26 442.96,263.23 443.18,174.03 443.40,224.29 443.62,151.10 443.83,166.26 444.05,227.78 444.27,169.08 444.49,234.70 444.71,190.35 444.92,266.16 445.14,249.87 445.36,191.01 445.58,174.06 445.79,247.80 446.01,264.73 446.23,210.13 446.45,248.38 446.67,193.06 446.88,222.29 447.10,268.89 447.32,241.17 447.54,285.05 447.75,281.61 447.97,217.01 448.19,155.63 448.41,243.81 448.63,252.57 448.84,187.50 449.06,165.92 449.28,232.85 449.50,189.55 449.71,239.70 449.93,169.33 450.15,210.29 450.37,146.66 450.59,223.26 450.80,214.81 451.02,144.32 451.24,161.69 451.46,200.58 451.67,171.78 451.89,238.14 452.11,231.96 452.33,145.57 452.55,139.09 452.76,235.20 452.98,183.61 453.20,229.63 453.42,216.24 453.63,139.27 453.85,161.86 454.07,230.65 454.29,227.70 454.51,155.04 454.72,173.51 454.94,230.94 455.16,251.44 455.38,213.19 455.59,196.17 455.81,253.20 456.03,263.37 456.25,192.30 456.46,242.64 456.68,203.40 456.90,238.77 457.12,184.21 457.34,255.66 457.55,178.81 457.77,228.29 457.99,167.90 458.21,170.16 458.42,225.69 458.64,203.69 458.86,256.99 459.08,227.81 459.30,177.12 459.51,178.06 459.73,243.78 459.95,249.15 460.17,176.70 460.38,176.62 460.60,252.18 460.82,246.06 461.04,170.87 461.26,234.94 461.47,164.15 461.69,183.22 461.91,231.66 462.13,201.46 462.34,258.77 462.56,253.59 462.78,183.11 463.00,220.35 463.22,266.96 463.43,270.67 463.65,235.46 463.87,253.32 464.09,196.27 464.30,221.20 464.52,254.46 464.74,264.78 464.96,200.76 465.18,271.96 465.39,192.36 465.61,250.56 465.83,211.93 466.05,216.94 466.26,162.88 466.48,165.25 466.70,236.20 466.92,218.08 467.14,171.06 467.35,170.92 467.57,229.52 467.79,196.23 468.01,245.34 468.22,234.45 468.44,170.75 468.66,242.37 468.88,198.52 469.10,240.44 469.31,194.67 469.53,201.39 469.75,256.63 469.97,205.66 470.18,273.09 470.40,266.60 470.62,185.32 470.84,191.21 471.06,250.80 471.27,272.90 471.49,214.21 471.71,237.13 471.93,274.69 472.14,273.71 472.36,213.59 472.58,275.99 472.80,221.63 473.02,263.67 473.23,209.53 473.45,251.26 473.67,196.60 473.89,239.56 474.10,175.46 474.32,172.05 474.54,240.74 474.76,269.74 474.98,200.32 475.19,235.87 475.41,164.30 475.63,181.85 475.85,264.52 476.06,261.51 476.28,192.47 476.50,171.73 476.72,221.49 476.94,140.72 477.15,223.85 477.37,239.57 477.59,166.31 477.81,105.90 478.02,229.96 478.24,198.19 478.46,243.53 478.68,172.84 478.90,228.94 479.11,179.63 479.33,256.75 479.55,217.23 479.77,281.15 479.98,252.79 480.20,207.96 480.42,218.76 480.64,260.77 480.86,214.46 481.07,248.86 481.29,256.64 481.51,180.55 481.73,254.16 481.94,191.09 482.16,226.38 482.38,135.68 482.60,162.09 482.81,226.97 483.03,239.84 483.25,164.19 483.47,154.70 483.69,222.96 483.90,171.48 484.12,252.54 484.34,249.13 484.56,191.04 484.77,240.26 484.99,176.13 485.21,250.60 485.43,195.99 485.65,180.38 485.86,237.37 486.08,207.36 486.30,263.52 486.52,264.32 486.73,174.43 486.95,264.25 487.17,181.75 487.39,217.92 487.61,276.38 487.82,262.14 488.04,213.18 488.26,266.48 488.48,192.77 488.69,258.87 488.91,199.51 489.13,249.37 489.35,186.09 489.57,164.98 489.78,261.41 490.00,250.53 490.22,178.09 490.44,182.96 490.65,244.61 490.87,218.91 491.09,256.40 491.31,238.58 491.53,165.47 491.74,231.16 491.96,189.12 492.18,245.07 492.40,178.19 492.61,231.33 492.83,147.04 493.05,159.17 493.27,241.11 493.49,239.18 493.70,144.67 493.92,144.24 494.14,217.88 494.36,214.84 494.57,165.85 494.79,150.73 495.01,207.58 495.23,186.90 495.45,266.09 495.66,240.78 495.88,192.11 496.10,186.44 496.32,232.10 496.53,204.22 496.75,237.91 496.97,185.72 497.19,244.01 497.41,171.76 497.62,220.16 497.84,190.25 498.06,239.34 498.28,170.80 498.49,216.04 498.71,183.65 498.93,248.63 499.15,249.99 499.37,174.90 499.58,189.49 499.80,235.74 500.02,256.52 500.24,182.46 500.45,180.72 500.67,239.87 500.89,195.86 501.11,235.55 501.33,263.97 501.54,172.60 501.76,184.84 501.98,239.08 502.20,271.22 502.41,178.69 502.63,166.84 502.85,240.30 503.07,189.73 503.29,251.79 503.50,218.47 503.72,277.23 503.94,269.78 504.16,201.49 504.37,222.49 504.59,281.37 504.81,283.56 505.03,199.52 505.25,191.75 505.46,250.41 505.68,200.07 505.90,257.94 506.12,264.83 506.33,174.94 506.55,171.41 506.77,242.79 506.99,282.81 507.21,187.92 507.42,221.51 507.64,170.43 507.86,205.58 508.08,273.54 508.29,271.38 508.51,199.50 508.73,254.00 508.95,210.01 509.16,202.76 509.38,251.67 509.60,254.71 509.82,174.47 510.04,187.92 510.25,273.02 510.47,269.35 510.69,222.81 510.91,252.31 511.12,184.21 511.34,231.38 511.56,287.32 511.78,293.39 512.00,216.96 512.21,216.29 512.43,279.16 512.65,287.98 512.87,227.51 513.08,261.12 513.30,211.71 513.52,268.03 513.74,189.95 513.96,274.70 514.17,215.87 514.39,160.91 514.61,233.61 514.83,214.61 515.04,271.34 515.26,271.67 515.48,169.88 515.70,192.10 515.92,227.49 516.13,193.51 516.35,241.56 516.57,226.16 516.79,164.45 517.00,258.58 517.22,166.01 517.44,244.92 517.66,183.98 517.88,228.28 518.09,174.93 518.31,251.52 518.53,206.31 518.75,242.15 518.96,149.36 519.18,170.36 519.40,261.77 519.62,279.81 519.84,238.75 520.05,273.39 520.27,218.26 520.49,228.29 520.71,289.05 520.92,296.62 521.14,233.24 521.36,205.13 521.58,283.20 521.80,250.93 522.01,182.21 522.23,220.80 522.45,145.50 522.67,180.70 522.88,241.99 523.10,259.31 523.32,189.99 523.54,239.63 523.76,171.36 523.97,202.59 524.19,261.45 524.41,262.01 524.63,157.85 524.84,186.48 525.06,260.41 525.28,267.96 525.50,196.12 525.72,250.27 525.93,166.94 526.15,248.33 526.37,176.92 526.59,264.34 526.80,220.65 527.02,182.90 527.24,231.73 527.46,279.31 527.68,179.23 527.89,221.96 528.11,196.89 528.33,189.79 528.55,245.39 528.76,245.56 528.98,173.45 529.20,186.57 529.42,252.66 529.64,230.40 529.85,121.42 530.07,126.07 530.29,232.83 530.51,105.52 530.72,207.72 530.94,145.42 531.16,230.42 531.38,239.94 531.60,153.68 531.81,152.98 532.03,226.30 532.25,208.12 532.47,260.17 532.68,259.43 532.90,182.76 533.12,254.36 533.34,186.49 533.56,227.52 533.77,194.44 533.99,122.64 534.21,203.55 534.43,176.15 534.64,241.80 534.86,246.66 535.08,169.09 535.30,196.65 535.52,253.06 535.73,222.92 535.95,264.69 536.17,268.36 536.39,223.51 536.60,229.47 536.82,286.07 537.04,283.70 537.26,229.55 537.47,279.68 537.69,183.74 537.91,218.15 538.13,164.30 538.35,217.20 538.56,167.16 538.78,179.07 539.00,223.92 539.22,207.66 539.43,245.22 539.65,240.36 539.87,178.76 540.09,191.61 540.31,262.70 540.52,269.87 540.74,195.60 540.96,243.82 541.18,160.25 541.39,206.93 541.61,244.22 541.83,260.49 542.05,185.55 542.27,252.39 542.48,197.58 542.70,260.26 542.92,222.64 543.14,238.92 543.35,177.46 543.57,208.95 543.79,277.69 544.01,274.53 544.23,216.36 544.44,263.08 544.66,198.35 544.88,252.78 545.10,188.55 545.31,232.15 545.53,179.46 545.75,220.28 545.97,139.23 546.19,175.00 546.40,227.53 546.62,143.01 546.84,220.95 547.06,245.17 547.27,171.16 547.49,238.96 547.71,164.18 547.93,218.45 548.15,160.22 548.36,198.95 548.58,250.76 548.80,242.52 549.02,178.09 549.23,187.84 549.45,248.63 549.67,252.89 549.89,195.26 550.11,181.40 550.32,227.06 550.54,172.31 550.76,243.57 550.98,266.47 551.19,160.37 551.41,192.87 551.63,252.63 551.85,230.90 552.07,282.81 552.28,221.69 552.50,262.28 552.72,263.15 552.94,218.31 553.15,271.43 553.37,218.74 553.59,269.07 553.81,179.04 554.03,189.11 554.24,254.49 554.46,250.06 554.68,189.72 554.90,220.91 555.11,249.10 555.33,225.17 555.55,291.34 555.77,251.40 555.99,207.68 556.20,201.50 556.42,249.14 556.64,259.94 556.86,145.83 557.07,172.57 557.29,231.24 557.51,275.99 557.73,205.38 557.95,264.47 558.16,188.14 558.38,204.00 558.60,268.59 558.82,215.01 559.03,288.82 559.25,255.10 559.47,172.00 559.69,224.01 559.91,276.08 560.12,276.80 560.34,235.79 560.56,232.96 560.78,278.61 560.99,305.21 561.21,262.13 561.43,286.87 561.65,236.49 561.87,272.21 562.08,206.63 562.30,212.92 562.52,271.81 562.74,259.18 562.95,201.89 563.17,216.37 563.39,274.15 563.61,261.23 563.82,196.78 564.04,179.66 564.26,255.16 564.48,281.37 564.70,202.74 564.91,264.84 565.13,190.64 565.35,217.14 565.57,269.10 565.78,275.02 566.00,229.99 566.22,196.41 566.44,252.64 566.66,228.66 566.87,300.34 567.09,277.64 567.31,162.42 567.53,178.49 567.74,261.70 567.96,227.71 568.18,291.49 568.40,239.00 568.62,295.72 568.83,303.50 569.05,264.03 569.27,298.54 569.49,236.61 569.70,291.85 569.92,212.94 570.14,220.17 570.36,255.90 570.58,247.15 570.79,181.45 571.01,225.71 571.23,165.57 571.45,228.60 571.66,152.68 571.88,213.35 572.10,160.71 572.32,184.89 572.54,241.67 572.75,240.23 572.97,155.49 573.19,131.22 573.41,204.97 573.62,183.74 573.84,230.97 574.06,232.68 574.28,168.31 574.50,213.38 574.71,129.29 574.93,153.60 575.15,213.21 575.37,147.65 575.58,219.04 575.80,228.56 576.02,182.53 576.24,249.81 576.46,205.73 576.67,258.29 576.89,201.46 577.11,207.35 577.33,246.92 577.54,256.84 577.76,125.12 577.98,179.34 578.20,232.07 578.42,259.07 578.63,171.17 578.85,130.61 579.07,214.95 579.29,138.39 579.50,215.19 579.72,226.42 579.94,135.45 580.16,151.51 580.38,217.72 580.59,244.52 580.81,162.16 581.03,204.58 581.25,156.97 581.46,229.38 581.68,154.69 581.90,228.65 582.12,180.16 582.34,160.54 582.55,201.68 582.77,126.76 582.99,239.81 583.21,233.37 583.42,148.52 583.64,141.48 583.86,224.93 584.08,192.54 584.30,248.76 584.51,203.44 584.73,268.40 584.95,265.07 585.17,213.91 585.38,272.73 585.60,179.02 585.82,219.69 586.04,173.11 586.26,223.64 586.47,150.36 586.69,206.23 586.91,145.91 587.13,153.09 587.34,217.58 587.56,229.90 587.78,187.60 588.00,141.19 588.22,221.93 588.43,233.54 588.65,180.45 588.87,221.71 589.09,170.58 589.30,182.28 589.52,232.34 589.74,201.05 589.96,237.35 590.18,230.61 590.39,177.43 590.61,199.54 590.83,244.29 591.05,261.53 591.26,206.73 591.48,174.65 591.70,236.69 591.92,226.43 592.13,266.00 592.35,220.82 592.57,258.09 592.79,286.09 593.01,233.66 593.22,223.02 593.44,287.07 593.66,239.58 593.88,153.21 594.09,193.48 594.31,246.87 594.53,250.17 594.75,178.04 594.97,177.64 595.18,246.51 595.40,250.76 595.62,191.71 595.84,242.86 596.05,182.91 596.27,195.38 596.49,252.14 596.71,259.88 596.93,212.17 597.14,231.28 597.36,169.99 597.58,180.37 597.80,244.69 598.01,255.83 598.23,187.30 598.45,169.39 598.67,247.45 598.89,253.67 599.10,219.28 599.32,258.18 599.54,184.53 599.76,218.16 599.97,276.15 600.19,244.79 600.41,288.50 600.63,298.82 600.85,250.13 601.06,243.69 601.28,297.80 601.50,331.94 601.72,215.04 601.93,266.74 602.15,209.19 602.37,197.64 602.59,246.69 602.81,265.47 603.02,181.83 603.24,212.82 603.46,245.85 603.68,243.83 603.89,213.23 604.11,189.47 604.33,242.93 604.55,207.69 604.77,253.62 604.98,265.02 605.20,179.25 605.42,253.58 605.64,202.17 605.85,218.07 606.07,269.57 606.29,247.87 606.51,196.76 606.73,216.22 606.94,268.32 607.16,269.42 607.38,198.44 607.60,188.56 607.81,253.59 608.03,270.07 608.25,215.01 608.47,262.75 608.69,193.27 608.90,183.36 609.12,260.17 609.34,226.35 609.56,273.41 609.77,246.20 609.99,211.63 610.21,270.36 610.43,185.47 610.65,239.03 610.86,169.11 611.08,165.18 611.30,249.94 611.52,259.61 611.73,220.99 611.95,240.32 612.17,173.19 612.39,207.65 612.61,244.38 612.82,249.60 613.04,199.29 613.26,242.46 613.48,138.14 613.69,135.52 613.91,246.15 614.13,250.14 614.35,170.79 614.57,182.83 614.78,239.26 615.00,198.58 615.22,260.26 615.44,242.53 615.65,151.56 615.87,172.56 616.09,260.93 616.31,232.82 616.53,274.34 616.74,212.39 616.96,264.80 617.18,220.91 617.40,287.84 617.61,254.78 617.83,213.29 618.05,237.30 618.27,156.22 618.48,155.34 618.70,203.13 618.92,118.23 619.14,204.70 619.36,169.24 619.57,218.32 619.79,205.23 620.01,236.92 620.23,220.02 620.44,171.28 620.66,150.29 620.88,227.41 621.10,222.65 621.32,153.77 621.53,128.38 621.75,236.23 621.97,253.42 622.19,191.56 622.40,229.46 622.62,156.44 622.84,243.35 623.06,189.00 623.28,187.50 623.49,227.96 623.71,159.44 623.93,237.83 624.15,260.99 624.36,211.54 624.58,256.93 624.80,178.47 625.02,246.63 625.24,196.09 625.45,193.96 625.67,259.65 625.89,235.52 626.11,170.21 626.32,170.40 626.54,224.43 626.76,256.02 626.98,193.92 627.20,163.32 627.41,256.65 627.63,251.88 627.85,213.77 628.07,251.48 628.28,170.04 628.50,237.73 628.72,207.46 628.94,255.72 629.16,198.00 629.37,239.85 629.59,160.33 629.81,219.84 630.03,264.99 630.24,261.57 630.46,210.62 630.68,202.35 630.90,276.31 631.12,239.88 631.33,282.78 631.55,279.18 631.77,254.10 631.99,295.59 632.20,243.23 632.42,231.18 632.64,286.36 632.86,286.00 633.08,209.75 633.29,258.69 633.51,306.63 633.73,292.49 633.95,221.93 634.16,280.73 634.38,175.58 634.60,163.77 634.82,258.50 635.04,260.01 635.25,183.08 635.47,249.25 635.69,184.77 635.91,219.84 636.12,263.21 636.34,266.07 636.56,144.88 636.78,144.56 637.00,256.45 637.21,254.61 637.43,160.84 637.65,185.12 637.87,247.53 638.08,244.78 638.30,210.57 638.52,196.07 638.74,257.85 638.96,207.97 639.17,257.05 639.39,260.39 639.61,203.01 639.83,180.76 640.04,254.99 640.26,264.80 640.48,214.55 640.70,268.45 640.92,218.32 641.13,279.37 641.35,195.15 641.57,190.79 641.79,272.49 642.00,225.36 642.22,277.10 642.44,267.17 642.66,214.54 642.88,259.31 643.09,188.81 643.31,188.22 643.53,253.92 643.75,207.79 643.96,262.89 644.18,256.83 644.40,202.16 644.62,266.83 644.84,202.09 645.05,225.21 645.27,272.39 645.49,271.44 645.71,175.23 645.92,217.37 646.14,266.37 646.36,277.89 646.58,194.64 646.79,195.40 647.01,244.34 647.23,267.11 647.45,224.89 647.67,265.20 647.88,197.39 648.10,226.63 648.32,283.42 648.54,283.95 648.75,240.36 648.97,229.87 649.19,285.63 649.41,302.36 649.63,214.11 649.84,280.84 650.06,230.87 650.28,291.01 650.50,191.75 650.71,195.09 650.93,275.61 651.15,281.24 651.37,190.93 651.59,260.12 651.80,211.65 652.02,235.60 652.24,281.63 652.46,258.72 652.67,191.67 652.89,187.11 653.11,275.72 653.33,275.18 653.55,206.06 653.76,175.66 653.98,266.14 654.20,192.69 654.42,264.34 654.63,270.41 654.85,174.85 655.07,248.02 655.29,172.38 655.51,265.32 655.72,178.03 655.94,177.37 656.16,281.62 656.38,294.99 656.59,219.33 656.81,219.74 657.03,280.15 657.25,280.33 657.47,179.84 657.68,204.20 657.90,255.06 658.12,255.66 658.34,207.57 658.55,202.93 658.77,261.50 658.99,264.75 659.21,161.23 659.43,164.71 659.64,255.00 659.86,244.98 660.08,192.24 660.30,255.25 660.51,199.38 660.73,209.63 660.95,263.81 661.17,271.52 661.39,214.36 661.60,257.35 661.82,194.67 662.04,275.86 662.26,227.07 662.47,261.05 662.69,179.99 662.91,191.81 663.13,230.37 663.35,204.30 663.56,269.01 663.78,262.79 664.00,199.59 664.22,270.13 664.43,207.07 664.65,272.20 664.87,221.53 665.09,230.67 665.31,291.69 665.52,238.32 665.74,297.35 665.96,305.61 666.18,195.34 666.39,251.31 666.61,186.08 666.83,185.42 667.05,235.37 667.27,251.97 667.48,195.67 667.70,241.91 667.92,176.76 668.14,213.34 668.35,279.11 668.57,247.30 668.79,180.29 669.01,251.45 669.23,196.66 669.44,252.25 669.66,174.14 669.88,152.71 670.10,226.44 670.31,191.23 670.53,258.87 670.75,246.89 670.97,190.60 671.19,211.14 671.40,250.42 671.62,268.53 671.84,169.22 672.06,176.96 672.27,236.05 672.49,192.16 672.71,254.98 672.93,257.11 673.14,214.75 673.36,282.48 673.58,197.10 673.80,273.62 674.02,205.42 674.23,205.31 674.45,271.54 674.67,193.97 674.89,267.26 675.10,280.30 675.32,211.37 675.54,197.61 675.76,248.60 675.98,192.76 676.19,264.20 676.41,270.08 676.63,190.45 676.85,271.49 677.06,205.67 677.28,271.79 677.50,215.64 677.72,274.09 677.94,198.79 678.15,207.56 678.37,278.00 678.59,283.25 678.81,174.38 679.02,180.56 679.24,245.38 679.46,194.62 679.68,276.92 679.90,243.64 680.11,185.79 680.33,253.21 680.55,188.79 680.77,221.29 680.98,270.14 681.20,224.13 681.42,280.38 681.64,300.29 681.86,220.86 682.07,290.68 682.29,223.42 682.51,209.03 682.73,273.92 682.94,267.29 683.16,211.02 683.38,254.49 683.60,195.81 683.82,255.12 684.03,209.71 684.25,231.91 684.47,279.63 684.69,272.52 684.90,193.59 685.12,229.77 685.34,276.77 685.56,290.64 685.78,200.29 685.99,228.66 686.21,276.88 686.43,232.98 686.65,279.49 686.86,265.95 687.08,177.27 687.30,171.64 687.52,253.55 687.74,264.41 687.95,215.27 688.17,198.11 688.39,272.77 688.61,291.74 688.82,216.63 689.04,275.17 689.26,226.22 689.48,222.57 689.70,289.84 689.91,326.74 690.13,236.17 690.35,221.15 690.57,308.26 690.78,301.82 691.00,219.80 691.22,295.07 691.44,195.55 691.66,271.67 691.87,174.08 692.09,217.81 692.31,280.46 692.53,276.29 692.74,191.73 692.96,201.76 693.18,249.77 693.40,279.96 693.62,240.02 693.83,277.02 694.05,195.17 694.27,210.67 694.49,264.73 694.70,280.05 694.92,218.11 695.14,238.87 695.36,179.32 695.58,169.67 695.79,236.27 696.01,257.03 696.23,195.76 696.45,202.51 696.66,275.09 696.88,280.84 697.10,244.15 697.32,287.22 697.54,219.38 697.75,221.25 697.97,316.61 698.19,286.86 698.41,218.29 698.62,280.80 698.84,218.99 699.06,207.61 699.28,276.83 699.49,268.92 699.71,191.38 699.93,255.68 700.15,183.55 700.37,266.42 700.58,224.87 700.80,243.00 701.02,190.33 701.24,216.23 701.45,276.04 701.67,254.90 701.89,191.03 702.11,183.86 702.33,263.15 702.54,211.84 702.76,277.70 702.98,273.26 703.20,212.60 703.41,232.97 703.63,291.31 703.85,277.87 704.07,197.70 704.29,178.23 704.50,254.94 704.72,220.04 704.94,309.84 705.16,298.01 705.37,223.21 705.59,262.34 705.81,165.19 706.03,179.59 706.25,270.18 706.46,259.86 706.68,166.24 706.90,176.83 707.12,258.68 707.33,275.87 707.55,182.14 707.77,233.04 707.99,164.51 708.21,208.35 708.42,271.72 708.64,258.02 708.86,204.27 709.08,261.40 709.29,208.70 709.51,266.84 709.73,222.48 709.95,195.32 710.17,265.21 710.38,210.95 710.60,272.54 710.82,275.79 711.04,207.66 711.25,200.24 711.47,259.01 711.69,210.47 711.91,287.44 712.13,278.40 712.34,206.32 712.56,208.86 712.78,292.36 713.00,277.14 713.21,334.82 713.43,319.62 713.65,254.17 713.87,263.31 714.09,356.84 714.30,349.48 714.52,231.68 714.74,294.77 714.96,215.95 715.17,296.28 715.39,222.90 715.61,271.16 715.83,198.53 716.05,224.27 716.26,277.08 716.48,276.94 716.70,221.36 716.92,271.72 717.13,203.16 717.35,233.26 717.57,274.97 717.79,280.14 718.01,192.31 718.22,191.07 718.44,254.23 718.66,273.04 718.88,209.55 719.09,273.65 719.31,193.72 719.53,230.01 719.75,294.78 719.97,285.14 720.18,232.64 720.40,208.07 720.62,271.12 720.84,232.74 721.05,284.59 721.27,256.02 721.49,308.82 721.71,262.31 721.93,323.45 722.14,330.18 722.36,262.09 722.58,318.65 722.80,219.55 723.01,282.08 723.23,216.41 723.45,282.31 723.67,203.66 723.89,211.93 724.10,275.94 724.32,223.92 724.54,301.09 724.76,287.19 724.97,209.93 725.19,218.48 725.41,295.32 725.63,232.49 725.85,289.11 726.06,258.47 726.28,181.54 726.50,210.03 726.72,280.38 726.93,299.93 727.15,206.72 727.37,255.28 727.59,139.05 727.80,196.38 728.02,267.22 728.24,196.46 728.46,245.65 728.68,207.64 728.89,294.66 729.11,283.65 729.33,231.55 729.55,299.56 729.76,228.88 729.98,232.34 730.20,291.34 730.42,298.87 730.64,197.41 730.85,277.59 731.07,217.09 731.29,174.54 731.51,248.21 731.72,274.90 731.94,187.14 732.16,262.89 732.38,184.28 732.60,246.99 732.81,178.76 733.03,178.56 733.25,235.50 733.47,218.87 733.68,255.02 733.90,266.41 734.12,180.31 734.34,202.01 734.56,249.85 734.77,195.39 734.99,261.70 735.21,276.78 735.43,197.69 735.64,187.73 735.86,245.59 736.08,257.77 736.30,208.16 736.52,182.23 736.73,243.50 736.95,237.41 737.17,284.92 737.39,281.34 737.60,226.46 737.82,282.10 738.04,209.77 738.26,305.16 738.48,237.25 738.69,290.11 738.91,220.39 739.13,198.16 739.35,252.67 739.56,257.08 739.78,211.71 740.00,205.78 740.22,255.95 740.44,202.43 740.65,247.16 740.87,263.46 741.09,176.74 741.31,194.05 741.52,260.10 741.74,264.64 741.96,230.71 742.18,199.21 742.40,257.52 742.61,197.96 742.83,263.94 743.05,263.64 743.27,202.08 743.48,206.08 743.70,261.11 743.92,249.90 744.14,186.04 744.36,244.42 744.57,191.86 744.79,217.95 745.01,279.49 745.23,310.96 745.44,225.36 745.66,240.94 745.88,304.08 746.10,242.47 746.32,296.28 746.53,288.44 746.75,218.65 746.97,200.42 747.19,258.19 747.40,214.49 747.62,290.54 747.84,254.94 748.06,201.94 748.28,257.27 748.49,206.42 748.71,270.79 748.93,229.22 749.15,262.60 749.36,197.82 749.58,290.34 749.80,222.10 750.02,268.79 750.24,211.16 750.45,275.79 750.67,188.50 750.89,233.36 751.11,298.71 751.32,297.63 751.54,198.60 751.76,183.86 751.98,251.56 752.20,254.73 752.41,187.73 752.63,183.49 752.85,245.07 753.07,207.43 753.28,293.06 753.50,233.38 753.72,279.88 753.94,244.15 754.15,199.41 754.37,229.97 754.59,293.47 754.81,272.85 755.03,230.32 755.24,226.79 755.46,270.60 755.68,280.12 755.90,204.59 756.11,202.64 756.33,264.89 756.55,265.86 756.77,220.75 756.99,261.55 757.20,191.99 757.42,221.75 757.64,288.44 757.86,280.81 758.07,205.09 758.29,189.49 758.51,264.39 758.73,298.86 758.95,244.46 759.16,279.24 759.38,205.77 759.60,274.50 759.82,211.57 760.03,193.56 760.25,292.76 760.47,276.44 760.69,218.09 760.91,223.60 761.12,288.19 761.34,288.65 761.56,222.32 761.78,301.84 761.99,239.87 762.21,285.84 762.43,205.45 762.65,215.20 762.87,255.68 763.08,283.57 763.30,204.10 763.52,178.27 763.74,267.13 763.95,241.48 764.17,202.64 764.39,204.97 764.61,271.89 764.83,278.09 765.04,208.17 765.26,195.03 765.48,252.88 765.70,223.64 765.91,263.87 766.13,270.85 766.35,172.93 766.57,200.15 766.79,241.92 767.00,213.59 767.22,253.62 767.44,268.81 767.66,137.21 767.87,204.43 768.09,268.80 768.31,219.57 768.53,297.89 768.75,197.52 768.96,286.64 769.18,227.95 769.40,275.76 769.62,242.07 769.83,296.57 770.05,305.21 770.27,259.46 770.49,284.49 770.71,231.41 770.92,293.41 771.14,229.35 771.36,275.36 771.58,207.08 771.79,280.98 772.01,205.63 772.23,207.40 772.45,258.33 772.67,213.19 772.88,261.60 773.10,271.67 773.32,191.04 773.54,211.18 773.75,280.80 773.97,273.63 774.19,219.91 774.41,188.16 774.63,256.66 774.84,265.20 775.06,213.01 775.28,273.20 775.50,197.00 775.71,197.98 775.93,259.36 776.15,218.67 776.37,265.21 776.59,258.84 776.80,151.51 777.02,207.21 777.24,266.62 777.46,226.19 777.67,300.20 777.89,238.42 778.11,296.76 778.33,312.96 778.55,235.45 778.76,224.79 778.98,284.14 779.20,156.87 779.42,250.95 779.63,262.37 779.85,198.55 780.07,242.60 780.29,187.87 780.51,162.73 780.72,239.05 780.94,269.57 781.16,179.45 781.38,178.69 781.59,254.50 781.81,211.65 782.03,259.09 782.25,267.87 782.46,189.88 782.68,256.67 782.90,201.76 783.12,221.75 783.34,281.90 783.55,263.55 783.77,204.23 783.99,214.82 784.21,266.63 784.42,267.32 784.64,194.51 784.86,195.23 785.08,260.16 785.30,265.08 785.51,216.27 785.73,284.77 785.95,234.31 786.17,286.05 786.38,231.10 786.60,283.21 786.82,239.70 787.04,235.74 787.26,283.85 787.47,272.77 787.69,208.70 787.91,197.21 788.13,249.12 788.34,271.43 788.56,195.89 788.78,203.10 789.00,263.76 789.22,265.34 789.43,180.90 789.65,213.57 789.87,253.73 790.09,225.26 790.30,273.81 790.52,181.34 790.74,285.23 790.96,220.22 791.18,271.32 791.39,297.33 791.61,206.86 791.83,285.02 792.05,195.09 792.26,280.29 792.48,216.45 792.70,270.34 792.92,177.53 793.14,203.13 793.35,290.97 793.57,245.18 793.79,339.91 794.01,230.32 794.22,314.40 794.44,310.88 794.66,263.34 794.88,288.89 795.10,231.40 795.31,292.15 795.53,219.90 795.75,224.96 795.97,272.56 796.18,268.73 796.40,203.12 796.62,275.34 796.84,223.95 797.06,219.93 797.27,284.05 797.49,186.55 797.71,298.00 797.93,262.30 798.14,223.26 798.36,278.72 798.58,181.12 798.80,223.01 799.02,264.18 799.23,232.35 799.45,287.74 799.67,280.38 799.89,192.31 800.10,305.36 800.32,208.21 800.54,290.74 800.76,214.44 800.98,210.22 801.19,273.21 801.41,235.92 801.63,332.16 801.85,303.92 802.06,237.67 802.28,239.49 802.50,308.13 802.72,252.31 802.94,320.93 803.15,226.78 803.37,297.47 803.59,273.23 803.81,225.72 804.02,260.67 804.24,201.03 804.46,215.75 804.68,286.11 804.90,270.43 805.11,231.64 805.33,287.62 805.55,214.69 805.77,220.37 805.98,272.68 806.20,234.91 806.42,283.99 806.64,258.65 806.86,171.16 807.07,212.22 807.29,266.97 807.51,271.85 807.73,213.70 807.94,274.66 808.16,224.50 808.38,233.15 808.60,282.84 808.81,284.41 809.03,220.28 809.25,240.64 809.47,293.48 809.69,266.06 809.90,308.29 810.12,338.34 810.34,267.99 810.56,273.09 810.77,327.94 810.99,261.81 811.21,314.40 811.43,286.87 811.65,214.50 811.86,275.80 812.08,165.85 812.30,262.16 812.52,204.19 812.73,290.14 812.95,212.03 813.17,225.65 813.39,275.60 813.61,219.08 813.82,259.63 814.04,204.46 814.26,264.59 814.48,275.34 814.69,217.92 814.91,269.14 815.13,215.34 815.35,207.39 815.57,260.28 815.78,247.79 816.00,190.63 816.22,195.67 816.44,255.18 816.65,255.53 816.87,209.61 817.09,205.84 817.31,284.68 817.53,247.20 817.74,303.00 817.96,257.57 818.18,311.51 818.40,336.32 818.61,244.64 818.83,328.92 819.05,262.85 819.27,281.61 819.49,241.67 819.70,204.37 819.92,296.15 820.14,281.45 820.36,180.97 820.57,224.42 820.79,283.06 821.01,218.55 821.23,278.76 821.45,264.03 821.66,215.18 821.88,208.39 822.10,281.91 822.32,268.31 822.53,191.91 822.75,202.68 822.97,268.81 823.19,261.40 823.41,194.41 823.62,278.48 823.84,196.85 824.06,200.88 824.28,244.51 824.49,274.34 824.71,229.13 824.93,258.77 825.15,170.45 825.37,214.90 825.58,270.68 825.80,285.31 826.02,235.46 826.24,232.49 826.45,281.62 826.67,291.58 826.89,169.12 827.11,192.97 827.33,267.28 827.54,277.60 827.76,181.69 827.98,209.47 828.20,278.41 828.41,272.63 828.63,200.57 828.85,218.48 829.07,265.90 829.29,268.92 829.50,201.41 829.72,181.47 829.94,239.74 830.16,249.91 830.37,205.47 830.59,250.16 830.81,186.53 831.03,212.39 831.25,272.37 831.46,267.70 831.68,209.45 831.90,187.43 832.12,241.60 832.33,272.48 832.55,219.96 832.77,260.89 832.99,186.81 833.21,236.23 833.42,72.27 833.64,159.92 833.86,214.89 834.08,201.03 834.29,241.22 834.51,269.67 834.73,186.14 834.95,176.00 835.16,242.35 835.38,239.94 835.60,161.59 835.82,190.37 836.04,238.82 836.25,257.03 836.47,179.13 836.69,188.53 836.91,269.21 837.12,252.39 837.34,200.68 837.56,233.06 837.78,187.31 838.00,179.69 838.21,247.12 838.43,249.88 838.65,208.27 838.87,239.26 839.08,182.46 839.30,207.90 839.52,251.19 839.74,242.35 839.96,153.70 840.17,166.89 840.39,241.40 840.61,263.29 840.83,186.56 841.04,170.86 841.26,229.50 841.48,246.17 841.70,214.23 841.92,265.46 842.13,206.23 842.35,231.91 842.57,273.88 842.79,282.51 843.00,226.03 843.22,276.85 843.44,170.38 843.66,198.71 843.88,266.99 844.09,175.93 844.31,256.45 844.53,259.77 844.75,193.10 844.96,254.44 845.18,200.70 845.40,260.22 845.62,177.96 845.84,155.25 846.05,213.39 846.27,179.13 846.49,245.31 846.71,257.06 846.92,168.64 847.14,240.76 847.36,197.93 847.58,187.37 847.80,263.33 848.01,254.64 848.23,180.33 848.45,250.82 848.67,206.12 848.88,258.37 849.10,186.67 849.32,193.93 849.54,265.22 849.76,228.39 849.97,286.02 850.19,285.99 850.41,240.99 850.63,284.08 850.84,249.97 851.06,307.22 851.28,198.94 851.50,211.55 851.72,280.47 851.93,169.25 852.15,269.38 852.37,259.45 852.59,199.05 852.80,214.80 853.02,255.39 853.24,208.30 853.46,261.81 853.68,274.59 853.89,187.93 854.11,182.27 854.33,261.07 854.55,265.43 854.76,232.47 854.98,262.48 855.20,137.22 855.42,247.42 855.64,153.27 855.85,263.24 856.07,183.35 856.29,190.50 856.51,238.49 856.72,190.41 856.94,249.11 857.16,237.90 857.38,179.86 857.60,190.25 857.81,277.13 858.03,238.14 858.25,301.47 858.47,217.33 858.68,299.44 858.90,291.38 859.12,222.30 859.34,268.33 859.56,220.30 859.77,289.33 859.99,202.75 860.21,247.44 860.43,189.48 860.64,232.10 860.86,159.23 861.08,191.26 861.30,243.95 861.52,172.73 861.73,236.34 861.95,213.07 862.17,154.76 862.39,161.63 862.60,250.95 862.82,252.26 863.04,176.94 863.26,199.11 863.47,241.54 863.69,246.73 863.91,187.59 864.13,236.20 864.35,174.29 864.56,178.90 864.78,242.90 865.00,253.46 865.22,162.46 865.43,157.35 865.65,232.09 865.87,198.64 866.09,255.61 866.31,263.68 866.52,211.91 866.74,207.64 866.96,283.19 867.18,266.36 867.39,222.68 867.61,253.81 867.83,184.25 868.05,184.62 868.27,243.57 868.48,260.36 868.70,181.82 868.92,181.39 869.14,237.90 869.35,167.10 869.57,237.90 869.79,248.77 870.01,182.38 870.23,205.47 870.44,247.08 870.66,265.80 870.88,202.92 871.10,171.92 871.31,234.61 871.53,239.75 871.75,188.15 871.97,257.72 872.19,164.07 872.40,217.30 872.62,179.41 872.84,229.32 873.06,148.36 873.27,168.49 873.49,230.13 873.71,173.57 873.93,220.46 874.15,200.49 874.36,263.73 874.58,201.82 874.80,262.79 875.02,269.64 875.23,200.34 875.45,265.94 875.67,187.00 875.89,226.48 876.11,155.27 876.32,202.18 876.54,245.08 876.76,246.38 876.98,158.48 877.19,233.66 877.41,165.82 877.63,188.85 877.85,222.47 878.07,220.06 878.28,162.94 878.50,185.29 878.72,226.62 878.94,244.36 879.15,172.19 879.37,177.57 879.59,222.71 879.81,199.27 880.03,244.18 880.24,236.44 880.46,172.35 880.68,216.76 880.90,173.78 881.11,230.91 881.33,135.75 881.55,145.58 881.77,205.14 881.99,188.87 882.20,255.19 882.42,200.64 882.64,245.87 882.86,256.46 883.07,193.78 883.29,211.38 883.51,250.33 883.73,191.74 883.95,235.14 884.16,234.77 884.38,171.91 884.60,230.08 884.82,164.40 885.03,167.56 885.25,244.99 885.47,210.17 885.69,253.09 885.91,241.79 886.12,168.59 886.34,181.03 886.56,236.81 886.78,200.91 886.99,259.84 887.21,247.54 887.43,170.35 887.65,236.96 887.87,188.73 888.08,264.46 888.30,203.58 888.52,199.03 888.74,252.78 888.95,256.57 889.17,208.51 889.39,263.79 889.61,177.16 889.82,215.32 890.04,282.36 890.26,219.16 890.48,295.45 890.70,281.32 890.91,218.40 891.13,219.58 891.35,288.45 891.57,207.62 891.78,265.88 892.00,280.53 892.22,166.02 892.44,185.76 892.66,268.36 892.87,267.06 893.09,165.58 893.31,188.19 893.53,239.20 893.74,258.67 893.96,202.09 894.18,163.92 894.40,235.75 894.62,175.62 894.83,241.39 895.05,247.30 895.27,143.44 895.49,239.93 895.70,187.01 895.92,202.77 896.14,276.03 896.36,248.54 896.58,170.85 896.79,254.94 897.01,215.99 897.23,257.94 897.45,197.20 897.66,168.66 897.88,259.63 898.10,220.18 898.32,303.56 898.54,310.10 898.75,211.70 898.97,275.08 899.19,223.12 899.41,285.34 899.62,229.83 899.84,269.67 900.06,168.97 900.28,172.31 900.50,250.47 900.71,255.26 900.93,165.19 901.15,169.23 901.37,267.42 901.58,210.23 901.80,261.37 902.02,255.81 902.24,159.24 902.46,188.27 902.67,243.56 902.89,268.89 903.11,205.63 903.33,262.82 903.54,153.62 903.76,187.11 903.98,254.04 904.20,270.29 904.42,176.16 904.63,233.97 904.85,177.95 905.07,195.06 905.29,265.68 905.50,256.10 905.72,170.04 905.94,206.18 906.16,315.37 906.38,315.20 906.59,248.89 906.81,220.62 907.03,304.05 907.25,236.28 907.46,324.60 907.68,284.56 907.90,189.63 908.12,200.98 908.34,254.32 908.55,190.54 908.77,259.01 908.99,267.15 909.21,156.43 909.42,199.90 909.64,251.79 909.86,282.36 910.08,179.91 910.30,180.47 910.51,255.10 910.73,210.79 910.95,263.21 911.17,242.07 911.38,135.76 911.60,183.59 911.82,246.52 912.04,208.41 912.26,265.88 912.47,260.47 912.69,155.23 912.91,254.34 913.13,165.73 913.34,251.50 913.56,171.47 913.78,164.11 914.00,249.79 914.22,239.83 914.43,275.34 914.65,224.67 914.87,295.16 915.09,309.54 915.30,243.62 915.52,305.55 915.74,213.27 915.96,208.17 916.18,298.11 916.39,268.66 916.61,179.52 916.83,255.12 917.05,182.12 917.26,184.04 917.48,246.83 917.70,196.37 917.92,256.17 918.13,274.80 918.35,179.02 918.57,199.57 918.79,257.11 919.01,216.58 919.22,276.63 919.44,183.14 919.66,291.56 919.88,229.69 920.09,297.76 920.31,295.58 920.53,197.13 920.75,196.94 920.97,281.33 921.18,176.44 921.40,271.27 921.62,275.49 921.84,181.18 922.05,242.59 922.27,310.49 922.49,242.74 922.71,309.77 922.93,323.54 923.14,233.73 923.36,231.24 923.58,306.60 923.80,295.35 924.01,250.86 924.23,285.69 924.45,205.39 924.67,255.91 924.89,181.98 925.10,257.47 925.32,188.84 925.54,273.23 925.76,219.09 925.97,211.32 926.19,287.74 926.41,177.07 926.63,265.45 926.85,212.65 927.06,283.36 927.28,273.22 927.50,201.91 927.72,220.14 927.93,293.66 928.15,243.94 928.37,347.28 928.59,300.95 928.81,235.53 929.02,282.68 929.24,219.01 929.46,270.32 929.68,177.72 929.89,172.61 930.11,248.63 930.33,277.41 930.55,226.29 930.77,235.06 930.98,288.31 931.20,286.10 931.42,195.82 931.64,278.69 931.85,224.37 932.07,236.84 932.29,288.52 932.51,287.61 932.73,197.35 932.94,273.76 933.16,187.38 933.38,196.85 933.60,256.09 933.81,224.29 934.03,271.46 934.25,276.52 934.47,189.70 934.69,248.85 934.90,170.50 935.12,275.93 935.34,212.34 935.56,191.26 935.77,251.67 935.99,256.69 936.21,212.10 936.43,252.55 936.65,185.63 936.86,199.11 937.08,261.25 937.30,273.10 937.52,191.81 937.73,256.13 937.95,163.88 938.17,219.84 938.39,294.49 938.61,255.50 938.82,305.86 939.04,337.41 939.26,257.14 939.48,252.32 939.69,325.53 939.91,321.60 940.13,230.52 940.35,277.46 940.57,193.50 940.78,260.74 941.00,197.41 941.22,259.03 941.44,187.38 941.65,213.46 941.87,266.46 942.09,205.13 942.31,277.77 942.53,255.76 942.74,166.94 942.96,209.99 943.18,254.50 943.40,254.13 943.61,174.43 943.83,184.69 944.05,241.24 944.27,207.08 944.48,268.53 944.70,271.58 944.92,163.76 945.14,220.46 945.36,281.40 945.57,292.09 945.79,199.03 946.01,179.56 946.23,271.70 946.44,301.20 946.66,262.55 946.88,307.59 947.10,229.12 947.32,320.33 947.53,245.50 947.75,305.72 947.97,246.00 948.19,301.44 948.40,236.67 948.62,288.72 948.84,166.99 949.06,280.05 949.28,209.31 949.49,270.94 949.71,225.13 949.93,266.91 950.15,184.23 950.36,265.71 950.58,165.33 950.80,156.51 951.02,254.22 951.24,263.90 951.45,207.45 951.67,151.25 951.89,231.32 952.11,201.09 952.32,278.95 952.54,280.90 952.76,182.14 952.98,194.89 953.20,267.49 953.41,273.88 953.63,217.56 953.85,263.49 954.07,178.68 954.28,196.92 954.50,281.92 954.72,271.36 954.94,357.73 955.16,245.45 955.37,312.36 955.59,233.55 955.81,281.43 956.03,279.46 956.24,197.62 956.46,237.25 956.68,188.90 956.90,206.64 957.12,269.58 957.33,264.92 957.55,171.41 957.77,220.14 957.99,261.34 958.20,273.38 958.42,215.60 958.64,185.14 958.86,246.15 959.08,254.00 959.29,225.68 959.51,253.74 959.73,195.03 959.95,179.80 960.16,248.50 960.38,273.82 960.60,200.65 960.82,254.30 961.04,158.21 961.25,249.34 961.47,153.52 961.69,234.98 961.91,186.32 962.12,156.62 962.34,232.30 962.56,272.76 962.78,213.71 963.00,258.51 963.21,148.30 963.43,156.73 963.65,219.11 963.87,239.97 964.08,194.74 964.30,236.59 964.52,160.22 964.74,211.32 964.96,141.27 965.17,142.37 965.39,224.53 965.61,181.66 965.83,243.80 966.04,232.02 966.26,181.29 966.48,229.45 966.70,160.50 966.92,146.78 967.13,209.70 967.35,249.64 967.57,196.86 967.79,216.50 968.00,146.42 968.22,151.38 968.44,201.30 968.66,210.85 968.88,136.92 969.09,178.20 969.31,111.30 969.53,135.85 969.75,197.85 969.96,215.17 970.18,153.73 970.40,171.87 970.62,212.04 970.84,213.51 971.05,142.53 971.27,172.39 971.49,236.97 971.71,200.43 971.92,238.50 972.14,168.78 972.36,226.15 972.58,240.80 972.79,147.28 973.01,230.82 973.23,178.29 973.45,161.77 973.67,231.58 973.88,180.31 974.10,230.66 974.32,232.57 974.54,173.28 974.75,159.12 974.97,231.53 975.19,231.65 975.41,184.55 975.63,234.10 975.84,156.59 976.06,185.01 976.28,239.90 976.50,246.08 976.71,193.70 976.93,224.96 977.15,163.44 977.37,193.79 977.59,230.22 977.80,241.62 978.02,168.89 978.24,160.27 978.46,248.10 978.67,277.43 978.89,206.93 979.11,264.76 979.33,188.28 979.55,263.02 979.76,199.98 979.98,179.89 980.20,255.49 980.42,174.47 980.63,240.92 980.85,191.40 981.07,243.11 981.29,246.62 981.51,164.66 981.72,166.61 981.94,244.61 982.16,189.17 982.38,250.30 982.59,244.47 982.81,164.37 983.03,187.28 983.25,252.22 983.47,252.43 983.68,176.73 983.90,161.89 984.12,230.28 984.34,215.31 984.55,257.64 984.77,265.09 984.99,175.47 985.21,178.24 985.43,256.91 985.64,268.67 985.86,186.25 986.08,235.40 986.30,166.23 986.51,207.43 986.73,269.48 986.95,294.55 987.17,227.27 987.39,211.69 987.60,271.04 987.82,221.78 988.04,294.19 988.26,279.76 988.47,213.50 988.69,282.64 988.91,147.41 989.13,172.74 989.35,234.58 989.56,243.43 989.78,181.24 990.00,231.49 990.22,159.74 990.43,170.83 990.65,248.53 990.87,179.04 991.09,239.27 991.31,144.85 991.52,237.53 991.74,257.78 991.96,169.73 992.18,175.92 992.39,222.86 992.61,200.38 992.83,241.83 993.05,234.71 993.27,166.16 993.48,197.97 993.70,250.81 993.92,251.16 994.14,186.59 994.35,254.08 994.57,174.95 994.79,262.05 995.01,152.12 995.23,235.93 995.44,165.51 995.66,209.88 995.88,155.29 996.10,183.06 996.31,238.69 996.53,166.72 996.75,244.49 996.97,157.02 997.19,240.80 997.40,234.41 997.62,149.34 997.84,151.99 998.06,222.41 998.27,244.22 998.49,185.90 998.71,216.20 998.93,151.58 999.14,232.07 999.36,183.68 999.58,242.96 999.80,159.70 1000.02,149.16 1000.23,227.57 1000.45,195.47 1000.67,237.27 1000.89,229.50 1001.10,165.69 1001.32,172.91 1001.54,256.65 1001.76,183.99 1001.98,255.65 1002.19,246.16 1002.41,158.24 1002.63,210.20 1002.85,264.02 1003.06,266.60 1003.28,209.33 1003.50,213.89 1003.72,284.69 1003.94,198.54 1004.15,283.72 1004.37,262.86 1004.59,190.01 1004.81,249.53 1005.02,144.37 1005.24,168.90 1005.46,242.34 1005.68,161.17 1005.90,233.16 1006.11,251.06 1006.33,169.16 1006.55,241.69 1006.77,161.75 1006.98,160.25 1007.20,258.94 1007.42,255.73 1007.64,202.97 1007.86,248.90 1008.07,157.67 1008.29,193.44 1008.51,238.94 1008.73,256.51 1008.94,185.51 1009.16,176.74 1009.38,231.92 1009.60,256.57 1009.82,169.02 1010.03,244.24 1010.25,173.09 1010.47,175.96 1010.69,260.29 1010.90,216.49 1011.12,271.95 1011.34,283.97 1011.56,225.73 1011.78,292.01 1011.99,202.53 1012.21,275.89 1012.43,221.78 1012.65,193.69 1012.86,288.59 1013.08,242.95 1013.30,162.28 1013.52,247.26 1013.74,170.30 1013.95,242.31 1014.17,177.61 1014.39,179.03 1014.61,232.58 1014.82,243.98 1015.04,184.40 1015.26,202.72 1015.48,249.32 1015.70,261.31 1015.91,179.32 1016.13,184.72 1016.35,234.32 1016.57,264.18 1016.78,188.79 1017.00,248.39 1017.22,177.41 1017.44,192.12 1017.66,258.84 1017.87,262.42 1018.09,195.73 1018.31,240.65 1018.53,179.63 1018.74,186.17 1018.96,264.15 1019.18,289.83 1019.40,227.20 1019.62,215.82 1019.83,291.84 1020.05,157.65 1020.27,288.90 1020.49,202.72 1020.70,272.75 1020.92,268.37 1021.14,182.65 1021.36,245.37 1021.58,114.46 1021.79,113.79 1022.01,235.56 1022.23,200.16 1022.45,259.03 1022.66,266.76 1022.88,177.54 1023.10,177.48 1023.32,229.01 1023.54,251.83 1023.75,191.73 1023.97,242.19 1024.19,186.55 1024.41,209.41 1024.62,252.32 1024.84,251.01 1025.06,183.33 1025.28,254.50 1025.49,174.31 1025.71,207.03 1025.93,255.74 1026.15,256.57 1026.37,169.53 1026.58,196.84 1026.80,255.51 1027.02,221.66 1027.24,279.37 1027.45,278.80 1027.67,197.41 1027.89,271.75 1028.11,216.11 1028.33,218.07 1028.54,278.56 1028.76,266.70 1028.98,210.02 1029.20,152.14 1029.41,243.36 1029.63,270.13 1029.85,183.56 1030.07,245.11 1030.29,194.08 1030.50,166.38 1030.72,242.05 1030.94,157.26 1031.16,240.51 1031.37,203.27 1031.59,245.14 1031.81,260.06 1032.03,187.33 1032.25,188.33 1032.46,242.75 1032.68,260.62 1032.90,168.54 1033.12,241.22 1033.33,181.33 1033.55,196.31 1033.77,252.81 1033.99,195.69 1034.21,267.78 1034.42,211.57 1034.64,303.21 1034.86,300.80 1035.08,257.15 1035.29,303.79 1035.51,247.37 1035.73,235.61 1035.95,304.12 1036.17,294.71 1036.38,218.69 1036.60,293.39 1036.82,187.88 1037.04,259.26 1037.25,179.59 1037.47,271.36 1037.69,191.42 1037.91,262.90 1038.13,189.58 1038.34,203.81 1038.56,261.01 1038.78,260.97 1039.00,194.19 1039.21,239.78 1039.43,157.09 1039.65,161.84 1039.87,260.97 1040.09,250.66 1040.30,170.20 1040.52,200.22 1040.74,259.48 1040.96,280.05 1041.17,215.08 1041.39,158.60 1041.61,240.11 1041.83,190.02 1042.05,267.43 1042.26,265.89 1042.48,183.28 1042.70,185.31 1042.92,262.77 1043.13,234.84 1043.35,289.78 1043.57,280.85 1043.79,210.23 1044.01,272.77 1044.22,165.61 1044.44,279.73 1044.66,212.73 1044.88,297.74 1045.09,179.60 1045.31,176.80 1045.53,276.87 1045.75,282.00 1045.97,173.95 1046.18,240.26 1046.40,176.14 1046.62,278.28 1046.84,204.49 1047.05,263.05 1047.27,180.49 1047.49,183.46 1047.71,260.72 1047.93,287.74 1048.14,208.75 1048.36,187.08 1048.58,242.55 1048.80,193.01 1049.01,258.49 1049.23,257.16 1049.45,153.75 1049.67,201.70 1049.89,254.76 1050.10,266.45 1050.32,172.94 1050.54,174.75 1050.76,247.59 1050.97,214.79 1051.19,283.12 1051.41,288.72 1051.63,205.15 1051.85,219.27 1052.06,269.25 1052.28,275.26 1052.50,222.34 1052.72,268.74 1052.93,208.63 1053.15,179.89 1053.37,247.27 1053.59,263.49 1053.80,184.95 1054.02,180.54 1054.24,255.29 1054.46,220.11 1054.68,260.64 1054.89,270.03 1055.11,182.91 1055.33,180.60 1055.55,250.97 1055.76,185.47 1055.98,272.26 1056.20,250.55 1056.42,188.36 1056.64,256.85 1056.85,182.15 1057.07,264.90 1057.29,206.62 1057.51,256.93 1057.72,183.82 1057.94,262.58 1058.16,201.41 1058.38,260.09 1058.60,204.71 1058.81,204.86 1059.03,289.89 1059.25,253.03 1059.47,299.56 1059.68,288.92 1059.90,221.33 1060.12,316.34 1060.34,258.39 1060.56,204.20 1060.77,304.82 1060.99,288.57 1061.21,187.09 1061.43,174.76 1061.64,267.58 1061.86,276.99 1062.08,172.07 1062.30,214.62 1062.52,290.01 1062.73,212.11 1062.95,266.90 1063.17,216.80 1063.39,257.72 1063.60,286.46 1063.82,216.84 1064.04,286.23 1064.26,197.90 1064.48,162.71 1064.69,250.88 1064.91,262.54 1065.13,196.67 1065.35,279.30 1065.56,208.88 1065.78,229.63 1066.00,272.48" fill="none" stroke="#a53d3d" stroke-width="1.25" stroke-linejoin="round" stroke-linecap="round"/>
<text transform="translate(18,215.0) rotate(-90)" text-anchor="middle" font-family="Arial, sans-serif" font-size="13" fill="#222222">log_rv_future_12</text>
<line x1="88.00" y1="372.00" x2="88.00" y2="377.00" stroke="#222222" stroke-width="1"/>
<text x="88.00" y="394.00" text-anchor="middle" font-family="Arial, sans-serif" font-size="11" fill="#333333">2024-01-02</text>
<line x1="577.11" y1="372.00" x2="577.11" y2="377.00" stroke="#222222" stroke-width="1"/>
<text x="577.11" y="394.00" text-anchor="middle" font-family="Arial, sans-serif" font-size="11" fill="#333333">2025-03-02</text>
<line x1="1066.00" y1="372.00" x2="1066.00" y2="377.00" stroke="#222222" stroke-width="1"/>
<text x="1066.00" y="394.00" text-anchor="middle" font-family="Arial, sans-serif" font-size="11" fill="#333333">2026-04-30</text>
<text x="577.00" y="415.00" text-anchor="middle" font-family="Arial, sans-serif" font-size="13" fill="#222222">Tiempo</text>
</svg>