<svg xmlns="http://www.w3.org/2000/svg" width="900" height="420" viewBox="0 0 900 420">
<rect x="0" y="0" width="900" height="420" fill="#ffffff"/>
<text x="450.0" y="28" text-anchor="middle" font-family="Arial, sans-serif" font-size="18" font-weight="700">Resumen original vs barajada</text>
<rect x="76" y="58" width="796.00" height="270.00" fill="none" stroke="#222222" stroke-width="1"/>
<line x1="76" y1="328.00" x2="872.00" y2="328.00" stroke="#e8e8e8" stroke-width="1"/>
<text x="68" y="332.00" text-anchor="end" font-family="Arial, sans-serif" font-size="11">-0.402</text>
<line x1="76" y1="260.50" x2="872.00" y2="260.50" stroke="#e8e8e8" stroke-width="1"/>
<text x="68" y="264.50" text-anchor="end" font-family="Arial, sans-serif" font-size="11">0.803</text>
<line x1="76" y1="193.00" x2="872.00" y2="193.00" stroke="#e8e8e8" stroke-width="1"/>
<text x="68" y="197.00" text-anchor="end" font-family="Arial, sans-serif" font-size="11">2.01</text>
<line x1="76" y1="125.50" x2="872.00" y2="125.50" stroke="#e8e8e8" stroke-width="1"/>
<text x="68" y="129.50" text-anchor="end" font-family="Arial, sans-serif" font-size="11">3.21</text>
<line x1="76" y1="58.00" x2="872.00" y2="58.00" stroke="#e8e8e8" stroke-width="1"/>
<text x="68" y="62.00" text-anchor="end" font-family="Arial, sans-serif" font-size="11">4.42</text>
<rect x="101.21" y="90.88" width="82.25" height="214.62" fill="#5f6b7a" opacity="0.86"/>
<text x="142.33" y="362" text-anchor="end" transform="rotate(-35 142.33,362)" font-family="Arial, sans-serif" font-size="10">D2 orig</text>
<rect x="233.87" y="80.50" width="82.25" height="225.00" fill="#b45f06" opacity="0.86"/>
<text x="275.00" y="362" text-anchor="end" transform="rotate(-35 275.00,362)" font-family="Arial, sans-serif" font-size="10">D2 bar</text>
<rect x="366.54" y="291.21" width="82.25" height="14.29" fill="#5f6b7a" opacity="0.86"/>
<text x="407.67" y="362" text-anchor="end" transform="rotate(-35 407.67,362)" font-family="Arial, sans-serif" font-size="10">Lyap/h orig</text>
<rect x="499.21" y="305.39" width="82.25" height="1.00" fill="#b45f06" opacity="0.86"/>
<text x="540.33" y="362" text-anchor="end" transform="rotate(-35 540.33,362)" font-family="Arial, sans-serif" font-size="10">Lyap/h bar</text>
<rect x="631.87" y="255.36" width="82.25" height="50.14" fill="#5f6b7a" opacity="0.86"/>
<text x="673.00" y="362" text-anchor="end" transform="rotate(-35 673.00,362)" font-family="Arial, sans-serif" font-size="10">PE d1 orig</text>
<rect x="764.54" y="249.49" width="82.25" height="56.01" fill="#b45f06" opacity="0.86"/>
<text x="805.67" y="362" text-anchor="end" transform="rotate(-35 805.67,362)" font-family="Arial, sans-serif" font-size="10">PE d1 bar</text>
</svg>