<svg xmlns="http://www.w3.org/2000/svg" width="1100" height="430" viewBox="0 0 1100 430">
<rect x="0" y="0" width="1100" height="430" fill="#ffffff"/>
<text x="550.0" y="26" text-anchor="middle" font-family="Arial, sans-serif" font-size="18" font-weight="700">Log precio BTCUSDT</text>
<line x1="88" y1="372.00" x2="1066.00" y2="372.00" stroke="#e6e6e6" stroke-width="1"/>
<text x="80" y="376.00" text-anchor="end" font-family="Arial, sans-serif" font-size="11" fill="#333333">10.50</text>
<line x1="88" y1="293.50" x2="1066.00" y2="293.50" stroke="#e6e6e6" stroke-width="1"/>
<text x="80" y="297.50" text-anchor="end" font-family="Arial, sans-serif" font-size="11" fill="#333333">10.83</text>
<line x1="88" y1="215.00" x2="1066.00" y2="215.00" stroke="#e6e6e6" stroke-width="1"/>
<text x="80" y="219.00" text-anchor="end" font-family="Arial, sans-serif" font-size="11" fill="#333333">11.15</text>
<line x1="88" y1="136.50" x2="1066.00" y2="136.50" stroke="#e6e6e6" stroke-width="1"/>
<text x="80" y="140.50" text-anchor="end" font-family="Arial, sans-serif" font-size="11" fill="#333333">11.48</text>
<line x1="88" y1="58.00" x2="1066.00" y2="58.00" stroke="#e6e6e6" stroke-width="1"/>
<text x="80" y="62.00" text-anchor="end" font-family="Arial, sans-serif" font-size="11" fill="#333333">11.80</text>
<rect x="88" y="58.00" width="978.00" height="314.00" fill="none" stroke="#222222" stroke-width="1"/>
<polyline points="88.00,324.60 88.22,316.19 88.44,316.21 88.65,321.49 88.87,322.33 89.09,318.74 89.31,318.01 89.52,343.74 89.74,336.69 89.96,329.00 90.18,333.73 90.40,330.15 90.61,332.93 90.83,325.21 91.05,327.00 91.27,322.36 91.48,324.86 91.70,330.62 91.92,325.08 92.14,330.86 92.36,328.43 92.57,324.91 92.79,326.29 93.01,329.06 93.23,328.41 93.44,325.41 93.66,327.41 93.88,324.76 94.10,326.64 94.32,323.62 94.53,324.61 94.75,328.14 94.97,330.04 95.19,325.25 95.40,326.21 95.62,309.59 95.84,309.22 96.06,313.58 96.28,310.61 96.49,314.46 96.71,305.47 96.93,318.28 97.15,314.00 97.36,317.23 97.58,316.13 97.80,322.40 98.02,319.13 98.24,306.92 98.45,316.82 98.67,310.86 98.89,300.66 99.11,316.25 99.32,310.38 99.54,315.92 99.76,313.56 99.98,317.31 100.20,315.94 100.41,337.82 100.63,334.67 100.85,330.17 101.07,334.14 101.28,330.22 101.50,331.51 101.72,333.45 101.94,333.98 102.15,331.30 102.37,331.61 102.59,334.58 102.81,338.81 103.03,332.77 103.24,332.12 103.46,336.13 103.68,336.10 103.90,329.63 104.11,334.47 104.33,331.51 104.55,336.72 104.77,329.88 104.99,332.30 105.20,328.87 105.42,331.74 105.64,334.01 105.86,332.14 106.07,335.68 106.29,334.39 106.51,332.31 106.73,332.06 106.95,335.12 107.16,333.48 107.38,344.51 107.60,344.28 107.82,340.03 108.03,347.02 108.25,338.05 108.47,336.34 108.69,340.26 108.91,338.65 109.12,340.33 109.34,340.16 109.56,338.09 109.78,338.35 109.99,339.72 110.21,339.55 110.43,338.05 110.65,338.50 110.87,341.15 111.08,340.59 111.30,346.72 111.52,342.12 111.74,350.21 111.95,347.23 112.17,351.95 112.39,348.20 112.61,357.01 112.83,357.73 113.04,351.57 113.26,352.26 113.48,347.79 113.70,346.10 113.91,350.11 114.13,347.91 114.35,351.80 114.57,350.14 114.79,348.15 115.00,347.38 115.22,351.50 115.44,350.83 115.66,347.84 115.87,349.51 116.09,340.35 116.31,341.99 116.53,336.07 116.75,337.74 116.96,339.82 117.18,340.33 117.40,337.87 117.62,338.71 117.83,336.18 118.05,336.68 118.27,332.72 118.49,334.28 118.71,338.97 118.92,339.02 119.14,334.57 119.36,335.15 119.58,338.15 119.79,337.44 120.01,329.90 120.23,330.69 120.45,327.57 120.67,327.27 120.88,330.60 121.10,327.59 121.32,333.11 121.54,331.31 121.75,335.07 121.97,327.62 122.19,335.54 122.41,333.45 122.63,337.72 122.84,337.40 123.06,332.13 123.28,334.72 123.50,329.31 123.71,330.08 123.93,331.87 124.15,333.68 124.37,329.28 124.59,331.91 124.80,329.60 125.02,330.44 125.24,331.67 125.46,332.00 125.67,330.13 125.89,331.16 126.11,333.02 126.33,333.02 126.55,330.99 126.76,331.84 126.98,335.63 127.20,335.01 127.42,330.39 127.63,328.89 127.85,334.06 128.07,335.16 128.29,331.90 128.51,331.14 128.72,333.44 128.94,332.40 129.16,329.59 129.38,330.36 129.59,332.72 129.81,332.24 130.03,330.05 130.25,330.09 130.46,322.28 130.68,323.58 130.90,321.25 131.12,322.48 131.34,317.94 131.55,319.28 131.77,313.82 131.99,314.91 132.21,306.92 132.42,310.91 132.64,304.43 132.86,309.89 133.08,307.74 133.30,310.73 133.51,308.33 133.73,309.24 133.95,304.69 134.17,306.41 134.38,302.47 134.60,302.82 134.82,305.18 135.04,305.08 135.26,301.52 135.47,306.21 135.69,300.23 135.91,301.37 136.13,293.95 136.34,294.25 136.56,296.48 136.78,294.23 137.00,302.69 137.22,300.15 137.43,296.46 137.65,298.52 137.87,286.85 138.09,286.11 138.30,289.40 138.52,287.62 138.74,283.83 138.96,287.36 139.18,282.24 139.39,284.17 139.61,288.90 139.83,284.28 140.05,287.38 140.26,283.61 140.48,287.41 140.70,287.20 140.92,284.93 141.14,285.66 141.35,287.80 141.57,292.00 141.79,285.71 142.01,286.51 142.22,289.40 142.44,285.73 142.66,287.83 142.88,287.63 143.10,284.14 143.31,285.93 143.53,283.55 143.75,283.72 143.97,286.80 144.18,285.41 144.40,288.97 144.62,287.63 144.84,281.62 145.06,281.89 145.27,291.32 145.49,283.77 145.71,287.78 145.93,286.84 146.14,291.06 146.36,291.48 146.58,286.32 146.80,288.66 147.02,285.62 147.23,290.65 147.45,287.01 147.67,285.78 147.89,290.43 148.10,288.99 148.32,291.00 148.54,289.57 148.76,292.08 148.98,292.39 149.19,290.04 149.41,290.53 149.63,287.49 149.85,288.39 150.06,286.54 150.28,288.10 150.50,286.70 150.72,288.75 150.94,286.10 151.15,286.41 151.37,288.42 151.59,290.74 151.81,286.10 152.02,284.92 152.24,272.71 152.46,274.59 152.68,265.45 152.90,261.99 153.11,266.53 153.33,261.49 153.55,265.08 153.77,263.97 153.98,253.47 154.20,253.85 154.42,236.85 154.64,249.46 154.86,237.78 155.07,242.43 155.29,237.94 155.51,240.36 155.73,248.95 155.94,248.08 156.16,242.72 156.38,241.19 156.60,246.52 156.81,240.01 157.03,243.53 157.25,242.35 157.47,244.39 157.69,244.76 157.90,242.89 158.12,242.98 158.34,244.93 158.56,245.64 158.77,241.13 158.99,235.12 159.21,241.76 159.43,238.57 159.65,230.12 159.86,232.52 160.08,223.21 160.30,225.11 160.52,218.74 160.73,229.96 160.95,221.35 161.17,218.48 161.39,245.90 161.61,240.26 161.82,225.04 162.04,222.65 162.26,230.24 162.48,223.22 162.69,229.60 162.91,229.35 163.13,224.17 163.35,225.93 163.57,221.57 163.78,221.63 164.00,225.35 164.22,225.28 164.44,219.70 164.65,215.75 164.87,226.76 165.09,221.37 165.31,219.22 165.53,219.37 165.74,220.94 165.96,220.51 166.18,217.14 166.40,218.53 166.61,214.52 166.83,214.77 167.05,217.92 167.27,216.40 167.49,221.86 167.70,219.10 167.92,205.72 168.14,207.38 168.36,204.98 168.57,205.77 168.79,209.06 169.01,205.48 169.23,216.65 169.45,211.55 169.66,206.93 169.88,207.39 170.10,201.94 170.32,207.16 170.53,202.61 170.75,205.16 170.97,202.05 171.19,201.87 171.41,211.91 171.62,217.92 171.84,205.92 172.06,207.24 172.28,227.71 172.49,225.17 172.71,212.41 172.93,213.91 173.15,222.41 173.37,216.01 173.58,221.47 173.80,219.55 174.02,228.34 174.24,226.05 174.45,232.27 174.67,230.74 174.89,219.79 175.11,217.98 175.33,225.09 175.54,223.04 175.76,217.86 175.98,218.95 176.20,225.67 176.41,220.64 176.63,231.92 176.85,230.03 177.07,241.24 177.29,229.93 177.50,242.91 177.72,238.02 177.94,247.39 178.16,241.00 178.37,233.77 178.59,235.82 178.81,220.87 179.03,221.61 179.25,227.51 179.46,222.52 179.68,233.09 179.90,231.83 180.12,227.20 180.33,226.02 180.55,239.79 180.77,235.34 180.99,241.71 181.21,238.92 181.42,232.64 181.64,234.92 181.86,228.41 182.08,229.58 182.29,235.71 182.51,236.40 182.73,230.14 182.95,232.80 183.16,226.70 183.38,227.45 183.60,222.26 183.82,225.48 184.04,215.41 184.25,215.92 184.47,210.77 184.69,214.43 184.91,209.00 185.12,209.96 185.34,215.81 185.56,215.87 185.78,211.74 186.00,212.18 186.21,215.79 186.43,208.42 186.65,219.37 186.87,217.74 187.08,212.81 187.30,213.13 187.52,208.82 187.74,212.49 187.96,210.46 188.17,210.98 188.39,215.38 188.61,212.26 188.83,216.92 189.04,216.25 189.26,213.76 189.48,213.22 189.70,214.57 189.92,213.24 190.13,215.19 190.35,215.64 190.57,212.54 190.79,213.35 191.00,211.66 191.22,212.49 191.44,209.56 191.66,211.05 191.88,216.95 192.09,213.99 192.31,220.21 192.53,214.61 192.75,226.87 192.96,224.36 193.18,233.28 193.40,227.61 193.62,232.71 193.84,232.71 194.05,226.63 194.27,229.79 194.49,225.48 194.71,229.88 194.92,227.06 195.14,231.42 195.36,226.63 195.58,226.97 195.80,217.31 196.01,218.91 196.23,226.28 196.45,227.90 196.67,219.35 196.88,219.81 197.10,223.15 197.32,222.87 197.54,220.55 197.76,222.55 197.97,219.59 198.19,220.40 198.41,215.18 198.63,217.20 198.84,215.67 199.06,213.20 199.28,217.64 199.50,217.74 199.72,214.72 199.93,215.23 200.15,204.87 200.37,209.50 200.59,207.05 200.80,208.65 201.02,214.74 201.24,210.87 201.46,219.65 201.68,215.79 201.89,219.29 202.11,215.87 202.33,222.41 202.55,222.52 202.76,213.77 202.98,210.33 203.20,212.88 203.42,209.80 203.64,215.44 203.85,215.47 204.07,211.57 204.29,213.45 204.51,210.05 204.72,210.87 204.94,228.02 205.16,228.67 205.38,223.25 205.60,221.55 205.81,224.20 206.03,221.47 206.25,245.38 206.47,230.98 206.68,242.62 206.90,232.50 207.12,236.97 207.34,240.43 207.56,229.11 207.77,232.71 207.99,225.63 208.21,225.86 208.43,240.70 208.64,236.32 208.86,243.10 209.08,237.10 209.30,243.87 209.52,244.39 209.73,234.37 209.95,234.08 210.17,238.34 210.39,237.25 210.60,251.00 210.82,248.74 211.04,243.67 211.26,247.65 211.47,239.73 211.69,244.27 211.91,235.28 212.13,236.80 212.35,252.54 212.56,243.91 212.78,230.51 213.00,233.02 213.22,238.63 213.43,238.23 213.65,234.74 213.87,237.93 214.09,230.63 214.31,233.43 214.52,229.69 214.74,230.08 214.96,232.66 215.18,231.21 215.39,234.40 215.61,233.21 215.83,226.88 216.05,229.27 216.27,226.60 216.48,228.52 216.70,223.93 216.92,224.07 217.14,228.29 217.35,228.68 217.57,224.48 217.79,227.99 218.01,225.07 218.23,224.42 218.44,227.35 218.66,227.65 218.88,236.54 219.10,236.13 219.31,233.00 219.53,234.38 219.75,239.51 219.97,231.49 220.19,235.74 220.40,235.46 220.62,233.38 220.84,232.96 221.06,237.99 221.27,235.45 221.49,241.06 221.71,240.59 221.93,238.65 222.15,240.43 222.36,237.38 222.58,238.54 222.80,234.52 223.02,235.90 223.23,237.77 223.45,235.89 223.67,239.96 223.89,238.42 224.11,243.28 224.32,243.88 224.54,238.77 224.76,239.97 224.98,233.41 225.19,237.76 225.41,248.95 225.63,245.68 225.85,254.10 226.07,247.60 226.28,263.73 226.50,258.51 226.72,264.57 226.94,253.48 227.15,263.81 227.37,262.59 227.59,257.18 227.81,258.01 228.03,253.09 228.24,256.41 228.46,251.32 228.68,255.67 228.90,244.10 229.11,245.75 229.33,238.89 229.55,237.32 229.77,240.85 229.99,239.25 230.20,234.10 230.42,235.15 230.64,239.40 230.86,239.33 231.07,235.99 231.29,233.68 231.51,236.99 231.73,236.88 231.95,234.11 232.16,230.31 232.38,239.42 232.60,236.83 232.82,239.60 233.03,239.62 233.25,234.46 233.47,235.05 233.69,240.05 233.91,238.61 234.12,242.23 234.34,239.67 234.56,242.94 234.78,240.50 234.99,245.61 235.21,247.52 235.43,244.23 235.65,248.29 235.87,241.59 236.08,243.99 236.30,238.11 236.52,240.65 236.74,238.21 236.95,237.82 237.17,249.92 237.39,249.33 237.61,247.00 237.82,247.15 238.04,249.01 238.26,248.06 238.48,245.77 238.70,246.86 238.91,248.48 239.13,247.97 239.35,244.29 239.57,247.00 239.78,244.43 240.00,248.09 240.22,239.02 240.44,241.26 240.66,238.05 240.87,238.90 241.09,241.74 241.31,240.45 241.53,246.55 241.74,243.13 241.96,246.41 242.18,245.68 242.40,242.55 242.62,243.45 242.83,231.65 243.05,232.01 243.27,226.21 243.49,229.40 243.70,226.93 243.92,226.42 244.14,233.20 244.36,231.41 244.58,228.93 244.79,229.76 245.01,225.32 245.23,223.22 245.45,227.08 245.66,225.57 245.88,223.77 246.10,223.26 246.32,225.77 246.54,225.45 246.75,223.77 246.97,222.50 247.19,224.99 247.41,224.11 247.62,228.25 247.84,228.01 248.06,223.92 248.28,226.76 248.50,223.32 248.71,223.46 248.93,208.19 249.15,211.39 249.37,209.46 249.58,209.16 249.80,215.46 250.02,216.54 250.24,212.93 250.46,216.43 250.67,213.25 250.89,211.79 251.11,217.23 251.33,217.41 251.54,215.42 251.76,213.93 251.98,222.12 252.20,225.84 252.42,220.06 252.63,221.00 252.85,225.71 253.07,224.79 253.29,216.89 253.50,216.95 253.72,219.18 253.94,218.84 254.16,215.64 254.38,217.87 254.59,216.72 254.81,217.95 255.03,216.14 255.25,215.91 255.46,218.43 255.68,219.94 255.90,216.73 256.12,216.65 256.34,219.76 256.55,220.00 256.77,211.87 256.99,214.74 257.21,222.83 257.42,222.36 257.64,218.22 257.86,223.57 258.08,218.88 258.30,217.83 258.51,222.30 258.73,220.36 258.95,223.92 259.17,224.00 259.38,220.56 259.60,219.68 259.82,223.91 260.04,221.70 260.26,215.90 260.47,220.07 260.69,218.68 260.91,217.95 261.13,223.35 261.34,225.63 261.56,221.31 261.78,222.95 262.00,221.89 262.22,222.38 262.43,221.53 262.65,221.45 262.87,222.22 263.09,223.14 263.30,220.16 263.52,219.54 263.74,222.79 263.96,222.36 264.18,216.94 264.39,213.18 264.61,218.32 264.83,215.39 265.05,218.63 265.26,216.37 265.48,218.79 265.70,218.49 265.92,210.51 266.13,213.58 266.35,210.18 266.57,209.47 266.79,211.55 267.01,212.54 267.22,208.37 267.44,209.71 267.66,211.22 267.88,211.06 268.09,208.62 268.31,210.03 268.53,212.89 268.75,211.70 268.97,209.13 269.18,207.41 269.40,218.76 269.62,217.36 269.84,215.72 270.05,215.51 270.27,216.74 270.49,215.83 270.71,216.48 270.93,216.94 271.14,216.09 271.36,216.45 271.58,214.98 271.80,214.58 272.01,215.99 272.23,214.82 272.45,216.51 272.67,216.56 272.89,213.50 273.10,215.15 273.32,221.71 273.54,221.14 273.76,225.41 273.97,227.80 274.19,222.65 274.41,224.77 274.63,222.44 274.85,223.29 275.06,214.15 275.28,214.65 275.50,223.16 275.72,224.60 275.93,221.32 276.15,220.16 276.37,226.67 276.59,226.42 276.81,224.24 277.02,223.33 277.24,225.72 277.46,224.76 277.68,231.65 277.89,228.01 278.11,226.90 278.33,227.86 278.55,226.65 278.77,228.55 278.98,227.21 279.20,228.02 279.42,225.65 279.64,225.46 279.85,226.57 280.07,224.81 280.29,227.60 280.51,227.01 280.73,231.20 280.94,231.10 281.16,223.74 281.38,228.74 281.60,233.37 281.81,229.87 282.03,234.26 282.25,235.13 282.47,229.66 282.69,229.60 282.90,231.77 283.12,231.28 283.34,233.00 283.56,232.55 283.77,228.51 283.99,226.69 284.21,233.44 284.43,231.22 284.65,233.20 284.86,231.69 285.08,237.22 285.30,237.82 285.52,234.50 285.73,233.99 285.95,235.97 286.17,233.72 286.39,234.79 286.61,234.31 286.82,234.80 287.04,234.70 287.26,233.72 287.48,234.03 287.69,235.95 287.91,234.97 288.13,239.59 288.35,238.48 288.57,247.42 288.78,244.56 289.00,255.59 289.22,254.68 289.44,244.97 289.65,248.56 289.87,243.01 290.09,245.91 290.31,242.46 290.53,242.00 290.74,245.43 290.96,243.70 291.18,247.81 291.40,246.30 291.61,248.13 291.83,248.52 292.05,245.76 292.27,246.64 292.48,241.94 292.70,245.25 292.92,242.59 293.14,244.14 293.36,248.00 293.57,247.01 293.79,250.75 294.01,248.84 294.23,246.77 294.44,247.67 294.66,246.43 294.88,246.92 295.10,248.13 295.32,248.34 295.53,244.40 295.75,245.38 295.97,241.84 296.19,243.69 296.40,236.50 296.62,237.83 296.84,241.02 297.06,236.26 297.28,240.13 297.49,238.52 297.71,241.49 297.93,239.60 298.15,244.03 298.36,242.22 298.58,247.99 298.80,246.57 299.02,251.87 299.24,248.79 299.45,253.22 299.67,249.38 299.89,257.85 300.11,257.18 300.32,264.38 300.54,256.74 300.76,264.51 300.98,262.50 301.20,277.65 301.41,272.92 301.63,264.25 301.85,264.12 302.07,267.63 302.28,266.95 302.50,263.22 302.72,264.74 302.94,258.51 303.16,257.74 303.37,263.19 303.59,259.89 303.81,265.02 304.03,262.12 304.24,274.78 304.46,272.44 304.68,259.80 304.90,262.02 305.12,270.75 305.33,267.00 305.55,262.19 305.77,263.12 305.99,260.04 306.20,263.36 306.42,258.89 306.64,261.82 306.86,253.88 307.08,256.30 307.29,261.34 307.51,262.70 307.73,258.07 307.95,262.59 308.16,255.93 308.38,254.24 308.60,262.69 308.82,261.21 309.04,265.27 309.25,264.20 309.47,259.60 309.69,257.40 309.91,262.96 310.12,260.36 310.34,258.14 310.56,258.08 310.78,255.64 311.00,257.73 311.21,251.95 311.43,253.69 311.65,249.94 311.87,253.20 312.08,246.97 312.30,248.51 312.52,239.61 312.74,242.03 312.96,238.60 313.17,239.47 313.39,232.18 313.61,232.26 313.83,241.22 314.04,238.78 314.26,231.38 314.48,234.92 314.70,227.93 314.92,228.50 315.13,233.14 315.35,230.63 315.57,235.86 315.79,235.99 316.00,231.81 316.22,231.61 316.44,237.81 316.66,238.46 316.88,235.25 317.09,233.94 317.31,237.88 317.53,235.86 317.75,223.62 317.96,223.39 318.18,227.18 318.40,225.63 318.62,226.74 318.84,226.22 319.05,222.70 319.27,223.23 319.49,225.83 319.71,225.97 319.92,222.57 320.14,228.09 320.36,219.55 320.58,220.35 320.79,224.34 321.01,226.09 321.23,220.23 321.45,220.61 321.67,226.74 321.88,228.15 322.10,223.50 322.32,223.81 322.54,230.04 322.75,230.10 322.97,226.66 323.19,224.60 323.41,228.25 323.63,226.10 323.84,235.56 324.06,236.09 324.28,233.94 324.50,237.42 324.71,230.08 324.93,229.98 325.15,223.35 325.37,225.02 325.59,221.45 325.80,223.52 326.02,220.35 326.24,222.27 326.46,220.12 326.67,220.91 326.89,216.35 327.11,225.26 327.33,217.58 327.55,224.25 327.76,220.81 327.98,222.44 328.20,220.08 328.42,221.20 328.63,214.70 328.85,214.21 329.07,221.95 329.29,221.04 329.51,227.34 329.72,228.28 329.94,224.67 330.16,225.21 330.38,229.69 330.59,230.39 330.81,226.80 331.03,230.01 331.25,225.98 331.47,225.39 331.68,233.55 331.90,231.99 332.12,237.09 332.34,232.35 332.55,240.49 332.77,242.11 332.99,229.95 333.21,232.75 333.43,236.64 333.64,230.32 333.86,241.30 334.08,239.10 334.30,248.08 334.51,245.40 334.73,242.60 334.95,242.74 335.17,251.43 335.39,246.88 335.60,250.49 335.82,247.01 336.04,258.61 336.26,253.28 336.47,278.03 336.69,273.56 336.91,298.43 337.13,296.51 337.35,270.21 337.56,277.30 337.78,266.94 338.00,274.41 338.22,265.60 338.43,268.50 338.65,263.77 338.87,269.26 339.09,261.81 339.31,260.88 339.52,270.61 339.74,273.82 339.96,261.00 340.18,264.61 340.39,261.28 340.61,263.62 340.83,252.14 341.05,252.66 341.27,241.58 341.48,246.44 341.70,252.40 341.92,252.07 342.14,246.56 342.35,250.19 342.57,247.00 342.79,249.51 343.01,246.80 343.23,248.02 343.44,245.94 343.66,245.21 343.88,250.04 344.10,248.80 344.31,257.62 344.53,254.90 344.75,258.79 344.97,259.86 345.19,249.35 345.40,251.50 345.62,257.40 345.84,251.91 346.06,257.23 346.27,257.08 346.49,245.27 346.71,249.50 346.93,246.58 347.14,244.55 347.36,248.98 347.58,250.64 347.80,256.82 348.02,255.27 348.23,260.21 348.45,259.43 348.67,251.94 348.89,253.11 349.10,265.17 349.32,262.02 349.54,256.64 349.76,260.75 349.98,252.02 350.19,253.15 350.41,256.36 350.63,254.96 350.85,253.52 351.06,252.60 351.28,254.38 351.50,250.74 351.72,253.92 351.94,250.43 352.15,253.53 352.37,251.99 352.59,257.98 352.81,256.28 353.02,259.84 353.24,258.68 353.46,254.24 353.68,255.43 353.90,245.99 354.11,246.78 354.33,253.42 354.55,256.46 354.77,252.89 354.98,255.59 355.20,251.90 355.42,255.15 355.64,251.05 355.86,244.12 356.07,251.45 356.29,249.75 356.51,245.82 356.73,246.21 356.94,250.69 357.16,249.99 357.38,247.24 357.60,248.28 357.82,242.99 358.03,245.36 358.25,232.52 358.47,237.06 358.69,234.11 358.90,236.03 359.12,234.17 359.34,237.14 359.56,234.29 359.78,234.97 359.99,236.45 360.21,236.09 360.43,233.92 360.65,232.58 360.86,237.21 361.08,235.79 361.30,238.77 361.52,236.52 361.74,240.54 361.95,238.75 362.17,242.27 362.39,241.28 362.61,245.16 362.82,242.94 363.04,257.78 363.26,256.93 363.48,250.44 363.70,251.97 363.91,259.64 364.13,255.56 364.35,252.35 364.57,253.67 364.78,246.86 365.00,248.90 365.22,255.74 365.44,256.36 365.66,252.59 365.87,252.19 366.09,259.74 366.31,256.06 366.53,253.56 366.74,254.15 366.96,255.98 367.18,254.66 367.40,256.11 367.62,255.14 367.83,260.15 368.05,257.98 368.27,261.42 368.49,256.72 368.70,262.55 368.92,262.05 369.14,256.66 369.36,258.82 369.58,254.90 369.79,255.59 370.01,252.19 370.23,254.06 370.45,261.02 370.66,258.47 370.88,261.63 371.10,259.71 371.32,269.36 371.54,266.31 371.75,257.27 371.97,257.88 372.19,263.30 372.41,262.48 372.62,266.00 372.84,262.56 373.06,268.41 373.28,268.41 373.49,264.37 373.71,264.11 373.93,277.32 374.15,274.87 374.37,282.36 374.58,277.70 374.80,275.00 375.02,273.08 375.24,276.14 375.45,277.43 375.67,274.53 375.89,273.69 376.11,276.28 376.33,278.06 376.54,273.94 376.76,274.30 376.98,270.87 377.20,273.11 377.41,267.26 377.63,267.64 377.85,260.16 378.07,265.74 378.29,262.11 378.50,265.33 378.72,260.04 378.94,259.50 379.16,266.43 379.37,267.21 379.59,263.14 379.81,269.69 380.03,259.56 380.25,262.19 380.46,257.71 380.68,261.93 380.90,257.35 381.12,257.62 381.33,260.15 381.55,260.42 381.77,257.99 381.99,260.70 382.21,251.34 382.42,251.94 382.64,248.81 382.86,250.55 383.08,252.79 383.29,253.13 383.51,250.96 383.73,251.42 383.95,250.22 384.17,249.72 384.38,252.04 384.60,250.80 384.82,258.18 385.04,258.45 385.25,254.89 385.47,256.18 385.69,261.16 385.91,260.96 386.13,256.28 386.34,257.55 386.56,247.81 386.78,246.22 387.00,252.37 387.21,248.26 387.43,251.44 387.65,254.50 387.87,249.26 388.09,252.62 388.30,241.40 388.52,244.02 388.74,239.24 388.96,240.28 389.17,236.36 389.39,240.75 389.61,235.47 389.83,236.28 390.05,240.95 390.26,241.81 390.48,238.37 390.70,238.81 390.92,240.14 391.13,239.60 391.35,237.96 391.57,237.44 391.79,240.11 392.01,238.79 392.22,241.09 392.44,238.35 392.66,241.55 392.88,240.13 393.09,233.19 393.31,239.02 393.53,236.56 393.75,237.39 393.97,240.01 394.18,240.32 394.40,236.20 394.62,240.06 394.84,235.84 395.05,235.67 395.27,232.80 395.49,234.70 395.71,237.84 395.93,235.75 396.14,239.08 396.36,240.35 396.58,236.19 396.80,237.12 397.01,229.49 397.23,229.84 397.45,233.19 397.67,232.49 397.89,228.60 398.10,230.67 398.32,226.88 398.54,229.40 398.76,227.56 398.97,228.24 399.19,230.29 399.41,228.99 399.63,230.28 399.85,228.36 400.06,230.32 400.28,230.15 400.50,228.65 400.72,228.04 400.93,234.32 401.15,233.08 401.37,238.30 401.59,235.13 401.80,238.83 402.02,239.56 402.24,236.09 402.46,235.23 402.68,243.61 402.89,240.52 403.11,249.77 403.33,248.09 403.55,243.75 403.76,248.77 403.98,242.50 404.20,251.12 404.42,245.99 404.64,245.43 404.85,250.46 405.07,250.84 405.29,247.10 405.51,249.29 405.72,246.05 405.94,243.60 406.16,247.66 406.38,244.67 406.60,241.63 406.81,244.16 407.03,242.17 407.25,242.01 407.47,243.96 407.68,244.41 407.90,242.84 408.12,243.96 408.34,241.97 408.56,242.56 408.77,239.80 408.99,241.40 409.21,235.87 409.43,240.40 409.64,234.23 409.86,236.18 410.08,242.63 410.30,240.30 410.52,242.97 410.73,239.07 410.95,243.68 411.17,241.33 411.39,243.23 411.60,241.28 411.82,244.11 412.04,241.78 412.26,249.56 412.48,249.49 412.69,246.69 412.91,246.07 413.13,251.06 413.35,255.50 413.56,248.93 413.78,249.40 414.00,246.36 414.22,246.89 414.44,238.53 414.65,239.09 414.87,241.91 415.09,240.81 415.31,238.71 415.52,237.82 415.74,239.72 415.96,238.41 416.18,240.63 416.40,239.99 416.61,243.12 416.83,241.99 417.05,239.00 417.27,240.75 417.48,231.98 417.70,233.13 417.92,227.52 418.14,226.60 418.36,230.94 418.57,222.18 418.79,232.16 419.01,230.27 419.23,223.52 419.44,225.34 419.66,222.90 419.88,220.15 420.10,223.79 420.32,221.32 420.53,223.04 420.75,222.28 420.97,225.29 421.19,222.51 421.40,225.33 421.62,224.45 421.84,220.23 422.06,222.30 422.28,218.11 422.49,217.70 422.71,220.33 422.93,218.79 423.15,219.92 423.36,219.91 423.58,220.91 423.80,219.50 424.02,220.64 424.24,220.42 424.45,219.34 424.67,220.08 424.89,217.11 425.11,216.07 425.32,218.82 425.54,218.74 425.76,224.97 425.98,221.37 426.20,225.70 426.41,221.83 426.63,225.38 426.85,225.23 427.07,222.49 427.28,221.87 427.50,224.82 427.72,223.62 427.94,227.47 428.15,225.27 428.37,230.91 428.59,226.25 428.81,222.66 429.03,225.49 429.24,221.24 429.46,222.49 429.68,218.58 429.90,220.22 430.11,223.54 430.33,218.67 430.55,227.82 430.77,223.29 430.99,229.04 431.20,223.81 431.42,225.34 431.64,225.41 431.86,223.32 432.07,224.84 432.29,223.59 432.51,224.49 432.73,221.27 432.95,222.62 433.16,219.99 433.38,222.30 433.60,218.20 433.82,219.31 434.03,214.48 434.25,215.62 434.47,208.85 434.69,210.87 434.91,207.44 435.12,207.98 435.34,202.12 435.56,207.06 435.78,205.38 435.99,205.35 436.21,209.01 436.43,207.90 436.65,204.19 436.87,205.14 437.08,206.97 437.30,206.84 437.52,214.79 437.74,211.93 437.95,217.47 438.17,217.24 438.39,208.93 438.61,212.50 438.83,217.95 439.04,214.42 439.26,215.85 439.48,215.17 439.70,217.23 439.91,215.57 440.13,220.74 440.35,218.47 440.57,220.32 440.79,222.50 441.00,216.41 441.22,220.06 441.44,216.33 441.66,216.75 441.87,221.17 442.09,224.85 442.31,220.66 442.53,221.56 442.75,217.30 442.96,218.59 443.18,212.51 443.40,217.80 443.62,197.68 443.83,196.32 444.05,204.51 444.27,201.84 444.49,193.90 444.71,194.75 444.92,199.28 445.14,198.51 445.36,193.44 445.58,191.93 445.79,195.50 446.01,195.41 446.23,193.46 446.45,195.25 446.67,190.73 446.88,192.08 447.10,193.74 447.32,192.01 447.54,193.34 447.75,194.68 447.97,191.40 448.19,192.51 448.41,182.90 448.63,184.29 448.84,180.07 449.06,185.65 449.28,177.32 449.50,180.30 449.71,174.94 449.93,177.20 450.15,159.48 450.37,155.07 450.59,162.66 450.80,153.89 451.02,167.01 451.24,165.10 451.46,154.19 451.67,157.47 451.89,163.86 452.11,161.23 452.33,145.04 452.55,145.32 452.76,158.50 452.98,155.33 453.20,149.31 453.42,148.93 453.63,161.20 453.85,161.75 454.07,157.65 454.29,160.59 454.51,151.68 454.72,156.05 454.94,148.95 455.16,150.59 455.38,148.78 455.59,149.20 455.81,153.17 456.03,150.45 456.25,154.84 456.46,152.68 456.68,149.63 456.90,151.64 457.12,156.84 457.34,155.32 457.55,147.98 457.77,154.79 457.99,146.70 458.21,154.24 458.42,148.24 458.64,151.54 458.86,148.25 459.08,150.41 459.30,143.30 459.51,144.17 459.73,149.46 459.95,148.02 460.17,141.67 460.38,140.95 460.60,144.92 460.82,143.30 461.04,133.46 461.26,132.01 461.47,138.60 461.69,134.14 461.91,130.97 462.13,129.55 462.34,132.20 462.56,134.65 462.78,129.19 463.00,129.80 463.22,132.20 463.43,132.05 463.65,130.95 463.87,131.08 464.09,134.90 464.30,133.66 464.52,131.62 464.74,132.48 464.96,138.44 465.18,137.75 465.39,132.29 465.61,133.85 465.83,131.07 466.05,132.85 466.26,141.67 466.48,145.84 466.70,140.67 466.92,140.99 467.14,149.39 467.35,141.55 467.57,151.17 467.79,148.60 468.01,143.90 468.22,145.91 468.44,136.83 468.66,134.87 468.88,140.57 469.10,138.25 469.31,141.28 469.53,137.78 469.75,141.15 469.97,140.19 470.18,135.98 470.40,138.83 470.62,131.49 470.84,132.42 471.06,136.07 471.27,136.92 471.49,135.13 471.71,137.54 471.93,135.43 472.14,135.24 472.36,138.44 472.58,137.11 472.80,134.68 473.02,135.77 473.23,133.48 473.45,132.79 473.67,138.26 473.89,140.67 474.10,134.57 474.32,136.69 474.54,141.41 474.76,137.28 474.98,141.18 475.19,144.03 475.41,137.38 475.63,139.56 475.85,136.60 476.06,135.53 476.28,139.25 476.50,141.00 476.72,130.48 476.94,133.00 477.15,119.65 477.37,119.71 477.59,126.57 477.81,124.82 478.02,142.66 478.24,134.82 478.46,131.30 478.68,133.81 478.90,123.66 479.11,124.78 479.33,130.38 479.55,130.08 479.77,128.51 479.98,129.44 480.20,127.04 480.42,127.46 480.64,130.51 480.86,130.79 481.07,127.05 481.29,125.04 481.51,130.33 481.73,128.76 481.94,132.79 482.16,127.60 482.38,140.89 482.60,132.94 482.81,138.33 483.03,132.55 483.25,136.73 483.47,142.04 483.69,135.18 483.90,138.51 484.12,131.78 484.34,133.09 484.56,125.55 484.77,123.64 484.99,127.22 485.21,125.33 485.43,127.48 485.65,122.14 485.86,129.31 486.08,126.97 486.30,129.73 486.52,128.66 486.73,124.77 486.95,127.53 487.17,122.05 487.39,121.89 487.61,124.82 487.82,123.99 488.04,125.90 488.26,126.34 488.48,121.31 488.69,124.35 488.91,120.30 489.13,119.96 489.35,121.79 489.57,120.26 489.78,112.77 490.00,119.92 490.22,111.77 490.44,110.03 490.65,115.16 490.87,113.37 491.09,110.63 491.31,108.90 491.53,114.42 491.74,111.97 491.96,119.52 492.18,119.85 492.40,115.56 492.61,116.53 492.83,127.14 493.05,130.59 493.27,123.83 493.49,121.52 493.70,130.48 493.92,130.51 494.14,137.93 494.36,132.41 494.57,145.16 494.79,147.02 495.01,133.60 495.23,138.94 495.45,131.21 495.66,129.25 495.88,136.24 496.10,132.99 496.32,136.20 496.53,134.38 496.75,138.13 496.97,134.59 497.19,139.92 497.41,137.18 497.62,143.14 497.84,136.74 498.06,140.99 498.28,137.02 498.49,146.61 498.71,139.32 498.93,143.72 499.15,143.39 499.37,132.59 499.58,129.68 499.80,134.64 500.02,131.50 500.24,133.21 500.45,129.77 500.67,133.46 500.89,131.96 501.11,128.12 501.33,130.92 501.54,139.63 501.76,139.63 501.98,136.58 502.20,139.31 502.41,136.39 502.63,134.64 502.85,142.66 503.07,144.07 503.29,140.97 503.50,142.56 503.72,141.04 503.94,139.71 504.16,141.82 504.37,139.37 504.59,140.77 504.81,139.72 505.03,140.72 505.25,139.94 505.46,145.27 505.68,145.39 505.90,142.90 506.12,142.65 506.33,149.16 506.55,140.45 506.77,148.34 506.99,147.30 507.21,142.02 507.42,137.88 507.64,144.56 507.86,144.46 508.08,141.93 508.29,145.40 508.51,142.01 508.73,143.50 508.95,140.24 509.16,141.76 509.38,137.97 509.60,138.02 509.82,133.86 510.04,136.97 510.25,133.33 510.47,135.18 510.69,137.57 510.91,136.64 511.12,130.60 511.34,131.77 511.56,133.20 511.78,132.19 512.00,133.82 512.21,134.01 512.43,131.15 512.65,131.71 512.87,133.33 513.08,134.60 513.30,132.36 513.52,133.63 513.74,129.92 513.96,128.49 514.17,131.03 514.39,131.07 514.61,122.22 514.83,122.20 515.04,124.26 515.26,123.23 515.48,133.97 515.70,132.24 515.92,137.32 516.13,134.72 516.35,139.69 516.57,137.84 516.79,145.50 517.00,143.47 517.22,139.54 517.44,141.49 517.66,145.87 517.88,141.40 518.09,150.01 518.31,148.21 518.53,142.06 518.75,139.86 518.96,147.21 519.18,144.90 519.40,138.40 519.62,141.75 519.84,143.27 520.05,141.04 520.27,142.77 520.49,142.59 520.71,140.38 520.92,143.51 521.14,141.25 521.36,139.64 521.58,143.18 521.80,138.52 522.01,144.50 522.23,144.31 522.45,153.53 522.67,149.13 522.88,140.43 523.10,140.88 523.32,134.60 523.54,135.18 523.76,139.29 523.97,136.96 524.19,133.72 524.41,136.48 524.63,129.85 524.84,131.32 525.06,126.47 525.28,126.71 525.50,130.33 525.72,133.97 525.93,127.80 526.15,129.51 526.37,123.09 526.59,125.68 526.80,122.10 527.02,122.49 527.24,114.36 527.46,116.29 527.68,121.33 527.89,122.41 528.11,117.63 528.33,116.38 528.55,120.34 528.76,114.97 528.98,119.51 529.20,117.86 529.42,115.24 529.64,113.17 529.85,128.84 530.07,124.46 530.29,107.28 530.51,109.37 530.72,126.15 530.94,119.41 531.16,126.88 531.38,123.61 531.60,115.72 531.81,118.71 532.03,111.39 532.25,113.57 532.47,116.83 532.68,115.18 532.90,119.88 533.12,116.93 533.34,122.91 533.56,121.15 533.77,124.94 533.99,124.51 534.21,112.85 534.43,121.49 534.64,115.76 534.86,116.85 535.08,113.48 535.30,111.83 535.52,117.61 535.73,115.80 535.95,118.23 536.17,117.67 536.39,115.86 536.60,117.35 536.82,115.40 537.04,115.86 537.26,117.42 537.47,115.73 537.69,118.78 537.91,119.86 538.13,133.38 538.35,131.94 538.56,122.88 538.78,130.35 539.00,121.21 539.22,123.63 539.43,120.11 539.65,119.65 539.87,123.48 540.09,127.23 540.31,122.55 540.52,121.02 540.74,123.83 540.96,124.33 541.18,117.45 541.39,119.92 541.61,115.06 541.83,116.84 542.05,113.44 542.27,114.46 542.48,117.94 542.70,118.69 542.92,116.67 543.14,114.37 543.35,124.02 543.57,124.15 543.79,121.43 544.01,122.14 544.23,124.34 544.44,122.58 544.66,127.34 544.88,124.68 545.10,130.16 545.31,128.48 545.53,134.83 545.75,131.50 545.97,146.48 546.19,146.09 546.40,138.18 546.62,142.10 546.84,123.54 547.06,122.62 547.27,132.27 547.49,133.17 547.71,127.33 547.93,126.50 548.15,137.17 548.36,130.89 548.58,134.90 548.80,130.77 549.02,136.51 549.23,133.65 549.45,137.13 549.67,133.98 549.89,130.18 550.11,131.10 550.32,138.13 550.54,136.93 550.76,133.52 550.98,136.16 551.19,127.92 551.41,132.08 551.63,138.57 551.85,135.75 552.07,138.24 552.28,138.59 552.50,136.06 552.72,136.97 552.94,134.64 553.15,134.82 553.37,138.30 553.59,136.35 553.81,140.82 554.03,139.15 554.24,133.46 554.46,132.38 554.68,135.62 554.90,135.06 555.11,132.71 555.33,134.17 555.55,131.86 555.77,132.42 555.99,140.55 556.20,140.26 556.42,136.79 556.64,136.62 556.86,142.45 557.07,140.46 557.29,132.84 557.51,132.78 557.73,138.41 557.95,136.84 558.16,139.50 558.38,139.48 558.60,135.73 558.82,136.42 559.03,134.97 559.25,137.03 559.47,131.33 559.69,135.40 559.91,133.00 560.12,134.57 560.34,133.27 560.56,134.60 560.78,133.55 560.99,133.64 561.21,135.15 561.43,134.46 561.65,135.97 561.87,134.89 562.08,137.65 562.30,138.16 562.52,136.90 562.74,135.57 562.95,139.80 563.17,136.86 563.39,139.69 563.61,140.00 563.82,136.25 564.04,144.22 564.26,138.49 564.48,140.28 564.70,136.75 564.91,136.28 565.13,138.88 565.35,138.00 565.57,134.61 565.78,135.87 566.00,134.14 566.22,135.62 566.44,131.21 566.66,132.70 566.87,131.54 567.09,129.41 567.31,134.18 567.53,132.10 567.74,140.24 567.96,137.61 568.18,136.45 568.40,135.70 568.62,136.90 568.83,136.19 569.05,136.93 569.27,136.48 569.49,138.59 569.70,139.75 569.92,137.48 570.14,136.71 570.36,139.98 570.58,137.72 570.79,143.13 571.01,140.11 571.23,150.77 571.45,146.83 571.66,161.08 571.88,154.80 572.10,163.68 572.32,159.01 572.54,155.06 572.75,155.43 572.97,165.60 573.19,157.93 573.41,174.93 573.62,169.78 573.84,163.02 574.06,161.59 574.28,168.92 574.50,167.50 574.71,182.46 574.93,177.81 575.15,186.46 575.37,181.29 575.58,167.39 575.80,170.50 576.02,162.90 576.24,165.85 576.46,168.93 576.67,168.30 576.89,163.85 577.11,165.65 577.33,162.98 577.54,166.93 577.76,141.43 577.98,140.84 578.20,147.00 578.42,144.65 578.63,150.08 578.85,143.87 579.07,166.17 579.29,161.58 579.50,173.45 579.72,168.36 579.94,176.03 580.16,175.16 580.38,156.74 580.59,162.06 580.81,157.09 581.03,151.38 581.25,159.69 581.46,154.58 581.68,148.26 581.90,146.22 582.12,153.87 582.34,150.00 582.55,158.61 582.77,152.02 582.99,166.90 583.21,151.13 583.42,161.46 583.64,156.64 583.86,166.07 584.08,165.87 584.30,162.66 584.51,162.88 584.73,165.00 584.95,163.01 585.17,164.56 585.38,164.04 585.60,172.63 585.82,170.82 586.04,181.15 586.26,181.45 586.47,174.00 586.69,170.86 586.91,186.23 587.13,182.31 587.34,191.66 587.56,184.56 587.78,176.40 588.00,183.73 588.22,171.90 588.43,170.75 588.65,176.93 588.87,177.88 589.09,169.89 589.30,179.07 589.52,170.41 589.74,169.61 589.96,174.13 590.18,171.74 590.39,181.82 590.61,181.22 590.83,175.23 591.05,176.52 591.26,171.77 591.48,173.56 591.70,166.78 591.92,170.18 592.13,168.23 592.35,170.89 592.57,168.77 592.79,168.67 593.01,169.67 593.22,170.71 593.44,168.91 593.66,174.70 593.88,168.41 594.09,170.95 594.31,175.70 594.53,170.55 594.75,173.78 594.97,173.86 595.18,168.21 595.40,169.37 595.62,174.96 595.84,171.89 596.05,178.20 596.27,177.81 596.49,172.57 596.71,174.15 596.93,171.12 597.14,171.83 597.36,164.94 597.58,166.69 597.80,160.41 598.01,163.61 598.23,166.98 598.45,163.36 598.67,170.76 598.89,167.84 599.10,170.68 599.32,169.11 599.54,171.96 599.76,170.70 599.97,168.63 600.19,169.95 600.41,168.73 600.63,169.11 600.85,170.12 601.06,170.83 601.28,169.32 601.50,169.77 601.72,166.97 601.93,167.80 602.15,165.38 602.37,165.64 602.59,160.51 602.81,161.17 603.02,157.14 603.24,157.55 603.46,161.76 603.68,163.43 603.89,160.28 604.11,161.41 604.33,157.64 604.55,158.39 604.77,161.35 604.98,158.22 605.20,163.01 605.42,164.59 605.64,160.57 605.85,162.17 606.07,159.54 606.29,160.12 606.51,164.59 606.73,159.70 606.94,161.99 607.16,161.98 607.38,167.75 607.60,165.78 607.81,171.07 608.03,168.45 608.25,170.95 608.47,170.28 608.69,175.75 608.90,176.60 609.12,173.68 609.34,173.56 609.56,171.57 609.77,171.46 609.99,175.45 610.21,173.28 610.43,177.79 610.65,177.69 610.86,173.38 611.08,176.16 611.30,170.77 611.52,174.97 611.73,171.50 611.95,173.79 612.17,166.30 612.39,167.93 612.61,165.89 612.82,170.12 613.04,166.35 613.26,168.47 613.48,161.00 613.69,159.08 613.91,174.94 614.13,170.78 614.35,176.42 614.57,177.80 614.78,173.50 615.00,174.28 615.22,170.12 615.44,168.29 615.65,176.56 615.87,172.61 616.09,168.41 616.31,169.83 616.53,171.93 616.74,171.01 616.96,174.74 617.18,173.23 617.40,170.93 617.61,171.45 617.83,175.02 618.05,173.74 618.27,190.18 618.48,184.07 618.70,198.68 618.92,194.84 619.14,181.12 619.36,187.56 619.57,179.61 619.79,180.80 620.01,185.25 620.23,181.16 620.44,192.70 620.66,190.66 620.88,198.42 621.10,194.46 621.32,187.66 621.53,190.82 621.75,171.58 621.97,174.27 622.19,177.74 622.40,175.69 622.62,185.79 622.84,184.76 623.06,179.75 623.28,180.22 623.49,173.14 623.71,177.49 623.93,169.77 624.15,170.72 624.36,173.54 624.58,172.02 624.80,166.42 625.02,168.86 625.24,165.01 625.45,164.88 625.67,169.22 625.89,171.24 626.11,167.43 626.32,172.79 626.54,166.32 626.76,169.24 626.98,166.67 627.20,165.14 627.41,170.62 627.63,169.01 627.85,164.95 628.07,163.28 628.28,167.82 628.50,167.20 628.72,172.55 628.94,170.27 629.16,172.48 629.37,166.22 629.59,172.16 629.81,168.25 630.03,170.59 630.24,169.79 630.46,167.42 630.68,170.45 630.90,166.04 631.12,166.86 631.33,168.72 631.55,167.93 631.77,169.10 631.99,168.20 632.20,169.06 632.42,168.21 632.64,166.02 632.86,165.76 633.08,168.05 633.29,166.26 633.51,167.06 633.73,166.78 633.95,170.07 634.16,169.21 634.38,166.63 634.60,167.15 634.82,159.87 635.04,157.87 635.25,162.64 635.47,162.22 635.69,157.22 635.91,159.14 636.12,157.04 636.34,157.28 636.56,149.06 636.78,150.48 637.00,143.68 637.21,141.98 637.43,146.22 637.65,147.72 637.87,142.67 638.08,143.92 638.30,148.79 638.52,147.40 638.74,144.17 638.96,142.46 639.17,145.56 639.39,145.39 639.61,140.91 639.83,142.44 640.04,139.01 640.26,140.00 640.48,141.67 640.70,140.98 640.92,143.09 641.13,142.74 641.35,140.46 641.57,140.11 641.79,143.49 642.00,143.67 642.22,142.03 642.44,141.68 642.66,145.88 642.88,143.02 643.09,139.09 643.31,139.76 643.53,144.23 643.75,139.71 643.96,142.38 644.18,139.82 644.40,141.32 644.62,139.28 644.84,143.43 645.05,142.22 645.27,140.25 645.49,139.96 645.71,145.45 645.92,142.92 646.14,140.50 646.36,140.84 646.58,136.27 646.79,138.36 647.01,134.43 647.23,137.35 647.45,134.76 647.67,136.68 647.88,133.53 648.10,134.00 648.32,136.75 648.54,136.18 648.75,138.14 648.97,138.12 649.19,136.64 649.41,136.85 649.63,138.70 649.84,137.54 650.06,139.78 650.28,138.52 650.50,141.92 650.71,143.87 650.93,141.01 651.15,141.35 651.37,143.95 651.59,143.21 651.80,139.94 652.02,141.49 652.24,143.67 652.46,144.33 652.67,140.09 652.89,141.68 653.11,133.93 653.33,136.67 653.55,134.27 653.76,138.38 653.98,134.44 654.20,135.58 654.42,128.63 654.63,130.17 654.85,124.39 655.07,125.48 655.29,119.34 655.51,122.39 655.72,118.38 655.94,119.25 656.16,122.13 656.38,121.41 656.59,119.21 656.81,118.58 657.03,120.46 657.25,120.71 657.47,116.30 657.68,117.44 657.90,120.01 658.12,116.63 658.34,118.99 658.55,119.56 658.77,116.31 658.99,114.80 659.21,119.13 659.43,117.68 659.64,126.19 659.86,120.64 660.08,124.20 660.30,121.91 660.51,117.85 660.73,119.21 660.95,116.42 661.17,118.53 661.39,120.92 661.60,117.96 661.82,121.45 662.04,118.94 662.26,121.52 662.47,121.16 662.69,124.33 662.91,124.11 663.13,118.34 663.35,120.32 663.56,117.79 663.78,120.63 664.00,117.47 664.22,117.81 664.43,121.64 664.65,119.34 664.87,121.48 665.09,121.58 665.31,120.30 665.52,121.06 665.74,119.87 665.96,120.02 666.18,115.79 666.39,119.63 666.61,114.15 666.83,112.02 667.05,122.77 667.27,122.89 667.48,115.07 667.70,116.90 667.92,112.17 668.14,113.16 668.35,116.51 668.57,118.01 668.79,111.17 669.01,113.98 669.23,110.13 669.44,113.75 669.66,106.78 669.88,113.44 670.10,105.08 670.31,106.49 670.53,101.17 670.75,103.95 670.97,100.89 671.19,100.87 671.40,103.34 671.62,102.12 671.84,109.42 672.06,109.36 672.27,105.06 672.49,111.91 672.71,108.24 672.93,110.40 673.14,106.36 673.36,106.99 673.58,110.74 673.80,108.93 674.02,112.05 674.23,110.13 674.45,112.41 674.67,110.77 674.89,105.67 675.10,106.29 675.32,104.65 675.54,104.43 675.76,107.35 675.98,106.15 676.19,109.39 676.41,103.60 676.63,106.93 676.85,104.00 677.06,107.92 677.28,107.09 677.50,108.68 677.72,107.19 677.94,111.62 678.15,111.85 678.37,108.50 678.59,107.50 678.81,110.65 679.02,110.32 679.24,114.72 679.46,113.36 679.68,116.45 679.90,114.15 680.11,118.85 680.33,116.51 680.55,120.25 680.77,120.46 680.98,118.81 681.20,119.88 681.42,116.77 681.64,116.58 681.86,118.75 682.07,119.07 682.29,116.96 682.51,117.66 682.73,114.41 682.94,117.00 683.16,114.41 683.38,115.52 683.60,119.07 683.82,118.29 684.03,112.89 684.25,114.89 684.47,116.50 684.69,115.87 684.90,112.37 685.12,114.24 685.34,115.74 685.56,114.09 685.78,117.77 685.99,115.17 686.21,117.40 686.43,115.77 686.65,117.63 686.86,114.24 687.08,121.52 687.30,120.63 687.52,126.87 687.74,122.32 687.95,118.52 688.17,119.15 688.39,115.77 688.61,118.62 688.82,115.54 689.04,116.87 689.26,114.51 689.48,115.47 689.70,114.21 689.91,114.63 690.13,116.27 690.35,116.14 690.57,113.22 690.78,113.00 691.00,115.33 691.22,115.48 691.44,109.65 691.66,111.66 691.87,104.02 692.09,104.39 692.31,106.85 692.53,105.27 692.74,108.46 692.96,108.07 693.18,104.34 693.40,105.36 693.62,106.69 693.83,104.25 694.05,108.24 694.27,106.77 694.49,110.57 694.70,109.55 694.92,112.09 695.14,108.57 695.36,114.54 695.58,113.75 695.79,121.13 696.01,118.21 696.23,114.12 696.45,116.94 696.66,113.82 696.88,115.34 697.10,116.63 697.32,116.05 697.54,117.71 697.75,116.64 697.97,114.39 698.19,113.81 698.41,116.49 698.62,114.50 698.84,117.30 699.06,116.04 699.28,111.23 699.49,112.65 699.71,109.55 699.93,107.72 700.15,113.54 700.37,110.25 700.58,115.06 700.80,114.41 701.02,119.74 701.24,118.05 701.45,115.04 701.67,115.53 701.89,118.76 702.11,119.45 702.33,115.96 702.54,115.84 702.76,117.32 702.98,116.16 703.20,118.67 703.41,118.23 703.63,116.69 703.85,117.98 704.07,112.96 704.29,113.64 704.50,122.01 704.72,120.85 704.94,119.35 705.16,120.02 705.37,118.62 705.59,119.43 705.81,125.61 706.03,123.18 706.25,121.11 706.46,121.44 706.68,131.16 706.90,131.94 707.12,124.57 707.33,123.16 707.55,125.41 707.77,128.10 707.99,114.01 708.21,116.84 708.42,114.56 708.64,116.82 708.86,114.32 709.08,115.43 709.29,112.99 709.51,113.87 709.73,111.43 709.95,109.30 710.17,112.17 710.38,111.50 710.60,109.03 710.82,109.30 711.04,111.89 711.25,112.34 711.47,109.58 711.69,112.79 711.91,110.34 712.13,113.01 712.34,110.52 712.56,112.88 712.78,111.21 713.00,111.54 713.21,110.63 713.43,111.49 713.65,110.59 713.87,111.34 714.09,110.60 714.30,111.02 714.52,108.41 714.74,111.04 714.96,108.61 715.17,107.78 715.39,110.67 715.61,109.61 715.83,112.25 716.05,110.04 716.26,111.55 716.48,111.24 716.70,113.28 716.92,111.44 717.13,115.40 717.35,115.39 717.57,112.16 717.79,112.05 718.01,108.43 718.22,108.55 718.44,105.76 718.66,108.22 718.88,104.48 719.09,107.77 719.31,104.33 719.53,105.05 719.75,106.98 719.97,106.56 720.18,108.19 720.40,107.86 720.62,111.10 720.84,109.89 721.05,108.63 721.27,109.75 721.49,108.98 721.71,109.65 721.93,108.92 722.14,108.92 722.36,109.81 722.58,109.58 722.80,107.27 723.01,108.73 723.23,105.89 723.45,106.79 723.67,109.34 723.89,108.10 724.10,110.54 724.32,108.31 724.54,110.44 724.76,107.17 724.97,109.13 725.19,108.49 725.41,106.92 725.63,108.69 725.85,107.36 726.06,108.12 726.28,100.94 726.50,103.69 726.72,101.81 726.93,101.93 727.15,103.67 727.37,103.14 727.59,91.09 727.80,93.66 728.02,87.49 728.24,86.52 728.46,90.83 728.68,87.89 728.89,89.67 729.11,89.06 729.33,87.74 729.55,88.45 729.76,90.23 729.98,90.12 730.20,88.31 730.42,88.73 730.64,85.54 730.85,85.49 731.07,87.39 731.29,86.22 731.51,78.28 731.72,79.59 731.94,85.37 732.16,83.18 732.38,89.76 732.60,88.71 732.81,91.32 733.03,87.34 733.25,92.34 733.47,87.81 733.68,89.95 733.90,87.96 734.12,84.73 734.34,84.07 734.56,87.26 734.77,88.60 734.99,85.80 735.21,89.20 735.43,84.53 735.64,87.14 735.86,82.22 736.08,82.88 736.30,87.19 736.52,85.74 736.73,90.54 736.95,89.02 737.17,87.41 737.39,87.14 737.60,88.79 737.82,87.86 738.04,89.48 738.26,88.56 738.48,87.59 738.69,88.57 738.91,86.38 739.13,90.92 739.35,86.92 739.56,84.87 739.78,88.29 740.00,85.99 740.22,90.68 740.44,91.09 740.65,86.95 740.87,88.79 741.09,85.14 741.31,87.06 741.52,83.56 741.74,85.43 741.96,88.43 742.18,86.78 742.40,89.42 742.61,89.02 742.83,85.57 743.05,89.63 743.27,86.46 743.48,87.81 743.70,85.18 743.92,87.42 744.14,94.82 744.36,90.74 744.57,94.41 744.79,92.15 745.01,88.65 745.23,89.54 745.44,87.71 745.66,88.58 745.88,87.56 746.10,88.44 746.32,87.48 746.53,88.40 746.75,87.10 746.97,87.46 747.19,84.53 747.40,84.56 747.62,86.52 747.84,85.89 748.06,89.14 748.28,89.26 748.49,87.27 748.71,85.88 748.93,87.57 749.15,85.93 749.36,89.99 749.58,89.61 749.80,87.56 750.02,89.21 750.24,86.66 750.45,92.24 750.67,87.04 750.89,88.11 751.11,86.31 751.32,86.47 751.54,89.10 751.76,88.95 751.98,95.06 752.20,92.47 752.41,95.67 752.63,92.60 752.85,98.03 753.07,98.88 753.28,96.33 753.50,96.42 753.72,99.07 753.94,97.72 754.15,100.60 754.37,98.60 754.59,96.79 754.81,97.19 755.03,95.03 755.24,96.23 755.46,94.54 755.68,96.08 755.90,94.77 756.11,95.09 756.33,92.87 756.55,93.62 756.77,96.74 756.99,94.13 757.20,99.14 757.42,98.19 757.64,96.07 757.86,97.73 758.07,95.57 758.29,96.73 758.51,92.88 758.73,93.87 758.95,95.84 759.16,95.45 759.38,90.52 759.60,92.06 759.82,88.94 760.03,88.99 760.25,91.41 760.47,89.91 760.69,92.40 760.91,91.54 761.12,90.23 761.34,91.48 761.56,88.54 761.78,89.73 761.99,91.15 762.21,91.38 762.43,86.66 762.65,88.89 762.87,85.91 763.08,87.91 763.30,85.49 763.52,86.12 763.74,79.43 763.95,81.12 764.17,85.55 764.39,84.32 764.61,87.44 764.83,85.78 765.04,87.62 765.26,86.60 765.48,83.44 765.70,83.54 765.91,86.17 766.13,85.52 766.35,79.84 766.57,82.22 766.79,75.68 767.00,76.45 767.22,81.17 767.44,80.67 767.66,89.15 767.87,89.18 768.09,85.95 768.31,85.65 768.53,87.14 768.75,87.03 768.96,90.48 769.18,90.04 769.40,88.38 769.62,89.60 769.83,88.52 770.05,88.55 770.27,89.72 770.49,89.37 770.71,87.28 770.92,87.10 771.14,89.12 771.36,88.17 771.58,94.12 771.79,95.02 772.01,92.85 772.23,94.66 772.45,90.26 772.67,90.74 772.88,95.28 773.10,92.76 773.32,97.96 773.54,97.34 773.75,99.43 773.97,97.90 774.19,96.41 774.41,99.72 774.63,95.80 774.84,94.89 775.06,97.18 775.28,96.44 775.50,98.64 775.71,97.73 775.93,100.62 776.15,100.10 776.37,97.50 776.59,101.34 776.80,90.06 777.02,89.32 777.24,92.98 777.46,92.19 777.67,93.68 777.89,93.35 778.11,95.12 778.33,92.99 778.55,94.45 778.76,94.20 778.98,95.63 779.20,94.68 779.42,100.37 779.63,97.21 779.85,102.46 780.07,103.23 780.29,98.95 780.51,99.60 780.72,107.03 780.94,105.87 781.16,103.96 781.38,106.35 781.59,102.05 781.81,100.02 782.03,103.02 782.25,104.03 782.46,99.47 782.68,99.43 782.90,103.14 783.12,101.92 783.34,97.87 783.55,97.91 783.77,100.20 783.99,99.41 784.21,102.01 784.42,101.36 784.64,106.13 784.86,103.95 785.08,110.31 785.30,110.71 785.51,108.05 785.73,108.86 785.95,107.42 786.17,108.37 786.38,106.37 786.60,106.27 786.82,108.65 787.04,109.00 787.26,106.78 787.47,106.85 787.69,111.02 787.91,111.03 788.13,105.40 788.34,106.56 788.56,110.38 788.78,108.29 789.00,103.92 789.22,108.34 789.43,101.49 789.65,104.06 789.87,101.46 790.09,103.82 790.30,101.40 790.52,102.74 790.74,99.60 790.96,100.16 791.18,103.70 791.39,102.82 791.61,105.54 791.83,106.43 792.05,101.48 792.26,104.06 792.48,98.59 792.70,98.04 792.92,104.26 793.14,101.50 793.35,103.95 793.57,102.32 793.79,103.57 794.01,102.93 794.22,105.05 794.44,104.81 794.66,103.50 794.88,104.03 795.10,102.01 795.31,103.11 795.53,101.84 795.75,103.52 795.97,100.67 796.18,101.17 796.40,98.86 796.62,99.68 796.84,102.42 797.06,101.51 797.27,98.06 797.49,98.82 797.71,103.30 797.93,102.98 798.14,100.84 798.36,101.15 798.58,95.88 798.80,98.06 799.02,96.40 799.23,97.01 799.45,95.59 799.67,97.52 799.89,94.99 800.10,96.05 800.32,91.65 800.54,93.02 800.76,94.73 800.98,94.62 801.19,90.88 801.41,91.74 801.63,92.93 801.85,91.98 802.06,93.28 802.28,93.88 802.50,92.26 802.72,93.27 802.94,91.91 803.15,92.06 803.37,93.88 803.59,94.67 803.81,92.06 804.02,90.69 804.24,95.44 804.46,95.44 804.68,93.13 804.90,94.37 805.11,92.23 805.33,94.46 805.55,90.90 805.77,91.68 805.98,90.27 806.20,91.90 806.42,89.65 806.64,91.25 806.86,94.53 807.07,93.49 807.29,88.51 807.51,90.28 807.73,88.57 807.94,88.36 808.16,90.74 808.38,89.22 808.60,90.85 808.81,90.22 809.03,93.24 809.25,94.06 809.47,92.81 809.69,93.47 809.90,92.30 810.12,92.01 810.34,92.88 810.56,92.39 810.77,93.30 810.99,92.62 811.21,93.48 811.43,93.01 811.65,93.97 811.86,94.39 812.08,99.97 812.30,100.16 812.52,97.74 812.73,98.62 812.95,101.56 813.17,100.73 813.39,97.99 813.61,98.15 813.82,101.69 814.04,101.91 814.26,99.05 814.48,99.77 814.69,96.88 814.91,96.60 815.13,98.43 815.35,97.98 815.57,101.71 815.78,101.02 816.00,107.75 816.22,105.33 816.44,107.67 816.65,105.79 816.87,107.91 817.09,107.61 817.31,104.61 817.53,106.53 817.74,105.69 817.96,107.07 818.18,106.30 818.40,106.71 818.61,105.51 818.83,106.63 819.05,106.02 819.27,106.79 819.49,104.20 819.70,104.33 819.92,100.02 820.14,101.63 820.36,97.45 820.57,97.36 820.79,95.60 821.01,94.85 821.23,97.23 821.45,99.08 821.66,97.29 821.88,98.09 822.10,94.86 822.32,96.13 822.53,91.11 822.75,91.48 822.97,88.27 823.19,89.54 823.41,85.29 823.62,87.40 823.84,84.54 824.06,86.95 824.28,82.04 824.49,83.00 824.71,85.39 824.93,84.10 825.15,76.58 825.37,78.35 825.58,80.67 825.80,80.30 826.02,78.63 826.24,79.16 826.45,80.92 826.67,79.78 826.89,73.42 827.11,73.83 827.33,78.77 827.54,78.97 827.76,75.50 827.98,77.77 828.20,75.94 828.41,76.65 828.63,72.70 828.85,72.27 829.07,75.86 829.29,77.26 829.50,74.36 829.72,74.37 829.94,82.67 830.16,79.68 830.37,81.71 830.59,81.27 830.81,77.86 831.03,76.09 831.25,78.87 831.46,78.81 831.68,81.70 831.90,77.00 832.12,84.42 832.33,82.37 832.55,80.34 832.77,82.20 832.99,80.10 833.21,79.24 833.42,118.63 833.64,95.13 833.86,103.67 834.08,104.45 834.29,99.63 834.51,100.37 834.73,105.84 834.95,105.17 835.16,100.71 835.38,102.30 835.60,95.10 835.82,95.38 836.04,92.79 836.25,93.29 836.47,97.19 836.69,96.50 836.91,92.64 837.12,93.51 837.34,101.55 837.56,104.68 837.78,98.77 838.00,100.48 838.21,97.35 838.43,101.02 838.65,97.93 838.87,100.49 839.08,104.46 839.30,104.24 839.52,101.28 839.74,105.60 839.96,101.04 840.17,103.76 840.39,110.68 840.61,106.84 840.83,116.84 841.04,119.19 841.26,110.99 841.48,113.20 841.70,110.77 841.92,112.96 842.13,110.93 842.35,112.78 842.57,111.19 842.79,112.25 843.00,110.93 843.22,113.63 843.44,108.25 843.66,106.36 843.88,110.25 844.09,109.82 844.31,101.82 844.53,101.71 844.75,105.20 844.96,102.35 845.18,106.71 845.40,110.51 845.62,106.45 845.84,108.77 846.05,96.94 846.27,104.11 846.49,110.19 846.71,111.37 846.92,107.37 847.14,108.26 847.36,112.20 847.58,109.22 847.80,104.51 848.01,107.89 848.23,102.34 848.45,106.23 848.67,102.24 848.88,101.64 849.10,103.42 849.32,105.26 849.54,102.56 849.76,103.53 849.97,101.38 850.19,100.92 850.41,102.40 850.63,102.21 850.84,101.02 851.06,102.30 851.28,99.27 851.50,99.63 851.72,96.72 851.93,98.42 852.15,93.33 852.37,92.09 852.59,95.19 852.80,92.75 853.02,96.68 853.24,95.38 853.46,97.29 853.68,96.09 853.89,92.24 854.11,93.23 854.33,100.32 854.55,99.79 854.76,97.32 854.98,97.40 855.20,106.31 855.42,101.18 855.64,108.80 855.85,101.73 856.07,110.65 856.29,113.01 856.51,108.52 856.72,108.53 856.94,104.76 857.16,102.73 857.38,107.80 857.60,107.18 857.81,104.68 858.03,104.15 858.25,105.28 858.47,105.60 858.68,104.02 858.90,105.35 859.12,103.50 859.34,102.44 859.56,104.45 859.77,106.07 859.99,103.41 860.21,104.65 860.43,111.60 860.64,108.91 860.86,115.33 861.08,110.97 861.30,114.32 861.52,111.08 861.73,119.33 861.95,117.01 862.17,130.17 862.39,130.46 862.60,122.64 862.82,124.99 863.04,119.21 863.26,117.37 863.47,121.17 863.69,118.39 863.91,121.56 864.13,119.66 864.35,126.78 864.56,126.58 864.78,122.48 865.00,122.13 865.22,129.60 865.43,129.03 865.65,118.61 865.87,119.26 866.09,123.33 866.31,121.80 866.52,124.44 866.74,124.31 866.96,122.20 867.18,124.43 867.39,122.99 867.61,123.10 867.83,116.29 868.05,118.36 868.27,112.98 868.48,112.70 868.70,114.21 868.92,116.93 869.14,113.40 869.35,110.91 869.57,116.78 869.79,115.16 870.01,120.58 870.23,119.68 870.44,122.10 870.66,120.79 870.88,115.97 871.10,115.74 871.31,125.47 871.53,124.81 871.75,120.59 871.97,118.76 872.19,123.68 872.40,121.27 872.62,132.71 872.84,128.47 873.06,136.37 873.27,134.46 873.49,141.12 873.71,142.30 873.93,136.34 874.15,136.24 874.36,138.92 874.58,136.75 874.80,139.84 875.02,140.43 875.23,137.78 875.45,136.30 875.67,139.84 875.89,139.75 876.11,145.44 876.32,141.00 876.54,137.91 876.76,138.18 876.98,146.94 877.19,146.82 877.41,154.05 877.63,154.95 877.85,148.65 878.07,150.53 878.28,143.65 878.50,144.51 878.72,153.22 878.94,147.57 879.15,154.19 879.37,157.11 879.59,146.98 879.81,145.54 880.03,149.47 880.24,147.94 880.46,164.05 880.68,158.51 880.90,165.99 881.11,163.54 881.33,179.02 881.55,174.51 881.77,166.01 881.99,165.78 882.20,170.30 882.42,171.39 882.64,167.72 882.86,169.25 883.07,164.44 883.29,162.70 883.51,165.76 883.73,164.46 883.95,159.88 884.16,164.21 884.38,158.83 884.60,159.88 884.82,165.13 885.03,165.91 885.25,155.53 885.47,157.56 885.69,160.66 885.91,163.86 886.12,158.81 886.34,163.61 886.56,158.65 886.78,159.05 886.99,162.45 887.21,163.23 887.43,152.51 887.65,153.91 887.87,148.61 888.08,148.61 888.30,152.02 888.52,151.60 888.74,148.61 888.95,151.61 889.17,148.85 889.39,145.63 889.61,152.77 889.82,150.15 890.04,151.86 890.26,151.03 890.48,152.39 890.70,150.50 890.91,152.68 891.13,150.70 891.35,152.16 891.57,151.11 891.78,148.29 892.00,148.59 892.22,161.21 892.44,160.15 892.66,165.35 892.87,162.30 893.09,170.26 893.31,168.02 893.53,161.48 893.74,163.21 893.96,160.24 894.18,160.75 894.40,147.45 894.62,150.64 894.83,143.07 895.05,148.79 895.27,144.24 895.49,147.51 895.70,142.87 895.92,142.93 896.14,145.88 896.36,144.76 896.58,150.96 896.79,146.43 897.01,148.51 897.23,146.98 897.45,152.32 897.66,150.14 897.88,157.81 898.10,156.03 898.32,154.08 898.54,155.39 898.75,153.21 898.97,153.87 899.19,156.28 899.41,154.12 899.62,155.92 899.84,159.20 900.06,149.18 900.28,155.33 900.50,149.11 900.71,147.61 900.93,150.09 901.15,149.42 901.37,154.28 901.58,151.42 901.80,154.04 902.02,153.44 902.24,141.73 902.46,142.61 902.67,148.07 902.89,145.23 903.11,148.20 903.33,148.82 903.54,142.31 903.76,146.45 903.98,154.43 904.20,152.28 904.42,154.84 904.63,155.07 904.85,144.60 905.07,149.27 905.29,146.33 905.50,146.59 905.72,154.46 905.94,151.80 906.16,153.54 906.38,152.71 906.59,151.82 906.81,152.36 907.03,153.55 907.25,153.35 907.46,152.23 907.68,152.73 907.90,156.47 908.12,155.44 908.34,159.01 908.55,157.61 908.77,153.62 908.99,153.64 909.21,166.22 909.42,165.59 909.64,163.09 909.86,166.07 910.08,160.60 910.30,163.17 910.51,158.93 910.73,159.21 910.95,163.43 911.17,163.47 911.38,152.92 911.60,161.45 911.82,166.17 912.04,164.20 912.26,160.54 912.47,155.28 912.69,168.11 912.91,168.70 913.13,160.62 913.34,162.45 913.56,157.93 913.78,156.79 914.00,161.78 914.22,158.94 914.43,157.47 914.65,157.73 914.87,158.81 915.09,157.73 915.30,158.87 915.52,159.17 915.74,156.03 915.96,156.50 916.18,159.77 916.39,158.46 916.61,154.85 916.83,156.81 917.05,152.65 917.26,152.73 917.48,158.83 917.70,156.43 917.92,161.17 918.13,161.97 918.35,158.63 918.57,158.32 918.79,161.38 919.01,160.37 919.22,162.39 919.44,162.65 919.66,159.84 919.88,158.84 920.09,160.13 920.31,159.28 920.53,160.85 920.75,157.49 920.97,161.47 921.18,161.70 921.40,154.86 921.62,156.06 921.84,162.25 922.05,161.02 922.27,159.71 922.49,159.69 922.71,160.47 922.93,160.61 923.14,159.78 923.36,160.17 923.58,159.02 923.80,159.74 924.01,158.86 924.23,160.25 924.45,157.91 924.67,152.59 924.89,158.90 925.10,161.77 925.32,158.62 925.54,160.10 925.76,161.82 925.97,161.14 926.19,158.46 926.41,159.25 926.63,155.30 926.85,158.29 927.06,156.75 927.28,155.78 927.50,159.53 927.72,160.69 927.93,158.87 928.15,158.80 928.37,160.10 928.59,159.27 928.81,157.66 929.02,158.21 929.24,155.90 929.46,157.27 929.68,153.79 929.89,157.16 930.11,151.17 930.33,152.36 930.55,155.02 930.77,154.60 930.98,152.84 931.20,153.34 931.42,149.58 931.64,150.53 931.85,148.94 932.07,149.64 932.29,150.97 932.51,150.30 932.73,145.02 932.94,147.41 933.16,144.81 933.38,145.09 933.60,141.06 933.81,142.66 934.03,144.98 934.25,142.05 934.47,149.23 934.69,148.89 934.90,143.59 935.12,145.32 935.34,148.89 935.56,147.55 935.77,151.36 935.99,149.38 936.21,152.58 936.43,151.56 936.65,154.98 936.86,152.42 937.08,149.61 937.30,149.47 937.52,154.17 937.73,153.45 937.95,148.46 938.17,151.00 938.39,152.75 938.61,152.29 938.82,151.24 939.04,151.43 939.26,152.11 939.48,152.36 939.69,151.28 939.91,151.65 940.13,150.45 940.35,152.46 940.57,149.12 940.78,146.95 941.00,151.95 941.22,152.86 941.44,147.41 941.65,148.14 941.87,150.87 942.09,149.83 942.31,146.71 942.53,148.39 942.74,138.88 942.96,138.24 943.18,141.27 943.40,140.94 943.61,134.12 943.83,133.54 944.05,137.03 944.27,138.31 944.48,134.98 944.70,135.04 944.92,139.48 945.14,140.00 945.36,138.35 945.57,138.37 945.79,139.72 946.01,138.60 946.23,141.85 946.44,138.98 946.66,140.21 946.88,140.17 947.10,138.93 947.32,139.23 947.53,140.67 947.75,140.64 947.97,139.66 948.19,140.53 948.40,139.11 948.62,139.09 948.84,147.45 949.06,146.92 949.28,144.85 949.49,144.61 949.71,147.15 949.93,145.91 950.15,151.44 950.36,149.72 950.58,154.29 950.80,153.69 951.02,158.88 951.24,153.35 951.45,157.82 951.67,152.29 951.89,160.73 952.11,152.65 952.32,155.13 952.54,152.92 952.76,157.07 952.98,156.98 953.20,153.65 953.41,153.24 953.63,156.04 953.85,157.03 954.07,150.83 954.28,151.89 954.50,155.20 954.72,153.88 954.94,154.74 955.16,154.68 955.37,155.60 955.59,154.87 955.81,156.93 956.03,156.25 956.24,158.71 956.46,158.66 956.68,163.64 956.90,161.17 957.12,158.32 957.33,156.90 957.55,160.93 957.77,160.04 957.99,156.48 958.20,156.59 958.42,159.45 958.64,160.62 958.86,154.86 959.08,154.78 959.29,156.50 959.51,156.40 959.73,152.34 959.95,152.19 960.16,157.37 960.38,156.97 960.60,159.44 960.82,158.41 961.04,171.59 961.25,168.00 961.47,177.49 961.69,175.43 961.91,172.22 962.12,175.81 962.34,168.62 962.56,169.25 962.78,172.35 963.00,172.28 963.21,185.36 963.43,190.66 963.65,183.86 963.87,187.93 964.08,184.35 964.30,185.38 964.52,192.05 964.74,188.10 964.96,198.62 965.17,197.00 965.39,186.24 965.61,188.44 965.83,184.30 966.04,184.69 966.26,188.95 966.48,185.71 966.70,197.86 966.92,203.48 967.13,191.26 967.35,191.58 967.57,195.05 967.79,193.57 968.00,206.29 968.22,202.26 968.44,213.01 968.66,207.86 968.88,225.16 969.09,219.16 969.31,250.91 969.53,239.96 969.75,225.25 969.96,229.17 970.18,210.22 970.40,208.44 970.62,214.98 970.84,208.84 971.05,222.37 971.27,219.44 971.49,215.30 971.71,215.25 971.92,217.74 972.14,216.18 972.36,208.90 972.58,207.55 972.79,213.53 973.01,209.41 973.23,217.35 973.45,219.46 973.67,211.14 973.88,210.44 974.10,216.22 974.32,214.55 974.54,219.33 974.75,220.95 974.97,214.32 975.19,216.56 975.41,225.59 975.63,219.43 975.84,228.46 976.06,228.29 976.28,220.34 976.50,225.70 976.71,220.92 976.93,219.72 977.15,230.98 977.37,230.52 977.59,225.67 977.80,228.07 978.02,222.81 978.24,223.81 978.46,216.31 978.67,218.43 978.89,215.46 979.11,212.33 979.33,216.59 979.55,213.30 979.76,216.11 979.98,216.28 980.20,210.94 980.42,212.79 980.63,220.55 980.85,217.38 981.07,220.41 981.29,214.28 981.51,220.07 981.72,223.15 981.94,217.61 982.16,217.10 982.38,220.98 982.59,219.85 982.81,225.63 983.03,220.44 983.25,224.92 983.47,219.72 983.68,223.98 983.90,220.66 984.12,228.33 984.34,227.31 984.55,223.92 984.77,223.85 984.99,229.22 985.21,227.84 985.43,223.23 985.64,224.03 985.86,220.34 986.08,220.12 986.30,226.39 986.51,222.57 986.73,220.64 986.95,222.39 987.17,220.09 987.39,220.55 987.60,218.71 987.82,219.93 988.04,221.60 988.26,220.21 988.47,223.36 988.69,221.97 988.91,231.71 989.13,234.07 989.35,226.50 989.56,226.62 989.78,234.43 990.00,232.03 990.22,239.57 990.43,237.56 990.65,240.64 990.87,240.27 991.09,233.55 991.31,236.16 991.52,227.42 991.74,231.96 991.96,220.00 992.18,215.87 992.39,222.14 992.61,218.45 992.83,221.68 993.05,219.82 993.27,226.05 993.48,224.88 993.70,220.52 993.92,220.96 994.14,229.14 994.35,227.35 994.57,231.99 994.79,228.19 995.01,238.65 995.23,237.98 995.44,231.33 995.66,232.09 995.88,220.80 996.10,221.88 996.31,227.16 996.53,223.85 996.75,231.22 996.97,231.35 997.19,224.71 997.40,230.43 997.62,223.70 997.84,221.97 998.06,214.54 998.27,217.07 998.49,224.75 998.71,227.21 998.93,217.92 999.14,218.24 999.36,221.46 999.58,222.74 999.80,207.82 1000.02,211.32 1000.23,200.72 1000.45,202.43 1000.67,206.86 1000.89,202.26 1001.10,209.70 1001.32,208.28 1001.54,211.71 1001.76,209.46 1001.98,213.51 1002.19,211.39 1002.41,221.65 1002.63,221.71 1002.85,219.23 1003.06,222.92 1003.28,220.39 1003.50,220.84 1003.72,224.52 1003.94,223.16 1004.15,225.97 1004.37,220.70 1004.59,224.72 1004.81,223.17 1005.02,229.50 1005.24,228.14 1005.46,219.79 1005.68,223.06 1005.90,216.08 1006.11,219.59 1006.33,212.12 1006.55,209.87 1006.77,214.84 1006.98,215.85 1007.20,208.02 1007.42,213.23 1007.64,215.76 1007.86,217.43 1008.07,210.63 1008.29,209.79 1008.51,214.76 1008.73,216.64 1008.94,212.44 1009.16,211.71 1009.38,215.92 1009.60,213.95 1009.82,207.46 1010.03,209.82 1010.25,201.21 1010.47,201.37 1010.69,211.80 1010.90,209.66 1011.12,212.49 1011.34,212.52 1011.56,210.84 1011.78,212.07 1011.99,208.53 1012.21,209.52 1012.43,207.50 1012.65,209.65 1012.86,207.39 1013.08,208.46 1013.30,199.54 1013.52,204.25 1013.74,199.49 1013.95,203.10 1014.17,196.11 1014.39,194.44 1014.61,201.08 1014.82,202.12 1015.04,198.43 1015.26,198.19 1015.48,201.99 1015.70,198.80 1015.91,205.98 1016.13,205.53 1016.35,211.95 1016.57,208.72 1016.78,211.89 1017.00,211.84 1017.22,217.88 1017.44,217.01 1017.66,211.70 1017.87,213.76 1018.09,209.71 1018.31,211.39 1018.53,215.74 1018.74,214.75 1018.96,211.12 1019.18,211.06 1019.40,212.25 1019.62,210.57 1019.83,213.19 1020.05,212.88 1020.27,219.46 1020.49,216.90 1020.70,220.28 1020.92,218.13 1021.14,223.14 1021.36,217.88 1021.58,222.30 1021.79,219.65 1022.01,208.29 1022.23,210.66 1022.45,213.03 1022.66,209.54 1022.88,213.79 1023.10,217.72 1023.32,212.20 1023.54,212.95 1023.75,209.81 1023.97,207.48 1024.19,211.70 1024.41,211.63 1024.62,209.23 1024.84,210.75 1025.06,216.09 1025.28,214.78 1025.49,220.33 1025.71,216.81 1025.93,219.90 1026.15,217.80 1026.37,229.21 1026.58,226.34 1026.80,229.72 1027.02,228.28 1027.24,226.18 1027.45,227.75 1027.67,223.75 1027.89,224.63 1028.11,227.06 1028.33,224.43 1028.54,226.72 1028.76,225.13 1028.98,227.52 1029.20,231.77 1029.41,221.93 1029.63,220.95 1029.85,224.18 1030.07,221.70 1030.29,227.35 1030.50,219.86 1030.72,226.30 1030.94,227.80 1031.16,219.45 1031.37,219.71 1031.59,222.46 1031.81,221.12 1032.03,216.73 1032.25,220.99 1032.46,217.26 1032.68,218.87 1032.90,227.21 1033.12,229.01 1033.33,224.43 1033.55,223.34 1033.77,225.99 1033.99,227.15 1034.21,223.63 1034.42,224.21 1034.64,226.40 1034.86,225.41 1035.08,224.76 1035.29,225.33 1035.51,223.92 1035.73,224.35 1035.95,222.78 1036.17,222.96 1036.38,225.85 1036.60,225.71 1036.82,222.83 1037.04,223.93 1037.25,216.32 1037.47,218.25 1037.69,213.87 1037.91,216.83 1038.13,213.28 1038.34,214.20 1038.56,219.64 1038.78,216.83 1039.00,220.48 1039.21,221.56 1039.43,208.90 1039.65,204.76 1039.87,209.67 1040.09,205.12 1040.30,211.05 1040.52,207.58 1040.74,212.20 1040.96,211.46 1041.17,208.83 1041.39,211.95 1041.61,205.66 1041.83,204.57 1042.05,208.53 1042.26,209.16 1042.48,203.69 1042.70,205.73 1042.92,202.75 1043.13,203.79 1043.35,205.06 1043.57,205.28 1043.79,203.41 1044.01,201.62 1044.22,209.27 1044.44,207.80 1044.66,209.35 1044.88,208.99 1045.09,211.59 1045.31,209.41 1045.53,212.06 1045.75,212.00 1045.97,205.93 1046.18,208.15 1046.40,198.11 1046.62,200.17 1046.84,197.69 1047.05,199.70 1047.27,194.69 1047.49,201.12 1047.71,198.25 1047.93,201.99 1048.14,199.19 1048.36,201.79 1048.58,196.96 1048.80,196.51 1049.01,199.04 1049.23,197.22 1049.45,202.52 1049.67,200.78 1049.89,196.09 1050.10,198.76 1050.32,193.32 1050.54,196.81 1050.76,187.46 1050.97,189.29 1051.19,191.29 1051.41,190.39 1051.63,194.78 1051.85,193.25 1052.06,195.65 1052.28,194.68 1052.50,197.49 1052.72,197.42 1052.93,193.92 1053.15,195.47 1053.37,201.31 1053.59,200.27 1053.80,196.19 1054.02,198.07 1054.24,192.79 1054.46,192.82 1054.68,195.79 1054.89,195.11 1055.11,191.60 1055.33,192.76 1055.55,197.85 1055.76,194.94 1055.98,187.16 1056.20,188.14 1056.42,183.59 1056.64,184.56 1056.85,188.31 1057.07,187.02 1057.29,190.39 1057.51,186.19 1057.72,190.47 1057.94,186.55 1058.16,189.46 1058.38,189.69 1058.60,186.73 1058.81,187.84 1059.03,190.19 1059.25,190.08 1059.47,188.93 1059.68,188.37 1059.90,190.35 1060.12,190.47 1060.34,189.10 1060.56,189.96 1060.77,187.51 1060.99,188.48 1061.21,186.76 1061.43,183.79 1061.64,188.78 1061.86,187.29 1062.08,192.25 1062.30,192.40 1062.52,189.68 1062.73,189.80 1062.95,192.66 1063.17,192.04 1063.39,195.02 1063.60,193.95 1063.82,190.83 1064.04,191.31 1064.26,188.32 1064.48,190.51 1064.69,197.36 1064.91,193.00 1065.13,196.05 1065.35,194.98 1065.56,192.21 1065.78,193.77 1066.00,192.65" fill="none" stroke="#3b7f5f" stroke-width="1.25" stroke-linejoin="round" stroke-linecap="round"/>
<text transform="translate(18,215.0) rotate(-90)" text-anchor="middle" font-family="Arial, sans-serif" font-size="13" fill="#222222">log(close)</text>
<line x1="88.00" y1="372.00" x2="88.00" y2="377.00" stroke="#222222" stroke-width="1"/>
<text x="88.00" y="394.00" text-anchor="middle" font-family="Arial, sans-serif" font-size="11" fill="#333333">2024-01-02</text>
<line x1="577.11" y1="372.00" x2="577.11" y2="377.00" stroke="#222222" stroke-width="1"/>
<text x="577.11" y="394.00" text-anchor="middle" font-family="Arial, sans-serif" font-size="11" fill="#333333">2025-03-02</text>
<line x1="1066.00" y1="372.00" x2="1066.00" y2="377.00" stroke="#222222" stroke-width="1"/>
<text x="1066.00" y="394.00" text-anchor="middle" font-family="Arial, sans-serif" font-size="11" fill="#333333">2026-04-30</text>
<text x="577.00" y="415.00" text-anchor="middle" font-family="Arial, sans-serif" font-size="13" fill="#222222">Tiempo</text>
</svg>