<svg xmlns="http://www.w3.org/2000/svg" width="1040" height="430" viewBox="0 0 1040 430">
<rect x="0" y="0" width="1040" height="430" fill="#ffffff"/>
<text x="520.0" y="28" text-anchor="middle" font-family="Arial, sans-serif" font-size="18" font-weight="700">Informacion mutua media para seleccionar tau</text>
<rect x="78" y="58" width="924.00" height="314.00" fill="none" stroke="#222222" stroke-width="1"/>
<line x1="78" y1="372.00" x2="1002.00" y2="372.00" stroke="#e8e8e8" stroke-width="1"/>
<text x="70" y="376.00" text-anchor="end" font-family="Arial, sans-serif" font-size="11">0</text>
<line x1="78" y1="293.50" x2="1002.00" y2="293.50" stroke="#e8e8e8" stroke-width="1"/>
<text x="70" y="297.50" text-anchor="end" font-family="Arial, sans-serif" font-size="11">0.4912</text>
<line x1="78" y1="215.00" x2="1002.00" y2="215.00" stroke="#e8e8e8" stroke-width="1"/>
<text x="70" y="219.00" text-anchor="end" font-family="Arial, sans-serif" font-size="11">0.9824</text>
<line x1="78" y1="136.50" x2="1002.00" y2="136.50" stroke="#e8e8e8" stroke-width="1"/>
<text x="70" y="140.50" text-anchor="end" font-family="Arial, sans-serif" font-size="11">1.474</text>
<line x1="78" y1="58.00" x2="1002.00" y2="58.00" stroke="#e8e8e8" stroke-width="1"/>
<text x="70" y="62.00" text-anchor="end" font-family="Arial, sans-serif" font-size="11">1.965</text>
<line x1="515.85" y1="58" x2="515.85" y2="372.00" stroke="#8a2222" stroke-width="1" stroke-dasharray="5,4"/>
<text x="519.85" y="73" font-family="Arial, sans-serif" font-size="11" fill="#8a2222">tau=137</text>
<polyline points="78.00,81.26 81.22,151.26 84.44,191.55 87.66,219.60 90.88,240.77 94.10,257.56 97.32,271.30 100.54,282.75 103.76,292.40 106.98,300.67 110.20,307.75 113.41,313.92 116.63,316.41 119.85,318.52 123.07,320.40 126.29,322.07 129.51,323.68 132.73,325.12 135.95,326.50 139.17,327.77 142.39,328.98 145.61,330.06 148.83,331.15 152.05,332.16 155.27,333.13 158.49,334.09 161.71,334.94 164.93,335.77 168.15,336.52 171.37,337.31 174.59,338.01 177.80,338.69 181.02,339.35 184.24,339.99 187.46,340.60 190.68,341.12 193.90,341.66 197.12,342.17 200.34,342.62 203.56,343.06 206.78,343.47 210.00,343.93 213.22,344.34 216.44,344.73 219.66,345.07 222.88,345.43 226.10,345.81 229.32,346.14 232.54,346.50 235.76,346.86 238.98,347.09 242.20,347.43 245.41,347.75 248.63,348.05 251.85,348.31 255.07,348.61 258.29,348.89 261.51,349.14 264.73,349.35 267.95,349.50 271.17,349.74 274.39,349.97 277.61,350.14 280.83,350.29 284.05,350.46 287.27,350.66 290.49,350.84 293.71,351.03 296.93,351.23 300.15,351.42 303.37,351.68 306.59,351.90 309.80,352.20 313.02,352.45 316.24,352.74 319.46,352.95 322.68,353.24 325.90,353.51 329.12,353.85 332.34,354.14 335.56,354.41 338.78,354.63 342.00,354.91 345.22,355.14 348.44,355.33 351.66,355.56 354.88,355.78 358.10,355.99 361.32,356.24 364.54,356.52 367.76,356.80 370.98,357.05 374.20,357.23 377.41,357.45 380.63,357.70 383.85,357.90 387.07,358.04 390.29,358.20 393.51,358.42 396.73,358.63 399.95,358.82 403.17,359.00 406.39,359.17 409.61,359.31 412.83,359.41 416.05,359.57 419.27,359.76 422.49,359.93 425.71,360.02 428.93,360.14 432.15,360.27 435.37,360.38 438.59,360.49 441.80,360.54 445.02,360.66 448.24,360.74 451.46,360.80 454.68,360.85 457.90,360.88 461.12,360.92 464.34,361.00 467.56,361.06 470.78,361.09 474.00,361.16 477.22,361.22 480.44,361.27 483.66,361.31 486.88,361.36 490.10,361.39 493.32,361.43 496.54,361.52 499.76,361.62 502.98,361.65 506.20,361.70 509.41,361.75 512.63,361.79 515.85,361.83 519.07,361.78 522.29,361.80 525.51,361.82 528.73,361.89 531.95,361.94 535.17,361.94 538.39,361.93 541.61,362.02 544.83,362.09 548.05,362.10 551.27,362.14 554.49,362.23 557.71,362.31 560.93,362.40 564.15,362.48 567.37,362.58 570.59,362.71 573.80,362.81 577.02,362.85 580.24,363.00 583.46,363.06 586.68,363.14 589.90,363.21 593.12,363.28 596.34,363.36 599.56,363.45 602.78,363.52 606.00,363.52 609.22,363.54 612.44,363.56 615.66,363.59 618.88,363.67 622.10,363.69 625.32,363.72 628.54,363.77 631.76,363.85 634.98,363.87 638.20,363.91 641.41,363.96 644.63,364.00 647.85,363.97 651.07,363.95 654.29,363.95 657.51,363.93 660.73,363.90 663.95,363.86 667.17,363.87 670.39,363.87 673.61,363.79 676.83,363.71 680.05,363.60 683.27,363.55 686.49,363.43 689.71,363.40 692.93,363.28 696.15,363.17 699.37,363.06 702.59,362.97 705.80,362.88 709.02,362.83 712.24,362.76 715.46,362.74 718.68,362.68 721.90,362.63 725.12,362.59 728.34,362.59 731.56,362.53 734.78,362.57 738.00,362.55 741.22,362.51 744.44,362.43 747.66,362.35 750.88,362.28 754.10,362.27 757.32,362.21 760.54,362.13 763.76,362.11 766.98,362.09 770.20,362.02 773.41,362.00 776.63,361.92 779.85,361.89 783.07,361.82 786.29,361.80 789.51,361.78 792.73,361.78 795.95,361.67 799.17,361.64 802.39,361.64 805.61,361.65 808.83,361.62 812.05,361.58 815.27,361.63 818.49,361.62 821.71,361.61 824.93,361.59 828.15,361.59 831.37,361.60 834.59,361.65 837.80,361.63 841.02,361.64 844.24,361.58 847.46,361.57 850.68,361.51 853.90,361.47 857.12,361.48 860.34,361.46 863.56,361.41 866.78,361.31 870.00,361.25 873.22,361.20 876.44,361.14 879.66,361.08 882.88,361.02 886.10,360.96 889.32,360.86 892.54,360.78 895.76,360.70 898.98,360.61 902.20,360.48 905.41,360.32 908.63,360.22 911.85,360.10 915.07,360.01 918.29,359.84 921.51,359.69 924.73,359.55 927.95,359.35 931.17,359.18 934.39,358.96 937.61,358.81 940.83,358.66 944.05,358.42 947.27,358.23 950.49,358.05 953.71,357.83 956.93,357.63 960.15,357.46 963.37,357.28 966.59,357.08 969.80,356.92 973.02,356.74 976.24,356.59 979.46,356.48 982.68,356.37 985.90,356.29 989.12,356.16 992.34,356.13 995.56,356.11 998.78,356.15 1002.00,356.18" fill="none" stroke="#5f6b7a" stroke-width="2" stroke-linejoin="round" stroke-linecap="round"/>
<circle cx="78.00" cy="81.26" r="2.2" fill="#5f6b7a" opacity="0.85"/>
<circle cx="81.22" cy="151.26" r="2.2" fill="#5f6b7a" opacity="0.85"/>
<circle cx="84.44" cy="191.55" r="2.2" fill="#5f6b7a" opacity="0.85"/>
<circle cx="87.66" cy="219.60" r="2.2" fill="#5f6b7a" opacity="0.85"/>
<circle cx="90.88" cy="240.77" r="2.2" fill="#5f6b7a" opacity="0.85"/>
<circle cx="94.10" cy="257.56" r="2.2" fill="#5f6b7a" opacity="0.85"/>
<circle cx="97.32" cy="271.30" r="2.2" fill="#5f6b7a" opacity="0.85"/>
<circle cx="100.54" cy="282.75" r="2.2" fill="#5f6b7a" opacity="0.85"/>
<circle cx="103.76" cy="292.40" r="2.2" fill="#5f6b7a" opacity="0.85"/>
<circle cx="106.98" cy="300.67" r="2.2" fill="#5f6b7a" opacity="0.85"/>
<circle cx="110.20" cy="307.75" r="2.2" fill="#5f6b7a" opacity="0.85"/>
<circle cx="113.41" cy="313.92" r="2.2" fill="#5f6b7a" opacity="0.85"/>
<circle cx="116.63" cy="316.41" r="2.2" fill="#5f6b7a" opacity="0.85"/>
<circle cx="119.85" cy="318.52" r="2.2" fill="#5f6b7a" opacity="0.85"/>
<circle cx="123.07" cy="320.40" r="2.2" fill="#5f6b7a" opacity="0.85"/>
<circle cx="126.29" cy="322.07" r="2.2" fill="#5f6b7a" opacity="0.85"/>
<circle cx="129.51" cy="323.68" r="2.2" fill="#5f6b7a" opacity="0.85"/>
<circle cx="132.73" cy="325.12" r="2.2" fill="#5f6b7a" opacity="0.85"/>
<circle cx="135.95" cy="326.50" r="2.2" fill="#5f6b7a" opacity="0.85"/>
<circle cx="139.17" cy="327.77" r="2.2" fill="#5f6b7a" opacity="0.85"/>
<circle cx="142.39" cy="328.98" r="2.2" fill="#5f6b7a" opacity="0.85"/>
<circle cx="145.61" cy="330.06" r="2.2" fill="#5f6b7a" opacity="0.85"/>
<circle cx="148.83" cy="331.15" r="2.2" fill="#5f6b7a" opacity="0.85"/>
<circle cx="152.05" cy="332.16" r="2.2" fill="#5f6b7a" opacity="0.85"/>
<circle cx="155.27" cy="333.13" r="2.2" fill="#5f6b7a" opacity="0.85"/>
<circle cx="158.49" cy="334.09" r="2.2" fill="#5f6b7a" opacity="0.85"/>
<circle cx="161.71" cy="334.94" r="2.2" fill="#5f6b7a" opacity="0.85"/>
<circle cx="164.93" cy="335.77" r="2.2" fill="#5f6b7a" opacity="0.85"/>
<circle cx="168.15" cy="336.52" r="2.2" fill="#5f6b7a" opacity="0.85"/>
<circle cx="171.37" cy="337.31" r="2.2" fill="#5f6b7a" opacity="0.85"/>
<circle cx="174.59" cy="338.01" r="2.2" fill="#5f6b7a" opacity="0.85"/>
<circle cx="177.80" cy="338.69" r="2.2" fill="#5f6b7a" opacity="0.85"/>
<circle cx="181.02" cy="339.35" r="2.2" fill="#5f6b7a" opacity="0.85"/>
<circle cx="184.24" cy="339.99" r="2.2" fill="#5f6b7a" opacity="0.85"/>
<circle cx="187.46" cy="340.60" r="2.2" fill="#5f6b7a" opacity="0.85"/>
<circle cx="190.68" cy="341.12" r="2.2" fill="#5f6b7a" opacity="0.85"/>
<circle cx="193.90" cy="341.66" r="2.2" fill="#5f6b7a" opacity="0.85"/>
<circle cx="197.12" cy="342.17" r="2.2" fill="#5f6b7a" opacity="0.85"/>
<circle cx="200.34" cy="342.62" r="2.2" fill="#5f6b7a" opacity="0.85"/>
<circle cx="203.56" cy="343.06" r="2.2" fill="#5f6b7a" opacity="0.85"/>
<circle cx="206.78" cy="343.47" r="2.2" fill="#5f6b7a" opacity="0.85"/>
<circle cx="210.00" cy="343.93" r="2.2" fill="#5f6b7a" opacity="0.85"/>
<circle cx="213.22" cy="344.34" r="2.2" fill="#5f6b7a" opacity="0.85"/>
<circle cx="216.44" cy="344.73" r="2.2" fill="#5f6b7a" opacity="0.85"/>
<circle cx="219.66" cy="345.07" r="2.2" fill="#5f6b7a" opacity="0.85"/>
<circle cx="222.88" cy="345.43" r="2.2" fill="#5f6b7a" opacity="0.85"/>
<circle cx="226.10" cy="345.81" r="2.2" fill="#5f6b7a" opacity="0.85"/>
<circle cx="229.32" cy="346.14" r="2.2" fill="#5f6b7a" opacity="0.85"/>
<circle cx="232.54" cy="346.50" r="2.2" fill="#5f6b7a" opacity="0.85"/>
<circle cx="235.76" cy="346.86" r="2.2" fill="#5f6b7a" opacity="0.85"/>
<circle cx="238.98" cy="347.09" r="2.2" fill="#5f6b7a" opacity="0.85"/>
<circle cx="242.20" cy="347.43" r="2.2" fill="#5f6b7a" opacity="0.85"/>
<circle cx="245.41" cy="347.75" r="2.2" fill="#5f6b7a" opacity="0.85"/>
<circle cx="248.63" cy="348.05" r="2.2" fill="#5f6b7a" opacity="0.85"/>
<circle cx="251.85" cy="348.31" r="2.2" fill="#5f6b7a" opacity="0.85"/>
<circle cx="255.07" cy="348.61" r="2.2" fill="#5f6b7a" opacity="0.85"/>
<circle cx="258.29" cy="348.89" r="2.2" fill="#5f6b7a" opacity="0.85"/>
<circle cx="261.51" cy="349.14" r="2.2" fill="#5f6b7a" opacity="0.85"/>
<circle cx="264.73" cy="349.35" r="2.2" fill="#5f6b7a" opacity="0.85"/>
<circle cx="267.95" cy="349.50" r="2.2" fill="#5f6b7a" opacity="0.85"/>
<circle cx="271.17" cy="349.74" r="2.2" fill="#5f6b7a" opacity="0.85"/>
<circle cx="274.39" cy="349.97" r="2.2" fill="#5f6b7a" opacity="0.85"/>
<circle cx="277.61" cy="350.14" r="2.2" fill="#5f6b7a" opacity="0.85"/>
<circle cx="280.83" cy="350.29" r="2.2" fill="#5f6b7a" opacity="0.85"/>
<circle cx="284.05" cy="350.46" r="2.2" fill="#5f6b7a" opacity="0.85"/>
<circle cx="287.27" cy="350.66" r="2.2" fill="#5f6b7a" opacity="0.85"/>
<circle cx="290.49" cy="350.84" r="2.2" fill="#5f6b7a" opacity="0.85"/>
<circle cx="293.71" cy="351.03" r="2.2" fill="#5f6b7a" opacity="0.85"/>
<circle cx="296.93" cy="351.23" r="2.2" fill="#5f6b7a" opacity="0.85"/>
<circle cx="300.15" cy="351.42" r="2.2" fill="#5f6b7a" opacity="0.85"/>
<circle cx="303.37" cy="351.68" r="2.2" fill="#5f6b7a" opacity="0.85"/>
<circle cx="306.59" cy="351.90" r="2.2" fill="#5f6b7a" opacity="0.85"/>
<circle cx="309.80" cy="352.20" r="2.2" fill="#5f6b7a" opacity="0.85"/>
<circle cx="313.02" cy="352.45" r="2.2" fill="#5f6b7a" opacity="0.85"/>
<circle cx="316.24" cy="352.74" r="2.2" fill="#5f6b7a" opacity="0.85"/>
<circle cx="319.46" cy="352.95" r="2.2" fill="#5f6b7a" opacity="0.85"/>
<circle cx="322.68" cy="353.24" r="2.2" fill="#5f6b7a" opacity="0.85"/>
<circle cx="325.90" cy="353.51" r="2.2" fill="#5f6b7a" opacity="0.85"/>
<circle cx="329.12" cy="353.85" r="2.2" fill="#5f6b7a" opacity="0.85"/>
<circle cx="332.34" cy="354.14" r="2.2" fill="#5f6b7a" opacity="0.85"/>
<circle cx="335.56" cy="354.41" r="2.2" fill="#5f6b7a" opacity="0.85"/>
<circle cx="338.78" cy="354.63" r="2.2" fill="#5f6b7a" opacity="0.85"/>
<circle cx="342.00" cy="354.91" r="2.2" fill="#5f6b7a" opacity="0.85"/>
<circle cx="345.22" cy="355.14" r="2.2" fill="#5f6b7a" opacity="0.85"/>
<circle cx="348.44" cy="355.33" r="2.2" fill="#5f6b7a" opacity="0.85"/>
<circle cx="351.66" cy="355.56" r="2.2" fill="#5f6b7a" opacity="0.85"/>
<circle cx="354.88" cy="355.78" r="2.2" fill="#5f6b7a" opacity="0.85"/>
<circle cx="358.10" cy="355.99" r="2.2" fill="#5f6b7a" opacity="0.85"/>
<circle cx="361.32" cy="356.24" r="2.2" fill="#5f6b7a" opacity="0.85"/>
<circle cx="364.54" cy="356.52" r="2.2" fill="#5f6b7a" opacity="0.85"/>
<circle cx="367.76" cy="356.80" r="2.2" fill="#5f6b7a" opacity="0.85"/>
<circle cx="370.98" cy="357.05" r="2.2" fill="#5f6b7a" opacity="0.85"/>
<circle cx="374.20" cy="357.23" r="2.2" fill="#5f6b7a" opacity="0.85"/>
<circle cx="377.41" cy="357.45" r="2.2" fill="#5f6b7a" opacity="0.85"/>
<circle cx="380.63" cy="357.70" r="2.2" fill="#5f6b7a" opacity="0.85"/>
<circle cx="383.85" cy="357.90" r="2.2" fill="#5f6b7a" opacity="0.85"/>
<circle cx="387.07" cy="358.04" r="2.2" fill="#5f6b7a" opacity="0.85"/>
<circle cx="390.29" cy="358.20" r="2.2" fill="#5f6b7a" opacity="0.85"/>
<circle cx="393.51" cy="358.42" r="2.2" fill="#5f6b7a" opacity="0.85"/>
<circle cx="396.73" cy="358.63" r="2.2" fill="#5f6b7a" opacity="0.85"/>
<circle cx="399.95" cy="358.82" r="2.2" fill="#5f6b7a" opacity="0.85"/>
<circle cx="403.17" cy="359.00" r="2.2" fill="#5f6b7a" opacity="0.85"/>
<circle cx="406.39" cy="359.17" r="2.2" fill="#5f6b7a" opacity="0.85"/>
<circle cx="409.61" cy="359.31" r="2.2" fill="#5f6b7a" opacity="0.85"/>
<circle cx="412.83" cy="359.41" r="2.2" fill="#5f6b7a" opacity="0.85"/>
<circle cx="416.05" cy="359.57" r="2.2" fill="#5f6b7a" opacity="0.85"/>
<circle cx="419.27" cy="359.76" r="2.2" fill="#5f6b7a" opacity="0.85"/>
<circle cx="422.49" cy="359.93" r="2.2" fill="#5f6b7a" opacity="0.85"/>
<circle cx="425.71" cy="360.02" r="2.2" fill="#5f6b7a" opacity="0.85"/>
<circle cx="428.93" cy="360.14" r="2.2" fill="#5f6b7a" opacity="0.85"/>
<circle cx="432.15" cy="360.27" r="2.2" fill="#5f6b7a" opacity="0.85"/>
<circle cx="435.37" cy="360.38" r="2.2" fill="#5f6b7a" opacity="0.85"/>
<circle cx="438.59" cy="360.49" r="2.2" fill="#5f6b7a" opacity="0.85"/>
<circle cx="441.80" cy="360.54" r="2.2" fill="#5f6b7a" opacity="0.85"/>
<circle cx="445.02" cy="360.66" r="2.2" fill="#5f6b7a" opacity="0.85"/>
<circle cx="448.24" cy="360.74" r="2.2" fill="#5f6b7a" opacity="0.85"/>
<circle cx="451.46" cy="360.80" r="2.2" fill="#5f6b7a" opacity="0.85"/>
<circle cx="454.68" cy="360.85" r="2.2" fill="#5f6b7a" opacity="0.85"/>
<circle cx="457.90" cy="360.88" r="2.2" fill="#5f6b7a" opacity="0.85"/>
<circle cx="461.12" cy="360.92" r="2.2" fill="#5f6b7a" opacity="0.85"/>
<circle cx="464.34" cy="361.00" r="2.2" fill="#5f6b7a" opacity="0.85"/>
<circle cx="467.56" cy="361.06" r="2.2" fill="#5f6b7a" opacity="0.85"/>
<circle cx="470.78" cy="361.09" r="2.2" fill="#5f6b7a" opacity="0.85"/>
<circle cx="474.00" cy="361.16" r="2.2" fill="#5f6b7a" opacity="0.85"/>
<circle cx="477.22" cy="361.22" r="2.2" fill="#5f6b7a" opacity="0.85"/>
<circle cx="480.44" cy="361.27" r="2.2" fill="#5f6b7a" opacity="0.85"/>
<circle cx="483.66" cy="361.31" r="2.2" fill="#5f6b7a" opacity="0.85"/>
<circle cx="486.88" cy="361.36" r="2.2" fill="#5f6b7a" opacity="0.85"/>
<circle cx="490.10" cy="361.39" r="2.2" fill="#5f6b7a" opacity="0.85"/>
<circle cx="493.32" cy="361.43" r="2.2" fill="#5f6b7a" opacity="0.85"/>
<circle cx="496.54" cy="361.52" r="2.2" fill="#5f6b7a" opacity="0.85"/>
<circle cx="499.76" cy="361.62" r="2.2" fill="#5f6b7a" opacity="0.85"/>
<circle cx="502.98" cy="361.65" r="2.2" fill="#5f6b7a" opacity="0.85"/>
<circle cx="506.20" cy="361.70" r="2.2" fill="#5f6b7a" opacity="0.85"/>
<circle cx="509.41" cy="361.75" r="2.2" fill="#5f6b7a" opacity="0.85"/>
<circle cx="512.63" cy="361.79" r="2.2" fill="#5f6b7a" opacity="0.85"/>
<circle cx="515.85" cy="361.83" r="2.2" fill="#5f6b7a" opacity="0.85"/>
<circle cx="519.07" cy="361.78" r="2.2" fill="#5f6b7a" opacity="0.85"/>
<circle cx="522.29" cy="361.80" r="2.2" fill="#5f6b7a" opacity="0.85"/>
<circle cx="525.51" cy="361.82" r="2.2" fill="#5f6b7a" opacity="0.85"/>
<circle cx="528.73" cy="361.89" r="2.2" fill="#5f6b7a" opacity="0.85"/>
<circle cx="531.95" cy="361.94" r="2.2" fill="#5f6b7a" opacity="0.85"/>
<circle cx="535.17" cy="361.94" r="2.2" fill="#5f6b7a" opacity="0.85"/>
<circle cx="538.39" cy="361.93" r="2.2" fill="#5f6b7a" opacity="0.85"/>
<circle cx="541.61" cy="362.02" r="2.2" fill="#5f6b7a" opacity="0.85"/>
<circle cx="544.83" cy="362.09" r="2.2" fill="#5f6b7a" opacity="0.85"/>
<circle cx="548.05" cy="362.10" r="2.2" fill="#5f6b7a" opacity="0.85"/>
<circle cx="551.27" cy="362.14" r="2.2" fill="#5f6b7a" opacity="0.85"/>
<circle cx="554.49" cy="362.23" r="2.2" fill="#5f6b7a" opacity="0.85"/>
<circle cx="557.71" cy="362.31" r="2.2" fill="#5f6b7a" opacity="0.85"/>
<circle cx="560.93" cy="362.40" r="2.2" fill="#5f6b7a" opacity="0.85"/>
<circle cx="564.15" cy="362.48" r="2.2" fill="#5f6b7a" opacity="0.85"/>
<circle cx="567.37" cy="362.58" r="2.2" fill="#5f6b7a" opacity="0.85"/>
<circle cx="570.59" cy="362.71" r="2.2" fill="#5f6b7a" opacity="0.85"/>
<circle cx="573.80" cy="362.81" r="2.2" fill="#5f6b7a" opacity="0.85"/>
<circle cx="577.02" cy="362.85" r="2.2" fill="#5f6b7a" opacity="0.85"/>
<circle cx="580.24" cy="363.00" r="2.2" fill="#5f6b7a" opacity="0.85"/>
<circle cx="583.46" cy="363.06" r="2.2" fill="#5f6b7a" opacity="0.85"/>
<circle cx="586.68" cy="363.14" r="2.2" fill="#5f6b7a" opacity="0.85"/>
<circle cx="589.90" cy="363.21" r="2.2" fill="#5f6b7a" opacity="0.85"/>
<circle cx="593.12" cy="363.28" r="2.2" fill="#5f6b7a" opacity="0.85"/>
<circle cx="596.34" cy="363.36" r="2.2" fill="#5f6b7a" opacity="0.85"/>
<circle cx="599.56" cy="363.45" r="2.2" fill="#5f6b7a" opacity="0.85"/>
<circle cx="602.78" cy="363.52" r="2.2" fill="#5f6b7a" opacity="0.85"/>
<circle cx="606.00" cy="363.52" r="2.2" fill="#5f6b7a" opacity="0.85"/>
<circle cx="609.22" cy="363.54" r="2.2" fill="#5f6b7a" opacity="0.85"/>
<circle cx="612.44" cy="363.56" r="2.2" fill="#5f6b7a" opacity="0.85"/>
<circle cx="615.66" cy="363.59" r="2.2" fill="#5f6b7a" opacity="0.85"/>
<circle cx="618.88" cy="363.67" r="2.2" fill="#5f6b7a" opacity="0.85"/>
<circle cx="622.10" cy="363.69" r="2.2" fill="#5f6b7a" opacity="0.85"/>
<circle cx="625.32" cy="363.72" r="2.2" fill="#5f6b7a" opacity="0.85"/>
<circle cx="628.54" cy="363.77" r="2.2" fill="#5f6b7a" opacity="0.85"/>
<circle cx="631.76" cy="363.85" r="2.2" fill="#5f6b7a" opacity="0.85"/>
<circle cx="634.98" cy="363.87" r="2.2" fill="#5f6b7a" opacity="0.85"/>
<circle cx="638.20" cy="363.91" r="2.2" fill="#5f6b7a" opacity="0.85"/>
<circle cx="641.41" cy="363.96" r="2.2" fill="#5f6b7a" opacity="0.85"/>
<circle cx="644.63" cy="364.00" r="2.2" fill="#5f6b7a" opacity="0.85"/>
<circle cx="647.85" cy="363.97" r="2.2" fill="#5f6b7a" opacity="0.85"/>
<circle cx="651.07" cy="363.95" r="2.2" fill="#5f6b7a" opacity="0.85"/>
<circle cx="654.29" cy="363.95" r="2.2" fill="#5f6b7a" opacity="0.85"/>
<circle cx="657.51" cy="363.93" r="2.2" fill="#5f6b7a" opacity="0.85"/>
<circle cx="660.73" cy="363.90" r="2.2" fill="#5f6b7a" opacity="0.85"/>
<circle cx="663.95" cy="363.86" r="2.2" fill="#5f6b7a" opacity="0.85"/>
<circle cx="667.17" cy="363.87" r="2.2" fill="#5f6b7a" opacity="0.85"/>
<circle cx="670.39" cy="363.87" r="2.2" fill="#5f6b7a" opacity="0.85"/>
<circle cx="673.61" cy="363.79" r="2.2" fill="#5f6b7a" opacity="0.85"/>
<circle cx="676.83" cy="363.71" r="2.2" fill="#5f6b7a" opacity="0.85"/>
<circle cx="680.05" cy="363.60" r="2.2" fill="#5f6b7a" opacity="0.85"/>
<circle cx="683.27" cy="363.55" r="2.2" fill="#5f6b7a" opacity="0.85"/>
<circle cx="686.49" cy="363.43" r="2.2" fill="#5f6b7a" opacity="0.85"/>
<circle cx="689.71" cy="363.40" r="2.2" fill="#5f6b7a" opacity="0.85"/>
<circle cx="692.93" cy="363.28" r="2.2" fill="#5f6b7a" opacity="0.85"/>
<circle cx="696.15" cy="363.17" r="2.2" fill="#5f6b7a" opacity="0.85"/>
<circle cx="699.37" cy="363.06" r="2.2" fill="#5f6b7a" opacity="0.85"/>
<circle cx="702.59" cy="362.97" r="2.2" fill="#5f6b7a" opacity="0.85"/>
<circle cx="705.80" cy="362.88" r="2.2" fill="#5f6b7a" opacity="0.85"/>
<circle cx="709.02" cy="362.83" r="2.2" fill="#5f6b7a" opacity="0.85"/>
<circle cx="712.24" cy="362.76" r="2.2" fill="#5f6b7a" opacity="0.85"/>
<circle cx="715.46" cy="362.74" r="2.2" fill="#5f6b7a" opacity="0.85"/>
<circle cx="718.68" cy="362.68" r="2.2" fill="#5f6b7a" opacity="0.85"/>
<circle cx="721.90" cy="362.63" r="2.2" fill="#5f6b7a" opacity="0.85"/>
<circle cx="725.12" cy="362.59" r="2.2" fill="#5f6b7a" opacity="0.85"/>
<circle cx="728.34" cy="362.59" r="2.2" fill="#5f6b7a" opacity="0.85"/>
<circle cx="731.56" cy="362.53" r="2.2" fill="#5f6b7a" opacity="0.85"/>
<circle cx="734.78" cy="362.57" r="2.2" fill="#5f6b7a" opacity="0.85"/>
<circle cx="738.00" cy="362.55" r="2.2" fill="#5f6b7a" opacity="0.85"/>
<circle cx="741.22" cy="362.51" r="2.2" fill="#5f6b7a" opacity="0.85"/>
<circle cx="744.44" cy="362.43" r="2.2" fill="#5f6b7a" opacity="0.85"/>
<circle cx="747.66" cy="362.35" r="2.2" fill="#5f6b7a" opacity="0.85"/>
<circle cx="750.88" cy="362.28" r="2.2" fill="#5f6b7a" opacity="0.85"/>
<circle cx="754.10" cy="362.27" r="2.2" fill="#5f6b7a" opacity="0.85"/>
<circle cx="757.32" cy="362.21" r="2.2" fill="#5f6b7a" opacity="0.85"/>
<circle cx="760.54" cy="362.13" r="2.2" fill="#5f6b7a" opacity="0.85"/>
<circle cx="763.76" cy="362.11" r="2.2" fill="#5f6b7a" opacity="0.85"/>
<circle cx="766.98" cy="362.09" r="2.2" fill="#5f6b7a" opacity="0.85"/>
<circle cx="770.20" cy="362.02" r="2.2" fill="#5f6b7a" opacity="0.85"/>
<circle cx="773.41" cy="362.00" r="2.2" fill="#5f6b7a" opacity="0.85"/>
<circle cx="776.63" cy="361.92" r="2.2" fill="#5f6b7a" opacity="0.85"/>
<circle cx="779.85" cy="361.89" r="2.2" fill="#5f6b7a" opacity="0.85"/>
<circle cx="783.07" cy="361.82" r="2.2" fill="#5f6b7a" opacity="0.85"/>
<circle cx="786.29" cy="361.80" r="2.2" fill="#5f6b7a" opacity="0.85"/>
<circle cx="789.51" cy="361.78" r="2.2" fill="#5f6b7a" opacity="0.85"/>
<circle cx="792.73" cy="361.78" r="2.2" fill="#5f6b7a" opacity="0.85"/>
<circle cx="795.95" cy="361.67" r="2.2" fill="#5f6b7a" opacity="0.85"/>
<circle cx="799.17" cy="361.64" r="2.2" fill="#5f6b7a" opacity="0.85"/>
<circle cx="802.39" cy="361.64" r="2.2" fill="#5f6b7a" opacity="0.85"/>
<circle cx="805.61" cy="361.65" r="2.2" fill="#5f6b7a" opacity="0.85"/>
<circle cx="808.83" cy="361.62" r="2.2" fill="#5f6b7a" opacity="0.85"/>
<circle cx="812.05" cy="361.58" r="2.2" fill="#5f6b7a" opacity="0.85"/>
<circle cx="815.27" cy="361.63" r="2.2" fill="#5f6b7a" opacity="0.85"/>
<circle cx="818.49" cy="361.62" r="2.2" fill="#5f6b7a" opacity="0.85"/>
<circle cx="821.71" cy="361.61" r="2.2" fill="#5f6b7a" opacity="0.85"/>
<circle cx="824.93" cy="361.59" r="2.2" fill="#5f6b7a" opacity="0.85"/>
<circle cx="828.15" cy="361.59" r="2.2" fill="#5f6b7a" opacity="0.85"/>
<circle cx="831.37" cy="361.60" r="2.2" fill="#5f6b7a" opacity="0.85"/>
<circle cx="834.59" cy="361.65" r="2.2" fill="#5f6b7a" opacity="0.85"/>
<circle cx="837.80" cy="361.63" r="2.2" fill="#5f6b7a" opacity="0.85"/>
<circle cx="841.02" cy="361.64" r="2.2" fill="#5f6b7a" opacity="0.85"/>
<circle cx="844.24" cy="361.58" r="2.2" fill="#5f6b7a" opacity="0.85"/>
<circle cx="847.46" cy="361.57" r="2.2" fill="#5f6b7a" opacity="0.85"/>
<circle cx="850.68" cy="361.51" r="2.2" fill="#5f6b7a" opacity="0.85"/>
<circle cx="853.90" cy="361.47" r="2.2" fill="#5f6b7a" opacity="0.85"/>
<circle cx="857.12" cy="361.48" r="2.2" fill="#5f6b7a" opacity="0.85"/>
<circle cx="860.34" cy="361.46" r="2.2" fill="#5f6b7a" opacity="0.85"/>
<circle cx="863.56" cy="361.41" r="2.2" fill="#5f6b7a" opacity="0.85"/>
<circle cx="866.78" cy="361.31" r="2.2" fill="#5f6b7a" opacity="0.85"/>
<circle cx="870.00" cy="361.25" r="2.2" fill="#5f6b7a" opacity="0.85"/>
<circle cx="873.22" cy="361.20" r="2.2" fill="#5f6b7a" opacity="0.85"/>
<circle cx="876.44" cy="361.14" r="2.2" fill="#5f6b7a" opacity="0.85"/>
<circle cx="879.66" cy="361.08" r="2.2" fill="#5f6b7a" opacity="0.85"/>
<circle cx="882.88" cy="361.02" r="2.2" fill="#5f6b7a" opacity="0.85"/>
<circle cx="886.10" cy="360.96" r="2.2" fill="#5f6b7a" opacity="0.85"/>
<circle cx="889.32" cy="360.86" r="2.2" fill="#5f6b7a" opacity="0.85"/>
<circle cx="892.54" cy="360.78" r="2.2" fill="#5f6b7a" opacity="0.85"/>
<circle cx="895.76" cy="360.70" r="2.2" fill="#5f6b7a" opacity="0.85"/>
<circle cx="898.98" cy="360.61" r="2.2" fill="#5f6b7a" opacity="0.85"/>
<circle cx="902.20" cy="360.48" r="2.2" fill="#5f6b7a" opacity="0.85"/>
<circle cx="905.41" cy="360.32" r="2.2" fill="#5f6b7a" opacity="0.85"/>
<circle cx="908.63" cy="360.22" r="2.2" fill="#5f6b7a" opacity="0.85"/>
<circle cx="911.85" cy="360.10" r="2.2" fill="#5f6b7a" opacity="0.85"/>
<circle cx="915.07" cy="360.01" r="2.2" fill="#5f6b7a" opacity="0.85"/>
<circle cx="918.29" cy="359.84" r="2.2" fill="#5f6b7a" opacity="0.85"/>
<circle cx="921.51" cy="359.69" r="2.2" fill="#5f6b7a" opacity="0.85"/>
<circle cx="924.73" cy="359.55" r="2.2" fill="#5f6b7a" opacity="0.85"/>
<circle cx="927.95" cy="359.35" r="2.2" fill="#5f6b7a" opacity="0.85"/>
<circle cx="931.17" cy="359.18" r="2.2" fill="#5f6b7a" opacity="0.85"/>
<circle cx="934.39" cy="358.96" r="2.2" fill="#5f6b7a" opacity="0.85"/>
<circle cx="937.61" cy="358.81" r="2.2" fill="#5f6b7a" opacity="0.85"/>
<circle cx="940.83" cy="358.66" r="2.2" fill="#5f6b7a" opacity="0.85"/>
<circle cx="944.05" cy="358.42" r="2.2" fill="#5f6b7a" opacity="0.85"/>
<circle cx="947.27" cy="358.23" r="2.2" fill="#5f6b7a" opacity="0.85"/>
<circle cx="950.49" cy="358.05" r="2.2" fill="#5f6b7a" opacity="0.85"/>
<circle cx="953.71" cy="357.83" r="2.2" fill="#5f6b7a" opacity="0.85"/>
<circle cx="956.93" cy="357.63" r="2.2" fill="#5f6b7a" opacity="0.85"/>
<circle cx="960.15" cy="357.46" r="2.2" fill="#5f6b7a" opacity="0.85"/>
<circle cx="963.37" cy="357.28" r="2.2" fill="#5f6b7a" opacity="0.85"/>
<circle cx="966.59" cy="357.08" r="2.2" fill="#5f6b7a" opacity="0.85"/>
<circle cx="969.80" cy="356.92" r="2.2" fill="#5f6b7a" opacity="0.85"/>
<circle cx="973.02" cy="356.74" r="2.2" fill="#5f6b7a" opacity="0.85"/>
<circle cx="976.24" cy="356.59" r="2.2" fill="#5f6b7a" opacity="0.85"/>
<circle cx="979.46" cy="356.48" r="2.2" fill="#5f6b7a" opacity="0.85"/>
<circle cx="982.68" cy="356.37" r="2.2" fill="#5f6b7a" opacity="0.85"/>
<circle cx="985.90" cy="356.29" r="2.2" fill="#5f6b7a" opacity="0.85"/>
<circle cx="989.12" cy="356.16" r="2.2" fill="#5f6b7a" opacity="0.85"/>
<circle cx="992.34" cy="356.13" r="2.2" fill="#5f6b7a" opacity="0.85"/>
<circle cx="995.56" cy="356.11" r="2.2" fill="#5f6b7a" opacity="0.85"/>
<circle cx="998.78" cy="356.15" r="2.2" fill="#5f6b7a" opacity="0.85"/>
<circle cx="1002.00" cy="356.18" r="2.2" fill="#5f6b7a" opacity="0.85"/>
<text x="78.00" y="400" text-anchor="middle" font-family="Arial, sans-serif" font-size="11">1</text>
<text x="232.54" y="400" text-anchor="middle" font-family="Arial, sans-serif" font-size="11">49</text>
<text x="387.07" y="400" text-anchor="middle" font-family="Arial, sans-serif" font-size="11">97</text>
<text x="541.61" y="400" text-anchor="middle" font-family="Arial, sans-serif" font-size="11">145</text>
<text x="696.15" y="400" text-anchor="middle" font-family="Arial, sans-serif" font-size="11">193</text>
<text x="850.68" y="400" text-anchor="middle" font-family="Arial, sans-serif" font-size="11">241</text>
<text x="540.00" y="420" text-anchor="middle" font-family="Arial, sans-serif" font-size="13">tau</text>
<text transform="translate(18,215.0) rotate(-90)" text-anchor="middle" font-family="Arial, sans-serif" font-size="13">informacion mutua</text>
<g><circle cx="855.00" cy="28.00" r="4" fill="#5f6b7a"/><text x="865.00" y="32.00" font-family="Arial, sans-serif" font-size="12">AMI</text></g>
</svg>