<svg xmlns="http://www.w3.org/2000/svg" width="1080" height="460" viewBox="0 0 1080 460">
<rect x="0" y="0" width="1080" height="460" fill="#ffffff"/>
<text x="540.0" y="28" text-anchor="middle" font-family="Arial, sans-serif" font-size="18" font-weight="700">Prediccion test compacta logistic_noise_small</text>
<rect x="76" y="58" width="974.00" height="340.00" fill="none" stroke="#222222"/>
<line x1="76" y1="398.00" x2="1050.00" y2="398.00" stroke="#e8e8e8"/>
<text x="68" y="402.00" text-anchor="end" font-family="Arial, sans-serif" font-size="11">-0.08</text>
<line x1="76" y1="313.00" x2="1050.00" y2="313.00" stroke="#e8e8e8"/>
<text x="68" y="317.00" text-anchor="end" font-family="Arial, sans-serif" font-size="11">0.21</text>
<line x1="76" y1="228.00" x2="1050.00" y2="228.00" stroke="#e8e8e8"/>
<text x="68" y="232.00" text-anchor="end" font-family="Arial, sans-serif" font-size="11">0.5</text>
<line x1="76" y1="143.00" x2="1050.00" y2="143.00" stroke="#e8e8e8"/>
<text x="68" y="147.00" text-anchor="end" font-family="Arial, sans-serif" font-size="11">0.79</text>
<line x1="76" y1="58.00" x2="1050.00" y2="58.00" stroke="#e8e8e8"/>
<text x="68" y="62.00" text-anchor="end" font-family="Arial, sans-serif" font-size="11">1.08</text>
<polyline points="76.00,112.79 81.44,265.74 86.88,100.02 92.32,301.57 97.77,153.01 103.21,155.73 108.65,154.60 114.09,157.04 119.53,149.91 124.97,161.91 130.41,137.55 135.85,188.86 141.30,100.35 146.74,304.09 152.18,158.81 157.62,149.50 163.06,168.37 168.50,129.50 173.94,216.08 179.39,83.50 184.83,366.97 190.27,341.18 195.71,252.80 201.15,89.45 206.59,343.24 212.03,267.22 217.47,99.76 222.92,298.05 228.36,148.13 233.80,171.72 239.24,129.09 244.68,214.11 250.12,82.85 255.56,364.61 261.01,339.13 266.45,248.56 271.89,85.59 277.33,352.84 282.77,295.13 288.21,143.56 293.65,179.56 299.09,116.57 304.54,252.77 309.98,89.11 315.42,339.87 320.86,254.84 326.30,91.93 331.74,337.71 337.18,252.30 342.63,88.03 348.07,346.40 353.51,273.23 358.95,108.82 364.39,271.23 369.83,106.25 375.27,283.32 380.72,126.49 386.16,228.37 391.60,81.45 397.04,374.55 402.48,373.36 407.92,374.55 413.36,374.55 418.80,373.07 424.25,371.36 429.69,360.34 435.13,323.37 440.57,206.25 446.01,89.29 451.45,346.10 456.89,272.62 462.34,110.31 467.78,273.58 473.22,107.66 478.66,277.94 484.10,114.61 489.54,255.21 494.98,92.18 500.42,335.36 505.87,238.11 511.31,81.69 516.75,366.64 522.19,341.16 527.63,259.30 533.07,96.48 538.51,321.31 543.96,199.23 549.40,94.64 554.84,330.92 560.28,226.17 565.72,81.45 571.16,374.11 576.60,374.07 582.04,371.26 587.49,361.37 592.93,319.71 598.37,199.85 603.81,90.21 609.25,332.43 614.69,225.85 620.13,82.95 625.58,374.55 631.02,374.51 636.46,373.97 641.90,373.34 647.34,366.33 652.78,343.73 658.22,259.35 663.66,96.14 669.11,329.02 674.55,216.29 679.99,84.12 685.43,366.66 690.87,345.53 696.31,264.58 701.75,99.45 707.20,303.18 712.64,158.09 718.08,148.44 723.52,167.06 728.96,131.07 734.40,209.31 739.84,85.01 745.28,352.67 750.73,297.91 756.17,148.37 761.61,172.04 767.05,124.61 772.49,226.30 777.93,81.53 783.37,374.51 788.82,372.77 794.26,373.07 799.70,361.40 805.14,328.72 810.58,220.61 816.02,81.51 821.46,372.03 826.91,362.99 832.35,319.93 837.79,204.18 843.23,88.23 848.67,344.76 854.11,271.84 859.55,106.69 864.99,279.82 870.44,116.55 875.88,249.52 881.32,85.93 886.76,355.86 892.20,298.97 897.64,149.23 903.08,168.22 908.53,128.63 913.97,212.56 919.41,83.22 924.85,361.11 930.29,322.49 935.73,203.61 941.17,89.79 946.61,342.07 952.06,257.70 957.50,92.79 962.94,331.93 968.38,230.52 973.82,83.96 979.26,374.14 984.70,372.19 990.15,373.40 995.59,374.27 1001.03,369.44 1006.47,356.07 1011.91,310.10 1017.35,172.73 1022.79,122.33 1028.23,232.70 1033.68,82.74 1039.12,374.55 1044.56,370.71 1050.00,364.30" fill="none" stroke="#222222" stroke-width="1.6"/>
<polyline points="76.00,276.36 81.44,112.79 86.88,265.74 92.32,100.02 97.77,301.57 103.21,153.01 108.65,155.73 114.09,154.60 119.53,157.04 124.97,149.91 130.41,161.91 135.85,137.55 141.30,188.86 146.74,100.35 152.18,304.09 157.62,158.81 163.06,149.50 168.50,168.37 173.94,129.50 179.39,216.08 184.83,83.50 190.27,366.97 195.71,341.18 201.15,252.80 206.59,89.45 212.03,343.24 217.47,267.22 222.92,99.76 228.36,298.05 233.80,148.13 239.24,171.72 244.68,129.09 250.12,214.11 255.56,82.85 261.01,364.61 266.45,339.13 271.89,248.56 277.33,85.59 282.77,352.84 288.21,295.13 293.65,143.56 299.09,179.56 304.54,116.57 309.98,252.77 315.42,89.11 320.86,339.87 326.30,254.84 331.74,91.93 337.18,337.71 342.63,252.30 348.07,88.03 353.51,346.40 358.95,273.23 364.39,108.82 369.83,271.23 375.27,106.25 380.72,283.32 386.16,126.49 391.60,228.37 397.04,81.45 402.48,374.55 407.92,373.36 413.36,374.55 418.80,374.55 424.25,373.07 429.69,371.36 435.13,360.34 440.57,323.37 446.01,206.25 451.45,89.29 456.89,346.10 462.34,272.62 467.78,110.31 473.22,273.58 478.66,107.66 484.10,277.94 489.54,114.61 494.98,255.21 500.42,92.18 505.87,335.36 511.31,238.11 516.75,81.69 522.19,366.64 527.63,341.16 533.07,259.30 538.51,96.48 543.96,321.31 549.40,199.23 554.84,94.64 560.28,330.92 565.72,226.17 571.16,81.45 576.60,374.11 582.04,374.07 587.49,371.26 592.93,361.37 598.37,319.71 603.81,199.85 609.25,90.21 614.69,332.43 620.13,225.85 625.58,82.95 631.02,374.55 636.46,374.51 641.90,373.97 647.34,373.34 652.78,366.33 658.22,343.73 663.66,259.35 669.11,96.14 674.55,329.02 679.99,216.29 685.43,84.12 690.87,366.66 696.31,345.53 701.75,264.58 707.20,99.45 712.64,303.18 718.08,158.09 723.52,148.44 728.96,167.06 734.40,131.07 739.84,209.31 745.28,85.01 750.73,352.67 756.17,297.91 761.61,148.37 767.05,172.04 772.49,124.61 777.93,226.30 783.37,81.53 788.82,374.51 794.26,372.77 799.70,373.07 805.14,361.40 810.58,328.72 816.02,220.61 821.46,81.51 826.91,372.03 832.35,362.99 837.79,319.93 843.23,204.18 848.67,88.23 854.11,344.76 859.55,271.84 864.99,106.69 870.44,279.82 875.88,116.55 881.32,249.52 886.76,85.93 892.20,355.86 897.64,298.97 903.08,149.23 908.53,168.22 913.97,128.63 919.41,212.56 924.85,83.22 930.29,361.11 935.73,322.49 941.17,203.61 946.61,89.79 952.06,342.07 957.50,257.70 962.94,92.79 968.38,331.93 973.82,230.52 979.26,83.96 984.70,374.14 990.15,372.19 995.59,373.40 1001.03,374.27 1006.47,369.44 1011.91,356.07 1017.35,310.10 1022.79,172.73 1028.23,122.33 1033.68,232.70 1039.12,82.74 1044.56,374.55 1050.00,370.71" fill="none" stroke="#6f7f8f" stroke-width="1.6"/>
<polyline points="76.00,227.93 81.44,227.93 86.88,227.93 92.32,227.93 97.77,227.93 103.21,227.93 108.65,227.93 114.09,227.93 119.53,227.93 124.97,227.93 130.41,227.93 135.85,227.93 141.30,227.93 146.74,227.93 152.18,227.93 157.62,227.93 163.06,227.93 168.50,227.93 173.94,227.93 179.39,227.93 184.83,227.93 190.27,227.93 195.71,227.93 201.15,227.93 206.59,227.93 212.03,227.93 217.47,227.93 222.92,227.93 228.36,227.93 233.80,227.93 239.24,227.93 244.68,227.93 250.12,227.93 255.56,227.93 261.01,227.93 266.45,227.93 271.89,227.93 277.33,227.93 282.77,227.93 288.21,227.93 293.65,227.93 299.09,227.93 304.54,227.93 309.98,227.93 315.42,227.93 320.86,227.93 326.30,227.93 331.74,227.93 337.18,227.93 342.63,227.93 348.07,227.93 353.51,227.93 358.95,227.93 364.39,227.93 369.83,227.93 375.27,227.93 380.72,227.93 386.16,227.93 391.60,227.93 397.04,227.93 402.48,227.93 407.92,227.93 413.36,227.93 418.80,227.93 424.25,227.93 429.69,227.93 435.13,227.93 440.57,227.93 446.01,227.93 451.45,227.93 456.89,227.93 462.34,227.93 467.78,227.93 473.22,227.93 478.66,227.93 484.10,227.93 489.54,227.93 494.98,227.93 500.42,227.93 505.87,227.93 511.31,227.93 516.75,227.93 522.19,227.93 527.63,227.93 533.07,227.93 538.51,227.93 543.96,227.93 549.40,227.93 554.84,227.93 560.28,227.93 565.72,227.93 571.16,227.93 576.60,227.93 582.04,227.93 587.49,227.93 592.93,227.93 598.37,227.93 603.81,227.93 609.25,227.93 614.69,227.93 620.13,227.93 625.58,227.93 631.02,227.93 636.46,227.93 641.90,227.93 647.34,227.93 652.78,227.93 658.22,227.93 663.66,227.93 669.11,227.93 674.55,227.93 679.99,227.93 685.43,227.93 690.87,227.93 696.31,227.93 701.75,227.93 707.20,227.93 712.64,227.93 718.08,227.93 723.52,227.93 728.96,227.93 734.40,227.93 739.84,227.93 745.28,227.93 750.73,227.93 756.17,227.93 761.61,227.93 767.05,227.93 772.49,227.93 777.93,227.93 783.37,227.93 788.82,227.93 794.26,227.93 799.70,227.93 805.14,227.93 810.58,227.93 816.02,227.93 821.46,227.93 826.91,227.93 832.35,227.93 837.79,227.93 843.23,227.93 848.67,227.93 854.11,227.93 859.55,227.93 864.99,227.93 870.44,227.93 875.88,227.93 881.32,227.93 886.76,227.93 892.20,227.93 897.64,227.93 903.08,227.93 908.53,227.93 913.97,227.93 919.41,227.93 924.85,227.93 930.29,227.93 935.73,227.93 941.17,227.93 946.61,227.93 952.06,227.93 957.50,227.93 962.94,227.93 968.38,227.93 973.82,227.93 979.26,227.93 984.70,227.93 990.15,227.93 995.59,227.93 1001.03,227.93 1006.47,227.93 1011.91,227.93 1017.35,227.93 1022.79,227.93 1028.23,227.93 1033.68,227.93 1039.12,227.93 1044.56,227.93 1050.00,227.93" fill="none" stroke="#2a6fbb" stroke-width="1.6"/>
<polyline points="76.00,110.80 81.44,308.97 86.88,100.03 92.32,300.79 97.77,183.62 103.21,192.30 108.65,135.38 114.09,178.90 119.53,206.04 124.97,159.74 130.41,165.77 135.85,261.76 141.30,117.79 146.74,296.23 152.18,228.71 157.62,215.29 163.06,127.10 168.50,179.90 173.94,233.06 179.39,103.84 184.83,284.98 190.27,295.24 195.71,286.63 201.15,106.66 206.59,320.84 212.03,277.55 217.47,91.21 222.92,320.22 228.36,197.38 233.80,195.54 239.24,202.78 244.68,238.40 250.12,93.69 255.56,333.32 261.01,316.05 266.45,280.42 271.89,98.19 277.33,348.74 282.77,269.22 288.21,190.16 293.65,221.96 299.09,149.85 304.54,264.50 309.98,99.35 315.42,335.65 320.86,321.11 326.30,125.59 331.74,281.19 337.18,325.65 342.63,93.63 348.07,357.54 353.51,288.89 358.95,140.16 364.39,307.31 369.83,128.35 375.27,237.65 380.72,121.63 386.16,295.21 391.60,84.84 397.04,247.52 402.48,310.57 407.92,351.68 413.36,322.85 418.80,326.63 424.25,301.37 429.69,352.96 435.13,324.70 440.57,234.20 446.01,98.00 451.45,294.11 456.89,308.26 462.34,121.95 467.78,303.42 473.22,104.69 478.66,296.26 484.10,148.88 489.54,258.55 494.98,122.59 500.42,319.24 505.87,295.72 511.31,84.80 516.75,319.87 522.19,310.30 527.63,339.02 533.07,119.51 538.51,270.63 543.96,268.47 549.40,85.66 554.84,307.03 560.28,260.00 565.72,86.54 571.16,272.27 576.60,306.33 582.04,305.68 587.49,291.11 592.93,337.99 598.37,181.05 603.81,115.38 609.25,341.80 614.69,234.47 620.13,100.25 625.58,332.99 631.02,289.77 636.46,363.17 641.90,335.81 647.34,344.49 652.78,324.55 658.22,242.32 663.66,128.26 669.11,293.28 674.55,268.80 679.99,88.43 685.43,314.50 690.87,340.45 696.31,274.19 701.75,118.23 707.20,293.79 712.64,205.36 718.08,153.68 723.52,192.18 728.96,132.99 734.40,247.44 739.84,97.56 745.28,339.60 750.73,304.68 756.17,152.10 761.61,161.40 767.05,142.76 772.49,250.66 777.93,90.62 783.37,333.05 788.82,297.91 794.26,358.52 799.70,347.45 805.14,347.21 810.58,252.28 816.02,91.79 821.46,346.34 826.91,358.16 832.35,306.64 837.79,230.51 843.23,119.29 848.67,286.95 854.11,337.22 859.55,89.03 864.99,300.70 870.44,149.98 875.88,247.33 881.32,107.38 886.76,344.07 892.20,335.01 897.64,135.43 903.08,178.08 908.53,129.77 913.97,273.47 919.41,87.62 924.85,336.61 930.29,311.27 935.73,257.30 941.17,105.15 946.61,368.35 952.06,251.22 957.50,102.25 962.94,296.10 968.38,274.95 973.82,100.37 979.26,308.75 984.70,291.24 990.15,298.00 995.59,328.39 1001.03,326.76 1006.47,333.19 1011.91,287.64 1017.35,217.49 1022.79,160.45 1028.23,220.80 1033.68,91.25 1039.12,301.73 1044.56,305.53 1050.00,321.19" fill="none" stroke="#b45f06" stroke-width="1.6"/>
<g><line x1="870.00" y1="28.00" x2="898.00" y2="28.00" stroke="#222222" stroke-width="2"/><text x="906.00" y="32.00" font-family="Arial, sans-serif" font-size="12">real</text></g>
<g><line x1="870.00" y1="46.00" x2="898.00" y2="46.00" stroke="#6f7f8f" stroke-width="2"/><text x="906.00" y="50.00" font-family="Arial, sans-serif" font-size="12">persistencia</text></g>
<g><line x1="870.00" y1="64.00" x2="898.00" y2="64.00" stroke="#2a6fbb" stroke-width="2"/><text x="906.00" y="68.00" font-family="Arial, sans-serif" font-size="12">AR(0) / media</text></g>
<g><line x1="870.00" y1="82.00" x2="898.00" y2="82.00" stroke="#b45f06" stroke-width="2"/><text x="906.00" y="86.00" font-family="Arial, sans-serif" font-size="12">kNN k=5</text></g>
<line x1="76.00" y1="398.00" x2="76.00" y2="403.00" stroke="#222222"/>
<text x="76.00" y="422" text-anchor="middle" font-family="Arial, sans-serif" font-size="10">9809</text>
<line x1="320.86" y1="398.00" x2="320.86" y2="403.00" stroke="#222222"/>
<text x="320.86" y="422" text-anchor="middle" font-family="Arial, sans-serif" font-size="10">9854</text>
<line x1="565.72" y1="398.00" x2="565.72" y2="403.00" stroke="#222222"/>
<text x="565.72" y="422" text-anchor="middle" font-family="Arial, sans-serif" font-size="10">9899</text>
<line x1="810.58" y1="398.00" x2="810.58" y2="403.00" stroke="#222222"/>
<text x="810.58" y="422" text-anchor="middle" font-family="Arial, sans-serif" font-size="10">9944</text>
<line x1="1050.00" y1="398.00" x2="1050.00" y2="403.00" stroke="#222222"/>
<text x="1050.00" y="422" text-anchor="middle" font-family="Arial, sans-serif" font-size="10">9988</text>
<text x="563.00" y="450" text-anchor="middle" font-family="Arial, sans-serif" font-size="13">t</text>
<text transform="translate(18,228.0) rotate(-90)" text-anchor="middle" font-family="Arial, sans-serif" font-size="13">x[t+1]</text>
</svg>