<svg xmlns="http://www.w3.org/2000/svg" width="1080" height="460" viewBox="0 0 1080 460">
<rect x="0" y="0" width="1080" height="460" fill="#ffffff"/>
<text x="540.0" y="28" text-anchor="middle" font-family="Arial, sans-serif" font-size="18" font-weight="700">Prediccion test completa logistic_clean</text>
<rect x="76" y="58" width="974.00" height="340.00" fill="none" stroke="#222222"/>
<line x1="76" y1="398.00" x2="1050.00" y2="398.00" stroke="#e8e8e8"/>
<text x="68" y="402.00" text-anchor="end" font-family="Arial, sans-serif" font-size="11">-0.08</text>
<line x1="76" y1="313.00" x2="1050.00" y2="313.00" stroke="#e8e8e8"/>
<text x="68" y="317.00" text-anchor="end" font-family="Arial, sans-serif" font-size="11">0.21</text>
<line x1="76" y1="228.00" x2="1050.00" y2="228.00" stroke="#e8e8e8"/>
<text x="68" y="232.00" text-anchor="end" font-family="Arial, sans-serif" font-size="11">0.5</text>
<line x1="76" y1="143.00" x2="1050.00" y2="143.00" stroke="#e8e8e8"/>
<text x="68" y="147.00" text-anchor="end" font-family="Arial, sans-serif" font-size="11">0.79</text>
<line x1="76" y1="58.00" x2="1050.00" y2="58.00" stroke="#e8e8e8"/>
<text x="68" y="62.00" text-anchor="end" font-family="Arial, sans-serif" font-size="11">1.08</text>
<polyline points="76.00,92.16 77.95,373.38 79.90,137.82 81.86,172.29 83.81,373.99 85.76,252.19 87.71,98.62 89.66,81.74 91.62,305.31 93.57,298.63 95.52,199.99 97.47,81.75 99.42,157.91 101.37,209.82 103.33,130.05 105.28,324.19 107.23,293.06 109.18,147.26 111.13,82.03 113.09,87.61 115.04,219.93 116.99,199.92 118.94,81.68 120.89,318.37 122.85,118.65 124.80,317.96 126.75,130.40 128.70,318.50 130.65,178.35 132.61,237.42 134.56,303.52 136.51,234.51 138.46,339.06 140.41,282.16 142.36,359.71 144.32,309.58 146.27,374.43 148.22,344.62 150.17,146.80 152.12,374.31 154.08,316.11 156.03,195.97 157.98,92.09 159.93,372.95 161.88,230.74 163.84,368.05 165.79,82.89 167.74,136.21 169.69,203.82 171.64,309.79 173.60,81.62 175.55,231.54 177.50,363.73 179.45,373.87 181.40,81.60 183.35,336.63 185.31,226.05 187.26,371.25 189.21,86.50 191.16,148.43 193.11,85.72 195.07,244.46 197.02,194.65 198.97,299.14 200.92,190.88 202.87,143.46 204.83,327.35 206.78,344.92 208.73,186.34 210.68,213.28 212.63,222.27 214.59,274.03 216.54,284.97 218.49,371.30 220.44,85.43 222.39,106.65 224.34,371.68 226.30,81.51 228.25,312.67 230.20,94.84 232.15,348.11 234.10,342.49 236.06,197.75 238.01,364.69 239.96,364.13 241.91,371.27 243.86,356.46 245.82,201.57 247.77,358.03 249.72,254.61 251.67,84.98 253.62,334.67 255.58,358.18 257.53,95.31 259.48,336.90 261.43,326.15 263.38,216.52 265.33,273.52 267.29,114.21 269.24,215.39 271.19,256.05 273.14,373.49 275.09,176.93 277.05,284.25 279.00,374.52 280.95,346.31 282.90,113.66 284.85,201.36 286.81,360.98 288.76,343.97 290.71,141.52 292.66,113.46 294.61,196.48 296.57,344.30 298.52,153.98 300.47,179.85 302.42,316.04 304.37,135.32 306.32,81.95 308.28,263.11 310.23,244.38 312.18,195.81 314.13,93.13 316.08,368.21 318.04,229.87 319.99,362.48 321.94,369.79 323.89,142.80 325.84,306.93 327.80,89.12 329.75,145.67 331.70,82.50 333.65,177.88 335.60,253.41 337.56,90.49 339.51,271.84 341.46,249.67 343.41,122.45 345.36,349.13 347.31,82.93 349.27,204.15 351.22,101.27 353.17,149.53 355.12,333.34 357.07,369.38 359.03,136.93 360.98,189.41 362.93,136.57 364.88,196.43 366.83,89.47 368.79,176.14 370.74,356.87 372.69,83.62 374.64,92.05 376.59,372.70 378.55,283.18 380.50,373.72 382.45,86.95 384.40,182.98 386.35,269.02 388.30,90.19 390.26,337.37 392.21,190.87 394.16,143.53 396.11,93.25 398.06,364.97 400.02,359.05 401.97,131.71 403.92,294.92 405.87,266.55 407.82,137.75 409.78,173.61 411.73,363.05 413.68,373.85 415.63,228.87 417.58,371.93 419.54,82.35 421.49,93.41 423.44,370.83 425.39,97.64 427.34,101.23 429.29,150.55 431.25,303.25 433.20,125.56 435.15,372.12 437.10,360.63 439.05,335.36 441.01,284.79 442.96,374.03 444.91,96.10 446.86,315.39 448.81,125.57 450.77,364.75 452.72,363.09 454.67,372.29 456.62,89.10 458.57,295.94 460.53,87.23 462.48,198.45 464.43,371.24 466.38,86.73 468.33,170.23 470.28,362.96 472.24,373.46 474.19,122.98 476.14,371.12 478.09,89.16 480.04,149.42 482.00,91.35 483.95,336.59 485.90,331.59 487.85,374.55 489.80,371.28 491.76,85.92 493.71,217.16 495.66,283.21 497.61,373.78 499.56,82.90 501.52,135.04 503.47,81.45 505.42,374.45 507.37,350.18 509.32,373.36 511.27,161.84 513.23,117.70 515.18,298.72 517.13,198.44 519.08,371.15 521.03,88.66 522.99,111.72 524.94,154.46 526.89,163.29 528.84,303.00 530.79,129.03 532.75,251.75 534.70,102.09 536.65,214.88 538.60,247.92 540.55,143.95 542.51,340.37 544.46,250.84 546.41,270.53 548.36,227.75 550.31,374.50 552.26,323.19 554.22,273.57 556.17,115.21 558.12,240.35 560.07,260.14 562.02,330.91 563.98,373.66 565.93,92.68 567.88,374.52 569.83,366.11 571.78,216.00 573.74,265.50 575.69,167.38 577.64,353.73 579.59,125.03 581.54,371.54 583.49,82.30 585.45,88.75 587.40,279.51 589.35,353.96 591.30,212.07 593.25,202.94 595.21,331.83 597.16,374.48 599.11,357.35 601.06,81.61 603.01,334.74 604.97,310.21 606.92,82.24 608.87,84.22 610.82,81.50 612.77,362.04 614.73,334.68 616.68,358.07 618.63,92.12 620.58,373.14 622.53,138.60 624.48,148.46 626.44,85.86 628.39,225.24 630.34,367.97 632.29,243.06 634.24,83.16 636.20,115.49 638.15,86.59 640.10,162.48 642.05,290.20 644.00,244.11 645.96,200.03 647.91,373.18 649.86,142.35 651.81,104.04 653.76,325.13 655.72,310.30 657.67,370.66 659.62,103.53 661.57,101.37 663.52,171.35 665.47,374.22 667.43,146.05 669.38,81.80 671.33,293.77 673.28,127.46 675.23,358.64 677.19,111.88 679.14,158.06 681.09,212.54 683.04,85.68 684.99,117.07 686.95,125.87 688.90,370.72 690.85,300.27 692.80,171.39 694.75,374.27 696.71,167.02 698.66,350.37 700.61,371.54 702.56,82.30 704.51,204.70 706.46,284.52 708.42,374.36 710.37,215.40 712.32,256.20 714.27,81.58 716.22,256.00 718.18,81.76 720.13,155.40 722.08,165.81 724.03,337.31 725.98,193.73 727.94,109.96 729.89,245.74 731.84,174.86 733.79,365.85 735.74,241.10 737.70,248.27 739.65,188.47 741.60,178.78 743.55,329.76 745.50,351.31 747.45,87.57 749.41,82.98 751.36,128.35 753.31,348.77 755.26,361.59 757.21,356.90 759.17,83.34 761.12,104.32 763.07,91.13 765.02,322.89 766.97,267.50 768.93,115.26 770.88,241.62 772.83,83.40 774.78,101.29 776.73,148.95 778.69,347.33 780.64,98.39 782.59,83.51 784.54,96.19 786.49,312.53 788.44,327.59 790.40,348.01 792.35,338.93 794.30,285.03 796.25,373.63 798.20,96.46 800.16,304.28 802.11,262.74 804.06,114.77 806.01,229.44 807.96,367.35 809.92,274.75 811.87,144.40 813.82,87.51 815.77,214.20 817.72,82.57 819.68,170.10 821.63,361.23 823.58,349.64 825.53,81.58 827.48,262.20 829.43,109.28 831.39,281.27 833.34,366.61 835.29,308.27 837.24,367.91 839.19,246.27 841.15,132.15 843.10,286.61 845.05,368.03 847.00,83.22 848.95,111.66 850.91,158.01 852.86,211.54 854.81,96.70 856.76,296.75 858.71,234.13 860.67,261.59 862.62,103.69 864.57,308.61 866.52,82.28 868.47,208.05 870.42,178.85 872.38,328.87 874.33,325.78 876.28,321.43 878.23,237.44 880.18,158.69 882.14,223.94 884.09,320.73 886.04,223.02 887.99,353.39 889.94,247.08 891.90,155.40 893.85,134.23 895.80,244.44 897.75,194.92 899.70,306.91 901.66,89.22 903.61,154.35 905.56,148.84 907.51,87.80 909.46,81.53 911.41,354.55 913.37,176.09 915.32,357.30 917.27,229.77 919.22,363.70 921.17,373.98 923.13,88.59 925.08,271.64 927.03,246.27 928.98,132.22 930.93,285.20 932.89,369.42 934.84,162.06 936.79,123.03 938.74,371.36 940.69,84.52 942.65,369.00 944.60,185.64 946.55,81.58 948.50,341.89 950.45,212.83 952.40,83.75 954.36,88.06 956.31,85.15 958.26,96.86 960.21,291.83 962.16,187.02 964.12,202.03 966.07,350.39 968.02,82.28 969.97,207.99 971.92,180.69 973.88,304.24 975.83,261.36 977.78,101.76 979.73,136.98 981.68,102.77 983.64,114.53 985.59,81.73 987.54,307.57 989.49,85.71 991.44,245.05 993.39,185.40 995.35,81.46 997.30,370.73 999.25,101.03 1001.20,151.69 1003.15,112.43 1005.11,125.81 1007.06,371.02 1009.01,91.76 1010.96,357.17 1012.91,225.25 1014.87,349.00 1016.82,83.49 1018.77,315.51 1020.72,127.40 1022.67,359.21 1024.63,140.99 1026.58,120.31 1028.53,270.03 1030.48,219.46 1032.43,315.23 1034.38,230.65 1036.34,368.46 1038.29,83.46 1040.24,98.50 1042.19,236.59 1044.14,183.91 1046.10,253.87 1048.05,348.57 1050.00,86.01" fill="none" stroke="#222222" stroke-width="1.6"/>
<polyline points="76.00,199.98 77.95,81.74 79.90,163.73 81.86,309.59 83.81,374.41 85.76,339.85 87.71,263.47 89.66,232.65 91.62,356.08 93.57,101.85 95.52,134.80 97.47,232.74 99.42,302.85 101.37,131.01 103.33,168.32 105.28,361.37 107.23,352.53 109.18,297.44 111.13,221.48 113.09,249.25 115.04,127.27 116.99,321.17 118.94,232.15 120.89,359.76 122.85,175.79 124.80,359.65 126.75,168.11 128.70,359.80 130.65,312.27 132.61,334.91 134.56,355.56 136.51,122.10 138.46,365.39 140.41,349.27 142.36,370.79 144.32,98.71 146.27,81.48 148.22,366.87 150.17,297.20 152.12,81.51 154.08,359.13 156.03,136.39 157.98,200.07 159.93,81.85 161.88,123.41 163.84,372.92 165.79,238.29 167.74,291.34 169.69,322.69 171.64,98.65 173.60,231.54 175.55,332.87 177.50,371.82 179.45,81.62 181.40,231.37 183.35,364.74 185.31,330.94 187.26,373.72 189.21,208.76 191.16,157.94 193.11,210.32 195.07,118.71 197.02,319.08 198.97,101.70 200.92,138.45 202.87,160.59 204.83,93.77 206.78,366.95 208.73,140.33 210.68,129.71 212.63,329.58 214.59,346.79 216.54,105.88 218.49,373.74 220.44,210.93 222.39,185.02 224.34,82.17 226.30,225.81 228.25,358.17 230.20,259.33 232.15,88.21 234.10,89.70 236.06,320.32 238.01,83.93 239.96,84.08 241.91,82.27 243.86,86.04 245.82,134.18 247.77,85.64 249.72,115.36 251.67,244.09 253.62,91.78 255.58,370.40 257.53,259.88 259.48,91.18 261.43,361.91 263.38,327.49 265.33,346.64 267.29,277.00 269.24,327.07 271.19,341.11 273.14,81.71 275.09,311.65 277.05,349.90 279.00,81.46 280.95,367.31 282.90,276.58 284.85,321.74 286.81,84.88 288.76,89.30 290.71,161.65 292.66,276.44 294.61,319.81 296.57,89.22 298.52,300.90 300.47,143.09 302.42,96.89 304.37,290.83 306.32,221.92 308.28,343.38 310.23,118.73 312.18,319.54 314.13,198.75 316.08,372.96 318.04,123.71 319.99,371.50 321.94,82.64 323.89,160.95 325.84,99.46 327.80,204.29 329.75,296.60 331.70,236.79 333.65,312.06 335.60,340.25 337.56,253.74 339.51,346.12 341.46,116.97 343.41,282.82 345.36,368.05 347.31,238.41 349.27,133.18 351.22,266.11 353.17,157.37 355.12,92.14 357.07,373.25 359.03,164.24 360.98,316.94 362.93,164.44 364.88,319.79 366.83,203.76 368.79,311.30 370.74,85.94 372.69,215.38 374.64,255.88 376.59,81.91 378.55,106.42 380.50,81.66 382.45,207.91 384.40,141.75 386.35,110.76 388.30,202.69 390.26,91.06 392.21,317.54 394.16,160.55 396.11,257.41 398.06,372.14 400.02,85.38 401.97,288.69 403.92,353.07 405.87,111.54 407.82,163.77 409.78,310.18 411.73,371.65 413.68,81.62 415.63,331.93 417.58,373.90 419.54,236.12 421.49,198.39 423.44,82.38 425.39,193.56 427.34,266.08 429.29,156.84 431.25,100.51 433.20,171.15 435.15,373.94 437.10,84.97 439.05,91.60 441.01,350.07 442.96,81.58 444.91,260.76 446.86,97.07 448.81,284.86 450.77,372.08 452.72,84.34 454.67,373.99 456.62,251.69 458.57,102.63 460.53,248.58 462.48,135.41 464.43,82.28 466.38,208.33 468.33,147.34 470.28,371.63 472.24,81.72 474.19,172.84 476.14,373.69 478.09,204.22 480.04,298.57 482.00,201.06 483.95,364.73 485.90,363.39 487.85,374.55 489.80,373.73 491.76,209.89 493.71,128.28 495.66,349.59 497.61,81.64 499.56,217.67 501.52,290.66 503.47,227.83 505.42,374.53 507.37,368.33 509.32,81.75 511.27,304.75 513.23,279.54 515.18,354.18 517.13,135.41 519.08,82.30 521.03,205.02 522.99,275.10 524.94,301.14 526.89,150.56 528.84,100.59 530.79,168.95 532.75,339.71 534.70,266.89 536.65,129.12 538.60,338.45 540.55,295.67 542.51,90.26 544.46,339.41 546.41,110.29 548.36,124.46 550.31,374.54 552.26,361.09 554.22,346.65 556.17,277.74 558.12,335.91 560.07,342.43 562.02,92.80 563.98,374.33 565.93,199.31 567.88,81.46 569.83,372.43 571.78,327.29 573.74,344.13 575.69,148.65 577.64,86.75 579.59,171.49 581.54,373.80 583.49,220.08 585.45,204.87 587.40,107.53 589.35,86.69 591.30,130.17 593.25,322.35 595.21,92.55 597.16,374.54 599.11,370.19 601.06,231.46 603.01,364.24 604.97,357.47 606.92,235.64 608.87,213.75 610.82,229.91 612.77,371.39 614.73,364.22 616.68,370.37 618.63,255.97 620.58,81.80 622.53,292.72 624.48,157.92 626.44,210.02 628.39,125.35 630.34,372.90 632.29,119.18 634.24,216.81 636.20,277.94 638.15,247.40 640.10,150.94 642.05,104.32 644.00,337.18 645.96,321.21 647.91,81.79 649.86,294.80 651.81,268.68 653.76,94.37 655.72,357.50 657.67,82.43 659.62,187.78 661.57,189.79 663.52,146.84 665.47,81.53 667.43,296.81 669.38,233.06 671.33,352.73 673.28,286.07 675.23,370.52 677.19,275.22 679.14,302.93 681.09,129.99 683.04,210.39 684.99,176.91 686.95,285.05 688.90,373.59 690.85,101.37 692.80,146.82 694.75,81.52 696.71,307.19 698.66,87.62 700.61,82.20 702.56,220.08 704.51,323.04 706.46,106.01 708.42,81.50 710.37,327.07 712.32,341.16 714.27,231.16 716.22,341.10 718.18,232.78 720.13,301.61 722.08,149.38 724.03,91.07 725.98,318.71 727.94,182.29 729.89,118.28 731.84,310.73 733.79,83.64 735.74,336.16 737.70,338.56 739.65,139.44 741.60,143.55 743.55,93.11 745.50,368.62 747.45,206.82 749.41,217.39 751.36,286.62 753.31,367.96 755.26,84.72 757.21,85.93 759.17,216.22 761.12,268.94 763.07,201.36 765.02,361.01 766.97,344.76 768.93,178.23 770.88,336.34 772.83,239.96 774.78,266.13 776.73,157.67 778.69,88.42 780.64,263.24 782.59,240.30 784.54,260.87 786.49,97.87 788.44,93.70 790.40,367.76 792.35,90.64 794.30,350.14 796.25,81.68 798.20,194.83 800.16,100.22 802.11,112.74 804.06,178.59 806.01,332.14 807.96,372.74 809.92,108.99 811.87,295.92 813.82,249.08 815.77,129.37 817.72,237.05 819.68,308.60 821.63,371.18 823.58,87.81 825.53,231.06 827.48,343.09 829.43,182.84 831.39,106.99 833.34,83.45 835.29,99.08 837.24,83.12 839.19,118.10 841.15,167.05 843.10,350.61 845.05,83.09 847.00,239.38 848.95,275.05 850.91,153.10 852.86,130.37 854.81,194.56 856.76,102.40 858.71,122.23 860.67,342.89 862.62,187.63 864.57,98.98 866.52,220.18 868.47,324.32 870.42,143.52 872.38,93.35 874.33,361.80 876.28,360.61 878.23,334.91 880.18,303.23 882.14,125.82 884.09,360.42 886.04,329.85 887.99,369.16 889.94,117.83 891.90,301.61 893.85,165.81 895.80,337.29 897.75,319.19 899.70,99.47 901.66,204.13 903.61,301.09 905.56,157.73 907.51,206.42 909.46,230.42 911.41,369.46 913.37,144.72 915.32,85.83 917.27,123.75 919.22,371.81 921.17,81.59 923.13,250.87 925.08,109.95 927.03,118.10 928.98,167.01 930.93,350.19 932.89,373.26 934.84,151.15 936.79,283.20 938.74,373.75 940.69,213.01 942.65,82.84 944.60,140.62 946.55,224.88 948.50,366.14 950.45,326.12 952.40,215.01 954.36,250.01 956.31,244.47 958.26,194.40 960.21,103.84 962.16,315.96 964.12,134.00 966.07,87.62 968.02,220.18 969.97,324.29 971.92,142.72 973.88,100.23 975.83,113.18 977.78,189.42 979.73,164.21 981.68,188.47 983.64,178.76 985.59,223.44 987.54,356.72 989.49,210.33 991.44,118.51 993.39,315.27 995.35,229.05 997.30,373.59 999.25,190.12 1001.20,156.26 1003.15,180.35 1005.11,170.99 1007.06,373.67 1009.01,200.52 1010.96,370.14 1012.91,125.35 1014.87,368.02 1016.82,240.24 1018.77,97.04 1020.72,286.03 1022.67,370.67 1024.63,294.06 1026.58,281.36 1028.53,345.55 1030.48,127.44 1032.43,358.89 1034.38,123.44 1036.34,373.02 1038.29,215.86 1040.24,263.35 1042.19,121.38 1044.14,314.65 1046.10,115.60 1048.05,88.10 1050.00,246.29" fill="none" stroke="#6f7f8f" stroke-width="1.6"/>
<polyline points="76.00,227.90 77.95,227.90 79.90,227.90 81.86,227.90 83.81,227.90 85.76,227.90 87.71,227.90 89.66,227.90 91.62,227.90 93.57,227.90 95.52,227.90 97.47,227.90 99.42,227.90 101.37,227.90 103.33,227.90 105.28,227.90 107.23,227.90 109.18,227.90 111.13,227.90 113.09,227.90 115.04,227.90 116.99,227.90 118.94,227.90 120.89,227.90 122.85,227.90 124.80,227.90 126.75,227.90 128.70,227.90 130.65,227.90 132.61,227.90 134.56,227.90 136.51,227.90 138.46,227.90 140.41,227.90 142.36,227.90 144.32,227.90 146.27,227.90 148.22,227.90 150.17,227.90 152.12,227.90 154.08,227.90 156.03,227.90 157.98,227.90 159.93,227.90 161.88,227.90 163.84,227.90 165.79,227.90 167.74,227.90 169.69,227.90 171.64,227.90 173.60,227.90 175.55,227.90 177.50,227.90 179.45,227.90 181.40,227.90 183.35,227.90 185.31,227.90 187.26,227.90 189.21,227.90 191.16,227.90 193.11,227.90 195.07,227.90 197.02,227.90 198.97,227.90 200.92,227.90 202.87,227.90 204.83,227.90 206.78,227.90 208.73,227.90 210.68,227.90 212.63,227.90 214.59,227.90 216.54,227.90 218.49,227.90 220.44,227.90 222.39,227.90 224.34,227.90 226.30,227.90 228.25,227.90 230.20,227.90 232.15,227.90 234.10,227.90 236.06,227.90 238.01,227.90 239.96,227.90 241.91,227.90 243.86,227.90 245.82,227.90 247.77,227.90 249.72,227.90 251.67,227.90 253.62,227.90 255.58,227.90 257.53,227.90 259.48,227.90 261.43,227.90 263.38,227.90 265.33,227.90 267.29,227.90 269.24,227.90 271.19,227.90 273.14,227.90 275.09,227.90 277.05,227.90 279.00,227.90 280.95,227.90 282.90,227.90 284.85,227.90 286.81,227.90 288.76,227.90 290.71,227.90 292.66,227.90 294.61,227.90 296.57,227.90 298.52,227.90 300.47,227.90 302.42,227.90 304.37,227.90 306.32,227.90 308.28,227.90 310.23,227.90 312.18,227.90 314.13,227.90 316.08,227.90 318.04,227.90 319.99,227.90 321.94,227.90 323.89,227.90 325.84,227.90 327.80,227.90 329.75,227.90 331.70,227.90 333.65,227.90 335.60,227.90 337.56,227.90 339.51,227.90 341.46,227.90 343.41,227.90 345.36,227.90 347.31,227.90 349.27,227.90 351.22,227.90 353.17,227.90 355.12,227.90 357.07,227.90 359.03,227.90 360.98,227.90 362.93,227.90 364.88,227.90 366.83,227.90 368.79,227.90 370.74,227.90 372.69,227.90 374.64,227.90 376.59,227.90 378.55,227.90 380.50,227.90 382.45,227.90 384.40,227.90 386.35,227.90 388.30,227.90 390.26,227.90 392.21,227.90 394.16,227.90 396.11,227.90 398.06,227.90 400.02,227.90 401.97,227.90 403.92,227.90 405.87,227.90 407.82,227.90 409.78,227.90 411.73,227.90 413.68,227.90 415.63,227.90 417.58,227.90 419.54,227.90 421.49,227.90 423.44,227.90 425.39,227.90 427.34,227.90 429.29,227.90 431.25,227.90 433.20,227.90 435.15,227.90 437.10,227.90 439.05,227.90 441.01,227.90 442.96,227.90 444.91,227.90 446.86,227.90 448.81,227.90 450.77,227.90 452.72,227.90 454.67,227.90 456.62,227.90 458.57,227.90 460.53,227.90 462.48,227.90 464.43,227.90 466.38,227.90 468.33,227.90 470.28,227.90 472.24,227.90 474.19,227.90 476.14,227.90 478.09,227.90 480.04,227.90 482.00,227.90 483.95,227.90 485.90,227.90 487.85,227.90 489.80,227.90 491.76,227.90 493.71,227.90 495.66,227.90 497.61,227.90 499.56,227.90 501.52,227.90 503.47,227.90 505.42,227.90 507.37,227.90 509.32,227.90 511.27,227.90 513.23,227.90 515.18,227.90 517.13,227.90 519.08,227.90 521.03,227.90 522.99,227.90 524.94,227.90 526.89,227.90 528.84,227.90 530.79,227.90 532.75,227.90 534.70,227.90 536.65,227.90 538.60,227.90 540.55,227.90 542.51,227.90 544.46,227.90 546.41,227.90 548.36,227.90 550.31,227.90 552.26,227.90 554.22,227.90 556.17,227.90 558.12,227.90 560.07,227.90 562.02,227.90 563.98,227.90 565.93,227.90 567.88,227.90 569.83,227.90 571.78,227.90 573.74,227.90 575.69,227.90 577.64,227.90 579.59,227.90 581.54,227.90 583.49,227.90 585.45,227.90 587.40,227.90 589.35,227.90 591.30,227.90 593.25,227.90 595.21,227.90 597.16,227.90 599.11,227.90 601.06,227.90 603.01,227.90 604.97,227.90 606.92,227.90 608.87,227.90 610.82,227.90 612.77,227.90 614.73,227.90 616.68,227.90 618.63,227.90 620.58,227.90 622.53,227.90 624.48,227.90 626.44,227.90 628.39,227.90 630.34,227.90 632.29,227.90 634.24,227.90 636.20,227.90 638.15,227.90 640.10,227.90 642.05,227.90 644.00,227.90 645.96,227.90 647.91,227.90 649.86,227.90 651.81,227.90 653.76,227.90 655.72,227.90 657.67,227.90 659.62,227.90 661.57,227.90 663.52,227.90 665.47,227.90 667.43,227.90 669.38,227.90 671.33,227.90 673.28,227.90 675.23,227.90 677.19,227.90 679.14,227.90 681.09,227.90 683.04,227.90 684.99,227.90 686.95,227.90 688.90,227.90 690.85,227.90 692.80,227.90 694.75,227.90 696.71,227.90 698.66,227.90 700.61,227.90 702.56,227.90 704.51,227.90 706.46,227.90 708.42,227.90 710.37,227.90 712.32,227.90 714.27,227.90 716.22,227.90 718.18,227.90 720.13,227.90 722.08,227.90 724.03,227.90 725.98,227.90 727.94,227.90 729.89,227.90 731.84,227.90 733.79,227.90 735.74,227.90 737.70,227.90 739.65,227.90 741.60,227.90 743.55,227.90 745.50,227.90 747.45,227.90 749.41,227.90 751.36,227.90 753.31,227.90 755.26,227.90 757.21,227.90 759.17,227.90 761.12,227.90 763.07,227.90 765.02,227.90 766.97,227.90 768.93,227.90 770.88,227.90 772.83,227.90 774.78,227.90 776.73,227.90 778.69,227.90 780.64,227.90 782.59,227.90 784.54,227.90 786.49,227.90 788.44,227.90 790.40,227.90 792.35,227.90 794.30,227.90 796.25,227.90 798.20,227.90 800.16,227.90 802.11,227.90 804.06,227.90 806.01,227.90 807.96,227.90 809.92,227.90 811.87,227.90 813.82,227.90 815.77,227.90 817.72,227.90 819.68,227.90 821.63,227.90 823.58,227.90 825.53,227.90 827.48,227.90 829.43,227.90 831.39,227.90 833.34,227.90 835.29,227.90 837.24,227.90 839.19,227.90 841.15,227.90 843.10,227.90 845.05,227.90 847.00,227.90 848.95,227.90 850.91,227.90 852.86,227.90 854.81,227.90 856.76,227.90 858.71,227.90 860.67,227.90 862.62,227.90 864.57,227.90 866.52,227.90 868.47,227.90 870.42,227.90 872.38,227.90 874.33,227.90 876.28,227.90 878.23,227.90 880.18,227.90 882.14,227.90 884.09,227.90 886.04,227.90 887.99,227.90 889.94,227.90 891.90,227.90 893.85,227.90 895.80,227.90 897.75,227.90 899.70,227.90 901.66,227.90 903.61,227.90 905.56,227.90 907.51,227.90 909.46,227.90 911.41,227.90 913.37,227.90 915.32,227.90 917.27,227.90 919.22,227.90 921.17,227.90 923.13,227.90 925.08,227.90 927.03,227.90 928.98,227.90 930.93,227.90 932.89,227.90 934.84,227.90 936.79,227.90 938.74,227.90 940.69,227.90 942.65,227.90 944.60,227.90 946.55,227.90 948.50,227.90 950.45,227.90 952.40,227.90 954.36,227.90 956.31,227.90 958.26,227.90 960.21,227.90 962.16,227.90 964.12,227.90 966.07,227.90 968.02,227.90 969.97,227.90 971.92,227.90 973.88,227.90 975.83,227.90 977.78,227.90 979.73,227.90 981.68,227.90 983.64,227.90 985.59,227.90 987.54,227.90 989.49,227.90 991.44,227.90 993.39,227.90 995.35,227.90 997.30,227.90 999.25,227.90 1001.20,227.90 1003.15,227.90 1005.11,227.90 1007.06,227.90 1009.01,227.90 1010.96,227.90 1012.91,227.90 1014.87,227.90 1016.82,227.90 1018.77,227.90 1020.72,227.90 1022.67,227.90 1024.63,227.90 1026.58,227.90 1028.53,227.90 1030.48,227.90 1032.43,227.90 1034.38,227.90 1036.34,227.90 1038.29,227.90 1040.24,227.90 1042.19,227.90 1044.14,227.90 1046.10,227.90 1048.05,227.90 1050.00,227.90" fill="none" stroke="#2a6fbb" stroke-width="1.6"/>
<polyline points="76.00,94.33 77.95,359.57 79.90,149.17 81.86,216.87 83.81,313.20 85.76,300.05 87.71,93.23 89.66,86.39 91.62,344.63 93.57,338.49 95.52,238.38 97.47,105.96 99.42,178.08 101.37,284.58 103.33,141.69 105.28,292.96 107.23,283.18 109.18,175.97 111.13,93.60 113.09,99.50 115.04,245.13 116.99,226.89 118.94,87.14 120.89,315.14 122.85,119.46 124.80,307.62 126.75,156.11 128.70,329.12 130.65,204.58 132.61,255.59 134.56,270.63 136.51,239.43 138.46,329.12 140.41,280.57 142.36,324.48 144.32,336.09 146.27,354.24 148.22,312.96 150.17,149.28 152.12,333.23 154.08,303.62 156.03,207.98 157.98,98.40 159.93,342.19 161.88,271.06 163.84,323.13 165.79,90.58 167.74,110.39 169.69,252.79 171.64,319.63 173.60,101.03 175.55,275.08 177.50,342.06 179.45,342.56 181.40,91.18 183.35,332.45 185.31,243.48 187.26,277.43 189.21,104.48 191.16,175.20 193.11,87.76 195.07,283.91 197.02,188.17 198.97,330.47 200.92,201.11 202.87,172.35 204.83,345.68 206.78,344.43 208.73,211.67 210.68,231.99 212.63,269.40 214.59,272.38 216.54,302.39 218.49,338.66 220.44,95.59 222.39,117.15 224.34,321.96 226.30,83.03 228.25,316.63 230.20,111.27 232.15,325.15 234.10,344.35 236.06,250.61 238.01,309.51 239.96,333.68 241.91,324.12 243.86,276.04 245.82,226.35 247.77,319.49 249.72,276.80 251.67,111.10 253.62,335.31 255.58,280.33 257.53,110.64 259.48,351.37 261.43,320.62 263.38,166.13 265.33,281.07 267.29,95.50 269.24,201.42 271.19,295.08 273.14,360.75 275.09,175.47 277.05,296.31 279.00,336.28 280.95,348.93 282.90,138.02 284.85,200.11 286.81,358.30 288.76,313.88 290.71,143.64 292.66,129.31 294.61,259.12 296.57,351.15 298.52,176.27 300.47,172.09 302.42,264.87 304.37,169.97 306.32,91.56 308.28,284.59 310.23,248.61 312.18,237.81 314.13,102.20 316.08,323.67 318.04,279.02 319.99,317.66 321.94,315.61 323.89,156.71 325.84,365.65 327.80,118.07 329.75,167.18 331.70,98.53 333.65,192.59 335.60,269.85 337.56,93.22 339.51,295.04 341.46,279.60 343.41,146.19 345.36,345.98 347.31,82.93 349.27,297.22 351.22,93.88 353.17,149.07 355.12,309.80 357.07,353.13 359.03,152.70 360.98,182.22 362.93,178.69 364.88,252.18 366.83,97.27 368.79,178.11 370.74,342.00 372.69,83.88 374.64,90.96 376.59,320.68 378.55,319.78 380.50,352.30 382.45,91.89 384.40,214.57 386.35,318.26 388.30,107.28 390.26,337.63 392.21,203.59 394.16,161.95 396.11,87.95 398.06,339.19 400.02,299.80 401.97,156.05 403.92,330.45 405.87,273.81 407.82,163.50 409.78,183.37 411.73,335.94 413.68,321.08 415.63,295.89 417.58,335.90 419.54,86.07 421.49,88.70 423.44,330.46 425.39,113.52 427.34,100.78 429.29,136.81 431.25,269.36 433.20,141.24 435.15,333.38 437.10,337.78 439.05,289.37 441.01,273.86 442.96,350.41 444.91,95.27 446.86,302.06 448.81,129.73 450.77,327.61 452.72,328.83 454.67,364.64 456.62,95.88 458.57,304.58 460.53,100.67 462.48,204.45 464.43,331.49 466.38,101.53 468.33,206.21 470.28,332.88 472.24,354.78 474.19,147.68 476.14,320.61 478.09,103.66 480.04,183.72 482.00,96.34 483.95,350.01 485.90,309.19 487.85,321.86 489.80,324.05 491.76,90.08 493.71,197.15 495.66,264.55 497.61,320.67 499.56,91.00 501.52,137.47 503.47,87.92 505.42,311.93 507.37,328.80 509.32,358.88 511.27,171.73 513.23,114.63 515.18,299.64 517.13,187.58 519.08,357.92 521.03,90.16 522.99,113.07 524.94,206.73 526.89,192.94 528.84,341.19 530.79,141.50 532.75,301.04 534.70,106.84 536.65,243.55 538.60,302.16 540.55,151.61 542.51,316.33 544.46,282.79 546.41,288.32 548.36,272.16 550.31,338.85 552.26,325.08 554.22,323.44 556.17,125.58 558.12,337.72 560.07,268.42 562.02,342.99 563.98,309.21 565.93,100.66 567.88,338.92 569.83,346.43 571.78,262.71 573.74,327.30 575.69,151.02 577.64,316.59 579.59,116.99 581.54,336.06 583.49,90.03 585.45,90.52 587.40,328.49 589.35,336.08 591.30,232.22 593.25,247.36 595.21,329.50 597.16,357.69 599.11,345.19 601.06,89.37 603.01,324.41 604.97,263.31 606.92,88.75 608.87,90.87 610.82,85.65 612.77,322.09 614.73,332.94 616.68,289.30 618.63,106.98 620.58,335.82 622.53,174.56 624.48,145.11 626.44,90.94 628.39,247.46 630.34,341.09 632.29,201.35 634.24,89.68 636.20,130.08 638.15,92.77 640.10,163.01 642.05,264.76 644.00,252.98 645.96,224.16 647.91,346.00 649.86,157.57 651.81,118.85 653.76,336.71 655.72,340.63 657.67,334.94 659.62,105.46 661.57,90.71 663.52,210.12 665.47,354.47 667.43,162.08 669.38,95.41 671.33,289.02 673.28,134.83 675.23,325.82 677.19,112.15 679.14,163.38 681.09,217.29 683.04,88.37 684.99,124.81 686.95,154.52 688.90,328.91 690.85,303.34 692.80,202.43 694.75,345.98 696.71,143.73 698.66,302.99 700.61,359.64 702.56,96.93 704.51,253.41 706.46,326.12 708.42,280.85 710.37,281.20 712.32,290.01 714.27,89.37 716.22,299.33 718.18,82.65 720.13,155.03 722.08,174.98 724.03,322.02 725.98,190.72 727.94,119.37 729.89,256.55 731.84,194.30 733.79,340.44 735.74,224.92 737.70,300.20 739.65,269.67 741.60,174.16 743.55,337.55 745.50,354.70 747.45,95.90 749.41,92.78 751.36,137.72 753.31,345.61 755.26,332.20 757.21,292.82 759.17,98.76 761.12,102.78 763.07,89.66 765.02,289.08 766.97,269.60 768.93,116.34 770.88,254.31 772.83,83.71 774.78,95.27 776.73,147.80 778.69,302.21 780.64,111.72 782.59,93.27 784.54,108.11 786.49,302.33 788.44,296.49 790.40,338.33 792.35,321.75 794.30,296.84 796.25,336.48 798.20,95.03 800.16,323.81 802.11,277.38 804.06,103.79 806.01,278.26 807.96,322.99 809.92,263.64 811.87,182.90 813.82,85.64 815.77,266.10 817.72,85.25 819.68,154.29 821.63,353.51 823.58,337.99 825.53,84.41 827.48,299.87 829.43,119.17 831.39,315.15 833.34,313.83 835.29,324.42 837.24,282.46 839.19,252.20 841.15,127.66 843.10,299.87 845.05,325.52 847.00,88.97 848.95,101.24 850.91,184.91 852.86,206.32 854.81,93.82 856.76,269.59 858.71,255.08 860.67,243.11 862.62,128.47 864.57,309.20 866.52,82.03 868.47,226.20 870.42,165.15 872.38,342.30 874.33,275.98 876.28,332.92 878.23,234.13 880.18,128.41 882.14,197.67 884.09,293.39 886.04,233.94 887.99,344.94 889.94,260.30 891.90,166.40 893.85,153.27 895.80,261.87 897.75,197.82 899.70,346.33 901.66,83.96 903.61,123.40 905.56,150.15 907.51,97.64 909.46,88.86 911.41,352.09 913.37,181.79 915.32,320.49 917.27,245.83 919.22,320.92 921.17,331.88 923.13,89.33 925.08,302.28 927.03,262.38 928.98,136.39 930.93,304.96 932.89,347.37 934.84,172.54 936.79,161.55 938.74,331.41 940.69,90.15 942.65,318.97 944.60,224.56 946.55,87.23 948.50,348.12 950.45,230.79 952.40,85.94 954.36,95.62 956.31,103.80 958.26,106.34 960.21,307.35 962.16,163.07 964.12,210.07 966.07,331.65 968.02,84.16 969.97,219.67 971.92,163.67 973.88,309.39 975.83,299.43 977.78,108.19 979.73,183.14 981.68,94.97 983.64,134.89 985.59,97.00 987.54,287.74 989.49,87.52 991.44,263.45 993.39,196.40 995.35,87.99 997.30,340.51 999.25,129.26 1001.20,164.17 1003.15,122.99 1005.11,142.64 1007.06,352.85 1009.01,92.39 1010.96,342.14 1012.91,199.98 1014.87,328.22 1016.82,84.25 1018.77,279.15 1020.72,134.04 1022.67,315.40 1024.63,200.62 1026.58,103.05 1028.53,267.65 1030.48,208.90 1032.43,313.43 1034.38,285.84 1036.34,335.59 1038.29,88.82 1040.24,107.08 1042.19,257.98 1044.14,216.88 1046.10,334.59 1048.05,348.01 1050.00,82.61" fill="none" stroke="#b45f06" stroke-width="1.6"/>
<g><line x1="870.00" y1="28.00" x2="898.00" y2="28.00" stroke="#222222" stroke-width="2"/><text x="906.00" y="32.00" font-family="Arial, sans-serif" font-size="12">real</text></g>
<g><line x1="870.00" y1="46.00" x2="898.00" y2="46.00" stroke="#6f7f8f" stroke-width="2"/><text x="906.00" y="50.00" font-family="Arial, sans-serif" font-size="12">persistencia</text></g>
<g><line x1="870.00" y1="64.00" x2="898.00" y2="64.00" stroke="#2a6fbb" stroke-width="2"/><text x="906.00" y="68.00" font-family="Arial, sans-serif" font-size="12">AR(0) / media</text></g>
<g><line x1="870.00" y1="82.00" x2="898.00" y2="82.00" stroke="#b45f06" stroke-width="2"/><text x="906.00" y="86.00" font-family="Arial, sans-serif" font-size="12">kNN k=5</text></g>
<line x1="76.00" y1="398.00" x2="76.00" y2="403.00" stroke="#222222"/>
<text x="76.00" y="422" text-anchor="middle" font-family="Arial, sans-serif" font-size="10">8800</text>
<line x1="319.99" y1="398.00" x2="319.99" y2="403.00" stroke="#222222"/>
<text x="319.99" y="422" text-anchor="middle" font-family="Arial, sans-serif" font-size="10">9351</text>
<line x1="563.98" y1="398.00" x2="563.98" y2="403.00" stroke="#222222"/>
<text x="563.98" y="422" text-anchor="middle" font-family="Arial, sans-serif" font-size="10">9901</text>
<line x1="807.96" y1="398.00" x2="807.96" y2="403.00" stroke="#222222"/>
<text x="807.96" y="422" text-anchor="middle" font-family="Arial, sans-serif" font-size="10">10452</text>
<line x1="1050.00" y1="398.00" x2="1050.00" y2="403.00" stroke="#222222"/>
<text x="1050.00" y="422" text-anchor="middle" font-family="Arial, sans-serif" font-size="10">10998</text>
<text x="563.00" y="450" text-anchor="middle" font-family="Arial, sans-serif" font-size="13">t</text>
<text transform="translate(18,228.0) rotate(-90)" text-anchor="middle" font-family="Arial, sans-serif" font-size="13">x[t+1]</text>
</svg>