<svg xmlns="http://www.w3.org/2000/svg" width="1080" height="460" viewBox="0 0 1080 460">
<rect x="0" y="0" width="1080" height="460" fill="#ffffff"/>
<text x="540.0" y="28" text-anchor="middle" font-family="Arial, sans-serif" font-size="18" font-weight="700">Prediccion test corta t=10533-10582 logistic_clean</text>
<rect x="76" y="58" width="974.00" height="340.00" fill="none" stroke="#222222"/>
<line x1="76" y1="398.00" x2="1050.00" y2="398.00" stroke="#e8e8e8"/>
<text x="68" y="402.00" text-anchor="end" font-family="Arial, sans-serif" font-size="11">-0.0723</text>
<line x1="76" y1="313.00" x2="1050.00" y2="313.00" stroke="#e8e8e8"/>
<text x="68" y="317.00" text-anchor="end" font-family="Arial, sans-serif" font-size="11">0.215</text>
<line x1="76" y1="228.00" x2="1050.00" y2="228.00" stroke="#e8e8e8"/>
<text x="68" y="232.00" text-anchor="end" font-family="Arial, sans-serif" font-size="11">0.503</text>
<line x1="76" y1="143.00" x2="1050.00" y2="143.00" stroke="#e8e8e8"/>
<text x="68" y="147.00" text-anchor="end" font-family="Arial, sans-serif" font-size="11">0.79</text>
<line x1="76" y1="58.00" x2="1050.00" y2="58.00" stroke="#e8e8e8"/>
<text x="68" y="62.00" text-anchor="end" font-family="Arial, sans-serif" font-size="11">1.08</text>
<polyline points="76.00,217.72 95.88,82.58 115.76,370.04 135.63,350.90 155.51,282.69 175.39,120.25 195.27,240.26 215.14,82.71 235.02,369.53 254.90,348.93 274.78,276.24 294.65,111.41 314.53,267.27 334.41,100.98 354.29,301.87 374.16,153.21 394.04,158.17 413.92,148.37 433.80,168.38 453.67,130.28 473.55,212.17 493.43,84.66 513.31,361.89 533.18,320.62 553.06,195.04 572.94,96.32 592.82,318.26 612.69,189.25 632.57,102.06 652.45,298.13 672.33,145.99 692.20,173.63 712.08,122.07 731.96,234.96 751.84,81.45 771.71,374.55 791.59,368.41 811.47,344.68 831.35,262.66 851.22,96.46 871.10,317.76 890.98,188.05 910.86,103.37 930.73,293.68 950.61,137.91 970.49,192.61 990.37,98.62 1010.24,310.09 1030.12,170.38 1050.00,127.06" fill="none" stroke="#222222" stroke-width="1.6"/>
<polyline points="76.00,128.22 95.88,217.72 115.76,82.58 135.63,370.04 155.51,350.90 175.39,282.69 195.27,120.25 215.14,240.26 235.02,82.71 254.90,369.53 274.78,348.93 294.65,276.24 314.53,111.41 334.41,267.27 354.29,100.98 374.16,301.87 394.04,153.21 413.92,158.17 433.80,148.37 453.67,168.38 473.55,130.28 493.43,212.17 513.31,84.66 533.18,361.89 553.06,320.62 572.94,195.04 592.82,96.32 612.69,318.26 632.57,189.25 652.45,102.06 672.33,298.13 692.20,145.99 712.08,173.63 731.96,122.07 751.84,234.96 771.71,81.45 791.59,374.55 811.47,368.41 831.35,344.68 851.22,262.66 871.10,96.46 890.98,317.76 910.86,188.05 930.73,103.37 950.61,293.68 970.49,137.91 990.37,192.61 1010.24,98.62 1030.12,310.09 1050.00,170.38" fill="none" stroke="#6f7f8f" stroke-width="1.6"/>
<polyline points="76.00,228.67 95.88,228.67 115.76,228.67 135.63,228.67 155.51,228.67 175.39,228.67 195.27,228.67 215.14,228.67 235.02,228.67 254.90,228.67 274.78,228.67 294.65,228.67 314.53,228.67 334.41,228.67 354.29,228.67 374.16,228.67 394.04,228.67 413.92,228.67 433.80,228.67 453.67,228.67 473.55,228.67 493.43,228.67 513.31,228.67 533.18,228.67 553.06,228.67 572.94,228.67 592.82,228.67 612.69,228.67 632.57,228.67 652.45,228.67 672.33,228.67 692.20,228.67 712.08,228.67 731.96,228.67 751.84,228.67 771.71,228.67 791.59,228.67 811.47,228.67 831.35,228.67 851.22,228.67 871.10,228.67 890.98,228.67 910.86,228.67 930.73,228.67 950.61,228.67 970.49,228.67 990.37,228.67 1010.24,228.67 1030.12,228.67 1050.00,228.67" fill="none" stroke="#2a6fbb" stroke-width="1.6"/>
<polyline points="76.00,248.67 95.88,86.87 115.76,327.16 135.63,340.70 155.51,307.34 175.39,136.80 195.27,253.18 215.14,88.52 235.02,329.15 254.90,303.29 274.78,293.38 294.65,100.90 314.53,332.21 334.41,104.44 354.29,299.21 374.16,134.23 394.04,185.31 413.92,158.72 433.80,150.48 453.67,134.32 473.55,206.91 493.43,96.13 513.31,294.67 533.18,319.21 553.06,155.42 572.94,93.41 592.82,322.50 612.69,200.07 632.57,120.96 652.45,270.73 672.33,162.14 692.20,167.23 712.08,124.11 731.96,256.09 751.84,86.53 771.71,292.67 791.59,363.03 811.47,363.54 831.35,244.02 851.22,93.94 871.10,350.58 890.98,159.49 910.86,128.37 930.73,306.66 950.61,141.96 970.49,273.73 990.37,87.29 1010.24,310.69 1030.12,178.88 1050.00,146.96" fill="none" stroke="#b45f06" stroke-width="1.6"/>
<g><line x1="870.00" y1="28.00" x2="898.00" y2="28.00" stroke="#222222" stroke-width="2"/><text x="906.00" y="32.00" font-family="Arial, sans-serif" font-size="12">real</text></g>
<g><line x1="870.00" y1="46.00" x2="898.00" y2="46.00" stroke="#6f7f8f" stroke-width="2"/><text x="906.00" y="50.00" font-family="Arial, sans-serif" font-size="12">persistencia</text></g>
<g><line x1="870.00" y1="64.00" x2="898.00" y2="64.00" stroke="#2a6fbb" stroke-width="2"/><text x="906.00" y="68.00" font-family="Arial, sans-serif" font-size="12">AR(0) / media</text></g>
<g><line x1="870.00" y1="82.00" x2="898.00" y2="82.00" stroke="#b45f06" stroke-width="2"/><text x="906.00" y="86.00" font-family="Arial, sans-serif" font-size="12">kNN k=5</text></g>
<line x1="76.00" y1="398.00" x2="76.00" y2="403.00" stroke="#222222"/>
<text x="76.00" y="422" text-anchor="middle" font-family="Arial, sans-serif" font-size="10">10533</text>
<line x1="314.53" y1="398.00" x2="314.53" y2="403.00" stroke="#222222"/>
<text x="314.53" y="422" text-anchor="middle" font-family="Arial, sans-serif" font-size="10">10545</text>
<line x1="572.94" y1="398.00" x2="572.94" y2="403.00" stroke="#222222"/>
<text x="572.94" y="422" text-anchor="middle" font-family="Arial, sans-serif" font-size="10">10558</text>
<line x1="811.47" y1="398.00" x2="811.47" y2="403.00" stroke="#222222"/>
<text x="811.47" y="422" text-anchor="middle" font-family="Arial, sans-serif" font-size="10">10570</text>
<line x1="1050.00" y1="398.00" x2="1050.00" y2="403.00" stroke="#222222"/>
<text x="1050.00" y="422" text-anchor="middle" font-family="Arial, sans-serif" font-size="10">10582</text>
<text x="563.00" y="450" text-anchor="middle" font-family="Arial, sans-serif" font-size="13">t</text>
<text transform="translate(18,228.0) rotate(-90)" text-anchor="middle" font-family="Arial, sans-serif" font-size="13">x[t+1]</text>
</svg>