<svg xmlns="http://www.w3.org/2000/svg" width="1180" height="520" viewBox="0 0 1180 520">
<rect x="0" y="0" width="1180" height="520" fill="#ffffff"/>
<text x="590.0" y="28" text-anchor="middle" font-family="Arial, sans-serif" font-size="18" font-weight="700">MVP 1000 velas: contexto y prediccion HAR</text>
<rect x="82" y="58" width="1066.00" height="390.00" fill="none" stroke="#222222"/>
<line x1="82" y1="448.00" x2="1148.00" y2="448.00" stroke="#e8e8e8"/>
<text x="74" y="452.00" text-anchor="end" font-family="Arial, sans-serif" font-size="11">-14</text>
<line x1="82" y1="350.50" x2="1148.00" y2="350.50" stroke="#e8e8e8"/>
<text x="74" y="354.50" text-anchor="end" font-family="Arial, sans-serif" font-size="11">-12.6</text>
<line x1="82" y1="253.00" x2="1148.00" y2="253.00" stroke="#e8e8e8"/>
<text x="74" y="257.00" text-anchor="end" font-family="Arial, sans-serif" font-size="11">-11.1</text>
<line x1="82" y1="155.50" x2="1148.00" y2="155.50" stroke="#e8e8e8"/>
<text x="74" y="159.50" text-anchor="end" font-family="Arial, sans-serif" font-size="11">-9.71</text>
<line x1="82" y1="58.00" x2="1148.00" y2="58.00" stroke="#e8e8e8"/>
<text x="74" y="62.00" text-anchor="end" font-family="Arial, sans-serif" font-size="11">-8.28</text>
<polyline points="82.00,84.90 85.55,200.82 89.11,201.18 92.66,200.96 96.21,214.71 99.77,234.36 103.32,217.47 106.87,230.87 110.43,234.87 113.98,237.57 117.53,245.04 121.09,248.84 124.64,245.41 128.19,257.44 131.75,276.65 135.30,262.94 138.85,262.91 142.41,260.51 145.96,296.73 149.51,297.39 153.07,296.79 156.62,299.37 160.17,301.52 163.73,287.27 167.28,293.80 170.83,293.62 174.39,291.26 177.94,304.48 181.49,305.51 185.05,304.52 188.60,294.40 192.15,302.38 195.71,301.39 199.26,294.37 202.81,294.64 206.37,303.88 209.92,303.44 213.47,303.05 217.03,323.60 220.58,337.50 224.13,320.60 227.69,317.24 231.24,307.63 234.79,306.77 238.35,308.60 241.90,312.39 245.45,310.11 249.01,321.46 252.56,315.30 256.11,299.86 259.67,301.04 263.22,290.06 266.77,271.36 270.33,276.58 273.88,285.85 277.43,286.30 280.99,286.06 284.54,285.75 288.09,287.30 291.65,286.21 295.20,288.74 298.75,298.25 302.31,295.64 305.86,309.02 309.41,371.80 312.97,349.69 316.52,314.86 320.07,254.36 323.63,249.59 327.18,239.04 330.73,233.87 334.29,232.02 337.84,232.79 341.39,233.51 344.95,233.49 348.50,233.32 352.05,233.08 355.61,233.55 359.16,244.91 362.71,286.13 366.27,289.80 369.82,316.38 373.37,335.57 376.93,295.76 380.48,293.86 384.03,293.63 387.59,296.81 391.14,291.47 394.69,292.10 398.25,275.66 401.80,196.11 405.35,182.87 408.91,182.34 412.46,182.70 416.01,178.01 419.57,184.78 423.12,183.93 426.67,184.00 430.23,183.84 433.78,184.78 437.33,184.75 440.89,188.25 444.44,252.46 447.99,295.96 451.55,304.58 455.10,302.63 458.65,323.58 462.21,316.71 465.76,310.72 469.31,308.40 472.87,309.63 476.42,302.31 479.97,300.15 483.53,312.29 487.08,271.38 490.63,273.15 494.19,273.03 497.74,269.90 501.29,276.30 504.85,280.10 508.40,288.66 511.95,280.64 515.51,280.64 519.06,281.73 522.61,283.53 526.17,268.28 529.72,253.44 533.27,255.68 536.83,255.67 540.38,258.52 543.93,258.57 547.49,252.98 551.04,253.21 554.59,259.95 558.15,257.89 561.70,257.58 565.25,257.27 568.81,268.82 572.36,285.85 575.91,287.82 579.47,281.29 583.02,282.73 586.57,282.54 590.13,291.53 593.68,291.72 597.23,288.00 600.79,290.84 604.34,297.31 607.89,296.07 611.45,293.50 615.00,327.41 618.55,321.18 622.11,333.37 625.66,315.67 629.21,314.34 632.77,312.97 636.32,313.17 639.87,314.94 643.43,314.56 646.98,314.40 650.53,312.22 654.09,313.93 657.64,345.21 661.19,357.84 664.75,357.73 668.30,394.94 671.85,399.14 675.41,387.60 678.96,387.42 682.51,399.33 686.07,401.45 689.62,402.17 693.17,421.10 696.73,331.75 700.28,333.52 703.83,334.25 707.39,291.17 710.94,281.05 714.49,280.28 718.05,281.52 721.60,279.01 725.15,279.78 728.71,267.90 732.26,267.57 735.81,267.50 739.37,291.66 742.92,283.02 746.47,282.87 750.03,318.08 753.58,336.27 757.13,338.64 760.69,343.14 764.24,336.79 767.79,320.85 771.35,348.47 774.90,349.44 778.45,343.12 782.01,345.93 785.56,367.85 789.11,366.53 792.67,317.05 796.22,283.81 799.77,281.68 803.33,280.85 806.88,283.06 810.43,291.74 813.99,291.07 817.54,282.05 821.09,266.29 824.65,266.30 828.20,266.58 831.75,266.86 835.31,277.64 838.86,301.55 842.41,304.48 845.97,305.57 849.52,308.98 853.07,308.99 856.63,310.61 860.18,325.06 863.73,370.67 867.29,345.61 870.84,321.97 874.39,297.94 877.95,246.49 881.50,230.42 885.05,230.39 888.61,229.61 892.16,224.86 895.71,224.24 899.27,216.96 902.82,213.95 906.37,214.89 909.93,215.85 913.48,220.02 917.03,222.94 920.59,252.55 924.14,278.25 927.69,278.12 931.25,274.43 934.80,284.09 938.35,267.59 941.91,283.03 945.46,291.12 949.01,291.15 952.57,293.77 956.12,290.69 959.67,300.50 963.23,320.26 966.78,321.99 970.33,315.39 973.89,324.42 977.44,326.62 980.99,367.77 984.55,355.36 988.10,328.77 991.65,328.60 995.21,335.91 998.76,341.45 1002.31,343.84 1005.87,342.35 1009.42,342.51 1012.97,343.80 1016.53,337.27 1020.08,337.50 1023.63,334.43 1027.19,318.22 1030.74,330.02 1034.29,329.54 1037.85,329.95 1041.40,327.83 1044.95,327.48 1048.51,329.09 1052.06,324.48 1055.61,328.26 1059.17,335.42 1062.72,318.94 1066.27,325.80 1069.83,353.56 1073.38,306.06 1076.93,305.27 1080.49,285.30 1084.04,287.03 1087.59,284.92 1091.15,274.98 1094.70,277.51 1098.25,278.52 1101.81,276.10 1105.36,284.14 1108.91,276.35 1112.47,276.62 1116.02,310.56 1119.57,304.42 1123.13,330.32 1126.68,330.88 1130.23,335.80 1133.79,353.90 1137.34,355.13 1140.89,354.02 1144.45,361.90" fill="none" stroke="#2a6fbb" stroke-width="1.6"/>
<line x1="1144.45" y1="322.09" x2="1148.00" y2="322.09" stroke="#b45f06" stroke-width="2" stroke-dasharray="5,4"/>
<circle cx="1148.00" cy="322.09" r="5.5" fill="#b45f06"/>
<text x="82.00" y="482" text-anchor="middle" font-family="Arial, sans-serif" font-size="10">2026-04-29 19:00</text>
<text x="615.00" y="482" text-anchor="middle" font-family="Arial, sans-serif" font-size="10">2026-04-30 07:30</text>
<text x="1144.45" y="482" text-anchor="middle" font-family="Arial, sans-serif" font-size="10">2026-04-30 19:55</text>
<text x="1148.00" y="482" text-anchor="middle" font-family="Arial, sans-serif" font-size="10">pred +1h</text>
<g><line x1="930.00" y1="30.00" x2="958.00" y2="30.00" stroke="#2a6fbb" stroke-width="2"/><text x="966.00" y="34.00" font-family="Arial, sans-serif" font-size="12">log_rv_past_12</text></g>
<g><line x1="930.00" y1="48.00" x2="958.00" y2="48.00" stroke="#b45f06" stroke-width="2"/><text x="966.00" y="52.00" font-family="Arial, sans-serif" font-size="12">HAR pred=-12.15</text></g>
<text x="615.00" y="510" text-anchor="middle" font-family="Arial, sans-serif" font-size="13">tiempo</text>
<text transform="translate(18,253.0) rotate(-90)" text-anchor="middle" font-family="Arial, sans-serif" font-size="13">logRV</text>
</svg>