<svg xmlns="http://www.w3.org/2000/svg" width="1100" height="430" viewBox="0 0 1100 430">
<rect x="0" y="0" width="1100" height="430" fill="#ffffff"/>
<text x="550.0" y="26" text-anchor="middle" font-family="Arial, sans-serif" font-size="18" font-weight="700">A) close - Precio BTCUSDT close</text>
<line x1="88" y1="372.00" x2="1066.00" y2="372.00" stroke="#e6e6e6" stroke-width="1"/>
<text x="80" y="376.00" text-anchor="end" font-family="Arial, sans-serif" font-size="11" fill="#333333">34.2k</text>
<line x1="88" y1="293.50" x2="1066.00" y2="293.50" stroke="#e6e6e6" stroke-width="1"/>
<text x="80" y="297.50" text-anchor="end" font-family="Arial, sans-serif" font-size="11" fill="#333333">58.3k</text>
<line x1="88" y1="215.00" x2="1066.00" y2="215.00" stroke="#e6e6e6" stroke-width="1"/>
<text x="80" y="219.00" text-anchor="end" font-family="Arial, sans-serif" font-size="11" fill="#333333">82.3k</text>
<line x1="88" y1="136.50" x2="1066.00" y2="136.50" stroke="#e6e6e6" stroke-width="1"/>
<text x="80" y="140.50" text-anchor="end" font-family="Arial, sans-serif" font-size="11" fill="#333333">106.3k</text>
<line x1="88" y1="58.00" x2="1066.00" y2="58.00" stroke="#e6e6e6" stroke-width="1"/>
<text x="80" y="62.00" text-anchor="end" font-family="Arial, sans-serif" font-size="11" fill="#333333">130.4k</text>
<rect x="88" y="58.00" width="978.00" height="314.00" fill="none" stroke="#222222" stroke-width="1"/>
<polyline points="88.00,339.18 88.22,334.05 88.44,334.07 88.65,337.30 88.87,337.81 89.09,335.62 89.31,335.17 89.52,350.21 89.74,346.24 89.96,341.79 90.18,344.55 90.40,342.47 90.61,344.08 90.83,339.54 91.05,340.61 91.27,337.83 91.48,339.33 91.70,342.74 91.92,339.47 92.14,342.88 92.36,341.45 92.57,339.37 92.79,340.19 93.01,341.83 93.23,341.45 93.44,339.67 93.66,340.85 93.88,339.28 94.10,340.40 94.32,338.59 94.53,339.18 94.75,341.29 94.97,342.40 95.19,339.57 95.40,340.14 95.62,329.90 95.84,329.67 96.06,332.42 96.28,330.55 96.49,332.97 96.71,327.25 96.93,335.34 97.15,332.69 97.36,334.69 97.58,334.01 97.80,337.86 98.02,335.87 98.24,328.18 98.45,334.44 98.67,330.71 98.89,324.10 99.11,334.09 99.32,330.40 99.54,333.88 99.76,332.41 99.98,334.74 100.20,333.90 100.41,346.89 100.63,345.09 100.85,342.48 101.07,344.79 101.28,342.51 101.50,343.26 101.72,344.39 101.94,344.69 102.15,343.14 102.37,343.32 102.59,345.04 102.81,347.45 103.03,343.99 103.24,343.62 103.46,345.93 103.68,345.91 103.90,342.16 104.11,344.97 104.33,343.26 104.55,346.26 104.77,342.31 104.99,343.72 105.20,341.71 105.42,343.39 105.64,344.71 105.86,343.63 106.07,345.67 106.29,344.93 106.51,343.72 106.73,343.58 106.95,345.35 107.16,344.40 107.38,350.63 107.60,350.50 107.82,348.14 108.03,352.01 108.25,347.02 108.47,346.04 108.69,348.27 108.91,347.36 109.12,348.30 109.34,348.21 109.56,347.04 109.78,347.19 109.99,347.96 110.21,347.87 110.43,347.02 110.65,347.27 110.87,348.77 111.08,348.45 111.30,351.84 111.52,349.30 111.74,353.74 111.95,352.12 112.17,354.67 112.39,352.65 112.61,357.35 112.83,357.73 113.04,354.47 113.26,354.84 113.48,352.43 113.70,351.51 113.91,353.68 114.13,352.49 114.35,354.59 114.57,353.70 114.79,352.63 115.00,352.20 115.22,354.43 115.44,354.07 115.66,352.46 115.87,353.36 116.09,348.31 116.31,349.23 116.53,345.89 116.75,346.84 116.96,348.02 117.18,348.31 117.40,346.92 117.62,347.39 117.83,345.95 118.05,346.24 118.27,343.97 118.49,344.86 118.71,347.54 118.92,347.57 119.14,345.03 119.36,345.37 119.58,347.07 119.79,346.67 120.01,342.32 120.23,342.78 120.45,340.95 120.67,340.77 120.88,342.73 121.10,340.96 121.32,344.19 121.54,343.15 121.75,345.32 121.97,340.98 122.19,345.59 122.41,344.39 122.63,346.83 122.84,346.65 123.06,343.62 123.28,345.12 123.50,341.97 123.71,342.42 123.93,343.47 124.15,344.52 124.37,341.96 124.59,343.49 124.80,342.15 125.02,342.64 125.24,343.35 125.46,343.55 125.67,342.46 125.89,343.06 126.11,344.14 126.33,344.14 126.55,342.96 126.76,343.46 126.98,345.64 127.20,345.29 127.42,342.61 127.63,341.72 127.85,344.74 128.07,345.37 128.29,343.49 128.51,343.05 128.72,344.38 128.94,343.78 129.16,342.14 129.38,342.59 129.59,343.96 129.81,343.69 130.03,342.41 130.25,342.43 130.46,337.78 130.68,338.57 130.90,337.16 131.12,337.90 131.34,335.13 131.55,335.96 131.77,332.57 131.99,333.25 132.21,328.19 132.42,330.74 132.64,326.57 132.86,330.09 133.08,328.71 133.30,330.63 133.51,329.10 133.73,329.68 133.95,326.74 134.17,327.86 134.38,325.29 134.60,325.52 134.82,327.06 135.04,327.00 135.26,324.67 135.47,327.73 135.69,323.81 135.91,324.56 136.13,319.60 136.34,319.80 136.56,321.31 136.78,319.79 137.00,325.44 137.22,323.76 137.43,321.30 137.65,322.68 137.87,314.69 138.09,314.17 138.30,316.47 138.52,315.23 138.74,312.56 138.96,315.05 139.18,311.43 139.39,312.80 139.61,316.12 139.83,312.88 140.05,315.06 140.26,312.41 140.48,315.08 140.70,314.94 140.92,313.34 141.14,313.86 141.35,315.36 141.57,318.26 141.79,313.89 142.01,314.45 142.22,316.47 142.44,313.91 142.66,315.38 142.88,315.24 143.10,312.78 143.31,314.05 143.53,312.37 143.75,312.49 143.97,314.66 144.18,313.68 144.40,316.17 144.62,315.24 144.84,310.99 145.06,311.18 145.27,317.79 145.49,312.52 145.71,315.34 145.93,314.68 146.14,317.61 146.36,317.91 146.58,314.32 146.80,315.95 147.02,313.82 147.23,317.33 147.45,314.80 147.67,313.94 147.89,317.18 148.10,316.18 148.32,317.57 148.54,316.59 148.76,318.32 148.98,318.53 149.19,316.91 149.41,317.25 149.63,315.14 149.85,315.77 150.06,314.47 150.28,315.57 150.50,314.59 150.72,316.02 150.94,314.17 151.15,314.38 151.37,315.79 151.59,317.40 151.81,314.17 152.02,313.34 152.24,304.48 152.46,305.88 152.68,299.01 152.90,296.35 153.11,299.84 153.33,295.95 153.55,298.73 153.77,297.87 153.98,289.60 154.20,289.91 154.42,275.76 154.64,286.35 154.86,276.56 155.07,280.51 155.29,276.69 155.51,278.77 155.73,285.93 155.94,285.22 156.16,280.76 156.38,279.47 156.60,283.93 156.81,278.46 157.03,281.44 157.25,280.44 157.47,282.16 157.69,282.46 157.90,280.90 158.12,280.98 158.34,282.61 158.56,283.20 158.77,279.42 158.99,274.26 159.21,279.95 159.43,277.24 159.65,269.87 159.86,271.99 160.08,263.66 160.30,265.39 160.52,259.54 160.73,269.74 160.95,261.96 161.17,259.30 161.39,283.41 161.61,278.68 161.82,265.32 162.04,263.15 162.26,269.98 162.48,263.67 162.69,269.41 162.91,269.19 163.13,264.54 163.35,266.13 163.57,262.16 163.78,262.21 164.00,265.60 164.22,265.54 164.44,260.43 164.65,256.75 164.87,266.87 165.09,261.97 165.31,259.99 165.53,260.13 165.74,261.58 165.96,261.18 166.18,258.05 166.40,259.35 166.61,255.59 166.83,255.83 167.05,258.78 167.27,257.36 167.49,262.42 167.70,259.88 167.92,247.11 168.14,248.73 168.36,246.38 168.57,247.15 168.79,250.36 169.01,246.87 169.23,257.59 169.45,252.76 169.66,248.29 169.88,248.74 170.10,243.37 170.32,248.52 170.53,244.04 170.75,246.56 170.97,243.49 171.19,243.31 171.41,253.10 171.62,258.78 171.84,247.30 172.06,248.60 172.28,267.73 172.49,265.44 172.71,253.58 172.93,255.01 173.15,262.92 173.37,256.99 173.58,262.06 173.80,260.29 174.02,268.29 174.24,266.23 174.45,271.77 174.67,270.42 174.89,260.52 175.11,258.84 175.33,265.37 175.54,263.51 175.76,258.73 175.98,259.74 176.20,265.89 176.41,261.30 176.63,271.46 176.85,269.79 177.07,279.51 177.29,269.70 177.50,280.92 177.72,276.76 177.94,284.65 178.16,279.31 178.37,273.08 178.59,274.87 178.81,261.51 179.03,262.20 179.25,267.55 179.46,263.03 179.68,272.49 179.90,271.38 180.12,267.27 180.33,266.21 180.55,278.28 180.77,274.46 180.99,279.90 181.21,277.53 181.42,272.10 181.64,274.09 181.86,268.35 182.08,269.40 182.29,274.78 182.51,275.37 182.73,269.89 182.95,272.24 183.16,266.82 183.38,267.50 183.60,262.79 183.82,265.72 184.04,256.43 184.25,256.91 184.47,252.02 184.69,255.50 184.91,250.30 185.12,251.23 185.34,256.80 185.56,256.86 185.78,252.94 186.00,253.36 186.21,256.79 186.43,249.74 186.65,260.13 186.87,258.61 187.08,253.97 187.30,254.27 187.52,250.13 187.74,253.66 187.96,251.72 188.17,252.21 188.39,256.40 188.61,253.44 188.83,257.84 189.04,257.22 189.26,254.86 189.48,254.35 189.70,255.64 189.92,254.37 190.13,256.22 190.35,256.64 190.57,253.71 190.79,254.48 191.00,252.86 191.22,253.66 191.44,250.84 191.66,252.28 191.88,257.87 192.09,255.09 192.31,260.91 192.53,255.68 192.75,266.97 192.96,264.70 193.18,272.65 193.40,267.64 193.62,272.16 193.84,272.16 194.05,266.76 194.27,269.58 194.49,265.72 194.71,269.66 194.92,267.14 195.14,271.02 195.36,266.76 195.58,267.06 195.80,258.21 196.01,259.70 196.23,266.44 196.45,267.90 196.67,260.11 196.88,260.53 197.10,263.60 197.32,263.34 197.54,261.22 197.76,263.05 197.97,260.33 198.19,261.08 198.41,256.21 198.63,258.11 198.84,256.67 199.06,254.34 199.28,258.51 199.50,258.61 199.72,255.77 199.93,256.26 200.15,246.27 200.37,250.79 200.59,248.41 200.80,249.96 201.02,255.79 201.24,252.11 201.46,260.39 201.68,256.79 201.89,260.05 202.11,256.86 202.33,262.92 202.55,263.03 202.76,254.88 202.98,251.59 203.20,254.03 203.42,251.08 203.64,256.46 203.85,256.48 204.07,252.78 204.29,254.57 204.51,251.32 204.72,252.10 204.94,268.00 205.16,268.58 205.38,263.70 205.60,262.14 205.81,264.56 206.03,262.06 206.25,282.98 206.47,270.64 206.68,280.67 206.90,271.98 207.12,275.86 207.34,278.82 207.56,268.98 207.77,272.16 207.99,265.85 208.21,266.06 208.43,279.05 208.64,275.30 208.86,281.07 209.08,275.97 209.30,281.72 209.52,282.16 209.73,273.61 209.95,273.36 210.17,277.04 210.39,276.10 210.60,287.61 210.82,285.76 211.04,281.55 211.26,284.87 211.47,278.23 211.69,282.06 211.91,274.40 212.13,275.72 212.35,288.85 212.56,281.75 212.78,270.22 213.00,272.43 213.22,277.28 213.43,276.94 213.65,273.93 213.87,276.68 214.09,270.32 214.31,272.78 214.52,269.49 214.74,269.84 214.96,272.11 215.18,270.84 215.39,273.64 215.61,272.59 215.83,266.98 216.05,269.12 216.27,266.73 216.48,268.45 216.70,264.31 216.92,264.44 217.14,268.25 217.35,268.59 217.57,264.81 217.79,267.97 218.01,265.35 218.23,264.76 218.44,267.40 218.66,267.67 218.88,275.49 219.10,275.14 219.31,272.42 219.53,273.62 219.75,278.03 219.97,271.09 220.19,274.80 220.40,274.55 220.62,272.74 220.84,272.38 221.06,276.74 221.27,274.55 221.49,279.36 221.71,278.96 221.93,277.30 222.15,278.82 222.36,276.21 222.58,277.21 222.80,273.74 223.02,274.94 223.23,276.55 223.45,274.93 223.67,278.42 223.89,277.11 224.11,281.23 224.32,281.73 224.54,277.41 224.76,278.43 224.98,272.77 225.19,276.54 225.41,285.93 225.63,283.23 225.85,290.11 226.07,284.82 226.28,297.69 226.50,293.62 226.72,298.34 226.94,289.61 227.15,297.75 227.37,296.81 227.59,292.57 227.81,293.22 228.03,289.30 228.24,291.96 228.46,287.87 228.68,291.37 228.90,281.91 229.11,283.29 229.33,277.51 229.55,276.16 229.77,279.18 229.99,277.82 230.20,273.37 230.42,274.29 230.64,277.95 230.86,277.88 231.07,275.02 231.29,273.01 231.51,275.88 231.73,275.79 231.95,273.39 232.16,270.04 232.38,277.96 232.60,275.74 232.82,278.11 233.03,278.13 233.25,273.68 233.47,274.20 233.69,278.50 233.91,277.27 234.12,280.34 234.34,278.18 234.56,280.95 234.78,278.88 234.99,283.17 235.21,284.76 235.43,282.02 235.65,285.39 235.87,279.80 236.08,281.82 236.30,276.84 236.52,279.01 236.74,276.93 236.95,276.59 237.17,286.72 237.39,286.24 237.61,284.33 237.82,284.45 238.04,285.98 238.26,285.20 238.48,283.31 238.70,284.21 238.91,285.55 239.13,285.13 239.35,282.08 239.57,284.33 239.78,282.19 240.00,285.23 240.22,277.62 240.44,279.53 240.66,276.79 240.87,277.52 241.09,279.93 241.31,278.84 241.53,283.95 241.74,281.10 241.96,283.84 242.18,283.24 242.40,280.62 242.62,281.37 242.83,271.23 243.05,271.54 243.27,266.38 243.49,269.23 243.70,267.02 243.92,266.57 244.14,272.59 244.36,271.02 244.58,268.82 244.79,269.55 245.01,265.58 245.23,263.67 245.45,267.16 245.66,265.80 245.88,264.17 246.10,263.70 246.32,265.99 246.54,265.69 246.75,264.17 246.97,263.01 247.19,265.27 247.41,264.48 247.62,268.21 247.84,268.00 248.06,264.31 248.28,266.87 248.50,263.76 248.71,263.89 248.93,249.52 249.15,252.61 249.37,250.75 249.58,250.46 249.80,256.48 250.02,257.48 250.24,254.08 250.46,257.39 250.67,254.38 250.89,252.99 251.11,258.14 251.33,258.30 251.54,256.44 251.76,255.03 251.98,262.66 252.20,266.05 252.42,260.77 252.63,261.64 252.85,265.93 253.07,265.10 253.29,257.82 253.50,257.88 253.72,259.95 253.94,259.64 254.16,256.64 254.38,258.73 254.59,257.65 254.81,258.81 255.03,257.11 255.25,256.89 255.46,259.25 255.68,260.66 255.90,257.66 256.12,257.59 256.34,260.48 256.55,260.71 256.77,253.06 256.99,255.79 257.21,263.32 257.42,262.88 257.64,259.06 257.86,263.99 258.08,259.67 258.30,258.70 258.51,262.82 258.73,261.04 258.95,264.31 259.17,264.38 259.38,261.23 259.60,260.41 259.82,264.30 260.04,262.28 260.26,256.89 260.47,260.77 260.69,259.48 260.91,258.81 261.13,263.79 261.34,265.86 261.56,261.92 261.78,263.42 262.00,262.45 262.22,262.90 262.43,262.12 262.65,262.05 262.87,262.75 263.09,263.59 263.30,260.86 263.52,260.29 263.74,263.28 263.96,262.88 264.18,257.86 264.39,254.32 264.61,259.15 264.83,256.41 265.05,259.44 265.26,257.33 265.48,259.58 265.70,259.31 265.92,251.76 266.13,254.70 266.35,251.44 266.57,250.76 266.79,252.76 267.01,253.71 267.22,249.69 267.44,250.99 267.66,252.44 267.88,252.29 268.09,249.94 268.31,251.30 268.53,254.04 268.75,252.90 268.97,250.43 269.18,248.76 269.40,259.56 269.62,258.25 269.84,256.72 270.05,256.52 270.27,257.67 270.49,256.82 270.71,257.43 270.93,257.86 271.14,257.07 271.36,257.40 271.58,256.02 271.80,255.64 272.01,256.97 272.23,255.87 272.45,257.46 272.67,257.50 272.89,254.62 273.10,256.18 273.32,262.29 273.54,261.77 273.76,265.65 273.97,267.80 274.19,263.15 274.41,265.07 274.63,262.96 274.85,263.73 275.06,255.24 275.28,255.71 275.50,263.62 275.72,264.92 275.93,261.93 276.15,260.86 276.37,266.79 276.59,266.56 276.81,264.59 277.02,263.77 277.24,265.94 277.46,265.07 277.68,271.22 277.89,268.00 278.11,267.00 278.33,267.86 278.55,266.77 278.77,268.47 278.98,267.27 279.20,268.00 279.42,265.87 279.64,265.71 279.85,266.70 280.07,265.11 280.29,267.63 280.51,267.10 280.73,270.83 280.94,270.74 281.16,264.14 281.38,268.65 281.60,272.73 281.81,269.65 282.03,273.52 282.25,274.27 282.47,269.47 282.69,269.41 282.90,271.33 283.12,270.90 283.34,272.41 283.56,272.01 283.77,268.44 283.99,266.81 284.21,272.80 284.43,270.84 284.65,272.59 284.86,271.26 285.08,276.08 285.30,276.59 285.52,273.72 285.73,273.28 285.95,275.00 286.17,273.05 286.39,273.98 286.61,273.55 286.82,273.99 287.04,273.89 287.26,273.04 287.48,273.32 287.69,274.98 287.91,274.13 288.13,278.11 288.35,277.16 288.57,284.68 288.78,282.30 289.00,291.30 289.22,290.57 289.44,282.64 289.65,285.62 289.87,281.00 290.09,283.43 290.31,280.54 290.53,280.15 290.74,283.02 290.96,281.58 291.18,285.00 291.40,283.75 291.61,285.26 291.83,285.58 292.05,283.30 292.27,284.03 292.48,280.10 292.70,282.87 292.92,280.65 293.14,281.95 293.36,285.15 293.57,284.34 293.79,287.40 294.01,285.84 294.23,284.14 294.44,284.88 294.66,283.85 294.88,284.26 295.10,285.26 295.32,285.44 295.53,282.16 295.75,282.99 295.97,280.02 296.19,281.57 296.40,275.46 296.62,276.60 296.84,279.32 297.06,275.25 297.28,278.57 297.49,277.19 297.71,279.72 297.93,278.11 298.15,281.86 298.36,280.34 298.58,285.14 298.80,283.97 299.02,288.31 299.24,285.81 299.45,289.41 299.67,286.28 299.89,293.09 300.11,292.57 300.32,298.19 300.54,292.22 300.76,298.29 300.98,296.74 301.20,308.12 301.41,304.64 301.63,298.09 301.85,297.99 302.07,300.67 302.28,300.15 302.50,297.30 302.72,298.47 302.94,293.62 303.16,293.01 303.37,297.27 303.59,294.71 303.81,298.68 304.03,296.44 304.24,306.02 304.46,304.29 304.68,294.64 304.90,296.36 305.12,303.03 305.33,300.19 305.55,296.50 305.77,297.22 305.99,294.82 306.20,297.40 306.42,293.92 306.64,296.21 306.86,289.93 307.08,291.87 307.29,295.83 307.51,296.89 307.73,293.27 307.95,296.80 308.16,291.58 308.38,290.23 308.60,296.89 308.82,295.73 309.04,298.87 309.25,298.05 309.47,294.48 309.69,292.74 309.91,297.10 310.12,295.07 310.34,293.33 310.56,293.28 310.78,291.34 311.00,293.01 311.21,288.37 311.43,289.78 311.65,286.75 311.87,289.39 312.08,284.30 312.30,285.57 312.52,278.13 312.74,280.18 312.96,277.26 313.17,278.01 313.39,271.69 313.61,271.76 313.83,279.49 314.04,277.41 314.26,270.99 314.48,274.09 314.70,267.92 314.92,268.44 315.13,272.53 315.35,270.32 315.57,274.90 315.79,275.02 316.00,271.36 316.22,271.19 316.44,276.58 316.66,277.14 316.88,274.37 317.09,273.24 317.31,276.65 317.53,274.91 317.75,264.03 317.96,263.82 318.18,267.26 318.40,265.86 318.62,266.85 318.84,266.38 319.05,263.19 319.27,263.67 319.49,266.03 319.71,266.16 319.92,263.07 320.14,268.07 320.36,260.30 320.58,261.03 320.79,264.69 321.01,266.27 321.23,260.93 321.45,261.28 321.67,266.86 321.88,268.12 322.10,263.92 322.32,264.20 322.54,269.81 322.75,269.85 322.97,266.79 323.19,264.93 323.41,268.21 323.63,266.28 323.84,274.65 324.06,275.10 324.28,273.23 324.50,276.25 324.71,269.84 324.93,269.75 325.15,263.79 325.37,265.31 325.59,262.05 325.80,263.94 326.02,261.03 326.24,262.80 326.46,260.82 326.67,261.55 326.89,257.31 327.11,265.52 327.33,258.46 327.55,264.61 327.76,261.45 327.98,262.96 328.20,260.78 328.42,261.81 328.63,255.75 328.85,255.29 329.07,262.51 329.29,261.67 329.51,267.40 329.72,268.24 329.94,264.99 330.16,265.47 330.38,269.49 330.59,270.12 330.81,266.91 331.03,269.78 331.25,266.18 331.47,265.64 331.68,272.90 331.90,271.52 332.12,275.96 332.34,271.84 332.55,278.87 332.77,280.24 332.99,269.72 333.21,272.19 333.43,275.58 333.64,270.05 333.86,279.56 334.08,277.69 334.30,285.22 334.51,283.00 334.73,280.66 334.95,280.77 335.17,287.96 335.39,284.23 335.60,287.19 335.82,284.34 336.04,293.69 336.26,289.45 336.47,308.40 336.69,305.12 336.91,322.61 337.13,321.33 337.35,302.62 337.56,307.87 337.78,300.15 338.00,305.75 338.22,299.13 338.43,301.33 338.65,297.72 338.87,301.90 339.09,296.20 339.31,295.48 339.52,302.92 339.74,305.31 339.96,295.57 340.18,298.37 340.39,295.79 340.61,297.60 340.83,288.53 341.05,288.95 341.27,279.79 341.48,283.87 341.70,288.74 341.92,288.47 342.14,283.96 342.35,286.95 342.57,284.33 342.79,286.39 343.01,284.16 343.23,285.17 343.44,283.45 343.66,282.85 343.88,286.82 344.10,285.81 344.31,292.92 344.53,290.75 344.75,293.84 344.97,294.68 345.19,286.26 345.40,288.02 345.62,292.74 345.84,288.34 346.06,292.61 346.27,292.49 346.49,282.89 346.71,286.39 346.93,283.98 347.14,282.29 347.36,285.96 347.58,287.32 347.80,292.28 348.02,291.05 348.23,294.96 348.45,294.34 348.67,288.37 348.89,289.31 349.10,298.80 349.32,296.36 349.54,292.14 349.76,295.38 349.98,288.44 350.19,289.34 350.41,291.92 350.63,290.80 350.85,289.64 351.06,288.91 351.28,290.34 351.50,287.39 351.72,289.97 351.94,287.14 352.15,289.65 352.37,288.41 352.59,293.20 352.81,291.86 353.02,294.66 353.24,293.75 353.46,290.22 353.68,291.17 353.90,283.49 354.11,284.15 354.33,289.56 354.55,292.00 354.77,289.14 354.98,291.30 355.20,288.34 355.42,290.95 355.64,287.65 355.86,281.93 356.07,287.97 356.29,286.59 356.51,283.35 356.73,283.67 356.94,287.35 357.16,286.78 357.38,284.53 357.60,285.38 357.82,280.99 358.03,282.97 358.25,271.99 358.47,275.94 358.69,273.39 358.90,275.05 359.12,273.44 359.34,276.01 359.56,273.54 359.78,274.13 359.99,275.41 360.21,275.10 360.43,273.22 360.65,272.04 360.86,276.07 361.08,274.84 361.30,277.41 361.52,275.48 361.74,278.92 361.95,277.39 362.17,280.38 362.39,279.54 362.61,282.80 362.82,280.94 363.04,293.05 363.26,292.37 363.48,287.15 363.70,288.40 363.91,294.51 364.13,291.28 364.35,288.70 364.57,289.76 364.78,284.21 365.00,285.89 365.22,291.42 365.44,291.92 365.66,288.90 365.87,288.57 366.09,294.59 366.31,291.68 366.53,289.68 366.74,290.15 366.96,291.61 367.18,290.56 367.40,291.72 367.62,290.94 367.83,294.91 368.05,293.20 368.27,295.90 368.49,292.21 368.70,296.78 368.92,296.39 369.14,292.16 369.36,293.87 369.58,290.75 369.79,291.30 370.01,288.57 370.23,290.08 370.45,295.58 370.66,293.59 370.88,296.06 371.10,294.57 371.32,301.98 371.54,299.67 371.75,292.64 371.97,293.12 372.19,297.36 372.41,296.72 372.62,299.43 372.84,296.78 373.06,301.26 373.28,301.26 373.49,298.18 373.71,297.98 373.93,307.88 374.15,306.08 374.37,311.51 374.58,308.15 374.80,306.18 375.02,304.76 375.24,307.02 375.45,307.96 375.67,305.84 375.89,305.22 376.11,307.12 376.33,308.42 376.54,305.40 376.76,305.66 376.98,303.12 377.20,304.78 377.41,300.39 377.63,300.68 377.85,294.92 378.07,299.23 378.29,296.44 378.50,298.92 378.72,294.82 378.94,294.40 379.16,299.76 379.37,300.35 379.59,297.24 379.81,302.23 380.03,294.45 380.25,296.50 380.46,292.99 380.68,296.29 380.90,292.70 381.12,292.92 381.33,294.91 381.55,295.12 381.77,293.21 381.99,295.34 382.21,287.88 382.42,288.37 382.64,285.82 382.86,287.24 383.08,289.06 383.29,289.33 383.51,287.58 383.73,287.95 383.95,286.97 384.17,286.56 384.38,288.45 384.60,287.44 384.82,293.36 385.04,293.57 385.25,290.75 385.47,291.77 385.69,295.70 385.91,295.54 386.13,291.85 386.34,292.86 386.56,285.00 386.78,283.68 387.00,288.71 387.21,285.36 387.43,287.97 387.65,290.43 387.87,286.18 388.09,288.92 388.30,279.65 388.52,281.85 388.74,277.81 388.96,278.69 389.17,275.33 389.39,279.10 389.61,274.57 389.83,275.26 390.05,279.26 390.26,279.99 390.48,277.06 390.70,277.44 390.92,278.58 391.13,278.12 391.35,276.72 391.57,276.26 391.79,278.55 392.01,277.42 392.22,279.38 392.44,277.05 392.66,279.77 392.88,278.57 393.09,272.58 393.31,277.62 393.53,275.51 393.75,276.22 393.97,278.47 394.18,278.73 394.40,275.19 394.62,278.51 394.84,274.88 395.05,274.74 395.27,272.24 395.49,273.89 395.71,276.61 395.93,274.81 396.14,277.67 396.36,278.75 396.58,275.19 396.80,275.99 397.01,269.32 397.23,269.63 397.45,272.57 397.67,271.97 397.89,268.52 398.10,270.36 398.32,266.98 398.54,269.24 398.76,267.59 398.97,268.20 399.19,270.03 399.41,268.87 399.63,270.02 399.85,268.31 400.06,270.05 400.28,269.90 400.50,268.57 400.72,268.02 400.93,273.56 401.15,272.48 401.37,277.00 401.59,274.27 401.80,277.46 402.02,278.08 402.24,275.10 402.46,274.36 402.68,281.50 402.89,278.90 403.11,286.61 403.33,285.22 403.55,281.62 403.76,285.79 403.98,280.57 404.20,287.70 404.42,283.49 404.64,283.02 404.85,287.17 405.07,287.48 405.29,284.41 405.51,286.21 405.72,283.54 405.94,281.49 406.16,284.87 406.38,282.39 406.60,279.84 406.81,281.97 407.03,280.29 407.25,280.16 407.47,281.80 407.68,282.18 407.90,280.86 408.12,281.80 408.34,280.12 408.56,280.62 408.77,278.29 408.99,279.64 409.21,274.91 409.43,278.79 409.64,273.48 409.86,275.18 410.08,280.68 410.30,278.71 410.52,280.97 410.73,277.67 410.95,281.56 411.17,279.59 411.39,281.19 411.60,279.54 411.82,281.92 412.04,279.97 412.26,286.43 412.48,286.37 412.69,284.07 412.91,283.56 413.13,287.65 413.35,291.24 413.56,285.91 413.78,286.30 414.00,283.80 414.22,284.24 414.44,277.20 414.65,277.68 414.87,280.08 415.09,279.14 415.31,277.35 415.52,276.59 415.74,278.22 415.96,277.09 416.18,279.00 416.40,278.45 416.61,281.09 416.83,280.14 417.05,277.60 417.27,279.09 417.48,271.52 417.70,272.52 417.92,267.56 418.14,266.73 418.36,270.60 418.57,262.71 418.79,271.67 419.01,270.01 419.23,263.94 419.44,265.59 419.66,263.37 419.88,260.85 420.10,264.18 420.32,261.93 420.53,263.51 420.75,262.81 420.97,265.55 421.19,263.02 421.40,265.59 421.62,264.78 421.84,260.93 422.06,262.83 422.28,258.95 422.49,258.57 422.71,261.01 422.93,259.59 423.15,260.63 423.36,260.63 423.58,261.55 423.80,260.25 424.02,261.30 424.24,261.10 424.45,260.10 424.67,260.79 424.89,258.02 425.11,257.05 425.32,259.62 425.54,259.54 425.76,265.26 425.98,261.97 426.20,265.92 426.41,262.40 426.63,265.63 426.85,265.49 427.07,263.00 427.28,262.43 427.50,265.12 427.72,264.03 427.94,267.51 428.15,265.53 428.37,270.57 428.59,266.42 428.81,263.16 429.03,265.73 429.24,261.86 429.46,263.00 429.68,259.40 429.90,260.92 430.11,263.96 430.33,259.48 430.55,267.83 430.77,263.73 430.99,268.91 431.20,264.21 431.42,265.59 431.64,265.65 431.86,263.76 432.07,265.14 432.29,264.00 432.51,264.82 432.73,261.88 432.95,263.12 433.16,260.70 433.38,262.82 433.60,259.04 433.82,260.07 434.03,255.54 434.25,256.62 434.47,250.16 434.69,252.10 434.91,248.79 435.12,249.32 435.34,243.55 435.56,248.42 435.78,246.77 435.99,246.74 436.21,250.32 436.43,249.24 436.65,245.61 436.87,246.54 437.08,248.33 437.30,248.20 437.52,255.84 437.74,253.13 437.95,258.36 438.17,258.14 438.39,250.24 438.61,253.66 438.83,258.81 439.04,255.49 439.26,256.84 439.48,256.20 439.70,258.14 439.91,256.58 440.13,261.39 440.35,259.29 440.57,261.01 440.79,263.01 441.00,257.37 441.22,260.77 441.44,257.29 441.66,257.69 441.87,261.79 442.09,265.15 442.31,261.32 442.53,262.15 442.75,258.20 442.96,259.40 443.18,253.68 443.40,258.67 443.62,239.09 443.83,237.71 444.05,245.92 444.27,243.27 444.49,235.23 444.71,236.10 444.92,240.71 445.14,239.92 445.36,234.75 445.58,233.19 445.79,236.87 446.01,236.78 446.23,234.77 446.45,236.61 446.67,231.94 446.88,233.34 447.10,235.06 447.32,233.27 447.54,234.65 447.75,236.02 447.97,232.64 448.19,233.79 448.41,223.64 448.63,225.12 448.84,220.56 449.06,226.58 449.28,217.54 449.50,220.81 449.71,214.90 449.93,217.41 450.15,197.11 450.37,191.82 450.59,200.86 450.80,190.39 451.02,205.92 451.24,203.71 451.46,190.75 451.67,194.71 451.89,202.26 452.11,199.18 452.33,179.43 452.55,179.78 452.76,195.94 452.98,192.13 453.20,184.77 453.42,184.30 453.63,199.15 453.85,199.80 454.07,194.93 454.29,198.42 454.51,187.69 454.72,193.00 454.94,184.32 455.16,186.35 455.38,184.11 455.59,184.64 455.81,189.51 456.03,186.17 456.25,191.54 456.46,188.92 456.68,185.16 456.90,187.63 457.12,193.95 457.34,192.13 457.55,183.12 457.77,191.48 457.99,181.52 458.21,190.81 458.42,183.44 458.64,187.52 458.86,183.46 459.08,186.12 459.30,177.22 459.51,178.33 459.73,184.95 459.95,183.16 460.17,175.15 460.38,174.23 460.60,179.27 460.82,177.22 461.04,164.46 461.26,162.53 461.47,171.20 461.69,165.36 461.91,161.15 462.13,159.25 462.34,162.79 462.56,166.03 462.78,158.76 463.00,159.58 463.22,162.79 463.43,162.59 463.65,161.12 463.87,161.30 464.09,166.36 464.30,164.73 464.52,162.01 464.74,163.16 464.96,170.98 465.18,170.09 465.39,162.91 465.61,164.98 465.83,161.28 466.05,163.66 466.26,175.14 466.48,180.44 466.70,173.87 466.92,174.27 467.14,184.86 467.35,174.99 467.57,187.06 467.79,183.88 468.01,177.99 468.22,180.53 468.44,168.89 468.66,166.32 468.88,173.74 469.10,170.74 469.31,174.65 469.53,170.13 469.75,174.48 469.97,173.25 470.18,167.78 470.40,171.49 470.62,161.84 470.84,163.08 471.06,167.90 471.27,169.01 471.49,166.66 471.71,169.81 471.93,167.05 472.14,166.81 472.36,170.99 472.58,169.25 472.80,166.07 473.02,167.51 473.23,164.49 473.45,163.57 473.67,170.76 473.89,173.87 474.10,165.92 474.32,168.71 474.54,174.82 474.76,169.48 474.98,174.51 475.19,178.15 475.41,169.61 475.63,172.44 475.85,168.59 476.06,167.19 476.28,172.04 476.50,174.28 476.72,160.49 476.94,163.85 477.15,145.64 477.37,145.73 477.59,155.22 477.81,152.81 478.02,176.41 478.24,166.26 478.46,161.59 478.68,164.92 478.90,151.22 479.11,152.76 479.33,160.36 479.55,159.96 479.77,157.85 479.98,159.10 480.20,155.85 480.42,156.42 480.64,160.53 480.86,160.91 481.07,155.87 481.29,153.12 481.51,160.29 481.73,158.18 481.94,163.57 482.16,156.61 482.38,174.15 482.60,163.77 482.81,170.84 483.03,163.26 483.25,168.77 483.47,175.62 483.69,166.72 483.90,171.07 484.12,162.23 484.34,163.97 484.56,153.82 484.77,151.19 484.99,156.10 485.21,153.52 485.43,156.45 485.65,149.13 485.86,158.92 486.08,155.75 486.30,159.49 486.52,158.04 486.73,152.75 486.95,156.52 487.17,149.00 487.39,148.77 487.61,152.81 487.82,151.67 488.04,154.30 488.26,154.90 488.48,147.97 488.69,152.17 488.91,146.56 489.13,146.08 489.35,148.64 489.57,146.50 489.78,135.87 490.00,146.02 490.22,134.43 490.44,131.90 490.65,139.30 490.87,136.73 491.09,132.76 491.31,130.24 491.53,138.23 491.74,134.71 491.96,145.47 492.18,145.93 492.40,139.86 492.61,141.25 492.83,155.98 493.05,160.64 493.27,151.45 493.49,148.26 493.70,160.49 493.92,160.53 494.14,170.33 494.36,163.07 494.57,179.58 494.79,181.91 495.01,164.64 495.23,171.63 495.45,161.47 495.66,158.85 495.88,168.12 496.10,163.84 496.32,168.07 496.53,165.68 496.75,170.59 496.97,165.95 497.19,172.90 497.41,169.35 497.62,177.03 497.84,168.78 498.06,174.28 498.28,169.14 498.49,181.40 498.71,172.12 498.93,177.76 499.15,177.34 499.37,163.30 499.58,159.42 499.80,166.02 500.02,161.86 500.24,164.13 500.45,159.54 500.67,164.46 500.89,162.47 501.11,157.32 501.33,161.09 501.54,172.53 501.76,172.53 501.98,168.56 502.20,172.11 502.41,168.32 502.63,166.02 502.85,176.41 503.07,178.21 503.29,174.25 503.50,176.28 503.72,174.33 503.94,172.63 504.16,175.34 504.37,172.20 504.59,173.99 504.81,172.64 505.03,173.93 505.25,172.92 505.46,179.71 505.68,179.87 505.90,176.71 506.12,176.40 506.33,184.58 506.55,173.58 506.77,183.56 506.99,182.26 507.21,175.60 507.42,170.26 507.64,178.83 507.86,178.69 508.08,175.48 508.29,179.88 508.51,175.58 508.73,177.48 508.95,173.31 509.16,175.26 509.38,170.38 509.60,170.44 509.82,164.99 510.04,169.07 510.25,164.29 510.47,166.73 510.69,169.85 510.91,168.65 511.12,160.65 511.34,162.22 511.56,164.12 511.78,162.78 512.00,164.94 512.21,165.19 512.43,161.39 512.65,162.14 512.87,164.29 513.08,165.97 513.30,163.01 513.52,164.69 513.74,159.74 513.96,157.82 514.17,161.23 514.39,161.28 514.61,149.23 514.83,149.20 515.04,152.05 515.26,150.63 515.48,165.14 515.70,162.84 515.92,169.53 516.13,166.12 516.35,172.60 516.57,170.21 516.79,180.00 517.00,177.44 517.22,172.40 517.44,174.91 517.66,180.47 517.88,174.80 518.09,185.63 518.31,183.40 518.53,175.65 518.75,172.82 518.96,182.16 519.18,179.25 519.40,170.94 519.62,175.24 519.84,177.19 520.05,174.34 520.27,176.54 520.49,176.32 520.71,173.50 520.92,177.49 521.14,174.60 521.36,172.53 521.58,177.07 521.80,171.09 522.01,178.75 522.23,178.50 522.45,189.96 522.67,184.54 522.88,173.55 523.10,174.13 523.32,165.96 523.54,166.73 523.76,172.08 523.97,169.06 524.19,164.80 524.41,168.43 524.63,159.65 524.84,161.62 525.06,155.08 525.28,155.40 525.50,160.30 525.72,165.13 525.93,156.88 526.15,159.19 526.37,150.44 526.59,153.99 526.80,149.07 527.02,149.61 527.24,138.15 527.46,140.91 527.68,148.00 527.89,149.49 528.11,142.81 528.33,141.04 528.55,146.62 528.76,139.02 528.98,145.45 529.20,143.14 529.42,139.41 529.64,136.44 529.85,158.29 530.07,152.32 530.29,127.86 530.51,130.93 530.72,154.63 530.94,145.32 531.16,155.63 531.38,151.15 531.60,140.09 531.81,144.33 532.03,133.87 532.25,137.02 532.47,141.67 532.68,139.33 532.90,145.98 533.12,141.81 533.34,150.18 533.56,147.75 533.77,152.99 533.99,152.39 534.21,135.98 534.43,148.22 534.64,140.15 534.86,141.70 535.08,136.89 535.30,134.51 535.52,142.77 535.73,140.21 535.95,143.65 536.17,142.86 536.39,140.29 536.60,142.41 536.82,139.63 537.04,140.30 537.26,142.51 537.47,140.11 537.69,144.43 537.91,145.95 538.13,164.36 538.35,162.45 538.56,150.15 538.78,160.32 539.00,147.83 539.22,151.18 539.43,146.29 539.65,145.65 539.87,150.97 540.09,156.11 540.31,149.69 540.52,147.56 540.74,151.46 540.96,152.15 541.18,142.55 541.39,146.03 541.61,139.15 541.83,141.69 542.05,136.84 542.27,138.29 542.48,143.24 542.70,144.30 542.92,141.45 543.14,138.17 543.35,151.72 543.57,151.89 543.79,148.13 544.01,149.12 544.23,152.15 544.44,149.73 544.66,156.26 544.88,152.63 545.10,160.06 545.31,157.80 545.53,166.27 545.75,161.86 545.97,181.23 546.19,180.75 546.40,170.65 546.62,175.70 546.84,151.06 547.06,149.79 547.27,162.89 547.49,164.08 547.71,156.25 547.93,155.11 548.15,169.33 548.36,161.05 548.58,166.36 548.80,160.88 549.02,168.47 549.23,164.72 549.45,169.28 549.67,165.15 549.89,160.09 550.11,161.32 550.32,170.59 550.54,169.02 550.76,164.55 550.98,168.02 551.19,157.04 551.41,162.63 551.63,171.16 551.85,167.48 552.07,170.73 552.28,171.18 552.50,167.88 552.72,169.08 552.94,166.02 553.15,166.26 553.37,170.80 553.59,168.26 553.81,174.05 554.03,171.90 554.24,164.46 554.46,163.03 554.68,167.30 554.90,166.57 555.11,163.47 555.33,165.40 555.55,162.33 555.77,163.08 555.99,173.71 556.20,173.33 556.42,168.84 556.64,168.61 556.86,176.14 557.07,173.59 557.29,163.65 557.51,163.57 557.73,170.95 557.95,168.91 558.16,172.35 558.38,172.34 558.60,167.45 558.82,168.36 559.03,166.45 559.25,169.16 559.47,161.63 559.69,167.02 559.91,163.85 560.12,165.93 560.34,164.21 560.56,165.96 560.78,164.58 560.99,164.70 561.21,166.69 561.43,165.78 561.65,167.76 561.87,166.35 562.08,169.95 562.30,170.63 562.52,168.99 562.74,167.24 562.95,172.74 563.17,168.92 563.39,172.61 563.61,173.01 563.82,168.14 564.04,178.39 564.26,171.05 564.48,173.36 564.70,168.78 564.91,168.17 565.13,171.56 565.35,170.42 565.57,165.98 565.78,167.63 566.00,165.36 566.22,167.31 566.44,161.47 566.66,163.45 566.87,161.91 567.09,159.05 567.31,165.42 567.53,162.65 567.74,173.31 567.96,169.90 568.18,168.39 568.40,167.41 568.62,168.99 568.83,168.06 569.05,169.02 569.27,168.44 569.49,171.19 569.70,172.67 569.92,169.73 570.14,168.74 570.36,172.97 570.58,170.05 570.79,177.01 571.01,173.14 571.23,186.56 571.45,181.67 571.66,199.00 571.88,191.50 572.10,202.06 572.32,196.55 572.54,191.81 572.75,192.26 572.97,204.29 573.19,195.27 573.41,214.89 573.62,209.09 573.84,201.29 574.06,199.60 574.28,208.11 574.50,206.48 574.71,223.16 574.93,218.08 575.15,227.44 575.37,221.89 575.58,206.36 575.80,209.91 576.02,201.14 576.24,204.58 576.46,208.13 576.67,207.40 576.89,202.25 577.11,204.34 577.33,201.23 577.54,205.83 577.76,174.83 577.98,174.08 578.20,181.89 578.42,178.93 578.63,185.72 578.85,177.94 579.07,204.95 579.29,199.60 579.50,213.24 579.72,207.47 579.94,216.12 580.16,215.15 580.38,193.84 580.59,200.16 580.81,194.25 581.03,187.32 581.25,197.35 581.46,191.23 581.68,183.46 581.90,180.91 582.12,190.36 582.34,185.63 582.55,196.08 582.77,188.11 582.99,205.79 583.21,187.01 583.42,199.46 583.64,193.71 583.86,204.84 584.08,204.61 584.30,200.86 584.51,201.12 584.73,203.59 584.95,201.28 585.17,203.08 585.38,202.48 585.60,212.32 585.82,210.27 586.04,221.74 586.26,222.07 586.47,213.85 586.69,210.32 586.91,227.20 587.13,223.00 587.34,232.90 587.56,225.41 587.78,216.53 588.00,224.52 588.22,211.50 588.43,210.19 588.65,217.11 588.87,218.16 589.09,209.22 589.30,219.47 589.52,209.81 589.74,208.90 589.96,214.00 590.18,211.31 590.39,222.47 590.61,221.81 590.83,215.23 591.05,216.65 591.26,211.35 591.48,213.36 591.70,205.66 591.92,209.54 592.13,207.32 592.35,210.35 592.57,207.94 592.79,207.83 593.01,208.96 593.22,210.14 593.44,208.10 593.66,214.63 593.88,207.53 594.09,210.42 594.31,215.74 594.53,209.97 594.75,213.61 594.97,213.69 595.18,207.30 595.40,208.63 595.62,214.93 595.84,211.49 596.05,218.51 596.27,218.08 596.49,212.25 596.71,214.02 596.93,210.61 597.14,211.42 597.36,203.52 597.58,205.55 597.80,198.21 598.01,201.98 598.23,205.88 598.45,201.68 598.67,210.21 598.89,206.87 599.10,210.11 599.32,208.33 599.54,211.56 599.76,210.14 599.97,207.78 600.19,209.28 600.41,207.89 600.63,208.33 600.85,209.48 601.06,210.28 601.28,208.56 601.50,209.08 601.72,205.87 601.93,206.83 602.15,204.03 602.37,204.34 602.59,198.33 602.81,199.11 603.02,194.31 603.24,194.81 603.46,199.80 603.68,201.77 603.89,198.06 604.11,199.40 604.33,194.92 604.55,195.81 604.77,199.32 604.98,195.61 605.20,201.27 605.42,203.12 605.64,198.40 605.85,200.29 606.07,197.18 606.29,197.87 606.51,203.11 606.73,197.38 606.94,200.08 607.16,200.06 607.38,206.77 607.60,204.50 607.81,210.56 608.03,207.57 608.25,210.42 608.47,209.65 608.69,215.81 608.90,216.75 609.12,213.50 609.34,213.36 609.56,211.13 609.77,210.99 609.99,215.47 610.21,213.05 610.43,218.06 610.65,217.95 610.86,213.16 611.08,216.26 611.30,210.22 611.52,214.94 611.73,211.04 611.95,213.62 612.17,205.10 612.39,206.98 612.61,204.62 612.82,209.47 613.04,205.16 613.26,207.59 613.48,198.92 613.69,196.64 613.91,214.90 614.13,210.23 614.35,216.55 614.57,218.07 614.78,213.29 615.00,214.17 615.22,209.47 615.44,207.39 615.65,216.70 615.87,212.29 616.09,207.53 616.31,209.15 616.53,211.53 616.74,210.49 616.96,214.69 617.18,212.99 617.40,210.40 617.61,210.98 617.83,214.99 618.05,213.56 618.27,231.36 618.48,224.89 618.70,240.10 618.92,236.20 619.14,221.71 619.36,228.61 619.57,220.05 619.79,221.36 620.01,226.16 620.23,221.75 620.44,233.99 620.66,231.86 620.88,239.84 621.10,235.80 621.32,228.71 621.53,232.03 621.75,211.14 621.97,214.15 622.19,218.01 622.40,215.74 622.62,226.73 622.84,225.63 623.06,220.22 623.28,220.72 623.49,212.89 623.71,217.73 623.93,209.08 624.15,210.16 624.36,213.34 624.58,211.63 624.80,205.23 625.02,208.04 625.24,203.61 625.45,203.45 625.67,208.45 625.89,210.75 626.11,206.40 626.32,212.49 626.54,205.12 626.76,208.47 626.98,205.52 627.20,203.76 627.41,210.04 627.63,208.21 627.85,203.54 628.07,201.59 628.28,206.86 628.50,206.13 628.72,212.23 628.94,209.64 629.16,212.15 629.37,205.01 629.59,211.79 629.81,207.34 630.03,210.01 630.24,209.10 630.46,206.39 630.68,209.85 630.90,204.80 631.12,205.75 631.33,207.88 631.55,206.98 631.77,208.32 631.99,207.29 632.20,208.27 632.42,207.30 632.64,204.77 632.86,204.48 633.08,207.11 633.29,205.05 633.51,205.98 633.73,205.65 633.95,209.43 634.16,208.44 634.38,205.48 634.60,206.08 634.82,197.58 635.04,195.19 635.25,200.84 635.47,200.34 635.69,194.41 635.91,196.71 636.12,194.20 636.34,194.49 636.56,184.45 636.78,186.22 637.00,177.71 637.21,175.54 637.43,180.91 637.65,182.79 637.87,176.42 638.08,178.01 638.30,184.12 638.52,182.39 638.74,178.32 638.96,176.15 639.17,180.08 639.39,179.87 639.61,174.17 639.83,176.13 640.04,171.72 640.26,173.00 640.48,175.14 640.70,174.26 640.92,176.96 641.13,176.51 641.35,173.59 641.57,173.14 641.79,177.46 642.00,177.70 642.22,175.60 642.44,175.16 642.66,180.48 642.88,176.87 643.09,171.83 643.31,172.69 643.53,178.40 643.75,172.63 643.96,176.05 644.18,172.78 644.40,174.69 644.62,172.08 644.84,177.39 645.05,175.85 645.27,173.32 645.49,172.95 645.71,179.95 645.92,176.74 646.14,173.65 646.36,174.08 646.58,168.17 646.79,170.88 647.01,165.74 647.23,169.57 647.45,166.17 647.67,168.69 647.88,164.55 648.10,165.18 648.32,168.79 648.54,168.04 648.75,170.60 648.97,170.57 649.19,168.64 649.41,168.92 649.63,171.32 649.84,169.82 650.06,172.72 650.28,171.09 650.50,175.47 650.71,177.95 650.93,174.30 651.15,174.74 651.37,178.05 651.59,177.11 651.80,172.92 652.02,174.92 652.24,177.69 652.46,178.54 652.67,173.11 652.89,175.16 653.11,165.08 653.33,168.68 653.55,165.54 653.76,170.91 653.98,165.75 654.20,167.25 654.42,158.00 654.63,160.08 654.85,152.22 655.07,153.72 655.29,145.22 655.51,149.47 655.72,143.86 655.94,145.09 656.16,149.10 656.38,148.11 656.59,145.03 656.81,144.14 657.03,146.78 657.25,147.13 657.47,140.93 657.68,142.53 657.90,146.15 658.12,141.39 658.34,144.73 658.55,145.52 658.77,140.94 658.99,138.79 659.21,144.91 659.43,142.87 659.64,154.70 659.86,147.03 660.08,151.97 660.30,148.80 660.51,143.11 660.73,145.04 660.95,141.09 661.17,144.08 661.39,147.43 661.60,143.28 661.82,148.17 662.04,144.66 662.26,148.25 662.47,147.76 662.69,152.15 662.91,151.84 663.13,143.81 663.35,146.59 663.56,143.03 663.78,147.02 664.00,142.57 664.22,143.06 664.43,148.42 664.65,145.22 664.87,148.21 665.09,148.34 665.31,146.55 665.52,147.62 665.74,145.95 665.96,146.17 666.18,140.19 666.39,145.62 666.61,137.85 666.83,134.79 667.05,149.99 667.27,150.16 667.48,139.16 667.70,141.77 667.92,135.00 668.14,136.42 668.35,141.22 668.57,143.35 668.79,133.56 669.01,137.61 669.23,132.03 669.44,137.27 669.66,127.11 669.88,136.83 670.10,124.60 670.31,126.69 670.53,118.74 670.75,122.91 670.97,118.30 671.19,118.27 671.40,122.00 671.62,120.17 671.84,131.00 672.06,130.92 672.27,124.57 672.49,134.63 672.71,129.28 672.93,132.43 673.14,126.50 673.36,127.42 673.58,132.92 673.80,130.28 674.02,134.83 674.23,132.04 674.45,135.35 674.67,132.97 674.89,125.47 675.10,126.39 675.32,123.96 675.54,123.64 675.76,127.96 675.98,126.19 676.19,130.96 676.41,122.39 676.63,127.35 676.85,122.99 677.06,128.81 677.28,127.57 677.50,129.92 677.72,127.73 677.94,134.21 678.15,134.53 678.37,129.66 678.59,128.19 678.81,132.79 679.02,132.31 679.24,138.66 679.46,136.72 679.68,141.14 679.90,137.86 680.11,144.53 680.33,141.22 680.55,146.49 680.77,146.79 680.98,144.47 681.20,145.97 681.42,141.59 681.64,141.32 681.86,144.39 682.07,144.83 682.29,141.85 682.51,142.84 682.73,138.22 682.94,141.91 683.16,138.23 683.38,139.80 683.60,144.83 683.82,143.74 684.03,136.04 684.25,138.91 684.47,141.20 684.69,140.30 684.90,135.30 685.12,137.97 685.34,140.13 685.56,137.76 685.78,143.01 685.99,139.32 686.21,142.48 686.43,140.17 686.65,142.81 686.86,137.98 687.08,148.27 687.30,147.03 687.52,155.62 687.74,149.37 687.95,144.06 688.17,144.95 688.39,140.17 688.61,144.21 688.82,139.84 689.04,141.73 689.26,138.37 689.48,139.74 689.70,137.94 689.91,138.54 690.13,140.87 690.35,140.69 690.57,136.51 690.78,136.20 691.00,139.54 691.22,139.75 691.44,131.34 691.66,134.26 691.87,123.01 692.09,123.57 692.31,127.23 692.53,124.88 692.74,129.60 692.96,129.02 693.18,123.50 693.40,125.01 693.62,126.99 693.83,123.35 694.05,129.27 694.27,127.10 694.49,132.67 694.70,131.19 694.92,134.89 695.14,129.76 695.36,138.41 695.58,137.28 695.79,147.71 696.01,143.63 696.23,137.81 696.45,141.83 696.66,137.38 696.88,139.55 697.10,141.39 697.32,140.56 697.54,142.92 697.75,141.40 697.97,138.19 698.19,137.37 698.41,141.20 698.62,138.36 698.84,142.34 699.06,140.55 699.28,133.64 699.49,135.69 699.71,131.19 699.93,128.51 700.15,136.98 700.37,132.21 700.58,139.16 700.80,138.23 701.02,145.77 701.24,143.40 701.45,139.13 701.67,139.83 701.89,144.40 702.11,145.37 702.33,140.43 702.54,140.26 702.76,142.36 702.98,140.73 703.20,144.27 703.41,143.65 703.63,141.47 703.85,143.30 704.07,136.14 704.29,137.12 704.50,148.94 704.72,147.33 704.94,145.23 705.16,146.16 705.37,144.20 705.59,145.33 705.81,153.89 706.03,150.56 706.25,147.69 706.46,148.14 706.68,161.40 706.90,162.45 707.12,152.48 707.33,150.54 707.55,153.63 707.77,157.29 707.99,137.65 708.21,141.69 708.42,138.44 708.64,141.66 708.86,138.09 709.08,139.68 709.29,136.18 709.51,137.45 709.73,133.93 709.95,130.82 710.17,135.00 710.38,134.04 710.60,130.43 710.82,130.82 711.04,134.60 711.25,135.25 711.47,131.23 711.69,135.89 711.91,132.34 712.13,136.21 712.34,132.60 712.56,136.02 712.78,133.61 713.00,134.08 713.21,132.76 713.43,134.01 713.65,132.71 713.87,133.79 714.09,132.72 714.30,133.33 714.52,129.52 714.74,133.36 714.96,129.81 715.17,128.60 715.39,132.82 715.61,131.28 715.83,135.12 716.05,131.91 716.26,134.10 716.48,133.65 716.70,136.60 716.92,133.94 717.13,139.64 717.35,139.62 717.57,134.99 717.79,134.83 718.01,129.55 718.22,129.73 718.44,125.61 718.66,129.25 718.88,123.70 719.09,128.58 719.31,123.48 719.53,124.56 719.75,127.42 719.97,126.80 720.18,129.20 720.40,128.72 720.62,133.45 720.84,131.69 721.05,129.84 721.27,131.48 721.49,130.36 721.71,131.34 721.93,130.26 722.14,130.26 722.36,131.57 722.58,131.24 722.80,127.84 723.01,129.99 723.23,125.80 723.45,127.14 723.67,130.89 723.89,129.06 724.10,132.64 724.32,129.37 724.54,132.49 724.76,127.70 724.97,130.58 725.19,129.65 725.41,127.33 725.63,129.93 725.85,127.98 726.06,129.10 726.28,118.38 726.50,122.53 726.72,119.70 726.93,119.87 727.15,122.50 727.37,121.70 727.59,103.15 727.80,107.19 728.02,97.43 728.24,95.87 728.46,102.74 728.68,98.07 728.89,100.90 729.11,99.93 729.33,97.83 729.55,98.97 729.76,101.80 729.98,101.62 730.20,98.74 730.42,99.41 730.64,94.30 730.85,94.22 731.07,97.27 731.29,95.39 731.51,82.40 731.72,84.56 731.94,94.02 732.16,90.46 732.38,101.04 732.60,99.39 732.81,103.51 733.03,97.18 733.25,105.11 733.47,97.95 733.68,101.34 733.90,98.18 734.12,92.99 734.34,91.91 734.56,97.06 734.77,99.20 734.99,94.72 735.21,100.15 735.43,92.66 735.64,96.88 735.86,88.90 736.08,89.97 736.30,96.95 736.52,94.61 736.73,102.28 736.95,99.88 737.17,97.30 737.39,96.87 737.60,99.51 737.82,98.02 738.04,100.60 738.26,99.14 738.48,97.60 738.69,99.16 738.91,95.64 739.13,102.88 739.35,96.51 739.56,93.21 739.78,98.70 740.00,95.01 740.22,102.51 740.44,103.15 740.65,96.56 740.87,99.51 741.09,93.65 741.31,96.74 741.52,91.09 741.74,94.11 741.96,98.94 742.18,96.29 742.40,100.50 742.61,99.87 742.83,94.35 743.05,100.85 743.27,95.77 743.48,97.94 743.70,93.71 743.92,97.32 744.14,108.99 744.36,102.60 744.57,108.36 744.79,104.82 745.01,99.28 745.23,100.70 745.44,97.78 745.66,99.17 745.88,97.54 746.10,98.95 746.32,97.42 746.53,98.88 746.75,96.81 746.97,97.39 747.19,92.66 747.40,92.71 747.62,95.87 747.84,94.86 748.06,100.06 748.28,100.25 748.49,97.08 748.71,94.85 748.93,97.56 749.15,94.92 749.36,101.41 749.58,100.82 749.80,97.53 750.02,100.17 750.24,96.10 750.45,104.96 750.67,96.71 750.89,98.43 751.11,95.53 751.32,95.79 751.54,100.00 751.76,99.76 751.98,109.37 752.20,105.32 752.41,110.32 752.63,105.52 752.85,113.95 753.07,115.25 753.28,111.33 753.50,111.47 753.72,115.54 753.94,113.47 754.15,117.87 754.37,114.82 754.59,112.05 754.81,112.66 755.03,109.32 755.24,111.18 755.46,108.55 755.68,110.95 755.90,108.92 756.11,109.42 756.33,105.95 756.55,107.12 756.77,111.96 756.99,107.92 757.20,115.65 757.42,114.19 757.64,110.93 757.86,113.48 758.07,110.16 758.29,111.95 758.51,105.96 758.73,107.51 758.95,110.57 759.16,109.98 759.38,102.26 759.60,104.68 759.82,99.75 760.03,99.82 760.25,103.65 760.47,101.29 760.69,105.22 760.91,103.85 761.12,101.79 761.34,103.77 761.56,99.11 761.78,101.00 761.99,103.25 762.21,103.61 762.43,96.10 762.65,99.67 762.87,94.90 763.08,98.10 763.30,94.20 763.52,95.22 763.74,84.31 763.95,87.09 764.17,94.31 764.39,92.32 764.61,97.35 764.83,94.67 765.04,97.64 765.26,96.01 765.48,90.89 765.70,91.05 765.91,95.31 766.13,94.27 766.35,84.99 766.57,88.89 766.79,78.04 767.00,79.34 767.22,87.17 767.44,86.35 767.66,100.08 767.87,100.12 768.09,94.96 768.31,94.48 768.53,96.86 768.75,96.70 768.96,102.18 769.18,101.50 769.40,98.86 769.62,100.80 769.83,99.08 770.05,99.12 770.27,100.98 770.49,100.43 770.71,97.09 770.92,96.80 771.14,100.03 771.36,98.51 771.58,107.90 771.79,109.30 772.01,105.92 772.23,108.75 772.45,101.84 772.67,102.61 772.88,109.70 773.10,105.78 773.32,113.83 773.54,112.89 773.75,116.08 773.97,113.75 774.19,111.46 774.41,116.54 774.63,110.51 774.84,109.11 775.06,112.64 775.28,111.51 775.50,114.88 775.71,113.48 775.93,117.89 776.15,117.11 776.37,113.13 776.59,118.99 776.80,101.52 777.02,100.36 777.24,106.12 777.46,104.88 777.67,107.21 777.89,106.71 778.11,109.46 778.33,106.14 778.55,108.42 778.76,108.03 778.98,110.24 779.20,108.77 779.42,117.52 779.63,112.68 779.85,120.67 780.07,121.83 780.29,115.36 780.51,116.35 780.72,127.49 780.94,125.77 781.16,122.93 781.38,126.48 781.59,120.06 781.81,116.98 782.03,121.52 782.25,123.03 782.46,116.15 782.68,116.09 782.90,121.70 783.12,119.87 783.34,113.70 783.55,113.77 783.77,117.26 783.99,116.06 784.21,120.00 784.42,119.01 784.64,126.16 784.86,122.91 785.08,132.31 785.30,132.88 785.51,128.99 785.73,130.18 785.95,128.06 786.17,129.47 786.38,126.52 786.60,126.37 786.82,129.87 787.04,130.38 787.26,127.12 787.47,127.22 787.69,133.33 787.91,133.35 788.13,125.07 788.34,126.80 788.56,132.41 788.78,129.35 789.00,122.87 789.22,129.42 789.43,119.21 789.65,123.07 789.87,119.17 790.09,122.72 790.30,119.08 790.52,121.09 790.74,116.35 790.96,117.20 791.18,122.53 791.39,121.22 791.61,125.28 791.83,126.61 792.05,119.20 792.26,123.08 792.48,114.81 792.70,113.96 792.92,123.38 793.14,119.23 793.35,122.92 793.57,120.47 793.79,122.34 794.01,121.39 794.22,124.55 794.44,124.19 794.66,122.23 794.88,123.03 795.10,119.99 795.31,121.65 795.53,119.74 795.75,122.27 795.97,117.97 796.18,118.73 796.40,115.22 796.62,116.46 796.84,120.62 797.06,119.24 797.27,114.00 797.49,115.16 797.71,121.93 797.93,121.46 798.14,118.22 798.36,118.70 798.58,110.64 798.80,114.00 799.02,111.45 799.23,112.37 799.45,110.18 799.67,113.16 799.89,109.26 800.10,110.90 800.32,104.04 800.54,106.18 800.76,108.86 800.98,108.68 801.19,102.82 801.41,104.17 801.63,106.05 801.85,104.56 802.06,106.59 802.28,107.53 802.50,104.99 802.72,106.58 802.94,104.44 803.15,104.68 803.37,107.53 803.59,108.76 803.81,104.68 804.02,102.53 804.24,109.96 804.46,109.95 804.68,106.36 804.90,108.30 805.11,104.94 805.33,108.44 805.55,102.85 805.77,104.08 805.98,101.85 806.20,104.43 806.42,100.88 806.64,103.40 806.86,108.54 807.07,106.92 807.29,99.07 807.51,101.87 807.73,99.15 807.94,98.82 808.16,102.60 808.38,100.19 808.60,102.77 808.81,101.78 809.03,106.53 809.25,107.82 809.47,105.86 809.69,106.89 809.90,105.06 810.12,104.60 810.34,105.97 810.56,105.20 810.77,106.63 810.99,105.56 811.21,106.90 811.43,106.17 811.65,107.67 811.86,108.32 812.08,116.91 812.30,117.20 812.52,113.51 812.73,114.85 812.95,119.32 813.17,118.06 813.39,113.88 813.61,114.12 813.82,119.52 814.04,119.85 814.26,115.51 814.48,116.61 814.69,112.19 814.91,111.75 815.13,114.55 815.35,113.88 815.57,119.54 815.78,118.50 816.00,128.55 816.22,124.97 816.44,128.44 816.65,125.65 816.87,128.78 817.09,128.35 817.31,123.90 817.53,126.75 817.74,125.50 817.96,127.54 818.18,126.41 818.40,127.02 818.61,125.24 818.83,126.90 819.05,125.99 819.27,127.13 819.49,123.28 819.70,123.49 819.92,116.99 820.14,119.42 820.36,113.06 820.57,112.91 820.79,110.20 821.01,109.04 821.23,112.72 821.45,115.55 821.66,112.81 821.88,114.04 822.10,109.05 822.32,111.02 822.53,103.19 822.75,103.77 822.97,98.68 823.19,100.69 823.41,93.89 823.62,97.28 823.84,92.68 824.06,96.56 824.28,88.61 824.49,90.17 824.71,94.06 824.93,91.95 825.15,79.56 825.37,82.51 825.58,86.35 825.80,85.74 826.02,82.98 826.24,83.86 826.45,86.76 826.67,84.88 826.89,74.23 827.11,74.92 827.33,83.21 827.54,83.54 827.76,77.74 827.98,81.54 828.20,78.48 828.41,79.68 828.63,73.01 828.85,72.27 829.07,78.34 829.29,80.69 829.50,75.81 829.72,75.84 829.94,89.63 830.16,84.71 830.37,88.06 830.59,87.33 830.81,81.70 831.03,78.73 831.25,83.37 831.46,83.27 831.68,88.05 831.90,80.26 832.12,92.49 832.33,89.14 832.55,85.81 832.77,88.86 832.99,85.40 833.21,83.99 833.42,144.22 833.64,109.47 833.86,122.50 834.08,123.65 834.29,116.39 834.51,117.51 834.73,125.72 834.95,124.73 835.16,118.03 835.38,120.43 835.60,109.43 835.82,109.87 836.04,105.83 836.25,106.61 836.47,112.65 836.69,111.59 836.91,105.58 837.12,106.95 837.34,119.30 837.56,124.00 837.78,115.08 838.00,117.68 838.21,112.90 838.43,118.51 838.65,113.79 838.87,117.69 839.08,123.67 839.30,123.35 839.52,118.90 839.74,125.37 839.96,118.54 840.17,122.63 840.39,132.84 840.61,127.21 840.83,141.69 841.04,145.01 841.26,133.29 841.48,136.48 841.70,132.97 841.92,136.14 842.13,133.20 842.35,135.89 842.57,133.58 842.79,135.11 843.00,133.21 843.22,137.11 843.44,129.28 843.66,126.50 843.88,132.21 844.09,131.58 844.31,119.71 844.53,119.55 844.75,124.77 844.96,120.51 845.18,127.01 845.40,132.59 845.62,126.63 845.84,130.05 846.05,112.27 846.27,123.16 846.49,132.13 846.71,133.84 846.92,127.99 847.14,129.30 847.36,135.05 847.58,130.71 847.80,123.74 848.01,128.75 848.23,120.50 848.45,126.30 848.67,120.34 848.88,119.43 849.10,122.12 849.32,124.86 849.54,120.83 849.76,122.29 849.97,119.05 850.19,118.35 850.41,120.58 850.63,120.31 850.84,118.50 851.06,120.43 851.28,115.84 851.50,116.38 851.72,111.93 851.93,114.54 852.15,106.67 852.37,104.72 852.59,109.56 852.80,105.77 853.02,111.86 853.24,109.86 853.46,112.82 853.68,110.96 853.89,104.96 854.11,106.52 854.33,117.43 854.55,116.64 854.76,112.86 854.98,112.98 855.20,126.42 855.42,118.75 855.64,130.10 855.85,119.58 856.07,132.80 856.29,136.21 856.51,129.68 856.72,129.69 856.94,124.12 857.16,121.08 857.38,128.63 857.60,127.71 857.81,124.00 858.03,123.22 858.25,124.90 858.47,125.37 858.68,123.01 858.90,125.00 859.12,122.24 859.34,120.64 859.56,123.66 859.77,126.07 859.99,122.10 860.21,123.95 860.43,134.18 860.64,130.25 860.86,139.53 861.08,133.27 861.30,138.09 861.52,133.43 861.73,145.21 861.95,141.93 862.17,160.08 862.39,160.47 862.60,149.81 862.82,153.05 863.04,145.03 863.26,142.44 863.47,147.77 863.69,143.87 863.91,148.31 864.13,145.67 864.35,155.50 864.56,155.23 864.78,149.59 865.00,149.11 865.22,159.31 865.43,158.54 865.65,144.19 865.87,145.10 866.09,150.76 866.31,148.65 866.52,152.30 866.74,152.12 866.96,149.20 867.18,152.29 867.39,150.30 867.61,150.45 867.83,140.91 868.05,143.84 868.27,136.17 868.48,135.77 868.70,137.93 868.92,141.81 869.14,136.78 869.35,133.18 869.57,141.60 869.79,139.30 870.01,146.95 870.23,145.70 870.44,149.06 870.66,147.24 870.88,140.45 871.10,140.12 871.31,153.71 871.53,152.80 871.75,146.96 871.97,144.40 872.19,151.26 872.40,147.91 872.62,163.47 872.84,157.78 873.06,168.29 873.27,165.79 873.49,174.44 873.71,175.94 873.93,168.25 874.15,168.12 874.36,171.61 874.58,168.79 874.80,172.79 875.02,173.56 875.23,170.13 875.45,168.21 875.67,172.79 875.89,172.68 876.11,179.93 876.32,174.28 876.54,170.29 876.76,170.64 876.98,181.81 877.19,181.67 877.41,190.59 877.63,191.67 877.85,183.95 878.07,186.27 878.28,177.66 878.50,178.75 878.72,189.58 878.94,182.61 879.15,190.75 879.37,194.28 879.59,181.86 879.81,180.06 880.03,184.96 880.24,183.06 880.46,202.49 880.68,195.95 880.90,204.74 881.11,201.89 881.33,219.41 881.55,214.42 881.77,204.76 881.99,204.49 882.20,209.68 882.42,210.92 882.64,206.74 882.86,208.49 883.07,202.95 883.29,200.92 883.51,204.47 883.73,202.96 883.95,197.59 884.16,202.68 884.38,196.33 884.60,197.59 884.82,203.75 885.03,204.65 885.25,192.37 885.47,194.82 885.69,198.51 885.91,202.27 886.12,196.31 886.34,201.98 886.56,196.12 886.78,196.59 886.99,200.61 887.21,201.53 887.43,188.71 887.65,190.41 887.87,183.90 888.08,183.90 888.30,188.10 888.52,187.59 888.74,183.90 888.95,187.60 889.17,184.20 889.39,180.17 889.61,189.03 889.82,185.80 890.04,187.91 890.26,186.89 890.48,188.56 890.70,186.24 890.91,188.91 891.13,186.49 891.35,188.28 891.57,186.98 891.78,183.50 892.00,183.88 892.22,199.15 892.44,197.91 892.66,204.00 892.87,200.44 893.09,209.64 893.31,207.07 893.53,199.47 893.74,201.51 893.96,198.01 894.18,198.62 894.40,182.46 894.62,186.41 894.83,176.93 895.05,184.12 895.27,178.41 895.49,182.53 895.70,176.68 895.92,176.75 896.14,180.48 896.36,179.07 896.58,186.81 896.79,181.17 897.01,183.77 897.23,181.87 897.45,188.48 897.66,185.79 897.88,195.12 898.10,192.98 898.32,190.62 898.54,192.21 898.75,189.56 898.97,190.36 899.19,193.28 899.41,190.67 899.62,192.84 899.84,196.78 900.06,184.60 900.28,192.14 900.50,184.52 900.71,182.65 900.93,185.73 901.15,184.90 901.37,190.86 901.58,187.38 901.80,190.57 902.02,189.85 902.24,175.22 902.46,176.35 902.67,183.23 902.89,179.67 903.11,183.38 903.33,184.16 903.54,175.97 903.76,181.21 903.98,191.05 904.20,188.43 904.42,191.55 904.63,191.82 904.85,178.87 905.07,184.71 905.29,181.05 905.50,181.37 905.72,191.08 905.94,187.84 906.16,189.97 906.38,188.95 906.59,187.86 906.81,188.53 907.03,189.98 907.25,189.74 907.46,188.37 907.68,188.98 907.90,193.52 908.12,192.26 908.34,196.55 908.55,194.88 908.77,190.07 908.99,190.08 909.21,205.01 909.42,204.28 909.64,201.37 909.86,204.83 910.08,198.44 910.30,201.47 910.51,196.46 910.73,196.79 910.95,201.77 911.17,201.81 911.38,189.21 911.60,199.44 911.82,204.95 912.04,202.66 912.26,198.36 912.47,192.08 912.69,207.18 912.91,207.86 913.13,198.46 913.34,200.62 913.56,195.27 913.78,193.89 914.00,199.83 914.22,196.47 914.43,194.72 914.65,195.02 914.87,196.31 915.09,195.03 915.30,196.38 915.52,196.74 915.74,192.99 915.96,193.54 916.18,197.46 916.39,195.89 916.61,191.55 916.83,193.92 917.05,188.87 917.26,188.98 917.48,196.34 917.70,193.46 917.92,199.11 918.13,200.06 918.35,196.10 918.57,195.73 918.79,199.36 919.01,198.16 919.22,200.55 919.44,200.85 919.66,197.53 919.88,196.35 920.09,197.88 920.31,196.88 920.53,198.73 920.75,194.73 920.97,199.47 921.18,199.74 921.40,191.57 921.62,193.02 921.84,200.38 922.05,198.93 922.27,197.39 922.49,197.35 922.71,198.28 922.93,198.44 923.14,197.47 923.36,197.93 923.58,196.56 923.80,197.42 924.01,196.38 924.23,198.03 924.45,195.24 924.67,188.81 924.89,196.42 925.10,199.82 925.32,196.08 925.54,197.85 925.76,199.88 925.97,199.08 926.19,195.89 926.41,196.84 926.63,192.10 926.85,195.69 927.06,193.85 927.28,192.68 927.50,197.17 927.72,198.54 927.93,196.38 928.15,196.30 928.37,197.85 928.59,196.86 928.81,194.94 929.02,195.59 929.24,192.82 929.46,194.48 929.68,190.27 929.89,194.34 930.11,187.07 930.33,188.52 930.55,191.76 930.77,191.25 930.98,189.11 931.20,189.72 931.42,185.11 931.64,186.28 931.85,184.31 932.07,185.18 932.29,186.81 932.51,185.99 932.73,179.40 932.94,182.41 933.16,179.13 933.38,179.48 933.60,174.36 933.81,176.41 934.03,179.35 934.25,175.64 934.47,184.66 934.69,184.24 934.90,177.59 935.12,179.78 935.34,184.25 935.56,182.58 935.77,187.30 935.99,184.86 936.21,188.79 936.43,187.54 936.65,191.71 936.86,188.60 937.08,185.14 937.30,184.96 937.52,190.73 937.73,189.85 937.95,183.71 938.17,186.86 938.39,189.00 938.61,188.44 938.82,187.15 939.04,187.38 939.26,188.22 939.48,188.53 939.69,187.20 939.91,187.65 940.13,186.17 940.35,188.64 940.57,184.54 940.78,181.83 941.00,188.02 941.22,189.14 941.44,182.41 941.65,183.31 941.87,186.69 942.09,185.41 942.31,181.52 942.53,183.62 942.74,171.55 942.96,170.73 943.18,174.64 943.40,174.21 943.61,165.33 943.83,164.57 944.05,169.15 944.27,170.82 944.48,166.47 944.70,166.54 944.92,172.33 945.14,173.00 945.36,170.87 945.57,170.89 945.79,172.64 946.01,171.19 946.23,175.38 946.44,171.69 946.66,173.27 946.88,173.23 947.10,171.62 947.32,172.00 947.53,173.87 947.75,173.83 947.97,172.56 948.19,173.69 948.40,171.85 948.62,171.82 948.84,182.46 949.06,181.79 949.28,179.19 949.49,178.88 949.71,182.08 949.93,180.52 950.15,187.40 950.36,185.28 950.58,190.87 950.80,190.15 951.02,196.40 951.24,189.73 951.45,195.13 951.67,188.43 951.89,198.59 952.11,188.87 952.32,191.90 952.54,189.21 952.76,194.23 952.98,194.12 953.20,190.10 953.41,189.60 953.63,192.99 953.85,194.19 954.07,186.65 954.28,187.94 954.50,191.97 954.72,190.38 954.94,191.42 955.16,191.35 955.37,192.46 955.59,191.58 955.81,194.07 956.03,193.25 956.24,196.19 956.46,196.13 956.68,202.01 956.90,199.11 957.12,195.73 957.33,194.03 957.55,198.83 957.77,197.77 957.99,193.52 958.20,193.66 958.42,197.08 958.64,198.46 958.86,191.57 959.08,191.48 959.29,193.55 959.51,193.42 959.73,188.49 959.95,188.32 960.16,194.59 960.38,194.11 960.60,197.06 960.82,195.83 961.04,211.15 961.25,207.06 961.47,217.74 961.69,215.44 961.91,211.86 962.12,215.87 962.34,207.77 962.56,208.49 962.78,212.00 963.00,211.92 963.21,226.27 963.43,231.86 963.65,224.66 963.87,229.00 964.08,225.19 964.30,226.29 964.52,233.31 964.74,229.18 964.96,240.04 965.17,238.39 965.39,227.20 965.61,229.54 965.83,225.14 966.04,225.55 966.26,230.07 966.48,226.64 966.70,239.27 966.92,244.90 967.13,232.49 967.35,232.83 967.57,236.41 967.79,234.89 968.00,247.67 968.22,243.69 968.44,254.16 968.66,249.20 968.88,265.43 969.09,259.93 969.31,287.54 969.53,278.42 969.75,265.51 969.96,269.03 970.18,251.48 970.40,249.76 970.62,256.02 970.84,250.15 971.05,262.89 971.27,260.19 971.49,256.32 971.71,256.28 971.92,258.61 972.14,257.15 972.36,250.21 972.58,248.89 972.79,254.65 973.01,250.71 973.23,258.24 973.45,260.21 973.67,252.37 973.88,251.69 974.10,257.19 974.32,255.62 974.54,260.09 974.75,261.58 974.97,255.40 975.19,257.51 975.41,265.82 975.63,260.19 975.84,268.39 976.06,268.24 976.28,261.02 976.50,265.92 976.71,261.56 976.93,260.45 977.15,270.63 977.37,270.22 977.59,265.89 977.80,268.05 978.02,263.29 978.24,264.21 978.46,257.27 978.67,259.25 978.89,256.47 979.11,253.50 979.33,257.53 979.55,254.43 979.76,257.09 979.98,257.24 980.20,252.17 980.42,253.94 980.63,261.22 980.85,258.27 981.07,261.09 981.29,255.36 981.51,260.78 981.72,263.60 981.94,258.49 982.16,258.01 982.38,261.62 982.59,260.57 982.81,265.85 983.03,261.12 983.25,265.22 983.47,260.45 983.68,264.36 983.90,261.32 984.12,268.28 984.34,267.37 984.55,264.30 984.77,264.24 984.99,269.07 985.21,267.84 985.43,263.68 985.64,264.40 985.86,261.03 986.08,260.82 986.30,266.54 986.51,263.07 986.73,261.30 986.95,262.91 987.17,260.79 987.39,261.22 987.60,259.52 987.82,260.64 988.04,262.19 988.26,260.91 988.47,263.79 988.69,262.52 988.91,271.28 989.13,273.35 989.35,266.64 989.56,266.75 989.78,273.66 990.00,271.56 990.22,278.09 990.43,276.37 990.65,279.00 990.87,278.69 991.09,272.89 991.31,275.16 991.52,267.46 991.74,271.50 991.96,260.71 992.18,256.86 992.39,262.68 992.61,259.27 992.83,262.25 993.05,260.55 993.27,266.24 993.48,265.17 993.70,261.19 993.92,261.60 994.14,269.01 994.35,267.41 994.57,271.52 994.79,268.15 995.01,277.30 995.23,276.73 995.44,270.95 995.66,271.62 995.88,261.45 996.10,262.44 996.31,267.23 996.53,264.25 996.75,270.85 996.97,270.96 997.19,265.02 997.40,270.15 997.62,264.10 997.84,262.53 998.06,255.61 998.27,257.99 998.49,265.06 998.71,267.28 998.93,258.78 999.14,259.08 999.36,262.05 999.58,263.23 999.80,249.16 1000.02,252.54 1000.23,242.16 1000.45,243.86 1000.67,248.23 1000.89,243.69 1001.10,250.98 1001.32,249.60 1001.54,252.92 1001.76,250.75 1001.98,254.63 1002.19,252.61 1002.41,262.23 1002.63,262.29 1002.85,260.00 1003.06,263.40 1003.28,261.07 1003.50,261.48 1003.72,264.85 1003.94,263.62 1004.15,266.17 1004.37,261.36 1004.59,265.03 1004.81,263.63 1005.02,269.32 1005.24,268.11 1005.46,260.52 1005.68,263.52 1005.90,257.06 1006.11,260.33 1006.33,253.31 1006.55,251.14 1006.77,255.89 1006.98,256.84 1007.20,249.35 1007.42,254.37 1007.64,256.75 1007.86,258.32 1008.07,251.88 1008.29,251.06 1008.51,255.81 1008.73,257.58 1008.94,253.61 1009.16,252.92 1009.38,256.90 1009.60,255.05 1009.82,248.81 1010.03,251.10 1010.25,242.64 1010.47,242.80 1010.69,253.00 1010.90,250.94 1011.12,253.65 1011.34,253.69 1011.56,252.08 1011.78,253.25 1011.99,249.85 1012.21,250.81 1012.43,248.85 1012.65,250.94 1012.86,248.74 1013.08,249.78 1013.30,240.96 1013.52,245.66 1013.74,240.92 1013.95,244.53 1014.17,237.49 1014.39,235.78 1014.61,242.51 1014.82,243.55 1015.04,239.85 1015.26,239.61 1015.48,243.42 1015.70,240.22 1015.91,247.37 1016.13,246.92 1016.35,253.14 1016.57,250.03 1016.78,253.08 1017.00,253.03 1017.22,258.74 1017.44,257.93 1017.66,252.90 1017.87,254.87 1018.09,250.99 1018.31,252.61 1018.53,256.74 1018.74,255.80 1018.96,252.35 1019.18,252.29 1019.40,253.43 1019.62,251.82 1019.83,254.33 1020.05,254.03 1020.27,260.21 1020.49,257.83 1020.70,260.97 1020.92,258.98 1021.14,263.59 1021.36,258.74 1021.58,262.83 1021.79,260.39 1022.01,249.62 1022.23,251.91 1022.45,254.17 1022.66,250.82 1022.88,254.89 1023.10,258.59 1023.32,253.38 1023.54,254.10 1023.75,251.09 1023.97,248.83 1024.19,252.91 1024.41,252.83 1024.62,250.53 1024.84,251.99 1025.06,257.07 1025.28,255.83 1025.49,261.02 1025.71,257.74 1025.93,260.62 1026.15,258.66 1026.37,269.07 1026.58,266.50 1026.80,269.52 1027.02,268.23 1027.24,266.35 1027.45,267.76 1027.67,264.16 1027.89,264.95 1028.11,267.14 1028.33,264.77 1028.54,266.83 1028.76,265.40 1028.98,267.56 1029.20,271.33 1029.41,262.49 1029.63,261.59 1029.85,264.54 1030.07,262.27 1030.29,267.41 1030.50,260.58 1030.72,266.46 1030.94,267.81 1031.16,260.20 1031.37,260.44 1031.59,262.97 1031.81,261.74 1032.03,257.67 1032.25,261.63 1032.46,258.17 1032.68,259.67 1032.90,267.28 1033.12,268.89 1033.33,264.77 1033.55,263.78 1033.77,266.18 1033.99,267.22 1034.21,264.04 1034.42,264.57 1034.64,266.55 1034.86,265.66 1035.08,265.06 1035.29,265.58 1035.51,264.30 1035.73,264.70 1035.95,263.27 1036.17,263.43 1036.38,266.06 1036.60,265.93 1036.82,263.32 1037.04,264.31 1037.25,257.28 1037.47,259.09 1037.69,254.97 1037.91,257.76 1038.13,254.41 1038.34,255.28 1038.56,260.38 1038.78,257.76 1039.00,261.15 1039.21,262.15 1039.43,250.21 1039.65,246.16 1039.87,250.95 1040.09,246.52 1040.30,252.28 1040.52,248.93 1040.74,253.38 1040.96,252.68 1041.17,250.14 1041.39,253.14 1041.61,247.05 1041.83,245.98 1042.05,249.85 1042.26,250.46 1042.48,245.11 1042.70,247.12 1042.92,244.18 1043.13,245.21 1043.35,246.46 1043.57,246.67 1043.79,244.83 1044.01,243.05 1044.22,250.56 1044.44,249.15 1044.66,250.65 1044.88,250.29 1045.09,252.80 1045.31,250.70 1045.53,253.25 1045.75,253.19 1045.97,247.32 1046.18,249.48 1046.40,239.52 1046.62,241.60 1046.84,239.10 1047.05,241.13 1047.27,236.04 1047.49,242.56 1047.71,239.67 1047.93,243.42 1048.14,240.61 1048.36,243.22 1048.58,238.36 1048.80,237.90 1049.01,240.46 1049.23,238.62 1049.45,243.95 1049.67,242.21 1049.89,237.47 1050.10,240.18 1050.32,234.63 1050.54,238.21 1050.76,228.50 1050.97,230.43 1051.19,232.52 1051.41,231.58 1051.63,236.13 1051.85,234.55 1052.06,237.03 1052.28,236.02 1052.50,238.89 1052.72,238.83 1052.93,235.25 1053.15,236.83 1053.37,242.74 1053.59,241.70 1053.80,237.57 1054.02,239.48 1054.24,234.08 1054.46,234.11 1054.68,237.17 1054.89,236.46 1055.11,232.84 1055.33,234.05 1055.55,239.27 1055.76,236.30 1055.98,228.19 1056.20,229.21 1056.42,224.38 1056.64,225.41 1056.85,229.40 1057.07,228.03 1057.29,231.59 1057.51,227.16 1057.72,231.67 1057.94,227.53 1058.16,230.61 1058.38,230.85 1058.60,227.73 1058.81,228.91 1059.03,231.38 1059.25,231.26 1059.47,230.05 1059.68,229.46 1059.90,231.54 1060.12,231.66 1060.34,230.23 1060.56,231.13 1060.77,228.55 1060.99,229.58 1061.21,227.76 1061.43,224.59 1061.64,229.89 1061.86,228.32 1062.08,233.52 1062.30,233.67 1062.52,230.84 1062.73,230.97 1062.95,233.95 1063.17,233.31 1063.39,236.38 1063.60,235.28 1063.82,232.04 1064.04,232.54 1064.26,229.41 1064.48,231.71 1064.69,238.76 1064.91,234.29 1065.13,237.43 1065.35,236.33 1065.56,233.48 1065.78,235.10 1066.00,233.93" fill="none" stroke="#1f6fb2" stroke-width="1.25" stroke-linejoin="round" stroke-linecap="round"/>
<text transform="translate(18,215.0) rotate(-90)" text-anchor="middle" font-family="Arial, sans-serif" font-size="13" fill="#222222">close</text>
<line x1="88.00" y1="372.00" x2="88.00" y2="377.00" stroke="#222222" stroke-width="1"/>
<text x="88.00" y="394.00" text-anchor="middle" font-family="Arial, sans-serif" font-size="11" fill="#333333">2024-01-02</text>
<line x1="577.11" y1="372.00" x2="577.11" y2="377.00" stroke="#222222" stroke-width="1"/>
<text x="577.11" y="394.00" text-anchor="middle" font-family="Arial, sans-serif" font-size="11" fill="#333333">2025-03-02</text>
<line x1="1066.00" y1="372.00" x2="1066.00" y2="377.00" stroke="#222222" stroke-width="1"/>
<text x="1066.00" y="394.00" text-anchor="middle" font-family="Arial, sans-serif" font-size="11" fill="#333333">2026-04-30</text>
<text x="577.00" y="415.00" text-anchor="middle" font-family="Arial, sans-serif" font-size="13" fill="#222222">Tiempo</text>
</svg>