<svg xmlns="http://www.w3.org/2000/svg" width="1100" height="430" viewBox="0 0 1100 430">
<rect x="0" y="0" width="1100" height="430" fill="#ffffff"/>
<text x="550.0" y="26" text-anchor="middle" font-family="Arial, sans-serif" font-size="18" font-weight="700">D) abs_r - Retornos absolutos</text>
<line x1="88" y1="372.00" x2="1066.00" y2="372.00" stroke="#e6e6e6" stroke-width="1"/>
<text x="80" y="376.00" text-anchor="end" font-family="Arial, sans-serif" font-size="11" fill="#333333">-3.81e-03</text>
<line x1="88" y1="293.50" x2="1066.00" y2="293.50" stroke="#e6e6e6" stroke-width="1"/>
<text x="80" y="297.50" text-anchor="end" font-family="Arial, sans-serif" font-size="11" fill="#333333">0.017</text>
<line x1="88" y1="215.00" x2="1066.00" y2="215.00" stroke="#e6e6e6" stroke-width="1"/>
<text x="80" y="219.00" text-anchor="end" font-family="Arial, sans-serif" font-size="11" fill="#333333">0.038</text>
<line x1="88" y1="136.50" x2="1066.00" y2="136.50" stroke="#e6e6e6" stroke-width="1"/>
<text x="80" y="140.50" text-anchor="end" font-family="Arial, sans-serif" font-size="11" fill="#333333">0.059</text>
<line x1="88" y1="58.00" x2="1066.00" y2="58.00" stroke="#e6e6e6" stroke-width="1"/>
<text x="80" y="62.00" text-anchor="end" font-family="Arial, sans-serif" font-size="11" fill="#333333">0.080</text>
<rect x="88" y="58.00" width="978.00" height="314.00" fill="none" stroke="#222222" stroke-width="1"/>
<polyline points="88.00,328.76 88.22,357.71 88.44,357.72 88.65,331.10 88.87,344.25 89.09,357.73 89.31,357.62 89.52,172.14 89.74,317.39 89.96,357.28 90.18,343.46 90.40,357.64 90.61,357.70 90.83,327.12 91.05,357.54 91.27,331.23 91.48,357.72 91.70,292.97 91.92,338.91 92.14,357.64 92.36,331.70 92.57,357.73 92.79,346.54 93.01,357.65 93.23,347.49 93.44,357.67 93.66,357.67 93.88,344.06 94.10,357.70 94.32,348.11 94.53,357.67 94.75,338.41 94.97,357.72 95.19,325.30 95.40,357.67 95.62,316.79 95.84,357.35 96.06,319.31 96.28,357.63 96.49,305.89 96.71,357.41 96.93,246.96 97.15,339.87 97.36,357.73 97.58,357.69 97.80,333.72 98.02,302.59 98.24,357.64 98.45,342.78 98.67,357.73 98.89,357.71 99.11,309.30 99.32,357.68 99.54,336.28 99.76,344.52 99.98,357.69 100.20,357.31 100.41,278.27 100.63,343.63 100.85,357.73 101.07,357.36 101.28,337.98 101.50,347.48 101.72,357.62 101.94,357.73 102.15,349.91 102.37,357.73 102.59,341.01 102.81,337.69 103.03,357.65 103.24,357.73 103.46,343.78 103.68,357.71 103.90,337.18 104.11,346.22 104.33,357.73 104.55,357.73 104.77,320.64 104.99,345.49 105.20,357.69 105.42,349.65 105.64,357.70 105.86,334.34 106.07,357.66 106.29,345.75 106.51,357.60 106.73,357.73 106.95,347.52 107.16,330.64 107.38,357.72 107.60,343.62 107.82,357.73 108.03,357.70 108.25,332.71 108.47,340.44 108.69,357.73 108.91,357.72 109.12,351.09 109.34,357.73 109.56,351.31 109.78,357.73 109.99,350.63 110.21,357.69 110.43,350.45 110.65,357.73 110.87,342.77 111.08,357.66 111.30,332.37 111.52,357.73 111.74,338.09 111.95,333.49 112.17,357.73 112.39,357.73 112.61,335.66 112.83,332.88 113.04,357.68 113.26,344.15 113.48,357.73 113.70,357.71 113.91,339.37 114.13,336.70 114.35,357.71 114.57,357.70 114.79,350.23 115.00,341.74 115.22,357.68 115.44,346.50 115.66,357.71 115.87,339.94 116.09,357.73 116.31,341.48 116.53,357.72 116.75,357.72 116.96,350.99 117.18,347.31 117.40,357.70 117.62,357.73 117.83,349.60 118.05,339.96 118.27,357.63 118.49,346.92 118.71,357.73 118.92,340.59 119.14,357.68 119.36,357.66 119.58,344.99 119.79,337.30 120.01,357.73 120.23,341.13 120.45,357.72 120.67,326.71 120.88,357.70 121.10,357.57 121.32,336.48 121.54,357.68 121.75,343.58 121.97,335.05 122.19,357.68 122.41,357.71 122.63,343.42 122.84,340.86 123.06,357.71 123.28,342.92 123.50,357.68 123.71,350.69 123.93,357.71 124.15,357.73 124.37,337.25 124.59,357.73 124.80,349.51 125.02,353.21 125.24,357.73 125.46,349.57 125.67,357.73 125.89,357.73 126.11,350.32 126.33,348.62 126.55,357.72 126.76,357.66 126.98,340.60 127.20,357.67 127.42,344.71 127.63,341.94 127.85,357.73 128.07,337.14 128.29,357.73 128.51,357.72 128.72,340.31 128.94,357.71 129.16,344.03 129.38,351.12 129.59,357.73 129.81,357.72 130.03,340.96 130.25,332.37 130.46,357.72 130.68,357.73 130.90,350.57 131.12,343.56 131.34,357.69 131.55,357.72 131.77,341.52 131.99,357.72 132.21,325.53 132.42,357.72 132.64,333.87 132.86,357.73 133.08,351.27 133.30,357.71 133.51,350.35 133.73,357.71 133.95,343.96 134.17,346.52 134.38,357.73 134.60,345.70 134.82,357.69 135.04,357.73 135.26,340.22 135.47,357.73 135.69,343.95 135.91,330.07 136.13,357.60 136.34,343.60 136.56,357.67 136.78,315.11 137.00,357.62 137.22,342.97 137.43,357.60 137.65,357.73 137.87,318.07 138.09,344.94 138.30,357.70 138.52,357.69 138.74,330.22 138.96,357.68 139.18,333.57 139.39,343.42 139.61,357.61 139.83,357.73 140.05,345.91 140.26,357.68 140.48,339.79 140.70,348.05 140.92,357.72 141.14,357.73 141.35,349.62 141.57,357.73 141.79,332.95 142.01,357.71 142.22,346.84 142.44,347.58 142.66,357.73 142.88,357.73 143.10,337.13 143.31,348.53 143.53,357.73 143.75,344.59 143.97,357.73 144.18,357.71 144.40,338.68 144.62,357.67 144.84,334.76 145.06,330.00 145.27,357.70 145.49,349.14 145.71,357.73 145.93,357.73 146.14,341.38 146.36,357.71 146.58,342.57 146.80,357.70 147.02,345.10 147.23,341.07 147.45,357.73 147.67,331.81 147.89,357.73 148.10,345.75 148.32,357.73 148.54,339.93 148.76,357.73 148.98,349.34 149.19,357.73 149.41,357.73 149.63,349.21 149.85,348.58 150.06,357.73 150.28,352.89 150.50,357.71 150.72,357.73 150.94,348.03 151.15,348.97 151.37,357.73 151.59,357.73 151.81,345.72 152.02,319.27 152.24,357.69 152.46,297.28 152.68,357.71 152.90,357.59 153.11,324.06 153.33,341.65 153.55,357.65 153.77,357.65 153.98,333.91 154.20,357.55 154.42,297.37 154.64,322.75 154.86,357.66 155.07,337.39 155.29,357.71 155.51,326.11 155.73,357.66 155.94,357.63 156.16,339.02 156.38,335.19 156.60,357.71 156.81,329.02 157.03,357.61 157.25,348.64 157.47,357.71 157.69,347.52 157.90,357.70 158.12,357.73 158.34,347.16 158.56,339.06 158.77,357.72 158.99,357.70 159.21,254.52 159.43,357.72 159.65,323.59 159.86,357.73 160.08,333.15 160.30,357.65 160.52,338.45 160.73,300.77 160.95,357.61 161.17,357.54 161.39,295.79 161.61,357.72 161.82,325.76 162.04,318.46 162.26,357.61 162.48,336.15 162.69,357.71 162.91,357.63 163.13,336.77 163.35,321.54 163.57,357.73 163.78,357.70 164.00,343.47 164.22,357.72 164.44,335.98 164.65,298.04 164.87,357.69 165.09,349.06 165.31,357.68 165.53,357.69 165.74,350.12 165.96,357.73 166.18,343.35 166.40,340.81 166.61,357.68 166.83,340.95 167.05,357.72 167.27,357.70 167.49,331.19 167.70,321.64 167.92,357.67 168.14,357.72 168.36,342.44 168.57,357.63 168.79,343.44 169.01,357.54 169.23,328.06 169.45,357.71 169.66,341.13 169.88,357.73 170.10,339.94 170.32,341.29 170.53,357.73 170.75,357.71 170.97,345.57 171.19,357.68 171.41,328.59 171.62,322.93 171.84,357.62 172.06,302.58 172.28,357.64 172.49,357.72 172.71,319.61 172.93,311.60 173.15,357.60 173.37,357.65 173.58,344.66 173.80,357.47 174.02,335.68 174.24,313.57 174.45,357.70 174.67,357.61 174.89,335.30 175.11,357.73 175.33,331.83 175.54,334.40 175.76,357.73 175.98,323.11 176.20,357.67 176.41,357.56 176.63,325.75 176.85,320.75 177.07,357.65 177.29,332.15 177.50,357.59 177.72,328.25 177.94,357.70 178.16,357.32 178.37,307.91 178.59,315.66 178.81,357.73 179.03,336.72 179.25,357.73 179.46,357.28 179.68,317.41 179.90,339.65 180.12,357.63 180.33,335.99 180.55,357.63 180.77,325.61 180.99,357.73 181.21,357.65 181.42,338.53 181.64,357.65 181.86,330.24 182.08,357.69 182.29,341.17 182.51,357.73 182.73,339.11 182.95,333.05 183.16,357.73 183.38,339.27 183.60,357.61 183.82,357.62 184.04,332.22 184.25,335.28 184.47,357.64 184.69,334.22 184.91,357.71 185.12,357.68 185.34,332.88 185.56,339.60 185.78,357.72 186.00,357.73 186.21,345.25 186.43,322.41 186.65,357.36 186.87,337.79 187.08,357.72 187.30,338.75 187.52,357.62 187.74,345.24 187.96,357.67 188.17,357.73 188.39,343.51 188.61,338.15 188.83,357.68 189.04,357.73 189.26,351.12 189.48,348.25 189.70,357.65 189.92,346.08 190.13,357.73 190.35,357.72 190.57,346.05 190.79,357.73 191.00,349.70 191.22,335.12 191.44,357.70 191.66,357.59 191.88,327.29 192.09,357.53 192.31,337.23 192.53,357.73 192.75,263.80 192.96,357.69 193.18,333.62 193.40,331.62 193.62,357.54 193.84,357.70 194.05,335.41 194.27,357.73 194.49,323.24 194.71,344.88 194.92,357.66 195.14,357.67 195.36,343.14 195.58,357.73 195.80,333.32 196.01,357.73 196.23,324.03 196.45,357.70 196.67,331.85 196.88,343.63 197.10,357.60 197.32,349.14 197.54,357.66 197.76,341.14 197.97,357.67 198.19,357.70 198.41,338.52 198.63,350.08 198.84,357.65 199.06,357.73 199.28,340.43 199.50,357.71 199.72,343.79 199.93,357.73 200.15,323.29 200.37,345.79 200.59,357.71 200.80,357.73 201.02,331.07 201.24,333.51 201.46,357.66 201.68,357.60 201.89,338.97 202.11,357.62 202.33,318.85 202.55,327.21 202.76,357.69 202.98,337.83 203.20,357.69 203.42,319.54 203.64,357.71 203.85,346.39 204.07,357.56 204.29,348.85 204.51,357.72 204.72,357.72 204.94,298.30 205.16,339.58 205.38,357.73 205.60,341.52 205.81,357.52 206.03,357.51 206.25,216.25 206.47,321.18 206.68,357.72 206.90,337.39 207.12,357.61 207.34,310.27 207.56,357.60 207.77,335.40 207.99,357.68 208.21,357.72 208.43,331.20 208.64,357.43 208.86,330.11 209.08,357.59 209.30,324.47 209.52,357.52 209.73,336.01 209.95,357.72 210.17,331.91 210.39,357.68 210.60,318.74 210.82,329.49 211.04,357.67 211.26,337.18 211.47,357.65 211.69,327.86 211.91,357.70 212.13,357.60 212.35,311.43 212.56,313.27 212.78,357.44 213.00,357.72 213.22,311.18 213.43,329.30 213.65,357.73 213.87,357.57 214.09,339.54 214.31,357.65 214.52,342.34 214.74,342.31 214.96,357.72 215.18,340.20 215.39,357.68 215.61,357.70 215.83,319.04 216.05,357.72 216.27,340.35 216.48,357.72 216.70,336.45 216.92,347.42 217.14,357.65 217.35,357.67 217.57,340.45 217.79,357.61 218.01,347.17 218.23,357.69 218.44,345.20 218.66,334.28 218.88,357.70 219.10,345.02 219.31,357.68 219.53,357.59 219.75,341.81 219.97,336.65 220.19,357.73 220.40,346.38 220.62,357.69 220.84,357.60 221.06,333.88 221.27,357.68 221.49,331.88 221.71,357.66 221.93,344.59 222.15,357.66 222.36,338.93 222.58,357.73 222.80,342.68 223.02,357.72 223.23,347.25 223.45,357.73 223.67,341.72 223.89,337.69 224.11,357.69 224.32,338.02 224.54,357.61 224.76,357.72 224.98,334.93 225.19,331.84 225.41,357.67 225.63,322.94 225.85,357.66 226.07,357.73 226.28,305.04 226.50,336.63 226.72,357.73 226.94,302.28 227.15,357.70 227.37,357.62 227.59,334.37 227.81,357.73 228.03,338.60 228.24,330.80 228.46,357.71 228.68,357.69 228.90,299.17 229.11,336.06 229.33,357.69 229.55,329.46 229.77,357.66 229.99,336.41 230.20,357.69 230.42,329.65 230.64,357.71 230.86,346.22 231.07,357.73 231.29,339.04 231.51,357.72 231.73,357.73 231.95,346.06 232.16,357.72 232.38,331.12 232.60,340.55 232.82,357.67 233.03,327.40 233.25,357.73 233.47,336.23 233.69,357.69 233.91,357.69 234.12,331.67 234.34,344.59 234.56,357.73 234.78,357.66 234.99,332.38 235.21,341.81 235.43,357.73 235.65,357.60 235.87,337.94 236.08,344.10 236.30,357.72 236.52,342.50 236.74,357.73 236.95,357.73 237.17,329.53 237.39,346.14 237.61,357.67 237.82,357.73 238.04,349.45 238.26,343.91 238.48,357.71 238.70,357.73 238.91,348.43 239.13,357.73 239.35,341.86 239.57,357.73 239.78,342.88 240.00,357.70 240.22,318.70 240.44,357.65 240.66,342.97 240.87,357.72 241.09,340.15 241.31,357.69 241.53,316.08 241.74,343.88 241.96,357.72 242.18,357.70 242.40,344.79 242.62,292.43 242.83,357.69 243.05,333.79 243.27,357.73 243.49,357.73 243.70,347.17 243.92,342.19 244.14,357.68 244.36,345.57 244.58,357.73 244.79,357.71 245.01,335.26 245.23,337.74 245.45,357.73 245.66,357.70 245.88,343.16 246.10,357.67 246.32,342.71 246.54,350.39 246.75,357.73 246.97,357.72 247.19,338.32 247.41,343.61 247.62,357.64 247.84,345.89 248.06,357.73 248.28,333.44 248.50,357.73 248.71,322.96 248.93,357.71 249.15,357.71 249.37,342.47 249.58,357.73 249.80,340.79 250.02,336.75 250.24,357.73 250.46,344.27 250.67,357.71 250.89,340.96 251.11,357.72 251.33,349.37 251.54,357.67 251.76,357.70 251.98,324.52 252.20,357.67 252.42,324.43 252.63,341.90 252.85,357.67 253.07,357.70 253.29,340.97 253.50,348.60 253.72,357.69 253.94,357.73 254.16,347.70 254.38,352.76 254.59,357.73 254.81,357.73 255.03,345.69 255.25,357.73 255.46,338.61 255.68,357.73 255.90,339.61 256.12,357.73 256.34,339.91 256.55,357.65 256.77,324.09 256.99,357.71 257.21,324.24 257.42,342.71 257.64,357.73 257.86,328.03 258.08,357.70 258.30,342.33 258.51,357.71 258.73,336.47 258.95,357.68 259.17,357.73 259.38,348.04 259.60,357.65 259.82,339.72 260.04,337.60 260.26,357.60 260.47,357.73 260.69,350.30 260.91,357.73 261.13,330.00 261.34,337.62 261.56,357.62 261.78,351.61 262.00,357.73 262.22,357.73 262.43,353.04 262.65,357.69 262.87,352.76 263.09,357.73 263.30,339.74 263.52,340.56 263.74,357.66 263.96,357.73 264.18,345.39 264.39,357.73 264.61,336.97 264.83,340.61 265.05,357.68 265.26,357.73 265.48,350.13 265.70,357.70 265.92,338.80 266.13,341.21 266.35,357.73 266.57,357.73 266.79,346.59 267.01,338.53 267.22,357.73 267.44,343.94 267.66,357.73 267.88,357.73 268.09,345.50 268.31,344.33 268.53,357.73 268.75,350.33 268.97,357.73 269.18,305.55 269.40,357.38 269.62,350.59 269.84,357.73 270.05,357.73 270.27,352.41 270.49,353.91 270.71,357.73 270.93,357.73 271.14,354.22 271.36,357.73 271.58,348.51 271.80,352.98 272.01,357.73 272.23,351.26 272.45,357.68 272.67,357.69 272.89,346.70 273.10,357.63 273.32,328.88 273.54,341.54 273.76,357.70 273.97,326.90 274.19,357.73 274.41,345.11 274.63,357.65 274.85,357.70 275.06,287.35 275.28,324.83 275.50,357.67 275.72,342.11 275.93,357.70 276.15,339.26 276.37,357.70 276.59,349.66 276.81,357.67 277.02,348.43 277.24,357.69 277.46,326.10 277.68,357.70 277.89,352.70 278.11,357.73 278.33,352.11 278.55,357.68 278.77,357.73 278.98,347.51 279.20,357.73 279.42,349.06 279.64,357.73 279.85,353.48 280.07,342.14 280.29,357.68 280.51,357.68 280.73,338.85 280.94,329.20 281.16,357.66 281.38,308.44 281.60,357.70 281.81,357.68 282.03,337.24 282.25,357.73 282.47,342.22 282.69,342.55 282.90,357.68 283.12,349.79 283.34,357.67 283.56,357.73 283.77,337.92 283.99,336.99 284.21,357.70 284.43,344.12 284.65,357.73 284.86,357.73 285.08,337.90 285.30,357.70 285.52,342.28 285.73,348.13 285.95,357.64 286.17,351.89 286.39,357.73 286.61,357.73 286.82,354.01 287.04,357.73 287.26,349.30 287.48,357.73 287.69,351.18 287.91,357.73 288.13,339.66 288.35,357.64 288.57,303.86 288.78,357.24 289.00,331.94 289.22,357.66 289.44,330.86 289.65,326.49 289.87,357.66 290.09,338.01 290.31,357.69 290.53,357.72 290.74,342.27 290.96,342.56 291.18,357.59 291.40,357.69 291.61,340.70 291.83,357.72 292.05,348.05 292.27,341.60 292.48,357.72 292.70,343.19 292.92,357.72 293.14,357.73 293.36,342.27 293.57,357.73 293.79,335.68 294.01,347.42 294.23,357.73 294.44,350.90 294.66,357.73 294.88,357.73 295.10,350.44 295.32,357.73 295.53,337.67 295.75,357.73 295.97,346.90 296.19,357.73 296.40,322.14 296.62,357.61 296.84,345.02 297.06,357.71 297.28,342.61 297.49,357.72 297.71,345.46 297.93,342.02 298.15,357.62 298.36,357.73 298.58,330.17 298.80,357.58 299.02,343.22 299.24,357.71 299.45,340.37 299.67,357.60 299.89,331.05 300.11,357.56 300.32,330.99 300.54,357.73 300.76,325.60 300.98,271.21 301.20,357.73 301.41,326.19 301.63,357.62 301.85,357.73 302.07,337.66 302.28,357.73 302.50,339.31 302.72,357.73 302.94,341.87 303.16,357.73 303.37,343.79 303.59,344.04 303.81,357.73 304.03,357.68 304.24,325.37 304.46,357.40 304.68,320.19 304.90,276.72 305.12,357.73 305.33,357.66 305.55,337.36 305.77,357.64 305.99,317.29 306.20,333.76 306.42,357.66 306.64,357.72 306.86,332.20 307.08,327.43 307.29,357.72 307.51,357.70 307.73,335.82 307.95,332.50 308.16,357.69 308.38,323.38 308.60,357.55 308.82,336.32 309.04,357.69 309.25,357.67 309.47,341.00 309.69,341.82 309.91,357.72 310.12,357.73 310.34,348.86 310.56,342.50 310.78,357.64 311.00,357.73 311.21,330.07 311.43,339.50 311.65,357.66 311.87,357.63 312.08,324.55 312.30,317.84 312.52,357.64 312.74,357.73 312.96,341.09 313.17,333.56 313.39,357.73 313.61,357.73 313.83,333.49 314.04,357.72 314.26,324.78 314.48,357.73 314.70,340.33 314.92,357.73 315.13,345.39 315.35,357.71 315.57,333.64 315.79,357.67 316.00,340.91 316.22,357.73 316.44,343.77 316.66,342.09 316.88,357.66 317.09,344.13 317.31,357.67 317.53,357.73 317.75,326.37 317.96,344.01 318.18,357.73 318.40,357.73 318.62,350.20 318.84,337.48 319.05,357.62 319.27,357.64 319.49,342.38 319.71,357.73 319.92,339.12 320.14,330.81 320.36,357.62 320.58,343.75 320.79,357.73 321.01,339.22 321.23,357.51 321.45,357.62 321.67,344.11 321.88,340.10 322.10,357.73 322.32,331.33 322.54,357.50 322.75,357.73 322.97,341.29 323.19,357.58 323.41,341.67 323.63,357.73 323.84,301.40 324.06,345.81 324.28,357.66 324.50,357.49 324.71,334.72 324.93,357.73 325.15,343.21 325.37,357.73 325.59,336.29 325.80,344.17 326.02,357.73 326.24,357.68 326.46,349.05 326.67,357.73 326.89,339.79 327.11,286.28 327.33,357.73 327.55,341.63 327.76,357.73 327.98,357.73 328.20,349.32 328.42,328.25 328.63,357.67 328.85,357.73 329.07,337.91 329.29,335.51 329.51,357.73 329.72,341.36 329.94,357.73 330.16,342.94 330.38,357.69 330.59,339.87 330.81,357.72 331.03,341.53 331.25,357.66 331.47,335.42 331.68,357.68 331.90,345.15 332.12,357.70 332.34,357.73 332.55,342.99 332.77,333.25 332.99,357.72 333.21,342.46 333.43,357.70 333.64,357.61 333.86,328.98 334.08,328.69 334.30,357.73 334.51,348.82 334.73,357.73 334.95,327.86 335.17,357.66 335.39,345.65 335.60,357.61 335.82,335.95 336.04,357.72 336.26,357.43 336.47,285.09 336.69,241.47 336.91,357.58 337.13,239.43 337.35,357.57 337.56,322.50 337.78,357.60 338.00,357.73 338.22,313.46 338.43,357.71 338.65,323.67 338.87,334.94 339.09,357.68 339.31,324.44 339.52,357.73 339.74,357.60 339.96,259.76 340.18,342.01 340.39,357.68 340.61,278.16 340.83,357.71 341.05,308.25 341.27,357.69 341.48,357.60 341.70,318.53 341.92,333.22 342.14,357.67 342.35,343.00 342.57,357.73 342.79,357.61 343.01,344.46 343.23,357.71 343.44,348.65 343.66,357.73 343.88,337.20 344.10,331.97 344.31,357.68 344.53,332.65 344.75,357.65 344.97,357.65 345.19,306.62 345.40,357.73 345.62,333.63 345.84,338.65 346.06,357.73 346.27,357.73 346.49,332.08 346.71,343.32 346.93,357.60 347.14,357.71 347.36,333.45 347.58,331.84 347.80,357.60 348.02,317.85 348.23,357.70 348.45,357.69 348.67,330.58 348.89,321.54 349.10,357.51 349.32,329.53 349.54,357.73 349.76,322.54 349.98,357.71 350.19,357.72 350.41,348.93 350.63,357.73 350.85,351.06 351.06,349.20 351.28,357.72 351.50,357.71 351.72,342.18 351.94,345.36 352.15,357.72 352.37,357.73 352.59,338.89 352.81,357.71 353.02,334.25 353.24,357.68 353.46,331.38 353.68,328.92 353.90,357.68 354.11,357.71 354.33,335.95 354.55,334.23 354.77,357.69 354.98,357.60 355.20,340.15 355.42,312.96 355.64,357.72 355.86,357.64 356.07,336.66 356.29,357.60 356.51,348.62 356.73,334.98 356.94,357.73 357.16,340.27 357.38,357.62 357.60,357.70 357.82,305.57 358.03,357.65 358.25,326.25 358.47,350.29 358.69,357.69 358.90,357.73 359.12,338.73 359.34,344.55 359.56,357.73 359.78,348.65 359.99,357.73 360.21,357.72 360.43,349.15 360.65,342.73 360.86,357.73 361.08,357.61 361.30,341.08 361.52,357.67 361.74,336.84 361.95,357.73 362.17,348.53 362.39,357.72 362.61,343.33 362.82,357.62 363.04,286.45 363.26,357.71 363.48,333.44 363.70,357.60 363.91,316.71 364.13,343.04 364.35,357.68 364.57,342.82 364.78,357.73 365.00,357.71 365.22,331.50 365.44,357.46 365.66,347.65 365.87,334.37 366.09,357.60 366.31,348.92 366.53,357.73 366.74,357.73 366.96,350.82 367.18,357.68 367.40,350.54 367.62,339.71 367.83,357.67 368.05,357.72 368.27,330.27 368.49,337.59 368.70,357.68 368.92,357.66 369.14,340.73 369.36,357.68 369.58,327.44 369.79,343.84 370.01,357.71 370.23,357.71 370.45,338.37 370.66,357.69 370.88,346.08 371.10,259.24 371.32,357.60 371.54,357.73 371.75,329.75 371.97,357.56 372.19,332.74 372.41,322.93 372.62,357.73 372.84,329.86 373.06,357.53 373.28,340.02 373.49,357.69 373.71,357.66 373.93,313.70 374.15,333.38 374.37,357.65 374.58,357.64 374.80,337.31 375.02,347.92 375.24,357.73 375.45,357.63 375.67,349.19 375.89,357.66 376.11,344.66 376.33,341.65 376.54,357.73 376.76,330.77 376.98,357.72 377.20,357.72 377.41,332.11 377.63,357.66 377.85,335.11 378.07,357.67 378.29,345.15 378.50,357.69 378.72,332.80 378.94,357.73 379.16,319.42 379.37,357.68 379.59,329.95 379.81,331.51 380.03,357.69 380.25,334.02 380.46,357.68 380.68,357.73 380.90,332.03 381.12,346.30 381.33,357.70 381.55,357.66 381.77,350.74 381.99,357.73 382.21,330.57 382.42,350.30 382.64,357.73 382.86,349.40 383.08,357.71 383.29,357.73 383.51,338.77 383.73,351.82 383.95,357.73 384.17,357.73 384.38,346.84 384.60,357.66 384.82,335.53 385.04,357.68 385.25,344.52 385.47,336.03 385.69,357.73 385.91,357.65 386.13,340.98 386.34,357.73 386.56,328.94 386.78,332.01 387.00,357.73 387.21,357.72 387.43,340.86 387.65,357.73 387.87,336.47 388.09,320.17 388.30,357.71 388.52,357.71 388.74,341.06 388.96,342.31 389.17,357.67 389.39,344.63 389.61,357.62 389.83,357.71 390.05,339.05 390.26,357.62 390.48,343.83 390.70,351.06 390.92,357.73 391.13,357.70 391.35,352.07 391.57,347.34 391.79,357.72 392.01,357.70 392.22,347.70 392.44,357.73 392.66,341.28 392.88,338.28 393.09,357.56 393.31,357.64 393.53,332.94 393.75,357.73 393.97,340.16 394.18,348.70 394.40,357.71 394.62,339.08 394.84,357.73 395.05,336.64 395.27,357.72 395.49,357.67 395.71,345.18 395.93,346.07 396.14,357.67 396.36,338.58 396.58,357.70 396.80,357.70 397.01,334.72 397.23,344.97 397.45,357.63 397.67,348.38 397.89,357.73 398.10,343.11 398.32,357.54 398.54,357.73 398.76,351.47 398.97,349.84 399.19,357.73 399.41,357.73 399.63,350.88 399.85,349.51 400.06,357.72 400.28,357.73 400.50,352.43 400.72,357.71 400.93,338.71 401.15,357.73 401.37,340.04 401.59,345.02 401.80,357.65 402.02,342.39 402.24,357.73 402.46,357.61 402.68,329.95 402.89,335.81 403.11,357.67 403.33,346.52 403.55,357.61 403.76,327.87 403.98,357.73 404.20,325.35 404.42,357.73 404.64,357.73 404.85,344.15 405.07,357.62 405.29,336.96 405.51,357.73 405.72,343.63 405.94,357.71 406.16,336.02 406.38,343.50 406.60,357.73 406.81,357.73 407.03,352.34 407.25,357.73 407.47,352.04 407.68,350.69 407.90,357.73 408.12,357.73 408.34,349.91 408.56,349.38 408.77,357.70 408.99,357.71 409.21,335.83 409.43,357.72 409.64,338.82 409.86,336.81 410.08,357.61 410.30,357.72 410.52,344.09 410.73,357.72 410.95,340.78 411.17,357.71 411.39,345.64 411.60,357.73 411.82,348.77 412.04,337.69 412.26,357.73 412.48,349.97 412.69,357.73 412.91,357.70 413.13,337.57 413.35,333.83 413.56,357.60 413.78,357.73 414.00,348.37 414.22,339.22 414.44,357.73 414.65,346.56 414.87,357.73 415.09,357.73 415.31,347.28 415.52,347.01 415.74,357.72 415.96,347.79 416.18,357.73 416.40,357.73 416.61,346.35 416.83,357.73 417.05,344.12 417.27,340.56 417.48,357.70 417.70,335.20 417.92,357.68 418.14,339.76 418.36,357.69 418.57,357.70 418.79,317.65 419.01,334.91 419.23,357.73 419.44,343.22 419.66,357.71 419.88,323.86 420.10,357.51 420.32,357.73 420.53,347.06 420.75,357.72 420.97,342.40 421.19,340.75 421.40,357.62 421.62,346.07 421.84,357.73 422.06,357.73 422.28,334.47 422.49,348.64 422.71,357.73 422.93,348.37 423.15,357.73 423.36,357.73 423.58,353.26 423.80,353.94 424.02,357.73 424.24,357.73 424.45,350.65 424.67,357.73 424.89,343.29 425.11,343.97 425.32,357.71 425.54,357.73 425.76,336.39 425.98,357.53 426.20,338.89 426.41,357.73 426.63,348.78 426.85,336.23 427.07,357.71 427.28,357.70 427.50,350.16 427.72,357.73 427.94,342.61 428.15,357.64 428.37,340.67 428.59,337.36 428.81,357.63 429.03,343.65 429.24,357.66 429.46,357.72 429.68,346.49 429.90,357.73 430.11,345.54 430.33,357.72 430.55,309.66 430.77,357.65 430.99,329.47 431.20,357.73 431.42,348.32 431.64,351.94 431.86,357.73 432.07,352.70 432.29,357.73 432.51,357.73 432.73,348.23 432.95,357.72 433.16,347.43 433.38,357.71 433.60,344.90 433.82,337.24 434.03,357.73 434.25,357.73 434.47,331.25 434.69,357.69 434.91,334.84 435.12,357.73 435.34,338.17 435.56,347.14 435.78,357.73 435.99,357.62 436.21,335.59 436.43,329.26 436.65,357.73 436.87,357.73 437.08,348.24 437.30,335.07 437.52,357.73 437.74,340.61 437.95,357.71 438.17,357.73 438.39,326.67 438.61,335.16 438.83,357.62 439.04,357.73 439.26,351.06 439.48,357.73 439.70,347.80 439.91,357.72 440.13,341.11 440.35,357.67 440.57,349.62 440.79,335.06 441.00,357.68 441.22,357.72 441.44,346.12 441.66,357.73 441.87,339.22 442.09,357.70 442.31,334.47 442.53,357.69 442.75,348.91 442.96,357.65 443.18,332.58 443.40,357.57 443.62,316.35 443.83,327.52 444.05,357.70 444.27,338.74 444.49,357.73 444.71,335.96 444.92,357.68 445.14,357.66 445.36,342.40 445.58,332.44 445.79,357.68 446.01,346.16 446.23,357.62 446.45,357.67 446.67,342.24 446.88,350.87 447.10,357.70 447.32,351.40 447.54,357.73 447.75,357.71 447.97,347.46 448.19,357.71 448.41,311.20 448.63,357.73 448.84,337.78 449.06,357.53 449.28,334.53 449.50,339.81 449.71,357.73 449.93,333.63 450.15,357.68 450.37,313.98 450.59,357.55 450.80,310.01 451.02,357.73 451.24,357.64 451.46,334.29 451.67,357.73 451.89,333.32 452.11,316.66 452.33,357.68 452.55,312.12 452.76,357.67 452.98,357.73 453.20,339.66 453.42,304.58 453.63,357.73 453.85,330.74 454.07,357.71 454.29,357.72 454.51,327.54 454.72,336.90 454.94,357.57 455.16,348.81 455.38,357.45 455.59,338.91 455.81,357.68 456.03,357.72 456.25,342.23 456.46,344.24 456.68,357.65 456.90,357.72 457.12,341.17 457.34,357.73 457.55,327.05 457.77,357.71 457.99,326.32 458.21,357.49 458.42,324.15 458.64,346.67 458.86,357.73 459.08,357.73 459.30,333.68 459.51,339.03 459.73,357.73 459.95,357.72 460.17,344.00 460.38,357.59 460.60,334.93 460.82,357.69 461.04,329.35 461.26,357.73 461.47,332.61 461.69,343.39 461.91,357.59 462.13,343.40 462.34,357.73 462.56,342.70 462.78,357.63 463.00,348.66 463.22,357.72 463.43,357.73 463.65,350.74 463.87,343.17 464.09,357.65 464.30,348.00 464.52,357.73 464.74,357.55 464.96,344.08 465.18,357.73 465.39,345.02 465.61,347.79 465.83,357.72 466.05,328.40 466.26,357.65 466.48,329.63 466.70,357.73 466.92,357.66 467.14,334.97 467.35,357.73 467.57,334.67 467.79,341.18 468.01,357.66 468.22,357.64 468.44,329.24 468.66,357.71 468.88,346.86 469.10,357.69 469.31,337.35 469.53,345.48 469.75,357.60 469.97,344.79 470.18,357.72 470.40,357.62 470.62,343.87 470.84,340.38 471.06,357.63 471.27,345.33 471.49,357.73 471.71,351.30 471.93,357.73 472.14,357.73 472.36,349.28 472.58,349.68 472.80,357.72 473.02,350.50 473.23,357.71 473.45,357.73 473.67,342.75 473.89,336.43 474.10,357.66 474.32,336.90 474.54,357.66 474.76,357.73 474.98,343.09 475.19,326.77 475.41,357.69 475.63,332.73 475.85,357.71 476.06,357.68 476.28,349.42 476.50,357.73 476.72,336.13 476.94,306.81 477.15,357.65 477.37,357.69 477.59,327.23 477.81,202.13 478.02,357.51 478.24,357.59 478.46,342.46 478.68,323.65 478.90,357.58 479.11,327.06 479.33,357.72 479.55,349.22 479.77,357.68 479.98,357.69 480.20,346.53 480.42,345.56 480.64,357.71 480.86,357.55 481.07,347.25 481.29,357.70 481.51,337.29 481.73,357.62 481.94,342.35 482.16,357.57 482.38,296.55 482.60,357.69 482.81,328.06 483.03,357.73 483.25,331.19 483.47,330.69 483.69,357.72 483.90,337.89 484.12,357.72 484.34,338.96 484.56,357.67 484.77,357.73 484.99,328.36 485.21,347.82 485.43,357.72 485.65,357.61 485.86,337.29 486.08,345.61 486.30,357.71 486.52,357.72 486.73,336.22 486.95,357.56 487.17,331.32 487.39,348.54 487.61,357.73 487.82,348.16 488.04,357.69 488.26,357.72 488.48,345.05 488.69,357.73 488.91,345.38 489.13,357.61 489.35,348.02 489.57,323.12 489.78,357.73 490.00,357.73 490.22,333.15 490.44,333.77 490.65,357.65 490.87,347.27 491.09,357.67 491.31,329.34 491.53,357.64 491.74,335.42 491.96,357.72 492.18,346.07 492.40,357.68 492.61,357.63 492.83,316.53 493.05,332.49 493.27,357.67 493.49,357.68 493.70,332.59 493.92,315.49 494.14,357.58 494.36,357.71 494.57,329.97 494.79,298.68 495.01,357.66 495.23,339.60 495.45,357.72 495.66,357.70 495.88,344.12 496.10,336.92 496.32,357.68 496.53,343.34 496.75,357.71 496.97,357.64 497.19,339.66 497.41,357.65 497.62,336.31 497.84,357.60 498.06,340.18 498.28,357.56 498.49,334.19 498.71,336.68 498.93,357.68 499.15,357.73 499.37,336.77 499.58,339.78 499.80,357.65 500.02,343.38 500.24,357.73 500.45,337.56 500.67,357.72 500.89,357.61 501.11,344.10 501.33,340.34 501.54,357.69 501.76,340.60 501.98,357.72 502.20,357.73 502.41,343.23 502.63,324.34 502.85,357.71 503.07,339.45 503.29,357.73 503.50,345.10 503.72,357.70 503.94,342.93 504.16,357.66 504.37,349.55 504.59,357.71 504.81,357.73 505.03,353.22 505.25,341.58 505.46,357.71 505.68,342.19 505.90,357.65 506.12,357.70 506.33,340.20 506.55,329.61 506.77,357.64 506.99,357.73 507.21,340.36 507.42,329.96 507.64,357.62 507.86,346.49 508.08,357.73 508.29,357.69 508.51,344.21 508.73,357.70 508.95,346.06 509.16,341.29 509.38,357.72 509.60,357.73 509.82,338.09 510.04,338.40 510.25,357.73 510.47,349.35 510.69,357.69 510.91,334.73 511.12,357.69 511.34,357.71 511.56,348.45 511.78,357.73 512.00,351.06 512.21,346.76 512.43,357.73 512.65,357.73 512.87,346.00 513.08,345.02 513.30,357.66 513.52,357.73 513.74,337.08 513.96,357.73 514.17,347.92 514.39,321.69 514.61,357.70 514.83,357.73 515.04,348.81 515.26,357.73 515.48,339.71 515.70,342.73 515.92,357.69 516.13,357.73 516.35,342.27 516.57,357.70 516.79,330.84 517.00,357.70 517.22,315.75 517.44,336.89 517.66,357.71 517.88,357.55 518.09,331.81 518.31,357.73 518.53,345.77 518.75,304.17 518.96,357.71 519.18,357.64 519.40,328.67 519.62,357.71 519.84,350.06 520.05,347.51 520.27,357.73 520.49,351.54 520.71,357.62 520.92,357.73 521.14,350.13 521.36,339.67 521.58,357.71 521.80,333.03 522.01,357.69 522.23,315.24 522.45,357.70 522.67,337.19 522.88,357.68 523.10,357.56 523.32,341.15 523.54,357.67 523.76,321.97 523.97,357.70 524.19,344.07 524.41,357.64 524.63,308.96 524.84,357.72 525.06,340.18 525.28,342.11 525.50,357.69 525.72,332.08 525.93,357.72 526.15,357.73 526.37,334.53 526.59,348.18 526.80,357.72 527.02,337.81 527.24,357.72 527.46,357.73 527.68,336.23 527.89,357.48 528.11,340.17 528.33,343.35 528.55,357.65 528.76,357.73 528.98,342.99 529.20,332.23 529.42,357.72 529.64,357.66 529.85,294.98 530.07,357.35 530.29,293.15 530.51,271.73 530.72,357.73 530.94,311.33 531.16,357.56 531.38,357.70 531.60,322.18 531.81,319.04 532.03,357.51 532.25,346.06 532.47,357.69 532.68,336.86 532.90,357.72 533.12,357.66 533.34,339.52 533.56,357.72 533.77,341.84 533.99,277.60 534.21,357.53 534.43,357.71 534.64,331.21 534.86,357.68 535.08,328.40 535.30,357.68 535.52,342.16 535.73,357.70 535.95,350.11 536.17,349.12 536.39,357.66 536.60,357.72 536.82,351.59 537.04,357.70 537.26,347.75 537.47,357.73 537.69,342.66 537.91,357.70 538.13,329.86 538.35,331.82 538.56,357.69 538.78,357.57 539.00,337.19 539.22,348.33 539.43,357.69 539.65,357.65 539.87,334.85 540.09,342.93 540.31,357.65 540.52,357.68 540.74,346.23 540.96,357.69 541.18,331.26 541.39,345.25 541.61,357.68 541.83,357.73 542.05,335.61 542.27,343.77 542.48,357.60 542.70,350.08 542.92,357.73 543.14,357.54 543.35,339.51 543.57,348.50 543.79,357.71 544.01,357.70 544.23,346.64 544.44,357.69 544.66,345.30 544.88,337.98 545.10,357.65 545.31,357.69 545.53,341.44 545.75,357.67 545.97,316.01 546.19,331.17 546.40,357.61 546.62,306.01 546.84,357.64 547.06,357.68 547.27,335.63 547.49,357.63 547.71,327.28 547.93,327.26 548.15,357.68 548.36,357.73 548.58,343.85 548.80,357.71 549.02,335.36 549.23,334.60 549.45,357.73 549.67,343.49 549.89,357.72 550.11,338.18 550.32,357.65 550.54,357.72 550.76,320.93 550.98,357.73 551.19,326.20 551.41,337.08 551.63,357.73 551.85,349.53 552.07,357.73 552.28,357.67 552.50,348.78 552.72,357.70 552.94,346.50 553.15,357.72 553.37,349.72 553.59,357.70 553.81,335.36 554.03,332.50 554.24,357.71 554.46,357.69 554.68,341.23 554.90,357.70 555.11,350.29 555.33,351.34 555.55,357.73 555.77,357.69 555.99,346.98 556.20,346.70 556.42,357.73 556.64,357.71 556.86,294.55 557.07,337.91 557.29,357.65 557.51,345.62 557.73,357.68 557.95,357.69 558.16,340.40 558.38,346.30 558.60,357.66 558.82,344.34 559.03,357.72 559.25,327.36 559.47,357.63 559.69,349.59 559.91,357.72 560.12,357.73 560.34,352.35 560.56,357.73 560.78,349.65 560.99,354.19 561.21,357.73 561.43,351.94 561.65,357.73 561.87,342.98 562.08,357.73 562.30,346.73 562.52,357.71 562.74,346.69 562.95,357.53 563.17,357.72 563.39,347.43 563.61,357.69 563.82,346.67 564.04,357.72 564.26,330.24 564.48,337.63 564.70,357.71 564.91,340.93 565.13,357.70 565.35,347.80 565.57,357.72 565.78,351.86 566.00,357.73 566.22,344.55 566.44,357.63 566.66,349.52 566.87,357.70 567.09,357.67 567.31,323.09 567.53,335.90 567.74,357.70 567.96,350.26 568.18,357.72 568.40,357.73 568.62,349.99 568.83,354.51 569.05,357.73 569.27,357.73 569.49,351.46 569.70,346.80 569.92,357.73 570.14,357.69 570.36,349.09 570.58,357.70 570.79,341.59 571.01,357.70 571.23,321.80 571.45,357.71 571.66,325.83 571.88,357.49 572.10,323.83 572.32,341.51 572.54,357.66 572.75,357.71 572.97,330.31 573.19,289.90 573.41,357.59 573.62,341.64 573.84,357.72 574.06,357.64 574.28,335.36 574.50,357.66 574.71,280.25 574.93,321.76 575.15,357.64 575.37,320.10 575.58,357.66 575.80,336.99 576.02,357.72 576.24,339.80 576.46,357.73 576.67,345.64 576.89,357.73 577.11,347.12 577.33,357.51 577.54,357.68 577.76,276.00 577.98,339.57 578.20,357.61 578.42,357.66 578.63,332.68 578.85,306.57 579.07,357.71 579.29,357.45 579.50,315.08 579.72,357.64 579.94,286.71 580.16,324.89 580.38,357.62 580.59,333.71 580.81,357.70 581.03,325.23 581.25,357.73 581.46,309.73 581.68,357.67 581.90,357.60 582.12,334.82 582.34,357.52 582.55,326.33 582.77,275.13 582.99,357.59 583.21,322.76 583.42,357.65 583.64,357.67 583.86,309.82 584.08,342.59 584.30,357.69 584.51,357.71 584.73,343.90 584.95,357.73 585.17,345.91 585.38,357.68 585.60,336.92 585.82,357.69 586.04,329.20 586.26,330.87 586.47,357.69 586.69,357.53 586.91,305.10 587.13,316.37 587.34,357.64 587.56,341.14 587.78,357.73 588.00,314.90 588.22,357.72 588.43,357.73 588.65,337.27 588.87,357.60 589.09,332.37 589.30,337.31 589.52,357.72 589.74,345.36 589.96,357.69 590.18,338.78 590.39,357.66 590.61,357.70 590.83,344.25 591.05,357.67 591.26,345.55 591.48,334.38 591.70,357.65 591.92,347.90 592.13,357.68 592.35,357.71 592.57,347.70 592.79,357.69 593.01,351.59 593.22,348.12 593.44,357.73 593.66,306.56 593.88,357.73 594.09,342.63 594.31,357.70 594.53,357.73 594.75,339.18 594.97,357.67 595.18,334.88 595.40,357.72 595.62,339.06 595.84,357.67 596.05,337.82 596.27,341.99 596.49,357.70 596.71,344.87 596.93,357.72 597.14,357.55 597.36,328.97 597.58,357.54 597.80,338.00 598.01,357.69 598.23,337.75 598.45,331.14 598.67,357.70 598.89,348.00 599.10,357.73 599.32,357.62 599.54,338.23 599.76,348.99 599.97,357.70 600.19,357.73 600.41,352.13 600.63,352.91 600.85,357.73 601.06,357.72 601.28,351.50 601.50,357.73 601.72,346.96 601.93,357.73 602.15,345.89 602.37,345.09 602.59,357.65 602.81,340.78 603.02,357.71 603.24,357.66 603.46,348.20 603.68,357.68 603.89,347.02 604.11,357.73 604.33,342.90 604.55,347.83 604.77,357.67 604.98,357.68 605.20,339.61 605.42,347.84 605.64,357.67 605.85,344.07 606.07,357.66 606.29,357.72 606.51,346.56 606.73,344.53 606.94,357.64 607.16,357.70 607.38,345.41 607.60,339.06 607.81,357.68 608.03,357.69 608.25,346.30 608.47,357.71 608.69,342.36 608.90,337.76 609.12,357.72 609.34,348.35 609.56,357.67 609.77,357.69 609.99,347.68 610.21,357.73 610.43,342.18 610.65,357.70 610.86,340.06 611.08,329.28 611.30,357.72 611.52,349.72 611.73,357.73 611.95,357.72 612.17,328.85 612.39,345.04 612.61,357.57 612.82,357.68 613.04,340.79 613.26,357.63 613.48,330.18 613.69,294.31 613.91,357.69 614.13,357.72 614.35,329.15 614.57,340.36 614.78,357.67 615.00,339.74 615.22,357.73 615.44,357.62 615.65,323.06 615.87,330.24 616.09,357.68 616.31,350.96 616.53,357.73 616.74,347.05 616.96,357.60 617.18,344.85 617.40,357.73 617.61,357.62 617.83,349.00 618.05,357.41 618.27,336.14 618.48,357.70 618.70,323.79 618.92,275.16 619.14,357.65 619.36,357.52 619.57,331.72 619.79,357.70 620.01,346.00 620.23,357.72 620.44,335.92 620.66,322.07 620.88,357.71 621.10,313.30 621.32,357.44 621.53,272.73 621.75,357.69 621.97,357.71 622.19,337.73 622.40,357.66 622.62,325.49 622.84,357.65 623.06,345.81 623.28,357.59 623.49,336.66 623.71,357.66 623.93,321.02 624.15,357.61 624.36,346.81 624.58,357.73 624.80,334.48 625.02,345.67 625.24,357.52 625.45,344.54 625.67,357.67 625.89,341.07 626.11,357.73 626.32,318.54 626.54,357.57 626.76,337.98 626.98,357.63 627.20,330.37 627.41,357.71 627.63,345.53 627.85,357.71 628.07,357.69 628.28,329.44 628.50,343.82 628.72,357.61 628.94,337.98 629.16,357.65 629.37,357.70 629.59,335.32 629.81,349.43 630.03,357.70 630.24,357.73 630.46,348.02 630.68,343.34 630.90,357.73 631.12,352.84 631.33,357.70 631.55,357.73 631.77,353.95 631.99,357.73 632.20,352.95 632.42,351.68 632.64,357.73 632.86,357.73 633.08,344.71 633.29,353.87 633.51,357.73 633.73,357.73 633.95,350.62 634.16,357.73 634.38,346.94 634.60,328.78 634.82,357.73 635.04,357.68 635.25,334.41 635.47,357.66 635.69,332.29 635.91,347.73 636.12,357.72 636.34,357.73 636.56,338.49 636.78,357.65 637.00,285.76 637.21,357.70 637.43,333.04 637.65,339.30 637.87,357.67 638.08,348.04 638.30,357.70 638.52,357.69 638.74,342.90 638.96,357.72 639.17,344.12 639.39,357.73 639.61,347.22 639.83,336.91 640.04,357.72 640.26,345.94 640.48,357.73 640.70,357.70 640.92,349.70 641.13,357.73 641.35,350.16 641.57,339.90 641.79,357.61 642.00,348.81 642.22,357.73 642.44,357.73 642.66,348.34 642.88,357.60 643.09,343.44 643.31,341.12 643.53,357.73 643.75,348.29 643.96,357.73 644.18,357.70 644.40,348.00 644.62,357.72 644.84,345.56 645.05,348.74 645.27,357.73 645.49,357.73 645.71,336.62 645.92,357.63 646.14,348.09 646.36,357.73 646.58,338.94 646.79,343.45 647.01,357.73 647.23,349.92 647.45,357.73 647.67,357.71 647.88,343.07 648.10,350.57 648.32,357.73 648.54,357.73 648.75,351.85 648.97,357.73 649.19,352.06 649.41,357.73 649.63,346.88 649.84,357.73 650.06,350.52 650.28,357.72 650.50,337.96 650.71,341.24 650.93,357.71 651.15,357.72 651.37,339.12 651.59,357.73 651.80,345.85 652.02,357.73 652.24,351.95 652.46,340.70 652.67,357.73 652.89,335.21 653.11,357.66 653.33,357.73 653.55,344.77 653.76,332.64 653.98,357.66 654.20,335.06 654.42,357.72 654.63,357.73 654.85,331.52 655.07,357.71 655.29,332.46 655.51,357.71 655.72,338.33 655.94,340.82 656.16,357.73 656.38,357.73 656.59,350.52 656.81,346.87 657.03,357.70 657.25,357.73 657.47,331.35 657.68,341.87 657.90,357.64 658.12,342.29 658.34,357.73 658.55,344.56 658.77,357.72 658.99,357.72 659.21,312.96 659.43,328.87 659.64,357.70 659.86,357.68 660.08,342.11 660.30,357.68 660.51,340.94 660.73,347.80 660.95,357.69 661.17,357.65 661.39,347.27 661.60,340.65 661.82,357.57 662.04,357.73 662.26,350.62 662.47,357.66 662.69,336.23 662.91,342.40 663.13,357.72 663.35,347.36 663.56,357.64 663.78,357.66 664.00,341.49 664.22,357.71 664.43,346.75 664.65,348.84 664.87,357.72 665.09,349.28 665.31,357.71 665.52,350.56 665.74,357.73 665.96,357.73 666.18,342.87 666.39,357.59 666.61,340.34 666.83,338.72 667.05,357.73 667.27,340.69 667.48,357.69 667.70,357.73 667.92,335.60 668.14,345.54 668.35,357.72 668.57,357.73 668.79,339.82 669.01,357.70 669.23,337.28 669.44,337.21 669.66,357.73 669.88,322.74 670.10,357.51 670.31,338.36 670.53,357.67 670.75,357.67 670.97,343.12 671.19,357.72 671.40,348.13 671.62,357.72 671.84,336.17 672.06,332.42 672.27,357.68 672.49,340.49 672.71,357.73 672.93,348.37 673.14,357.70 673.36,357.68 673.58,342.91 673.80,347.88 674.02,357.67 674.23,344.40 674.45,357.72 674.67,339.58 674.89,357.73 675.10,346.03 675.32,357.65 675.54,344.40 675.76,357.73 675.98,337.96 676.19,357.71 676.41,357.68 676.63,338.52 676.85,357.59 677.06,345.25 677.28,357.67 677.50,346.64 677.72,345.10 677.94,357.70 678.15,357.62 678.37,346.38 678.59,357.71 678.81,344.53 679.02,334.34 679.24,357.68 679.46,357.59 679.68,343.44 679.90,357.72 680.11,339.93 680.33,357.73 680.55,342.38 680.77,348.93 680.98,357.73 681.20,357.73 681.42,350.20 681.64,357.73 681.86,347.88 682.07,357.73 682.29,351.13 682.51,340.89 682.73,357.72 682.94,357.65 683.16,348.96 683.38,346.20 683.60,357.73 683.82,357.71 684.03,344.25 684.25,350.93 684.47,357.71 684.69,357.70 684.90,342.25 685.12,351.80 685.34,357.73 685.56,357.73 685.78,345.14 685.99,350.05 686.21,357.72 686.43,351.35 686.65,357.73 686.86,357.70 687.08,341.20 687.30,327.57 687.52,357.63 687.74,357.73 687.95,349.28 688.17,340.50 688.39,357.72 688.61,357.73 688.82,346.89 689.04,357.69 689.26,349.78 689.48,345.36 689.70,357.73 689.91,350.60 690.13,357.73 690.35,347.28 690.57,357.73 690.78,357.73 691.00,349.30 691.22,357.73 691.44,339.48 691.66,357.73 691.87,323.84 692.09,347.49 692.31,357.72 692.53,357.73 692.74,336.76 692.96,357.70 693.18,345.62 693.40,351.65 693.62,357.72 693.83,341.00 694.05,357.73 694.27,357.69 694.49,344.25 694.70,357.70 694.92,349.14 695.14,357.67 695.36,341.43 695.58,357.60 695.79,326.57 696.01,357.66 696.23,340.42 696.45,348.05 696.66,357.72 696.88,352.88 697.10,357.73 697.32,357.70 697.54,350.29 697.75,347.97 697.97,357.73 698.19,357.71 698.41,349.36 698.62,357.73 698.84,348.70 699.06,357.72 699.28,345.32 699.49,343.58 699.71,357.73 699.93,357.65 700.15,338.01 700.37,357.72 700.58,350.44 700.80,357.68 701.02,341.38 701.24,346.60 701.45,357.73 701.67,357.72 701.89,345.33 702.11,341.93 702.33,357.73 702.54,344.85 702.76,357.73 702.98,357.70 703.20,346.36 703.41,350.99 703.63,357.71 703.85,357.73 704.07,339.03 704.29,337.83 704.50,357.67 704.72,350.49 704.94,357.72 705.16,357.73 705.37,348.17 705.59,357.71 705.81,322.23 706.03,334.05 706.25,357.73 706.46,357.68 706.68,331.88 706.90,332.95 707.12,357.61 707.33,345.26 707.55,357.72 707.77,357.64 707.99,331.34 708.21,345.00 708.42,357.64 708.64,345.17 708.86,357.67 709.08,357.69 709.29,347.99 709.51,349.31 709.73,357.69 709.95,357.71 710.17,341.96 710.38,345.04 710.60,357.70 710.82,357.70 711.04,346.67 711.25,341.96 711.47,357.71 711.69,344.72 711.91,357.72 712.13,357.73 712.34,347.01 712.56,349.60 712.78,357.73 713.00,357.73 713.21,354.64 713.43,357.73 713.65,352.95 713.87,357.73 714.09,353.15 714.30,357.73 714.52,351.51 714.74,357.73 714.96,348.27 715.17,347.74 715.39,357.73 715.61,357.73 715.83,345.15 716.05,348.47 716.26,357.72 716.48,357.72 716.70,349.12 716.92,357.66 717.13,346.81 717.35,357.72 717.57,351.54 717.79,346.29 718.01,357.73 718.22,335.47 718.44,357.71 718.66,357.69 718.88,346.87 719.09,357.70 719.31,340.76 719.53,357.73 719.75,351.61 719.97,351.05 720.18,357.73 720.40,345.69 720.62,357.73 720.84,357.73 721.05,348.41 721.27,352.46 721.49,357.73 721.71,353.88 721.93,357.73 722.14,357.73 722.36,352.85 722.58,357.73 722.80,350.15 723.01,357.73 723.23,347.54 723.45,357.73 723.67,349.88 723.89,345.02 724.10,357.70 724.32,357.73 724.54,349.35 724.76,357.71 724.97,344.27 725.19,348.12 725.41,357.73 725.63,347.83 725.85,357.73 726.06,357.72 726.28,340.33 726.50,345.32 726.72,357.71 726.93,357.73 727.15,346.53 727.37,275.34 727.59,357.69 727.80,357.73 728.02,344.75 728.24,357.65 728.46,341.20 728.68,345.24 728.89,357.73 729.11,357.73 729.33,347.70 729.55,357.73 729.76,351.91 729.98,351.95 730.20,357.73 730.42,357.73 730.64,337.98 730.85,348.48 731.07,357.71 731.29,321.09 731.51,357.71 731.72,357.70 731.94,342.41 732.16,357.73 732.38,334.80 732.60,345.04 732.81,357.70 733.03,357.70 733.25,332.29 733.47,348.56 733.68,357.71 733.90,357.71 734.12,341.90 734.34,344.66 734.56,357.73 734.77,341.45 734.99,357.73 735.21,343.65 735.43,357.72 735.64,343.96 735.86,357.72 736.08,357.73 736.30,344.74 736.52,337.06 736.73,357.71 736.95,351.78 737.17,357.73 737.39,357.73 737.60,349.78 737.82,346.22 738.04,357.73 738.26,357.73 738.48,351.88 738.69,357.72 738.91,348.89 739.13,341.80 739.35,357.71 739.56,346.21 739.78,357.73 740.00,347.74 740.22,357.66 740.44,357.65 740.65,344.03 740.87,357.73 741.09,339.38 741.31,337.42 741.52,357.71 741.74,357.73 741.96,349.52 742.18,357.63 742.40,342.92 742.61,345.69 742.83,357.73 743.05,344.73 743.27,357.71 743.48,348.74 743.70,357.70 743.92,357.73 744.14,339.69 744.36,342.34 744.57,357.65 744.79,350.11 745.01,357.73 745.23,357.73 745.44,349.62 745.66,352.04 745.88,357.73 746.10,357.73 746.32,350.80 746.53,357.73 746.75,352.67 746.97,345.27 747.19,357.71 747.40,357.73 747.62,347.78 747.84,343.33 748.06,357.67 748.28,357.70 748.49,344.33 748.71,357.73 748.93,350.97 749.15,357.72 749.36,343.15 749.58,357.72 749.80,347.96 750.02,357.73 750.24,344.96 750.45,340.87 750.67,357.73 750.89,351.20 751.11,357.73 751.32,357.71 751.54,340.32 751.76,357.72 751.98,340.62 752.20,341.94 752.41,357.65 752.63,338.12 752.85,357.73 753.07,347.18 753.28,357.72 753.50,357.71 753.72,351.18 753.94,357.70 754.15,344.21 754.37,349.84 754.59,357.73 754.81,351.27 755.03,357.68 755.24,349.49 755.46,357.70 755.68,357.65 755.90,347.80 756.11,345.41 756.33,357.72 756.55,357.73 756.77,349.13 756.99,357.73 757.20,334.02 757.42,348.96 757.64,357.73 757.86,357.72 758.07,343.91 758.29,357.73 758.51,333.46 758.73,357.73 758.95,353.46 759.16,357.73 759.38,344.70 759.60,343.92 759.82,357.69 760.03,341.92 760.25,357.72 760.47,350.44 760.69,357.73 760.91,349.88 761.12,357.73 761.34,349.80 761.56,357.73 761.78,350.90 761.99,357.73 762.21,357.73 762.43,343.49 762.65,347.88 762.87,357.73 763.08,357.69 763.30,345.71 763.52,357.67 763.74,335.75 763.95,341.81 764.17,357.72 764.39,345.01 764.61,357.65 764.83,357.73 765.04,343.56 765.26,338.41 765.48,357.71 765.70,349.82 765.91,357.73 766.13,357.73 766.35,329.31 766.57,357.60 766.79,342.95 767.00,347.40 767.22,357.66 767.44,281.91 767.66,357.71 767.87,357.72 768.09,348.01 768.31,347.68 768.53,357.65 768.75,345.70 768.96,357.61 769.18,357.73 769.40,352.03 769.62,357.73 769.83,351.73 770.05,357.73 770.27,353.43 770.49,357.73 770.71,347.80 770.92,357.73 771.14,349.69 771.36,357.73 771.58,343.44 771.79,357.69 772.01,349.55 772.23,357.70 772.45,347.85 772.67,347.85 772.88,357.71 773.10,357.70 773.32,342.97 773.54,357.71 773.75,347.68 773.97,357.73 774.19,351.54 774.41,340.53 774.63,357.72 774.84,347.12 775.06,357.70 775.28,357.73 775.50,348.05 775.71,342.60 775.93,357.61 776.15,348.87 776.37,357.68 776.59,302.03 776.80,357.50 777.02,348.76 777.24,357.73 777.46,349.43 777.67,357.73 777.89,351.14 778.11,357.73 778.33,357.73 778.55,351.42 778.76,357.73 778.98,349.39 779.20,357.70 779.42,319.78 779.63,357.68 779.85,343.40 780.07,342.24 780.29,357.65 780.51,324.86 780.72,357.52 780.94,342.00 781.16,357.73 781.38,331.11 781.59,357.71 781.81,343.88 782.03,357.66 782.25,357.73 782.46,343.00 782.68,357.70 782.90,343.79 783.12,348.12 783.34,357.71 783.55,357.70 783.77,344.53 783.99,357.65 784.21,349.07 784.42,357.67 784.64,342.84 784.86,343.34 785.08,357.70 785.30,348.77 785.51,357.73 785.73,357.73 785.95,350.25 786.17,357.73 786.38,350.96 786.60,357.73 786.82,351.87 787.04,357.71 787.26,351.83 787.47,357.70 787.69,343.91 787.91,344.90 788.13,357.66 788.34,357.72 788.56,344.63 788.78,340.52 789.00,357.71 789.22,357.73 789.43,336.40 789.65,346.86 789.87,357.71 790.09,357.64 790.30,347.58 790.52,357.67 790.74,340.33 790.96,357.73 791.18,346.97 791.39,357.73 791.61,344.40 791.83,357.73 792.05,336.07 792.26,357.73 792.48,348.45 792.70,357.72 792.92,330.34 793.14,357.73 793.35,343.84 793.57,352.02 793.79,357.73 794.01,351.88 794.22,357.73 794.44,357.73 794.66,354.10 794.88,349.39 795.10,357.73 795.31,357.73 795.53,352.74 795.75,350.70 795.97,357.73 796.18,344.11 796.40,357.68 796.62,349.08 796.84,357.72 797.06,348.39 797.27,357.73 797.49,336.85 797.71,357.72 797.93,357.73 798.14,349.47 798.36,357.67 798.58,332.76 798.80,349.77 799.02,357.66 799.23,357.73 799.45,349.51 799.67,337.42 799.89,357.68 800.10,357.73 800.32,345.20 800.54,357.72 800.76,350.15 800.98,347.57 801.19,357.67 801.41,351.98 801.63,357.73 801.85,357.73 802.06,351.33 802.28,352.57 802.50,357.73 802.72,352.87 802.94,357.73 803.15,357.73 803.37,349.78 803.59,357.73 803.81,347.94 804.02,357.71 804.24,346.52 804.46,347.90 804.68,357.73 804.90,350.12 805.11,357.72 805.33,357.73 805.55,344.29 805.77,347.20 805.98,357.69 806.20,357.72 806.42,351.96 806.64,357.63 806.86,335.76 807.07,357.68 807.29,346.35 807.51,357.73 807.73,345.35 807.94,357.73 808.16,346.89 808.38,357.72 808.60,349.86 808.81,357.71 809.03,349.65 809.25,352.17 809.47,357.73 809.69,357.73 809.90,353.42 810.12,357.73 810.34,354.78 810.56,357.73 810.77,354.49 810.99,357.73 811.21,354.27 811.43,357.73 811.65,351.28 811.86,357.71 812.08,317.98 812.30,345.29 812.52,357.73 812.73,348.02 812.95,357.72 813.17,348.07 813.39,357.68 813.61,357.73 813.82,348.02 814.04,357.73 814.26,340.97 814.48,357.72 814.69,348.59 814.91,357.72 815.13,350.79 815.35,345.03 815.57,357.68 815.78,357.60 816.00,340.46 816.22,340.59 816.44,357.65 816.65,347.11 816.87,357.73 817.09,346.20 817.31,357.73 817.53,352.65 817.74,357.73 817.96,354.00 818.18,357.73 818.40,357.73 818.61,353.53 818.83,357.73 819.05,354.49 819.27,353.25 819.49,357.72 819.70,357.72 819.92,339.26 820.14,357.72 820.36,328.07 820.57,348.38 820.79,357.73 821.01,351.17 821.23,357.69 821.45,357.72 821.66,348.67 821.88,357.69 822.10,345.95 822.32,339.64 822.53,357.70 822.75,344.93 822.97,357.73 823.19,357.69 823.41,343.06 823.62,357.73 823.84,344.32 824.06,343.16 824.28,357.72 824.49,357.71 824.71,351.65 824.93,357.71 825.15,337.96 825.37,348.18 825.58,357.73 825.80,352.49 826.02,357.73 826.24,350.08 826.45,357.72 826.67,357.73 826.89,318.98 827.11,344.19 827.33,357.72 827.54,357.73 827.76,332.87 827.98,346.40 828.20,357.73 828.41,344.95 828.63,357.66 828.85,349.03 829.07,357.71 829.29,357.71 829.50,348.30 829.72,331.99 829.94,357.70 830.16,357.72 830.37,347.59 830.59,357.70 830.81,342.59 831.03,346.48 831.25,357.73 831.46,357.69 831.68,347.09 831.90,357.65 832.12,343.05 832.33,357.73 832.55,348.49 832.77,348.57 832.99,357.73 833.21,357.53 833.42,72.27 833.64,323.67 833.86,357.72 834.08,343.92 834.29,357.68 834.51,357.66 834.73,340.62 834.95,328.60 835.16,357.69 835.38,329.99 835.60,357.65 835.82,341.07 836.04,357.72 836.25,357.71 836.47,331.94 836.69,336.01 836.91,357.66 837.12,357.73 837.34,345.64 837.56,357.64 837.78,341.18 838.00,357.66 838.21,335.49 838.43,357.67 838.65,344.46 838.87,357.71 839.08,337.17 839.30,357.72 839.52,341.72 839.74,357.66 839.96,309.27 840.17,332.90 840.39,357.73 840.61,357.57 840.83,340.32 841.04,357.66 841.26,326.38 841.48,357.68 841.70,344.66 841.92,345.43 842.13,357.73 842.35,348.78 842.57,357.73 842.79,348.26 843.00,357.73 843.22,323.72 843.44,357.72 843.66,341.02 843.88,357.73 844.09,324.16 844.31,357.60 844.53,340.97 844.75,357.71 844.96,349.47 845.18,357.72 845.40,357.72 845.62,337.35 845.84,357.52 846.05,325.18 846.27,337.46 846.49,357.64 846.71,357.68 846.92,330.21 847.14,357.73 847.36,343.39 847.58,331.17 847.80,357.70 848.01,337.89 848.23,357.68 848.45,357.71 848.67,346.73 848.88,357.69 849.10,339.22 849.32,340.97 849.54,357.72 849.76,349.89 849.97,357.73 850.19,357.70 850.41,352.25 850.63,357.73 850.84,353.00 851.06,357.73 851.28,339.93 851.50,345.11 851.72,357.73 851.93,315.81 852.15,357.73 852.37,346.14 852.59,357.71 852.80,357.73 853.02,347.96 853.24,348.94 853.46,357.71 853.68,357.70 853.89,337.45 854.11,334.20 854.33,357.58 854.55,349.64 854.76,357.73 854.98,357.70 855.20,279.67 855.42,357.73 855.64,318.41 855.85,335.55 856.07,357.69 856.29,357.61 856.51,342.88 856.72,339.20 856.94,357.71 857.16,357.72 857.38,336.05 857.60,338.67 857.81,357.71 858.03,351.77 858.25,357.70 858.47,357.73 858.68,345.28 858.90,357.73 859.12,348.51 859.34,347.26 859.56,357.72 859.77,357.69 859.99,342.12 860.21,338.21 860.43,357.72 860.64,357.72 860.86,318.14 861.08,357.73 861.30,341.80 861.52,335.45 861.73,357.72 861.95,323.57 862.17,357.68 862.39,330.30 862.60,357.57 862.82,357.62 863.04,338.45 863.26,344.49 863.47,357.71 863.69,357.59 863.91,337.09 864.13,357.72 864.35,334.86 864.56,357.58 864.78,337.82 865.00,357.71 865.22,343.13 865.43,312.74 865.65,357.63 865.87,344.91 866.09,357.69 866.31,344.53 866.52,357.70 866.74,343.98 866.96,357.70 867.18,349.06 867.39,357.66 867.61,357.70 867.83,335.61 868.05,342.36 868.27,357.62 868.48,357.68 868.70,345.70 868.92,339.55 869.14,357.67 869.35,318.87 869.57,357.58 869.79,357.69 870.01,336.03 870.23,344.57 870.44,357.69 870.66,346.08 870.88,357.71 871.10,357.70 871.31,329.88 871.53,357.62 871.75,339.40 871.97,357.70 872.19,329.28 872.40,338.78 872.62,357.49 872.84,357.70 873.06,310.37 873.27,329.17 873.49,357.66 873.71,357.67 873.93,329.97 874.15,342.54 874.36,357.63 874.58,343.89 874.80,357.71 875.02,346.27 875.23,357.73 875.45,357.70 875.67,343.59 875.89,357.71 876.11,313.05 876.32,357.66 876.54,342.53 876.76,357.73 876.98,329.26 877.19,357.62 877.41,320.72 877.63,340.15 877.85,357.64 878.07,329.63 878.28,357.66 878.50,336.81 878.72,357.71 878.94,357.71 879.15,335.11 879.37,335.23 879.59,357.69 879.81,341.69 880.03,357.69 880.24,337.77 880.46,357.68 880.68,357.71 880.90,338.44 881.11,357.72 881.33,279.83 881.55,309.69 881.77,357.44 881.99,344.69 882.20,357.68 882.42,357.72 882.64,344.18 882.86,357.60 883.07,340.20 883.29,357.63 883.51,347.75 883.73,339.95 883.95,357.63 884.16,357.72 884.38,330.00 884.60,357.69 884.82,341.99 885.03,333.97 885.25,357.68 885.47,357.63 885.69,347.34 885.91,336.74 886.12,357.73 886.34,357.71 886.56,337.35 886.78,343.23 886.99,357.73 887.21,327.81 887.43,357.73 887.65,357.72 887.87,339.36 888.08,357.72 888.30,345.28 888.52,342.20 888.74,357.66 888.95,357.68 889.17,344.66 889.39,357.72 889.61,333.39 889.82,357.72 890.04,347.41 890.26,357.72 890.48,350.43 890.70,357.73 890.91,348.29 891.13,357.73 891.35,347.82 891.57,346.58 891.78,357.73 892.00,357.71 892.22,329.63 892.44,339.29 892.66,357.67 892.87,357.73 893.09,328.55 893.31,357.68 893.53,332.93 893.74,345.07 893.96,357.71 894.18,326.59 894.40,357.55 894.62,357.57 894.83,330.93 895.05,357.70 895.27,301.96 895.49,357.71 895.70,337.73 895.92,344.93 896.14,357.70 896.36,357.73 896.58,327.55 896.79,357.66 897.01,346.51 897.23,338.20 897.45,357.65 897.66,320.63 897.88,357.54 898.10,357.73 898.32,349.49 898.54,357.72 898.75,343.63 898.97,357.72 899.19,349.39 899.41,357.73 899.62,349.51 899.84,357.68 900.06,327.66 900.28,357.72 900.50,333.10 900.71,357.71 900.93,348.31 901.15,333.98 901.37,357.69 901.58,357.67 901.80,346.25 902.02,357.66 902.24,322.71 902.46,342.17 902.67,357.71 902.89,357.71 903.11,347.25 903.33,357.61 903.54,319.00 903.76,339.20 903.98,357.71 904.20,357.71 904.42,339.34 904.63,333.20 904.85,357.71 905.07,338.46 905.29,357.73 905.50,357.73 905.72,330.01 905.94,348.00 906.16,357.73 906.38,357.73 906.59,353.01 906.81,350.69 907.03,357.73 907.25,351.80 907.46,357.73 907.68,357.73 907.90,337.35 908.12,357.73 908.34,343.05 908.55,340.86 908.77,357.68 908.99,357.73 909.21,334.40 909.42,345.36 909.64,357.66 909.86,341.28 910.08,357.67 910.30,336.22 910.51,357.72 910.73,345.70 910.95,357.67 911.17,357.70 911.38,279.71 911.60,337.93 911.82,357.72 912.04,345.29 912.26,357.73 912.47,357.68 912.69,314.77 912.91,329.79 913.13,357.58 913.34,343.50 913.56,357.72 913.78,322.92 914.00,357.69 914.22,351.71 914.43,357.73 914.65,357.73 914.87,348.38 915.09,357.73 915.30,352.79 915.52,357.73 915.74,348.62 915.96,345.41 916.18,357.73 916.39,357.73 916.61,335.05 916.83,345.80 917.05,357.73 917.26,333.67 917.48,357.72 917.70,357.68 917.92,341.32 918.13,357.65 918.35,330.30 918.57,345.91 918.79,357.72 919.01,347.99 919.22,357.73 919.44,357.61 919.66,335.92 919.88,350.01 920.09,357.69 920.31,347.40 920.53,357.73 920.75,339.29 920.97,357.72 921.18,332.15 921.40,357.72 921.62,357.71 921.84,340.05 922.05,357.71 922.27,353.20 922.49,350.65 922.71,357.73 922.93,357.73 923.14,353.95 923.36,357.73 923.58,349.27 923.80,357.73 924.01,353.37 924.23,357.73 924.45,347.86 924.67,357.68 924.89,331.99 925.10,334.89 925.32,357.73 925.54,357.65 925.76,349.12 925.97,357.71 926.19,348.34 926.41,357.72 926.63,333.38 926.85,344.93 927.06,357.70 927.28,357.73 927.50,344.43 927.72,343.52 927.93,357.73 928.15,357.73 928.37,351.70 928.59,352.09 928.81,357.73 929.02,357.70 929.24,348.95 929.46,347.52 929.68,357.69 929.89,329.33 930.11,357.70 930.33,357.73 930.55,350.89 930.77,350.30 930.98,357.73 931.20,357.73 931.42,344.53 931.64,348.09 931.85,357.67 932.07,357.73 932.29,350.98 932.51,357.73 932.73,340.06 932.94,357.72 933.16,341.02 933.38,357.71 933.60,342.21 933.81,350.12 934.03,357.73 934.25,357.73 934.47,338.35 934.69,357.68 934.90,324.83 935.12,357.70 935.34,348.00 935.56,336.97 935.77,357.55 935.99,346.81 936.21,357.71 936.43,357.71 936.65,337.25 936.86,342.78 937.08,357.72 937.30,357.69 937.52,340.53 937.73,357.68 937.95,326.01 938.17,347.98 938.39,357.73 938.61,357.73 938.82,353.42 939.04,357.73 939.26,355.10 939.48,357.73 939.69,353.29 939.91,357.73 940.13,350.78 940.35,357.73 940.57,342.61 940.78,357.67 941.00,342.59 941.22,357.71 941.44,333.79 941.65,347.36 941.87,357.73 942.09,345.30 942.31,357.71 942.53,357.72 942.74,322.15 942.96,348.59 943.18,357.73 943.40,357.68 943.61,329.01 943.83,337.41 944.05,357.69 944.27,346.03 944.48,357.69 944.70,357.62 944.92,316.89 945.14,349.44 945.36,357.73 945.57,352.04 945.79,357.71 946.01,331.28 946.23,357.71 946.44,357.73 946.66,353.24 946.88,357.73 947.10,351.62 947.32,357.73 947.53,351.00 947.75,357.73 947.97,350.40 948.19,350.18 948.40,357.73 948.62,329.82 948.84,357.73 949.06,357.70 949.28,346.15 949.49,349.99 949.71,357.60 949.93,357.73 950.15,335.48 950.36,357.71 950.58,332.29 950.80,304.12 951.02,357.60 951.24,347.73 951.45,357.67 951.67,357.73 951.89,314.76 952.11,347.01 952.32,357.67 952.54,357.72 952.76,341.88 952.98,343.64 953.20,357.72 953.41,357.70 953.63,350.12 953.85,357.63 954.07,333.46 954.28,340.53 954.50,357.73 954.72,357.73 954.94,353.83 955.16,357.73 955.37,350.67 955.59,357.73 955.81,351.25 956.03,357.73 956.24,348.33 956.46,343.04 956.68,357.58 956.90,346.36 957.12,357.71 957.33,325.70 957.55,357.67 957.77,348.37 957.99,357.70 958.20,357.73 958.42,352.55 958.64,337.89 958.86,357.73 959.08,357.73 959.29,350.89 959.51,357.68 959.73,343.13 959.95,333.94 960.16,357.70 960.38,357.70 960.60,341.92 960.82,357.68 961.04,323.66 961.25,357.65 961.47,318.86 961.69,357.72 961.91,333.88 962.12,357.64 962.34,327.20 962.56,347.12 962.78,357.73 963.00,357.64 963.21,318.89 963.43,316.06 963.65,357.71 963.87,357.72 964.08,344.47 964.30,357.67 964.52,328.76 964.74,357.69 964.96,293.76 965.17,289.80 965.39,357.73 965.61,333.74 965.83,357.63 966.04,341.94 966.26,357.65 966.48,331.43 966.70,357.72 966.92,306.08 967.13,357.54 967.35,341.45 967.57,357.73 967.79,320.21 968.00,357.55 968.22,322.46 968.44,357.53 968.66,357.50 968.88,316.09 969.09,285.44 969.31,357.62 969.53,300.37 969.75,357.51 969.96,357.70 970.18,315.64 970.40,335.31 970.62,357.73 970.84,357.57 971.05,302.91 971.27,335.71 971.49,357.73 971.71,344.74 971.92,357.65 972.14,330.84 972.36,357.66 972.58,357.66 972.79,311.60 973.01,332.11 973.23,357.73 973.45,324.54 973.67,357.73 973.88,334.29 974.10,357.68 974.32,357.70 974.54,339.00 974.75,321.72 974.97,357.67 975.19,357.64 975.41,334.32 975.63,357.67 975.84,325.34 976.06,357.62 976.28,339.45 976.50,357.72 976.71,345.76 976.93,357.67 977.15,327.66 977.37,343.01 977.59,357.36 977.80,346.33 978.02,357.64 978.24,326.73 978.46,357.71 978.67,357.72 978.89,346.73 979.11,357.55 979.33,342.82 979.55,357.70 979.76,343.59 979.98,328.56 980.20,357.71 980.42,357.64 980.63,328.57 980.85,357.68 981.07,340.44 981.29,357.73 981.51,320.75 981.72,313.44 981.94,357.70 982.16,339.39 982.38,357.64 982.59,357.63 982.81,329.66 983.03,336.33 983.25,357.73 983.47,357.71 983.68,324.30 983.90,357.71 984.12,320.38 984.34,348.50 984.55,357.72 984.77,357.72 984.99,336.83 985.21,338.82 985.43,357.69 985.64,330.56 985.86,357.70 986.08,329.09 986.30,357.61 986.51,345.79 986.73,357.63 986.95,357.61 987.17,349.17 987.39,343.67 987.60,357.50 987.82,348.37 988.04,357.64 988.26,357.73 988.47,346.92 988.69,357.67 988.91,307.01 989.13,331.20 989.35,357.65 989.56,357.73 989.78,338.91 990.00,357.60 990.22,325.48 990.43,325.17 990.65,357.72 990.87,336.71 991.09,357.70 991.31,289.65 991.52,357.67 991.74,327.70 991.96,357.72 992.18,357.36 992.39,332.33 992.61,345.16 992.83,357.67 993.05,331.26 993.27,357.71 993.48,345.10 993.70,357.73 993.92,336.47 994.14,357.65 994.35,357.72 994.57,330.13 994.79,357.67 995.01,326.20 995.23,357.73 995.44,329.86 995.66,357.67 995.88,317.83 996.10,357.62 996.31,331.20 996.53,314.72 996.75,357.71 996.97,324.78 997.19,357.65 997.40,357.69 997.62,319.48 997.84,320.14 998.06,357.57 998.27,345.40 998.49,357.70 998.71,357.66 998.93,323.11 999.14,357.68 999.36,341.22 999.58,357.73 999.80,319.33 1000.02,322.48 1000.23,357.68 1000.45,339.96 1000.67,357.64 1000.89,357.55 1001.10,332.27 1001.32,332.96 1001.54,357.63 1001.76,337.27 1001.98,357.73 1002.19,316.34 1002.41,357.60 1002.63,344.16 1002.85,357.68 1003.06,357.67 1003.28,341.00 1003.50,344.33 1003.72,357.73 1003.94,339.59 1004.15,357.73 1004.37,339.34 1004.59,357.71 1004.81,357.64 1005.02,287.52 1005.24,330.28 1005.46,357.58 1005.68,327.12 1005.90,357.71 1006.11,357.63 1006.33,323.86 1006.55,357.71 1006.77,325.19 1006.98,325.90 1007.20,357.68 1007.42,357.71 1007.64,345.32 1007.86,328.00 1008.07,357.54 1008.29,343.02 1008.51,357.73 1008.73,357.72 1008.94,335.43 1009.16,333.59 1009.38,357.66 1009.60,357.70 1009.82,332.11 1010.03,357.71 1010.25,335.06 1010.47,330.43 1010.69,357.65 1010.90,345.85 1011.12,357.71 1011.34,348.98 1011.56,357.71 1011.78,357.73 1011.99,347.02 1012.21,347.37 1012.43,357.62 1012.65,357.72 1012.86,337.33 1013.08,357.68 1013.30,313.22 1013.52,357.72 1013.74,329.67 1013.95,357.64 1014.17,338.44 1014.39,332.65 1014.61,357.66 1014.82,357.66 1015.04,341.75 1015.26,342.44 1015.48,357.62 1015.70,357.70 1015.91,335.31 1016.13,357.61 1016.35,338.13 1016.57,357.72 1016.78,337.64 1017.00,357.65 1017.22,335.61 1017.44,357.72 1017.66,342.03 1017.87,357.73 1018.09,339.21 1018.31,357.64 1018.53,332.41 1018.74,357.70 1018.96,336.11 1019.18,352.91 1019.40,357.69 1019.62,346.90 1019.83,357.69 1020.05,327.09 1020.27,357.73 1020.49,343.21 1020.70,357.61 1020.92,357.66 1021.14,337.50 1021.36,357.67 1021.58,340.16 1021.79,216.12 1022.01,357.69 1022.23,339.36 1022.45,357.69 1022.66,343.55 1022.88,357.71 1023.10,333.17 1023.32,357.71 1023.54,357.73 1023.75,345.80 1023.97,357.70 1024.19,335.06 1024.41,347.49 1024.62,357.70 1024.84,327.71 1025.06,357.66 1025.28,357.68 1025.49,320.69 1025.71,357.73 1025.93,345.53 1026.15,357.73 1026.37,318.36 1026.58,357.70 1026.80,344.18 1027.02,349.19 1027.24,357.70 1027.45,357.69 1027.67,342.70 1027.89,357.73 1028.11,347.41 1028.33,343.61 1028.54,357.72 1028.76,341.94 1028.98,357.68 1029.20,357.65 1029.41,298.20 1029.63,357.58 1029.85,341.32 1030.07,357.69 1030.29,341.27 1030.50,326.76 1030.72,357.70 1030.94,357.60 1031.16,314.27 1031.37,357.72 1031.59,342.56 1031.81,344.86 1032.03,357.71 1032.25,335.45 1032.46,357.67 1032.68,327.92 1032.90,357.72 1033.12,357.69 1033.33,338.46 1033.55,357.67 1033.77,345.51 1033.99,340.43 1034.21,357.69 1034.42,347.15 1034.64,357.73 1034.86,353.76 1035.08,357.72 1035.29,357.73 1035.51,352.46 1035.73,350.25 1035.95,357.72 1036.17,357.73 1036.38,344.71 1036.60,357.71 1036.82,329.03 1037.04,357.72 1037.25,340.53 1037.47,357.71 1037.69,340.71 1037.91,341.41 1038.13,357.73 1038.34,344.66 1038.56,357.73 1038.78,357.70 1039.00,345.18 1039.21,357.72 1039.43,330.54 1039.65,319.58 1039.87,357.68 1040.09,357.67 1040.30,332.43 1040.52,341.84 1040.74,357.69 1040.96,357.70 1041.17,347.86 1041.39,312.84 1041.61,357.65 1041.83,357.71 1042.05,342.39 1042.26,357.67 1042.48,342.37 1042.70,333.11 1042.92,357.71 1043.13,351.42 1043.35,357.70 1043.57,357.71 1043.79,348.37 1044.01,357.63 1044.22,331.40 1044.44,357.73 1044.66,349.87 1044.88,343.34 1045.09,357.69 1045.31,325.50 1045.53,357.73 1045.75,357.72 1045.97,327.38 1046.18,357.66 1046.40,335.67 1046.62,357.72 1046.84,341.06 1047.05,341.71 1047.27,357.49 1047.49,335.44 1047.71,357.71 1047.93,343.80 1048.14,357.73 1048.36,338.81 1048.58,357.62 1048.80,342.34 1049.01,357.61 1049.23,357.65 1049.45,304.19 1049.67,344.73 1049.89,357.68 1050.10,329.74 1050.32,357.71 1050.54,334.24 1050.76,357.50 1050.97,344.23 1051.19,357.73 1051.41,357.73 1051.63,343.55 1051.85,347.16 1052.06,357.73 1052.28,349.63 1052.50,357.67 1052.72,344.36 1052.93,357.73 1053.15,357.71 1053.37,330.51 1053.59,357.61 1053.80,334.39 1054.02,357.69 1054.24,339.06 1054.46,357.69 1054.68,350.04 1054.89,357.68 1055.11,339.21 1055.33,334.30 1055.55,357.70 1055.76,338.48 1055.98,357.72 1056.20,357.72 1056.42,344.49 1056.64,357.72 1056.85,333.57 1057.07,357.72 1057.29,342.16 1057.51,338.36 1057.72,357.66 1057.94,357.59 1058.16,341.21 1058.38,345.70 1058.60,357.68 1058.81,345.67 1059.03,357.73 1059.25,357.73 1059.47,351.37 1059.68,357.73 1059.90,349.34 1060.12,353.69 1060.34,357.73 1060.56,341.45 1060.77,357.73 1060.99,357.73 1061.21,349.00 1061.43,357.73 1061.64,329.83 1061.86,357.71 1062.08,335.59 1062.30,345.91 1062.52,357.72 1062.73,345.35 1062.95,357.70 1063.17,357.73 1063.39,345.83 1063.60,357.70 1063.82,347.49 1064.04,357.73 1064.26,337.90 1064.48,313.07 1064.69,357.70 1064.91,339.73 1065.13,357.72 1065.35,357.70 1065.56,345.99 1065.78,357.72 1066.00,350.16" fill="none" stroke="#b45f06" stroke-width="1.25" stroke-linejoin="round" stroke-linecap="round"/>
<text transform="translate(18,215.0) rotate(-90)" text-anchor="middle" font-family="Arial, sans-serif" font-size="13" fill="#222222">abs_r</text>
<line x1="88.00" y1="372.00" x2="88.00" y2="377.00" stroke="#222222" stroke-width="1"/>
<text x="88.00" y="394.00" text-anchor="middle" font-family="Arial, sans-serif" font-size="11" fill="#333333">2024-01-02</text>
<line x1="577.11" y1="372.00" x2="577.11" y2="377.00" stroke="#222222" stroke-width="1"/>
<text x="577.11" y="394.00" text-anchor="middle" font-family="Arial, sans-serif" font-size="11" fill="#333333">2025-03-02</text>
<line x1="1066.00" y1="372.00" x2="1066.00" y2="377.00" stroke="#222222" stroke-width="1"/>
<text x="1066.00" y="394.00" text-anchor="middle" font-family="Arial, sans-serif" font-size="11" fill="#333333">2026-04-30</text>
<text x="577.00" y="415.00" text-anchor="middle" font-family="Arial, sans-serif" font-size="13" fill="#222222">Tiempo</text>
</svg>